<svg xmlns="http://www.w3.org/2000/svg" width="400" height="350" viewBox="0 0 400 350">
  <g id="logo_10" transform="translate(-728 -1184)">
    <rect id="長方形_21" data-name="長方形 21" width="400" height="350" transform="translate(728 1184)" fill="none"/>
    <g id="グループ_169" data-name="グループ 169" transform="translate(696.702 943.298)">
      <g id="グループ_165" data-name="グループ 165" transform="translate(142.046 362.702)">
        <rect id="長方形_33" data-name="長方形 33" width="9.495" height="7.44" transform="translate(0 7.281)" fill="#363636"/>
        <rect id="長方形_34" data-name="長方形 34" width="9.495" height="7.44" transform="translate(9.11)" fill="#363636"/>
        <rect id="長方形_35" data-name="長方形 35" width="9.495" height="7.44" transform="translate(18.224 7.281)" fill="#363636"/>
      </g>
      <g id="グループ_167" data-name="グループ 167" transform="translate(57.298 380.025)">
        <g id="グループ_166" data-name="グループ 166">
          <path id="パス_658" data-name="パス 658" d="M57.3,436.228v-68.21H82.887q7.815,0,12.542,2.072a16.09,16.09,0,0,1,7.4,6.37,16.832,16.832,0,0,1,2.675,9.006,15.452,15.452,0,0,1-2.372,8.234,16.938,16.938,0,0,1-7.165,6.237,17.83,17.83,0,0,1,9.515,6.188,16.558,16.558,0,0,1,3.327,10.329,19.922,19.922,0,0,1-2.024,8.909,17.27,17.27,0,0,1-5,6.351,20.872,20.872,0,0,1-7.468,3.376,45.305,45.305,0,0,1-11,1.137Zm9.026-39.548H81.075a33.185,33.185,0,0,0,8.606-.788,9.632,9.632,0,0,0,5.191-3.4,9.789,9.789,0,0,0,1.743-5.956,10.962,10.962,0,0,0-1.629-5.976,8.245,8.245,0,0,0-4.653-3.539q-3.025-.953-10.375-.955H66.324Zm0,31.5H83.307a39.491,39.491,0,0,0,6.142-.323A14.72,14.72,0,0,0,94.66,426a9.948,9.948,0,0,0,3.444-3.8,11.865,11.865,0,0,0,1.349-5.745,11.331,11.331,0,0,0-1.955-6.631,10.265,10.265,0,0,0-5.419-3.952,33.438,33.438,0,0,0-9.981-1.14H66.324Z" transform="translate(-57.298 -368.018)" fill="#363636"/>
          <path id="パス_659" data-name="パス 659" d="M76.561,423.976V374.564H84.1v7.491q2.884-5.259,5.328-6.931a9.28,9.28,0,0,1,5.373-1.681,16.4,16.4,0,0,1,8.609,2.7l-2.884,7.772a11.988,11.988,0,0,0-6.142-1.812,7.994,7.994,0,0,0-4.933,1.652,8.946,8.946,0,0,0-3.115,4.585,32.585,32.585,0,0,0-1.4,9.769v25.869Z" transform="translate(-13.793 -355.766)" fill="#363636"/>
          <path id="パス_660" data-name="パス 660" d="M86.342,377.653v-9.635H94.72v9.635Zm0,58.574V386.816H94.72v49.412Z" transform="translate(8.297 -368.018)" fill="#363636"/>
          <path id="パス_661" data-name="パス 661" d="M92.825,423.976V374.564h7.54v7.025q5.44-8.143,15.725-8.146a20.481,20.481,0,0,1,8.211,1.613,12.893,12.893,0,0,1,5.608,4.207,16.173,16.173,0,0,1,2.6,6.191,47.615,47.615,0,0,1,.466,8.14v30.382h-8.374V393.919a22.512,22.512,0,0,0-.978-7.651,8.007,8.007,0,0,0-3.467-4.047,10.972,10.972,0,0,0-5.839-1.515,13.571,13.571,0,0,0-9.235,3.4q-3.886,3.387-3.884,12.887v26.983Z" transform="translate(22.939 -355.766)" fill="#363636"/>
          <path id="パス_662" data-name="パス 662" d="M144.854,408.064l8.651,1.069a21.106,21.106,0,0,1-7.582,11.776q-5.538,4.179-14.145,4.187-10.841,0-17.192-6.677t-6.354-18.73q0-12.469,6.422-19.359t16.657-6.889a21.128,21.128,0,0,1,16.195,6.755q6.281,6.74,6.279,18.977c0,.5-.013,1.242-.046,2.232H116.89q.459,8.143,4.6,12.477a13.725,13.725,0,0,0,10.329,4.327,12.806,12.806,0,0,0,7.866-2.424Q142.945,413.368,144.854,408.064Zm-27.5-13.542h27.593q-.557-6.232-3.164-9.349a12.839,12.839,0,0,0-10.375-4.842,13.312,13.312,0,0,0-9.7,3.861A15.3,15.3,0,0,0,117.353,394.522Z" transform="translate(57.736 -355.766)" fill="#363636"/>
          <path id="パス_663" data-name="パス 663" d="M125.325,423.976V374.564h7.537v7.491q2.889-5.259,5.328-6.931a9.28,9.28,0,0,1,5.373-1.681,16.4,16.4,0,0,1,8.609,2.7l-2.884,7.772a11.989,11.989,0,0,0-6.142-1.812,8,8,0,0,0-4.933,1.652,8.946,8.946,0,0,0-3.115,4.585,32.585,32.585,0,0,0-1.395,9.769v25.869Z" transform="translate(96.34 -355.766)" fill="#363636"/>
          <path id="パス_664" data-name="パス 664" d="M135.782,428.075l8.143,1.209a7.748,7.748,0,0,0,2.838,5.487q3.118,2.326,8.514,2.33,5.816,0,8.98-2.33a11.443,11.443,0,0,0,4.282-6.511q.65-2.561.6-10.75a17.211,17.211,0,0,1-13.679,6.465q-10.186,0-15.774-7.351a28.316,28.316,0,0,1-5.582-17.635,32.827,32.827,0,0,1,2.561-13.053,20.466,20.466,0,0,1,7.42-9.235,20.05,20.05,0,0,1,11.424-3.259,17.721,17.721,0,0,1,14.422,7.077v-5.956h7.726v42.712q0,11.54-2.353,16.354a17.185,17.185,0,0,1-7.442,7.612,25.846,25.846,0,0,1-12.539,2.786q-8.842,0-14.285-3.975T135.782,428.075Zm6.934-29.688q0,9.727,3.861,14.191a12.261,12.261,0,0,0,9.678,4.467,12.386,12.386,0,0,0,9.678-4.441q3.91-4.448,3.91-13.936,0-9.072-4.028-13.679a12.439,12.439,0,0,0-9.7-4.608,12.077,12.077,0,0,0-9.492,4.539Q142.713,389.455,142.716,398.387Z" transform="translate(116.174 -355.766)" fill="#363636"/>
          <path id="パス_665" data-name="パス 665" d="M154.276,442.228l-.932-7.859a18.711,18.711,0,0,0,4.793.743,9.218,9.218,0,0,0,4.467-.929,7.591,7.591,0,0,0,2.744-2.61,41.041,41.041,0,0,0,2.561-6.23c.153-.469.4-1.15.743-2.05L149.9,373.787h9.026L169.213,402.4q2,5.445,3.581,11.45a113,113,0,0,1,3.441-11.265l10.564-28.8h8.374l-18.8,50.252a98.141,98.141,0,0,1-4.7,11.212,16.53,16.53,0,0,1-5.116,6.074,12.124,12.124,0,0,1-6.888,1.926A16.62,16.62,0,0,1,154.276,442.228Z" transform="translate(151.842 -354.989)" fill="#363636"/>
        </g>
      </g>
      <g id="グループ_168" data-name="グループ 168" transform="translate(202.464 365.834)">
        <path id="パス_666" data-name="パス 666" d="M115.9,376.127l2.476.626a8.32,8.32,0,0,1-2.8,4.647,7.7,7.7,0,0,1-4.946,1.6,8.865,8.865,0,0,1-4.914-1.232,7.652,7.652,0,0,1-2.884-3.565,12.733,12.733,0,0,1-.987-5.012,11.013,11.013,0,0,1,1.114-5.1,7.644,7.644,0,0,1,3.177-3.3,9.27,9.27,0,0,1,4.533-1.131,7.683,7.683,0,0,1,4.722,1.43,7.444,7.444,0,0,1,2.665,4.018l-2.437.573a5.793,5.793,0,0,0-1.887-2.972,5.023,5.023,0,0,0-3.112-.932,6.054,6.054,0,0,0-3.6,1.033,5.478,5.478,0,0,0-2.033,2.773,11.112,11.112,0,0,0-.59,3.594,11.4,11.4,0,0,0,.7,4.161,5.168,5.168,0,0,0,2.16,2.662,6.065,6.065,0,0,0,3.177.88,5.32,5.32,0,0,0,3.519-1.2A6.12,6.12,0,0,0,115.9,376.127Z" transform="translate(-101.848 -363.663)" fill="#363636"/>
        <path id="パス_667" data-name="パス 667" d="M107.5,372.33q0-3.768,2.092-5.575a6.3,6.3,0,0,1,4.262-1.505,6.086,6.086,0,0,1,4.565,1.831,6.969,6.969,0,0,1,1.773,5.054,8.951,8.951,0,0,1-.785,4.115,5.555,5.555,0,0,1-2.281,2.33,6.678,6.678,0,0,1-3.271.828,6.1,6.1,0,0,1-4.6-1.825A7.3,7.3,0,0,1,107.5,372.33Zm2.359,0A5.746,5.746,0,0,0,111,376.224a3.773,3.773,0,0,0,5.7-.007,5.889,5.889,0,0,0,1.137-3.969,5.592,5.592,0,0,0-1.144-3.806,3.781,3.781,0,0,0-5.693,0A5.725,5.725,0,0,0,109.863,372.33Z" transform="translate(-89.074 -360.081)" fill="#363636"/>
        <path id="パス_668" data-name="パス 668" d="M112.225,379.1V365.555h2.053v1.9a4.84,4.84,0,0,1,1.694-1.6,4.776,4.776,0,0,1,2.411-.606,4.486,4.486,0,0,1,2.47.622,3.35,3.35,0,0,1,1.359,1.75,4.856,4.856,0,0,1,4.184-2.372,4.117,4.117,0,0,1,3.1,1.118,4.752,4.752,0,0,1,1.085,3.434v9.3H128.3v-8.534a6.259,6.259,0,0,0-.225-1.984,1.908,1.908,0,0,0-.808-.974,2.522,2.522,0,0,0-1.378-.371,3.212,3.212,0,0,0-2.372.951,4.194,4.194,0,0,0-.945,3.043V379.1h-2.294v-8.8a3.851,3.851,0,0,0-.564-2.294,2.116,2.116,0,0,0-1.835-.769,3.349,3.349,0,0,0-1.792.511,2.9,2.9,0,0,0-1.193,1.492,8.373,8.373,0,0,0-.371,2.832V379.1Z" transform="translate(-78.412 -360.081)" fill="#363636"/>
        <path id="パス_669" data-name="パス 669" d="M118.9,384.292V365.555h2.092v1.76a5.159,5.159,0,0,1,1.672-1.551,4.6,4.6,0,0,1,2.255-.515,5.376,5.376,0,0,1,3.063.89,5.493,5.493,0,0,1,2,2.522,9.214,9.214,0,0,1,.675,3.565,9.048,9.048,0,0,1-.746,3.744,5.668,5.668,0,0,1-5.158,3.438,4.341,4.341,0,0,1-2.063-.485,4.712,4.712,0,0,1-1.5-1.225v6.6Zm2.079-11.887a5.891,5.891,0,0,0,1.059,3.865,3.248,3.248,0,0,0,2.564,1.251,3.318,3.318,0,0,0,2.62-1.3,6.137,6.137,0,0,0,1.092-4.011,5.983,5.983,0,0,0-1.066-3.878,3.21,3.21,0,0,0-2.545-1.287,3.3,3.3,0,0,0-2.594,1.372A6.128,6.128,0,0,0,120.982,372.4Z" transform="translate(-63.33 -360.081)" fill="#363636"/>
        <path id="パス_670" data-name="パス 670" d="M132.739,377.429a8.6,8.6,0,0,1-2.454,1.531,7.14,7.14,0,0,1-2.535.446,4.921,4.921,0,0,1-3.428-1.091,3.59,3.59,0,0,1-1.2-2.786,3.7,3.7,0,0,1,.453-1.818,3.766,3.766,0,0,1,1.183-1.32,5.683,5.683,0,0,1,1.655-.753,17.309,17.309,0,0,1,2.04-.345,21.021,21.021,0,0,0,4.1-.792c.007-.313.013-.512.013-.6a2.536,2.536,0,0,0-.652-1.978,3.849,3.849,0,0,0-2.617-.779,4.086,4.086,0,0,0-2.392.567,3.473,3.473,0,0,0-1.14,2.01l-2.245-.306a5.619,5.619,0,0,1,1.007-2.33,4.406,4.406,0,0,1,2.03-1.362,9.029,9.029,0,0,1,3.073-.479,8.178,8.178,0,0,1,2.819.407,3.764,3.764,0,0,1,1.6,1.026,3.633,3.633,0,0,1,.714,1.564,13.134,13.134,0,0,1,.114,2.115v3.063a32.527,32.527,0,0,0,.147,4.05,5.066,5.066,0,0,0,.58,1.626h-2.4A4.878,4.878,0,0,1,132.739,377.429Zm-.189-5.129a16.918,16.918,0,0,1-3.751.87,8.968,8.968,0,0,0-2,.456,2.006,2.006,0,0,0-.906.749,2.039,2.039,0,0,0,.375,2.62,3.006,3.006,0,0,0,2.037.613,4.758,4.758,0,0,0,2.359-.58,3.584,3.584,0,0,0,1.518-1.587,5.537,5.537,0,0,0,.371-2.3Z" transform="translate(-53.799 -360.081)" fill="#363636"/>
        <path id="パス_671" data-name="パス 671" d="M127.82,379.1V365.555h2.069v1.926a4.871,4.871,0,0,1,4.311-2.232,5.676,5.676,0,0,1,2.252.44,3.529,3.529,0,0,1,1.535,1.154,4.491,4.491,0,0,1,.717,1.7,13.168,13.168,0,0,1,.127,2.229V379.1h-2.3v-8.237a6.206,6.206,0,0,0-.267-2.1,2.229,2.229,0,0,0-.951-1.111,3.047,3.047,0,0,0-1.6-.414,3.716,3.716,0,0,0-2.532.935q-1.066.929-1.066,3.529v7.4Z" transform="translate(-43.191 -360.081)" fill="#363636"/>
        <path id="パス_672" data-name="パス 672" d="M133.079,384.105l-.257-2.157a5.1,5.1,0,0,0,1.316.205,2.523,2.523,0,0,0,1.222-.254,2.076,2.076,0,0,0,.753-.714,11.4,11.4,0,0,0,.7-1.711c.042-.127.111-.316.2-.56l-5.139-13.572h2.473l2.819,7.843q.547,1.5.984,3.138a30.456,30.456,0,0,1,.942-3.086l2.9-7.9h2.294l-5.152,13.774a26.46,26.46,0,0,1-1.29,3.076,4.506,4.506,0,0,1-1.4,1.662,3.3,3.3,0,0,1-1.887.534A4.638,4.638,0,0,1,133.079,384.105Z" transform="translate(-34.021 -359.869)" fill="#363636"/>
        <path id="パス_673" data-name="パス 673" d="M138.574,382.459v-18.7h2.473v16.491h9.208v2.206Z" transform="translate(-18.903 -363.439)" fill="#363636"/>
        <path id="パス_674" data-name="パス 674" d="M142.977,366.4v-2.636h2.3V366.4Zm0,16.061V368.914h2.3v13.546Z" transform="translate(-8.959 -363.439)" fill="#363636"/>
        <path id="パス_675" data-name="パス 675" d="M144.754,379.1V365.555h2.056v1.9a4.841,4.841,0,0,1,1.694-1.6,4.776,4.776,0,0,1,2.411-.606,4.486,4.486,0,0,1,2.47.622,3.35,3.35,0,0,1,1.359,1.75,4.852,4.852,0,0,1,4.184-2.372,4.117,4.117,0,0,1,3.1,1.118,4.766,4.766,0,0,1,1.085,3.434v9.3h-2.284v-8.534a6.26,6.26,0,0,0-.225-1.984,1.908,1.908,0,0,0-.808-.974,2.522,2.522,0,0,0-1.378-.371,3.212,3.212,0,0,0-2.372.951,4.194,4.194,0,0,0-.945,3.043V379.1h-2.294v-8.8a3.851,3.851,0,0,0-.564-2.294,2.12,2.12,0,0,0-1.835-.769,3.368,3.368,0,0,0-1.8.511,2.894,2.894,0,0,0-1.189,1.492,8.373,8.373,0,0,0-.371,2.832V379.1Z" transform="translate(-4.945 -360.081)" fill="#363636"/>
        <path id="パス_676" data-name="パス 676" d="M151.437,366.4v-2.636h2.294V366.4Zm0,16.061V368.914h2.294v13.546Z" transform="translate(10.148 -363.439)" fill="#363636"/>
        <path id="パス_677" data-name="パス 677" d="M159.1,380.115l.332,2.027a8.44,8.44,0,0,1-1.733.205,3.922,3.922,0,0,1-1.939-.394,2.231,2.231,0,0,1-.971-1.043,8.267,8.267,0,0,1-.28-2.711v-7.791h-1.681v-1.786h1.681v-3.356l2.284-1.375v4.731H159.1v1.786h-2.307v7.918a3.994,3.994,0,0,0,.12,1.264.949.949,0,0,0,.4.45,1.544,1.544,0,0,0,.782.163A7.528,7.528,0,0,0,159.1,380.115Z" transform="translate(13.287 -363.148)" fill="#363636"/>
        <path id="パス_678" data-name="パス 678" d="M165.245,374.738l2.372.293a5.781,5.781,0,0,1-2.079,3.226,7.035,7.035,0,0,1-8.589-.681,7.134,7.134,0,0,1-1.743-5.132,7.479,7.479,0,0,1,1.763-5.308,5.952,5.952,0,0,1,4.565-1.887,5.79,5.79,0,0,1,4.438,1.848,7.363,7.363,0,0,1,1.724,5.2c0,.137-.007.342-.013.616h-10.1a5.175,5.175,0,0,0,1.264,3.415,3.745,3.745,0,0,0,2.832,1.189,3.557,3.557,0,0,0,2.157-.661A4.427,4.427,0,0,0,165.245,374.738Zm-7.537-3.711h7.563a4.6,4.6,0,0,0-.87-2.564,3.517,3.517,0,0,0-2.841-1.326,3.662,3.662,0,0,0-2.662,1.059A4.188,4.188,0,0,0,157.709,371.026Z" transform="translate(18.66 -360.081)" fill="#363636"/>
        <path id="パス_679" data-name="パス 679" d="M169.264,382.459v-1.707a4.22,4.22,0,0,1-3.79,2.014,5.307,5.307,0,0,1-2.978-.893,5.873,5.873,0,0,1-2.1-2.493,8.644,8.644,0,0,1-.746-3.679,9.6,9.6,0,0,1,.678-3.682,5.314,5.314,0,0,1,2.027-2.532,5.42,5.42,0,0,1,3.024-.88,4.516,4.516,0,0,1,3.738,1.861v-6.706h2.281v18.7ZM162,375.7a5.868,5.868,0,0,0,1.1,3.887,3.3,3.3,0,0,0,2.587,1.29,3.251,3.251,0,0,0,2.561-1.232,5.681,5.681,0,0,0,1.049-3.757,6.384,6.384,0,0,0-1.069-4.083,3.3,3.3,0,0,0-2.643-1.3,3.175,3.175,0,0,0-2.555,1.251A6.154,6.154,0,0,0,162,375.7Z" transform="translate(28.686 -363.439)" fill="#363636"/>
      </g>
    </g>
  </g>
</svg>
