<svg xmlns="http://www.w3.org/2000/svg" width="400" height="350" viewBox="0 0 400 350">
  <g id="logo_2" transform="translate(-705 -1184)">
    <rect id="長方形_21" data-name="長方形 21" width="400" height="350" transform="translate(705 1184)" fill="none"/>
    <g id="グループ_67" data-name="グループ 67" transform="translate(546.051 1172.302)">
      <path id="パス_201" data-name="パス 201" d="M297.728,70.676a10.367,10.367,0,0,0,7.656-2.793c2.173-2.166,3.273-5.225,3.273-9.1a12.458,12.458,0,0,0-3.751-9.1,10.411,10.411,0,0,0-7.658-2.789,9.177,9.177,0,0,0-6.7,2.791,12.422,12.422,0,0,0-3.751,9.1,11.694,11.694,0,0,0,3.273,8.616A10.529,10.529,0,0,0,297.728,70.676Zm-5.26-19.057h0a6.446,6.446,0,0,1,4.776-1.993,7.7,7.7,0,0,1,5.731,1.991,9.692,9.692,0,0,1,2.953,7.17c0,3.164-.809,5.508-2.473,7.168a7.68,7.68,0,0,1-5.731,2,7.806,7.806,0,0,1-5.736-2.473,8.961,8.961,0,0,1-2.473-6.69A9.678,9.678,0,0,1,292.467,51.618Z" transform="translate(57.845 3.93)" fill="#363636" fill-rule="evenodd"/>
      <path id="パス_202" data-name="パス 202" d="M279.627,102.9a12.433,12.433,0,0,0,3.749,9.1c3.807,3.809,10.695,5.659,21.054,5.659,12.278,0,20.1-1.85,23.925-5.661a14.383,14.383,0,0,0,4.227-10.528,13.822,13.822,0,0,0-4.231-10.058c-1.783-1.773-4.428-3.023-8.063-3.745q-8.6-.467-16.265-.954c-6.685-.366-9.191-1.546-10.116-2.475a1.881,1.881,0,0,1-.554-1.428,3.44,3.44,0,0,1,1.27-2.23,25.174,25.174,0,0,0,9.806,2.158c6.4,0,11.393-1.744,14.832-5.185,3.758-3.755,5.663-8.746,5.663-14.834a17.475,17.475,0,0,0-2.454-9.16,17.6,17.6,0,0,1,10.133.852,1.364,1.364,0,0,0,1.889-1.258V44.06a1.362,1.362,0,0,0-1.362-1.362h-4.3a16.963,16.963,0,0,0-11.562,4.349A21.717,21.717,0,0,0,303.95,42.7a19.369,19.369,0,0,0-20.021,20.019,18.173,18.173,0,0,0,4.517,12.165c-4.269,2.88-6.431,6.025-6.431,9.361a9.746,9.746,0,0,0,2.791,7.18q.952.961,1.815,1.7a20.08,20.08,0,0,0-4.207,3.073A9.182,9.182,0,0,0,279.627,102.9Zm10.1-8.347a1.364,1.364,0,0,0,.141-2.355,21.672,21.672,0,0,1-3.141-2.7,7.044,7.044,0,0,1-1.99-5.254c0-2.663,2.193-5.328,6.514-7.919a1.36,1.36,0,0,0,.263-2.133,15.543,15.543,0,0,1-4.865-11.475,16.655,16.655,0,0,1,17.3-17.294,19.052,19.052,0,0,1,12.52,4.469,1.358,1.358,0,0,0,1.835-.083,14.234,14.234,0,0,1,10.522-4.385h2.942v5.8a21.975,21.975,0,0,0-11.906.128,1.36,1.36,0,0,0-.724,2.152,14.64,14.64,0,0,1,3.062,9.21c0,5.34-1.635,9.682-4.865,12.907-2.909,2.911-7.254,4.387-12.9,4.387a23.018,23.018,0,0,1-9.483-2.268,1.364,1.364,0,0,0-1.417.176c-1.926,1.539-2.9,3.182-2.9,4.889a4.567,4.567,0,0,0,1.351,3.356c1.86,1.864,5.75,2.932,11.885,3.267,5.1.323,10.532.646,16.079.931a12.6,12.6,0,0,1,6.479,2.977,11.025,11.025,0,0,1,3.431,8.13,11.581,11.581,0,0,1-3.427,8.6c-3.236,3.228-10.635,4.863-22,4.863-9.466,0-15.9-1.635-19.129-4.862a9.678,9.678,0,0,1-2.947-7.172,6.456,6.456,0,0,1,1.99-4.776A21.025,21.025,0,0,1,289.731,94.551Z" transform="translate(51.143)" fill="#363636" fill-rule="evenodd"/>
      <path id="パス_203" data-name="パス 203" d="M299.789,85.992c9.059,0,14.695-1.225,17.228-3.751a6.836,6.836,0,0,0,2.315-4.788,5.939,5.939,0,0,0-1.839-4.318c-1.566-1.552-4.066-2.307-7.594-2.307h-.008a167.944,167.944,0,0,1-17.548-1.421,1.433,1.433,0,0,0-.586.037,12.311,12.311,0,0,0-5.372,2.74,7.166,7.166,0,0,0,0,10.538C288.585,84.922,292.973,85.992,299.789,85.992ZM288.316,74.113a9.474,9.474,0,0,1,3.911-1.964,175.412,175.412,0,0,0,17.608,1.405c2.754,0,4.738.524,5.731,1.513a3.207,3.207,0,0,1,1.039,2.386,4.292,4.292,0,0,1-1.513,2.862c-1.353,1.347-5.1,2.949-15.3,2.949-7.441,0-10.348-1.343-11.473-2.469a4.442,4.442,0,0,1,0-6.683Z" transform="translate(55.304 24.969)" fill="#363636" fill-rule="evenodd"/>
      <path id="パス_204" data-name="パス 204" d="M336.19,173.726v-4.461a12.53,12.53,0,0,1-1.086,1.124q-.6.549-1.256,1.043c-.439.333-.879.639-1.33.915s-.873.523-1.277.724a9.849,9.849,0,0,1-1.119.48,2.87,2.87,0,0,1-.852.174,2.582,2.582,0,0,1-1-.186,1.776,1.776,0,0,1-.757-.592,2.909,2.909,0,0,1-.472-1.055,6.662,6.662,0,0,1-.159-1.581c0-.246,0-.511.008-.8s.014-.592.023-.9.021-.629.033-.948.021-.631.031-.933q.049-1.045.114-2.125c.269-.36.567-.764.886-1.211s.637-.9.952-1.366h6.22a.911.911,0,0,0,.714-.408,1.655,1.655,0,0,0,.325-1.061,2.556,2.556,0,0,0-.145-.929.529.529,0,0,0-.472-.387c-.18-.012-.414-.025-.695-.035s-.582-.025-.906-.037l-1-.031c-.344-.008-.668-.017-.966-.025s-.557-.029-.784-.05a1.117,1.117,0,0,0-.488.021q.586-.972,1.111-1.959a20.859,20.859,0,0,0,.912-1.951,13.993,13.993,0,0,0,.619-1.893,7.534,7.534,0,0,0,.226-1.763,8.482,8.482,0,0,0-.221-1.937,5.874,5.874,0,0,0-.625-1.63,3.564,3.564,0,0,0-.979-1.111,2.094,2.094,0,0,0-1.27-.418,2.873,2.873,0,0,0-2.069,1.032,10.8,10.8,0,0,0-1.817,2.744,26.746,26.746,0,0,0-1.5,3.907,41.616,41.616,0,0,0-1.107,4.542,2.9,2.9,0,0,1-.594.025c-.286,0-.613-.015-.975-.025s-.745-.015-1.138-.012c-.215,0-.393.029-.586.044.163-.331.35-.66.5-.991.509-1.09.944-2.137,1.318-3.145a23.658,23.658,0,0,0,.865-2.843,10.6,10.6,0,0,0,.31-2.355,4.615,4.615,0,0,0-.331-1.856,3.5,3.5,0,0,0-.834-1.213,3.049,3.049,0,0,0-1.1-.66,3.554,3.554,0,0,0-1.157-.207,4.237,4.237,0,0,0-2.611.9,9,9,0,0,0-2.158,2.456,20.249,20.249,0,0,0-1.744,3.623,43.42,43.42,0,0,0-1.38,4.411q-.607,2.343-1.043,4.813t-.759,4.819c-.207,1.5-.364,2.918-.48,4.279-.221.284-.443.615-.664.873s-.468.523-.72.77a8.64,8.64,0,0,1-.763.664,4.409,4.409,0,0,1-.753.476,1.635,1.635,0,0,1-.712.18.57.57,0,0,1-.59-.451,4.442,4.442,0,0,1-.137-1.244,12.466,12.466,0,0,1,.265-2.3c.182-.908.337-1.717.48-2.427s.261-1.4.368-2.079a11.551,11.551,0,0,0,.165-1.846,3.43,3.43,0,0,0-.089-.861,1.206,1.206,0,0,0-.252-.493.738.738,0,0,0-.377-.228,1.854,1.854,0,0,0-.453-.052c-.122,0-.242,0-.366.008s-.25.01-.37.01a2.98,2.98,0,0,1-.414-.029,1.369,1.369,0,0,1-.4-.112.78.78,0,0,1-.325-.281c-.085-.132-.178-.263-.271-.4a1.467,1.467,0,0,0-.348-.362.966.966,0,0,0-.585-.157,5.116,5.116,0,0,0-2.208.511,8.67,8.67,0,0,0-2.061,1.38,12.173,12.173,0,0,0-1.8,2.03,16.394,16.394,0,0,0-1.537,2.762c-.137.306-.188.563-.306.857a8.928,8.928,0,0,1-.819.451,3.644,3.644,0,0,1-1.508.348,1.207,1.207,0,0,1-.493-.1,1.069,1.069,0,0,1-.418-.36,2.017,2.017,0,0,1-.3-.67,4.039,4.039,0,0,1-.114-1.043,6.729,6.729,0,0,1,.081-.915c.054-.366.143-.83.259-1.4s.207-1.028.259-1.384a5.815,5.815,0,0,0,.081-.826,1.7,1.7,0,0,0-.132-.689,1.547,1.547,0,0,0-.346-.513,1.492,1.492,0,0,0-.509-.319,1.557,1.557,0,0,0-.6-.114,2.533,2.533,0,0,0-1.573.515,5.834,5.834,0,0,0-1.214,1.26,10.327,10.327,0,0,0-1.018,1.879q-.485,1.135-.809,1.833h-.178a20.617,20.617,0,0,1,.046-2.073c.056-.792.081-1.4.081-1.831,0-.36-.006-.643-.025-.852a.978.978,0,0,0-.134-.48.522.522,0,0,0-.352-.209,4.808,4.808,0,0,0-1.277,0,.979.979,0,0,0-.422.174,1.211,1.211,0,0,0-.3.358,3.556,3.556,0,0,0-.259.606,13.261,13.261,0,0,0-.418,1.467c-.143.592-.31,1.33-.505,2.218s-.354,1.724-.474,2.508c-.068.43-.12.842-.18,1.262-.368.211-.766.37-1.121.612-.869.592-1.72,1.221-2.558,1.873s-1.67,1.31-2.508,1.96a22.846,22.846,0,0,1-2.6,1.75,14.879,14.879,0,0,1-2.826,1.252,10.316,10.316,0,0,1-3.2.478,6.546,6.546,0,0,1-2.477-.451,4.671,4.671,0,0,1-1.858-1.372,6.441,6.441,0,0,1-1.175-2.3,11.29,11.29,0,0,1-.412-3.238,18.018,18.018,0,0,1,.234-2.768c.006-.039.019-.083.027-.124.275.046.559-.294.505-1.126H261.1c.126-.612.226-1.212.4-1.848a32.9,32.9,0,0,1,1.062-3.207c.23-.594.515-1.148.778-1.719.534.008.55-.257.641-.48a1.205,1.205,0,0,1-.385-.083c.13-.265.232-.55.368-.809.058-.112.132-.205.192-.315h.782v-.606h-.414c.323-.559.641-1.126,1-1.643.052.023.062.05.135.07a.531.531,0,0,1-.021-.257l.019-.031a14.568,14.568,0,0,1,1.933-2.249,9.182,9.182,0,0,1,2.129-1.5,5.033,5.033,0,0,1,2.276-.553,3.884,3.884,0,0,1,1.674.323,3.2,3.2,0,0,1,1.124.852,3.258,3.258,0,0,1,.633,1.239,5.479,5.479,0,0,1,.2,1.486,6.631,6.631,0,0,1-.544,2.711,7.339,7.339,0,0,1-1.391,2.115,6.2,6.2,0,0,1-1.908,1.374,5.015,5.015,0,0,1-2.1.49,2.757,2.757,0,0,1-.639-.062,3.936,3.936,0,0,1-.43-.13c-.12-.046-.226-.089-.325-.132a.912.912,0,0,0-.339-.06.716.716,0,0,0-.511.172,1.1,1.1,0,0,0-.283.455,2.64,2.64,0,0,0-.128.617c-.021.226-.033.443-.033.652,0,.139,0,.275.008.4s.006.238.006.329a1.358,1.358,0,0,0,.728,1.229,4.5,4.5,0,0,0,2.2.426,5.891,5.891,0,0,0,2.231-.451,9.719,9.719,0,0,0,2.154-1.229,11.893,11.893,0,0,0,1.935-1.837,13.517,13.517,0,0,0,1.56-2.276,12.1,12.1,0,0,0,.482-1.159.945.945,0,0,0,.7-.4c.182.362-.232.437-.232.724.2.356.774-.074,1.194,0a2.76,2.76,0,0,0-1.3-1.2c.056-.166.153-.319.2-.488a9.359,9.359,0,0,0,.381-2.6,8.358,8.358,0,0,0-.608-3.325,7.1,7.1,0,0,0-1.566-2.336,6.133,6.133,0,0,0-1.784-1.184.836.836,0,0,0,.141-.6c-.728-.081-.7.211-1.426.12,0,.017,0,.027,0,.041a6.552,6.552,0,0,0-1.446-.186,9.67,9.67,0,0,0-3.464.631,13.1,13.1,0,0,0-3.176,1.744,18.809,18.809,0,0,0-2.831,2.615,25.282,25.282,0,0,0-2.435,3.251c-.155.244-.267.517-.414.766a.621.621,0,0,0-.308-.271c1.022-.685.72-2.055,1.192-3.023a2.8,2.8,0,0,1-2.624.846c.062.675-1.144.71-1.664,1.088-.186.375.815.149.464.6.548-.087,1.87.219,1.684-.238.1-.344-1.306.093-1.2-.242.244-.163.223-.455.716-.488.559.182,1.033-.043,1.194.124-.315,1.13,0,2.58-1.194,3.265a2.361,2.361,0,0,1,.685.283c-.161.323-.364.621-.515.952-.221.482-.366.97-.563,1.453-.029-.014-.06,0-.091-.027-.01-.072-.025-.143-.232-.12.172.37-.824.149-.484.6a4.474,4.474,0,0,0,.639-.015c-.252.646-.546,1.291-.751,1.939a29.517,29.517,0,0,0-.931,3.768,20.252,20.252,0,0,0-.321,3.464,14.492,14.492,0,0,0,.67,4.424,11.691,11.691,0,0,0,1.92,3.695,9.408,9.408,0,0,0,3,2.524,8.237,8.237,0,0,0,3.942.937,21.216,21.216,0,0,0,3.6-.284,18.281,18.281,0,0,0,2.977-.77,15.027,15.027,0,0,0,2.469-1.128,21.217,21.217,0,0,0,2.063-1.347,16.537,16.537,0,0,0,1.767-1.527c.542-.55,1.068-1.068,1.575-1.562.331-.321.656-.6.981-.886,0,.163-.023.372-.023.521a12.772,12.772,0,0,0,.072,1.353,4,4,0,0,0,.294,1.163,1.925,1.925,0,0,0,.621.821,1.724,1.724,0,0,0,1.068.306,1.253,1.253,0,0,0,.534-.114,1.2,1.2,0,0,0,.451-.391,3.876,3.876,0,0,0,.416-.724q.2-.441.43-1.124l2.9-8.688h.259c.089.732.2,1.452.341,2.17a7.492,7.492,0,0,0,.645,1.93,3.873,3.873,0,0,0,1.182,1.4,3.3,3.3,0,0,0,1.959.532,4.232,4.232,0,0,0,1.339-.221c.163-.054.314-.139.474-.2-.008.164-.064.339-.064.5a5.984,5.984,0,0,0,.341,2.08,4.874,4.874,0,0,0,.906,1.564,3.924,3.924,0,0,0,1.3.983,3.54,3.54,0,0,0,1.515.344,4.355,4.355,0,0,0,1.469-.259,7.953,7.953,0,0,0,1.413-.664,8.526,8.526,0,0,0,1.244-.9,8.163,8.163,0,0,0,.966-.983,6.015,6.015,0,0,0,1.239,2.129,2.4,2.4,0,0,0,1.792.735,3.757,3.757,0,0,0,1.781-.476,8.8,8.8,0,0,0,1.668-1.165c.095-.083.166-.18.259-.265-.039.54-.07,1.028-.085,1.413-.029.648-.043,1-.043,1.061q0,1.06.074,2.2c.046.755.132,1.5.25,2.231a14.048,14.048,0,0,0,.49,2.073,7.388,7.388,0,0,0,.78,1.721,3.846,3.846,0,0,0,1.126,1.173,2.763,2.763,0,0,0,1.542.432,3.451,3.451,0,0,0,1.668-.4,4.708,4.708,0,0,0,1.306-1.055,7.142,7.142,0,0,0,.993-1.494,12.675,12.675,0,0,0,.72-1.746,17.365,17.365,0,0,0,.484-1.792c.124-.588.219-1.128.286-1.614s.118-.9.145-1.235.043-.557.043-.66a10.078,10.078,0,0,0-.354-2.651,20,20,0,0,0-.792-2.371,22.564,22.564,0,0,0-1.128-2.38,17.308,17.308,0,0,0,4.469-.774,10.1,10.1,0,0,0,1.73-.764c.048.581.1,1.163.174,1.7a15.3,15.3,0,0,0,.944,3.646,5.981,5.981,0,0,0,1.562,2.307,3.2,3.2,0,0,0,2.158.8,4.278,4.278,0,0,0,1.337-.246,11.493,11.493,0,0,0,1.686-.732c.631-.321,1.351-.73,2.164-1.215S335.151,174.374,336.19,173.726Zm-8.469-17.857q.345-1.486.745-2.723a12.162,12.162,0,0,1,.83-2.032c.286-.528.571-.8.852-.8a.733.733,0,0,1,.478.139.824.824,0,0,1,.254.346,1.762,1.762,0,0,1,.106.443,3.822,3.822,0,0,1,.023.424,4.789,4.789,0,0,1-.277,1.411q-.276.862-.7,1.85c-.281.66-.6,1.33-.95,2.011s-.689,1.318-1.016,1.9c-.174-.017-.341-.031-.5-.046s-.327-.023-.486-.043C327.274,157.823,327.487,156.857,327.721,155.868Zm-25.728,13.5a10.657,10.657,0,0,1-.285,1.405,9.961,9.961,0,0,1-.575,1.628,5.431,5.431,0,0,1-.844,1.349,1.412,1.412,0,0,1-1.086.565.924.924,0,0,1-.617-.209,1.446,1.446,0,0,1-.387-.536,2.7,2.7,0,0,1-.2-.757,6.389,6.389,0,0,1-.056-.873,7.727,7.727,0,0,1,.184-1.622,12.872,12.872,0,0,1,.639-2,13.308,13.308,0,0,1,.923-1.916,8.453,8.453,0,0,1,1.03-1.38,4.836,4.836,0,0,1,1.188-.96,2.627,2.627,0,0,1,1.295-.354Zm13.141-8.059c.077-.749.213-1.616.4-2.6s.468-2.115.846-3.391a43.889,43.889,0,0,1,1.564-4.4,12.1,12.1,0,0,1,.821-1.757,1.4,1.4,0,0,1,1.188-.416.846.846,0,0,1,.8.426,2.845,2.845,0,0,1,.242,1.345,7.428,7.428,0,0,1-.588,2.208q-.592,1.547-1.424,3.207t-1.937,3.557q-1.106,1.9-2.142,3.892C314.973,162.748,315.053,162.058,315.134,161.312Zm.652,19a13,13,0,0,1-.226,1.811,4.279,4.279,0,0,1-.505,1.366,1.013,1.013,0,0,1-.89.538.463.463,0,0,1-.348-.234,2.858,2.858,0,0,1-.312-1.018,21.563,21.563,0,0,1-.226-2.3c-.06-1.012-.089-2.367-.089-4.074,0-.246.01-.579.031-1s.05-.873.085-1.349.083-1.078.139-1.821.095-1.312.124-1.713a9.079,9.079,0,0,1,.128-1c.056-.265.1-.4.149-.4.132,0,.273.161.426.476s.352.695.6,1.128a5.894,5.894,0,0,1,.575,1.955c.139.867.228,1.639.271,2.328s.077,1.324.1,1.916.031,1.09.031,1.5C315.842,179.03,315.825,179.661,315.786,180.317Zm4.678-13.36a8.959,8.959,0,0,1-2.831.412.984.984,0,0,1-.3-.041,1.869,1.869,0,0,1-.234-.085c-.077-.027-.159-.056-.252-.081a1.354,1.354,0,0,0-.366-.039,1.289,1.289,0,0,0-.358.046,3.3,3.3,0,0,0-.511.2l.033-.281q1.031-1.373,2.022-2.946c.664-1.051,1.291-2.115,1.891-3.2.048-.087.085-.174.134-.261a1.325,1.325,0,0,0,.428.159c.585.077,1.032.141,1.345.194s.563.1.763.147.395.087.571.134.434.093.761.145c-.1.778-.17,1.562-.228,2.349-.039.586-.048,1.121-.058,1.655a7.556,7.556,0,0,1-.739.579A10.3,10.3,0,0,1,320.464,166.958Z" transform="translate(28.98 96.066)" fill="#363636" fill-rule="evenodd"/>
      <path id="パス_205" data-name="パス 205" d="M357.975,167.018a13.139,13.139,0,0,1-1.49,1.146,9.4,9.4,0,0,1-1.422.784,3.651,3.651,0,0,1-1.508.348,1.2,1.2,0,0,1-.493-.1,1.073,1.073,0,0,1-.42-.36,2.057,2.057,0,0,1-.3-.67,4.138,4.138,0,0,1-.112-1.043,6.441,6.441,0,0,1,.081-.915c.052-.366.141-.83.259-1.4s.205-1.028.259-1.384a6.111,6.111,0,0,0,.081-.826,1.7,1.7,0,0,0-.132-.689,1.553,1.553,0,0,0-.348-.513,1.5,1.5,0,0,0-.507-.319,1.567,1.567,0,0,0-.6-.114,2.532,2.532,0,0,0-1.571.515,5.836,5.836,0,0,0-1.213,1.26,10.1,10.1,0,0,0-1.018,1.879q-.485,1.135-.811,1.833h-.176a20.069,20.069,0,0,1,.046-2.073c.056-.792.081-1.4.081-1.831,0-.36-.008-.643-.025-.852a.957.957,0,0,0-.135-.48.517.517,0,0,0-.35-.209,3.8,3.8,0,0,0-.654-.043,3.742,3.742,0,0,0-.623.043.977.977,0,0,0-.424.174,1.241,1.241,0,0,0-.3.358,3.574,3.574,0,0,0-.257.606,13.249,13.249,0,0,0-.42,1.467c-.141.592-.308,1.33-.5,2.218s-.356,1.724-.476,2.508-.234,1.554-.327,2.307c-.012.095-.016.176-.027.269-.242.215-.434.414-.718.639a17.625,17.625,0,0,1-1.926,1.339,13.236,13.236,0,0,1-2.094,1.022,5.861,5.861,0,0,1-2.047.408,2.5,2.5,0,0,1-.579-.068,1.582,1.582,0,0,1-.511-.242,2.177,2.177,0,0,1-.48-.476,5.416,5.416,0,0,1-.478-.766,10.947,10.947,0,0,0,2.618-1.138,9.7,9.7,0,0,0,2.082-1.672,9.432,9.432,0,0,0,1.535-2.247,5.365,5.365,0,0,0,.66-2.367,4.723,4.723,0,0,0-.327-1.792,3.932,3.932,0,0,0-2.253-2.241,4.428,4.428,0,0,0-1.686-.314,4.762,4.762,0,0,0-2.021.42,5.9,5.9,0,0,0-1.643,1.134,7.712,7.712,0,0,0-1.277,1.651,11.415,11.415,0,0,0-.912,1.966c-.242.687-.476,1.477-.7,2.363a9.4,9.4,0,0,0-.337,2.3c0,.269.083.507.1.768a18.1,18.1,0,0,1-1.864,1.295,13.155,13.155,0,0,1-2.094,1.022,5.862,5.862,0,0,1-2.048.408,2.5,2.5,0,0,1-.579-.068,1.621,1.621,0,0,1-.511-.242,2.132,2.132,0,0,1-.478-.476,5.417,5.417,0,0,1-.48-.766,10.948,10.948,0,0,0,2.618-1.138,9.709,9.709,0,0,0,2.084-1.672,9.482,9.482,0,0,0,1.533-2.247,5.365,5.365,0,0,0,.66-2.367,4.723,4.723,0,0,0-.327-1.792,3.931,3.931,0,0,0-2.253-2.241,4.421,4.421,0,0,0-1.686-.314,4.753,4.753,0,0,0-2.019.42,5.872,5.872,0,0,0-1.643,1.134,7.652,7.652,0,0,0-1.277,1.651,11.409,11.409,0,0,0-.913,1.966c-.24.687-.474,1.477-.7,2.363a9.346,9.346,0,0,0-.226,1.546c-.236.23-.478.49-.706.681-.412.348-.821.66-1.225.941s-.805.54-1.206.77-.792.476-1.182.72a10.357,10.357,0,0,0,.788-1.56,10.023,10.023,0,0,0,.468-1.515,11.264,11.264,0,0,0,.234-1.562q.064-.8.064-1.7a7.344,7.344,0,0,0-.273-2.011,5.662,5.662,0,0,0-.8-1.707,4.1,4.1,0,0,0-1.262-1.188,3.24,3.24,0,0,0-1.7-.447,2.187,2.187,0,0,0-1.5.726A16.811,16.811,0,0,0,307,164.146l-.259-.188q1.135-1.475,2.276-3.141a35.258,35.258,0,0,0,2.061-3.41,22.229,22.229,0,0,0,1.5-3.5,10.887,10.887,0,0,0,.575-3.4,18.435,18.435,0,0,0-.128-2.229,5.408,5.408,0,0,0-.536-1.819,3.082,3.082,0,0,0-1.15-1.229,3.77,3.77,0,0,0-1.974-.451,2.85,2.85,0,0,0-2.048.958,10.023,10.023,0,0,0-1.748,2.541,25.1,25.1,0,0,0-1.455,3.613,30.022,30.022,0,0,0-1.051,4.428c-.267,1.6-.482,2.928-.66,3.993q-.244,2.093-.395,3.815c-.193,1.022-.4,2.63-.619,4.823q-.229,2.229-.344,3.78-.145,1.777-.192,3.187c.571.453,1.167.894,1.78,1.322a11.715,11.715,0,0,0,2.448.906,23.774,23.774,0,0,0,2.74.072h.4c.412-.174.8-.356,1.153-.54.312-.163.627-.344.946-.54a3.479,3.479,0,0,0,.753-.592q1.135-.282,2.146-.631a14.071,14.071,0,0,0,1.941-.83,13.516,13.516,0,0,0,1.813-1.128c.093-.068.186-.166.279-.238a7.27,7.27,0,0,0,1.092,2.274,5.43,5.43,0,0,0,4.536,2.226,7.769,7.769,0,0,0,1.92-.242,10.881,10.881,0,0,0,1.831-.646,13.693,13.693,0,0,0,1.682-.921c.536-.348,1.032-.7,1.5-1.062.1-.081.192-.2.3-.281a7.19,7.19,0,0,0,.445.927,5.423,5.423,0,0,0,4.534,2.226,7.745,7.745,0,0,0,1.92-.242,10.762,10.762,0,0,0,1.831-.646,13.557,13.557,0,0,0,1.682-.921c.5-.323.954-.654,1.39-.985.012.166.01.343.027.505a4.066,4.066,0,0,0,.294,1.163,1.941,1.941,0,0,0,.621.821,1.732,1.732,0,0,0,1.068.306,1.256,1.256,0,0,0,.536-.114,1.229,1.229,0,0,0,.451-.391,3.879,3.879,0,0,0,.414-.724,11.67,11.67,0,0,0,.43-1.124l2.9-8.688h.259c.089.732.2,1.452.341,2.17a7.566,7.566,0,0,0,.646,1.93,3.854,3.854,0,0,0,1.183,1.4,3.3,3.3,0,0,0,1.959.532,4.212,4.212,0,0,0,1.337-.221,8,8,0,0,0,1.264-.54,11.21,11.21,0,0,0,1.138-.687c.36-.242.675-.463.956-.66Zm-52.786-5.9q.18-.926.4-2.044t.457-2.379q.244-1.26.55-2.473c.2-.805.412-1.579.625-2.317s.433-1.388.656-1.953a7.224,7.224,0,0,1,.681-1.341c.23-.329.455-.5.668-.5a.538.538,0,0,1,.434.192,1.465,1.465,0,0,1,.248.435,2.06,2.06,0,0,1,.114.468c.013.153.021.252.021.3a15.113,15.113,0,0,1-.358,2.427,21.2,21.2,0,0,1-.71,2.353c-.285.77-.6,1.527-.948,2.264s-.706,1.455-1.068,2.158-.728,1.38-1.086,2.03-.681,1.281-.972,1.883Q305.009,162.056,305.189,161.123Zm5.291,7.931c-.056.532-.135,1.072-.244,1.614a12.116,12.116,0,0,1-.42,1.57,6.936,6.936,0,0,1-.617,1.341,3.37,3.37,0,0,1-.809.941,1.6,1.6,0,0,1-1,.35,6.168,6.168,0,0,0-.987.085,2.438,2.438,0,0,1-.985-.017,10.054,10.054,0,0,1-1.068-.294c.039-.408.085-.848.141-1.312.039-.4.089-.867.145-1.384.153-1.374.228-2.069.228-2.094-.122-.246.064-.919.55-2.017a5.075,5.075,0,0,1,.859-1.388,3.2,3.2,0,0,1,1.049-.8,2.771,2.771,0,0,1,1.136-.255,2.538,2.538,0,0,1,1.043.184,1.694,1.694,0,0,1,.65.482,1.721,1.721,0,0,1,.323.693,3.766,3.766,0,0,1,.087.834A14.485,14.485,0,0,1,310.48,169.054Zm10.273-.039a5.967,5.967,0,0,1,.3-1.345c.182-.544.337-1,.472-1.37a3.706,3.706,0,0,1,.536-.985,2.614,2.614,0,0,1,.83-.706,2.4,2.4,0,0,1,1.192-.275.777.777,0,0,1,.66.494,2.356,2.356,0,0,1-.3,2.642,6.543,6.543,0,0,1-1.159,1.326A5.671,5.671,0,0,1,322,169.6a3.094,3.094,0,0,1-1.277.317C320.722,169.667,320.732,169.369,320.753,169.015Zm12.208,0a5.869,5.869,0,0,1,.3-1.345q.27-.816.472-1.37a3.658,3.658,0,0,1,.536-.985,2.574,2.574,0,0,1,.83-.706,2.392,2.392,0,0,1,1.192-.275.779.779,0,0,1,.66.494,2.638,2.638,0,0,1,.265,1.26,2.67,2.67,0,0,1-.567,1.382,6.489,6.489,0,0,1-1.161,1.326,5.613,5.613,0,0,1-1.283.809,3.108,3.108,0,0,1-1.277.317C332.93,169.667,332.94,169.369,332.961,169.015Z" transform="translate(70.993 95.478)" fill="#363636" fill-rule="evenodd"/>
      <path id="パス_206" data-name="パス 206" d="M277.179,88.5h-3.834V104.68h3.834a3.681,3.681,0,0,0,2.711-1.136,3.753,3.753,0,0,0,1.121-2.737V92.354a3.754,3.754,0,0,0-1.115-2.721A3.668,3.668,0,0,0,277.179,88.5Zm1.457,12.365a1.389,1.389,0,0,1-.4.985,1.308,1.308,0,0,1-.983.42h-1.469V90.988h1.469a1.331,1.331,0,0,1,.975.412,1.369,1.369,0,0,1,.4.995Z" transform="translate(45.267 42.837)" fill="#363636" fill-rule="evenodd"/>
      <rect id="長方形_29" data-name="長方形 29" width="2.441" height="16.168" transform="translate(333.872 131.349)" fill="#363636"/>
      <path id="パス_207" data-name="パス 207" d="M289.172,88.5h-2.74v16.182h2.441V94.317l3.353,10.362h2.619V88.5h-2.438V99.374Z" transform="translate(57.508 42.837)" fill="#363636" fill-rule="evenodd"/>
      <rect id="長方形_30" data-name="長方形 30" width="2.441" height="16.168" transform="translate(359.987 131.349)" fill="#363636"/>
      <path id="パス_208" data-name="パス 208" d="M302.667,88.5h-2.74v16.182h2.441V94.317l3.353,10.362h2.619V88.5H305.9V99.374Z" transform="translate(70.13 42.837)" fill="#363636" fill-rule="evenodd"/>
      <path id="パス_209" data-name="パス 209" d="M312.068,104.966a3.747,3.747,0,0,0,2.727-1.122,3.706,3.706,0,0,0,1.134-2.735V95.456h-3.884v2.452H313.4v3.18a1.315,1.315,0,0,1-.416.983,1.394,1.394,0,0,1-2.384-.987V92.229a1.372,1.372,0,0,1,.4-.993,1.406,1.406,0,0,1,2.4.993v1.9h2.529V92.284a3.746,3.746,0,0,0-1.124-2.737,3.69,3.69,0,0,0-2.737-1.136,3.865,3.865,0,0,0-3.871,3.873v8.825a3.872,3.872,0,0,0,3.871,3.857Z" transform="translate(77.865 42.757)" fill="#363636" fill-rule="evenodd"/>
      <path id="パス_210" data-name="パス 210" d="M227.9,133.972a1.361,1.361,0,0,0,1.212-1.986c-1.6-3.12.205-7.194,2.206-8.74.915-.7,2.719-1.062,5.444-1.608a98.782,98.782,0,0,0,14.908-4.008c6.59-2.336,9.046-6.228,9.83-9.6a29.685,29.685,0,0,0,8.6,7.552c5.943,3.522,12.278,4.651,17.344,3.118,7.083-2.15,8.765-10.447,8.916-17.114a68.92,68.92,0,0,0,11.776,2.76c9.489,1.194,14.664-3.4,16.338-8.113,1.54-4.337.255-8.837-3.126-10.94a8.441,8.441,0,0,0-6.627-1.3,9.919,9.919,0,0,0-5.591,4.316,1.362,1.362,0,1,0,2.355,1.368,7.254,7.254,0,0,1,3.9-3.038,5.828,5.828,0,0,1,4.523.97c2.286,1.421,3.106,4.594,2,7.714-1.32,3.712-5.537,7.316-13.429,6.319a68.076,68.076,0,0,1-12.142-2.9,49.163,49.163,0,0,0-.59-6.089c-4-20.371-19.975-30.319-29.655-28.476-4.805.913-7.223,4.6-6.3,9.626,2.166,11.84,19.1,21.7,33.851,26.88,0,6-1.192,13.658-6.981,15.415-4.36,1.32-9.882.281-15.165-2.855-4.966-2.944-8.866-7.225-9.955-10.863-.11-.513-.213-.815-.217-.832a1.363,1.363,0,0,0-2.622.726,9.662,9.662,0,0,0,.246.943c.447,2.237.852,8.651-8.183,11.852a96.094,96.094,0,0,1-14.532,3.905c-3.106.621-5.156,1.032-6.576,2.125-3.184,2.456-5.134,7.921-2.963,12.14A1.36,1.36,0,0,0,227.9,133.972Zm34.571-60.667c-.648-3.536.821-5.831,4.128-6.458a9.857,9.857,0,0,1,1.821-.161c7.8,0,21,7.9,24.648,26.456.01.06.327,1.949.486,4.629C279.627,92.723,264.347,83.557,262.472,73.305Z" transform="translate(0.77 19.88)" fill="#363636" fill-rule="evenodd"/>
      <path id="パス_211" data-name="パス 211" d="M325.4,104.342a68.962,68.962,0,0,0,11.776-2.76c.149,6.663,1.829,14.964,8.914,17.114,5.072,1.539,11.4.4,17.346-3.118a29.788,29.788,0,0,0,8.6-7.552c.784,3.373,3.24,7.265,9.826,9.6a98.781,98.781,0,0,0,14.908,4.008c2.729.544,4.529.9,5.444,1.608,2,1.546,3.815,5.618,2.21,8.74a1.361,1.361,0,1,0,2.421,1.244c2.172-4.221.217-9.686-2.967-12.14-1.421-1.1-3.472-1.5-6.576-2.125a96.57,96.57,0,0,1-14.532-3.905c-9.03-3.2-8.626-9.615-8.179-11.852a9.626,9.626,0,0,0,.244-.943,1.363,1.363,0,0,0-2.622-.726c0,.017-.106.319-.215.832-1.09,3.638-4.991,7.919-9.955,10.863-5.287,3.135-10.813,4.174-15.167,2.855-5.781-1.755-6.973-9.425-6.977-15.417,14.749-5.177,31.683-15.039,33.849-26.878.915-5.024-1.5-8.713-6.307-9.626-9.684-1.817-25.645,8.113-29.655,28.505a47.905,47.905,0,0,0-.59,6.06,67.939,67.939,0,0,1-12.14,2.9c-7.885,1-12.108-2.607-13.427-6.319-1.107-3.12-.286-6.294,2-7.714a5.835,5.835,0,0,1,4.5-.975,7.206,7.206,0,0,1,3.921,3.05,1.363,1.363,0,0,0,2.353-1.374,9.926,9.926,0,0,0-5.6-4.316,8.4,8.4,0,0,0-6.621,1.3c-3.381,2.1-4.666,6.6-3.126,10.94C310.735,100.936,315.891,105.547,325.4,104.342ZM340.47,93.169c3.652-18.581,16.849-26.485,24.648-26.485a9.857,9.857,0,0,1,1.821.161c3.311.627,4.776,2.922,4.13,6.458-1.873,10.249-17.153,19.415-31.078,24.465C340.146,95.1,340.46,93.219,340.47,93.169Z" transform="translate(78.073 19.882)" fill="#363636" fill-rule="evenodd"/>
      <path id="パス_212" data-name="パス 212" d="M252.474,167.233a3.808,3.808,0,0,0-.319-.53c-.114-.165-.234-.321-.358-.476s-.246-.292-.377-.432a4.524,4.524,0,0,0-.486-.451L245,168.783q-.978.56-1.711.912a5.212,5.212,0,0,1-1.312.451,1.976,1.976,0,0,1-1.039-.064,1.937,1.937,0,0,1-.838-.643,1.258,1.258,0,0,1-.358-1.144,2.46,2.46,0,0,1,.881-1.121,9.589,9.589,0,0,1,.857-.613c.327-.209.71-.443,1.144-.695l5.94-3.445a5.251,5.251,0,0,0-.312-.526c-.114-.157-.234-.306-.348-.453s-.255-.306-.4-.459a4.635,4.635,0,0,0-.468-.435l-6.437,3.718a13.777,13.777,0,0,0-1.726,1.165,4.165,4.165,0,0,0-1.742,2.553,3.591,3.591,0,0,0,.991,2.657,5.54,5.54,0,0,0,1.7,1.469,3.835,3.835,0,0,0,1.827.447,5.563,5.563,0,0,0,2.034-.437,18.636,18.636,0,0,0,2.353-1.163Z" transform="translate(11.38 110.229)" fill="#363636" fill-rule="evenodd"/>
      <path id="パス_213" data-name="パス 213" d="M250.53,174.049a4.686,4.686,0,0,0,1.163-.11,5.667,5.667,0,0,0,1.256-.447,4.8,4.8,0,0,0,1.231-.9,3.5,3.5,0,0,0,.956-1.477,2.854,2.854,0,0,0,.048-1.475,4.161,4.161,0,0,0-.61-1.4,8.487,8.487,0,0,0-1.043-1.277c-.285-.292-.575-.563-.877-.823a9.934,9.934,0,0,0-1.035-.784l-10.757,7.674a6.192,6.192,0,0,0,.391.5c.141.157.269.3.4.426s.269.261.418.387.314.255.484.4l9.1-6.481a2.155,2.155,0,0,1,.434.364,2.745,2.745,0,0,1,.418.54,1.464,1.464,0,0,1,.213.615,1.359,1.359,0,0,1-.085.656,1.827,1.827,0,0,1-.455.66,2.724,2.724,0,0,1-1.1.7,3.53,3.53,0,0,1-1.1.166,3.845,3.845,0,0,1-.977-.134c-.29-.083-.532-.145-.728-.186l-.325-.075-3.031,5.574a6.053,6.053,0,0,0,.774.937,8.2,8.2,0,0,0,1.018.883l2.622-5.08.23.054A5.7,5.7,0,0,0,250.53,174.049Z" transform="translate(14.886 114.729)" fill="#363636" fill-rule="evenodd"/>
      <path id="パス_214" data-name="パス 214" d="M255.313,178.447a2.325,2.325,0,0,0-.519-1.713,2.234,2.234,0,0,0,.881.236,3.371,3.371,0,0,0,1.049-.087,3.886,3.886,0,0,0,1.066-.418,3.359,3.359,0,0,0,.908-.753,2.872,2.872,0,0,0,.689-1.324,2.485,2.485,0,0,0-.089-1.287,3.9,3.9,0,0,0-.71-1.239,9.8,9.8,0,0,0-1.159-1.161c-.364-.306-.718-.581-1.066-.819s-.67-.445-.968-.625l-10.046,8.61c.4.451.749.824,1.051,1.121s.6.565.894.817a10.1,10.1,0,0,0,1.9,1.291,5.332,5.332,0,0,0,1.895.6,3.627,3.627,0,0,0,1.815-.269,4.519,4.519,0,0,0,1.686-1.308A2.991,2.991,0,0,0,255.313,178.447Zm-2.557.064a2.459,2.459,0,0,1-.979.759,2.062,2.062,0,0,1-.958.132,2.251,2.251,0,0,1-.877-.279,4.608,4.608,0,0,1-.712-.48c-.089-.079-.178-.163-.263-.248a3.8,3.8,0,0,1-.252-.292l2.913-2.483.689.588a2.345,2.345,0,0,1,.809,1.113A1.274,1.274,0,0,1,252.756,178.511Zm.983-3.72-.577-.494,2.671-2.278a2.583,2.583,0,0,1,.49.341,3.083,3.083,0,0,1,.387.391,1.361,1.361,0,0,1,.277.472,1.066,1.066,0,0,1,.035.544,1.3,1.3,0,0,1-.3.594,2.609,2.609,0,0,1-.788.654,2.057,2.057,0,0,1-.8.246,1.759,1.759,0,0,1-.753-.1A2.066,2.066,0,0,1,253.74,174.791Z" transform="translate(19.081 118.375)" fill="#363636" fill-rule="evenodd"/>
      <path id="パス_215" data-name="パス 215" d="M263.018,174.2c-.18-.13-.379-.257-.592-.385a6.851,6.851,0,0,0-.621-.335l-12.073,7.48a5.957,5.957,0,0,0,.915.774,7.038,7.038,0,0,0,1.08.627l2.38-1.544,2.973,2.088-1.341,2.28a7.819,7.819,0,0,0,.952.8,7.029,7.029,0,0,0,1.057.612l6.317-11.525A8.62,8.62,0,0,0,263.018,174.2Zm-4.833,6.816-2.09-1.467,4.743-3.062Z" transform="translate(23.181 122.328)" fill="#363636" fill-rule="evenodd"/>
      <path id="パス_216" data-name="パス 216" d="M270.409,179.573a6.477,6.477,0,0,0-1.078-.484l-5.225,6.582L265.64,177a4.772,4.772,0,0,0-.817-.584c-.135-.075-.277-.153-.434-.223a3.092,3.092,0,0,0-.515-.19l-8.246,10.344a4.758,4.758,0,0,0,.855.608,6.062,6.062,0,0,0,1.047.47l5.22-6.569-1.511,8.666a4.751,4.751,0,0,0,.8.577,5.447,5.447,0,0,0,.935.4l8.26-10.335a2.452,2.452,0,0,0-.387-.323C270.707,179.749,270.566,179.66,270.409,179.573Z" transform="translate(28.697 124.683)" fill="#363636" fill-rule="evenodd"/>
      <path id="パス_217" data-name="パス 217" d="M276.567,183.892a3.154,3.154,0,0,0-.569-1.465,3.957,3.957,0,0,0-1.113-1.045,8.338,8.338,0,0,0-1.335-.687c-.226-.089-.432-.168-.627-.24s-.387-.135-.586-.192-.4-.118-.6-.172-.426-.116-.66-.184l-6.8,11.393a6.128,6.128,0,0,0,.583.312c.18.087.354.161.507.223.174.068.354.134.542.2s.4.116.613.166l2.17-3.656c.089.05.18.1.281.143s.238.1.4.168a5.867,5.867,0,0,0,2.214.449,4.743,4.743,0,0,0,1.953-.426,4.843,4.843,0,0,0,1.589-1.194,6.291,6.291,0,0,0,1.115-1.844A3.849,3.849,0,0,0,276.567,183.892Zm-2.744,1.177a3.767,3.767,0,0,1-.73,1.233,2.641,2.641,0,0,1-.871.635,2.058,2.058,0,0,1-.886.17,2.476,2.476,0,0,1-.809-.163,3.711,3.711,0,0,1-.673-.325l2.4-4.014c.163.041.285.074.354.1s.149.062.232.095a2.749,2.749,0,0,1,.542.294,1.525,1.525,0,0,1,.433.457,1.289,1.289,0,0,1,.188.65A2.1,2.1,0,0,1,273.823,185.069Z" transform="translate(36.79 128.336)" fill="#363636" fill-rule="evenodd"/>
      <path id="パス_218" data-name="パス 218" d="M277.064,182.046a6.066,6.066,0,0,0-1.213-.232l-5.8,11.891,6.027,1.829q.171-.27.319-.523c.095-.163.184-.337.277-.513.072-.155.141-.317.221-.494a5.6,5.6,0,0,0,.2-.554l-3.743-1.14,4.782-9.808A5.446,5.446,0,0,0,277.064,182.046Z" transform="translate(42.185 130.119)" fill="#363636" fill-rule="evenodd"/>
      <path id="パス_219" data-name="パス 219" d="M283.624,183.4c-.244-.031-.478-.054-.7-.064l-8.156,11.626a6.316,6.316,0,0,0,1.144.354,6.651,6.651,0,0,0,1.242.149l1.581-2.355,3.549.751-.333,2.622a7.522,7.522,0,0,0,1.2.364,6.854,6.854,0,0,0,1.2.143l1.277-13.083a8.076,8.076,0,0,0-1.3-.387C284.108,183.474,283.872,183.436,283.624,183.4Zm-1.064,8.291-2.5-.528,3.158-4.682Z" transform="translate(46.596 131.544)" fill="#363636" fill-rule="evenodd"/>
      <path id="パス_220" data-name="パス 220" d="M282.571,185.057a6.565,6.565,0,0,0-.234,1.1l2.793.362-3.095,10.5a6.431,6.431,0,0,0,1.171.259,7.909,7.909,0,0,0,1.248.052l3.095-10.5,2.793.36a8.452,8.452,0,0,0,.424-1.1A7.372,7.372,0,0,0,291,185l-8.01-1.037A8.657,8.657,0,0,0,282.571,185.057Z" transform="translate(53.395 132.13)" fill="#363636" fill-rule="evenodd"/>
      <path id="パス_221" data-name="パス 221" d="M286.848,197.485l6.64.3c.116-.348.217-.681.306-1a4.67,4.67,0,0,0,.151-.968,1.051,1.051,0,0,0,0-.135.768.768,0,0,1,0-.134l-4.223-.194.716-3.426,3.265.149a7.784,7.784,0,0,0,.468-2.251l-3.265-.147.575-2.814,4.109.19a7.043,7.043,0,0,0,.327-.983,5.132,5.132,0,0,0,.141-.962.446.446,0,0,0,0-.143c0-.048,0-.1,0-.147l-6.522-.3Z" transform="translate(57.897 132.658)" fill="#363636" fill-rule="evenodd"/>
      <path id="パス_222" data-name="パス 222" d="M304.983,188.364c.014-.269.027-.517.035-.741a5.1,5.1,0,0,0-.014-.629,2.388,2.388,0,0,0-.143-.677,5.877,5.877,0,0,0-1.163.23,2.63,2.63,0,0,0-1.014.532c.014.178.027.4.043.677a6.362,6.362,0,0,1-.021.871l-.015.184-2.725.246a1.19,1.19,0,0,1-1-.267,1.38,1.38,0,0,1-.37-.85,1.719,1.719,0,0,1,.085-.732,1.458,1.458,0,0,1,.881-.852,2.492,2.492,0,0,1,.664-.153,4.112,4.112,0,0,1,.724,0,4.706,4.706,0,0,1,.89.184,3.539,3.539,0,0,0,.29-.995,6.859,6.859,0,0,0,.046-.97,3.741,3.741,0,0,0-1.068-.213,6.834,6.834,0,0,0-1.128.01,4.766,4.766,0,0,0-1.469.37,3.868,3.868,0,0,0-1.227.824,3.415,3.415,0,0,0-1.016,2.862,2.577,2.577,0,0,0,.441,1.293,2.53,2.53,0,0,0,.861.8,4.636,4.636,0,0,0-.855.643,4.029,4.029,0,0,0-.747.956,4.737,4.737,0,0,0-.488,1.229,4.294,4.294,0,0,0-.1,1.477,3.733,3.733,0,0,0,.457,1.566,2.866,2.866,0,0,0,.948,1.008,3.627,3.627,0,0,0,1.314.5,5.883,5.883,0,0,0,1.554.058,8.325,8.325,0,0,0,1.866-.381,4.424,4.424,0,0,0,1.548-.871,4.284,4.284,0,0,0,1.092-1.492,6.425,6.425,0,0,0,.526-2.233l.145-2.243,1.3-.116c.056-.356.1-.687.12-.987a9.675,9.675,0,0,0,.017-.995l-1.32.118Zm-2.524,3.987a5.664,5.664,0,0,1-.2,1.225,3.145,3.145,0,0,1-.48.979,2.393,2.393,0,0,1-.792.683,2.87,2.87,0,0,1-1.167.325,1.874,1.874,0,0,1-1.378-.333,1.645,1.645,0,0,1-.592-1.2,3.059,3.059,0,0,1,.228-1.537,2.449,2.449,0,0,1,.873-1.043,2.66,2.66,0,0,1,.581-.284,4.109,4.109,0,0,1,.958-.182l2.063-.188Z" transform="translate(65.856 132.344)" fill="#363636" fill-rule="evenodd"/>
      <path id="パス_223" data-name="パス 223" d="M313.465,188.325c-.2.029-.4.068-.575.108s-.375.1-.559.161a5.445,5.445,0,0,0-.592.246l.35,4.6a2.769,2.769,0,0,1-.4.163c-.178.062-.341.108-.493.147a2.6,2.6,0,0,1-1.97-.221,3.022,3.022,0,0,1-1.206-2.028,9.714,9.714,0,0,1-.269-2.16,6.46,6.46,0,0,1,.281-2.038,4.226,4.226,0,0,1,.937-1.635,3.32,3.32,0,0,1,1.728-.95,4.577,4.577,0,0,1,.836-.128,3.921,3.921,0,0,1,.991.081,8.173,8.173,0,0,0,.18-1.144,9.2,9.2,0,0,0,0-1.084,4.6,4.6,0,0,0-1.308-.118,7.782,7.782,0,0,0-1.378.215,5.663,5.663,0,0,0-2.491,1.275,6.5,6.5,0,0,0-1.618,2.257,8.687,8.687,0,0,0-.689,2.938,11.113,11.113,0,0,0,.3,3.329,6.23,6.23,0,0,0,.759,1.862,4.379,4.379,0,0,0,1.268,1.333,4.206,4.206,0,0,0,1.724.67,5.457,5.457,0,0,0,2.154-.122,13.8,13.8,0,0,0,1.635-.509,7.6,7.6,0,0,0,1.506-.759l-.49-6.536A4.065,4.065,0,0,0,313.465,188.325Z" transform="translate(75.059 130.594)" fill="#363636" fill-rule="evenodd"/>
      <path id="パス_224" data-name="パス 224" d="M320.622,184.114a7.925,7.925,0,0,0-.919-1.877,4.234,4.234,0,0,0-1.223-1.219,3.4,3.4,0,0,0-1.537-.507,4.5,4.5,0,0,0-1.835.277,4.987,4.987,0,0,0-1.7.981,5.388,5.388,0,0,0-1.148,1.45,6.314,6.314,0,0,0-.635,1.779,9.572,9.572,0,0,0-.184,1.98,11.425,11.425,0,0,0,.192,2.042,13.67,13.67,0,0,0,.515,1.943,5.671,5.671,0,0,0,2.125,3.048,3.679,3.679,0,0,0,3.364.2,5.1,5.1,0,0,0,1.7-.97,5.234,5.234,0,0,0,1.144-1.428,6.571,6.571,0,0,0,.642-1.765,9.257,9.257,0,0,0,.2-1.957,10.943,10.943,0,0,0-.188-2.02A13.339,13.339,0,0,0,320.622,184.114Zm-1.98,6.17a3.174,3.174,0,0,1-.554,1.08,2.141,2.141,0,0,1-.983.679c-1.14.4-1.984-.2-2.541-1.788-.128-.381-.248-.8-.358-1.26a13.937,13.937,0,0,1-.252-1.426,8.943,8.943,0,0,1-.06-1.457,5.047,5.047,0,0,1,.213-1.347,3.347,3.347,0,0,1,.559-1.08,2.087,2.087,0,0,1,.987-.679q1.684-.592,2.528,1.811c.128.364.244.78.354,1.239a12.251,12.251,0,0,1,.248,1.426,8.973,8.973,0,0,1,.068,1.459A5.473,5.473,0,0,1,318.643,190.284Z" transform="translate(80.897 128.89)" fill="#363636" fill-rule="evenodd"/>
      <path id="パス_225" data-name="パス 225" d="M326.618,181.052a8.153,8.153,0,0,0-1.115-1.775,4.256,4.256,0,0,0-1.341-1.086,3.364,3.364,0,0,0-1.583-.339,4.5,4.5,0,0,0-1.8.464,4.978,4.978,0,0,0-1.593,1.152,5.411,5.411,0,0,0-.991,1.562,6.364,6.364,0,0,0-.443,1.837,10.2,10.2,0,0,0,.017,1.988,11.612,11.612,0,0,0,.412,2.007,13.072,13.072,0,0,0,.71,1.883,5.708,5.708,0,0,0,2.431,2.812,3.7,3.7,0,0,0,3.367-.159,5.072,5.072,0,0,0,1.593-1.142,5.242,5.242,0,0,0,.987-1.541,6.348,6.348,0,0,0,.451-1.821,9.027,9.027,0,0,0,0-1.966,10.63,10.63,0,0,0-.4-1.993A14.131,14.131,0,0,0,326.618,181.052Zm-1.332,6.34a3.19,3.19,0,0,1-.435,1.134,2.1,2.1,0,0,1-.91.772q-1.634.775-2.711-1.513a12.025,12.025,0,0,1-.49-1.213,13.034,13.034,0,0,1-.4-1.39,8.9,8.9,0,0,1-.213-1.446,5.108,5.108,0,0,1,.072-1.359,3.3,3.3,0,0,1,.447-1.132,2.075,2.075,0,0,1,.908-.78q1.617-.764,2.7,1.537a11.022,11.022,0,0,1,.476,1.2,11.329,11.329,0,0,1,.4,1.388,8.618,8.618,0,0,1,.221,1.448A5.516,5.516,0,0,1,325.287,187.392Z" transform="translate(86.769 126.413)" fill="#363636" fill-rule="evenodd"/>
      <path id="パス_226" data-name="パス 226" d="M332.852,177.529a6.243,6.243,0,0,0-1.49-1.722,4.529,4.529,0,0,0-1.8-.863,4.75,4.75,0,0,0-2.022.006,6.73,6.73,0,0,0-2.15.875,13.809,13.809,0,0,0-1.227.826c-.37.283-.732.563-1.08.844l4.968,12.243c.4-.172.788-.346,1.157-.519s.826-.428,1.366-.755a8.256,8.256,0,0,0,2.332-2.05,6.757,6.757,0,0,0,1.248-2.6,7.139,7.139,0,0,0,.021-3.007A10.041,10.041,0,0,0,332.852,177.529Zm-1.537,7.341a3.511,3.511,0,0,1-1.248,1.25,5.37,5.37,0,0,1-.739.381l-3.352-8.293a3.993,3.993,0,0,1,.333-.255c.1-.07.248-.165.447-.283a2.786,2.786,0,0,1,1.012-.375,2.267,2.267,0,0,1,1.043.068,2.932,2.932,0,0,1,1.014.59,4.6,4.6,0,0,1,.931,1.14,8.07,8.07,0,0,1,.925,2.117,5.554,5.554,0,0,1,.174,1.976A4.079,4.079,0,0,1,331.315,184.87Z" transform="translate(91.788 123.594)" fill="#363636" fill-rule="evenodd"/>
      <path id="パス_227" data-name="パス 227" d="M337.572,170.774a8.884,8.884,0,0,0-.5-1.062,7.209,7.209,0,0,0-.625-.921l-6.28,5.074a9.656,9.656,0,0,0,.5,1.053,7.366,7.366,0,0,0,.633.931l2.193-1.771,5.454,9.493a6.755,6.755,0,0,0,.991-.664,7.465,7.465,0,0,0,.9-.869l-5.452-9.493Z" transform="translate(98.412 117.938)" fill="#363636" fill-rule="evenodd"/>
      <path id="パス_228" data-name="パス 228" d="M335.808,167.151a5.6,5.6,0,0,0-.447.379,6.207,6.207,0,0,0-.813.925l7.335,10.989a6.342,6.342,0,0,0,.95-.734,7.6,7.6,0,0,0,.838-.925L336.332,166.8A5.052,5.052,0,0,0,335.808,167.151Z" transform="translate(102.512 116.077)" fill="#363636" fill-rule="evenodd"/>
      <path id="パス_229" data-name="パス 229" d="M343.283,161.793c-.149.137-.29.277-.418.418s-.259.3-.381.455a4.294,4.294,0,0,0-.315.5l2.779,7.763-6.309-3.892c-.167.13-.323.25-.459.366a4.255,4.255,0,0,0-.418.4,6.865,6.865,0,0,0-.788,1.055l7.935,10.654a5.331,5.331,0,0,0,.784-.7,6.3,6.3,0,0,0,.648-.869l-5.293-7,5.088,3.184a2.722,2.722,0,0,0,.362-.288,3.846,3.846,0,0,0,.319-.321,3.456,3.456,0,0,0,.3-.37c.1-.132.192-.263.285-.4l-2.183-6.259,5.572,6.59a5.127,5.127,0,0,0,.817-.735,7.334,7.334,0,0,0,.734-.97l-8.583-9.942A3.982,3.982,0,0,0,343.283,161.793Z" transform="translate(104.781 111.051)" fill="#363636" fill-rule="evenodd"/>
      <path id="パス_230" data-name="パス 230" d="M353.541,164.859c-.043-.031-.077-.056-.112-.077a.874.874,0,0,1-.114-.072l-2.526,3.391-2.433-2.51,1.949-2.62a7.723,7.723,0,0,0-1.606-1.651l-1.949,2.622-2.005-2.048,2.452-3.3a7.788,7.788,0,0,0-.639-.826,5.189,5.189,0,0,0-.71-.65c-.043-.029-.085-.056-.124-.079a1.12,1.12,0,0,1-.12-.083l-3.9,5.245,9.245,9.468,3.96-5.338c-.221-.29-.439-.557-.656-.805A4.08,4.08,0,0,0,353.541,164.859Z" transform="translate(109.207 106.868)" fill="#363636" fill-rule="evenodd"/>
      <path id="パス_231" data-name="パス 231" d="M261.323,132.006a2.123,2.123,0,0,0,1.078,1.376c0-.379,0-.766,0-1.14A1.676,1.676,0,0,1,261.323,132.006Z" transform="translate(34.023 83.532)" fill="#363636" fill-rule="evenodd"/>
      <path id="パス_232" data-name="パス 232" d="M260.461,130.7a2.683,2.683,0,0,0,1.432,2.179,11.934,11.934,0,0,0,1.32.143c0-.79,0-1.556.008-2.322Z" transform="translate(33.216 82.306)" fill="#363636" fill-rule="evenodd"/>
      <path id="パス_233" data-name="パス 233" d="M267.5,134.22c.964-.079,2.214-.652,1.674-1.086C268.98,133.676,267.142,133.391,267.5,134.22Z" transform="translate(39.76 84.588)" fill="#363636" fill-rule="evenodd"/>
      <path id="パス_234" data-name="パス 234" d="M256.4,134.007v.486h1.18v-.486Z" transform="translate(29.415 85.404)" fill="#363636" fill-rule="evenodd"/>
      <path id="パス_235" data-name="パス 235" d="M267.533,134.494c-.095-.234-.077-.521-.71-.486.037.161-.081.242-.163.343v.143Z" transform="translate(39.015 85.403)" fill="#363636" fill-rule="evenodd"/>
      <path id="パス_236" data-name="パス 236" d="M269.926,139.1c-.072-.108-.139-.223-.209-.331v.308C269.794,139.093,269.833,139.084,269.926,139.1Z" transform="translate(41.874 89.861)" fill="#363636" fill-rule="evenodd"/>
      <path id="パス_237" data-name="パス 237" d="M263.787,140.982c1.481-.273.434.743,1.914.48v-.815c-.637.085-1.277.174-1.914.263Z" transform="translate(36.327 91.615)" fill="#363636" fill-rule="evenodd"/>
      <path id="パス_238" data-name="パス 238" d="M268.367,142.55c.908.062,1.256-.161,1.432-.486-.9.178-.464-.327-1.194-.244C268.615,142.111,268.187,142.182,268.367,142.55Z" transform="translate(40.57 92.704)" fill="#363636" fill-rule="evenodd"/>
      <path id="パス_239" data-name="パス 239" d="M262.573,145.115c.672.017.681-.3.706-.612h-.956C262.138,144.851,262.666,144.818,262.573,145.115Z" transform="translate(34.921 95.221)" fill="#363636" fill-rule="evenodd"/>
      <path id="パス_240" data-name="パス 240" d="M261.324,145.179h1.43c-.095-.314-.739-.352-1.194-.486C261.616,144.921,261.295,144.96,261.324,145.179Z" transform="translate(34.022 95.399)" fill="#363636" fill-rule="evenodd"/>
      <path id="パス_241" data-name="パス 241" d="M265.1,145.13c-.408.4.118.54,0,1.09C265.486,146.127,265.486,145.223,265.1,145.13Z" transform="translate(37.403 95.808)" fill="#363636" fill-rule="evenodd"/>
      <path id="パス_242" data-name="パス 242" d="M259.473,145.571c.044.223-.271.261-.242.478h.954C260.22,145.741,259.651,145.761,259.473,145.571Z" transform="translate(32.064 96.22)" fill="#363636" fill-rule="evenodd"/>
      <path id="パス_243" data-name="パス 243" d="M264.514,146.175v-.482H263.8C263.734,146.008,263.725,146.3,264.514,146.175Z" transform="translate(36.314 96.334)" fill="#363636" fill-rule="evenodd"/>
      <path id="パス_244" data-name="パス 244" d="M257.362,147.3c.207-.3.42-.7-.47-.732A.588.588,0,0,0,257.362,147.3Z" transform="translate(29.868 97.151)" fill="#363636" fill-rule="evenodd"/>
      <path id="パス_245" data-name="パス 245" d="M258.951,149.035a1.7,1.7,0,0,0,.238-1.208c-.675-.1-.612.17-1.192.116.17.7.53.488,0,1.092Z" transform="translate(30.912 98.31)" fill="#363636" fill-rule="evenodd"/>
      <path id="パス_246" data-name="パス 246" d="M264.443,148.942c-1.508-.509-2.1.652-1.181,1.086C264.058,149.871,264.464,149.513,264.443,148.942Z" transform="translate(35.428 99.255)" fill="#363636" fill-rule="evenodd"/>
      <path id="パス_247" data-name="パス 247" d="M261.431,150.567c.285.509-.385.528-.476.848C262.184,151.51,261.944,150.782,261.431,150.567Z" transform="translate(33.678 100.893)" fill="#363636" fill-rule="evenodd"/>
      <path id="パス_248" data-name="パス 248" d="M256.016,151.363v-.482h-.946C254.878,151.3,255.193,151.458,256.016,151.363Z" transform="translate(28.123 101.187)" fill="#363636" fill-rule="evenodd"/>
      <path id="パス_249" data-name="パス 249" d="M260.09,151.631v.482a1.492,1.492,0,0,1,1.2.242c.176-.37-.244-.441-.242-.724Z" transform="translate(32.869 101.888)" fill="#363636" fill-rule="evenodd"/>
      <path id="パス_250" data-name="パス 250" d="M255.791,153.41c0-.213.648-.7,0-.842C255.574,152.669,255.28,153.344,255.791,153.41Z" transform="translate(28.583 102.765)" fill="#363636" fill-rule="evenodd"/>
      <path id="パス_251" data-name="パス 251" d="M260.242,153.11c.913-.056.766.422,1.906.24a2.365,2.365,0,0,0-1.432-.718C261.014,153.021,259.944,152.719,260.242,153.11Z" transform="translate(32.962 102.825)" fill="#363636" fill-rule="evenodd"/>
      <path id="パス_252" data-name="パス 252" d="M259.962,154.076c.045.226-.273.263-.238.484C260.6,154.815,260.8,153.942,259.962,154.076Z" transform="translate(32.525 104.162)" fill="#363636" fill-rule="evenodd"/>
      <path id="パス_253" data-name="パス 253" d="M268.673,154.754h-.712c.075.236-.323.24-.48.36.755-.132.585.2.96.248C268.338,155.068,268.882,155.1,268.673,154.754Z" transform="translate(39.782 104.809)" fill="#363636" fill-rule="evenodd"/>
      <path id="パス_254" data-name="パス 254" d="M268.729,155.654h1.19C270.2,154.9,268.45,154.9,268.729,155.654Z" transform="translate(40.921 105.121)" fill="#363636" fill-rule="evenodd"/>
      <path id="パス_255" data-name="パス 255" d="M268.828,155.8c-.1-.294.428-.267.242-.606h-.962C267.954,155.6,268.6,155.589,268.828,155.8Z" transform="translate(40.347 105.219)" fill="#363636" fill-rule="evenodd"/>
      <path id="パス_256" data-name="パス 256" d="M266.744,155.329v.6c.759.023,1.037-.2,1.188-.484C267.359,155.5,267.425,155.23,266.744,155.329Z" transform="translate(39.093 105.326)" fill="#363636" fill-rule="evenodd"/>
      <path id="パス_257" data-name="パス 257" d="M268.844,156.372c.385.015.478-.794-.242-.6C268.422,155.848,267.977,156.486,268.844,156.372Z" transform="translate(40.574 105.732)" fill="#363636" fill-rule="evenodd"/>
      <path id="パス_258" data-name="パス 258" d="M267.851,156.666c.743-.232-.2-.613-.48-.724C267.518,156.188,266.993,156.784,267.851,156.666Z" transform="translate(39.654 105.921)" fill="#363636" fill-rule="evenodd"/>
      <path id="パス_259" data-name="パス 259" d="M264.387,158.342c.733.091.292-.41,1.2-.24v-.848h-1.2A.78.78,0,0,0,264.387,158.342Z" transform="translate(36.682 107.148)" fill="#363636" fill-rule="evenodd"/>
      <path id="パス_260" data-name="パス 260" d="M265.143,157.951c.085.277.151.565.95.48C266.008,158.152,265.946,157.864,265.143,157.951Z" transform="translate(37.596 107.785)" fill="#363636" fill-rule="evenodd"/>
      <path id="パス_261" data-name="パス 261" d="M260.349,160.035c.5-.188.863-.449.712-.968h-.956C260.253,159.353,259.811,159.942,260.349,160.035Z" transform="translate(32.854 108.843)" fill="#363636" fill-rule="evenodd"/>
      <path id="パス_262" data-name="パス 262" d="M255.885,160.3c0-.288.412-.36.24-.73h-.7A.574.574,0,0,0,255.885,160.3Z" transform="translate(28.489 109.311)" fill="#363636" fill-rule="evenodd"/>
      <path id="パス_263" data-name="パス 263" d="M262.618,160.858c.047-.3-.112-.5-.468-.6C262,160.548,261.669,160.875,262.618,160.858Z" transform="translate(34.627 109.954)" fill="#363636" fill-rule="evenodd"/>
      <path id="パス_264" data-name="パス 264" d="M258.28,135.263c-.352.7.559.766.482,1.332h1.194c.455-.817.658-1.763,2.859-1.691.165-.453-.4-.521-.238-.97-.619.033-1.19.046-.954-.366h-1.186v.85c.273.017.666-.021.712.12v.366c-1.121-.044-.911.584-1.424.846h-.962C258.708,135.538,259,135.145,258.28,135.263Z" transform="translate(31.101 84.993)" fill="#363636" fill-rule="evenodd"/>
      <path id="パス_265" data-name="パス 265" d="M266.827,136.344c.149.813,1.27,1.773,1.188,2.3.015-.317-.215-.761.718-.608-.505-1.024,1.188-.925,1.194-1.69h-2.39v-1.212a2.379,2.379,0,0,0-.88.306c0,.292,0,.617,0,.917A.914.914,0,0,1,266.827,136.344Z" transform="translate(39.01 86.456)" fill="#363636" fill-rule="evenodd"/>
      <path id="パス_266" data-name="パス 266" d="M268.787,134.937c-.019-.19-.615-.1-.48-.362-.735-.091-.283.412-1.2.242v.846h1.2C267.974,135.175,268.83,135.276,268.787,134.937Z" transform="translate(39.436 85.925)" fill="#363636" fill-rule="evenodd"/>
      <path id="パス_267" data-name="パス 267" d="M268.862,142.568c.879-.215-.484-.937.234-1.086.039.149.081.285.486.24.1-.385.453-.654.47-1.088C268.351,140.479,268.333,142.39,268.862,142.568Z" transform="translate(40.788 91.594)" fill="#363636" fill-rule="evenodd"/>
      <path id="パス_268" data-name="パス 268" d="M256.615,149.885c-1.059-.087-.96.4-.96.846h.96C255.86,150.326,255.86,150.289,256.615,149.885Z" transform="translate(28.719 100.246)" fill="#363636" fill-rule="evenodd"/>
      <path id="パス_269" data-name="パス 269" d="M262.257,154.9c.137.1-.2.31-.476.24.426.1-.586-.768-.956-.48-.786.364-.8,1.126-.718,1.935h1.674C262.085,155.638,263.184,155.585,262.257,154.9Z" transform="translate(32.853 104.665)" fill="#363636" fill-rule="evenodd"/>
      <path id="パス_270" data-name="パス 270" d="M320.356,114.214h-3.569a2.683,2.683,0,0,0,1.432,2.177c.579.19,2.082-.091,1.666.6a1.881,1.881,0,0,1-1.43-.242c.116.91,1.105,1.376,1.9,1.937A25.741,25.741,0,0,0,320.356,114.214Z" transform="translate(85.9 66.891)" fill="#363636" fill-rule="evenodd"/>
      <path id="パス_271" data-name="パス 271" d="M321.551,114.214h-1.438c.853.41,1.008,1.182,2.152,1.45C322.635,114.87,321.255,114.971,321.551,114.214Z" transform="translate(89.011 66.891)" fill="#363636" fill-rule="evenodd"/>
      <path id="パス_272" data-name="パス 272" d="M313.9,118.01v-.484h-1.181v.484Z" transform="translate(82.099 69.989)" fill="#363636" fill-rule="evenodd"/>
      <path id="パス_273" data-name="パス 273" d="M321.056,121.2c-.054-.232.269-.269.242-.486h-1.43C319.9,121.061,320.168,121.284,321.056,121.2Z" transform="translate(88.782 72.97)" fill="#363636" fill-rule="evenodd"/>
      <path id="パス_274" data-name="パス 274" d="M326.934,123.286c-.319-.488-.6-1.136-.96-.362-.977-.279.161-.877-.47-1.332-.077-.012-.124-.006-.19-.012,0,.73.006,1.434.008,2.146C325.85,123.427,325.757,123.032,326.934,123.286Z" transform="translate(93.875 73.782)" fill="#363636" fill-rule="evenodd"/>
      <path id="パス_275" data-name="パス 275" d="M322.027,125.229v-.846c-.8.12-.786-.168-.722-.486h-1.192v.853C321.594,124.479,320.548,125.495,322.027,125.229Z" transform="translate(89.011 75.949)" fill="#363636" fill-rule="evenodd"/>
      <path id="パス_276" data-name="パス 276" d="M325.491,125.461a1,1,0,0,1-.163.008l0,.2A.837.837,0,0,0,325.491,125.461Z" transform="translate(93.888 77.411)" fill="#363636" fill-rule="evenodd"/>
      <path id="パス_277" data-name="パス 277" d="M318.9,128.634c.673.015.683-.3.706-.612h-.954C318.463,128.368,318.991,128.336,318.9,128.634Z" transform="translate(87.605 79.806)" fill="#363636" fill-rule="evenodd"/>
      <path id="パス_278" data-name="パス 278" d="M317.65,128.7h1.43c-.095-.314-.739-.354-1.194-.486C317.942,128.438,317.621,128.479,317.65,128.7Z" transform="translate(86.705 79.984)" fill="#363636" fill-rule="evenodd"/>
      <path id="パス_279" data-name="パス 279" d="M321.421,128.649c-.408.4.118.538,0,1.088C321.812,129.644,321.812,128.742,321.421,128.649Z" transform="translate(90.087 80.393)" fill="#363636" fill-rule="evenodd"/>
      <path id="パス_280" data-name="パス 280" d="M315.557,129.566h.954c.035-.308-.534-.286-.712-.476C315.843,129.313,315.528,129.351,315.557,129.566Z" transform="translate(84.748 80.805)" fill="#363636" fill-rule="evenodd"/>
      <path id="パス_281" data-name="パス 281" d="M320.84,129.695v-.484h-.714C320.06,129.528,320.051,129.819,320.84,129.695Z" transform="translate(88.997 80.918)" fill="#363636" fill-rule="evenodd"/>
      <path id="パス_282" data-name="パス 282" d="M323.03,129.468c-.728-.083-.7.211-1.426.12-.122.466.321.644.95.724C323.049,130.2,323.069,129.851,323.03,129.468Z" transform="translate(90.386 81.145)" fill="#363636" fill-rule="evenodd"/>
      <path id="パス_283" data-name="パス 283" d="M322.187,131.181c.772-.3.617-.511.474-1.1h-1.192C321.666,130.475,321.372,131.1,322.187,131.181Z" transform="translate(90.279 81.735)" fill="#363636" fill-rule="evenodd"/>
      <path id="パス_284" data-name="パス 284" d="M319.4,130.7a1.808,1.808,0,0,1,.712.122c.186-.083.617-.72-.244-.606C320.161,130.608,319.107,130.315,319.4,130.7Z" transform="translate(88.297 81.848)" fill="#363636" fill-rule="evenodd"/>
      <path id="パス_285" data-name="パス 285" d="M317.492,133.7c-.041-.377-.017-.726.476-.844,1.39-.219.983.466,2.142.366.5-.542-.095-1.45-.954-1.7-.118.735-1.244.612-1.906.246.223.871-.53,1.244-.7,1.91l.006.017Z" transform="translate(85.674 83.082)" fill="#363636" fill-rule="evenodd"/>
      <path id="パス_286" data-name="パス 286" d="M319.588,133.547c.8-.159,1.2-.515,1.181-1.086C319.261,131.951,318.672,133.112,319.588,133.547Z" transform="translate(88.112 83.839)" fill="#363636" fill-rule="evenodd"/>
      <path id="パス_287" data-name="パス 287" d="M317.246,133.274c.06.484-.6.852.244,1.088C317.343,134.031,317.794,133.4,317.246,133.274Z" transform="translate(86.153 84.718)" fill="#363636" fill-rule="evenodd"/>
      <path id="パス_288" data-name="パス 288" d="M317.742,134.086c.271.482-.306.532-.445.807l.013.035C318.47,135,318.247,134.3,317.742,134.086Z" transform="translate(86.377 85.478)" fill="#363636" fill-rule="evenodd"/>
      <path id="パス_289" data-name="パス 289" d="M312.342,134.88v-.48H311.4C311.2,134.812,311.519,134.977,312.342,134.88Z" transform="translate(80.806 85.772)" fill="#363636" fill-rule="evenodd"/>
      <path id="パス_290" data-name="パス 290" d="M322.226,135.211c.232.116.6.166.813.3,0-.182,0-.36,0-.542C322.573,134.952,322.041,134.9,322.226,135.211Z" transform="translate(90.952 86.29)" fill="#363636" fill-rule="evenodd"/>
      <path id="パス_291" data-name="パス 291" d="M312.117,136.93c0-.213.648-.7,0-.844C311.9,136.189,311.606,136.864,312.117,136.93Z" transform="translate(81.267 87.349)" fill="#363636" fill-rule="evenodd"/>
      <path id="パス_292" data-name="パス 292" d="M320.565,140.937a.743.743,0,0,0,.13.77c.731.091.29-.412,1.2-.24v-.337l-1.258-.184Z" transform="translate(89.385 91.886)" fill="#363636" fill-rule="evenodd"/>
      <path id="パス_293" data-name="パス 293" d="M321.469,141.47c.085.277.151.563.95.478C322.334,141.669,322.272,141.383,321.469,141.47Z" transform="translate(90.279 92.369)" fill="#363636" fill-rule="evenodd"/>
      <path id="パス_294" data-name="パス 294" d="M316.675,143.552c.5-.188.863-.447.712-.966h-.956C316.579,142.872,316.137,143.459,316.675,143.552Z" transform="translate(85.537 93.428)" fill="#363636" fill-rule="evenodd"/>
      <path id="パス_295" data-name="パス 295" d="M312.451,143.085h-.7a.574.574,0,0,0,.464.73C312.209,143.528,312.623,143.455,312.451,143.085Z" transform="translate(81.172 93.895)" fill="#363636" fill-rule="evenodd"/>
      <path id="パス_296" data-name="パス 296" d="M318.475,143.773c-.153.294-.48.619.47.6C318.99,144.075,318.831,143.872,318.475,143.773Z" transform="translate(87.31 94.539)" fill="#363636" fill-rule="evenodd"/>
      <path id="パス_297" data-name="パス 297" d="M318.9,117.453c-.619.033-1.19.045-.954-.366h-1.186v.85c.273.015.666-.021.712.118v.366c-1.121-.043-.911.586-1.424.846h-.962c-.054-.211.24-.6-.482-.486-.352.7.559.766.482,1.333h1.194c.455-.817.658-1.765,2.859-1.693C319.307,117.97,318.74,117.9,318.9,117.453Z" transform="translate(83.784 69.578)" fill="#363636" fill-rule="evenodd"/>
      <path id="パス_298" data-name="パス 298" d="M325.494,125.237c.1-.383.453-.652.47-1.086a1.324,1.324,0,0,0-.641.137l0,.929A.5.5,0,0,0,325.494,125.237Z" transform="translate(93.885 76.182)" fill="#363636" fill-rule="evenodd"/>
      <path id="パス_299" data-name="パス 299" d="M235.06,179.2a23.529,23.529,0,0,0,14.573,4.951,31.131,31.131,0,0,0,7.7-1.03,72.833,72.833,0,0,0,9.65-3.553c3.991-1.717,6.636-3,8.214-4.221l.017-.014.025-.021a11.188,11.188,0,0,1,2-1.364l1.744-.327c.4-.075.656-.12.9-.164.435.132.869.265,1.312.395l1.788.526.008-2.286c.029-7.616.041-11.42.068-19.032a2.488,2.488,0,0,1,.693-1.821,3.591,3.591,0,0,1,2.346-1.061l1.972-.213,1.329-.143.006-1.661c0-.9,0-1.351.006-2.249l.006-1.98-1.585.161c-7.917.811-11.9,1.275-19.806,2.326l-1.3.172-.006,1.628c0,.944-.006,1.421-.008,2.375l-.006,2.042,1.631-.23c.946-.135,1.413-.2,2.363-.325l.006,0a6.89,6.89,0,0,1,.912-.066,2.5,2.5,0,0,1,1.655.449l.368.559a3.777,3.777,0,0,1,.168,1.241v.033c-.017,5.258-.025,7.89-.046,13.16l-.168.625c-.391.908-2.04,2.464-4.885,3.936A47.225,47.225,0,0,1,258.35,176.3a19.29,19.29,0,0,1-4.534.559,18.454,18.454,0,0,1-11.707-4.4c-.12-.1-.219-.219-.335-.317-.046.074-.089.153-.161.182h-.71c-.1-.339.1-.528.31-.712a17.647,17.647,0,0,1-4.409-7.389,33.513,33.513,0,0,1-1.119-4.743.745.745,0,0,1-.273-.821h.13c-.2-1.3-.354-2.655-.449-4.111h-1.107v-.848c.645.012.921-.165,1.053-.414-.044-.983-.089-1.966-.089-3.015v-.066q0-2.241.11-4.335c-.2-.29-.372-.6-.6-.877a1.285,1.285,0,0,1,.666.014c.023-.375.06-.733.089-1.1h-.039v-1.33c.058.006.087.027.141.033.8-8.428,2.947-14.91,6.361-19.27,4.79-6.114,9.907-8.872,15.595-9.034.343-.01.683-.014,1.018-.014,5.413,0,9.75,1.146,12.947,3.015,3.528,2.079,6.04,5.454,7.5,10.557l.466,1.639L280.54,129c.954-.362,1.424-.542,2.375-.9l1.3-.492-.3-1.653c-1.244-6.762-1.862-10.166-3.1-17.048l-.635-3.522-1.895,2.735a3.669,3.669,0,0,1-1.419,1.062,5.225,5.225,0,0,1-1.856.691H275a17.379,17.379,0,0,1-1.8-.244c-1.03-.172-2.454-.435-4.26-.792A55.731,55.731,0,0,0,258.17,107.8c-.314,0-.627,0-.941.008-8.217.12-15.879,3.578-22.33,11.035-4.064,4.682-6.847,10.755-8.417,17.813h1.777c-.116.463-1.229.426-1.432.846-.126-.209-.312-.188-.515-.12-.224,1.086-.4,2.208-.573,3.338.1.07.242.114.615.046v.848a2.121,2.121,0,0,1-.761-.043,73.2,73.2,0,0,0-.644,9.781h0l0,.095v.019h0v.017a59.68,59.68,0,0,0,.84,10.213c.4.008.443.2,1.039.112v.853c-.192-.033-.234-.13-.472-.128v.364a2.927,2.927,0,0,0-.389-.277c.188.966.395,1.914.639,2.822.563.035.509-.223,1.175-.124,0-.327-.089-.695.24-.852.257.236.455.494,1.436.364v.488c-.714-.615-1.368.163-1.436.6-.536-.132-.956-.157-1.349-.259.052.2.114.385.17.579a7.3,7.3,0,0,1,1.419-.077c-.2.341-.306.728-.956.842a.626.626,0,0,1-.246-.039c.13.412.23.855.372,1.252.244.685.55,1.3.83,1.947v-.259c.345.2.8.333.964.612-.2.339-.221-.263-.865-.126.124.279.228.579.362.85h.735c-.13.346.141.892-.085,1.184A21.3,21.3,0,0,0,235.06,179.2Zm4.407,1.241c-.534-.048-.1-.594-.232-.846.194.259.9.269.948.6C239.7,180.155,239.444,180.222,239.467,180.437Zm.956,1.212c.186-.279,1.477-.118,1.19.244C240.715,182.063,241.156,181.558,240.423,181.649Zm-1.188-10.16h.948c.447.55-.941.164-.716.6C238.952,172.113,239.353,171.664,239.235,171.488Zm-.246,2.3c.207-.021.223.046.246.124-.114.335,1.291-.1,1.188.242-.2.379-1.306.3-.956.964.879-.277,1.6-.343,1.906.364-.387.033-.408-.114-.716-.12-.186.455.294.575.246.968.637.01.482-.2.944,0a1.212,1.212,0,0,1-.714.728c-1.639-.257-.776-1.784-3.093-1.7.139-.6,1.728-.83.7-1.328C238.975,174.025,238.933,173.88,238.989,173.785Zm-1.67-1.693c.511.054.457-.174.478-.36.426-.021.509.153.946.122-.062.524-.548.844-1.186,1.084C237.675,172.558,237.127,172.514,237.319,172.092Zm-.476,1.693h.714c-.1.226-.083.524-.714.484Zm-10.25-31.2h1.186c-.13.377.066.923-.708.97C226.127,143.621,226.785,142.886,226.593,142.582Zm-.238,3.507c-.027.308-.037.621-.714.608.027-.217-.3-.257-.24-.486A2.426,2.426,0,0,1,226.355,146.089Zm-.714,7.263c.621-.043,1.022.039.952.354C225.97,153.741,225.4,153.749,225.641,153.352Zm-.24-2.545c.346.066,1.227-.141,1.192.118C226.856,151.341,224.857,151.285,225.4,150.807Zm1.192-5.562c.77.147.182-.393.954-.246.215.312.375.687-.244.85C226.636,145.868,226.624,145.555,226.593,145.245Zm1.666,1.69h-1.188c-.132-.463.327-.637.948-.724C228.019,146.491,228.43,146.567,228.259,146.935Zm.248,2.3c-.345-.461.65-.232.468-.606C229.446,148.686,229.407,149.48,228.507,149.236Zm7.385,22.009c-1.45.2-1.039.741-.72,1.33-1.3.021-1.184-.689-1.662-1.086.226.008.186.149.238.244a1.735,1.735,0,0,0,1.664-1.33C236.318,170.3,235.714,170.973,235.892,171.244Zm-.952-3.627c.544.1.232.751-.484.608C234.12,167.765,235.112,167.987,234.94,167.618Zm1.428,1.453H234.94c.472-.232.118-.575,0-.846C235.608,168.407,236.295,168.579,236.368,169.071Zm-2.382-12.818c-.691.165-1.215-.331-1.432,0-.521.016-.11-.432-.248-.608.437.43.823.12,1.442,0C233.649,155.934,234.181,155.909,233.986,156.253Zm0,1.33c-.242-.079-.25-.281-.72-.244v-.368C234.023,156.921,234.031,157.234,233.986,157.583Zm-2.15-5.082h1.19v.852c-.629-.075-.857.044-.72.354C231.646,153.565,231.876,152.967,231.836,152.5Zm2.62-3.871c-.867.079-.935-.252-.946-.608C234.189,148.04,234.644,148.177,234.456,148.63Zm-.47-2.541c.8-.122.364.375.47.608C233.752,146.724,233.616,146.261,233.986,146.089Zm-.238.846h.708v.61C233.431,147.581,233.533,147.24,233.748,146.935Zm-.722-1.328c.805-.124.374.377.484.6-.428.017-.507-.149-.956-.122C232.256,145.7,233.322,146,233.026,145.607Zm-.72-2.541v.486c-.335.064-1.225-.141-1.186.12C230.456,143.4,231.278,142.872,232.306,143.066Zm-1.186,2.541h.716c.1.414-.072.691-.948.6C230.686,145.868,231.224,145.9,231.12,145.607Zm-1.188-8.949h.716v1.331C229.833,137.835,229.864,137.254,229.931,136.658Zm.716,1.691v.486c-.805.122-.784-.172-.716-.486Zm-.242,8.105h.714c.172.366-.242.437-.232.722-.567-.37-.149-.048-.956,0C229.6,146.691,230.452,146.8,230.406,146.455Zm-1.9,23.338c-.5-.168.221-.414-.248-.722h.716C229.306,169.563,228.463,169.452,228.507,169.793Zm1.9-1.69c-.975.128.029-.741-1.182-.486-.192.37.821.147.47.608-.761-.1-1.01-.9-.238-1.093a1.9,1.9,0,0,0,1.664,0C231.2,167.612,230.829,167.877,230.406,168.1Zm.714-6.656c-.72-.36-.606-1,.476-1.2-.991-.643-.476-.954,0-1.693-1.217-.232-.48-1-.476-1.455.913-.186,2.462-.066,2.146.724h-.96c-.1.8.143,1.98,2.15,2.059.225.875-1.109.972-.708,1.933a15.813,15.813,0,0,1-1.912-1.21C231.41,160.794,230.922,160.946,231.12,161.448Zm1.186,1.7c1.43.157,1.19-.534,1.2-1.09a1.421,1.421,0,0,0,1.184.24c-.344,1.345.786,1.941.478,3.265.07.163.6.1.958.122-.374.422-.205,1.107-.238,1.69-.906-.023-1.285-.244-.952-.6-.91-.18-.045.54-.954.36-.735-.586.867-.888.954-1.45-.242.008-.188.149-.246.242a2.393,2.393,0,0,0-.946-2.543c-.894-.122-.379.457-1.194.368C232.743,163.406,232.209,163.433,232.306,163.145Z" transform="translate(0 58.635)" fill="#363636" fill-rule="evenodd"/>
      <path id="パス_300" data-name="パス 300" d="M261.884,131.9l0,.451a3.358,3.358,0,0,0,.348.006C262.412,132.048,262.2,131.947,261.884,131.9Z" transform="translate(34.545 83.429)" fill="#363636" fill-rule="evenodd"/>
      <path id="パス_301" data-name="パス 301" d="M448.06,183.9a4.4,4.4,0,0,1-2.079-1.285,2.08,2.08,0,0,1-.263-.794,3.133,3.133,0,0,1-.635.015c-.257.029-.161.234-.474.24.159-.257.617-.364,1.084-.466a3.834,3.834,0,0,1-.074-.646c-.006-6.834-.01-12.74-.013-18.239a.372.372,0,0,0,.2.12c-.077-.319.329-.4.952-.364-.5-.281-.433-.848-1.15-1.018v.315c.3.1.108.364,0,.617,0-.207,0-.412,0-.617a1.893,1.893,0,0,0-.757-.021c.147-.124.546-.132.472-.364a1.156,1.156,0,0,1,.285.07c-.012-14.527-.021-26.3-.039-44.569a3.7,3.7,0,0,1,.114-.981l.077-.2,0-.006a2.74,2.74,0,0,1,1.7-.457l.159,0c.948.033,1.419.05,2.369.085l1.5.056v-6.4l-1.43-.037c-4.9-.124-7.354-.18-12.256-.294l-.942-.021-.4,1.063c-9.261,24.422-14.01,35.86-22.907,55.943-9.16-23.919-14.07-35.537-23.514-56.912l-.412-.931-.854-.01c-4.428-.058-6.644-.085-11.074-.132l-1.479-.015.006,1.839c0,.875,0,1.31.006,2.191l.006,1.786,1.436.023c.946.014,1.421.023,2.371.039a3.277,3.277,0,0,1,1.9.4l.008.008c.12.141.2.207.223.8.066,19.287.1,29.818.168,47.539a2.717,2.717,0,0,0,.379,0,1.132,1.132,0,0,1,.72-1.086c.852.774,2.454,1.165,2.858,2.175-.42-.075-1,.354-1.194,0,0-.288.414-.362.232-.726-.515.67-.828.335-2.851.484a.254.254,0,0,0-.143-.3c.006,1.564.012,3.164.017,4.854v.012l-.06.486-.046.066-.188.072a2.675,2.675,0,0,1-.644.066,6.958,6.958,0,0,1-.991-.081c-.466-.068-.815-.116-1.171-.166v-.01l-1.3-.174-.329-.045-.819-.112h0l-.037,0-.008,0a4.205,4.205,0,0,1-2.092-1.13,5.667,5.667,0,0,1-1.5-2.38l-.014-.043-.016-.037c-.381-.952-.743-1.852-1.111-2.766a.343.343,0,0,1-.044,0c0-.015.023-.025.031-.039q-.743-1.846-1.448-3.592h-.014l.008-.017c-7.948-19.7-12.715-30.81-21.349-50.787l-.53-1.225-1.088.317c-2.369.687-3.551,1.028-5.922,1.709l-.625.18-.317.7c-9.613,21.161-14.439,31.426-24.139,52.591l-.025.056-.023.056a4.212,4.212,0,0,1-1.74,1.96,4.423,4.423,0,0,1-2.139.883l-.149,0a3.457,3.457,0,0,1-1.69-.466l-.072-.041-.077-.031c-.085-.019-.428-.271-.852-1.012l-.021-.035-.021-.033c-5.812-9.046-8.98-13.95-14.323-22.361a31.016,31.016,0,0,0,10.788-4.91,14.625,14.625,0,0,0,6.276-12.344,13.42,13.42,0,0,0-1.881-7.132,13.708,13.708,0,0,0-5.314-4.846c-4.4-2.377-9.988-3.528-16.787-3.532l-.406,0c-11.07.075-16.613.126-27.689.259l-1.44.017-.006,1.792c0,.888-.006,1.331-.008,2.226L259,113.617l1.482-.023c.954-.014,1.43-.023,2.375-.039h.012l.137,0a3.048,3.048,0,0,1,1.736.335c.1.126.161.126.186.7v.023c-.056,16.15-.091,26.086-.136,39.4h.807a25.383,25.383,0,0,1,0,4.476c-.267-.19-.55-.374-.821-.563-.01,2.808-.019,5.767-.031,9-.021.583-.095.7-.286.933a3.717,3.717,0,0,1-2,.716c-.948.141-1.428.215-2.384.364l-1.272.2-.006,1.595c0,.894,0,1.337-.006,2.226l-.006,2.075,1.653-.265c3.174-.511,5.645-.89,8.032-1.227v-.782h1.192c-.064.319-.079.606.722.486v.033c2.446-.327,4.968-.633,8.233-1l1.322-.151,0-1.651c0-.205,0-.346,0-.515-.952-.149-.892.226-1.463.507-.7-.329-1.21-.755-1.19-1.451a1.814,1.814,0,0,0,.712.122c.35-.459-.654-.232-.474-.6a1.457,1.457,0,0,1,1.194-.248c.631.455-.507,1.055.47,1.333.281-.6.513-.345.751.029,0-.4,0-.792.006-1.322l.006-2-1.6.18c-.952.106-1.432.159-2.384.269l-.724.045a2.615,2.615,0,0,1-1.184-.221l-.019-.062-.037-.4v-.008l.008-2.311c-.43.029-.463.265-.54.466-.428-.445-.087-1.026.542-1.384,0-.693.006-1.343.008-2h-.077c-.01-.066.043-.1.077-.143.021-6.654.037-11.517.06-18.926,4.548-.31,7.368-.474,12.074-.706,6.47,11.244,9.9,17.052,16.547,28.356l.459.778.776-.037c2.644-.126,4.5-.2,6.5-.263v.008l1.5-.041c.832-.023,1.581-.043,2.313-.06.259,0,.5-.01.776-.016l1.432-.027v0c1.782-.031,3.406-.048,5.138-.048,1.6,0,3.317.012,5.392.037l1.475.017v-5.692l-1.442-.021c-.476-.006-.72-.01-1.2-.014a5.141,5.141,0,0,1-3.466-.987l-.046-.172a3.073,3.073,0,0,1,.377-1.244l.014-.027.012-.025c2.549-5.589,3.907-8.556,6.315-13.826,10.853.112,16.743.315,27.6.954,2.437,5.723,3.8,8.955,6.35,15.092a3.286,3.286,0,0,1,.211,1.115,2.12,2.12,0,0,1-.153.811,1.416,1.416,0,0,1-.973.234l-.4-.019c-.633-.06-.948-.093-1.585-.153l-1.571-.151v1.962c0,.853,0,1.285.006,2.129l.006,1.674,1.341.13c7.134.693,10.666,1.117,17.793,2.139l.654.093a.774.774,0,0,1,.13-.317h1.2v.511c4.407.648,7.081,1.088,11.92,1.957l1.674.3-.006-2.106c0-.908-.006-1.362-.01-2.264l0-1.573-1.252-.219c-.8-.139-1.194-.207-1.984-.341a4.183,4.183,0,0,1-2.1-.857,1.372,1.372,0,0,1-.215-.913c-.035-9.566-.06-16.739-.085-23.919a1.613,1.613,0,0,1-1.272.277c-.18-.368.248-.441.238-.73.668-.077.4.314,1.032.252l-.006-1.481c-.2-.021-.288-.1-.317-.221-.718.149.644.873-.232,1.088-.443-.151-.439-1.444.548-1.8,0-.972-.008-1.97-.012-2.961-.023.014-.033.029-.06.043-.7-.329-1.21-.757-1.19-1.453a1.751,1.751,0,0,0,.714.122c.348-.459-.656-.23-.476-.6a1.474,1.474,0,0,1,1-.259c-.012-3.294-.023-6.75-.037-10.582,8.134,18.7,12.8,30.04,21.505,52.96l.319.842.737.168c.944.217,1.413.325,2.357.548l1.03.244.515-1.136c9.032-19.946,13.888-31.246,22.372-53.042.019,11.949.033,20.946.048,30.944a.546.546,0,0,1,.112.439.68.68,0,0,1-.112-.015l0,2.3a.823.823,0,0,1,.582-.1c-.027.3-.039.583.24.722-.2.333-.217-.236-.823-.13l0,1.308c2.032-.823,1.3.49,1.539,1.726,1.1.381,2.357,1,1.9,1.815.629.037.188-.472.956-.364-.076-.463-.8-1.045-.236-1.451.453.05.021.555.952.36.182,1.289-.532,1.744-1.672,2.541.288.339.741.592.72,1.092h-1.434c.559-.484-.285-.35-1.188-.364.577-.186.474-.728,1.436-.728-.461-.317-.259-1.111,0-1.45-.366.1-.525.306-.49.6-.377-.327-.306-.894-.472-1.335-.24-.157-.807-.153-.954-.36-.223.037-.8.455-.238.484-.029.213-.381.01-.817-.021.006,4.457.014,9.247.021,14.662h.555c.2.279-.205.25-.563.244a2.666,2.666,0,0,1-.081.658l-.037.083-.364.052a4.791,4.791,0,0,1-1.258-.217c-1.1-.314-1.662-.468-2.764-.77l-1.779-.488.006,2.268c0,1.022,0,1.533.006,2.562l0,1.442,1.128.323c2.435.695,4.449,1.281,6.34,1.848a1.057,1.057,0,0,1,.319-1.6c.166.368-.248.439-.246.728h.72a7.2,7.2,0,0,1,.472-.848c1.192.728-1.031,1.049-.257,2.024,3.427,1.039,6.543,2.049,11.043,3.557l1.839.615v-6.524l-1.09-.354C449.473,184.353,449,184.2,448.06,183.9ZM276.329,167.44c.635.087,1.072.261.962.726h-.962Zm-7.147-.36c-.888.083-1.159-.139-1.188-.486h1.428C269.451,166.811,269.127,166.846,269.182,167.08Zm1.438-11.614c-1.144-.269-1.3-1.039-2.152-1.452h1.438C269.609,154.771,270.989,154.673,270.619,155.466Zm3.488-19.427c.025-8.126.043-12.843.068-21.558l.079-.569.033-.072a3.671,3.671,0,0,1,2.015-.484c3.793-.05,5.69-.072,9.489-.11l.474,0c5.417-.006,9.561,1.01,12.27,2.8a9.935,9.935,0,0,1,3.321,3.441,8.579,8.579,0,0,1,1.03,4.242l0,.017a9.823,9.823,0,0,1-1.084,4.718,9.645,9.645,0,0,1-3.3,3.493c-2.888,1.908-6.934,3.168-12.055,3.406C281.444,135.6,278.669,135.749,274.107,136.039Zm57.379,6.116c4.376-9.512,7.11-15.457,11.5-25.134,4.3,9.768,6.969,15.879,11.252,25.881C345.614,142.445,340.135,142.265,331.486,142.155ZM362.7,160.094h-.96c0-.443-.1-.935.96-.848C361.944,159.65,361.944,159.689,362.7,160.094Zm9.775,5.2c-1.14.182-.993-.3-1.906-.24-.3-.393.772-.091.474-.48A2.377,2.377,0,0,1,372.472,165.292Zm-.952-1.931a1.485,1.485,0,0,0-1.2-.242v-.484h.956C371.276,162.917,371.7,162.991,371.52,163.36Zm-.242-1.7v.606h-.956a.524.524,0,0,1,.244-.606Zm-.712-1.571c-.672.015-.693-.3-.716-.6C370.519,159.474,370.535,159.784,370.566,160.094Zm-.954,3.267c.379-.033.4.108.71.12-.1.232-.091.524-.71.486Zm-3.34-7.989c.581.052.517-.217,1.192-.116a1.689,1.689,0,0,1-.238,1.206h-.954C366.8,155.857,366.442,156.072,366.271,155.371Zm-1.678-1.808a.587.587,0,0,1-.47-.732C365.013,152.861,364.8,153.268,364.593,153.564Zm-1.419,5.682c.521-.375,1.726-.41,1.664-1.086a2.8,2.8,0,0,0,2.624-.846c-.472.968-.17,2.336-1.192,3.023,1.283.615-1.548,1.895.472,2.537-.395-.041-.439.095-.472.244a2.649,2.649,0,0,0-1.432-.848c1.2-.683.879-2.135,1.2-3.265-.163-.165-.637.058-1.2-.124-.493.033-.472.327-.716.488-.106.335,1.3-.1,1.2.242.188.457-1.136.151-1.684.24C363.99,159.395,362.989,159.623,363.175,159.246Zm.948,5.566c.207-.021.223.05.232.12.383.335.679-.375,1.68-.12v.48c-1.068-.095-1.442.164-2.4.124C363.3,164.961,364.3,165.182,364.123,164.812Zm2.62,5.922h.96C367.808,172.35,366.627,172.17,366.743,170.734Zm-2.15-3.743c-.083-.534.308-.822,1.2-.852.848-.186.149.41.72.364.8.128.379-.373.48-.6h1.2C368.334,166.948,366.271,166.871,364.593,166.991Zm5.018.846c-.035-.219.283-.255.238-.484C370.686,167.221,370.483,168.092,369.612,167.837ZM372,170.374h-1.674c-.085-.807-.066-1.57.718-1.933.37-.288,1.382.583.956.48.279.07.613-.137.476-.24C373.4,169.366,372.3,169.42,372,170.374Zm11.2-.6c.681-.1.615.17,1.188.12-.149.283-.43.509-1.188.484Zm1.668,1.933c-.857.116-.333-.478-.48-.724C384.67,171.09,385.611,171.471,384.868,171.7Zm.718-2.415c-.375-.052-.205-.381-.96-.25.157-.118.555-.124.48-.358h.714C386.027,169.027,385.483,168.994,385.586,169.288Zm2.617.6h-1.188C386.734,169.135,388.483,169.135,388.2,169.89Zm-1.422,1.332c-.867.114-.422-.524-.242-.6C387.258,170.428,387.165,171.235,386.78,171.222Zm0-1.693c.186.339-.339.312-.242.6-.23-.209-.875-.2-.718-.6Zm-3.58-41c.635-.037.615.252.71.484h-.95C382.931,128.793,383.252,128.759,383.2,128.528Zm2.138,7.741v-.726c.635.087,1.072.261.962.726Zm-.232-2.663c-.933-.153-.7.288-.718.606.081-.524-1.039-1.482-1.188-2.3-.627-.041-.623.252-.712.48-.6-.629.285-1.546,1.423-1.69v-.848c.913.172.462-.333,1.2-.242-.135.267.461.174.48.364.043.337-.811.238-.48.726h-1.2v1.21h2.39C386.294,132.68,384.6,132.581,385.106,133.607Zm-.48-5.682c-.362-.828,1.477-.544,1.674-1.088C386.84,127.27,385.59,127.843,384.626,127.924Zm51.637,58.023c-.031-.223.292-.255.24-.488C437.333,185.328,437.141,186.2,436.263,185.948Zm8.109-6.414a.8.8,0,0,1,.476.848C443.938,180.48,444.542,179.813,444.372,179.534Zm.238-17.052c-.892-.029-.672-.43-.48-.724C444.989,161.642,444.464,162.234,444.61,162.482Zm.946-7.138c-.8-.079-.863.2-.946.484-.2-.505-.693-.861-.722-1.45.281.015.2.219.242.364.677.019.468-.414,1.426-.242Zm-1.668-8.945h.722c-.132-.443-.977-1.386.238-1.455-.48.648,1.022.294.708.844-.863-.708-.958.846-.708,1.09h-.96Zm-.72,5.322a1.868,1.868,0,0,1,.72-.124c-.056.128-.472.081-.472.244.528.135.54.528.714.844-.368-.05-.2-.381-.962-.242C443.385,152.089,443.385,152.072,443.168,151.721Zm.72,6.408c.346.459-1.064.021-.72.48-.312-.033-.19-.3-.232-.48Zm-1.43-18.991c.532.015.1.517.242.728-.18-.19-.757-.18-.718-.488C442.392,139.426,442.438,139.287,442.458,139.138Zm-.476.846c.633-.033.615.254.718.486C441.9,140.591,441.923,140.3,441.981,139.984ZM442.7,152.2c-.1.23-.085.519-.718.484.035-.217-.29-.254-.23-.484Zm0,5.32v.484h-1.19C441.531,157.659,441.807,157.432,442.7,157.521Zm-3.576,2.787c-.045-.472,1.107-.331.962-.852-.381.052-.215.379-.962.244.07-.368-.041-.83.714-.852.012-.364-.865-.284-.714-.72a2.764,2.764,0,0,1,1.67,0c-.194.617-1.328.913,0,1.088C440.669,159.8,440.234,160.221,439.123,160.308Zm1.67,3.019c.062-.223,1.018-.594.234-.846-.234.106-1.179-.418-1.19-1.088h.956C440.619,161.984,442.7,163.028,440.793,163.327Zm.958,5.562a2.175,2.175,0,0,0,.948.124c.035.215-.294.254-.242.484-.532.066-.333-.23-.706-.244-.238,0-.192.145-.242.244C440.855,169.387,441.751,169.075,441.751,168.89Zm0,10.888c-.358-.459,1.061-.023.706-.482.553.12.5.557.478.962-.2.389-.314-.211-.236-.356C442.626,179.729,442.1,179.8,441.751,179.778Zm-4.534,1.7c-.031-.223.288-.261.238-.484.528.054.854.211.954.484Zm.472,3.141c1.074-.137.627.488.952.726C437.49,185.522,437.648,185.038,437.689,184.614Zm.246-12.7c.577-.19.474-.726,1.436-.726-.085-.286-.389-.451-.248-.844.97-.17.751.265,1.434.24a1.977,1.977,0,0,1-1.186,1.086.674.674,0,0,1,.232,1.215C438.73,172.716,438.662,172.151,437.935,171.915Zm2.15,10.764c-.5-.074-.912-.186-.714-.6C440.034,182.06,440.042,182.373,440.085,182.679Zm-.714,4.72c-.422-.029-.108-.687.466-.6-.1.248.161.317.248.484C440.085,187.643,439.324,186.726,439.371,187.4Zm.948-3.876c.269-.4-.279.79.238,1.092.526-.021-.308-.306,0-.6,1.666-.07.761.557,1.424.838C439.93,185.9,438.44,184.848,440.319,183.523Zm1.662-.6c.968-.045.257.757.476,1.1C441.776,183.989,441.513,183.13,441.981,182.919Zm.954,1.933c-.929-.135-.188-.739-.236-1.33C443.245,183.734,442.785,184.448,442.936,184.852Zm0-21.161c-.236.006-.188.149-.236.24-.6-.048,0-.466.468-.36-.19.339.344.312.248.6C442.7,164.3,442.99,163.9,442.936,163.691Zm.232,21.411c-.019-.221.3-.261.248-.488C444.255,184.481,444.054,185.357,443.168,185.1Zm.72-18.993c-.172-.364.246-.441.242-.722C444.49,165.387,444.648,166.283,443.888,166.109Zm1.432,19.351c-.472-.041-.749.025-.71.24-.859-.215.418-.331.238-.6.275-.021.42.023.472.114Z" transform="translate(31.647 58.987)" fill="#363636" fill-rule="evenodd"/>
      <path id="パス_302" data-name="パス 302" d="M360.057,126.1v-.846h-1.192v1.21C359.732,126.585,358.977,125.88,360.057,126.1Z" transform="translate(125.257 77.22)" fill="#363636" fill-rule="evenodd"/>
      <path id="パス_303" data-name="パス 303" d="M359.8,126.046c.017-.364-.855-.286-.714-.728h-1.19c.01.29-.408.36-.234.728A4.612,4.612,0,0,0,359.8,126.046Z" transform="translate(124.087 77.277)" fill="#363636" fill-rule="evenodd"/>
      <path id="パス_304" data-name="パス 304" d="M357.512,126.94c.712.045.615.5,1.67.366.319-.377-.066-.348,0-.854C358.2,126.4,357.429,126.453,357.512,126.94Z" transform="translate(123.985 78.322)" fill="#363636" fill-rule="evenodd"/>
      <path id="パス_305" data-name="パス 305" d="M350.457,132.322c-.341.159-.226.552.366.583v-.424A.438.438,0,0,0,350.457,132.322Z" transform="translate(117.214 83.828)" fill="#363636" fill-rule="evenodd"/>
      <path id="パス_306" data-name="パス 306" d="M359.481,140.32V141.9c.675-.025.463.4,1.432.238C360.131,141.684,360.66,140.568,359.481,140.32Z" transform="translate(125.833 91.309)" fill="#363636" fill-rule="evenodd"/>
      <path id="パス_307" data-name="パス 307" d="M357.5,141.732c.521.025.112-.426.234-.6h-.7C357.131,141.36,356.707,141.856,357.5,141.732Z" transform="translate(123.517 92.07)" fill="#363636" fill-rule="evenodd"/>
      <path id="パス_308" data-name="パス 308" d="M359.726,141.759c.19.414-.356.459-.236.844h.958C360.411,142.214,359.915,142.061,359.726,141.759Z" transform="translate(125.824 92.655)" fill="#363636" fill-rule="evenodd"/>
      <path id="パス_309" data-name="パス 309" d="M359.563,143.738v-.608h-1.19C358.344,143.552,358.574,143.832,359.563,143.738Z" transform="translate(124.794 93.937)" fill="#363636" fill-rule="evenodd"/>
      <path id="パス_310" data-name="パス 310" d="M361.085,143.581v.6C361.813,144.365,361.813,143.4,361.085,143.581Z" transform="translate(127.333 94.338)" fill="#363636" fill-rule="evenodd"/>
      <path id="パス_311" data-name="パス 311" d="M350.878,143.634h-.637c.047.178-.081.441.24.478-.166-.228.1-.238.389-.234,0-.048.008-.077.008-.13Z" transform="translate(117.19 94.409)" fill="#363636" fill-rule="evenodd"/>
      <path id="パス_312" data-name="パス 312" d="M364.385,143.758h-.716v.606C364.422,144.414,364.43,144.1,364.385,143.758Z" transform="translate(129.75 94.524)" fill="#363636" fill-rule="evenodd"/>
      <path id="パス_313" data-name="パス 313" d="M356.567,144.249c-.238-.172-.807-.161-.958-.368.139.555-.772,1.1.72,1.092C355.633,144.5,356.143,144.667,356.567,144.249Z" transform="translate(122.071 94.64)" fill="#363636" fill-rule="evenodd"/>
      <path id="パス_314" data-name="パス 314" d="M356.763,144.873c-.47.033-.47-.161-.714-.24.134.211-.29.71.238.724C355.993,144.968,357.065,145.266,356.763,144.873Z" transform="translate(122.59 95.343)" fill="#363636" fill-rule="evenodd"/>
      <path id="パス_315" data-name="パス 315" d="M361.517,144.757h-.964c-.135.565-.337.917,0,1.45h1.2C361.846,145.638,361.325,145.376,361.517,144.757Z" transform="translate(126.663 95.459)" fill="#363636" fill-rule="evenodd"/>
      <path id="パス_316" data-name="パス 316" d="M359.481,145.913c.61-.132.987-.383.958-.842h-.958Z" transform="translate(125.833 95.753)" fill="#363636" fill-rule="evenodd"/>
      <path id="パス_317" data-name="パス 317" d="M361.8,148.8c.132-.31.321-.426-.23-.608v.244h-.958c.124.178-.285.629.236.6C360.6,148.68,361.376,148.829,361.8,148.8Z" transform="translate(126.852 98.672)" fill="#363636" fill-rule="evenodd"/>
      <path id="パス_318" data-name="パス 318" d="M361.453,149.108c.95.157.492-.4,1.43-.244v-.484h-.722C362.3,148.819,361.441,148.736,361.453,149.108Z" transform="translate(127.677 98.848)" fill="#363636" fill-rule="evenodd"/>
      <path id="パス_319" data-name="パス 319" d="M362.683,150.078v.608C363.426,150.871,363.426,149.9,362.683,150.078Z" transform="translate(128.828 100.415)" fill="#363636" fill-rule="evenodd"/>
      <path id="パス_320" data-name="パス 320" d="M355.29,152.184h1.2v-.48C355.594,151.609,355.329,151.845,355.29,152.184Z" transform="translate(121.913 101.937)" fill="#363636" fill-rule="evenodd"/>
      <path id="パス_321" data-name="パス 321" d="M360.036,152.19a4.881,4.881,0,0,1-1.664-.12c.132.492.132,1.061,1.432.962C360.133,152.875,360.036,152.507,360.036,152.19Z" transform="translate(124.796 102.299)" fill="#363636" fill-rule="evenodd"/>
      <path id="パス_322" data-name="パス 322" d="M359.254,152.83c-.2.5.29.658.718.852C359.848,153.333,360.4,152.66,359.254,152.83Z" transform="translate(125.578 102.985)" fill="#363636" fill-rule="evenodd"/>
      <path id="パス_323" data-name="パス 323" d="M351.12,154.165c-.188-.292,1.134-.693,0-.722C351.182,153.654,350.444,154.045,351.12,154.165Z" transform="translate(117.744 103.583)" fill="#363636" fill-rule="evenodd"/>
      <path id="パス_324" data-name="パス 324" d="M351.1,154.074a.584.584,0,0,1,.48.724c.85.12.329-.476.474-.724C351.613,154.19,351.263,153.706,351.1,154.074Z" transform="translate(117.998 104.042)" fill="#363636" fill-rule="evenodd"/>
      <path id="パス_325" data-name="パス 325" d="M355.724,156.178c0-.281-.414-.356-.242-.724-.815.377-.666-.132-2.137,0-.184.571.265.836.23,1.328h1.186C354.772,156.421,355.2,156.276,355.724,156.178Z" transform="translate(120.053 105.443)" fill="#363636" fill-rule="evenodd"/>
      <path id="パス_326" data-name="パス 326" d="M358.5,156.889v.608C359.229,157.682,359.229,156.711,358.5,156.889Z" transform="translate(124.914 106.785)" fill="#363636" fill-rule="evenodd"/>
      <path id="パス_327" data-name="パス 327" d="M356.377,159.909c.108.232-.317.728.486.6.515-.261.673-.706.944-1.088-.374-.012-.826.017-.71-.24.863-.153.192-1.376.71-1.206.693.215-.933,1.227.242.478.064-.71-.155-1.235-.714-1.326-1.349.157-.958.972-.238,1.326-.664.192-.513.794-1.906.608-.091.439-.774.575-.476,1.208H355.9C355.933,160.083,355.87,159.859,356.377,159.909Z" transform="translate(121.304 107.034)" fill="#363636" fill-rule="evenodd"/>
      <path id="パス_328" data-name="パス 328" d="M351.352,158.925c.735.058.757-.261.706-.608h-.706Z" transform="translate(118.23 108.142)" fill="#363636" fill-rule="evenodd"/>
      <path id="パス_329" data-name="パス 329" d="M360.962,159.555c.9-.341.352.029,1.659,0v-.488h-1.659Z" transform="translate(127.218 108.843)" fill="#363636" fill-rule="evenodd"/>
      <path id="パス_330" data-name="パス 330" d="M357.209,159.319h-1.672a2.023,2.023,0,0,0,1.43,1.933C357.519,160.842,357.054,159.921,357.209,159.319Z" transform="translate(122.144 109.079)" fill="#363636" fill-rule="evenodd"/>
      <path id="パス_331" data-name="パス 331" d="M355.334,160.765c-.532.478,1.471.532,1.2.118C356.57,160.62,355.692,160.831,355.334,160.765Z" transform="translate(121.869 110.414)" fill="#363636" fill-rule="evenodd"/>
      <path id="パス_332" data-name="パス 332" d="M357.335,125.763c-2.079-.124-.308.968-1.426,1.328.823-.377,1.045-.062,1.664.246C357.761,126.676,357.2,126.4,357.335,125.763Z" transform="translate(122.492 77.684)" fill="#363636" fill-rule="evenodd"/>
      <path id="パス_333" data-name="パス 333" d="M357.921,128.513c-1.438-.157-.3-1.626-1.664-1.817.892,1.672.134,2.756.238,4.476a2.484,2.484,0,0,0-.958.114c.317.207-.085.776.72.732.31-.294-.089-1.43,1.664-1.332Z" transform="translate(122.144 78.566)" fill="#363636" fill-rule="evenodd"/>
      <path id="パス_334" data-name="パス 334" d="M350.495,134.31a.641.641,0,0,1,.132-.01v-.488A.479.479,0,0,0,350.495,134.31Z" transform="translate(117.414 85.223)" fill="#363636" fill-rule="evenodd"/>
      <path id="パス_335" data-name="パス 335" d="M351.014,134.932c-.315,0-.219-.211-.478-.236.977.641-1.48.834-.716,1.326.058-.091.006-.238.242-.238-.706.809.91,1.053,0,1.57.763.153.176-.389.952-.244.31-.3-.532-.583,0-.6.465.225.116.571,0,.844a1.128,1.128,0,0,1,.375-.021c0-.863,0-1.711,0-2.549C351.26,134.833,351.162,134.864,351.014,134.932Z" transform="translate(116.657 86.049)" fill="#363636" fill-rule="evenodd"/>
      <path id="パス_336" data-name="パス 336" d="M356.189,141.489c-.194-.463-.735.892.238,1.331A5.519,5.519,0,0,0,356.189,141.489Z" transform="translate(122.45 92.313)" fill="#363636" fill-rule="evenodd"/>
      <path id="パス_337" data-name="パス 337" d="M356.422,144.757a2.491,2.491,0,0,1-1.061.381c.01.068.012.149.025.211A1.513,1.513,0,0,0,356.422,144.757Z" transform="translate(121.979 95.459)" fill="#363636" fill-rule="evenodd"/>
      <path id="パス_338" data-name="パス 338" d="M362.591,147.248c.743-.317.25-1.248,1.428-1.335v-.842h-1.192A4.712,4.712,0,0,0,362.591,147.248Z" transform="translate(128.684 95.753)" fill="#363636" fill-rule="evenodd"/>
      <path id="パス_339" data-name="パス 339" d="M352.213,148.108c-.01-.014-.008-.023-.017-.035l-1.008-.3A1.037,1.037,0,0,0,352.213,148.108Z" transform="translate(118.075 98.278)" fill="#363636" fill-rule="evenodd"/>
      <path id="パス_340" data-name="パス 340" d="M355.606,150.85c.836-.182,1.343-.528,1.43-1.088-.42.033-1.19-.339-1.43,0C356.4,149.987,355.036,150.745,355.606,150.85Z" transform="translate(122.074 100.006)" fill="#363636" fill-rule="evenodd"/>
      <path id="パス_341" data-name="パス 341" d="M355.174,153.131c-.1.285.441.263.236.6a2.905,2.905,0,0,1,1.2,0v-.36c-1.016.066-.635-.443-1.2,0C355.36,153.276,355.407,153.131,355.174,153.131Z" transform="translate(121.792 103.291)" fill="#363636" fill-rule="evenodd"/>
      <path id="パス_342" data-name="パス 342" d="M358.607,156.952c.039-.139.374-.132.712-.12.056-.226-.261-.263-.238-.488-.691.01-.7.374-1.188.488v-.846a2.922,2.922,0,0,0,1.188.124c.364-.178.213-.621.238-.971-.277-.017-.674.021-.712-.116.083-.488,1.148-.466.712-1.215-.743.141-.575-.19-.954-.238-.015.147-.064.288-.472.238v1.332c-.635.041-.834.3-1.436.36-.567.048.135-.55-.708-.36-.134.174.275.629-.238.608-.052-.1-.012-.24-.238-.248-.11.54.579.674.948.972-.6.1-.505.554-.472.966,1.68.033.751,1.4,1.906,1.693-1.211-.391-1.573-.023-2.624.246-.1-.232-.083-.523-.714-.488-.526.019-.1.515-.248.726,1.244.261,1.641-.528,2.388-.12,0,.2-.658.068-.708.24,1.39.1,1.316-.542,2.382-.6,1.179.149-.4,1.182.234.968-.087-.4,1.01-.215.954-.6-.29-.176-1.041-.114-.712-.606C360.654,158.717,359.571,157.295,358.607,156.952Z" transform="translate(120.746 103.701)" fill="#363636" fill-rule="evenodd"/>
      <path id="パス_343" data-name="パス 343" d="M353.179,156.569a.784.784,0,0,0-.47.846c.968-.164.743.265,1.424.244C353.413,157.494,354.085,156.631,353.179,156.569Z" transform="translate(119.495 106.507)" fill="#363636" fill-rule="evenodd"/>
      <path id="パス_344" data-name="パス 344" d="M352.045,158.759a4.117,4.117,0,0,1-1.188,1.57c.873.186.437.979,0,1.212h.958c.021-.658-.728-1.732.706-1.939C352.351,159.334,352.959,158.665,352.045,158.759Z" transform="translate(117.767 108.547)" fill="#363636" fill-rule="evenodd"/>
      <path id="パス_345" data-name="パス 345" d="M225.274,123.545c-.155.356-.416.884.194,1.045.039-.29.1-.563.145-.852C225.514,123.667,225.464,123.57,225.274,123.545Z" transform="translate(0.127 75.619)" fill="#363636" fill-rule="evenodd"/>
      <path id="パス_346" data-name="パス 346" d="M232.582,124.17c-.079.283-.379.453-.232.844.443.025.521-.135.948-.118C233.5,124.424,232.9,124.369,232.582,124.17Z" transform="translate(6.885 76.203)" fill="#363636" fill-rule="evenodd"/>
      <path id="パス_347" data-name="パス 347" d="M231.408,125.92c.015-.619-.112-1.165-1.055-1.3-.041.424-.07.863-.1,1.3Z" transform="translate(4.96 76.627)" fill="#363636" fill-rule="evenodd"/>
      <path id="パス_348" data-name="パス 348" d="M230.769,127.3c.54-.174.085-.842.236-1.21-.434.012-.524-.149-.77-.232-.017.292-.046.567-.062.863A1.664,1.664,0,0,0,230.769,127.3Z" transform="translate(4.887 77.786)" fill="#363636" fill-rule="evenodd"/>
      <path id="パス_349" data-name="パス 349" d="M231.578,125.982c-.41.209-.261.747.24.844C231.949,126.565,232.394,126.046,231.578,125.982Z" transform="translate(5.979 77.898)" fill="#363636" fill-rule="evenodd"/>
      <path id="パス_350" data-name="パス 350" d="M232.686,127.6h-.948c-.186.42.134.579.948.488Z" transform="translate(6.303 79.416)" fill="#363636" fill-rule="evenodd"/>
      <path id="パス_351" data-name="パス 351" d="M232.434,130.792c.075.317.093.608-.7.484.178.281-.43.942.468.848C232.434,131.866,233.663,131.007,232.434,130.792Z" transform="translate(6.309 82.397)" fill="#363636" fill-rule="evenodd"/>
      <path id="パス_352" data-name="パス 352" d="M231.01,134.006c.315-.281.664-.55.472-1.09h-1.061c.043.283.1.546.143.821A1.018,1.018,0,0,0,231.01,134.006Z" transform="translate(5.12 84.384)" fill="#363636" fill-rule="evenodd"/>
      <path id="パス_353" data-name="パス 353" d="M231.947,133.888c0-.2.776-.883-.244-.846C231.287,133.254,231.438,133.788,231.947,133.888Z" transform="translate(6.093 84.501)" fill="#363636" fill-rule="evenodd"/>
      <path id="パス_354" data-name="パス 354" d="M230.97,134.719c.8.081.871-.205.954-.492h-.954Z" transform="translate(5.633 85.61)" fill="#363636" fill-rule="evenodd"/>
      <path id="パス_355" data-name="パス 355" d="M225.423,134.482c-.53.356-.087.664.325.931-.06-.308-.124-.612-.178-.925A.882.882,0,0,0,225.423,134.482Z" transform="translate(0.217 85.847)" fill="#363636" fill-rule="evenodd"/>
      <path id="パス_356" data-name="パス 356" d="M232.663,134.668h-.716c.05.228-.269.267-.232.482C232.51,135.237,232.58,134.945,232.663,134.668Z" transform="translate(6.326 86.022)" fill="#363636" fill-rule="evenodd"/>
      <path id="パス_357" data-name="パス 357" d="M225.8,136.875c.273.172.064.584.464.683-.075-.238-.145-.484-.217-.726A1.367,1.367,0,0,0,225.8,136.875Z" transform="translate(0.795 88.046)" fill="#363636" fill-rule="evenodd"/>
      <path id="パス_358" data-name="パス 358" d="M232.824,137.105c-.314.281-.664.55-.466,1.092h1.188C233.488,137.734,233.786,137.1,232.824,137.105Z" transform="translate(6.877 88.302)" fill="#363636" fill-rule="evenodd"/>
      <path id="パス_359" data-name="パス 359" d="M234.483,138.341c-1.231.261-.223-.612-1.19-.478.066.315.072.6-.722.478v.855h1.2C233.38,138.59,234.6,138.8,234.483,138.341Z" transform="translate(7.13 88.997)" fill="#363636" fill-rule="evenodd"/>
      <path id="パス_360" data-name="パス 360" d="M233.753,139.29c.01.279-.2.445-.4.617.186.178.368.364.561.53C234.118,140.1,234.076,139.429,233.753,139.29Z" transform="translate(7.861 90.345)" fill="#363636" fill-rule="evenodd"/>
      <path id="パス_361" data-name="パス 361" d="M226.535,139.416c.18.561-.1,1.343,1.2,1.33.081-.031.106-.093.147-.145-.219-.395-.449-.772-.65-1.184Z" transform="translate(1.484 90.463)" fill="#363636" fill-rule="evenodd"/>
      <path id="パス_362" data-name="パス 362" d="M226.752,139.542H225.8a.9.9,0,0,0,.954.842C226.694,139.887,227.066,139.917,226.752,139.542Z" transform="translate(0.795 90.581)" fill="#363636" fill-rule="evenodd"/>
      <path id="パス_363" data-name="パス 363" d="M226.411,140.729c.213.3.716.441,1.444.484.052-.228-.275-.263-.248-.484Z" transform="translate(1.368 91.691)" fill="#363636" fill-rule="evenodd"/>
      <path id="パス_364" data-name="パス 364" d="M226.546,144.07a1.46,1.46,0,0,1,.232-1.093c-.3-.01-.329-.153-.708-.12C226.3,143.222,225.563,144.078,226.546,144.07Z" transform="translate(1.001 93.677)" fill="#363636" fill-rule="evenodd"/>
      <path id="パス_365" data-name="パス 365" d="M230.986,148.357c.1.3-.437.269-.238.608C231.694,149.241,231.8,148.225,230.986,148.357Z" transform="translate(5.383 98.815)" fill="#363636" fill-rule="evenodd"/>
      <path id="パス_366" data-name="パス 366" d="M226.011,121.545c-.457.248-.368.78-.952.966.335.238.778-.112,1.15-.24.052-.246.116-.482.17-.726Z" transform="translate(0.104 73.748)" fill="#363636" fill-rule="evenodd"/>
      <path id="パス_367" data-name="パス 367" d="M230.3,132.2c.24-.4-.606-1.351.72-1.2-.261-.515.559-1.581-.48-1.7-.449.383-.12,1.159-.374,1.641.019.42.027.855.054,1.262Z" transform="translate(4.877 80.994)" fill="#363636" fill-rule="evenodd"/>
      <path id="パス_368" data-name="パス 368" d="M226.258,136.61c-.215-.182-.192-.472-.952-.372a2.12,2.12,0,0,0,1.03.59c-.021-.074-.046-.145-.066-.219Z" transform="translate(0.335 87.471)" fill="#363636" fill-rule="evenodd"/>
      <path id="パス_369" data-name="パス 369" d="M226.659,139.094c.043-.014.06,0,.1-.008-.035-.074-.064-.151-.1-.226Z" transform="translate(1.6 89.943)" fill="#363636" fill-rule="evenodd"/>
      <path id="パス_370" data-name="パス 370" d="M232.115,146.6c-.147.252.3.792-.238.844-.033-.145-.068-.283-.474-.24-.244.095-.915.569-.484.6.151-.292,1.21-.062.958.244-.377-.01-.194-.31-.718-.244-.55.346.513.964-.24,1.33.188-.42-.358-.461-.232-.842-1.568.17.165.685-1.192,1.088a13.831,13.831,0,0,0,2.144,0c.321-.242-.118-.869.95-.726.329-.381-.588-.734,0-.85.027.145.068.286.476.244.151-.463,1.287-.888.478-1.45A3.122,3.122,0,0,1,232.115,146.6Z" transform="translate(4.253 97.187)" fill="#363636" fill-rule="evenodd"/>
      <path id="パス_371" data-name="パス 371" d="M228.768,147.85c.321.054,1.262.4,1.2.244-.281-.178-.281-.306,0-.484C229.517,147.664,228.525,147.445,228.768,147.85Z" transform="translate(3.538 98.116)" fill="#363636" fill-rule="evenodd"/>
    </g>
  </g>
</svg>
