<svg xmlns="http://www.w3.org/2000/svg" width="400" height="350" viewBox="0 0 400 350">
  <g id="logo_8" transform="translate(-1287 -2632)">
    <g id="グループ_153" data-name="グループ 153" transform="translate(386.985 2209.386)">
      <g id="グループ_151" data-name="グループ 151" transform="translate(964.102 480.614)">
        <g id="グループ_141" data-name="グループ 141">
          <g id="グループ_135" data-name="グループ 135" transform="translate(0 30.546)">
            <path id="パス_626" data-name="パス 626" d="M981.639,494.756c4.508-3.07,8.746-3.629,12.705-1.176,2.907,1.806,5.264,4.962,7.043,9.312a48.326,48.326,0,0,1,3.135,15.519c.481,9.141-.951,17.448-4.321,24.179a22.2,22.2,0,0,1-7.53,9.007,15.045,15.045,0,0,1-8.387,2.477c-6.309-.013-11.773-3-16.123-7.522a19.724,19.724,0,0,1-5.991-14.581c.005-4.6,1.189-9.3,3.447-14.768a68.916,68.916,0,0,1,7.2-13.216A36.3,36.3,0,0,1,981.639,494.756Zm-.377,1.961c-4.748,3.156-8.615,8.462-11.853,14.771-3.388,6.685-5.122,12.478-5.085,18.293a23.863,23.863,0,0,0,2.389,10.311,22.3,22.3,0,0,0,8.82,9.721,17.42,17.42,0,0,0,9.213,2.592c4.927-.072,9.085-2.442,12.414-7.757a32.955,32.955,0,0,0,4.083-10.517,49.656,49.656,0,0,0,1.039-13.2c-.4-7.586-1.964-14.146-4.639-19.134-2.26-4.275-5.1-6.707-8.473-7.244C986.675,494.165,984.035,494.945,981.262,496.717Z" transform="translate(-962.17 -492.046)" fill="#363636"/>
          </g>
          <g id="グループ_136" data-name="グループ 136" transform="translate(44.337 10.102)">
            <path id="パス_627" data-name="パス 627" d="M981.211,492.789q.056,1.723.109,3.452c.19,4.989.313,8.053.374,9.213,4.264-10.672,9.625-17.887,16.174-20.241,5.192-1.868,9.921-.558,14.092,4.112,1.758,1.972,3.762,5.288,5.977,10.031q-1.431.273-2.865.572a24.907,24.907,0,0,0-4.024-7.255c-4.2-5.211-8.735-6.835-13.478-5.162-6.541,2.309-11.738,10.052-15.679,21.713q.421,8.12.844,16.238.181,3.423,1.6,32.778c.088,2.039.259,4.582.508,7.661l-2.445.016q-.437-13.8-2.025-43.968-.858-16.381-1.614-28.014Q979.986,493.354,981.211,492.789Z" transform="translate(-978.763 -484.395)" fill="#363636"/>
          </g>
          <g id="グループ_137" data-name="グループ 137" transform="translate(86.312 0.291)">
            <path id="パス_628" data-name="パス 628" d="M1036.65,501.432a255.888,255.888,0,0,0-37.462,3.225,72.014,72.014,0,0,0-2.269,21.737c.374,11.4,2.466,21.133,6.2,29.539,2.33,5.245,4.925,9.026,7.786,11.279a17.083,17.083,0,0,0,10.969,3.4,34.581,34.581,0,0,0,14.482-3.022q.008,2.693.016,5.387h-4.329q-13.575,0-16.313-.366a11.691,11.691,0,0,1-5.552-2.547c-4.032-3.142-7.415-8.048-10.154-14.643a73.788,73.788,0,0,1-5.5-26.4,79.72,79.72,0,0,1,2.894-24.714,49.508,49.508,0,0,1,6.862-15.03c3.61-5.053,7.688-7.952,12.19-8.476,5.975-.695,11.276,2.814,15.76,10.391A62.145,62.145,0,0,1,1036.65,501.432Zm-3.733-2.311a27.531,27.531,0,0,0-2.985-6.712,22.375,22.375,0,0,0-6.723-7.011,11.326,11.326,0,0,0-7.492-1.983,13.213,13.213,0,0,0-8.689,5.149c-2.5,3.017-4.863,7.6-7.062,13.673A248.813,248.813,0,0,1,1032.917,499.12Z" transform="translate(-994.472 -480.723)" fill="#363636"/>
          </g>
          <g id="グループ_138" data-name="グループ 138" transform="translate(132.095)">
            <path id="パス_629" data-name="パス 629" d="M1014.358,480.638c-.011,5.157-.019,8.444-.021,9.895,0,.649-.005,1.2-.005,1.646-.016.975-.029,1.948-.045,2.923,0,.673,0,1.347,0,2.02,0,.147.011.649.032,1.5q4.317-9.844,9.072-14.066a13.429,13.429,0,0,1,10.827-3.548c5.526.628,10.012,3.685,13.43,8.8,3.861,5.758,5.9,13.331,6.191,22.712q.184,5.4-.572,29.139c-.468,17.416-.708,27.522-.73,30.37l-2.52-.008q.152-2.793.583-14.375.293-7.756.588-15.5.75-24.148.492-29.157c-.406-9.237-2.488-16.652-6.314-22.167-3.006-4.342-6.752-6.883-11.225-7.375-8.324-.927-15.06,6.084-19.907,20.564q-.008,3.307-.235,19.786-.02,31.01.152,46.52c.011.55.021,1.1.032,1.649h-2.554q.024-4.269.225-20,.064-6.373.077-17.315.02-34.237-.321-54.034Q1012.985,480.618,1014.358,480.638Z" transform="translate(-1011.606 -480.614)" fill="#363636"/>
          </g>
          <g id="グループ_139" data-name="グループ 139" transform="translate(177.82 10.977)">
            <path id="パス_630" data-name="パス 630" d="M1074.371,486.9q-.476,9.014-1.633,26.133-.389,6.124-.828,14.317c-.468,8.882-1.042,21.908-1.732,38.964h-1.918q-3.984.028-7.973.062h-6.421a39.074,39.074,0,0,1-8.072-.558,11.875,11.875,0,0,1-4.692-2.594q-5.339-4.573-8.671-13.994a72.841,72.841,0,0,1-3.658-26.654,70.807,70.807,0,0,1,3.471-20.12c2.183-6.565,5.077-11.434,8.636-14.48,3.9-3.329,8.123-4.059,12.617-2.378,6.159,2.311,11.158,8.289,15.1,16.847.644,1.392,1.432,3.292,2.381,5.641.177-2.469.329-4.818.446-7.03q.1-1.864.6-12.877.064-1.254.131-2.514Q1073.264,486.269,1074.371,486.9Zm-3.621,25.448a73.911,73.911,0,0,0-3.394-9.494c-3.514-7.658-8.112-12.981-13.854-15.081-4.23-1.547-8.185-.8-11.824,2.41-6.333,5.483-9.761,15.872-10.271,30.13a79.982,79.982,0,0,0,3.185,26.811c2.726,8.673,6.581,13.948,11.621,16.029a19.435,19.435,0,0,0,7.22,1.184c3.41.037,8.158-.152,14.247-.484.922-12.091,1.59-22.023,2-29.876Q1070.166,524.865,1070.751,512.346Z" transform="translate(-1028.719 -484.722)" fill="#363636"/>
          </g>
          <g id="グループ_140" data-name="グループ 140" transform="translate(225.78 27.078)">
            <path id="パス_631" data-name="パス 631" d="M1055.222,490.748q.637.377,1.269.762,4.189,2.569,8.27,5.357a105.173,105.173,0,0,1,9.446,7.043,24.4,24.4,0,0,1,3.586,4.1,34.93,34.93,0,0,1,4.753,8.932,37.86,37.86,0,0,1,1.726,12.171q0,1.707-.069,5.411c-.048,2.33-.072,3.987-.075,4.959-.005,6.509.075,11.931.264,16.206-.86-.008-1.721-.019-2.578-.024.085-.962.219-3.471.411-7.5a43,43,0,0,1-4.548,3.826,25.1,25.1,0,0,1-5.943,3.019,19.35,19.35,0,0,1-6.439,1.232c-4.444,0-8.489-1.729-12.08-5.782-4.839-5.411-6.977-13.363-6.477-22.886.486-9.32,3.233-16.294,8.064-19.725,4.035-2.848,8.468-2.549,13.291.326a30.572,30.572,0,0,1,7.254,6.159,94.557,94.557,0,0,1,7.054,9.561,31.5,31.5,0,0,0-2.269-9.448,27.5,27.5,0,0,0-4.048-6.854,36.147,36.147,0,0,0-7.156-6.338,53.739,53.739,0,0,0-13.895-6.835Q1055.131,492.585,1055.222,490.748Zm27.167,35.175a10.787,10.787,0,0,0-.732-1.144c-1.958-3.025-3.588-5.464-4.914-7.124a31.539,31.539,0,0,0-8.836-8.094c-3.009-1.726-5.889-2.359-8.646-1.7-3.458.855-6.116,3.794-7.936,8.644a37.2,37.2,0,0,0-2.042,10.881c-.441,8.494,1.195,15.674,4.965,20.807,3.2,4.422,7.057,6.384,11.538,6.458a18.749,18.749,0,0,0,11.321-3.88,40.121,40.121,0,0,0,5.135-4.876c.075-1.464.118-2.333.12-2.629q-.02-4.325-.037-8.663Q1082.357,530.261,1082.389,525.923Z" transform="translate(-1046.668 -490.748)" fill="#363636"/>
          </g>
        </g>
        <g id="グループ_150" data-name="グループ 150" transform="translate(0 124.41)">
          <g id="グループ_142" data-name="グループ 142" transform="translate(0 6.224)">
            <path id="パス_632" data-name="パス 632" d="M983.987,529.524c4.879.3,9.173,2.488,12.82,7.161a34.49,34.49,0,0,1,5.937,12.788,55.1,55.1,0,0,1,1.483,16.313c-.451,8.869-2.693,15.992-6.608,20.492-2.378,2.744-5.066,4.134-8.035,4.2a13.429,13.429,0,0,1-7.981-2.8c-5.758-4.038-10.33-10.7-14.079-18.37-3.516-7.281-5.347-13.336-5.355-19.2a18.477,18.477,0,0,1,3.728-11.658,22.484,22.484,0,0,1,8.224-6.8A19.575,19.575,0,0,1,983.987,529.524Zm-.556,1.593a17.31,17.31,0,0,0-13.312,4.986c-3.9,3.647-5.758,7.85-5.8,13.657a40.886,40.886,0,0,0,2.073,12.1,59.248,59.248,0,0,0,7.583,15.907,32.175,32.175,0,0,0,8.177,8.6c4.532,3.07,8.649,3.276,12.35.144a18.285,18.285,0,0,0,4.965-7.65,39.676,39.676,0,0,0,2.33-11.893,55.682,55.682,0,0,0-2.581-20.62c-1.779-5.323-4.321-9.285-7.621-11.952A15.3,15.3,0,0,0,983.432,531.117Z" transform="translate(-962.17 -529.503)" fill="#363636"/>
          </g>
          <g id="グループ_143" data-name="グループ 143" transform="translate(44.027 8.358)">
            <path id="パス_633" data-name="パス 633" d="M984.836,530.43q-.116,1.659-.238,3.319-.473,7.195-.559,8.882c5.2-8.008,11.011-12.433,17.43-12.2,5.085.182,9.422,2.955,13.034,8.663a59.176,59.176,0,0,1,4.986,11.289c-.935-.077-1.868-.16-2.8-.243a32.564,32.564,0,0,0-3.313-8.118c-3.615-6.258-7.738-9.307-12.406-9.521-6.407-.294-12.128,4.692-17.117,13.777q-.4,7.876-.8,15.751-.168,3.311-1.726,31.736c-.131,1.961-.219,4.449-.275,7.487-.8-.39-1.6-.78-2.4-1.176q.962-13.258,2.461-42.536.814-15.872,1.253-27.244Q983.6,530.37,984.836,530.43Z" transform="translate(-978.647 -530.302)" fill="#363636"/>
          </g>
          <g id="グループ_144" data-name="グループ 144" transform="translate(85.537)">
            <path id="パス_634" data-name="パス 634" d="M1000.365,537.256q-.682,9.755-1.895,38.21-.373,9.094-.751,18.178-.409,12.73-.818,25.457-.036,1.1-.077,2.21-1.323-.317-2.643-.649.036-.962.067-1.921c1.344-24.772,2.362-47.471,3.075-67.955q.181-5.21.436-13.6Zm.334-10.082q-.08,2.421-.157,4.839l-2.6-.035q.084-2.4.168-4.8Z" transform="translate(-994.182 -527.174)" fill="#363636"/>
          </g>
          <g id="グループ_145" data-name="グループ 145" transform="translate(94.318 9.506)">
            <path id="パス_635" data-name="パス 635" d="M1041.292,531.179q-.04,4.826-.24,19.158-.1,7.19-.094,31.108.02,6.473.045,12.946,0,10.393-.521,15.554a38.148,38.148,0,0,1-2.063,9.317c-1.579,4.326-3.933,7.4-7.06,9.144-3.115,1.721-7.458,2.4-12.97,1.777-.462-.059-2.961-.366-7.487-1.141q-3.219-.457-6.429-1.023c-.1-.019-.51-.115-1.213-.3q.068-2.654.136-5.307a39.68,39.68,0,0,0,16.828,5.5c6.661.676,11.591-1.8,14.715-7.027,2.279-3.8,3.541-9.162,3.8-16.038.024-1.023.067-2.653.118-4.9-5.125,12.07-11.645,17.9-19.321,17.152-6.05-.577-11.209-5.157-15.4-13.269a59.035,59.035,0,0,1-5.381-15.88,70.931,70.931,0,0,1-1.259-15.674,70.171,70.171,0,0,1,4.457-22.787c3.07-8.128,7.132-13.753,12.193-16.783a17.172,17.172,0,0,1,8.9-1.983q3.832.18,7.669.347C1033.075,531.134,1036.6,531.182,1041.292,531.179Zm-2.4,3.148a127.531,127.531,0,0,0-15.81-1.205,15.973,15.973,0,0,0-8.551,2.044q-7.427,4.525-11.177,16.115a70.3,70.3,0,0,0-3.287,19.749,67.585,67.585,0,0,0,5.777,30.416c3.789,8.326,8.446,12.925,13.881,13.43,7.768.735,14.266-6.378,19.215-21q0-1.5,0-3.006.008-5.852.011-11.7.008-8.778.019-17.553Q1038.992,542.149,1038.892,534.327Z" transform="translate(-997.468 -530.732)" fill="#363636"/>
          </g>
          <g id="グループ_146" data-name="グループ 146" transform="translate(143.395)">
            <path id="パス_636" data-name="パス 636" d="M1018.7,537.827q-.3,10.317-.345,40.471-.012,9.635-.027,19.276.1,13.471.214,26.948,0,1.17.013,2.338c-.9.04-1.809.072-2.712.1,0-.684-.008-1.368-.011-2.05q.541-39.864.363-72.586-.028-5.555-.112-14.485Q1017.393,537.834,1018.7,537.827Zm-.078-10.653q.02,2.557.037,5.111c-.868,0-1.734,0-2.6.005q-.016-2.557-.024-5.117Z" transform="translate(-1015.835 -527.174)" fill="#363636"/>
          </g>
          <g id="グループ_147" data-name="グループ 147" transform="translate(150.647 9.483)">
            <path id="パス_637" data-name="パス 637" d="M1021.122,531.843q.1,7.491.117,9.59c.008.628.016,1.17.021,1.617,0,.941,0,1.884.005,2.822l.024,1.964c0,.139.013.63.048,1.44,2.675-6.45,5.438-11.134,8.337-14.074a14,14,0,0,1,10.034-4.476,16.125,16.125,0,0,1,13.053,6.18c3.984,4.652,6.434,11.249,7.356,19.979q.545,5.01,1.416,27.485,1.11,24.682,1.374,28.676-1.307.373-2.618.727-.033-2.661-.364-13.659-.22-7.367-.444-14.726-.858-22.894-1.432-27.533c-.994-8.593-3.468-15.062-7.391-19.549-3.081-3.551-6.712-5.339-10.923-5.245-7.834.158-13.895,7.206-18.4,21.451q.036,3.19.045,19.2.4,30.085.81,45.112c.021.529.04,1.061.062,1.6-.917.075-1.833.142-2.747.206q0-4.16.027-19.452.012-6.192-.1-16.823-.353-33.255-.882-52.484C1019.407,531.856,1020.264,531.851,1021.122,531.843Z" transform="translate(-1018.549 -530.723)" fill="#363636"/>
          </g>
          <g id="グループ_148" data-name="グループ 148" transform="translate(198.245 8.096)">
            <path id="パス_638" data-name="パス 638" d="M1041.115,530.76l1.349-.048q4.461-.124,8.917-.275c5.622-.233,9.125-.3,10.5-.166a9.1,9.1,0,0,1,4.2,1.609,15.556,15.556,0,0,1,5.892,7.2c1.512,3.6,2.445,8.991,2.813,16.321q.129,2.605.345,8.286.2,5.367.315,7.583c.5,9.876,1.015,18.036,1.515,24.436-.826.462-1.651.919-2.485,1.368-.005-1.464-.08-5.267-.224-11.367a82.539,82.539,0,0,1-4.134,8.318,37.5,37.5,0,0,1-5.561,7.289,20.742,20.742,0,0,1-6.274,4.609c-4.446,1.945-8.748,1.314-12.844-2.154-5.536-4.652-8.548-13.093-9.013-24.438-.459-11.145,1.6-20.575,6.084-27.84,3.752-6.028,8.24-9.09,13.489-9.633a14.832,14.832,0,0,1,8.131,1.4,34.786,34.786,0,0,1,8.278,6.3c-.66-4.919-1.734-8.66-3.236-11.268a11.632,11.632,0,0,0-4.935-5.055c-1.892-.892-4.593-1.259-8.118-1.072a60.4,60.4,0,0,0-14.8,3.113C1041.249,533.771,1041.179,532.264,1041.115,530.76Zm31.447,21.807a5.346,5.346,0,0,0-.863-.927,35.834,35.834,0,0,0-5.793-5.189,14.129,14.129,0,0,0-18.913,2.02q-5.082,5.271-7.073,15.466a59.9,59.9,0,0,0-.927,13.945c.43,10.237,2.854,18.007,7.252,22.688,3.73,4.04,7.866,4.98,12.355,3.054,4.112-1.764,7.717-5.59,10.843-11.014a85.265,85.265,0,0,0,4.636-10.29c-.051-2.226-.083-3.546-.107-3.992q-.377-6.413-.751-12.834Q1072.889,559.029,1072.562,552.566Z" transform="translate(-1036.362 -530.204)" fill="#363636"/>
          </g>
          <g id="グループ_149" data-name="グループ 149" transform="translate(239.938)">
            <path id="パス_639" data-name="パス 639" d="M1054.486,527.174c.034,1.256.075,2.512.112,3.767q.189,5.1.382,10.207.337,7.295.673,14.595.433,9.291.863,18.595c.054,1.077.47,7.981,1.243,20.62q4.793-2.862,9.445-6a128.3,128.3,0,0,0,11.6-8.711c2.274-1.956,4.772-4.4,7.516-7.276v2.589c-.438.39-.882.78-1.325,1.165q-2.157,1.848-4.353,3.62-3.856,3.211-7.832,6.213-2.741,2.044-5.536,3.979-5.792,4.012-11.8,7.586c-.446-12.719-1.023-26.437-1.753-41.235q-.417-8.453-.836-14.768c-.457-7.423-.759-12.417-.914-14.947Z" transform="translate(-1051.966 -527.174)" fill="#363636"/>
          </g>
        </g>
      </g>
      <g id="グループ_152" data-name="グループ 152" transform="translate(961.015 591.692)">
        <rect id="長方形_32" data-name="長方形 32" width="277.375" height="2.004" fill="#363636"/>
      </g>
    </g>
    <rect id="長方形_938" data-name="長方形 938" width="400" height="350" transform="translate(1287 2632)" fill="none"/>
  </g>
</svg>
