<svg xmlns="http://www.w3.org/2000/svg" width="400" height="350" viewBox="0 0 400 350">
  <g id="logo_4" transform="translate(-716 -1184)">
    <rect id="長方形_21" data-name="長方形 21" width="400" height="350" transform="translate(716 1184)" fill="none"/>
    <g id="グループ_83" data-name="グループ 83" transform="translate(542.992 271.917)">
      <g id="グループ_91" data-name="グループ 91" transform="translate(206.008 940.083)">
        <path id="パス_444" data-name="パス 444" d="M279.417,989.81a4.79,4.79,0,0,0-4.359-.262c-2.769.963-4.152,1.438-6.921,2.369,1.162-3.776,1.743-5.666,2.9-9.446a1.227,1.227,0,0,0-.6-1.076,1.4,1.4,0,0,0-1.282-.167,2.959,2.959,0,0,0-1.707,1.941c-1.3,4.026-1.949,6.037-3.249,10.054-1.129.371-1.694.554-2.821.92a8.81,8.81,0,0,0-4.359,3.183,8.026,8.026,0,0,0-1.8,4.919v51.19a4.291,4.291,0,0,0,1.8,3.8,4.761,4.761,0,0,0,4.359.405c5.47-1.767,8.2-2.69,13.674-4.6a9.1,9.1,0,0,0,4.359-3.327,8.321,8.321,0,0,0,1.794-5V993.529A4.091,4.091,0,0,0,279.417,989.81Zm-1.963,56.244a3.439,3.439,0,0,1-1.034,2.5,3.517,3.517,0,0,1-1.371.823c-5.5,1.912-8.244,2.841-13.739,4.615a1.945,1.945,0,0,1-1.76-.164,1.711,1.711,0,0,1-.731-1.52v-23.67c7.453-2.371,11.18-3.634,18.635-6.257Zm0-27.433c-7.455,2.623-11.182,3.887-18.635,6.255v-23.757a3.241,3.241,0,0,1,.731-1.985,3.56,3.56,0,0,1,1.76-1.291c5.5-1.776,8.244-2.7,13.739-4.617a1.722,1.722,0,0,1,1.714.169,1.752,1.752,0,0,1,.691,1.469Z" transform="translate(-165.753 -906.502)" fill="#363636"/>
        <path id="パス_445" data-name="パス 445" d="M312.28,1036.544a18.85,18.85,0,0,1-3.663,11.2,21.041,21.041,0,0,1-9.707,7.479c-3.577,1.393-5.366,2.085-8.944,3.454a1.669,1.669,0,0,1-1.363.009,1.135,1.135,0,0,1-.594-1.142,2.389,2.389,0,0,1,.6-1.509,3.244,3.244,0,0,1,1.369-1.036c3.59-1.374,5.384-2.069,8.975-3.467a15.39,15.39,0,0,0,7.095-5.424,13.682,13.682,0,0,0,2.647-8.144v-47.5a1.8,1.8,0,0,0-.344-1.232q-.682-.758-2.134-.189c-8.238,3.234-12.359,4.844-20.6,7.968a72.154,72.154,0,0,1-4.7,12.536q-4.45,9.6-7.52,10.731-1.71.624-1.707-1.085a2.805,2.805,0,0,1,.6-1.671,52.04,52.04,0,0,0,11.28-30.832,2.9,2.9,0,0,1,.473-1.6,2.606,2.606,0,0,1,1.325-1.063,1.241,1.241,0,0,1,1.282.116,1.434,1.434,0,0,1,.513,1.185,42.219,42.219,0,0,1-.771,7.626c7.906-3,11.858-4.546,19.762-7.649a4.716,4.716,0,0,1,4.346.089,3.948,3.948,0,0,1,1.789,3.659Z" transform="translate(-152.294 -904.244)" fill="#363636"/>
        <path id="パス_446" data-name="パス 446" d="M289.3,1022.622a2.666,2.666,0,0,1-.513,1.4,2.54,2.54,0,0,1-1.2,1.064,1.291,1.291,0,0,1-1.794-.676c-2.6-8.711-3.9-13.07-6.493-21.8a2.471,2.471,0,0,1,1.707-2.525,1.249,1.249,0,0,1,1.069.018,1.708,1.708,0,0,1,.725.747C285.4,1009.565,286.7,1013.92,289.3,1022.622Z" transform="translate(-146.065 -891.101)" fill="#363636"/>
        <path id="パス_447" data-name="パス 447" d="M372.8,980.184a2.479,2.479,0,0,1-1.965,2.507c-11.9,3.828-17.844,5.948-29.742,10.349,2.619,5.3,6.908,10.029,12.863,14.285s11.836,6.726,17.649,7.426a1.221,1.221,0,0,1,1.111,1.269,2.284,2.284,0,0,1-1.885,2.227c-.275.02-.413.031-.687.053-6.393-.556-12.828-3.165-19.273-7.875A42.439,42.439,0,0,1,337.168,994.5l-1.114.418v34.852a2.9,2.9,0,0,1-.5,1.556,2.582,2.582,0,0,1-1.252,1.069c-.667.251-1.143.2-1.42-.147a1.776,1.776,0,0,1-.416-1.123V996.273l-1.2.454a117.836,117.836,0,0,1-13.588,26.1q-9.642,14.362-19.315,22.125l-.683.44a1.681,1.681,0,0,1-1.325.055.938.938,0,0,1-.556-.936,2.905,2.905,0,0,1,1.111-2.063q8.72-7.2,17.649-20.282,8.933-13.07,12.863-23.965c-11.861,4.548-17.793,6.919-29.655,11.6q-1.969.777-1.969-1.1a2.429,2.429,0,0,1,.6-1.521,3.328,3.328,0,0,1,1.369-1.051c13.879-5.479,20.818-8.264,34.7-13.525V972.259c-11.965,4.536-17.949,6.913-29.914,11.636a1.593,1.593,0,0,1-1.323-.033,1.085,1.085,0,0,1-.642-1.073,2.428,2.428,0,0,1,.6-1.518,3.322,3.322,0,0,1,1.365-1.052c11.965-4.723,17.949-7.1,29.914-11.636v-7.7a10.154,10.154,0,0,1,0-2.314c.147-.605.551-.629,1.138-.9.618-.287,2.158-1.329,2.434-.762a3.239,3.239,0,0,1,.016,1.014v9.313c11.963-4.494,17.946-6.67,29.909-10.636a1.621,1.621,0,0,1,1.325.118,1.106,1.106,0,0,1,.645,1.027,2.377,2.377,0,0,1-.6,1.565,3.056,3.056,0,0,1-1.371.965c-11.963,3.965-17.946,6.142-29.909,10.636v20.342c13.912-5.224,20.869-7.749,34.781-12.229a1.7,1.7,0,0,1,1.371.073A1.139,1.139,0,0,1,372.8,980.184Z" transform="translate(-132.573 -926.653)" fill="#363636"/>
        <path id="パス_448" data-name="パス 448" d="M411.742,1025.916a1.992,1.992,0,0,1-.554,1.378,2.161,2.161,0,0,1-1.412.7l-.6-.018c-15.135-2.847-26.528-8.451-34.181-18.368v23.5a2.518,2.518,0,0,1-.5,1.473,2.118,2.118,0,0,1-1.253.881,1.249,1.249,0,0,1-1.418-.338,1.96,1.96,0,0,1-.418-1.171v-23.5a85.031,85.031,0,0,1-14.359,18.586,113.326,113.326,0,0,1-19.827,15.477l-.6.278c-1.367.447-2.051.078-2.051-1.12a3.041,3.041,0,0,1,1.623-2.587,103.184,103.184,0,0,0,20.725-16.628A78.965,78.965,0,0,0,371.4,1004.05V971.827c-13.879,3.35-20.818,5.421-34.7,9.956a1.7,1.7,0,0,1-1.367-.062,1.2,1.2,0,0,1-.6-1.171,2.275,2.275,0,0,1,.6-1.481,3.008,3.008,0,0,1,1.367-.96c13.879-4.534,20.818-6.6,34.7-9.955v-7.113a2.539,2.539,0,0,1,.5-1.476,2.2,2.2,0,0,1,1.334-.911,1.279,1.279,0,0,1,1.253.3,1.634,1.634,0,0,1,.5,1.238v7.113a245.668,245.668,0,0,1,34.7-5.961,1.94,1.94,0,0,1,1.413.32,1.477,1.477,0,0,1,.558,1.271,1.742,1.742,0,0,1-.687,1.52,2.719,2.719,0,0,1-1.283.562,245.651,245.651,0,0,0-34.7,5.961v32.307a39.946,39.946,0,0,0,14.392,13.55,62.781,62.781,0,0,0,20.731,7.279A1.749,1.749,0,0,1,411.742,1025.916Z" transform="translate(-100.865 -924.933)" fill="#363636"/>
        <path id="パス_449" data-name="パス 449" d="M367.872,990.611a1.7,1.7,0,0,1-.513,1.156,2.425,2.425,0,0,1-1.2.729c-2.28.58-5.185-.544-8.631-3.341a23.743,23.743,0,0,1-6.237-7.022,39.9,39.9,0,0,1-13.5,18.358l-.6.28c-1.2.387-1.794.1-1.794-.869a2.293,2.293,0,0,1,1.111-2.071c8.546-6.659,12.818-14.745,12.818-24.6a2.694,2.694,0,0,1,.5-1.516,2.375,2.375,0,0,1,1.334-.992,1.237,1.237,0,0,1,1.252.233,1.562,1.562,0,0,1,.5,1.222c-.067,1.525-.1,2.287-.169,3.812a17.462,17.462,0,0,0,5.214,9.031,16.184,16.184,0,0,0,8.631,4.037C367.445,989.066,367.872,989.588,367.872,990.611Z" transform="translate(-100.189 -915.085)" fill="#363636"/>
        <path id="パス_450" data-name="パス 450" d="M390.863,987.613c0,.969-.571,1.513-1.711,1.64-2.28.254-5.183-1.274-8.631-4.527a28.9,28.9,0,0,1-6.237-7.826,30.919,30.919,0,0,1-5.375,9.289,40.724,40.724,0,0,1-8.2,7.5l-.6.216q-1.808.393-1.805-1.058a2.035,2.035,0,0,1,1.118-1.954c8.6-5.755,12.9-13.287,12.9-23.145a2.428,2.428,0,0,1,.5-1.456,2.013,2.013,0,0,1,1.334-.825,1.339,1.339,0,0,1,1.253.389,1.776,1.776,0,0,1,.5,1.285c-.067,1.516-.1,2.274-.169,3.79a20.149,20.149,0,0,0,13.845,14.937C390.436,986.006,390.863,986.59,390.863,987.613Z" transform="translate(-81.457 -919.339)" fill="#363636"/>
        <path id="パス_451" data-name="パス 451" d="M291.736,1037.8a2.26,2.26,0,0,1-1.881,2.211c-1.765.553-4.641-.338-8.546-2.756a37.543,37.543,0,0,1-7.264-5.659,53.731,53.731,0,0,1-7.562,8.758,89.508,89.508,0,0,1-10.642,8.862,9.181,9.181,0,0,1-3.507,1.631,1.418,1.418,0,0,1-1.28-.38,1.658,1.658,0,0,1-.6-1.3,2.085,2.085,0,0,1,.427-1.209,2.808,2.808,0,0,1,1.025-.818,54.434,54.434,0,0,0,10.682-7.74,71.659,71.659,0,0,0,9.233-10.358,47.239,47.239,0,0,1-7.011-13.132,45.115,45.115,0,0,1-2.561-15.01,265.178,265.178,0,0,1-27.179,5.419v19.007q3.867-1.7,7.431-3.674a62.1,62.1,0,0,0,6.913-4.447l.858-.345c1.2-.247,1.807.165,1.807,1.251a3.21,3.21,0,0,1-1.634,2.4,79.06,79.06,0,0,1-8.246,4.924c-2.97,1.592-5.355,2.763-7.13,3.488v16.87a9.164,9.164,0,0,1-2.383,6.172,8.894,8.894,0,0,1-5.784,3.165c-3.129.378-4.694.543-7.822.823a1.874,1.874,0,0,1-1.362-.395,1.576,1.576,0,0,1-.6-1.318,1.757,1.757,0,0,1,.6-1.331,2.226,2.226,0,0,1,1.367-.633c3.11-.278,4.665-.443,7.775-.82a5.047,5.047,0,0,0,3.165-1.86,5.111,5.111,0,0,0,1.451-3.374v-15.961c-2.734.893-5.241,1.6-7.52,2.13a48.972,48.972,0,0,1-7.348,1.122,1.9,1.9,0,0,1-1.367-.411,1.58,1.58,0,0,1-.6-1.323,1.74,1.74,0,0,1,.6-1.325,2.21,2.21,0,0,1,1.367-.616,52.622,52.622,0,0,0,7.219-1.107,73.159,73.159,0,0,0,7.65-2.145v-19.742c-5.946.825-8.92,1.156-14.868,1.627a1.9,1.9,0,0,1-1.367-.409,1.588,1.588,0,0,1-.6-1.325,1.736,1.736,0,0,1,.6-1.323,2.2,2.2,0,0,1,1.367-.618c5.948-.469,8.922-.8,14.868-1.627V989.828a67.908,67.908,0,0,1-7.391,2.114,53.8,53.8,0,0,1-7.564,1.145,1.809,1.809,0,0,1-1.367-3.145,2.091,2.091,0,0,1,1.282-.611,63,63,0,0,0,17.308-3.93,66.158,66.158,0,0,0,15.852-8.6c.344-.173.514-.258.856-.433a1.572,1.572,0,0,1,1.194.182,1.1,1.1,0,0,1,.514,1,3.4,3.4,0,0,1-1.547,2.458,58.179,58.179,0,0,1-8.244,5.1,64.137,64.137,0,0,1-7.3,3.43v14.1a265.661,265.661,0,0,0,27.179-5.417v-22.91a2.232,2.232,0,0,1,1.836-2.412,1.265,1.265,0,0,1,1.253.284,1.619,1.619,0,0,1,.5,1.238v22.91c9.5-2.4,14.252-3.781,23.752-6.75a1.832,1.832,0,0,1,1.416.024,1.177,1.177,0,0,1,.558,1.149,2.2,2.2,0,0,1-.687,1.672,3.472,3.472,0,0,1-1.287.831c-9.5,2.969-14.25,4.345-23.752,6.75a41.4,41.4,0,0,0,2.418,14.164,39.183,39.183,0,0,0,6.215,11.067,90.561,90.561,0,0,0,5.855-11.065,68.244,68.244,0,0,0,3.887-11.232,3.23,3.23,0,0,1,.725-1.289,2.823,2.823,0,0,1,1.327-.874,1.421,1.421,0,0,1,1.28.122,1.464,1.464,0,0,1,.514,1.294c0,1.6-1.382,5.577-4.145,11.9s-5.172,10.883-7.222,13.685a30.66,30.66,0,0,0,14.1,8.531A1.558,1.558,0,0,1,291.736,1037.8ZM287.8,983.049a2.216,2.216,0,0,1-.467,1.378,2.28,2.28,0,0,1-1.156.822,1.334,1.334,0,0,1-1.794-.647c-2.221-5.97-3.332-8.962-5.553-14.961a2.36,2.36,0,0,1,.513-1.253,2.231,2.231,0,0,1,1.194-.944,1.242,1.242,0,0,1,1.625.8C284.419,974.182,285.546,977.141,287.8,983.049Z" transform="translate(-199.011 -917.765)" fill="#363636"/>
        <path id="パス_452" data-name="パス 452" d="M319.013,1030.4q0,16.045-4.1,28.3c.8-.023,1.194.444,1.194,1.415v44.292a2.912,2.912,0,0,1-.5,1.562,2.6,2.6,0,0,1-1.251,1.083c-.669.26-1.14.216-1.42-.131a1.755,1.755,0,0,1-.416-1.118v-41.05a74.938,74.938,0,0,1-4.87,8.475q-2.312,3.384-3.592,3.886a1.55,1.55,0,0,1-1.24.018.865.865,0,0,1-.554-.847,2.571,2.571,0,0,1,.683-1.889,50.545,50.545,0,0,0,9.531-18.546,90.349,90.349,0,0,0,2.947-24.319,2.509,2.509,0,0,1,.482-1.336,2.588,2.588,0,0,1,1.271-1.051,1.294,1.294,0,0,1,1.313.091A1.363,1.363,0,0,1,319.013,1030.4Z" transform="translate(-127.289 -867.347)" fill="#363636"/>
        <path id="パス_453" data-name="パス 453" d="M341.856,1021.34a1.619,1.619,0,0,0-1.332-.089c-4.337,1.522-6.5,2.3-10.84,3.888v-13.687a1.434,1.434,0,0,0-.5-1.174,1.2,1.2,0,0,0-1.254-.136,2.584,2.584,0,0,0-1.836,2.634v13.687c-4.308,1.6-6.461,2.41-10.767,4.054a3.23,3.23,0,0,0-1.367,1.033,2.392,2.392,0,0,0-.6,1.514q0,1.876,1.969,1.125c4.307-1.643,6.459-2.456,10.767-4.054v16.411c-1.369.505-2.052.762-3.419,1.272a9.439,9.439,0,0,0-4.356,3.436,8.518,8.518,0,0,0-1.8,5.043v26.922a4.053,4.053,0,0,0,1.745,3.738,4.814,4.814,0,0,0,4.387.1c4.154-1.556,6.232-2.323,10.387-3.827a9.272,9.272,0,0,0,4.343-3.352,8.351,8.351,0,0,0,1.789-4.992v-26.924a4.109,4.109,0,0,0-1.794-3.723,4.743,4.743,0,0,0-4.361-.231c-1.332.482-2,.725-3.33,1.212v-16.41c4.336-1.587,6.5-2.367,10.84-3.888a3.142,3.142,0,0,0,1.376-.993,2.421,2.421,0,0,0,.6-1.576A1.077,1.077,0,0,0,341.856,1021.34Zm-8.771,26.406q1.464-.529,2.15.249a1.861,1.861,0,0,1,.344,1.243v26.924a3.382,3.382,0,0,1-.731,2.014,3.8,3.8,0,0,1-1.763,1.362c-4.194,1.516-6.29,2.291-10.484,3.861a2,2,0,0,1-1.8-.005,1.655,1.655,0,0,1-.687-1.536v-26.922a3.188,3.188,0,0,1,.773-2,4.025,4.025,0,0,1,1.718-1.329C326.8,1050.037,328.891,1049.262,333.085,1047.746Z" transform="translate(-118.214 -882.877)" fill="#363636"/>
        <path id="パス_454" data-name="パス 454" d="M359.336,1071.554a2.332,2.332,0,0,1-.427,1.32,2.093,2.093,0,0,1-1.2.856c-1.251.364-3.568-1.251-6.921-4.779a52.138,52.138,0,0,1-5.9-7.137q-2.051,4.139-6.241,10.953c-3.634,5.9-6.037,9.084-7.177,9.474s-1.711.027-1.711-1.1a2.166,2.166,0,0,1,.6-1.563q4.017-5.71,7.219-10.92a110.6,110.6,0,0,0,5.428-9.827,66.137,66.137,0,0,1-4.1-10.029c-1.583-4.708-2.392-8.235-2.392-10.571a2.852,2.852,0,0,1,.556-1.6,2.434,2.434,0,0,1,1.151-1.025c1.029-.34,1.6-.013,1.712.974a87.869,87.869,0,0,0,2.134,9.729,49.454,49.454,0,0,0,2.9,7.7,85.965,85.965,0,0,0,5.3-18.918,138.419,138.419,0,0,0,1.623-22.118c-4.581,1.387-6.871,2.112-11.454,3.61-.8,3.737-1.869,7.815-3.245,12.185-2.083,6.615-3.9,10.2-5.386,10.707-1.082.371-1.623-.009-1.623-1.149l.256-1.2a86.4,86.4,0,0,0,5.726-16.308,105.761,105.761,0,0,0,2.394-14.474,3.223,3.223,0,0,1,.556-1.334,2.322,2.322,0,0,1,1.24-.964,1.261,1.261,0,0,1,1.28.18,1.49,1.49,0,0,1,.514,1.2c-.376,2.89-.565,4.338-.942,7.229,6.426-2.092,9.64-3.092,16.066-4.955a1.807,1.807,0,0,1,1.411.062,1.215,1.215,0,0,1,.558,1.165,2.111,2.111,0,0,1-.7,1.652,3.52,3.52,0,0,1-1.312.805c-.7.2-1.051.305-1.751.511a135.9,135.9,0,0,1-1.987,24.563,95.841,95.841,0,0,1-6.557,21.112,51.741,51.741,0,0,0,11.792,12.781A1.384,1.384,0,0,1,359.336,1071.554Z" transform="translate(-104.794 -887.843)" fill="#363636"/>
        <path id="パス_455" data-name="パス 455" d="M419.774,1083.165c0,1.252-.656,1.9-1.969,1.96-29.193,1.285-43.79,4.676-72.985,13.268q-1.969.578-1.967-1.3a2.186,2.186,0,0,1,.6-1.46,2.865,2.865,0,0,1,1.367-.918,316.068,316.068,0,0,1,34.7-8.575v-29.231a311.351,311.351,0,0,0-32.219,7.853q-1.971.567-1.969-1.305a2.194,2.194,0,0,1,.6-1.46,2.851,2.851,0,0,1,1.369-.907,311.289,311.289,0,0,1,32.219-7.853V1026.4a316.419,316.419,0,0,0-34.7,8.573c-1.312.387-1.967-.042-1.967-1.3a2.182,2.182,0,0,1,.6-1.46,2.882,2.882,0,0,1,1.367-.92,317.288,317.288,0,0,1,34.185-8.473c-.58-2.287-.871-3.43-1.451-5.715a2.025,2.025,0,0,1,1.794-2.216,1.455,1.455,0,0,1,.854.087,1.88,1.88,0,0,1,.854.94c.751,2.461,1.127,3.692,1.88,6.161a214.372,214.372,0,0,1,34.868-4.05,1.944,1.944,0,0,1,1.367.458,1.556,1.556,0,0,1,.6,1.258c0,1.256-.658,1.9-1.972,1.96a214.387,214.387,0,0,0-34.694,4.018v26.837a216.388,216.388,0,0,1,32.216-3.9,1.944,1.944,0,0,1,1.371.438,1.546,1.546,0,0,1,.6,1.256,1.8,1.8,0,0,1-1.971,1.978,216.678,216.678,0,0,0-32.216,3.9v29.231a214.159,214.159,0,0,1,34.694-4.019,1.964,1.964,0,0,1,1.372.458A1.56,1.56,0,0,1,419.774,1083.165Z" transform="translate(-94.09 -878.919)" fill="#363636"/>
        <g id="グループ_90" data-name="グループ 90" transform="translate(1.297 137.98)">
          <path id="パス_456" data-name="パス 456" d="M338.885,1085.464a2.494,2.494,0,0,1-1.881,2.358c-1.765.694-4.641.04-8.544-1.982a33.692,33.692,0,0,1-7.266-4.861,67.169,67.169,0,0,1-7.562,9.727,131.546,131.546,0,0,1-10.642,10.462,11.739,11.739,0,0,1-3.5,2.218,1.294,1.294,0,0,1-1.282-.158,1.37,1.37,0,0,1-.6-1.2,2.564,2.564,0,0,1,.427-1.285,3.778,3.778,0,0,1,1.023-.994,73.447,73.447,0,0,0,10.683-9.449,92.12,92.12,0,0,0,9.231-11.609,40.392,40.392,0,0,1-7.01-12.2,41.958,41.958,0,0,1-2.561-14.639c-10.873,4.245-16.308,6.349-27.18,10.329v19.007q3.867-2.528,7.431-5.194a88.9,88.9,0,0,0,6.915-5.743c.342-.2.514-.3.856-.5q1.805-.69,1.807.936a3.988,3.988,0,0,1-1.632,2.68c-1.767,1.594-4.548,3.75-8.248,6.461-2.972,2.179-5.353,3.848-7.13,4.953v16.87a11.23,11.23,0,0,1-2.381,6.688,12.145,12.145,0,0,1-5.784,4.474c-3.13,1.11-4.694,1.658-7.824,2.728a1.675,1.675,0,0,1-1.36-.049,1.194,1.194,0,0,1-.6-1.165,2.294,2.294,0,0,1,.6-1.485,3.071,3.071,0,0,1,1.369-.98c3.109-1.063,4.665-1.607,7.775-2.71a6.953,6.953,0,0,0,3.165-2.587,6.413,6.413,0,0,0,1.451-3.7v-15.961q-4.1,2.252-7.522,3.874a66.423,66.423,0,0,1-7.348,2.956,1.684,1.684,0,0,1-1.367-.052,1.189,1.189,0,0,1-.6-1.167,2.269,2.269,0,0,1,.6-1.482,3.064,3.064,0,0,1,1.367-.974,72.346,72.346,0,0,0,7.22-2.91q3.8-1.761,7.649-3.919V1063.49c-5.948,2.149-8.922,3.2-14.87,5.206a1.7,1.7,0,0,1-1.367-.053,1.194,1.194,0,0,1-.6-1.167,2.265,2.265,0,0,1,.6-1.482,3.037,3.037,0,0,1,1.367-.974c5.948-2.009,8.922-3.058,14.87-5.206v-13.332q-3.676,2.094-7.393,3.827a74.057,74.057,0,0,1-7.562,3.034,1.487,1.487,0,0,1-1.369-.14,1.314,1.314,0,0,1-.6-1.169,2.278,2.278,0,0,1,.6-1.48,2.9,2.9,0,0,1,1.282-.943,91.137,91.137,0,0,0,17.31-8.053,96.794,96.794,0,0,0,15.85-11.738c.344-.233.514-.349.858-.583a1.511,1.511,0,0,1,1.194-.027.9.9,0,0,1,.513.914,4.158,4.158,0,0,1-1.547,2.727,79.37,79.37,0,0,1-8.244,6.63c-3.034,2.2-5.47,3.857-7.3,4.926v14.1c10.873-3.983,16.308-6.086,27.18-10.331v-20.794c0-2.361,2.525-5.106,3.588-3.081.74,1.411,0,5.4,0,7.231v15.241c9.5-3.725,14.25-5.621,23.75-9.36a1.835,1.835,0,0,1,1.416-.089,1.085,1.085,0,0,1,.558,1.107,2.378,2.378,0,0,1-.685,1.725,3.911,3.911,0,0,1-1.289.933c-9.5,3.739-14.25,5.635-23.75,9.36a38.674,38.674,0,0,0,2.418,13.838,33.743,33.743,0,0,0,6.213,10.287,105.662,105.662,0,0,0,5.855-11.714,77.9,77.9,0,0,0,3.888-11.616,3.585,3.585,0,0,1,.725-1.356,3.174,3.174,0,0,1,1.325-.994,1.4,1.4,0,0,1,1.282.009,1.345,1.345,0,0,1,.513,1.251q0,2.394-4.145,12.272a88.515,88.515,0,0,1-7.222,14.434,28.532,28.532,0,0,0,14.1,7.189A1.42,1.42,0,0,1,338.885,1085.464Zm-3.932-54.43a2.388,2.388,0,0,1-.469,1.418,2.592,2.592,0,0,1-1.156.924q-1.279.5-1.794-.484l-5.553-14.4a2.625,2.625,0,0,1,.514-1.307,2.57,2.57,0,0,1,1.194-1.069,1.137,1.137,0,0,1,1.623.636C331.568,1022.463,332.7,1025.319,334.953,1031.034Z" transform="translate(-161.748 -1015.986)" fill="#363636"/>
          <g id="グループ_89" data-name="グループ 89" transform="translate(0 34.022)">
            <g id="グループ_88" data-name="グループ 88">
              <g id="グループ_83-2" data-name="グループ 83" transform="translate(0 19.577)">
                <path id="パス_457" data-name="パス 457" d="M224.088,1064.717c.129.86-.109,1.407-.685,1.578a.961.961,0,0,1-1.371-.871c-.729-1.772-1.094-2.659-1.823-4.437-3.739.253-5.61.344-9.349.442-.74,1.847-1.109,2.769-1.847,4.608-.2.729-.593,1.016-1.176.887-.644-.142-.947-.607-.88-1.4,2.936-7.29,4.4-10.962,7.34-18.349q.393-1.432,1.272-1.473t1.371,1.345C219.8,1054.159,221.229,1057.691,224.088,1064.717Zm-8.518-15.1c-1.531,3.857-2.3,5.781-3.828,9.613,3.041-.093,4.563-.166,7.6-.36C217.835,1055.179,217.081,1053.328,215.57,1049.614Z" transform="translate(-206.536 -1045.286)" fill="#363636"/>
                <path id="パス_458" data-name="パス 458" d="M223.248,1066.951a1.3,1.3,0,0,1-.823-.176,1.463,1.463,0,0,1-.613-1.067c-.678-1.64-1.018-2.461-1.7-4.107-3.518.235-5.275.318-8.793.416-.7,1.743-1.047,2.614-1.745,4.352a1.319,1.319,0,0,1-1.654,1.14,1.528,1.528,0,0,1-1.192-1.836.4.4,0,0,1,.029-.118c2.938-7.286,4.4-10.953,7.342-18.337.3-1.107.862-1.707,1.652-1.745s1.371.5,1.76,1.6c2.856,7.1,4.285,10.629,7.141,17.644a.377.377,0,0,1,.024.089c.229,1.423-.536,1.929-.993,2.063A2.229,2.229,0,0,1,223.248,1066.951Zm-12.2-5.748c3.739-.1,5.61-.189,9.349-.442a.376.376,0,0,1,.382.234c.729,1.776,1.094,2.663,1.823,4.434.071.367.162.553.3.638a.781.781,0,0,0,.616.015c.127-.036.482-.158.36-1.04-2.852-7.013-4.277-10.542-7.13-17.641-.525-1.492-1.449-1.478-1.865.046-2.934,7.39-4.4,11.058-7.333,18.348-.04.687.253.841.565.912.207.046.5.115.689-.585.747-1.858,1.12-2.788,1.865-4.654A.423.423,0,0,1,211.045,1061.2Zm8.486-1.74c-3.041.195-4.563.267-7.6.36a.4.4,0,0,1-.342-.171.411.411,0,0,1-.04-.383c1.532-3.828,2.3-5.75,3.83-9.606a.439.439,0,0,1,.38-.274h0a.386.386,0,0,1,.38.242c1.511,3.712,2.265,5.561,3.776,9.245a.423.423,0,0,1-.042.385A.442.442,0,0,1,219.531,1059.463Zm-7-.482c2.556-.083,3.832-.145,6.388-.3-1.269-3.1-1.9-4.659-3.172-7.779C214.466,1054.142,213.823,1055.758,212.536,1058.981Z" transform="translate(-206.721 -1045.471)" fill="#363636"/>
              </g>
              <g id="グループ_84" data-name="グループ 84" transform="translate(19.686 16.646)">
                <path id="パス_459" data-name="パス 459" d="M233.049,1046.487a6.626,6.626,0,0,1,.98-1.729,1.715,1.715,0,0,1,.98-.647q1.271-.207,1.371,1.409v18.38a1.254,1.254,0,0,1-.98,1.358c-.514.08-.914-.324-.98-1.038v-16.208c-2.467,6.79-3.7,10.171-6.168,16.9a4.348,4.348,0,0,1-.538,1,.94.94,0,0,1-.636.358.721.721,0,0,1-.636-.189,3.053,3.053,0,0,1-.538-.856c-2.467-6.081-3.7-9.137-6.168-15.277v16.208a1.166,1.166,0,0,1-.978,1.3c-.578.054-.98-.378-.98-1.1v-18.38q.1-1.641,1.371-1.769a1.216,1.216,0,0,1,1.027.385,5.454,5.454,0,0,1,.931,1.478c2.389,5.875,3.583,8.8,5.972,14.619C229.466,1056.23,230.66,1052.993,233.049,1046.487Z" transform="translate(-217.366 -1043.672)" fill="#363636"/>
                <path id="パス_460" data-name="パス 460" d="M235.631,1065.844c-.551.033-1.327-.122-1.436-1.338,0-5.615,0-8.422,0-14.037-2.149,5.914-3.223,8.859-5.374,14.728a4.816,4.816,0,0,1-.616,1.138,1.328,1.328,0,0,1-1.885.245,3.434,3.434,0,0,1-.607-.954c-2.152-5.306-3.228-7.973-5.381-13.327v14a1.619,1.619,0,0,1-1.343,1.741,1.3,1.3,0,0,1-1.436-1.467v-18.38c.107-1.793,1.162-2.156,1.782-2.218a1.585,1.585,0,0,1,1.334.493,5.653,5.653,0,0,1,1,1.571c2.24,5.5,3.358,8.242,5.6,13.7,2.236-6.037,3.354-9.068,5.588-15.15l.009-.022a7.072,7.072,0,0,1,1.065-1.867,2.2,2.2,0,0,1,1.269-.811c.618-.1,1.672-.013,1.781,1.725v18.406A1.749,1.749,0,0,1,235.631,1065.844Zm-1.027-18.057a.535.535,0,0,1,.076-.005.335.335,0,0,1,.334.351v16.208c.058.62.345.7.62.689.271-.087.518-.278.518-.874v-18.382c-.067-1.063-.522-1.136-.96-1.065a1.267,1.267,0,0,0-.689.478,6.225,6.225,0,0,0-.891,1.585c-2.387,6.5-3.581,9.744-5.968,16.193-.125.338-.642.405-.767.1-2.389-5.825-3.583-8.749-5.972-14.628a5.111,5.111,0,0,0-.851-1.358.844.844,0,0,0-.724-.284c-.438.045-.894.236-.96,1.343V1066.5c0,.6.245.725.614.731.276-.069.522-.245.522-.844v-16.206a.467.467,0,0,1,.336-.44.376.376,0,0,1,.458.211c2.467,6.137,3.7,9.191,6.168,15.268a2.658,2.658,0,0,0,.458.736.466.466,0,0,0,.663-.083,3.91,3.91,0,0,0,.469-.882c2.463-6.72,3.7-10.1,6.159-16.875A.515.515,0,0,1,234.6,1047.788Z" transform="translate(-217.551 -1043.859)" fill="#363636"/>
              </g>
              <g id="グループ_85" data-name="グループ 85" transform="translate(40.734 10.992)">
                <path id="パス_461" data-name="パス 461" d="M230.241,1045.64c.514-.147.945.158,1.076.785,1.605,6.235,2.409,9.346,4.014,15.557,1.92-6.728,2.878-10.1,4.8-16.859.195-.693.522-1.091.978-1.189s.783.158.98.767c1.918,5.846,2.878,8.762,4.8,14.581,1.605-6.815,2.407-10.225,4.012-17.058a1.409,1.409,0,0,1,1.078-1.245c.576-.076.947.311.88.978-1.956,8.062-2.936,12.085-4.894,20.118-.195.7-.524,1.1-.978,1.209s-.783-.216-.98-.969c-1.958-5.99-2.938-8.991-4.9-15.008-1.918,6.851-2.878,10.271-4.8,17.091-.26.851-.62,1.322-1.074,1.411-.523.1-.882-.153-1.078-.771-1.92-7.2-2.878-10.811-4.8-18.044A1.219,1.219,0,0,1,230.241,1045.64Z" transform="translate(-228.948 -1040.567)" fill="#363636"/>
                <path id="パス_462" data-name="パス 462" d="M247.164,1063.876c-.669.157-1.134-.243-1.38-1.193-1.8-5.5-2.7-8.249-4.492-13.772-1.763,6.3-2.645,9.438-4.408,15.708-.322,1.058-.814,1.654-1.467,1.782a1.2,1.2,0,0,1-1.471-.987c-1.921-7.211-2.881-10.825-4.8-18.069a1.726,1.726,0,0,1,1.189-1.907.407.407,0,0,1,.091-.027,1.18,1.18,0,0,1,1.48,1.042c1.46,5.67,2.19,8.5,3.65,14.15,1.745-6.121,2.618-9.188,4.363-15.334.316-1.116.92-1.465,1.372-1.563s1.056-.007,1.372.974c1.745,5.315,2.62,7.966,4.365,13.257,1.462-6.2,2.192-9.311,3.654-15.533a1.974,1.974,0,0,1,1.476-1.654c.951-.031,1.376.444,1.289,1.329-1.961,8.088-2.941,12.127-4.9,20.187C248.222,1063.407,247.616,1063.771,247.164,1063.876Zm-5.875-16.8a.325.325,0,0,1,.394.209c1.958,6.015,2.936,9.015,4.894,15,.105.4.287.84.587.769.1-.024.38-.087.585-.823,1.956-8.024,2.934-12.043,4.888-20.1.035-.389-.124-.558-.573-.551-.193.058-.469.207-.583.8-1.607,6.842-2.41,10.258-4.017,17.082a.555.555,0,0,1-.387.4l-.011,0a.318.318,0,0,1-.393-.2c-1.92-5.819-2.879-8.737-4.8-14.585-.205-.642-.48-.583-.585-.562s-.378.082-.585.813c-1.918,6.76-2.878,10.134-4.8,16.866a.534.534,0,0,1-.394.369l-.011,0a.325.325,0,0,1-.387-.234c-1.607-6.215-2.409-9.327-4.016-15.562-.111-.538-.365-.593-.633-.555a.723.723,0,0,0-.516.836c1.914,7.21,2.872,10.806,4.786,17.982.2.629.536.563.68.536.336-.067.573-.683.685-1.051,1.916-6.815,2.876-10.231,4.794-17.075a.538.538,0,0,1,.391-.376Z" transform="translate(-229.129 -1040.748)" fill="#363636"/>
              </g>
              <g id="グループ_86" data-name="グループ 86" transform="translate(65.787 8.131)">
                <path id="パス_463" data-name="パス 463" d="M260.277,1056.57a1.488,1.488,0,0,1-.685,1.725c-.754.387-1.24.189-1.371-.573-.729-1.612-1.092-2.42-1.823-4.036-3.739,1.085-5.608,1.607-9.349,2.6-.738,2.024-1.107,3.034-1.847,5.054-.2.776-.594,1.16-1.174,1.174-.645.016-.947-.373-.882-1.187,2.936-8.015,4.4-12.038,7.342-20.112q.393-1.522,1.272-1.767t1.371,1.032C255.989,1046.943,257.42,1050.159,260.277,1056.57Zm-8.517-13.2c-1.532,4.212-2.3,6.313-3.83,10.511,3.041-.816,4.563-1.24,7.6-2.116C254.026,1048.41,253.27,1046.73,251.761,1043.365Z" transform="translate(-242.727 -1038.982)" fill="#363636"/>
                <path id="パス_464" data-name="パス 464" d="M259.437,1059.033a1.214,1.214,0,0,1-.823,0,1.119,1.119,0,0,1-.613-.932c-.678-1.491-1.016-2.238-1.694-3.73-3.518,1.016-5.277,1.507-8.795,2.445-.7,1.91-1.047,2.865-1.745,4.772a1.737,1.737,0,0,1-1.652,1.543c-.476.007-1.305-.162-1.192-1.542a.473.473,0,0,1,.029-.125c2.936-8.013,4.4-12.034,7.34-20.106a2.632,2.632,0,0,1,1.654-2.128c.78-.216,1.371.184,1.758,1.2,2.858,6.451,4.285,9.666,7.142,16.068a.419.419,0,0,1,.024.082,2.011,2.011,0,0,1-.994,2.278A2.715,2.715,0,0,1,259.437,1059.033Zm-12.2-2.963c3.741-.994,5.61-1.516,9.349-2.6a.3.3,0,0,1,.384.149c.729,1.616,1.093,2.421,1.823,4.034.069.351.162.518.3.573a.828.828,0,0,0,.616-.118c.129-.071.482-.262.36-1.118-2.852-6.4-4.279-9.609-7.13-16.055-.527-1.371-1.451-1.144-1.865.476-2.934,8.071-4.4,12.092-7.333,20.1-.04.7.249.78.564.772.209-.005.5-.007.691-.754.745-2.04,1.118-3.06,1.863-5.1A.591.591,0,0,1,247.234,1056.07Zm8.486-3.707c-3.041.876-4.563,1.3-7.6,2.116a.318.318,0,0,1-.34-.089.383.383,0,0,1-.04-.375c1.532-4.194,2.3-6.3,3.83-10.505a.594.594,0,0,1,.38-.364h0a.306.306,0,0,1,.38.155c1.511,3.363,2.265,5.041,3.776,8.391a.446.446,0,0,1-.042.393A.6.6,0,0,1,255.719,1052.364Zm-6.993,1.131c2.554-.691,3.832-1.045,6.388-1.778-1.269-2.818-1.9-4.228-3.172-7.055C250.655,1048.2,250.011,1049.966,248.726,1053.495Z" transform="translate(-242.911 -1039.175)" fill="#363636"/>
              </g>
              <g id="グループ_87" data-name="グループ 87" transform="translate(84.482)">
                <path id="パス_465" data-name="パス 465" d="M270.374,1034.963c.54.149.718.7.391,1.392-3.054,5.341-4.581,8-7.637,13.3v7.724a1.639,1.639,0,0,1-.978,1.513c-.565.184-.98-.158-.98-.883v-7.615c-3.054-3.416-4.581-5.137-7.635-8.606a1.244,1.244,0,0,1,.489-1.564.917.917,0,0,1,1.371.016c2.7,3.041,4.054,4.552,6.755,7.555,2.741-4.754,4.112-7.14,6.853-11.93C269.329,1035.17,269.867,1034.824,270.374,1034.963Z" transform="translate(-253.015 -1034.513)" fill="#363636"/>
                <path id="パス_466" data-name="パス 466" d="M262.382,1059.467c-.965.215-1.442-.205-1.442-1.143v-7.486c-3.025-3.387-4.537-5.092-7.56-8.529a1.737,1.737,0,0,1,.609-2.185c.845-.58,1.5-.563,1.932-.025,2.565,2.883,3.848,4.315,6.413,7.164,2.6-4.517,3.908-6.786,6.513-11.338a1.791,1.791,0,0,1,1.889-1.2l.064.016c.754.305.933.974.5,1.887-3.032,5.306-4.55,7.95-7.584,13.212v7.591A2.292,2.292,0,0,1,262.382,1059.467Zm-7.69-18.893a1.278,1.278,0,0,0-.344.176c-.405.382-.405.658-.258.938,3.039,3.445,4.559,5.153,7.6,8.547a.313.313,0,0,1,.073.211v7.615c0,.6.245.669.614.593.178-.093.465-.311.524-.995,0-3.076,0-4.612,0-7.688a.534.534,0,0,1,.076-.262c3.054-5.294,4.581-7.951,7.637-13.29.16-.347.187-.643-.271-.844-.373-.047-.584.1-.8.555-2.75,4.808-4.126,7.206-6.877,11.978a.63.63,0,0,1-.334.282h0a.318.318,0,0,1-.336-.069c-2.7-3-4.052-4.515-6.753-7.558A.465.465,0,0,0,254.693,1040.574Z" transform="translate(-253.195 -1034.702)" fill="#363636"/>
              </g>
            </g>
          </g>
        </g>
        <path id="パス_467" data-name="パス 467" d="M460.511,1061.834c-84.848,27.822-162.888,66.738-252.7,75.332a1.8,1.8,0,0,1-1.807-1.8,1.818,1.818,0,0,1,1.807-1.814c89.809-8.595,167.849-47.509,252.7-75.333a1.32,1.32,0,0,1,1.807,1.3A2.58,2.58,0,0,1,460.511,1061.834Z" transform="translate(-206.008 -843.526)" fill="#363636"/>
        <path id="パス_468" data-name="パス 468" d="M499.034,943.7c-86.949,8.09-162.437,44.844-244.205,72.825a1.293,1.293,0,0,1-1.807-1.26,2.649,2.649,0,0,1,1.807-2.356c81.768-27.978,157.256-64.735,244.205-72.823a1.8,1.8,0,0,1,1.809,1.8A1.818,1.818,0,0,1,499.034,943.7Z" transform="translate(-167.558 -940.083)" fill="#363636"/>
      </g>
    </g>
  </g>
</svg>
