<svg xmlns="http://www.w3.org/2000/svg" width="400" height="350" viewBox="0 0 400 350">
  <g id="logo_11" transform="translate(-693 -1184)">
    <g id="グループ_226" data-name="グループ 226" transform="translate(-86 14)">
      <g id="グループ_251" data-name="グループ 251" transform="translate(2047.131 853.44)">
        <g id="グループ_237" data-name="グループ 237">
          <g id="グループ_235" data-name="グループ 235">
            <path id="パス_853" data-name="パス 853" d="M-1131.708,559.038l-.791-.006-.793-.019-.793.025-.488.506-.047.9.053.9.015.9.013.9-.032.922-1.018-.02-1.005-.006-1.008.043-1.008-.018-.522.484,0,1.029.047,1.032.02,1.032.454.46,1,.072,1-.059,1.008.056,1-.022,0,.988.048.991-.045,1-.023,1,.052,1-.069.977-.8.427-.835.415-.851.385-.85.393-.852.39-.276.432-.016.829-.015.83.019.832-.008.832.245.395.474.08.766-.338.744-.394.746-.394.8-.293.724-.352.056.856-.007.9-.051.9-.017.9.545.469.791.065.793-.038.793.037.454-.534.065-.939-.023-.94-.013-.939-.024-.938.007-.939.037-.94-.026-.94.051-.939-.036-.94.02-.94.032-.937-.034-.936-.045-.938.029-.942.016-.94-.025-.94.041-.943-.019-.941v-.943l.036-.939-.068-.944,0-.945.008-.948-.03-.948Z" fill="#363636"/>
          </g>
          <g id="グループ_236" data-name="グループ 236">
            <path id="パス_854" data-name="パス 854" d="M-1121.7,578.254l-.841-.016-.846-.035-.847-.019-.849.007-.862.041-.012-.932.054-.92-.071-.923.057-.922.016-.921-.034-.92.047-.924-.009-.926-.027-.929-.026-.938.751-.505.742-.5.783-.444.761-.478.744-.509.748-.5.235-.422.019-.83-.024-.831-.018-.833.046-.833-.3-.422-.483.029-.781.517-.8.489-.807.489-.8.507-.807.548v-1l.038-.972,0-.974-.046-.977-.02-.977-.454-.46-1.15-.071-1.15.058-.529.473.019.926.008.927.047.926-.045.925-.023.926.051.927-.075.927.059.926.025.927-.009.927v.924l0,.923v.924l-.015.929-.014.927.019.927-.008.93.028.928-.056.93-.019.926.041.93.04.932-.071.935-.012.934.546.471.878.007.877.05.876.016.875-.075.88.064.881-.037.883.037.883-.079.367-.088.129-.367-.013-1.029-.024-1.032.007-1.032Z" fill="#363636"/>
          </g>
        </g>
        <g id="グループ_240" data-name="グループ 240">
          <g id="グループ_238" data-name="グループ 238">
            <path id="パス_855" data-name="パス 855" d="M-1107.233,564.9l.028-1.032.046-1.034-.06-1.035-.47-.506-.868.03-.868-.014-.866-.05-.871.013h-.872l-.875,0-.9.052-.01-.786,0-.762-.467-.479-.81-.019-.812-.032-.812-.016-.475.546-.011.762-.015.76-.882-.028-.542.529.078,1.032-.03,1.034.008,1.034.486.458.916.011-.021.948.025.915-.011.916-.063.917.046.913-.04.912.059.914-.032.918-.019.916.064.916v.919l-.071.917.011.917.021.915-.038.92.076.921-.036.924.011.924.485.465.809.062.812-.006.812,0,.478-.517.052-.916.008-.915-.044-.916.012-.917-.009-.913.029-.912-.038-.914,0-.918.007-.916,0-.916.039-.919-.055-.917-.02-.917.007-.915,0-.92.031-.921.047-.924-.034-.919.863.027.868-.065.866.039.871.03h.872l.875,0,.875-.078Z" fill="#363636"/>
          </g>
          <g id="グループ_239" data-name="グループ 239">
            <path id="パス_856" data-name="パス 856" d="M-1100.844,569.134l-1.4-.01.024-.954.014-.95-.048-.953.006-.964,1.348.007.5-.5.022-.986-.06-.99.055-.989-.516-.518-1.037.031-1.039.028-1.041,0-1.042-.04-.525.5.046.908.008.906-.016.906-.009.9-.027.91.027.91.037.913-.053.9-.87.05-.882-.077-.88.009-.885.02-.886-.015-.888-.008-.889.035-.532.5.03.94.006.941.03.946-.044.944.009.943-.008.947.045.945-.02.946-.006.943v.947l0,.949.018.952.007.951.466.542.9-.023.9-.029.9,0,.9-.024.9-.009.9.034.9.034.9.012.906-.08.906,0,.526-.458-.028-.963.017-.966.008-.965-.03-.966.04-.962-.068-.967.01-.969.01-.971.013-.974,1.4.018.47-.515-.011-1.029.055-1.033-.029-1.032Zm-8.195,9.351,0-.884.026-.872.014-.877-.048-.878v-.881l.011-.883.868,0,.866.021.868-.06.857.051-.006.862.032.873.027.876,0,.878-.04.881-.016.863-.847.039-.866.007-.868-.015Z" fill="#363636"/>
          </g>
        </g>
        <g id="グループ_244" data-name="グループ 244">
          <g id="グループ_241" data-name="グループ 241">
            <path id="パス_857" data-name="パス 857" d="M-1080.659,578.01l-.96-.027-.961.038-.966.016-.964-.048-.964.05-.967-.01-.965-.012-.967-.036-.963.014-.968-.006-.969.043-.972-.007-.979,0,.032-1.009,0-1.008-.025-1.009.008-1.012-.029-1.012-.475-.494-.829-.011-.831,0-.831.024-.493.484-.038.891.015.891.014.894.025.893-.014.892-.041.891.035.9,0,.9.022.9-.034.9.512.528.912-.059.913.05.913-.014.91.028.909-.008.911-.027.915,0,.913-.01.913,0,.916.011.914.018.913-.023.912.025.917-.039.918.045.921-.025.921,0,.475-.486.048-.848-.013-.849-.025-.851v-.851l-.145-.332Z" fill="#363636"/>
          </g>
          <g id="グループ_242" data-name="グループ 242">
            <path id="パス_858" data-name="パス 858" d="M-1096.246,564.768l.965-.013.965-.01.968.025.966-.015.968.008.964-.028.969.036.97-.034.973.023.973-.015.5-.491.009-.46.725-.008.734-.016.438-.3.4-.833.4-.838.353-.859.4-.843.374-.853-.043-.492-.432-.2-.854-.007-.854,0-.46.281-.4.884-.386.9-.371.912-.008-.52-.51-.475-.965-.04-.965.032-.968-.029-.966.009-.968.009-.964-.008-.969.022-.97-.045-.973.022h-.973l-.495.507.005,1.081-.013,1.084.012,1.084Z" fill="#363636"/>
          </g>
          <g id="グループ_243" data-name="グループ 243">
            <path id="パス_859" data-name="パス 859" d="M-1079.746,558.533l-.845,0-.845,0-.465.3-.364.848-.371.85-.381.847-.369.855-.387.847.041.475.418.229h1.687l.455-.3.372-.844.373-.849.389-.843.377-.852.379-.851-.051-.476Z" fill="#363636"/>
          </g>
        </g>
        <g id="グループ_250" data-name="グループ 250">
          <g id="グループ_245" data-name="グループ 245">
            <path id="パス_860" data-name="パス 860" d="M-1060.032,562.334l-.907.007-.905-.051-.91,0-.911.025-.914.041-.917-.028-.043-.849.043-.848-.015-.848-.481-.456-.791-.051-.793-.013-.793.032-.469.489-.006.846-.065.848.054.863-.9.015-.888-.028-.88-.009-.043-.838.02-.848-.026-.848-.459-.471-.79.008-.792-.024-.792.034-.507.454-.006.846-.017.848.01.826-.93.01-.95.019-.468.493v2.111l.006,1.057.46.542.95-.007.953-.039-.028.913.025.91-.035.911,0,.908.006.907-.008.908.022.912.031.91.02.91-.049.913-.035.912.008.911.079.91-.06.914-.022.916.011.918.024.918.505.491.79.049.792-.03.792-.042.519-.468.019-.91-.071-.91.077-.911-.067-.908.03-.907.021-.908,0-.912-.055-.91-.011-.91,0-.913.01-.912,0-.911.058-.91.014-.914-.09-.916.042-.918-.029-.948.917.046.888-.009.89-.009.031.848-.048.85.04.852-.012.854.023.854.464.5.791.008.793-.032.793.046.46-.527.079-.846v-1.7l-.035-.854,0-.854.854-.025.856-.013.875.022-.027.981-.034.966.007.962.066.967-.051.968-.019.971.027.96-.94,0-.953.06-.956-.019-.956-.008-.488.483-.04.823-.008.824.063.826-.069.826.543.457.956.069.958.009.953-.071.959.009.96.005.963.029.963-.025.5-.482.038-.948-.061-.945.041-.944-.025-.945-.026-.95,0-.947.06-.948,0-.951-.053-.949.017-.95-.02-.946.054-.951-.057-.953-.013-.955-.009-.955Z" fill="#363636"/>
          </g>
          <g id="グループ_246" data-name="グループ 246">
            <path id="パス_861" data-name="パス 861" d="M-1045.081,566.794l-.566-.133-.308.475-.026.892,0,.894.029.9-.016.9.131.322.618.7.612.707.626.7.6.716.621.7.644.678.611.713.6.722.645.689.612.718.38.144.177-.011.346-.469-.043-.9,0-.906.022-.909,0-.909-.131-.326-.619-.7-.624-.691-.618-.7-.6-.717-.631-.686-.627-.688-.629-.693-.617-.7-.623-.7Z" fill="#363636"/>
          </g>
          <g id="グループ_247" data-name="グループ 247">
            <path id="パス_862" data-name="パス 862" d="M-1039.255,559.492l-.94-.076-.939.083-.94-.073-.941.079-.937-.088h-.936l-.938.083-.942-.015-.94-.037-.94-.014-.943,0-.942.016-.943.005-.939.046-.944-.01-.945-.009-.948-.043-.948.068-.535.455.02.927.04.93.006.93.469.537,1-.068,1,.011,1,.039,1-.026h1.007l1.031-.011-.5.815-.477.8-.531.771-.53.769-.43.831-.52.779-.494.793-.463.811-.529.768-.527.775-.466.815-.508.792-.454.826-.136.24.026.844-.035.848-.016.849.057.852-.009.852.37.437.573-.155.438-.809.5-.773.479-.79.552-.742.447-.808.521-.765.456-.8.523-.761.493-.778.488-.787.5-.779.5-.781.477-.815,0,.945-.038.928.068.927.008.928-.028.932-.011.93,0,.93,0,.934-.014.932.032.933-.006.929.034.934-.056.936.05.938-.037.938.5.512,1.161.031,1.161-.086.5-.458.012-.952v-.953l-.019-.949-.029-.948.067-.95-.045-.954.037-.952.008-.952-.008-.955-.068-.954.066-.955.009-.951-.061-.956.057-.957-.051-.96.054-.96-.53-.512-.851.054-.874-.032.5-.8.476-.8.524-.768.489-.8.89.058.876-.072.875.045.874.037.878-.057.88-.026.882.05.882-.013.533-.5-.005-.927.008-.929-.078-.929Z" fill="#363636"/>
          </g>
          <g id="グループ_248" data-name="グループ 248">
            <path id="パス_863" data-name="パス 863" d="M-1019.147,561.227l-1.037.047-1.04.039-1.037-.041.046-.847.008-.851-.075-.4-.392-.121-.95-.048-.95.027-.514.488-.005.878-.052.889-.693-.027-.309.142-.063-.924-.007-.926-.14-.344-.354-.136-.935.009-.933.093-.935.046-.932.1-.932.049-.935.071-.933.121-.942.02-.942.042-.477.523.053,1.047-.066,1.047.171.385.4.121.888-.12.9-.009.891-.085-.007.389-1.056.006-1.067.021-1.068.027-.536.469.049,1.021-.056,1.021.543.519,1.065-.06,1.067.051,1.06.026.018.231-.915-.084-.908.084-.908-.055-.465.515-.041.977.042.975-.047.976-.028.973.039.977.012.98-.055.981.067.982.476.484.905.021.908.026.9-.008-.006.318-.889.082-.908-.011-.908-.029-.486.5-.005,1.009-.017,1.01.508.536.905,0,.908-.06.88.057,0,.641-1.048.1-1.078.015-1.073.14-.5.46.028,1-.048,1,.192.376.388.168.913-.14.92-.056.925-.009.919-.073.918-.084.919-.059.927.007.92-.126.93-.015.928-.046.147-.074-.006.413.148.371.363.153.911.046.911-.089.486-.431.073-.947.061-.947-.016-.951.051-.949.106-.942-.014-.947.094-.944.006-.952.1-.945.037-.949.08-.949-.029-.954.063-.95.046-.946.068-.951.109-.95-.026-.96.055-.977.919.05.038.919-.03.946.009.947-.021.947.029.944.005.943.013.944v.949l-.034.946-.026.947.061.949v.948l.009.95-.043.945.011.95.05.952-.032.955-.005.954.495.463.95,0,.95.06.366-.159.136-.366.022-.923-.07-.922.052-.923.011-.924-.016-.924-.006-.924.027-.924.012-.924-.047-.922.006-.92v-.921l.039-.926-.028-.924-.049-.924v-.927l.04-.925.034-.925.008-.923-.019-.928-.049-.93.06-.932-.077-.932Zm-10.517,8.03-.022-.387.84-.034-.019.46Zm.779,2.745.021.364-.839.035.018-.438Zm-4-2.745-.022-.387.839-.034-.019.46Zm.778,2.745.021.364-.838.035.018-.438Zm5.721-10.028.047.97-1.025.039-1.027-.042h-1.026l-.022-.67.947,0,.923-.114.929-.017Zm.324,16.96-.319-.122-1.009.095-1.016.015-1.012.056-.019-.58.929.069.915-.049.914.048.514-.54v-1.01l-.04-1.009-.475-.476-.912-.036-.914-.017-.928.06,0-.448.927.006.915.012.914.056.51-.537.019-.977-.03-.975.016-.976-.005-.973-.055-.977.046-.979.024-.982-.011-.982-.514-.461-.912-.066-.914,0-.913.016-.011-.261,1.067.061,1.062-.014,1.061.02.517-.525-.02-.441.423-.008-.11.935.005.925-.1.919-.02.924.015.93-.1.922-.071.924.033.932-.129.923.039.93-.1.921.006.932-.086.929,0,.936Z" fill="#363636"/>
          </g>
          <g id="グループ_249" data-name="グループ 249">
            <path id="パス_864" data-name="パス 864" d="M-997.591,579.586l-.472-.456-.869-.019-.867.021-.872-.092-.873.052-.875.038-.876-.043.012-1.215.933-.009.95.01.951-.036.954.024.954-.04.486-.458.024-1.085-.037-1.085-.473-.536-.945.052-.95.018-.951,0-.954-.026-.99.017.013-1.22.968.015.95-.014.951.035h.954l.954-.051.461-.466.006-1.113.05-1.113-.517-.473-.945.017-.95-.014-.951,0-.954-.009-.987.007.032-1.076.87-.045.867.046.872-.025.873.034.875.025.876-.057.455-.477.043-.85,0-.853.045-.853-.541-.536-1.1.058-1.111-.009-.031-.982.05-.963.911.025.919-.037.494-.495-.015-.842.049-.844-.02-.844-.508-.465-.915-.038-.914.012-.912.02-.917-.01-.919-.024-.921.041-.936-.017,0-.7-.484-.474-1.159-.013-1.16.012-.523.475.048.709-.94-.075-.914.046-.912-.051-.918.085-.918-.083-.922.012-.921.012-.511.521v.841l-.011.845.016.844.506.522,1.024-.02,1.037-.015.02.983-.043.959-.841.031-.853-.04-.492.519-.048.967.02.969.061.964-.046.969.038.971-.028.974-.021.973-.03.906-.111.9-.055.909-.1.9-.005.911-.125.9-.022.912-.084.908-.119.909-.09.91.128.411.4.175,1.054-.047,1.054,0,.495-.457.038-.216.484.366.918.074.915-.067.913.008.916.02.919-.013.917.024.917.023.921,0h.918l.918-.074.917.077.921-.027.923-.053.926.078.925-.056.326-.163.141-.326.024-1.113Zm-13.959-8.284-.027-1.038.022-1.025.507-.034-.182.283-.124.9Zm3.18-2.006-.005-.09.911.019.945-.006-.069,1.044-.875.036-.936.03.152-.633Zm1.841,4.21.011,1.215-.937,0-.906.021-.865-.068.2-1.153.825-.04.824.044Zm-2.875-7.791-.024-.989.026-.987,1.009-.028.987.092.993-.052.994-.039,1,.044.987.01.01.96-.007.962-.984.034-.988-.024-.992.04-.994-.029-1-.024Zm-2.389,9.538.085-.037.251.038.022,1.057-.092,1.053.547.495.88-.038.885.044.886.014.889-.015.88.006.03,1.233-.9-.013-.877.04-.881-.029-.883-.023-.886.037-.885-.063-.277.11.066-.977.081-.976.111-.976Z" fill="#363636"/>
          </g>
        </g>
        <path id="パス_865" data-name="パス 865" d="M-1009.357,505.377l.279-.044.861-.3.877-.26.8-.487.878-.263.854-.33.876-.279.864-.307.865-.3.827-.4.858-.33.86-.329.9-.239.878-.289.1-.291.091-.94-.173-.939.088-.939-.082-.941.087-.941.017-.943.148-.944-.278-.943.082-.942-.055-.941.216-.942-.1-.942-.106-.944-.015-.944.021-.944.2-.942-.034-.944-.135-.944.019-.945.188-.943-.008-.945-.062-.945.012-.941.052-.941-.275-.942-.01-.946.228-.944.055-.945-.064-.947-.058-.946.1-.947-.058-.943,0-.948-.055-.949.139-.953-.012-.952-.216-.9-.149-.9-.461-.785-.44-.778-.456-.8-.632-.665-.807-.488-.5-.789-.767-.524-.579-.71-.709-.585-.632-.666-.486-.815-.816-.484-.583-.713-.743-.557-.447-.855-.652-.649-.677-.626-.675-.631-.636-.668-.628-.675-.774-.529-.594-.712-.7-.606-.67-.643-.665-.7.025-.964.213-.923-.195-.922.149-.921-.161-.921-.038-.92.024-.92,0-.92.131-.92-.179-.922.018-.923.017-.925.191-.924-.053-.922-.058-.922-.045-.922-.056-.923.077-.924.061-.925-.065-.924-.108-.923.254-.924-.179-.925-.01-.925.05-.924-.106-.925.127-.925-.024-.922.165-.922-.028-.922-.24-.927.186-.924-.1-.925.053-.928.12-.926v-.926l-.223-.924-.006-.929.042-.93-.012-.933.1-.932-.231-.89-.029-.925-.318-.869-.663-.66-.575-.684-.523-.794-.868-.35-.811-.442-.893-.258-.93-.015-.932.081-.932-.083-.932.2-.93-.109-.928-.018-.93.116-.934-.19-.931.121-.932.059-.935-.022-.934-.137-.935.05-.93.135-.936-.043-.937-.061-.94,0-.94.084-.894.075-.92.056-.781.488-.879.311-.623.684-.5.758-.52.732-.478.789-.168.9-.148.913.136.962-.174.967.115.964-.088.965.053.968.171.966-.126.967-.055.964.065.968.012.97-.107.973.054.91-.609-.623-.734-.6-.556-.764-.712-.613-.51-.807-.778-.548-.673-.651-.708-.62-.48-.841-.758-.57-.662-.661-.563-.75-.678-.639-.541-.772-.7-.625-.683-.644-.693-.638-.609-.714-.585-.736-.677-.649-.784-.552-.577-.748-.586-.74-.714-.621-.714-.619-.592-.735-.723-.607-.595-.737-.618-.717-.744-.6-.612-.726-.767-.531-.778-.485-.837-.379-.9-.191-.912-.1-.92.046-.887.251-.826.4-.922.282-.729.614-.5.805-.651.661-.749.565-.555.753-.634.677-.63.681-.7.613-.678.636-.556.754-.693.622-.729.588-.582.731-.656.66-.58.735-.766.553-.555.757-.618.7-.694.621-.573.738-.8.518-.653.66-.56.751-.61.7-.768.549-.644.668-.5.808-.673.641-.7.621-.623.691-.562.75-.8.519-.581.735-.71.6-.591.71-.626.677-.565.738-.784.526-.6.705-.66.649-.539.766-.65.661-.6.714-.731.585-.718.6-.665.654-.566.749-.662.656-.665.649-.611.7-.632.68-.744.571-.474.831-.745.57-.547.76-.826.491-.58.729-.717.6-.475.832-.762.556-.593.722-.721.6-.51.805-.8.527-.475.838-.8.521-.5.81-.844.479-.569.743-.516.795-.807.516-.573.742-.612.707-.659.664-.6.719-.79.534-.607.71-.644.674-.568.75-.783.542-.567.753-.648.673-.707.616-.639.673-.65.662-.689.625-.589.725-.671.651-.671.656-.689.634-.578.738-.675.648-.645.683-.514.806-.845.486-.487.837-.8.527-.625.7-.534.786-.824.512-.611.721-.656.68-.6.732-.676.6-.372.821-.412.8-.108.891-.087.88-.085.995.164.993.037,1-.233,1-.037,1,.208,1-.092.935.124.935-.065.936-.2.935.164.936-.035.935-.036.936.079.937-.139.937.062.937.054.938-.046.937.082.936.044.937-.01.936-.081.932.127.932-.007.932.014.931-.144.932-.122.932.267.933-.042.933-.14.934.161.935-.155.937.174.939-.046.938-.009.938-.018.936-.031.935.092.936-.231.935.054.935.16.936-.138.937.114.938-.17.941.065.938-.094.938.009.937.113.937.034.938-.02.94.034.94-.086.939.133.939-.155.939.084.94-.055.94.122.94,0,.94.011.941-.094.937-.035.936.135.938.031.942-.07.94-.2.94.263.943-.173.942-.1.943.038.939.164.943,0,.946-.1.947-.008.948v.931l.282.885.287.885.565.74.515.779.858.408.659.677.922.175.852.381.928.1.929-.19.93.082.929.108.929-.139.93,0,.929-.056.93-.075.93.081.93-.017h.93l.93.152.931-.22.931.125.931.016.932.1.932-.145.932.13.933.065.933-.048.934-.008.934-.03.935-.05.935-.05.934.029.934.022.934.02.933-.14.932.2.933-.125.932.012.932.082.932-.1.931,0,.932-.042.932.2.931-.209.932.085.931.1.932.043.932-.056.932-.01.933-.044.933-.149.933.148.933-.166.934.05.935-.019.935.135.936.116.935-.118.934.084.935-.22.934.123.933.122.933-.249.934.113.933.022.933-.06.933.13.933-.065.933-.165.934.116.933-.036.935.158.935-.208.935.17.936-.183.936.272.935-.289.935.15.934-.094.934.2.934-.153.934.1.934-.063.935.048.934-.062.935.081.936.072.936-.1.936.1.935-.263.936.1.934.027.935-.029.931-.024.931.092.93.011.93-.173.931.108.93-.015.931.092.932-.018.933-.158.934.07.935.09.937-.167.938.091.935-.1.935.272.935-.207.933.09.934-.006.934-.108.934.217.936-.072.937-.071.939.129.937.029.937-.224.935.191.936.014.937-.15.938.135.939-.108.937.089.938-.144.937.045.939.135.939-.264.938.12.939-.037.939,0,.936-.066.935.22.936-.01.941-.2.938.049.939-.077.942.174.94-.085.941.133.938-.2.942.1.944-.061.946,0,.947.016.9-.057.874-.229.851-.312.79-.454.609-.677.742-.562.511-.774.157-.924.2-.873.077-.893.1-.921-.14-.922.153-.923-.027-.926.082-.923-.168-.923.024-.922.211-.923-.206-.923.193-.924-.235-.926.061-.924-.016-.923.194-.924-.132-.926-.027-.925.087-.925-.17-.925.235-.925V523.8l-.064-.921-.02-.923-.073-.927-.012-.925.2-.925-.1-.928-.161-.927-.005-.926-.01-.924.065-.929.174-.931-.178-.933.1-.933-.059-.3-.342-.055-.762.566-.941.09-.865.3-.788.506-.883.252-.823.421-.921.153-.871.286-.767.56-.87.3-.941.114-.863.327-.837.4-.138.26-.022.931.133.93-.178.931.124.933.009.932-.015.932-.177.932.255.933-.227.929.125.929-.109.929.176.935.027.932-.272.932.052.935,0,.933.159.935-.123.931.109.936-.2.937.018.94.115.928-.929.01-.94-.047-.941.1-.94-.088-.942.165-.942-.2-.944.08-.946-.079-.944.061-.943-.049-.943.044-.942-.026-.944.085-.945-.185-.945.033-.945.075-.944.08-.944-.062-.946.135-.946-.1-.945.082-.945-.241-.946.259-.943-.047-.942-.136-.943.112-.947-.17-.946.033-.945-.047-.949.189-.947.039-.948-.172-.944.215-.95-.252-.95.005-.954.029-.977.107.11-.938-.176-.914.127-.916-.051-.915-.038-.914.141-.913-.152-.917.178-.919-.071-.921-.134-.923.088-.063.115-.936-.243-.938.073-.939-.073-.939.026-.938.057-.937-.073-.936.043-.936.181-.935-.233-.936.125-.937.117-.937-.15-.94.022-.94-.073-.94.127-.938-.059-.938.1-.938-.031-.938-.068-.94.064-.941-.119-.94.216-.939-.264-.939.207-.942-.222-.94.23-.94-.155-.941.187-.941-.153-.938-.022-.937.2-.939-.088-.942v-.941l.069-.94-.167-.944.183-.942-.241-.944.236-.939-.2-.945.2-.945-.189-.949-.012-.993.96-.229.829-.442.932-.162.833-.426.874-.317.894-.263.856-.361.853-.377.907-.232.871-.332.793-.548.953-.113.829-.443.912-.221.894-.267.843-.406.813-.491.906-.245.863-.355.886-.3.832-.437.974-.064.793-.546.873-.33.941-.145.832-.442.879-.31.911-.221.854-.377.9-.258.8-.53.883-.307.9-.259.824-.468.911-.234.842-.413.972-.082.816-.5.916-.24.944-.505-.136,1.041.07.92.055.921-.216.922.075.924,0,.923.211.921-.115.921-.077.921-.073.922.078.923.192.924-.119.923-.154.923-.007.922.253.925-.084.924-.125.923.089.924.064.924-.087.921.007.921.061.921-.017.926-.165.924.173.924-.105.926-.061.926.265.924-.071.923-.057.928-.021.93.157.932-.157.932Zm-37.842-57.718-.892.089-.892-.021-.891-.063-.9.176-.9-.06-.9.01-.9-.045-.885.125-.81.391-.57.688-.39.783-.129.863-.09.931-.036.932.1.933-.09.933.172.933-.087.932.081.932-.086.931-.018.931-.147.931.278.931-.083.93.055.931-.215.931.1.93.107.931.014.931-.021.932-.2.931.035.933.134.933-.019.933-.187.933.008.933.062.932-.013.932-.051.932.274.932.01.931-.228.932-.055.932.064.932.058.932-.1.933.058.934,0,.934.054.933-.138.932.011.933.147.932-.062.929.129.928-.029.927-.172.928-.016.928.232.928-.2.929.178.929-.085.931.094.931-.017.933-.226.935.242.934-.085.934.138.932-.281.932.009.931.043.931.038.932-.015.932-.027.933.18.935-.076.936.077.935.025.934-.012.933-.034.933-.212.934.2.936-.149.937.161.935.038.934-.024.935,0,.937-.132.936.18.936-.018.936-.017.937-.191.933.053.933.058.934.045.938.056.936-.077.936-.061.939.065.938.108.939-.254.935.179.94.01.941-.05.944.066,1.042-1.037-.086-.938.024-.94-.165-.94.028-.94.24-.938-.186-.939.1-.941-.053-.941-.12h-.939l-.941.223-.94.006-.938-.042-.937.012-.938-.1-.942.161-.94-.188-.94-.04-.944.219-.941-.008-.943-.264-.939.157-.944-.1-.946-.043-.948.058-.96.076.077-.944-.2-.933.109-.932.018-.933-.116-.933.19-.932-.121-.932-.059-.932.022-.931.137-.931-.05-.93-.134-.931.043-.93.06-.931,0-.931-.084-.93-.005-.931.161-.932-.152-.932.2-.932-.115-.933-.114-.933.06-.934.138-.932-.048-.933.076-.932-.136-.931.174-.932-.115-.932.088-.931-.052-.932-.172-.932.127-.933.054-.933-.065-.933-.012-.934.107-.933-.013-.933-.052-.932-.113-.933.131-.928-.087-.928.194-.928-.18-.928-.031-.928-.079-.928.239-.929-.15-.929-.017-.93.116-.932-.043-.933.146-.934-.066-.935-.045-.934-.055-.932.057-.932.091-.931-.036-.931-.181-.932.105-.932.092-.933-.082-.935-.084-.936.085-.935-.1-.934.083-.933.054-.933-.119-.934.064-.936-.11-.937,0-.935.022-.934-.03-.935.023-.937.029-.936-.032-.936-.042-.936.25-.937.02-.933-.2-.933.009-.934.146-.938-.125-.936-.015-.936-.02-.939.077-.938.045-.939-.124-.935.066-.94.115-.941-.09-.944.013-.944-.231-.856-.262-.869-.725-.546-.794-.363-.856-.2v.1l-.893-.215-.892-.011-.891.12-.9.049-.9-.171-.9,0-.9.2-.867.1-.822.345-.608.655-.294.827-.348.842.093.923-.1.924.069.926.021.925.106.925-.2.925.059.926-.023.923.145.921-.008.923.067.927-.118.926-.1.925-.023.928.114.927-.02.926-.027.924.049.929.018.931-.137.933.2,1.025-1.032-.1-.94.135-.94-.253-.941.091-.941-.1-.942.237-.943-.161-.942.076-.942-.1-.942.193-.943-.209-.944.242-.942-.214-.943.2-.944-.273-.94.108-.939.181-.941-.222-.945.1-.943.052-.943-.012-.946.068-.945-.2-.945.058-.942.005-.947.113-.948-.187-.951.117-.99-.024.713-.661.642-.675.652-.665.69-.627.59-.725.669-.649.666-.651.687-.631.577-.738.673-.645.64-.679.511-.8.842-.484.483-.832.8-.517.615-.691.525-.778.814-.5.6-.709.643-.667.591-.719.743-.573.57-.741.7-.614.572-.744.657-.663.7-.621.525-.793.614-.7.808-.516.666-.652.489-.822.713-.605.557-.754.694-.623.791-.527.529-.782.671-.644.673-.644.59-.724.748-.573.6-.714.61-.709.684-.642.592-.73.618-.7.657-.664.707-.615.558-.758.653-.666.638-.681.753-.571.738-.587.459-.859.682-.645.752-.576.534-.785.762-.564.524-.793.684-.641.658-.667.665-.662.674-.652.585-.737.812-.509.608-.7.532-.781.749-.575.569-.753.776-.558.6-.718.718-.608.645-.68.573-.755.628-.7.668-.661.631-.7.716-.616.558-.769.764-.567.6-.737.7-.641.572-.766.724-.713.728.7.582.738.623.7.745.577.67.649.6.72.5.811.838.489.524.793.579.741.68.648.767.56.648.674.578.741.643.678.6.723.7.628.6.727.718.608.567.754.824.5.479.83.785.536.524.791.633.691.789.544.592.731.572.748.75.577.655.676.693.637.706.623.6.734.666.665.652.677.543.78.813.526.566.767.647.692.589.749.841.545.775.628.911.434,1,.163,1,.031.988-.161.933-.342.857-.489.808-.56.7-.7.571-.81.274-.952.444-.9-.042-1,.012-.916.082-.915-.1-.916v-.917l-.041-.917.195-.916-.209-.917.086-.917.1-.914.044-.913-.056-.915-.011-.919-.044-.916-.148-.917.148-.92-.167-.918.05-.918-.018-.916.134-.92.116-.923-.118-.925.056-.852.76-.184.843.122.845.122.847-.248.849.113-.021.93.06.927-.13.926.066.927.164.928-.116.928.036.93-.158.932.208.93-.17.93.183.928-.272.929.289.93-.15.931.094.932-.2.93.153.93-.1.931.063.932-.047.932.061.931-.081.931-.072.933.1.929-.1.928.263.929-.1.933-.027.932.029.932.024.934-.092.933-.01.935.172.93-.108.935.015.937-.092.939.018.94.226.886.138.885.26.871.609.682.507.742.745.611.478.872.82.538.612.749.678.681.752.608.522.84.726.635.726.635.582.775.656.708.838.531.544.825.638.6-.73.373-.907.2-.822.425-.892.242-.811.46-.88.284-.91.2-.768.572-.9.213-.848.359-.863.322-.84.388-.942.12-.859.335-.79.516-.88.28-.837.4-.925.164-.833.4-.908.2-.794.514-.9.236-.839.381-.862.324-.872.311-.868.313-.857.344-.88.291-.875.3-.823.438-.933.139-.878.3-.794.525-.867.34-.978.31.056-1.028-.141-.935.154-.936-.027-.938.082-.938-.168-.937.024-.937.211-.937-.206-.938.193-.939-.235-.937.061-.938-.016-.939.194-.935-.132-.935-.027-.936.087-.94-.17-.938.235-.938v-.941l-.064-.94-.02-.94-.073-.937-.012-.942.2-.943-.1-.946-.161-.946-.137-.839-.4-.75-.56-.651-.717-.559Zm-78.5,83.144.839-.284.919-.212.93-.171.872-.4.931-.174.914-.243.931-.189.921-.219.922-.213.895-.315.914-.242.915-.24.94-.146.928-.2.893-.332.94-.145.875-.4.941-.148.9-.313.94-.149.923-.217.956-.09.848-.5.935-.152.9-.286.974-.026.893-.332.893-.337.918-.248.926-.213.969-.039.91-.267.889-.365.929-.217.974-.053.807-.267.007.829-.012.937-.052.935.275.936.01.941-.228.939-.055.939.064.942.058.94-.1.942.058.938,0,.943.054.944-.138.946.047.86-.852.111-.941-.062-.941.128-.942-.029-.943-.171-.945-.017-.944.233-.943-.2-.942.179-.942-.086-.943.094-.945-.017-.945-.225-.944.241-.943-.085-.944.139-.946-.282-.945.009-.944.043-.946.039-.945-.016-.943-.027-.941.181-.943-.077-.947.077-.945.026-.945-.013-.948-.033-.946-.213-.948.2-.944-.148-.949.16-.95.038-.953-.023-1.009-.027.109-1.006-.18-.945.018-.951.017-.952.191-.951Zm32.927-50.6.06.854-.021.924-.063.925.176.927-.06.929.01.927-.045.926-.015.926-.02.925.085.927.009.928.007.928-.09.928-.036.927.1.927-.09.929.172.928-.087.928.081.929-.086.929-.017.926-.148.924.278.926-.082.931.054.928-.215.929.1.931.107.93.015.931-.022.927-.2.932.035.934.134.936-.027.962-.959.061-.888.236-.874.288-.893.216-.9.179-.823.494-.891.239-.951.008-.907.176-.876.291-.877.284-.915.136-.878.285-.893.233-.881.282-.928.095-.89.24-.857.371-.91.169-.862.355-.9.2-.937.063-.9.213-.834.454-.94.036-.848.4-.918.147-.871.32-.9.213-.953.011-.836.464-.916.147-.859.364-.969-.043-.9.239-.891.274-.855.276.033-.892.027-.929-.181-.93.077-.931-.077-.929-.026-.929.013-.927.033-.927.213-.928-.195-.927.149-.928-.161-.929-.038-.931.024-.932,0-.93.132-.93-.18-.929.018-.93.017-.93.191-.931-.053-.932-.058-.931-.045-.931-.056-.931.077-.932.061-.933-.065-.931-.108-.932.254-.933-.179-.929-.01-.929.05-.929-.106-.934.127-.932-.024-.932.165-.935-.028-.934-.24-.935.186-.931-.1-.935.054-.937.119-.94-.034-.855.855-.188.941-.006.941.042.942-.012.944.1.945-.161.944.188.942.04.943-.219.942.008.943.264.945-.157.945.1.944.043.944-.058.944-.081.946.083.945-.2.945.109.945.019.946-.117.942.19.941-.121.943-.059.947.022.946.137.945-.05.948-.134.947.043.948.06.944,0,.948-.084.951-.005.951.161Z" fill="#363636"/>
      </g>
    </g>
    <rect id="長方形_21" data-name="長方形 21" width="400" height="350" transform="translate(693 1184)" fill="none"/>
  </g>
</svg>
