<svg xmlns="http://www.w3.org/2000/svg" width="400" height="350" viewBox="0 0 400 350">
  <g id="logo_6" transform="translate(-696 -1184)">
    <rect id="長方形_21" data-name="長方形 21" width="400" height="350" transform="translate(696 1184)" fill="none"/>
    <g id="グループ_128" data-name="グループ 128" transform="translate(726.105 897.349)">
      <g id="グループ_129" data-name="グループ 129" transform="translate(45.895 504.909)">
        <path id="パス_596" data-name="パス 596" d="M145.632,428.2a2.088,2.088,0,0,1-.5-.065,36.433,36.433,0,0,1-25.949-30.2,2.012,2.012,0,0,1,2.5-2.151,36.432,36.432,0,0,1,25.949,30.2,2.005,2.005,0,0,1-.688,1.721A1.984,1.984,0,0,1,145.632,428.2Zm-21.939-27.543a33.1,33.1,0,0,0,19.427,22.608,33.08,33.08,0,0,0-19.427-22.608Z" transform="translate(80.062 -393.062)" fill="#363636"/>
        <path id="パス_597" data-name="パス 597" d="M71.982,436.279h-.027a2,2,0,0,1-1.637-.884,36.446,36.446,0,0,1,.517-39.81,1.977,1.977,0,0,1,1.659-.843,2.014,2.014,0,0,1,1.637.881,36.441,36.441,0,0,1-.517,39.816A2.007,2.007,0,0,1,71.982,436.279Zm.432-35.669a33.1,33.1,0,0,0-.383,29.8,33.077,33.077,0,0,0,.383-29.8Z" transform="translate(-13.645 -394.742)" fill="#363636"/>
        <g id="グループ_128-2" data-name="グループ 128" transform="translate(0 1.591)">
          <path id="パス_598" data-name="パス 598" d="M93.2,440.13H75.838V407.035h13.82a2.007,2.007,0,0,0,2.007-2.009v-5.182a2.007,2.007,0,0,0-2.007-2.007H50.906a2.007,2.007,0,0,0-2.009,2.007v5.182a2.008,2.008,0,0,0,2.009,2.009H65.542V440.13H47.9a2.014,2.014,0,0,0-2.009,2.015v5.188a2.011,2.011,0,0,0,2.009,2.009H93.2a2.012,2.012,0,0,0,2.012-2.009v-5.188A2.015,2.015,0,0,0,93.2,440.13Z" transform="translate(-45.895 -391.013)" fill="#363636"/>
          <path id="パス_599" data-name="パス 599" d="M95.267,395.327h-5.46a2.007,2.007,0,0,0-2.007,2.007v30.294A22.059,22.059,0,0,1,83.3,440.6c-2.632,3.45-7.327,6.145-13.956,8.018a2.007,2.007,0,0,0-1.033,3.178l4.095,5.185a2.017,2.017,0,0,0,1.58.764,1.831,1.831,0,0,0,.62-.1c8.2-2.667,13.964-6.6,17.126-11.67,3.679-4.7,5.547-10.87,5.547-18.344V397.334A2.009,2.009,0,0,0,95.267,395.327Z" transform="translate(-8.112 -395.327)" fill="#363636"/>
          <path id="パス_600" data-name="パス 600" d="M128.078,396.63H82.231a2.011,2.011,0,0,0-2.009,2.009v5.188a2.012,2.012,0,0,0,2.009,2.012h37.711A22.513,22.513,0,0,1,108.8,420.978V410.649a2.013,2.013,0,0,0-2.012-2.012h-5.457a2.01,2.01,0,0,0-2.009,2.012v15.56c0,8.7-4.543,15.166-13.886,19.753a2.013,2.013,0,0,0-.745,2.98l3.545,4.913a2.014,2.014,0,0,0,1.631.832,2.039,2.039,0,0,0,.9-.209,31.036,31.036,0,0,0,13.668-12.529,30.2,30.2,0,0,0,4.358-15.261l2.306,2.306a2.012,2.012,0,0,0,2.4.332,33.581,33.581,0,0,0,12.175-12.14,25.556,25.556,0,0,0,4.133-13.839l.269-4.584a2.013,2.013,0,0,0-2.007-2.132Z" transform="translate(13.11 -393.087)" fill="#363636"/>
          <path id="パス_601" data-name="パス 601" d="M142.55,396.73H102.707a2.014,2.014,0,0,0-2.009,2.012v26.474a2.014,2.014,0,0,0,2.009,2.012h5.457a2.014,2.014,0,0,0,2.012-2.012V406.76h24.908v10c0,6.833-1.446,12.417-4.293,16.61-3.211,4.725-8.491,8.513-15.7,11.254a2.013,2.013,0,0,0-.957,3l3.82,5.731a2.009,2.009,0,0,0,2.537.7c7.917-3.774,13.687-8.3,17.151-13.48,4.592-6.142,6.92-14.152,6.92-23.809V398.742A2.014,2.014,0,0,0,142.55,396.73Z" transform="translate(48.307 -392.915)" fill="#363636"/>
          <path id="パス_602" data-name="パス 602" d="M166.648,403.673l-5.729-3a2.015,2.015,0,0,0-2.909,1.4c-1.922,9.94-5.509,17.681-10.636,22.975-5.862,5.865-14.6,9.905-25.96,12a2.015,2.015,0,0,0-1.525,2.67l2.186,6a2.005,2.005,0,0,0,1.884,1.321,2.138,2.138,0,0,0,.411-.044c12.695-2.616,22.488-7.2,29.1-13.622,6.43-6.248,11.2-15.471,14.2-27.428A2.016,2.016,0,0,0,166.648,403.673Z" transform="translate(81.089 -386.528)" fill="#363636"/>
        </g>
      </g>
      <g id="グループ_131" data-name="グループ 131" transform="translate(56.213 577.26)">
        <g id="グループ_130" data-name="グループ 130">
          <path id="パス_603" data-name="パス 603" d="M51,424.393a4.119,4.119,0,0,1,3.037-1.232,4.015,4.015,0,0,1,2.953.982,3.744,3.744,0,0,1,1.069,2.216H56.251a2.118,2.118,0,0,0-.655-1.224,2,2,0,0,0-1.476-.5,2.23,2.23,0,0,0-1.639.655A3.673,3.673,0,0,0,51.5,428a3.425,3.425,0,0,0,.9,2.542,2.218,2.218,0,0,0,1.64.653,2.445,2.445,0,0,0,1.805-.653,2.326,2.326,0,0,0,.655-1.724H58.3a4.089,4.089,0,0,1-1.147,2.8,4.251,4.251,0,0,1-3.119,1.058,3.892,3.892,0,0,1-2.871-1.145,4.9,4.9,0,0,1-1.476-3.611A4.754,4.754,0,0,1,51,424.393Z" transform="translate(-49.69 -418.242)" fill="#363636"/>
          <path id="パス_604" data-name="パス 604" d="M59.683,423.131v1.805a3.928,3.928,0,0,0-.9-.079,3.217,3.217,0,0,0-2.3,1.063,4.865,4.865,0,0,0-1.229,1.89v4.671H53.612v-9.187h1.642v2.3a6.366,6.366,0,0,1,.9-1.147A4.781,4.781,0,0,1,59.683,423.131Z" transform="translate(-42.948 -418.294)" fill="#363636"/>
          <path id="パス_605" data-name="パス 605" d="M57.632,424.281a4.26,4.26,0,0,1,5.905.079,4.811,4.811,0,0,1,1.15,3.529H58.042a3.448,3.448,0,0,0,.821,2.542,2.532,2.532,0,0,0,1.884.74,2.272,2.272,0,0,0,1.642-.492,1.805,1.805,0,0,0,.574-1.311h1.805a4.409,4.409,0,0,1-1.066,2.213,3.993,3.993,0,0,1-2.955,1.069,4.347,4.347,0,0,1-3.2-1.232,4.762,4.762,0,0,1-1.313-3.529A4.877,4.877,0,0,1,57.632,424.281Zm1.232.905a2.678,2.678,0,0,0-.74,1.389H62.8a2.041,2.041,0,0,0-.658-1.474,2.493,2.493,0,0,0-3.279.084Z" transform="translate(-38.436 -418.294)" fill="#363636"/>
          <path id="パス_606" data-name="パス 606" d="M61.485,424.039a3.532,3.532,0,0,1,2.626-.908,4.034,4.034,0,0,1,2.953.908,2.585,2.585,0,0,1,.818,1.882v5.169a1.633,1.633,0,0,0,.655,1.392H66.57a1.455,1.455,0,0,1-.326-1.063,4.25,4.25,0,0,1-3.119,1.232,3.224,3.224,0,0,1-2.379-.821,2.363,2.363,0,0,1-.737-1.724,2.548,2.548,0,0,1,.737-1.887,4.136,4.136,0,0,1,2.3-1.066,11.392,11.392,0,0,0,1.721-.41,5.871,5.871,0,0,0,1.479-.492,1.576,1.576,0,0,0-.492-1.147,1.874,1.874,0,0,0-1.395-.489,2.252,2.252,0,0,0-1.642.489,2,2,0,0,0-.489.9H60.42A3.832,3.832,0,0,1,61.485,424.039Zm4.758,3.771a7.618,7.618,0,0,1-.905.245c-.93.218-1.64.383-2.129.492a2.092,2.092,0,0,0-.984.492,1.245,1.245,0,0,0-.411.9,1.345,1.345,0,0,0,.411.99,1.6,1.6,0,0,0,1.063.242,3.108,3.108,0,0,0,2.3-.9,2.863,2.863,0,0,0,.658-.821Z" transform="translate(-31.953 -418.294)" fill="#363636"/>
          <path id="パス_607" data-name="パス 607" d="M65.389,422.015h1.64v3.2h2.787v1.319H67.029v5.326a1.249,1.249,0,0,0,.408.905,1.469,1.469,0,0,0,1.071.326,3.714,3.714,0,0,0,2.047-.574v1.558a4.068,4.068,0,0,1-1.968.495,3.259,3.259,0,0,1-2.379-.74,2.506,2.506,0,0,1-.818-1.805v-5.492H63.418v-1.319h1.971Z" transform="translate(-26.093 -420.212)" fill="#363636"/>
          <path id="パス_608" data-name="パス 608" d="M67.891,424.281a3.989,3.989,0,0,1,2.953-1.15A4.035,4.035,0,0,1,73.8,424.36a4.822,4.822,0,0,1,1.147,3.529H68.3a3.449,3.449,0,0,0,.824,2.542,2.534,2.534,0,0,0,1.887.74,2.273,2.273,0,0,0,1.64-.492,1.805,1.805,0,0,0,.574-1.311h1.8a4.43,4.43,0,0,1-1.063,2.213,3.99,3.99,0,0,1-2.953,1.069,4.34,4.34,0,0,1-3.2-1.232,4.762,4.762,0,0,1-1.313-3.529A4.866,4.866,0,0,1,67.891,424.281Zm1.232.905a2.621,2.621,0,0,0-.74,1.389h4.677A2.03,2.03,0,0,0,72.4,425.1a2.229,2.229,0,0,0-1.64-.574A2.2,2.2,0,0,0,69.122,425.186Z" transform="translate(-20.802 -418.294)" fill="#363636"/>
          <path id="パス_609" data-name="パス 609" d="M74.317,422.015H75.96v3.2h2.79v1.319H75.96v5.326a1.252,1.252,0,0,0,.411.905,1.45,1.45,0,0,0,1.066.326,3.732,3.732,0,0,0,2.053-.574v1.558a4.094,4.094,0,0,1-1.971.495,3.264,3.264,0,0,1-2.379-.74,2.509,2.509,0,0,1-.821-1.805v-5.492H72.349v-1.319h1.968Z" transform="translate(-10.741 -420.212)" fill="#363636"/>
          <path id="パス_610" data-name="パス 610" d="M75.517,421.412h1.642v6.479a3.9,3.9,0,0,1,3.037-1.805,3.438,3.438,0,0,1,2.539.824,2.664,2.664,0,0,1,.821,1.966v6.561h-1.64v-6.148a2,2,0,0,0-.574-1.476A1.542,1.542,0,0,0,80.2,427.4a2.258,2.258,0,0,0-1.642.742,5.919,5.919,0,0,0-1.395,2.537v4.758H75.517Z" transform="translate(-5.296 -421.249)" fill="#363636"/>
          <path id="パス_611" data-name="パス 611" d="M80.684,424.281a4.26,4.26,0,0,1,5.905.079,4.81,4.81,0,0,1,1.147,3.529H81.094a3.459,3.459,0,0,0,.818,2.542,2.536,2.536,0,0,0,1.89.74,2.273,2.273,0,0,0,1.64-.492,1.816,1.816,0,0,0,.574-1.311h1.805a4.41,4.41,0,0,1-1.069,2.213,3.979,3.979,0,0,1-2.95,1.069,4.355,4.355,0,0,1-3.2-1.232,4.771,4.771,0,0,1-1.311-3.529A4.866,4.866,0,0,1,80.684,424.281Zm1.229.905a2.674,2.674,0,0,0-.737,1.389h4.677a2.041,2.041,0,0,0-.658-1.474,2.5,2.5,0,0,0-3.282.084Z" transform="translate(1.188 -418.294)" fill="#363636"/>
          <path id="パス_612" data-name="パス 612" d="M85.233,435.539l5.579-14.187h1.64l5.579,14.187H96.062l-1.724-4.263H88.923L87.2,435.539Zm6.395-11.482L89.5,429.715h4.266Z" transform="translate(11.405 -421.352)" fill="#363636"/>
          <path id="パス_613" data-name="パス 613" d="M90.664,421.382h6.89a3.678,3.678,0,0,1,2.708,1.063,4.623,4.623,0,0,1,0,5.906,2.844,2.844,0,0,1-1.64.739l3.2,6.319H99.77l-2.953-6.069H92.548v6.069H90.664Zm1.884,1.558v4.837h4.842a1.89,1.89,0,0,0,1.395-.576,2.464,2.464,0,0,0,.574-1.8,2.435,2.435,0,0,0-.655-1.8,2.123,2.123,0,0,0-1.561-.655Z" transform="translate(20.741 -421.3)" fill="#363636"/>
          <path id="パス_614" data-name="パス 614" d="M95.371,421.412H104.4v1.555H97.258v4.348H103.9v1.561H97.258v5.008h7.548v1.553H95.371Z" transform="translate(28.832 -421.249)" fill="#363636"/>
          <path id="パス_615" data-name="パス 615" d="M99.324,435.539l5.577-14.187h1.642l5.577,14.187h-1.966l-1.724-4.263h-5.416l-1.724,4.263Zm6.395-11.482-2.132,5.658h4.269Z" transform="translate(35.627 -421.352)" fill="#363636"/>
          <path id="パス_616" data-name="パス 616" d="M108.222,424.039a3.523,3.523,0,0,1,2.626-.908,4.034,4.034,0,0,1,2.953.908,2.588,2.588,0,0,1,.821,1.882v5.169a1.62,1.62,0,0,0,.655,1.392h-1.971a1.455,1.455,0,0,1-.326-1.063,4.246,4.246,0,0,1-3.119,1.232,3.219,3.219,0,0,1-2.379-.821,2.374,2.374,0,0,1-.737-1.724,2.559,2.559,0,0,1,.737-1.887,4.137,4.137,0,0,1,2.295-1.066,11.6,11.6,0,0,0,1.729-.41,5.892,5.892,0,0,0,1.474-.492,1.576,1.576,0,0,0-.492-1.147,1.869,1.869,0,0,0-1.395-.489,2.231,2.231,0,0,0-1.639.489,2.024,2.024,0,0,0-.492.9h-1.808A3.836,3.836,0,0,1,108.222,424.039Zm4.758,3.771a7.843,7.843,0,0,1-.9.245c-.933.218-1.642.383-2.137.492a2.094,2.094,0,0,0-.982.492,1.245,1.245,0,0,0-.411.9,1.345,1.345,0,0,0,.411.99,1.606,1.606,0,0,0,1.066.242,3.106,3.106,0,0,0,2.295-.9,2.863,2.863,0,0,0,.658-.821Z" transform="translate(48.384 -418.294)" fill="#363636"/>
          <path id="パス_617" data-name="パス 617" d="M111.5,424.115a3.782,3.782,0,0,1,2.787-.984,3.9,3.9,0,0,1,2.871.908,2.5,2.5,0,0,1,.821,1.8h-1.64a1.423,1.423,0,0,0-.329-.816,2.526,2.526,0,0,0-1.805-.492,1.753,1.753,0,0,0-1.311.492,1.239,1.239,0,0,0-.413.9.762.762,0,0,0,.247.571,5.4,5.4,0,0,0,2.05.745c.71.163,1.313.329,1.805.487a2.756,2.756,0,0,1,.984.576,2.13,2.13,0,0,1,.658,1.558,2.543,2.543,0,0,1-.818,1.811,5.189,5.189,0,0,1-6.074,0,2.809,2.809,0,0,1-.818-2.053h1.64a1.735,1.735,0,0,0,.408,1.063,2.332,2.332,0,0,0,1.724.571,2.7,2.7,0,0,0,1.887-.487,1.119,1.119,0,0,0,.329-.824,1.143,1.143,0,0,0-.411-.734,2.213,2.213,0,0,0-1.066-.495q-1.476-.326-2.216-.576a2.913,2.913,0,0,1-1.311-.653,2.2,2.2,0,0,1-.74-1.561A2.468,2.468,0,0,1,111.5,424.115Z" transform="translate(54.868 -418.294)" fill="#363636"/>
          <path id="パス_618" data-name="パス 618" d="M118.491,423.07a5.95,5.95,0,0,1,8.366,0,8.426,8.426,0,0,1,0,10.832,5.937,5.937,0,0,1-8.366,0,8.435,8.435,0,0,1,0-10.832Zm1.395,1.066a7.481,7.481,0,0,0,0,8.7,3.786,3.786,0,0,0,5.579,0,7.493,7.493,0,0,0,0-8.7,3.781,3.781,0,0,0-5.579,0Z" transform="translate(65.189 -421.352)" fill="#363636"/>
          <path id="パス_619" data-name="パス 619" d="M122.074,421.412h2.05l6.561,11.074V421.412h1.887v14.024h-2.05l-6.563-11.072v11.072h-1.884Z" transform="translate(74.732 -421.249)" fill="#363636"/>
          <path id="パス_620" data-name="パス 620" d="M126.991,421.412h9.027v1.555h-7.137v4.348h6.642v1.561h-6.642v5.008h7.545v1.553h-9.435Z" transform="translate(83.184 -421.249)" fill="#363636"/>
        </g>
      </g>
      <g id="グループ_134" data-name="グループ 134" transform="translate(74.019 330.651)">
        <g id="グループ_133" data-name="グループ 133" transform="translate(61.679 48.46)">
          <g id="グループ_132" data-name="グループ 132">
            <path id="パス_621" data-name="パス 621" d="M110.86,458.994h-10.28V373.727a56.317,56.317,0,0,1-9.736,9.22,63.969,63.969,0,0,1-10.824,6.917V376.927A63.334,63.334,0,0,0,95.1,364.14a50.224,50.224,0,0,0,9.138-14.571h6.623Z" transform="translate(-77.042 -346.592)" fill="#363636"/>
            <path id="パス_622" data-name="パス 622" d="M112.742,463.851h-10.28a2.98,2.98,0,0,1-2.98-2.974V383.064q-2.264,2.076-4.948,4.13a67.076,67.076,0,0,1-11.341,7.232,2.978,2.978,0,0,1-4.269-2.681V378.809a2.987,2.987,0,0,1,1.422-2.545,60.525,60.525,0,0,0,14.375-12.183,47.511,47.511,0,0,0,8.614-13.687,2.979,2.979,0,0,1,2.784-1.92h6.623a2.98,2.98,0,0,1,2.98,2.977V460.877A2.978,2.978,0,0,1,112.742,463.851Zm-7.3-5.954h4.326V354.428h-1.656a56.06,56.06,0,0,1-8.869,13.535,66.316,66.316,0,0,1-14.359,12.485v6.232c1.884-1.177,3.9-2.588,6.033-4.214a53.936,53.936,0,0,0,9.228-8.725,2.979,2.979,0,0,1,5.3,1.868Z" transform="translate(-78.924 -348.474)" fill="#363636"/>
          </g>
        </g>
        <path id="パス_623" data-name="パス 623" d="M236.713,382.942c-1.7-10.8-7.249-21.542-15.617-30.251s-18.886-14.677-29.606-16.806a2.976,2.976,0,0,0-3.521,3.385c1.7,10.8,7.249,21.537,15.62,30.248A59.893,59.893,0,0,0,224.6,383.779a59.769,59.769,0,0,0-20.84,14.563,58.121,58.121,0,0,0-14.777,28.07,58.105,58.105,0,0,0-28.024,14.981,59.862,59.862,0,0,0-14.465,21.061A59.852,59.852,0,0,0,132.021,441.4,58.05,58.05,0,0,0,104,426.412a58.121,58.121,0,0,0-14.777-28.07,59.815,59.815,0,0,0-20.84-14.563A59.9,59.9,0,0,0,89.4,369.519c8.369-8.711,13.915-19.451,15.617-30.248a2.976,2.976,0,0,0-3.521-3.385c-10.721,2.129-21.235,8.1-29.6,16.806s-13.918,19.448-15.62,30.251a40.305,40.305,0,0,0,.022,1.517c1.55,10.816,6.944,21.637,15.188,30.463A58.086,58.086,0,0,0,98.8,431.659a58.019,58.019,0,0,0,16.523,27.366c8.771,8.306,19.554,13.777,30.357,15.4a2.76,2.76,0,0,0,.446.033h.016a1.885,1.885,0,0,1,.726,0,2.672,2.672,0,0,0,.44-.033c10.808-1.626,21.588-7.1,30.357-15.4a58.03,58.03,0,0,0,16.528-27.366A58.091,58.091,0,0,0,221.5,414.922c8.244-8.826,13.638-19.647,15.188-30.463a2.892,2.892,0,0,0,.016-.65A2.989,2.989,0,0,0,236.713,382.942Zm-28.831-17.551a52.875,52.875,0,0,1-13.059-22.51,54.747,54.747,0,0,1,35.033,36.45A52.935,52.935,0,0,1,207.881,365.391Zm-131.7-8.567a52.824,52.824,0,0,1,21.977-13.943A52.906,52.906,0,0,1,85.1,365.389a52.914,52.914,0,0,1-21.974,13.943A52.868,52.868,0,0,1,76.182,356.824Zm-.351,54.033a52.9,52.9,0,0,1-12.738-22.7,52.9,52.9,0,0,1,21.776,14.25,52.873,52.873,0,0,1,12.738,22.7A52.976,52.976,0,0,1,75.832,410.857ZM119.419,454.7a52.845,52.845,0,0,1-14.1-21.876,54.771,54.771,0,0,1,36.7,34.775A52.858,52.858,0,0,1,119.419,454.7Zm54.144,0a52.867,52.867,0,0,1-22.6,12.9,54.767,54.767,0,0,1,36.7-34.775A52.845,52.845,0,0,1,173.563,454.7Zm43.587-43.842a52.967,52.967,0,0,1-21.779,14.25,54.764,54.764,0,0,1,34.517-36.947A52.9,52.9,0,0,1,217.15,410.857Z" transform="translate(-56.239 -321.751)" fill="#363636"/>
        <path id="パス_624" data-name="パス 624" d="M118.454,385.533a2.242,2.242,0,0,1-.421-.041c-10.286-1.838-20.541-8.032-28.888-17.428a68.7,68.7,0,0,1-16.2-33.358,3.809,3.809,0,0,1,.721-3,2.568,2.568,0,0,1,2.48-1.014c10.286,1.838,20.547,8.023,28.888,17.428a68.724,68.724,0,0,1,16.131,33,3.987,3.987,0,0,1,.139,1.047,3.136,3.136,0,0,1-2.836,3.369h-.016ZM79.627,338.414A62.137,62.137,0,0,0,93.04,363.173c6.327,7.124,13.837,12.2,21.515,14.592a62.122,62.122,0,0,0-13.415-24.753C94.813,345.886,87.3,340.815,79.627,338.414Z" transform="translate(-27.62 -330.651)" fill="#363636"/>
        <path id="パス_625" data-name="パス 625" d="M91.106,385.532a2.641,2.641,0,0,1-2.058-1.055,3.8,3.8,0,0,1-.72-2.994,68.658,68.658,0,0,1,16.194-33.366c8.342-9.4,18.6-15.59,28.891-17.428a2.577,2.577,0,0,1,2.48,1.014,3.8,3.8,0,0,1,.718,3,68.668,68.668,0,0,1-16.194,33.358c-8.344,9.4-18.606,15.59-28.891,17.428A2.211,2.211,0,0,1,91.106,385.532Zm38.826-47.119c-7.678,2.4-15.185,7.472-21.509,14.6A62.056,62.056,0,0,0,95,377.764c7.678-2.4,15.188-7.469,21.512-14.592A62.076,62.076,0,0,0,129.932,338.414Z" transform="translate(-1.183 -330.65)" fill="#363636"/>
      </g>
    </g>
  </g>
</svg>
