<svg xmlns="http://www.w3.org/2000/svg" width="400" height="350" viewBox="0 0 400 350">
  <g id="logo_9" transform="translate(-698 -1184)">
    <rect id="長方形_21" data-name="長方形 21" width="400" height="350" transform="translate(698 1184)" fill="none"/>
    <g id="グループ_163" data-name="グループ 163" transform="translate(764.07 1209.227)">
      <path id="パス_640" data-name="パス 640" d="M111.117,55.944q.168,4.1-6.63,5.765-5.5.572-18.187,5.74l-5.9,3.5q-2.368.462-9-5.327-.373-1.412,5.8-4.459l13.977-4.6,3.213-1.519,1,.378A24.515,24.515,0,0,1,106.006,53.1l4.529,1.943Z" transform="translate(143.635 108.288)" fill="#363636"/>
      <path id="パス_641" data-name="パス 641" d="M89.605,89.687q-4.1.163-5.761-6.626-.572-5.5-5.74-18.194l-3.5-5.9q-.473-2.357,5.324-9,1.407-.373,4.459,5.8l4.6,13.977L90.5,72.959l-.378,1a24.476,24.476,0,0,1,2.321,10.616l-1.936,4.536Z" transform="translate(151.601 100.448)" fill="#363636"/>
      <g id="グループ_154" data-name="グループ 154" transform="translate(13.93 9.773)">
        <path id="パス_642" data-name="パス 642" d="M43.715,69.438l1.509.819.728,1.169,3.168.651,7.676,6.16,9.269,9.538-.683.129q10.926,17.5,5.306,25.482-7.87,10.8-22.724,10.774-10.438-2.389-15.233-23.973Q31.859,82,34.782,75.994,38.919,70.25,43.715,69.438Zm-.2,14.26q-2.373,19.552,8.74,31.268,7.461,2.289,7.935-3.206.53-13.6-16.336-27.992Z" transform="translate(32.577 139.405)" fill="#363636"/>
        <path id="パス_643" data-name="パス 643" d="M54.232,68.811l1.505.819.728,1.166,3.171.655,7.673,6.157,9.269,9.538-.683.129q10.926,17.5,5.306,25.485-7.87,10.795-22.724,10.774Q48.04,121.145,43.245,99.561q-.872-18.2,2.051-24.194Q49.433,69.618,54.232,68.811Zm-.2,14.26q-2.373,19.552,8.74,31.268,7.461,2.284,7.939-3.206.52-13.6-16.339-28Z" transform="translate(58.865 137.838)" fill="#363636"/>
        <path id="パス_644" data-name="パス 644" d="M78.931,59.988q15.578,6.285,21.558,28.559l-2,4.288h-.97l-5.313,5.978H83.887q-.31,3.014,6.332,7.967l4.295-1.327,3.98-8.94q2.657-3.318,7.666.308,1.633,2.657-8.992,18.593-6.637,6.332-9.6,6.336-11.95-2.657-15.933-21.25l-2-3.017.973-9.6-.669-10.984,5.67-15.58Zm1.124,20.893,1.33,7.613,5.975-.97-5.618-8.992-1.022.357Z" transform="translate(125.345 115.778)" fill="#363636"/>
        <path id="パス_645" data-name="パス 645" d="M31.5,26.972l3.014.263,21.25,12.338,1.33-2.6q-1.024-1.15,2.3-12.6-1.633-8.857,6.335-14.32,4.956.882,4.648,3.171v5.418L74.36,36.71l5.621,15.727q2.651,6.878,10.623,15.2.362,4.584-8.632,10H80.338l-2.352-2.867-.966.308V72.794Q66.031,57.022,64.041,45.565L61.08,47.588l.308.84H59.75q-4.647,4.888-6.64,4.319L42.791,48.166l-.3-.882-1.33.3,2.657,32.349q-5.975,7.177-9.3,7.445-2-.263-5.005-10.882L26.189,35.253Q28.184,29.53,31.5,26.972Z" transform="translate(16.721 -9.068)" fill="#363636"/>
        <path id="パス_646" data-name="パス 646" d="M19.243,49.911l3.014.3,21.25,14.306,1.327-3.014q-1.024-1.328,2.3-14.61Q45.5,36.628,53.469,30.3q4.951,1.019,4.648,3.679v6.283L62.1,61.2l5.618,18.236q2.657,7.975,10.627,17.624.357,5.313-8.632,11.6H68.079l-2.352-3.325-.966.361v-2.657Q53.772,84.751,51.782,71.47l-2.961,2.349.3.97H47.491q-4.647,5.67-6.64,5.009L30.532,74.483l-.308-1.022-1.327.357,2.657,37.5q-5.975,8.327-9.3,8.635-2-.31-5.009-12.618L13.93,59.516Q15.925,52.874,19.243,49.911Z" transform="translate(-13.93 41.54)" fill="#363636"/>
        <path id="パス_647" data-name="パス 647" d="M45.8,10.582q6.642,2,7.666,9.6,3.98,14.3,9.3,18.289c1.327,0,9.083-5.632,9.734-7.4q-1.334-2,.357-13.637,3.318-8.28,5.31-7.613,5.319,1.633,5.317,4.648c-2.013,5.072,5.38,35.069,13.347,54.111l1.022,7.659Q90.187,91.156,87.534,90.188q-10.931,0-23.245-5.313l-2.958-1.992L58.979,79.2q1.328-9.96,3.983-11.953,3.681-.31,5.674,3.679Q81.552,75.881,85.9,75.578q-3.964-13.425-7.925-26.854-1.229-4.164-2.457-8.331c-.588,2.331-3.745,2.919-5.551,3.752A13.474,13.474,0,0,0,65.4,47.852c-2.632,2.979-5.74,6.836-10.007,4.074-4.564-2.954-7.463-9.573-9.458-14.358a133.413,133.413,0,0,1-5.086-15.034Q43.151,12.575,45.8,10.582Z" transform="translate(53.38 -9.773)" fill="#363636"/>
        <path id="パス_648" data-name="パス 648" d="M34.716,65.314l3,.266L58.9,77.918l1.323-2.6q-1.019-1.145,2.293-12.6-1.633-8.857,6.314-14.32,4.941.882,4.634,3.171V56.99l3.973,18.061,5.6,15.73q2.651,6.878,10.6,15.2.357,4.584-8.607,10H83.4l-2.342-2.867-.966.312v-2.293Q69.138,95.364,67.153,83.907L64.2,85.934l.3.837H62.876q-4.636,4.888-6.619,4.319L45.966,86.508l-.3-.882-1.327.308,2.646,32.342q-5.954,7.188-9.265,7.449-1.99-.257-4.991-10.879L29.417,73.6Q31.407,67.871,34.716,65.314Z" transform="translate(24.792 86.797)" fill="#363636"/>
        <path id="パス_649" data-name="パス 649" d="M47.958,49.128q6.642,2,7.666,9.6,3.985,14.3,9.3,18.289c1.327,0,9.087-5.632,9.734-7.4q-1.334-2,.357-13.641,3.324-8.275,5.31-7.61Q85.64,50,85.638,53.016C83.629,58.088,88.932,74.841,96.9,93.882l1.022,7.659q-7.666,14.916-10.319,13.945-10.931,0-23.245-5.313L61.4,108.184l-2.352-3.679q1.328-9.965,3.987-11.957,3.675-.3,5.67,3.679,12.921,4.951,17.267,4.648c-2.643-8.95-3.2-4.655-5.838-13.606Q78.9,83.1,77.675,78.939c-.588,2.331-3.749,2.916-5.551,3.752A13.452,13.452,0,0,0,67.556,86.4c-2.632,2.979-5.74,6.833-10,4.071-4.568-2.951-7.466-9.57-9.461-14.355A134.125,134.125,0,0,1,43,61.081Q45.3,51.116,47.958,49.128Z" transform="translate(58.765 86.602)" fill="#363636"/>
        <path id="パス_650" data-name="パス 650" d="M37.2,30.192l4.347,3.322q-2,6.636.3,21.611l.669-.361,1.022,8.327.662-.361q-1.024,2,3.322,13.284l.97-1.33-.308-2.958,5.317-21.919q-4.347-9.3,4.953-17.62,5.009-.667,7.305,11.953Q72.1,72.692,76.082,76.375l-.665,2.657L73.425,80,71.434,83.68,66.785,87Q63.1,85.979,58.458,70.036q-1.638,11.651-5.313,16.6l-9.3,7q-3.628-.357-5.621-5.005l-2.653-6.283q-6.642-20.587-5.674-35.2Q30.929,33.206,37.2,30.192Z" transform="translate(25.692 41.28)" fill="#363636"/>
        <path id="パス_651" data-name="パス 651" d="M49.538,28.963l3.042,1.169L67.015,43.4l9.874,6.076q1.517,3.455-9.115,9.878L54.855,51q.761,6.085,3.451,7.6.352,1.517,25.422,1.929,6.495,4.153,5.73,7.186L88.7,73.794,85.251,80.63l.406,1.169-1.516,1.523.756,1.11L80.69,91.268,81.1,93.2l-2.275,2.632q.761,2.279-3.038,7.6l-6.84,5.726-2.282-1.519.354-2.279Q56.026,90.508,50.707,87.12l-1.169-2.688,6.08-11.4q-13.677-3.04-14.029-21.625l.76-12.566,5.32-9.115Zm8.649,45.416L71.516,90.333l1.869-2.279,3.8-11.043-1.516-3.042Z" transform="translate(55.225 38.207)" fill="#363636"/>
        <path id="パス_652" data-name="パス 652" d="M60.2,31.564q5.67.357,7,9.962,0,7.666,5.313,25.9l3.983,8.635q.31,3.324-8.632,11.645-2,.31-5.313-8.632L58.2,59.15,56.57,54.5l.662-1.327q-2.657-8.637-1.684-14.967l3.318-5.978Z" transform="translate(89.475 44.71)" fill="#363636"/>
        <path id="パス_653" data-name="パス 653" d="M69.632,64q5.67.357,7,9.962,0,7.66,5.317,25.895l3.983,8.635q.3,3.324-8.632,11.649-2,.31-5.317-8.635l-4.34-19.92-1.635-4.648.665-1.327q-2.657-8.637-1.687-14.971l3.322-5.975Z" transform="translate(113.072 125.814)" fill="#363636"/>
        <path id="パス_654" data-name="パス 654" d="M69.392,28.166q5.413-.971,14.358,5.824c.816-4.97,2.786-4.274,4.932-7.512q2.552-.914,6.027,1.943c.41,11.2,2.051,16.007,5.9,24.008q0,3.885-7.97,11.292l-2.5-.921q-1.943-7.765-8.989-14.253-6.337-6.18-12.107-7.1.709,12.26,8.989,25.849l9.857,11.953,5.369,3.217,3.217-.613-.308-1.33,1.635-.921q0-2.956,3.731-7.1l4.8.921,1.33,2.3Q104.439,88.034,91,96.057q-7.256,1.685-20.638-16.143A98.071,98.071,0,0,1,59.231,51.768l.714-9.4Q61.478,31.388,69.392,28.166Z" transform="translate(99.335 31.44)" fill="#363636"/>
        <path id="パス_655" data-name="パス 655" d="M62.726,106.507q4.92-1.029,13.206,5.369c.651-4.809-8.768-56.5-6.871-59.655,1.544-.62,8.845.588,10.991,2.384.585,10.8,7.942,67.107,11.6,74.759q.074,3.744-7.064,11.029l-2.3-.844a28.223,28.223,0,0,0-8.464-13.588q-5.9-5.849-11.176-6.64c.581,7.879-1.607,8.026,3.591,16.668l9.216,11.355,4.956,3.01,1.414-4.736-.361.637,4.631-5.674c-.038-1.9,4.361-4.207,6.577-6.913l1.089.8,1.257,2.195c-1.81,7.953,3.763,20.452-16.406,26.84-4.337,1.369-10.77-3.906-19.129-15.212-5.047-8.842-3.525-9.717-5.593-18.842l.48-9.08Q55.562,109.75,62.726,106.507Z" transform="translate(85.983 95.949)" fill="#363636"/>
        <path id="パス_656" data-name="パス 656" d="M66.553,57.4q9.671.1,11.463,3.518l-.683,6.454L68.762,78.9l-2.513.861L63.991,76.5l.392-15.468Z" transform="translate(111.236 109.3)" fill="#363636"/>
        <path id="パス_657" data-name="パス 657" d="M69.59,119.051Q62.565,88.919,62.26,76.2,60.3,60.293,53.572,59.862L52.029,61,48.336,71.024q-.893,10.543,2.6,24.8l-.728,2.223,2.118,7.669,1.74,9.643L35.938,117.3l-7.655-22q-.987-9.046-8.219-9.188l-1.859.371-2.573,4.256c-.693,1.876,11.666,50.327,14.043,64.471q.551,7.986,4,8.6l5.541-4.659.357-2.1L39.3,130.473l17.106-2.111,1.859,10.315q4.295,14.748,6.637,14.18,10.249-14.082,9.748-19.587Z" transform="translate(-9.742 115.463)" fill="#363636"/>
      </g>
    </g>
  </g>
</svg>
