<svg xmlns="http://www.w3.org/2000/svg" width="400" height="350" viewBox="0 0 400 350">
  <g id="logo_3" transform="translate(-714 -1184)">
    <rect id="長方形_21" data-name="長方形 21" width="400" height="350" transform="translate(714 1184)" fill="none"/>
    <g id="グループ_68" data-name="グループ 68" transform="translate(681.758 933.206)">
      <g id="グループ_69" data-name="グループ 69" transform="translate(151.818 507.151)">
        <g id="グループ_68-2" data-name="グループ 68">
          <path id="パス_372" data-name="パス 372" d="M108.195,371.876a6.005,6.005,0,0,1-4.381-1.778c-1.642-1.645-1.6-3.674-1.6-6.478s-.046-4.84,1.6-6.481a5.992,5.992,0,0,1,4.381-1.778,5.917,5.917,0,0,1,4.518,1.873l-2.1,2.094a3.038,3.038,0,0,0-2.417-1.137,2.58,2.58,0,0,0-2.01.84c-.612.684-.8,1.462-.8,4.589s.186,3.9.8,4.583a2.584,2.584,0,0,0,2.01.847,3.044,3.044,0,0,0,2.417-1.143l2.1,2.1A5.916,5.916,0,0,1,108.195,371.876Z" transform="translate(-102.218 -354.653)" fill="#363636"/>
          <path id="パス_373" data-name="パス 373" d="M113.07,371.645v-7.257a1.933,1.933,0,1,0-3.853,0v7.257H106.25V355.4h2.967v5.452a3.928,3.928,0,0,1,2.85-1.234c2.6,0,3.97,1.827,3.97,4.335v7.69Z" transform="translate(-93.118 -354.558)" fill="#363636"/>
          <path id="パス_374" data-name="パス 374" d="M116.908,368.722v-1.029a3.612,3.612,0,0,1-2.918,1.143,4.068,4.068,0,0,1-3.036-1.049,3.814,3.814,0,0,1-.98-2.671c0-1.892,1.3-3.443,4.062-3.443h2.8v-.6c0-1.3-.638-1.87-2.215-1.87a2.544,2.544,0,0,0-2.28.984l-1.892-1.85a5,5,0,0,1,4.289-1.645c3.329,0,5.065,1.417,5.065,4.2v7.827Zm-.068-5.019h-2.352c-1.072,0-1.664.5-1.664,1.345,0,.824.55,1.371,1.71,1.371a2.354,2.354,0,0,0,1.873-.573,1.953,1.953,0,0,0,.433-1.5Z" transform="translate(-84.712 -351.636)" fill="#363636"/>
          <path id="パス_375" data-name="パス 375" d="M120.426,360.075a1.985,1.985,0,0,0-3.492,1.485v7.162h-2.964V356.834h2.9v1.143a4.031,4.031,0,0,1,2.99-1.28,3.586,3.586,0,0,1,2.8,1.12Z" transform="translate(-75.691 -351.636)" fill="#363636"/>
          <path id="パス_376" data-name="パス 376" d="M121.552,370.821a3.224,3.224,0,0,1-3.443-3.4v-5.885h-1.254v-2.257h1.254v-3.511h2.964v3.511h2.1v2.257h-2.1v5.7c0,.684.319,1.072,1.026,1.072h1.075v2.511Z" transform="translate(-69.182 -353.735)" fill="#363636"/>
          <path id="パス_377" data-name="パス 377" d="M122.356,363.7a2.453,2.453,0,0,0,2.6,2.645,3.29,3.29,0,0,0,2.694-1.117l1.8,1.756a5.648,5.648,0,0,1-4.514,1.873c-2.808,0-5.5-1.28-5.5-6.09,0-3.879,2.1-6.071,5.175-6.071,3.309,0,5.179,2.42,5.179,5.68V363.7Zm4.244-3.309a2.216,2.216,0,0,0-3.97,0,3.3,3.3,0,0,0-.274,1.28h4.517A3.3,3.3,0,0,0,126.6,360.394Z" transform="translate(-63.352 -351.636)" fill="#363636"/>
          <path id="パス_378" data-name="パス 378" d="M129.911,360.075a1.985,1.985,0,0,0-3.492,1.485v7.162h-2.964V356.834h2.9v1.143a4.031,4.031,0,0,1,2.99-1.28,3.586,3.586,0,0,1,2.8,1.12Z" transform="translate(-54.283 -351.636)" fill="#363636"/>
          <path id="パス_379" data-name="パス 379" d="M133.818,371.876a7.626,7.626,0,0,1-5.931-2.143l2.052-2.055a5.319,5.319,0,0,0,3.925,1.371c1.87,0,2.873-.71,2.873-2.01a1.82,1.82,0,0,0-.5-1.371,2.439,2.439,0,0,0-1.436-.567l-1.964-.274a5.549,5.549,0,0,1-3.146-1.345,4.3,4.3,0,0,1-1.163-3.2c0-2.9,2.143-4.928,5.654-4.928a6.958,6.958,0,0,1,5.247,1.892l-2.006,1.987a4.507,4.507,0,0,0-3.329-1.12c-1.69,0-2.511.935-2.511,2.055a1.567,1.567,0,0,0,.479,1.163,2.792,2.792,0,0,0,1.5.638l1.918.274a5.368,5.368,0,0,1,3.1,1.254,4.543,4.543,0,0,1,1.257,3.446C139.84,370.1,137.215,371.876,133.818,371.876Z" transform="translate(-44.282 -354.653)" fill="#363636"/>
          <path id="パス_380" data-name="パス 380" d="M135.141,363.7a2.453,2.453,0,0,0,2.6,2.645,3.29,3.29,0,0,0,2.694-1.117l1.8,1.756a5.655,5.655,0,0,1-4.518,1.873c-2.8,0-5.5-1.28-5.5-6.09,0-3.879,2.1-6.071,5.179-6.071,3.309,0,5.179,2.42,5.179,5.68V363.7Zm4.241-3.309a2.213,2.213,0,0,0-3.967,0,3.3,3.3,0,0,0-.274,1.28h4.514A3.188,3.188,0,0,0,139.381,360.394Z" transform="translate(-34.505 -351.636)" fill="#363636"/>
          <path id="パス_381" data-name="パス 381" d="M142.692,360.075a1.983,1.983,0,0,0-3.488,1.485v7.162h-2.967V356.834h2.9v1.143a4.023,4.023,0,0,1,2.987-1.28,3.593,3.593,0,0,1,2.808,1.12Z" transform="translate(-25.436 -351.636)" fill="#363636"/>
          <path id="パス_382" data-name="パス 382" d="M145.645,368.627H143.32l-4.381-11.888h3.123l2.42,7.348,2.4-7.348H150Z" transform="translate(-19.338 -351.541)" fill="#363636"/>
          <path id="パス_383" data-name="パス 383" d="M144.627,358.859a1.881,1.881,0,0,1-1.873-1.87,1.861,1.861,0,0,1,1.873-1.847,1.839,1.839,0,0,1,1.847,1.847A1.859,1.859,0,0,1,144.627,358.859Zm-1.485,13.37V360.341h2.967v11.888Z" transform="translate(-10.727 -355.143)" fill="#363636"/>
          <path id="パス_384" data-name="パス 384" d="M149.932,368.859c-2.371,0-5.315-1.28-5.315-6.09s2.944-6.071,5.315-6.071a5.069,5.069,0,0,1,3.925,1.6l-2.01,2.01a2.394,2.394,0,0,0-1.915-.935,2.053,2.053,0,0,0-1.687.772,4.041,4.041,0,0,0-.661,2.625,4.1,4.1,0,0,0,.661,2.645,2.056,2.056,0,0,0,1.687.775,2.394,2.394,0,0,0,1.915-.935l2.01,1.987A5.084,5.084,0,0,1,149.932,368.859Z" transform="translate(-6.525 -351.636)" fill="#363636"/>
          <path id="パス_385" data-name="パス 385" d="M150.9,363.7a2.453,2.453,0,0,0,2.6,2.645,3.294,3.294,0,0,0,2.694-1.117l1.8,1.756a5.655,5.655,0,0,1-4.517,1.873c-2.8,0-5.5-1.28-5.5-6.09,0-3.879,2.1-6.071,5.179-6.071,3.309,0,5.179,2.42,5.179,5.68V363.7Zm4.241-3.309a2.213,2.213,0,0,0-3.967,0,3.3,3.3,0,0,0-.274,1.28h4.514A3.3,3.3,0,0,0,155.138,360.394Z" transform="translate(1.059 -351.636)" fill="#363636"/>
        </g>
      </g>
      <g id="グループ_71" data-name="グループ 71" transform="translate(104.833 541.35)">
        <g id="グループ_70" data-name="グループ 70">
          <path id="パス_386" data-name="パス 386" d="M98.807,382.145l-.958-2.876H92.078l-.98,2.876H87.792L93.7,365.9h2.488l5.931,16.243Zm-3.785-11.452L92.967,376.6h4.039Z" transform="translate(-87.792 -365.058)" fill="#363636"/>
          <path id="パス_387" data-name="パス 387" d="M94.487,369.359a1.879,1.879,0,0,1-1.873-1.87,1.859,1.859,0,0,1,1.873-1.847,1.839,1.839,0,0,1,1.847,1.847A1.859,1.859,0,0,1,94.487,369.359ZM93,382.729V370.841h2.967v11.888Z" transform="translate(-76.909 -365.643)" fill="#363636"/>
          <path id="パス_388" data-name="パス 388" d="M101.113,370.575a1.983,1.983,0,0,0-3.488,1.485v7.162H94.658V367.334h2.9v1.143a4.023,4.023,0,0,1,2.987-1.28,3.593,3.593,0,0,1,2.808,1.12Z" transform="translate(-72.295 -362.136)" fill="#363636"/>
          <path id="パス_389" data-name="パス 389" d="M106.582,378.287a4.139,4.139,0,0,1-2.9,1.072,3.505,3.505,0,0,1-2.873-1.189v5.41H97.843V367.334h2.876v1.12a3.614,3.614,0,0,1,2.964-1.257,4.141,4.141,0,0,1,2.9,1.075c1.186,1.185,1.208,3.218,1.208,5S107.767,377.1,106.582,378.287Zm-3.765-8.416c-1.778,0-2.006,1.459-2.006,3.4s.228,3.42,2.006,3.42,2.006-1.482,2.006-3.42S104.6,369.871,102.816,369.871Z" transform="translate(-65.107 -362.136)" fill="#363636"/>
          <path id="パス_390" data-name="パス 390" d="M110.325,377.9a4.921,4.921,0,0,1-3.7,1.462,4.856,4.856,0,0,1-3.671-1.462c-1.075-1.114-1.348-2.462-1.348-4.628,0-2.146.274-3.492,1.348-4.609a4.869,4.869,0,0,1,3.671-1.462,4.933,4.933,0,0,1,3.7,1.462c1.072,1.117,1.345,2.462,1.345,4.609C111.67,375.434,111.4,376.783,110.325,377.9Zm-2.306-7.5a1.872,1.872,0,0,0-1.391-.521,1.818,1.818,0,0,0-1.368.521c-.616.616-.684,1.645-.684,2.876s.068,2.28.684,2.9a1.808,1.808,0,0,0,1.368.524,1.862,1.862,0,0,0,1.391-.524c.616-.616.684-1.664.684-2.9S108.634,371.008,108.019,370.392Z" transform="translate(-56.607 -362.136)" fill="#363636"/>
          <path id="パス_391" data-name="パス 391" d="M112.019,370.575a1.983,1.983,0,0,0-3.488,1.485v7.162h-2.967V367.334h2.9v1.143a4.017,4.017,0,0,1,2.987-1.28,3.586,3.586,0,0,1,2.8,1.12Z" transform="translate(-47.68 -362.136)" fill="#363636"/>
          <path id="パス_392" data-name="パス 392" d="M113.148,381.321a3.225,3.225,0,0,1-3.446-3.4v-5.885h-1.254v-2.257H109.7v-3.511h2.967v3.511h2.1v2.257h-2.1v5.7c0,.684.319,1.072,1.026,1.072h1.072v2.511Z" transform="translate(-41.171 -364.235)" fill="#363636"/>
          <path id="パス_393" data-name="パス 393" d="M119.949,368.732v13.413h-3.172V368.732h-4.241V365.9h11.657v2.83Z" transform="translate(-31.944 -365.058)" fill="#363636"/>
          <path id="パス_394" data-name="パス 394" d="M123.289,370.575a1.983,1.983,0,0,0-3.488,1.485v7.162h-2.967V367.334h2.9v1.143a4.017,4.017,0,0,1,2.987-1.28,3.582,3.582,0,0,1,2.8,1.12Z" transform="translate(-22.244 -362.136)" fill="#363636"/>
          <path id="パス_395" data-name="パス 395" d="M126.694,379.222v-1.029a3.612,3.612,0,0,1-2.918,1.143,4.073,4.073,0,0,1-3.036-1.049,3.814,3.814,0,0,1-.98-2.671c0-1.892,1.3-3.443,4.062-3.443h2.8v-.6c0-1.3-.638-1.869-2.212-1.869a2.547,2.547,0,0,0-2.283.984l-1.892-1.85a5,5,0,0,1,4.289-1.645c3.329,0,5.065,1.417,5.065,4.2v7.827Zm-.068-5.019h-2.352c-1.072,0-1.664.5-1.664,1.345,0,.824.55,1.371,1.713,1.371a2.351,2.351,0,0,0,1.87-.573,1.952,1.952,0,0,0,.433-1.5Z" transform="translate(-15.639 -362.136)" fill="#363636"/>
          <path id="パス_396" data-name="パス 396" d="M130.668,379.222v-7.185a1.982,1.982,0,1,0-3.948,0v7.185h-2.964V367.334h2.9v1.1a4.075,4.075,0,0,1,2.967-1.234,3.846,3.846,0,0,1,2.8,1.052,4.412,4.412,0,0,1,1.212,3.378v7.6Z" transform="translate(-6.618 -362.136)" fill="#363636"/>
          <path id="パス_397" data-name="パス 397" d="M132.472,379.359a6.458,6.458,0,0,1-5.061-1.713l1.938-1.935a4.326,4.326,0,0,0,3.172,1.114c1.023,0,2.094-.342,2.094-1.231,0-.593-.319-1-1.254-1.094l-1.87-.182c-2.143-.205-3.465-1.143-3.465-3.332,0-2.462,2.166-3.788,4.583-3.788a6.311,6.311,0,0,1,4.54,1.394l-1.824,1.847a4.131,4.131,0,0,0-2.762-.8c-1.186,0-1.687.547-1.687,1.14,0,.436.182.935,1.231,1.026l1.873.186c2.348.225,3.534,1.482,3.534,3.488C137.514,378.1,135.28,379.359,132.472,379.359Z" transform="translate(1.629 -362.136)" fill="#363636"/>
          <path id="パス_398" data-name="パス 398" d="M135.206,372.985v9.286h-2.964v-9.286h-1.234v-2.257h1.234v-1.482a3.239,3.239,0,0,1,3.466-3.4H137.4v2.508h-1.163c-.707,0-1.026.388-1.026,1.072v1.3H137.4v2.257Z" transform="translate(9.747 -365.185)" fill="#363636"/>
          <path id="パス_399" data-name="パス 399" d="M136.408,374.2a2.453,2.453,0,0,0,2.6,2.645,3.29,3.29,0,0,0,2.694-1.117l1.8,1.756a5.65,5.65,0,0,1-4.518,1.873c-2.8,0-5.5-1.28-5.5-6.091,0-3.879,2.1-6.071,5.179-6.071,3.309,0,5.179,2.42,5.179,5.68V374.2Zm4.241-3.309a2.213,2.213,0,0,0-3.967,0,3.3,3.3,0,0,0-.274,1.28h4.518A3.246,3.246,0,0,0,140.648,370.894Z" transform="translate(15.34 -362.136)" fill="#363636"/>
          <path id="パス_400" data-name="パス 400" d="M143.959,370.575a1.983,1.983,0,0,0-3.488,1.485v7.162H137.5V367.334h2.9v1.143a4.023,4.023,0,0,1,2.987-1.28,3.593,3.593,0,0,1,2.808,1.12Z" transform="translate(24.409 -362.136)" fill="#363636"/>
          <path id="パス_401" data-name="パス 401" d="M147.866,382.376a7.635,7.635,0,0,1-5.931-2.143l2.052-2.055a5.328,5.328,0,0,0,3.925,1.371c1.873,0,2.876-.71,2.876-2.009a1.809,1.809,0,0,0-.5-1.371,2.418,2.418,0,0,0-1.433-.567l-1.964-.274a5.549,5.549,0,0,1-3.146-1.345,4.3,4.3,0,0,1-1.166-3.2c0-2.9,2.146-4.928,5.657-4.928a6.958,6.958,0,0,1,5.247,1.892l-2.006,1.987a4.514,4.514,0,0,0-3.332-1.12c-1.687,0-2.508.935-2.508,2.055a1.567,1.567,0,0,0,.479,1.163,2.791,2.791,0,0,0,1.5.638l1.918.274a5.368,5.368,0,0,1,3.1,1.254,4.554,4.554,0,0,1,1.254,3.446C153.888,380.6,151.266,382.376,147.866,382.376Z" transform="translate(34.41 -365.153)" fill="#363636"/>
          <path id="パス_402" data-name="パス 402" d="M149.19,374.2a2.453,2.453,0,0,0,2.6,2.645,3.294,3.294,0,0,0,2.694-1.117l1.8,1.756a5.655,5.655,0,0,1-4.518,1.873c-2.8,0-5.5-1.28-5.5-6.091,0-3.879,2.1-6.071,5.179-6.071,3.306,0,5.179,2.42,5.179,5.68V374.2Zm4.241-3.309a2.216,2.216,0,0,0-3.97,0,3.3,3.3,0,0,0-.27,1.28H153.7A3.3,3.3,0,0,0,153.43,370.894Z" transform="translate(44.19 -362.136)" fill="#363636"/>
          <path id="パス_403" data-name="パス 403" d="M156.741,370.575a1.983,1.983,0,0,0-3.488,1.485v7.162h-2.967V367.334h2.9v1.143a4.023,4.023,0,0,1,2.987-1.28,3.593,3.593,0,0,1,2.808,1.12Z" transform="translate(53.258 -362.136)" fill="#363636"/>
          <path id="パス_404" data-name="パス 404" d="M159.694,379.127h-2.326l-4.381-11.888h3.123l2.42,7.348,2.394-7.348h3.127Z" transform="translate(59.357 -362.041)" fill="#363636"/>
          <path id="パス_405" data-name="パス 405" d="M158.673,369.359a1.88,1.88,0,0,1-1.87-1.87,1.861,1.861,0,0,1,1.87-1.847,1.84,1.84,0,0,1,1.85,1.847A1.859,1.859,0,0,1,158.673,369.359Zm-1.482,13.37V370.841h2.967v11.888Z" transform="translate(67.967 -365.643)" fill="#363636"/>
          <path id="パス_406" data-name="パス 406" d="M163.98,379.359c-2.371,0-5.315-1.28-5.315-6.091s2.944-6.071,5.315-6.071a5.069,5.069,0,0,1,3.925,1.6l-2.01,2.01a2.4,2.4,0,0,0-1.915-.935,2.053,2.053,0,0,0-1.687.772,4.041,4.041,0,0,0-.661,2.625,4.1,4.1,0,0,0,.661,2.645,2.055,2.055,0,0,0,1.687.775,2.4,2.4,0,0,0,1.915-.935l2.01,1.987A5.084,5.084,0,0,1,163.98,379.359Z" transform="translate(72.17 -362.136)" fill="#363636"/>
          <path id="パス_407" data-name="パス 407" d="M164.943,374.2a2.454,2.454,0,0,0,2.6,2.645,3.287,3.287,0,0,0,2.69-1.117l1.8,1.756a5.655,5.655,0,0,1-4.518,1.873c-2.8,0-5.5-1.28-5.5-6.091,0-3.879,2.1-6.071,5.179-6.071,3.306,0,5.179,2.42,5.179,5.68V374.2Zm4.244-3.309a2.216,2.216,0,0,0-3.97,0,3.363,3.363,0,0,0-.274,1.28h4.517A3.3,3.3,0,0,0,169.187,370.894Z" transform="translate(79.754 -362.136)" fill="#363636"/>
        </g>
      </g>
      <g id="グループ_80" data-name="グループ 80" transform="translate(80.242 287.794)">
        <g id="グループ_72" data-name="グループ 72" transform="translate(218.471 143.058)">
          <path id="パス_408" data-name="パス 408" d="M181.76,339.461l-13.412.114-.029-3.172,13.412-.114-.036-4.244,2.827-.023.1,11.657-2.827.023Z" transform="translate(-99.924 -331.029)" fill="#363636"/>
          <path id="パス_409" data-name="パス 409" d="M161.4,342.736l2.866-.987-.049-5.771-2.882-.954-.033-3.306,16.295,5.765.02,2.485-16.187,6.074Zm11.416-3.889-5.921-2,.033,4.035Z" transform="translate(-115.757 -331.717)" fill="#363636"/>
          <path id="パス_410" data-name="パス 410" d="M154.39,341.8l5.631-3.2-5.687-3.075L154.3,331.9l8.367,4.97,7.876-4.791.029,3.606-5.218,2.869,5.267,2.807.033,3.579L162.7,340.29l-8.283,5.14Z" transform="translate(-131.551 -331.304)" fill="#363636"/>
          <path id="パス_411" data-name="パス 411" d="M147.319,333.647l16.24-.14.026,3.169-16.236.14Z" transform="translate(-147.319 -327.677)" fill="#363636"/>
        </g>
        <g id="グループ_73" data-name="グループ 73" transform="translate(85.728 112.75)">
          <path id="パス_412" data-name="パス 412" d="M143.715,338.875c-2.466,0-4.322,3.436-4.322,7.993s1.856,7.993,4.322,7.993,4.322-3.436,4.322-7.993S146.177,338.875,143.715,338.875Zm0,14.376c-1.28,0-2.713-2.733-2.713-6.384s1.433-6.384,2.713-6.384,2.713,2.729,2.713,6.384S145,353.251,143.715,353.251Z" transform="translate(-32.465 -285.253)" fill="#363636"/>
          <path id="パス_413" data-name="パス 413" d="M131.946,340c-3.143,0-5.605,3.749-5.605,8.533s2.462,8.533,5.605,8.533,5.605-3.749,5.605-8.533S135.093,340,131.946,340Zm0,15.458c-2.166,0-3.993-3.169-3.993-6.924s1.827-6.924,3.993-6.924,4,3.172,4,6.924S134.112,355.455,131.946,355.455Z" transform="translate(-61.924 -282.72)" fill="#363636"/>
          <path id="パス_414" data-name="パス 414" d="M224.806,378.221c1.648-3.622-.368-7.722-.7-8.348l-7.768-24.438-.108-.055c-4.228-6.82-16.705-8.856-19.92-9.273l.326-10.4-.547-.013c-.984-.7-4.82-2.824-14.321-1.8-10.764,1.153-12.816,7.231-13.031,8l-1.488,3.492h-.6c-6.726,0-16.51,6.469-18.015,7.491h-.007l-.173.121-.007.007h0L131.16,355.262a115.448,115.448,0,0,0-13.924,4.3c-3.137,1.319-6.638,10.028-7.524,12.344-2.28.462-3.055,3.615-3.15,5.573v6.934l6.26.345c.316,5.143,3.563,10.768,9.12,11.312.332.033.661.049.984.049,4.716,0,8.012-3.531,9.579-10.266l29.659,1.648-.072-.094h5.814c.6,5.876,4.224,10.406,8.589,10.406,4.384,0,8.016-4.573,8.592-10.488l25.753-3.179c.749,5.26,3.544,9.064,6.973,9.064,4.022,0,7.175-5.234,7.175-11.911a20.223,20.223,0,0,0-.238-3.1Zm-54.783-45.24,2.8.088V338.8l-5.208-.163Zm4.39-.459c2.378-4.449,14.914-5.289,20.565-5.237l-.27,8.615c-10.69-1.368-17.461.951-20.272,2.257v-5.635Zm7.53-7.029a30.962,30.962,0,0,1,9.9.244c-1.729.065-3.863.205-6.084.492-6.745.863-10.983,2.625-12.608,5.241l-2.472-.078C171.586,329.7,174.316,326.307,181.944,325.493ZM166.567,337l-1.352,3.172,8.4.261.212-.137a20.08,20.08,0,0,1,5.423-2.114,41.146,41.146,0,0,1,16.116-.567l.892.13,0-.016c2.667.368,10.979,1.791,15.94,5.635-15.637-7.126-26.03-3.439-27.359-2.912l-32.854,2.2C155.542,340.5,161.958,337.043,166.567,337Zm6.674,17.669-39.166.5,15.119-10.719,34.062-2.28ZM131.6,356.813l37.544-.479-2.707,1.039a36.287,36.287,0,0,0-8.149,2.58,26.283,26.283,0,0,0-6.55,4.123H118.109l1.287-3.638C124.161,358.663,130.792,357.012,131.6,356.813Zm1.4,11.957H136.2l-.479,1.876c-1.186.013-2.394.016-3.583.013Zm4.85,0h4.176l-.414,1.778c-1.3.029-2.736.059-4.237.078Zm5.83,0h4.2a15.657,15.657,0,0,0-.778,1.615c-.7.026-2.058.072-3.827.121Zm.378-1.609.345-1.475h5.7a16.89,16.89,0,0,0-1.2,1.479v0Zm-1.655,0h-4.143l.378-1.475h4.11Zm-5.8,0h-2.85l.684-1.475h2.544Zm-6.24,3.485c-1.905-.02-3.723-.068-5.3-.153v-4.807h7.6Zm-6.915-3.185-1.925-.192.134-1.583h1.791Zm-3.527-.352-2.788-.283.4-1.14h2.5Zm-3.338,1.28,3.208.322-.107,1.28c-1.381-.173-2.534-.352-3.482-.524Zm4.811.485,2.055.205v1.306l-.208-.016c-.694-.062-1.339-.127-1.954-.192Zm44.156-9.667-2.449,9.478-14.155,1.534C152.536,362.838,162.138,360,165.551,359.207Zm-47.689,1.837c.28-.117.573-.238.876-.355l-3.071,8.68a27.049,27.049,0,0,1-2.863-.674C114.4,365.206,116.4,361.659,117.862,361.044Zm4.237,33.42c-4.6-.45-7.315-5.2-7.651-9.618l16.422.912C129.365,391.953,126.421,394.891,122.1,394.464Zm-13.924-11.579,0-5.371c0-.042.277-4.065,2.12-4.065h39.322L158.8,385.7ZM176.495,396.2c-3.9,0-7.068-4.719-7.068-10.523s3.169-10.523,7.068-10.523,7.065,4.723,7.065,10.523S180.39,396.2,176.495,396.2Zm-12.048-26.278,15.087-10.247,35.212-.72.228-.238c2.3-2.384-.163-9.9-.681-11.38l-.078-.221-.186-.147a15.4,15.4,0,0,0-3.863-2.026l-.013-.049-.062.02c-7.094-2.716-18.94-4.068-21.073-3.049-2.361,1.13-8.494,12.448-9.7,14.705l-.694,1.778-13.569,9.214,2.273-8.8,6.794-2.612,11.4-14.223a24.516,24.516,0,0,1,8.025-1.254c4.732-.036,12.266.941,21.454,5.876l7.6,23.89.062.146a10.879,10.879,0,0,1,1.16,4.12c-1.27-3.224-3.462-5.315-6.006-5.315-4.022,0-7.175,5.231-7.175,11.911,0,.42.013.834.039,1.244l-25.506,3.149v-.016c0-6.69-3.892-12.132-8.677-12.132s-8.677,5.443-8.677,12.132l0,.12h-6.937l-10.465-13.953m58.428-25.7,3.407,11.253-9.615.2-2.746-13.654A54.788,54.788,0,0,1,208.847,346.139Zm5.146,11.217-.068,0-3.159-10.449a12.064,12.064,0,0,1,2.084,1.182C213.908,351.211,214.866,355.836,213.993,357.357Zm-15.8-13.686L201,357.624l-20.536.42.3-.759c2.892-5.42,7.569-13.308,8.947-13.969C190.526,342.925,194.053,343.071,198.2,343.671Zm19.617,47.924c-3.016,0-5.563-4.716-5.563-10.3s2.547-10.3,5.563-10.3,5.563,4.716,5.563,10.3S220.829,391.595,217.813,391.595Z" transform="translate(-106.563 -319.687)" fill="#363636"/>
          <path id="パス_415" data-name="パス 415" d="M131.795,325.831s-2.752.059-3.733,2.319v2.511l3.733-1.257Z" transform="translate(-58.039 -314.693)" fill="#363636"/>
          <path id="パス_416" data-name="パス 416" d="M140.572,331.016v-5.8s-9.129.7-10.647,2.534v3.263S138.354,329.413,140.572,331.016Z" transform="translate(-53.834 -316.077)" fill="#363636"/>
          <path id="パス_417" data-name="パス 417" d="M136.117,327.664a.8.8,0,0,0,.58-.247l3.5-3.641a.805.805,0,1,0-1.16-1.117l-3.5,3.645a.8.8,0,0,0,.58,1.361Z" transform="translate(-41.677 -322.411)" fill="#363636"/>
          <path id="パス_418" data-name="パス 418" d="M135.818,326.092a.807.807,0,0,0,.8.707c.033,0,.068,0,.1-.006l5.14-.648a.8.8,0,0,0-.2-1.6l-5.14.645A.806.806,0,0,0,135.818,326.092Z" transform="translate(-40.547 -317.603)" fill="#363636"/>
          <path id="パス_419" data-name="パス 419" d="M141.858,327.708l-5.179-1.57a.805.805,0,0,0-.469,1.54l5.182,1.57a.735.735,0,0,0,.235.036.805.805,0,0,0,.231-1.576Z" transform="translate(-40.933 -314.079)" fill="#363636"/>
        </g>
        <g id="グループ_74" data-name="グループ 74" transform="translate(196.656 17.953)">
          <path id="パス_420" data-name="パス 420" d="M157.3,298.866l-5.364,12.292-2.909-1.27,5.368-12.289-3.886-1.7,1.127-2.592,10.683,4.667-1.127,2.589Z" transform="translate(-121.653 -293.306)" fill="#363636"/>
          <path id="パス_421" data-name="パス 421" d="M154.752,317.213l.274-3.016-5.289-2.309-2.049,2.237-3.032-1.322,11.914-12.52,2.277,1-1.062,17.253Zm1.114-12.012-4.247,4.592,3.7,1.616Z" transform="translate(-131.516 -277.559)" fill="#363636"/>
          <path id="パス_422" data-name="パス 422" d="M151.04,324.782l-.622-6.452-5.13,3.938-3.322-1.449,7.954-5.618-1.159-9.139,3.3,1.443.5,5.934,4.713-3.664,3.283,1.433-7.5,5.361,1.313,9.664Z" transform="translate(-137.585 -264.518)" fill="#363636"/>
          <path id="パス_423" data-name="パス 423" d="M140.621,327.96l6.5-14.888,2.905,1.274-6.5,14.878Z" transform="translate(-140.621 -248.694)" fill="#363636"/>
        </g>
        <g id="グループ_75" data-name="グループ 75" transform="translate(75.065 20.226)">
          <path id="パス_424" data-name="パス 424" d="M111.168,298.482l6.25,11.869-2.808,1.479-6.25-11.869-3.752,1.977-1.319-2.5L113.6,294l1.316,2.5Z" transform="translate(-103.289 -294.004)" fill="#363636"/>
          <path id="パス_425" data-name="パス 425" d="M119.883,314l-2.189-2.1-5.107,2.687.476,3-2.928,1.544-2.342-17.122,2.2-1.156,12.816,11.6Zm-8.686-8.367.938,6.182,3.57-1.879Z" transform="translate(-93.123 -278.539)" fill="#363636"/>
          <path id="パス_426" data-name="パス 426" d="M125.692,322.208l-5.423-3.54-.13,6.462-3.208,1.691.58-9.719-7.866-4.8,3.189-1.681,4.947,3.322.078-5.97,3.169-1.664-.489,9.2,8.361,5.009Z" transform="translate(-88.943 -266.236)" fill="#363636"/>
          <path id="パス_427" data-name="パス 427" d="M121.79,329.041l-7.563-14.37,2.8-1.479,7.569,14.37Z" transform="translate(-78.602 -250.696)" fill="#363636"/>
        </g>
        <g id="グループ_76" data-name="グループ 76" transform="translate(0 139.922)">
          <path id="パス_428" data-name="パス 428" d="M83.157,335.3l13.409.163-.039,3.169-13.409-.156-.049,4.241-2.827-.033.137-11.657,2.827.029Z" transform="translate(-80.242 -330.149)" fill="#363636"/>
          <path id="パス_429" data-name="パス 429" d="M103.559,334.063l-2.889.925-.068,5.771,2.863,1.013-.036,3.306-16.171-6.1.029-2.485,16.308-5.739Zm-11.5,3.651,5.882,2.124.049-4.039Z" transform="translate(-64.407 -330.754)" fill="#363636"/>
          <path id="パス_430" data-name="パス 430" d="M110.592,334.588l-5.7,3.081,5.622,3.192-.042,3.625-8.266-5.14-7.97,4.628.046-3.6L99.56,337.6l-5.208-2.912.039-3.583,7.859,4.814,8.387-4.964Z" transform="translate(-48.653 -330.289)" fill="#363636"/>
          <path id="パス_431" data-name="パス 431" d="M117.495,335.939l-16.24-.192.039-3.172,16.24.2Z" transform="translate(-32.815 -326.646)" fill="#363636"/>
        </g>
        <g id="グループ_77" data-name="グループ 77" transform="translate(21.496 74.889)">
          <path id="パス_432" data-name="パス 432" d="M93.268,321.48a47.884,47.884,0,0,1,5.423-2.752,19.163,19.163,0,0,0-4.7-5.426l-3.176,6.022a27.5,27.5,0,0,1,3.573,8.195l-1.811.651a25.129,25.129,0,0,0-5.739-11.035l1.423-1.286c.469.534.935,1.117,1.417,1.775l3.182-6.048,1.322-.788c5.8,4.736,9.442,11.191,8.934,17.923l-2.084.345a16.411,16.411,0,0,0-1.456-8.589,34.482,34.482,0,0,0-5.521,2.749Z" transform="translate(-86.842 -310.787)" fill="#363636"/>
          <path id="パス_433" data-name="パス 433" d="M99.527,315.014l1.267-.889c5.908,4.938,8.758,10.442,8.312,17.406l-2.058.329a16.661,16.661,0,0,0-6.371-15.158L97.41,322.9a27.378,27.378,0,0,1,3.137,7.41l-1.808.681a26.873,26.873,0,0,0-5.785-11.133l1.436-1.26a26.33,26.33,0,0,1,1.909,2.54Z" transform="translate(-73.047 -303.253)" fill="#363636"/>
          <path id="パス_434" data-name="パス 434" d="M103.877,322.862l1.019,1.544a35.609,35.609,0,0,0-4.993,3.508l-1.042-1.557A37.616,37.616,0,0,1,103.877,322.862Zm3.384,4.254,1.059,1.563a37.1,37.1,0,0,0-4.934,3.684l-1.1-1.54A36.685,36.685,0,0,1,107.261,327.115Zm1.788-9.325,1.909-.388a28.051,28.051,0,0,1,3.6,18.471l-2.159-.055A25.543,25.543,0,0,0,109.049,317.791Z" transform="translate(-59.715 -295.854)" fill="#363636"/>
          <path id="パス_435" data-name="パス 435" d="M105.919,322.106l16.347,8.612-.765,1.453-16.347-8.612Z" transform="translate(-45.511 -285.24)" fill="#363636"/>
        </g>
        <g id="グループ_78" data-name="グループ 78" transform="translate(212.241 84.135)">
          <path id="パス_436" data-name="パス 436" d="M174.959,318.088a47.865,47.865,0,0,1-.928,6.012,19.246,19.246,0,0,0,7.149-.642l-3.039-6.1a27.319,27.319,0,0,1-8.739-1.879l.528-1.853a25.138,25.138,0,0,0,12.312,1.785l.212,1.909c-.707.065-1.453.107-2.267.107l3.049,6.117-.127,1.534c-7.237,1.948-14.6,1.137-19.77-3.208l.938-1.892a16.418,16.418,0,0,0,7.823,3.83,34.676,34.676,0,0,0,.993-6.087Z" transform="translate(-104.933 -313.626)" fill="#363636"/>
          <path id="パス_437" data-name="パス 437" d="M176.211,326.706l-.016,1.55c-7.455,1.915-13.592,1.016-18.982-3.413l.928-1.863a16.666,16.666,0,0,0,16.031,3.677l-3.123-6.27a27.209,27.209,0,0,1-7.846-1.778l.5-1.863a26.956,26.956,0,0,0,12.419,1.8l.182,1.9a27.287,27.287,0,0,1-3.176.065Z" transform="translate(-118.757 -306.584)" fill="#363636"/>
          <path id="パス_438" data-name="パス 438" d="M168.813,332.925l-.8,1.775a28.093,28.093,0,0,1-17.1-7.866l1.309-1.72A25.55,25.55,0,0,0,168.813,332.925Zm-6.521-6.9-1.889-.055a37.058,37.058,0,0,0-.114-6.159l1.889.007A36.687,36.687,0,0,1,162.292,326.026Zm5.423-.264-1.847-.075a35.492,35.492,0,0,0,.065-6.1l1.873.065A37.35,37.35,0,0,1,167.715,325.763Z" transform="translate(-132.963 -300.179)" fill="#363636"/>
          <path id="パス_439" data-name="パス 439" d="M162.672,324.782l-16.533,8.243-.733-1.469,16.533-8.244Z" transform="translate(-145.406 -291.762)" fill="#363636"/>
        </g>
        <g id="グループ_79" data-name="グループ 79" transform="translate(150.852)">
          <path id="パス_440" data-name="パス 440" d="M132.8,295.507a48.153,48.153,0,0,1,4.967,3.514,19.22,19.22,0,0,0,2.609-6.687h-6.81a27.473,27.473,0,0,1-5.582,6.983l-1.42-1.3a25.136,25.136,0,0,0,7.087-10.221l1.8.664c-.257.661-.554,1.345-.915,2.075h6.833l1.316.8c-1.485,7.345-5.495,13.572-11.693,16.266l-1.273-1.687a16.419,16.419,0,0,0,6.918-5.293,34.386,34.386,0,0,0-5.006-3.6Z" transform="translate(-126.558 -287.794)" fill="#363636"/>
          <path id="パス_441" data-name="パス 441" d="M141.1,298.226l1.381.71c-1.615,7.527-5.156,12.618-11.523,15.468l-1.254-1.664a16.683,16.683,0,0,0,10.442-12.709h-7a27.412,27.412,0,0,1-5.094,6.231l-1.443-1.28a26.972,26.972,0,0,0,7.152-10.312l1.782.684a26.856,26.856,0,0,1-1.358,2.873Z" transform="translate(-126.456 -272.277)" fill="#363636"/>
          <path id="パス_442" data-name="パス 442" d="M133.244,309.664l-.892,1.668a36.884,36.884,0,0,0-5.56-2.645l.85-1.691A37.152,37.152,0,0,1,133.244,309.664Zm9.081-2.759,1.234,1.508a28.079,28.079,0,0,1-14.666,11.79l-.954-1.938A25.532,25.532,0,0,0,142.325,306.905Zm-6.9-2.212-.892,1.619a35.237,35.237,0,0,0-5.433-2.782l.892-1.645A37.065,37.065,0,0,1,135.43,304.694Z" transform="translate(-126.03 -255.988)" fill="#363636"/>
          <path id="パス_443" data-name="パス 443" d="M130.229,308.571v18.477h-1.642V308.571Z" transform="translate(-121.979 -240.9)" fill="#363636"/>
        </g>
      </g>
    </g>
  </g>
</svg>
