<svg xmlns="http://www.w3.org/2000/svg" width="400" height="350" viewBox="0 0 400 350">
  <g id="logo_7" transform="translate(-693 -1184)">
    <rect id="長方形_21" data-name="長方形 21" width="400" height="350" transform="translate(693 1184)" fill="none"/>
    <g id="グループ_117" data-name="グループ 117" transform="translate(472.686 980.285)">
      <path id="パス_507" data-name="パス 507" d="M315.974,557.9l11.91-.124-.016-.667-4.838.046.093-4.606,4.125-.14-.031-.667-4.078.14.047-1.923,1.737-.093-.016-.667-6.25.357.031.667,2.016-.124.062,1.877-4.017.14v.667l4.048-.139.155,4.543-4.994.047Z" transform="translate(-0.822 -159.695)" fill="#363636"/>
      <path id="パス_508" data-name="パス 508" d="M319.943,542.686l.512-.884,6.28,3.4,1.148-2.233-6.963-1.907.481-.822-2.884-.527-4.2,6.994.248.574Z" transform="translate(0 -154.952)" fill="#363636"/>
      <path id="パス_509" data-name="パス 509" d="M319.463,556.825l-.776.139.357,3.675,2.31-1.117Z" transform="translate(-2.186 -163.508)" fill="#363636"/>
      <path id="パス_510" data-name="パス 510" d="M333.089,560.964,336,558.5l-2.249-1.613-1.272,3.706Z" transform="translate(-9.082 -163.538)" fill="#363636"/>
      <path id="パス_511" data-name="パス 511" d="M314.749,579.169l1.178.124.574-1.179.883-.031v.775l-1.162.031.016.667,1.147-.031v.6l-2.543.155.713,1.69,5.1-1.489-.093-.558-1.473.093-.016-.528,1.52-.046-.016-.667-1.536.046-.016-.791,1.567-.047-.016-.667-3.769.108.311-.635,4.62-.062-.636,1.737.543.217.729-.5.915-.031.016.6-1.628.046.016.667,1.628-.047.03,1.3-.822.031-.063-1.024h-1.457l.093,1.768,4.73-.155v.232l1.443-.093.093-1.845h-1.457l-.047,1.039-1.008.015.108-1.3,1.52-.047v-.667l-1.457.031.046-.6,1.148-.031-.016-.667-3.225.093.435-.806,2.806-.031.62,2.466,1.148-.155.016-3.086-5.474.093.171-1.411-2.544-.093.108,1.535-5.164.093Z" transform="translate(-0.218 -172.336)" fill="#363636"/>
      <path id="パス_512" data-name="パス 512" d="M328.365,594.206l-3.07-.868,1.318-.016.063-4.327-10.188.124.124,4.327,1.6-.016-2.93,1.861.465.434,5.18-1.023-1.1-1.3,3.566-.031,2.792,2.45Zm-3.815-1.55-5.878.031-.016-.449,5.909-.109Zm.031-1.194-5.94.109V591l5.94-.031Zm.015-1.163-5.97.03-.016-.543h6Z" transform="translate(-0.481 -179.589)" fill="#363636"/>
      <path id="パス_513" data-name="パス 513" d="M733.228,550.158l-.481.341.962,3.458,1.939-.992Z" transform="translate(-209.156 -160.175)" fill="#363636"/>
      <path id="パス_514" data-name="パス 514" d="M715.787,550.158l-1.83,2.931.558.481,3.148-2.388Z" transform="translate(-199.764 -160.175)" fill="#363636"/>
      <path id="パス_515" data-name="パス 515" d="M725.449,543.369l-2.822.078,1.7-.954c-.005-.035-.009-.069-.012-.1a.455.455,0,0,0-.015-.1.04.04,0,0,0,.031.017l-.071-.167a.529.529,0,0,1,.129-.078l-1.606-.722,1.52-.062-1.209-1.877-1.98.362-.075.089a.406.406,0,0,1-.09-.059l-.115.021a.169.169,0,0,1,0,.036l.026.054.042.019a.37.37,0,0,0,.057.024h0a.059.059,0,0,0-.052.031l.162-.022a.168.168,0,0,1,.042.182.157.157,0,0,1-.186.067.135.135,0,0,0,0,.026l-.057.048a.424.424,0,0,1,.014.216l-.052.07a.321.321,0,0,1-.147.039.382.382,0,0,1-.1-.014.419.419,0,0,0-.108-.015h-.024l-.1-.1v-.211l.031-.07a.2.2,0,0,1,.072-.045.176.176,0,0,1,.053-.206l.07.019-.01-.008a.25.25,0,0,0-.028-.022l-.034-.063-7.413,1.356.187.466.775-.032.915,1.954-2.435.062-.31,2.667,1.117.124,1.209-2.124,2.5-.062.062,3.629,5.381-.124-.791-1.644-.589.915-2,.062.026-2.394a.154.154,0,0,1-.063.038.118.118,0,0,1-.013.034.152.152,0,0,1-.109.074.072.072,0,0,0,.022-.053l-.086.14H718.8l-.079-.042a.289.289,0,0,1-.06-.184l.022-.017-.022-.022v-.127l.087-.1a.237.237,0,0,1,0-.032l.072-.089-.007-.016a.19.19,0,0,1,.137-.08c.111,0,.13.118.141.189a.36.36,0,0,0,.021.087.043.043,0,0,0-.033-.016l.057.062,0-.36.683-.016.6,2.5,1.753-.93-1.287-1.6,2.947-.062.806,2.125.837-.171Zm-2.743-1.016.1-.051-.009-.03a.191.191,0,0,1,.144-.166l.15-.114a.588.588,0,0,1,.1.049.381.381,0,0,0,.068.035l.052.137a.469.469,0,0,0-.033.1.376.376,0,0,1-.119.226l-.125-.009a.062.062,0,0,0-.02-.016s-.026.015-.041.024a.324.324,0,0,1-.164.062l-.092-.058A.2.2,0,0,1,722.706,542.353Zm-7.058,1.249,1.209-.868-1.613-1.117,2.249-.077.775,2Zm2.606-.96-.068-.025a.286.286,0,0,1-.075-.138.218.218,0,0,0-.019-.052l-.106-.078a.311.311,0,0,1,.03-.19.126.126,0,0,0,.013-.1l.094-.117h.09a.184.184,0,0,1,.185-.121.582.582,0,0,1,.121.017.384.384,0,0,0,.061.01.059.059,0,0,0-.044.043l.163-.047a.222.222,0,0,1,.047.22c-.009.044-.009.044.019.061l.039.113A.564.564,0,0,1,718.255,542.642Zm2.464.851-1.8.047,1.256-.868-1.5-1.179,3.69-.14Z" transform="translate(-198.897 -154.797)" fill="#363636"/>
      <path id="パス_516" data-name="パス 516" d="M725.713,559.2l-3.521-.5,1.1-1.179-2.357-1.008-3.257.109-1.83-1.039-2.978,4.481.5.372,2.543-1.582,1.411-1.5,3.132-.108-.775,1.1-1.83-.264-.434.512,1.55.636-1.721,1.752.543.3,2.9-1.334,3.458,1.4Z" transform="translate(-199.222 -162.888)" fill="#363636"/>
      <path id="パス_517" data-name="パス 517" d="M716.006,579.26l-4.807.078.3,7.708,4.342-.14Zm-3.2,4.386a.3.3,0,0,0-.086-.013.479.479,0,0,1-.27-.083l.008-.03a.294.294,0,0,1-.216-.053l.006-.161c.007-.01.031-.076.044-.112a.357.357,0,0,1,.063-.126l.035-.015a.136.136,0,0,1,.126-.086c.075,0,.142.058.227.14l.006.02a.309.309,0,0,1,.05,0l.1.072.011.043a.792.792,0,0,1,.033.33Zm1.119,2.593-.543.031-.2-6.141.9-.03Z" transform="translate(-198.385 -174.722)" fill="#363636"/>
      <path id="パス_518" data-name="パス 518" d="M722.019,575.819l.264,9.553,2.977-.062.031,3.768,1.969-.047.028-2.259-.144.067a.244.244,0,0,0-.039-.022.116.116,0,0,1-.027.081c-.031.039-.067.056-.161.045a.231.231,0,0,1-.01.057l-.128.058a.3.3,0,0,0-.212-.018.463.463,0,0,0,.021.137.674.674,0,0,1,.029.17l-.137.089-.021-.011a.244.244,0,0,0-.063-.029.058.058,0,0,0,.053-.042l-.135.083a.186.186,0,0,1-.086-.069.492.492,0,0,1-.149-.01l-.074-.11a.591.591,0,0,1,.078-.213.22.22,0,0,0-.141-.055l-.1-.122a.379.379,0,0,1,.077-.128c.01-.013.025-.031.034-.047l-.01,0-.054-.13a.21.21,0,0,1,.122-.1.24.24,0,0,0,.031-.015.347.347,0,0,1,.016-.033.223.223,0,0,1,.087-.105.375.375,0,0,1,.214-.03.442.442,0,0,0,.175-.016l.13.094a.072.072,0,0,0,0,.019.7.7,0,0,1,.178-.023.482.482,0,0,1,.371.142.362.362,0,0,1,.078.263l.019-1.495,2.993-.047.263-9.661Zm2.233.589.915-.031.047,3.768-.962.046Zm.016,8.235v-3.769l.946-.046.03,3.8Zm4-.062-.961.015.046-3.877.93-.046Zm.015-4.575-.915.032.047-3.722.884-.031Z" transform="translate(-203.794 -172.862)" fill="#363636"/>
      <path id="パス_519" data-name="パス 519" d="M724.563,428.48A2.056,2.056,0,0,0,722.3,426.3a2.121,2.121,0,0,0-2.3,1.885v.681h1.531v-.705c0-.4.3-.62.75-.62.75,0,.75.522.75.96a1.73,1.73,0,0,1-.27,1.143L720,433.866v1.167h4.562v-1.24H721.8l2.251-3.513A2.481,2.481,0,0,0,724.563,428.48Z" transform="translate(-202.785 -98.266)" fill="#363636"/>
      <path id="パス_520" data-name="パス 520" d="M724.563,448.819a2.329,2.329,0,0,0-4.562,0V453.9a2.329,2.329,0,0,0,4.562,0Zm-1.53,5.081a.764.764,0,0,1-1.5,0v-5.081a.764.764,0,0,1,1.5,0Z" transform="translate(-202.785 -108.591)" fill="#363636"/>
      <path id="パス_521" data-name="パス 521" d="M723.633,467.76H722.1l-1.53.911v1.313l1.53-.912v7.335a.321.321,0,0,1,.126-.005l.008.013h.014l.057-.055a.311.311,0,0,1,.058.011.2.2,0,0,1,.136-.053l.086.1h1.047Z" transform="translate(-203.071 -118.988)" fill="#363636"/>
      <path id="パス_522" data-name="パス 522" d="M724.2,489.107a2.376,2.376,0,0,0-1.92-.839,2.329,2.329,0,0,0-1.936.839c-.012.016-.021.031-.032.047a.182.182,0,0,1,.045.145.117.117,0,0,1-.115.1.128.128,0,0,1-.065-.022,3.375,3.375,0,0,0-.179,1.5c0,1.374.061,1.678.331,2.018a1.7,1.7,0,0,0,1.29.559,1.4,1.4,0,0,0,.645-.109l.03.024L720.557,497h1.71l2.01-4.352a3.41,3.41,0,0,0,.286-1.775C724.563,489.739,724.5,489.5,724.2,489.107Zm-2.591,6.83a1.636,1.636,0,0,0,.029.185l-.086.126a.293.293,0,0,1-.133-.027.138.138,0,0,1-.093.032.241.241,0,0,1-.059-.008l-.067-.118a.7.7,0,0,1,.044-.111l.008-.017-.024-.006-.074-.1a.287.287,0,0,1,.313-.306.15.15,0,0,1,.091-.037l.1.073a.355.355,0,0,1-.059.257Zm-.429-6.464a.111.111,0,0,1-.161.059.16.16,0,0,1-.151.1.233.233,0,0,1-.064-.01l-.065-.125a.194.194,0,0,0,.02-.079.334.334,0,0,1-.105-.153l.131-.118.031.012c0-.013.006-.031.008-.044a.3.3,0,0,1,.095-.2l-.009-.014c.035-.095.15-.086.221-.042.041.025.081.051.125.03l.135.1c-.009.1-.015.144-.02.193s-.013.109-.023.228l-.151.07Zm.768,3.5a.18.18,0,0,1-.159.091.147.147,0,0,1-.144-.1c-.027-.082.019-.17.138-.261l.14.026A.226.226,0,0,1,721.951,492.969Zm1.017,2.267a.133.133,0,0,1-.062.038.1.1,0,0,1-.084.047l-.083-.047,0-.1a.175.175,0,0,0,.018-.04l-.041-.045c.019-.129.11-.135.128-.135.1,0,.157.112.157.189A.14.14,0,0,1,722.968,495.236Zm.065-3.5a.764.764,0,0,1-1.5,0v-1.052l-.067.034a.3.3,0,0,1-.162-.277.31.31,0,0,1,.086-.221c-.013-.023-.027-.045-.043-.069a.556.556,0,0,1-.1-.218l.07-.112.015,0-.045-.031v-.127l.141-.085a.475.475,0,0,1,.232.208.8.8,0,0,1,.626-.273.686.686,0,0,1,.75.62Z" transform="translate(-202.785 -129.239)" fill="#363636"/>
      <path id="パス_523" data-name="パス 523" d="M328.005,427.618v-1.167h-4.561v8.656h4.561v-1.24h-3.031v-2.541h2.64v-1.167h-2.64v-2.541Z" transform="translate(-4.564 -98.339)" fill="#363636"/>
      <path id="パス_524" data-name="パス 524" d="M327.556,449.524v-.608a2.64,2.64,0,0,0-5.176.413,2.047,2.047,0,0,0,1.665,2.225l1.1.365c.75.243.885.389.885,1.313,0,.79-.075,1.288-1.11,1.288-.78,0-1.08-.438-1.08-.887v-.389H322.3v.462c0,1.167,1.125,2.055,2.611,2.055,1.981,0,2.641-1.082,2.641-2.541,0-1.264-.256-1.957-1.605-2.37l-1.17-.377c-.8-.256-.87-.486-.87-1.155,0-.571.2-1.118,1.035-1.118a.966.966,0,0,1,1.08,1.045v.28Z" transform="translate(-3.994 -108.591)" fill="#363636"/>
      <path id="パス_525" data-name="パス 525" d="M327.555,467.761h-5.071v1.167h1.771v7.489h1.53v-7.489h1.77Z" transform="translate(-4.084 -118.988)" fill="#363636"/>
      <path id="パス_526" data-name="パス 526" d="M322.6,488.416v8.656h2.131c1.8,0,2.82-.766,2.82-2.371v-4.048c0-1.4-.96-2.237-2.686-2.237Zm3.421,2.237v4.169c0,.742-.33,1.083-1.185,1.083h-.706v-6.322h.706C325.74,489.583,326.025,489.972,326.025,490.653Z" transform="translate(-4.144 -129.313)" fill="#363636"/>
      <path id="パス_527" data-name="パス 527" d="M523.817,653.5v.013h0Z" transform="translate(-104.721 -211.833)" fill="#363636"/>
      <path id="パス_528" data-name="パス 528" d="M519.564,646.819l-.014,0a.489.489,0,0,1-.194.014l.012.013a.2.2,0,0,1-.039.165l-.113.157-.016,0a.189.189,0,0,1,.04.173l.047-.026h0a.258.258,0,0,1,.026-.061.338.338,0,0,1-.013-.093.263.263,0,0,1,.075-.2l.044-.023a.17.17,0,0,1,.1,0,.112.112,0,0,1,.048-.029.144.144,0,0,1,.007-.016.108.108,0,0,1,.046-.048l.068-.057-.128.023Z" transform="translate(-102.414 -208.481)" fill="#363636"/>
      <path id="パス_529" data-name="パス 529" d="M521.629,653.169h0Z" transform="translate(-103.58 -211.666)" fill="#363636"/>
      <path id="パス_530" data-name="パス 530" d="M502.126,569.983c-.23-.974-1-4.236-1.219-5.117a31.9,31.9,0,0,0-1.631-3.849c-.4-.86-.775-1.673-.961-2.138-.533-1.333-4.18-3.937-5.508-4.852l-.907-1.587-.957-2.633v-2.372l.76-5.06c0-.02.006-.04.007-.061l1.532-22.738.5-2.249a.712.712,0,0,0,.018-.163v-3.634l.643-1.071a4.837,4.837,0,0,1,1.392-1.478c.551-.173,1.305-.41,1.039-10.68.063-.494.521-4.108.753-5.267.058-.29.121-.806.208-1.521.3-2.437.912-7.507,2.209-9.175,1.362-1.752,3.964-9.312,6.295-16.261.459-1.366.821-2.446.985-2.885.556-1.483.4-5.646.164-8.865a.143.143,0,0,1-.1-.048.253.253,0,0,1-.031-.2.373.373,0,0,0,0-.071l.1-.043c-.142-1.861-.3-3.343-.353-3.689a24.1,24.1,0,0,0-1.055-4.228,4.709,4.709,0,0,1,.471-2.756,10.093,10.093,0,0,0,.463-2.754.2.2,0,0,1-.085-.083c-.057-.119.023-.265.1-.366l.032-.012c.036-.364.074-.762.117-1.209.331-3.5.785-8.29,1.71-10.756a12.117,12.117,0,0,0,.052-8.823l-.043-.128c-.493-1.479-5.547-8.832-6.794-10.634l1.529-4.507a.746.746,0,0,0,.039-.265l-.112-3.528a13.542,13.542,0,0,0-.016-3.509c-.129-.647-.919-2.889-2.2-6.5-.952-2.677-2.031-5.711-2.148-6.3a17.093,17.093,0,0,0-.928-2.706,15.887,15.887,0,0,1-.616-1.682c-.257-1.029-1.137-1.6-2.594-2.553-.52-.34-1.109-.724-1.8-1.208a15.032,15.032,0,0,0-4.661-1.882,9.661,9.661,0,0,1-3.475-1.4,9.4,9.4,0,0,0-2.842-1.2l.035.049a.205.205,0,0,1-.069.117.217.217,0,0,0,.036.081l-.008.154a1.437,1.437,0,0,1-.217.11.653.653,0,0,0-.266.164l-.081.037a.439.439,0,0,1-.18-.069.407.407,0,0,0-.095-.043l-.077.026a.15.15,0,0,1-.116-.086.125.125,0,0,1,.015-.113c-.068-.008-.185-.04-.185-.233l.144-.083c-.044-.006-.054.015-.058.024a.528.528,0,0,0,.016-.109.42.42,0,0,1,.038-.176.253.253,0,0,1,.1-.088h0l-.013-.025,0-.026c-1.838-.528-4.264-1.138-7.236-1.877-4.983-1.238-10.632-2.641-12.361-3.629-3.657-2.091-15.69-.348-17.328-.1h-9.417a.748.748,0,0,0-.475.17l-3.391,2.773-2.562,1.408q-.6.259-1.243.514h-2.059a.75.75,0,0,0-.715.523c-.535,1.677-1.214,3.56-1.732,4.744a2.682,2.682,0,0,0-.649-.825c-2.331-2.029-8.8-1.439-9.526-1.365-.218.022-.32.018-.433.183-.344.183-2.554,1.167-12.93,2.9-11.853,1.976-18.285,13.681-21.031,18.68-.183.333-.349.633-.5.9-2.474,4.4-2.082,23.853-1.878,25.073.154.925-.935,4.527-1.758,6.789a.733.733,0,0,0-.025.083c-.012.053-1.282,5.367-2.28,8.111-.436,1.2-.945,3.187-1.534,5.49a92.541,92.541,0,0,1-2.813,9.6c-1.375,3.538-.566,11.036.294,17.174.084.6.163,1.166.168,1.278a15.821,15.821,0,0,1-.97,3.05.746.746,0,0,0-.05.2l-.509,4.838c-.015.107-1.535,10.713-2.273,12.927-.5,1.505-5.116,5.12-7.908,7.046a.766.766,0,0,0-.243.278,8.962,8.962,0,0,1-1.467,1.834.546.546,0,0,1,.35.414l-.081.065c0,.016,0,.044.007.065a.5.5,0,0,1-.016.264l-.1.056a.153.153,0,0,1-.083-.04l-.051.044H354.4a.23.23,0,0,0-.046.033l-.012-.01-.076.061c-.027,0-.115-.01-.124-.132a.139.139,0,0,0-.035-.012.279.279,0,0,1-.1-.043.116.116,0,0,1-.042-.118l-.051-.043.026-.046-.015-.014a.053.053,0,0,0,0,.027.215.215,0,0,0-.037-.057l.016-.018-.005-.008-.034.033a.752.752,0,0,0-.238.548v2.3a.769.769,0,0,0,.02.172l.32,1.359-.212.848a1.626,1.626,0,0,0-.049,1.123,7.485,7.485,0,0,1,.286,1.708c.025.256.045.464.06.632a.75.75,0,0,0-.054.424c.062.378.159.973.643,1.085.021.031.047.063.071.094a.463.463,0,0,1,.117-.058l.119.131a.411.411,0,0,1-.062.1.216.216,0,0,1,.083.113,8.627,8.627,0,0,0,2.291,1.41.739.739,0,0,0,.3.061h1.28a.719.719,0,0,0,.123-.01l.073-.012c0-.009-.009-.016-.008-.025a.2.2,0,0,1,.261-.161l.055.113a.146.146,0,0,1-.012.024l1.167-.195a10.651,10.651,0,0,0,2.773-.837.754.754,0,0,0,.224-.171l1.825-2.039h.825l2.192.716a.745.745,0,0,0,.678-.109l1.024-.753a7.77,7.77,0,0,1,1.609-.941.748.748,0,0,0,.437-.431l.4-1.024a1.4,1.4,0,0,1,.323-.5,6.232,6.232,0,0,0,1.351-2.906c.5-1.836-.115-3.669-.709-5.441a11.491,11.491,0,0,1-.8-3.462,16.6,16.6,0,0,0-.088-2.071,6.289,6.289,0,0,1,.083-1.687,9.845,9.845,0,0,1,.157-1.069l.065-.033a4.86,4.86,0,0,0,1.356-1.011c1.323-1.324.691-2.267.351-2.773-.237-.353-.244-.4-.185-.552a14.386,14.386,0,0,1,1.063-2.024c.254-.426.494-.828.7-1.247.521-1.041,1.411-3.293,1.449-3.388a.747.747,0,0,0,.041-.142,6.837,6.837,0,0,0,.066-3.016,16.009,16.009,0,0,1,.044-3.04l1.2-2.163a.752.752,0,0,0,.094-.364v-1.054l1.846-2.769,1.681-1.2a.755.755,0,0,0,.133-.123l1.552-1.812,3.017-3.772,2.078-1.615,1.465-.21c.332.069,1.255.269,1.835.463a3.841,3.841,0,0,0,2.178-.135l4.286,2.894V474.4a.756.756,0,0,0,.075.327l1.456,3c.29.687,1.084,2.285,2.228,2.285h1.566l.792,1.506a20.582,20.582,0,0,0,.516,2.078,8.888,8.888,0,0,1-.277,2.673.7.7,0,0,0-.016.1c-.063.786-1.537,19.308-1.282,23.929a68.355,68.355,0,0,0,1.832,9.832,39.244,39.244,0,0,1,.97,4.752,3.707,3.707,0,0,0-.025.735h.036l.094.076a.162.162,0,0,1-.025.138.151.151,0,0,1-.1.054c.017.549.056,1.3.114,2.211a.213.213,0,0,1,.051.21l-.038.015c.468,7.277,2.009,24.151,2.787,32.515-.333.875-1.9,5.116-4.644,14.49-1.408,4.81-1.407,8.193,0,10.056a3.4,3.4,0,0,0,2.118,1.325l8.815,9.119a.75.75,0,0,0,1.286-.455l.137-1.527c1.334.941,3.252.143,3.469.047a.751.751,0,0,0,.448-.687v-.786h1.088a.749.749,0,0,0,.427-.134l3.185-2.205,1.557-.231a.75.75,0,0,0,.641-.742v-2.845a5.5,5.5,0,0,0,1.342-3.045v-1.28a.787.787,0,0,0-.01-.124,5.846,5.846,0,0,0-1.567-2.983,1.083,1.083,0,0,1-.233-.282.345.345,0,0,1,.038-.03.749.749,0,0,0,.28-1.129l-1.58-2.1v-.823c1.369.169,2.74.32,4.115.438q.057-.65.115-1.3-1.6-.139-3.194-.323.156-1.329.313-2.658,1.356.157,2.715.28l.113-1.224q-1.344-.122-2.684-.277.157-1.329.313-2.658,1.5.173,3,.3l.108-1.225q-2.236-.194-4.462-.484-.151,1.134-.3,2.268c-.023-.062-.047-.124-.073-.188-.037-.091-.077-.19-.117-.309-.221-.662-.849-2.949-.986-3.449v-2.734l-.257-10.223a10.448,10.448,0,0,0-.5-2.639,32.346,32.346,0,0,0,.222-5.986c-.138-.6-.234-6-.234-13.135.008-.357.423-3.563.824-6.662.717-5.546,1.224-9.527,1.224-10.241,0-.256,0-.3.879-.55a8.979,8.979,0,0,0,1.517-.554,1.353,1.353,0,0,1,.251-.087.19.19,0,0,1-.035-.095.2.2,0,0,1,.173-.216.187.187,0,0,0,.044-.016l.181-.016a.378.378,0,0,1,.014.065.146.146,0,0,1,.123.085.211.211,0,0,1,.02.117,21.606,21.606,0,0,1,8.169,1.677.293.293,0,0,1-.04-.044l-.12-.117a.168.168,0,0,1,.17-.142c0-.009,0-.021,0-.037l.022-.041a.251.251,0,0,1-.069,0l-.074-.1a.283.283,0,0,1-.139.012l-.03-.01a.277.277,0,0,1-.117-.192.245.245,0,0,0-.025-.073l-.033-.077a.151.151,0,0,1,.119-.138.122.122,0,0,0-.138-.1l-.092-.042a.238.238,0,0,1-.045-.1.293.293,0,0,1-.14.13c-.049.027-.06.036-.063.054l-.064.07.117-.031a.127.127,0,0,0,.083.019l.118.095v.127l-.076.094a.148.148,0,0,1-.148-.034l-.047.036a.144.144,0,0,1-.123-.071.237.237,0,0,1,.035-.221c-.147.021-.173-.125-.178-.17,0-.01,0-.026,0-.031a.048.048,0,0,0,.039.028l-.111-.1a.246.246,0,0,1,.128-.2c.025-.018.04-.028.044-.039l.131-.055a.159.159,0,0,0,0-.02.05.05,0,0,0,.037.027l-.124-.109a.3.3,0,0,1,.112-.18c.043-.039.057-.054.055-.1l.125-.1c.038.012.079.022.121.031.161.037.36.083.407.293l-.029.036.031.04a.381.381,0,0,1-.083.179.421.421,0,0,0-.038.058,1.052,1.052,0,0,1,.307.007.307.307,0,0,1,0-.086.178.178,0,0,0,0-.026c0,.008-.027,0-.037-.01a.171.171,0,0,1-.105-.108.151.151,0,0,1,.033-.127l.028-.018a.315.315,0,0,1-.09-.269l.1-.09a.174.174,0,0,1,.168.156l.067-.025a.183.183,0,0,1,.061.034.306.306,0,0,1,0-.091.214.214,0,0,0,0-.06l.011-.181c-.007,0,0-.042,0-.065a.388.388,0,0,1,.039-.154.112.112,0,0,1-.013-.019.116.116,0,0,1-.016-.05.258.258,0,0,1-.115-.141.222.222,0,0,1-.052.021.306.306,0,0,1-.026.2l-.159.031a.206.206,0,0,1-.054-.226.151.151,0,0,1,.031-.046.121.121,0,0,1-.054-.032.192.192,0,0,1-.035-.153c0-.012,0-.029,0-.034a.065.065,0,0,0,.048.045l0-.008-.12-.124a.177.177,0,0,0,.02-.042c0,.007-.018,0-.029-.01a.372.372,0,0,1-.114-.1l-.012-.092a.148.148,0,0,1,.043-.059l-.008-.023a.215.215,0,0,1,.049-.172l.01-.01a.517.517,0,0,1-.059-.2l.026-.076a.23.23,0,0,1,.274-.018c0-.026,0-.062,0-.078l.044-.038a.294.294,0,0,1-.043-.2l.153-.056-.018-.009-.048-.114a.212.212,0,0,1,.066-.108l-.109-.049a.168.168,0,0,1,.06-.195.192.192,0,0,1-.041-.043l-.111.029a.208.208,0,0,1-.129.21.4.4,0,0,1,0,.089.682.682,0,0,0-.009.134l-.077.1-.027,0a.221.221,0,0,1,.1.2l-.1.1a.133.133,0,0,0-.059.016.311.311,0,0,1-.215.023l-.074-.095c0-.028,0-.029-.018-.034l.038-.186a.056.056,0,0,0-.033.036.3.3,0,0,0,0-.054.482.482,0,0,1,0-.144.31.31,0,0,1-.058-.146.273.273,0,0,0-.015-.057l-.061-.139a.091.091,0,0,0,.008-.107.2.2,0,0,1-.021-.109.114.114,0,0,1,.064-.087l-.011-.025v0l.1-.048a.745.745,0,0,0-.074.016l-.12-.1a.158.158,0,0,1,.134-.142c.006,0-.006.02-.005.033l.156-.086a.2.2,0,0,0,.041.019.277.277,0,0,1,.124.079c.022-.022.044-.043.067-.063a1.112,1.112,0,0,0,.137-.143l.088-.039a.24.24,0,0,1,.061.016v-.013l.059-.019a.267.267,0,0,0-.056-.031.251.251,0,0,1-.171-.3l.128-.073.04.017a.2.2,0,0,1,.094-.223.267.267,0,0,1,.291.055l.005,0,.047-.028a.138.138,0,0,1,.133.072.151.151,0,0,1-.036.158l-.054-.021.026.1a.454.454,0,0,0-.069.068.3.3,0,0,1-.2.133v.016l-.047.014c.093.028.128.078.134.13h.07l.094.077a.193.193,0,0,1-.021.149.281.281,0,0,1,.05.129.231.231,0,0,0,.01.043l.048.091a.212.212,0,0,1-.1.146l.022.02a.346.346,0,0,1,.095.118l.13-.02a.248.248,0,0,0,.209.091l.105.116a.177.177,0,0,1-.124.126c-.017,0-.007-.008-.007-.015l-.018.048a.3.3,0,0,1,.053.01.318.318,0,0,0,.088.011h.034l.025.023a.1.1,0,0,1,.038-.007l.091.059a.178.178,0,0,1,.011.038.167.167,0,0,1,.088-.029.107.107,0,0,1,.034,0,.132.132,0,0,1,.116.054l.006-.006a.182.182,0,0,1,.206.08l.1.115a.231.231,0,0,1,.128.02l.045.036a.136.136,0,0,1,.005.144l.023,0a.211.211,0,0,1,.128.048l-.033.082a.116.116,0,0,1,.036-.006l.08.036a.087.087,0,0,1,.013.017.2.2,0,0,1,.109-.032l.041,0,.034.113.04-.017a.513.513,0,0,1,.212.308l-.018.089a.186.186,0,0,1-.106.062.224.224,0,0,1,.041.094l.02-.012a.151.151,0,0,1,.117.113.133.133,0,0,1,0,.063.11.11,0,0,1,.034.022l.009.011a.451.451,0,0,1,.2.107.364.364,0,0,0,.092.06l.069.146c-.029.045-.025.059.036.134.014.018.031.038.046.06l.005,0h.127l.094.116a1.287,1.287,0,0,0-.022.128.606.606,0,0,1-.044.17l.037.035a.189.189,0,0,1,.014-.094l.12-.054a.211.211,0,0,1,.15.22c0-.017.026,0,.044,0a.4.4,0,0,1,.085.042l.078.055a.185.185,0,0,1,.2.1c.036.1-.068.185-.1.212l-.1.01h0a.107.107,0,0,1,0,.031l.128.009a.831.831,0,0,1,.066.251c.007.042.014.085.024.123l.061-.043a.185.185,0,0,1,.137.1.148.148,0,0,1-.031.138.19.19,0,0,1,.113-.034l.1.07a.167.167,0,0,1-.015.142.277.277,0,0,1-.045.19l-.012.023a.541.541,0,0,1,.055.271.907.907,0,0,0,0,.1l.079-.08a.166.166,0,0,1,.122.041.289.289,0,0,1,.014-.031l.132-.041.036.02a.321.321,0,0,0,.084.04l.065-.068a.146.146,0,0,1,.144.03.1.1,0,0,1,.074-.031l.1.1c.009.055-.005.184-.1.215l-.065,0a.321.321,0,0,0-.173-.012.354.354,0,0,0,.1.04l.049.086a.152.152,0,0,1,.083.053.316.316,0,0,1,.07.224l-.09.08s-.007.016-.012.027h.006l.019.075.033-.007a.12.12,0,0,0,.043.057l.129.1a.16.16,0,0,1-.219.122c-.006.02-.01.042-.015.062a17.677,17.677,0,0,0,6.83-.984,35.924,35.924,0,0,0,6.939-3.43c.543-.407.885-.253.925-.233a.751.751,0,0,0,.416.126h2.543a5.5,5.5,0,0,0,2.567,1.759,2.592,2.592,0,0,0,3.26-1.022c.175-.21.393-.471.519-.5.916-.229,5.541-3.21,7.992-4.818.543,4.247,2.342,18.559,2.342,21.758,0,15.88-.363,26.258-1,28.472-1.031,3.607,2.058,9.514,2.563,10.443.091.53.208,1.02.335,1.492a1.09,1.09,0,0,1-.56.425.9.9,0,0,1-1.274-.544l-2.378-6.527q-.714.258-1.431.5l2.322,6.682a2.4,2.4,0,0,0,3.22,1.108,3.261,3.261,0,0,0,.552-.268,6.8,6.8,0,0,0,2.547,3.361,4.687,4.687,0,0,0,3.076.712l3.067,2.391a.743.743,0,0,0,.565.151l1.58-.222a3.572,3.572,0,0,0,3.341-.444c.354-.236.4-.214.835-.005a3.767,3.767,0,0,0,3.357.087c.027-.01.054-.022.08-.035a18.875,18.875,0,0,0,2.95-1.878c.494-.4,1.137-1.007,1.005-1.745A1.052,1.052,0,0,0,502.126,569.983ZM354.513,506.452a.141.141,0,0,1-.108.051h-.092l-.1-.1v-.119a.1.1,0,0,1-.028-.093l.105-.078a.176.176,0,0,1,.143.072.218.218,0,0,1,.026.117l.07.04A.126.126,0,0,1,354.513,506.452Zm146.124-24.789-.1.1h-.085l-.094-.115a.049.049,0,0,0,0,.022l-.045-.048a.12.12,0,0,1,.053-.1l-.007-.01a.118.118,0,0,1,.113-.092.145.145,0,0,1,.069.02l.117.154A.11.11,0,0,0,500.637,481.663Zm3.347-7.43a.2.2,0,0,1-.169.063l-.12-.117a.174.174,0,0,1,.041-.074l.094-.084h.085l.094.075A.158.158,0,0,1,503.985,474.233Zm2.2-9.2.068-.116.047-.006a.152.152,0,0,1,.088.027h0a.122.122,0,0,1,.1-.066h0a.325.325,0,0,1,.124.03.316.316,0,0,0,.048.017l.1-.073a.341.341,0,0,1,.149.269.56.56,0,0,1-.181.43l-.071.024c-.07-.006-.112-.013-.144-.018a.287.287,0,0,0-.162.015l-.119-.1v-.013a.167.167,0,0,1-.121-.112.228.228,0,0,1,.063-.251C506.193,465.061,506.193,465.061,506.185,465.03Zm.146-26.675a.387.387,0,0,0,0,.054l-.1.125a.176.176,0,0,1-.161-.117.256.256,0,0,1,.057-.26l.059-.026h0a.141.141,0,0,1,.113.043A.222.222,0,0,1,506.33,438.355Zm1.45-5.588a.658.658,0,0,1-.388.115.469.469,0,0,1-.235-.056l-.049-.082a1.319,1.319,0,0,1,.051-.5l.081-.058c.029,0,.08-.01.09-.032l.109-.051a.51.51,0,0,1,.312.255.486.486,0,0,1,.049.24.847.847,0,0,0,.006.091Zm-6.605-5.669a.217.217,0,0,1,.177-.06h.038l.091.09a.333.333,0,0,1-.054.259.181.181,0,0,1-.139.056l-.043,0-.082-.086c0-.029-.007-.053-.012-.076A.2.2,0,0,1,501.175,427.1Zm-11.444-49.033.029.027a.133.133,0,0,1,.054-.033v0l.073-.072a.288.288,0,0,1,.258.065.093.093,0,0,0,.115.021l.121.079.007.035a.4.4,0,0,1-.017.278l-.095.053a.135.135,0,0,1-.077.074.242.242,0,0,0-.106.1.145.145,0,0,1-.06.064l-.062.014a.3.3,0,0,1-.1-.022l-.015-.005-.058.062a.2.2,0,0,1-.144-.253c0-.008-.017,0-.027,0l-.108-.125.012-.031a.12.12,0,0,1-.039-.1A.275.275,0,0,1,489.731,378.065Zm-1.721-.7.056-.136.052-.008a.345.345,0,0,1,.044,0,.111.111,0,0,1,.064-.077.225.225,0,0,1,.119-.008l.014,0a.332.332,0,0,0,.036-.042l.036.026.048-.071a.162.162,0,0,1,.141.107.113.113,0,0,0,.013.023s.007,0,.014,0a.166.166,0,0,1,.149.028l.028.079a.11.11,0,0,1-.044.077.271.271,0,0,1,.036.023l.091.112a.127.127,0,0,1-.023.063.221.221,0,0,1,.028.019l.014.139c-.007.008-.022.033-.019.1l-.081.1a.231.231,0,0,0-.077.02.866.866,0,0,1-.24.144l-.056,0a.208.208,0,0,1-.116-.108l-.014-.022-.071,0a.045.045,0,0,0,.027.03.148.148,0,0,0-.027,0,.229.229,0,0,1-.134-.046.219.219,0,0,1-.061-.1c-.021-.051-.024-.051-.04-.051l-.068-.17C488.067,377.526,488.082,377.5,488.01,377.362Zm-4.17-2.986a.3.3,0,0,0,.035-.049.049.049,0,0,0,.015.046l-.046-.151a.469.469,0,0,1,.328-.128.241.241,0,0,1,.2.086l.019.048c.018.182-.153.2-.209.211a.276.276,0,0,0-.052.009.253.253,0,0,0-.049.042.273.273,0,0,1-.192.1l-.029,0-.079-.119A.254.254,0,0,1,483.839,374.376Zm-1.618,6.472.1-.085.041,0a.132.132,0,0,1,.124-.086.227.227,0,0,1,.1.031.167.167,0,0,0,.056.022l.147.086.013-.011c.116.027.114.149.114.207a.326.326,0,0,0,0,.044l-.109.106a.464.464,0,0,0-.1,0,.742.742,0,0,1-.08.005.357.357,0,0,1-.08-.009.238.238,0,0,1-.131-.108l0,0a.154.154,0,0,1-.156-.034A.212.212,0,0,1,482.222,380.849Zm-.663,4.3a.226.226,0,0,1,.141-.108.223.223,0,0,1-.065-.237l.085-.059a.28.28,0,0,1,0-.156l.1-.069.05.064,0-.008-.025-.058c-.007.006,0,0-.006-.021l.1-.1a.142.142,0,0,1,.123.072.148.148,0,0,1,.017.058.281.281,0,0,1,.13.036.2.2,0,0,1,.1-.111h.1a.584.584,0,0,1,.084.063.175.175,0,0,0,.186.053l.069.176-.046.029a.547.547,0,0,1-.215.1.158.158,0,0,0,.013.053l.041.086c-.009.136-.135.129-.2.1a.174.174,0,0,0-.053-.018l-.012.033a.2.2,0,0,1-.189.16.311.311,0,0,1-.089-.014l-.062-.084a.3.3,0,0,1-.043.023c0,.008,0,.017,0,.028a.218.218,0,0,1,0,.056.142.142,0,0,1,.048.057l.008.029a.155.155,0,0,1-.134.176h0c-.007,0,0-.019,0-.03l-.111.128-.034-.007c-.064-.01-.233-.04-.21-.226l.079-.036A.3.3,0,0,1,481.559,385.146Zm-2.035-9.214a.171.171,0,0,1,.009.109h.042l.095.078a.179.179,0,0,1-.037.15l-.1.09h-.085l-.094-.079,0-.02-.019.009a.161.161,0,0,1-.115-.163h-.064l-.1-.1v-.169l.145-.082a.375.375,0,0,1,.138.112l.044-.039A.18.18,0,0,1,479.524,375.932Zm-.65-1.418a.591.591,0,0,1,.021-.225l.1-.062a.348.348,0,0,1,.2.12.035.035,0,0,0-.007.018l.01-.013.007.009.059-.047h0a.085.085,0,0,0-.041.01l.043-.052.028,0a.132.132,0,0,1,.114.065.192.192,0,0,1-.055.248.363.363,0,0,1,.028.17l-.048.077a.161.161,0,0,1-.2-.042.987.987,0,0,0-.047.212l-.122.092a.219.219,0,0,1-.1-.068l-.062-.18A.411.411,0,0,0,478.875,374.514Zm-.511,7.254.116-.024a.725.725,0,0,0,.1.043.631.631,0,0,1,.024-.072l.11-.064.054.013.042.009s.007-.009.015-.022l.173.024c.009.03.017.053.025.075a1.157,1.157,0,0,1,.036.116.5.5,0,0,1,.08-.007h.024l.066.161-.008.009a.179.179,0,0,1,.075.122l-.109.11c-.055,0-.062,0-.094.061a.282.282,0,0,1-.158.146l-.086-.015a.532.532,0,0,1-.147-.208c-.068-.145-.1-.181-.242-.154l-.113-.1a.057.057,0,0,0-.008-.037A.15.15,0,0,1,478.363,381.768Zm-1.777-5.643h.037a.233.233,0,0,1,.092-.108.208.208,0,0,0,.024-.02l.119-.08a.631.631,0,0,0,.212,0,.706.706,0,0,1,.082-.007l.033,0a.12.12,0,0,1,.1.073.107.107,0,0,0,.087,0,.345.345,0,0,1,.2-.027.093.093,0,0,1,.076.086.244.244,0,0,1,.164.01l.028.026a.2.2,0,0,1,0,.215l0,0a.114.114,0,0,1,.057.094c0,.057,0,.139,0,.159l-.095.01.092.026a.3.3,0,0,1-.057.1.238.238,0,0,0-.016.023.047.047,0,0,0,0,.013.213.213,0,0,1,.028.062l-.126.052a.132.132,0,0,1,.05.127c-.019.1-.154.162-.241.162a.167.167,0,0,1-.133-.058.161.161,0,0,1-.035-.119l-.011-.01c-.031.009-.064.016-.1.022a1.05,1.05,0,0,0-.1.025l-.122-.07a.13.13,0,0,1,0-.033.481.481,0,0,0-.091-.062.612.612,0,0,1-.13-.091.294.294,0,0,1-.253.045v-.186c.024-.006.037-.013.04-.019.016-.033-.033-.143-.06-.2a.949.949,0,0,1-.049-.123Zm.414,7.655a.109.109,0,0,0-.028.072l-.08.1-.039,0a.207.207,0,0,1-.124-.043l-.148-.142a.331.331,0,0,1,.345-.135Zm-3.573-10.517a.451.451,0,0,1,.078.009.284.284,0,0,0,.05.007l.168.051a.177.177,0,0,1-.081.206l-.083.122a.224.224,0,0,1-.039,0,.21.21,0,0,1-.18-.106.165.165,0,0,0-.019-.024l-.077-.125A.185.185,0,0,1,473.426,373.263Zm-3.814,5.061a.287.287,0,0,1,.06.007c0-.012.008-.024.011-.035a.392.392,0,0,1,.079-.159l.127-.011c.023.017.049.033.074.049a.43.43,0,0,1,.259.412l-.064.087a.351.351,0,0,0-.069.035h0a.383.383,0,0,1,.05.268l-.145.066a.228.228,0,0,1-.063-.065l-.08-.062a.146.146,0,0,1-.089.027h0a.258.258,0,0,1-.088-.018l-.063-.09a.153.153,0,0,1,.115-.165l-.005,0a.443.443,0,0,1-.167-.139.108.108,0,0,1-.065-.119A.111.111,0,0,1,469.613,378.324Zm-.461,4.234a.272.272,0,0,1,.146-.138.477.477,0,0,0,.055-.033.2.2,0,0,1,.17-.105l.028,0,.081.118a.078.078,0,0,0,0,.026c0-.011.044-.009.071-.008a.3.3,0,0,1,.2.056l-.041.164a.138.138,0,0,0-.034.012c.008,0,.01.021.012.038a.756.756,0,0,1,.009.2l-.059.079a.214.214,0,0,1-.083.019.129.129,0,0,1-.088-.033l-.035.011a.3.3,0,0,1-.048-.03l-.113.044a.214.214,0,0,0-.06-.038.282.282,0,0,1-.164-.159.208.208,0,0,1,.046-.2l-.089-.03Zm-1.737-8.468a.24.24,0,0,0,0-.029l.184-.029a.062.062,0,0,0-.031-.033.736.736,0,0,0,.151-.014.115.115,0,0,1,.109-.071.533.533,0,0,1,.321.251.144.144,0,0,1-.007.117.586.586,0,0,0,.049.043l-.047.07v.011h.1a.13.13,0,0,1-.033.1l-.077.032a.109.109,0,0,1-.047-.01c0,.046,0,.1,0,.129a.414.414,0,0,1-.012.122l-.067.062a.591.591,0,0,1-.175,0c-.053,0-.111,0-.112,0a.034.034,0,0,0,.017-.02l-.07.035a.264.264,0,0,1-.016.1l-.1.062c-.113-.015-.127-.126-.133-.167,0-.01,0-.025,0-.029a.05.05,0,0,0,.04.027l-.1-.137a.2.2,0,0,1,.048-.064.185.185,0,0,1-.005-.029.175.175,0,0,1,0-.059.273.273,0,0,1-.038-.216.254.254,0,0,0-.009-.143l.108-.132A.052.052,0,0,0,467.414,374.09Zm-.139,23.114c5.505,2.433,5.505,4.737,5.505,4.737s3.713-.384,5.25,2.3c0,0-4.1-1.921-6.145-.768,0,0-8.066,5.706-8.578-2.972l-2.561,2.716S461.771,394.771,467.276,397.2Zm-5.8-16.8.114-.055a.225.225,0,0,1,.1.067l.094.125a.14.14,0,0,1-.137.126.19.19,0,0,1-.153-.091A.181.181,0,0,1,461.479,380.4Zm-1.369-9.48a.17.17,0,0,1,.119-.049.287.287,0,0,1,.157.063.237.237,0,0,0,.093.045l.066.114v-.019l.087-.1h.026a.259.259,0,0,1,.165.062c.026.019.035.025.053.025l.1.133a.293.293,0,0,1-.2.169.227.227,0,0,1,.04.126.183.183,0,0,1-.2.186v-.1c-.009,0-.012.007-.023.006v-.211s.005,0,.009,0v-.025l-.062-.063v-.146a.269.269,0,0,1-.4.025.241.241,0,0,1-.068-.177Zm-1.6,7.122a.631.631,0,0,0,.079-.085.57.57,0,0,1,.143-.135.268.268,0,0,1,.167-.03l.006-.012.14-.039c.108.072.094.226.086.318,0,.016,0,.03,0,.04l.038-.013a.335.335,0,0,1,.019.113.066.066,0,0,0-.022-.041l.039.132a.169.169,0,0,1-.122.074c-.068.017-.075.024-.077.056l-.089.087h-.03c-.11,0-.309-.048-.405-.364Zm-3.008-4.741c.008-.022.017-.044.023-.062l.1-.067.1.011a1.11,1.11,0,0,1,.5.132l.013.147a.134.134,0,0,0-.019.025.118.118,0,0,1,.035.04.165.165,0,0,1,.019.081c0,.074-.034.184-.128.184h-.01a.606.606,0,0,1-.376.154.237.237,0,0,1-.2-.086.23.23,0,0,1-.043-.164C455.4,373.592,455.469,373.4,455.506,373.3Zm-.644,10.923h0a.994.994,0,0,1-.054-.129l.016-.089a.327.327,0,0,1,.4-.107c.034.009.072.021.115.029l.069.059a.264.264,0,0,1-.168.343l.009.106a.2.2,0,0,1-.258-.025v.117l-.109.1a.179.179,0,0,1-.143-.156c0-.01-.007-.025-.009-.03a.041.041,0,0,0,.025.017l-.082-.109C454.7,384.23,454.821,384.226,454.862,384.225Zm-.323,1.575a.2.2,0,0,1,.085.22v0l.013.009a.118.118,0,0,1,.068.1.161.161,0,0,1-.1.143s.008-.009.014-.032l-.051.039v.017l.09.038a.917.917,0,0,1-.326.378l-.081.016a.115.115,0,0,1-.1-.085v-.008a.3.3,0,0,1-.148.01l-.069-.047a.545.545,0,0,1,.052-.742l.045-.03a.654.654,0,0,1,.246-.022.275.275,0,0,0,.17-.018Zm-5.757-15.533a.241.241,0,0,1,.059.194l-.094.077h-.169l-.072-.159a.082.082,0,0,0,.014-.025.057.057,0,0,0,.043.056l-.074-.13A.167.167,0,0,1,448.781,370.268Zm-2.624-2.659a.18.18,0,0,1,.021.172l-.114.056a.215.215,0,0,1-.1-.067l-.094-.126A.156.156,0,0,1,446.157,367.609Zm-.746,6.229,0,.01h.043l.1.1v.169l-.021.022.031.093a.163.163,0,0,1-.157.155.209.209,0,0,1-.056-.007l-.042-.049a.183.183,0,0,1-.142,0l-.055-.065a.145.145,0,0,1,.07-.175.174.174,0,0,1-.058-.08.254.254,0,0,1,.057-.26l.069-.027A.177.177,0,0,1,445.411,373.838Zm-.577-.825a1.051,1.051,0,0,0,.1-.07l.084-.021a.224.224,0,0,1,.116.072.109.109,0,0,0,.019.017.078.078,0,0,0,.031,0l.119.11a.121.121,0,0,0,.016.078.254.254,0,0,1,.027.125l-.081.068.01.035a.415.415,0,0,1,.028.2l-.143.066a.532.532,0,0,0-.241-.064,1.2,1.2,0,0,1-.288-.055l-.066-.085A.489.489,0,0,1,444.834,373.014Zm-1.981,4.378.034.091v-.09h.028l.1.12a.215.215,0,0,1-.068.1l-.131.092a.149.149,0,0,1-.1-.1.069.069,0,0,0,.04.017l-.093-.117C442.69,377.392,442.813,377.392,442.853,377.392Zm-6.3,16.737h.64s1.793,1.654,1.793,2.3v2.439l-.9.768-.385-2.872a4.262,4.262,0,0,1-4.353,2.872,2.714,2.714,0,0,1-2.944-3.332l-2.181-1.022s3.333-2.432,5.125-2.3A6.908,6.908,0,0,1,436.549,394.129Zm-5.906-7.2.1-.087h.126l.1.1v.127l-.087.1h-.029a.2.2,0,0,1-.153-.06A.216.216,0,0,1,430.643,386.924Zm2.053-6.373,0-.012a.224.224,0,0,1,.1-.182.275.275,0,0,1,.149-.03l.047-.109a.259.259,0,0,1,.2.032c.02.011.024.014.033.014l.141.088a.283.283,0,0,1-.009.079,1.092,1.092,0,0,1,.178.1l.033.121a.8.8,0,0,0-.053.218c-.026.181-.06.406-.351.468l-.079-.018a.7.7,0,0,1-.091-.089c-.072-.078-.115-.114-.219-.1l-.1-.076a.368.368,0,0,0-.052-.115.544.544,0,0,1-.075-.183l.116-.11c-.057.008-.083.032-.086.056a.144.144,0,0,1,.054-.127l.065-.02Zm-.6-8.041.078-.037a.1.1,0,0,1,.043.01.164.164,0,0,1,.03-.048.185.185,0,0,1,.076-.051.168.168,0,0,1,.013-.081l.113-.055a.221.221,0,0,1,.1.067l.093.124a.142.142,0,0,1-.095.119.244.244,0,0,1-.2.122h-.007a.164.164,0,0,1,.007.034l-.023.066a.155.155,0,0,1-.116.069l-.081-.041a.12.12,0,0,1-.015-.1l-.013-.005-.027-.051A.169.169,0,0,1,432.1,372.51Zm-.144,6.764a.173.173,0,0,1,.293-.036l0-.017a.255.255,0,0,1,.033-.2.15.15,0,0,1,.2-.01l.048.1a.539.539,0,0,1-.023.09.288.288,0,0,0-.011.04.043.043,0,0,0-.017-.032l.078.152a.1.1,0,0,0-.026.07l-.175.058a.045.045,0,0,0,.034.014.2.2,0,0,1-.081.021.135.135,0,0,1-.115-.064.186.186,0,0,1-.21-.047A.146.146,0,0,1,431.953,379.274Zm-1.9-8.023.074-.02a.266.266,0,0,1,.242.192.2.2,0,0,1,.005.044.169.169,0,0,1,.068.063v.106a.108.108,0,0,0-.026.072l-.077.1a.279.279,0,0,1-.263-.067.217.217,0,0,1-.083.094l-.129-.021a.258.258,0,0,1-.043-.2A.589.589,0,0,1,430.049,371.251Zm-1.788,2.84a.2.2,0,0,1,.106-.057c.012,0,0,.016,0,.027l.112-.127a.146.146,0,0,1,.045.018.118.118,0,0,1,.021-.012l.032-.008a.223.223,0,0,1,.136.048.29.29,0,0,1,.049.224.361.361,0,0,0,0,.09.037.037,0,0,0-.021-.018l.054.133a.141.141,0,0,1-.127.092.177.177,0,0,1-.145-.109l-.04.04-.117.017a.279.279,0,0,1-.116-.209c0-.02-.008-.039-.013-.057Zm.547.582c-.016.118-.139.122-.18.123l-.029,0-.108-.1v-.127l.148-.081a.218.218,0,0,1,.06.064Zm-1.116-1.088.059-.043a.2.2,0,0,1-.017-.127l.107-.073s-.017.014-.02.026l.121-.065a.181.181,0,0,1,.136.184c0,.015,0,.02.026.025l.069.121a.134.134,0,0,1-.129.113.15.15,0,0,1-.046-.008.167.167,0,0,1-.121.044.2.2,0,0,1-.157-.067A.15.15,0,0,1,427.692,373.585Zm-4.928,5.631a.206.206,0,0,1,.216-.043l.059.122c-.029.118-.255.136-.257.136l-.106-.076C422.655,379.274,422.734,379.231,422.764,379.216Zm-2.73,5.057,1.736-4.568a.827.827,0,0,0,.563.326c.57.077,1.278.178,3.37-6.273h.11l1.136,1.3H431.3a10.785,10.785,0,0,0,.353,3.073c.415,1.28-.416,1.536,0,2.3a2.316,2.316,0,0,1,0,2.56c-.609,1.024-2.173,1.536-3.055,2.561s-3.187,2.3-3.442,3.328,1.536,1.793,0,3.585a17.686,17.686,0,0,0-2.945,6.4c-.384,1.536.384,3.328,0,4.1a2.93,2.93,0,0,0-.111,1.793l-2.322,4.1.512-1.28-7.17,3.585,1.28-4.865s2.56-5.889,3.328-7.938a23.6,23.6,0,0,0,.768-6.145s.256-2.049.512-3.329S420.034,384.273,420.034,384.273Zm-59.2,111.914.052.008.062.066a.171.171,0,0,1-.079.207l-.113.082a.143.143,0,0,1-.12-.16A.217.217,0,0,1,360.83,496.187Zm.446,17.394c-.053.047-.076.069-.076.125l-.123.091-.036.005a.206.206,0,0,1-.125.043l-.039,0-.057-.157a.078.078,0,0,0,.014-.026.049.049,0,0,0,.01.034.058.058,0,0,0,.033.023l-.023-.182a.654.654,0,0,0,.137-.109c.107-.1.237-.2.364-.144l.054.111A.363.363,0,0,1,361.276,513.58Zm36.372-54.128-2.288-1.545a.749.749,0,0,0-.7-.075,3.257,3.257,0,0,1-1.49.25l.231-.577v-2.56a12.474,12.474,0,0,0-.512-3.841c-.256-1.536-.512-1.024-1.024-2.816s0-2.049,0-3.841,0-1.28.512-2.049,1.024,0,2.817,1.024l.256,1.536s1.536,5.121,2.3,7.17C398.351,453.712,397.888,457.718,397.648,459.452Zm3.694-71.082c-5.377-.768-12.035,7.17-13.059,8.059s-2.049,4.232-2.049,4.232l-1.28,3.841s-.256,8.706.256,12.034,4.353,7.17,4.353,7.17V431.9c0,4.1-1.024,7.682-2.3,8.706s0,0-1.024.512-1.28,1.536-2.574,3.328-.189,1.536-.189,1.536.458,1.28-.054,5.889.257,2.561,0,3.329-.768,1.28-2.048,1.826-2.561,3.551-3.329,4.063a7.874,7.874,0,0,0-1.536,1.536l-1.792,5.633-2.44,3.585c-2.44,3.585-.121,2.049,0,3.329a11.75,11.75,0,0,1,0,2.271v5.666a22.922,22.922,0,0,0-1.4,5.378c-.117,1.174.466,1.536,1.131,1.589-.619.38-.706.852-.852,2.168a7.543,7.543,0,0,0-.082,2.018,15.471,15.471,0,0,1,.078,1.907,12.716,12.716,0,0,0,.879,3.94c.548,1.631,1.065,3.172.684,4.569a4.845,4.845,0,0,1-1.026,2.306,2.821,2.821,0,0,0-.6.948l-.261.67a.216.216,0,0,1,.088.166.14.14,0,0,1-.037.1.132.132,0,0,1-.062.038.1.1,0,0,1-.084.047l-.083-.046,0-.1a.176.176,0,0,0,.018-.04l-.017-.019a9.862,9.862,0,0,0-1.08.631.448.448,0,0,1-.056.144l.005.052a1.649,1.649,0,0,0,.028.185l-.085.127a.293.293,0,0,1-.134-.026.138.138,0,0,1-.093.032.24.24,0,0,1-.059-.008l-.066-.118a.551.551,0,0,1,.038-.094l-.714.524-.2-.064a.274.274,0,0,1-.023.07l.023.042a.144.144,0,0,1-.139.1.368.368,0,0,1-.161-.055.546.546,0,0,0-.055-.026l-.065-.138-.027.01a.187.187,0,0,1-.132-.084.157.157,0,0,1-.014-.115l-1.149-.375a.748.748,0,0,0-.233-.037h-1.28a.749.749,0,0,0-.559.25l-1.945,2.173a9.708,9.708,0,0,1-2.228.645l-1.475.246h-.6l0,.016a.437.437,0,0,0-.012.157v.069l-.066.091a1.443,1.443,0,0,0-.156.063,1,1,0,0,1-.433.111h-.034l-.072-.036a.216.216,0,0,1-.054-.18.725.725,0,0,1-.146-.1l-.025-.109.048-.111c.025-.058.042-.118.066-.176a4.57,4.57,0,0,1-1.415-.994l-.3-.452c-.018-.273-.05-.6-.089-.984a8.73,8.73,0,0,0-.35-2.016c.015-.068.039-.161.075-.3l.256-1.024a.748.748,0,0,0,0-.354l-.342-1.452v-1.9a12.108,12.108,0,0,0,1.972-2.363c1.247-.869,7.552-5.347,8.338-7.708.781-2.341,2.272-12.748,2.339-13.217l.5-4.763a14.976,14.976,0,0,0,1.039-3.509c0-.177-.047-.52-.182-1.486-.49-3.5-1.792-12.8-.381-16.422a93.562,93.562,0,0,0,2.867-9.774c.58-2.264,1.081-4.22,1.491-5.349.991-2.725,2.189-7.688,2.32-8.234.384-1.061,2.084-5.883,1.812-7.509-.3-1.781-.4-20.352,1.707-24.09.15-.267.318-.572.5-.909,2.641-4.808,8.827-16.067,19.963-17.923,7.183-1.2,12.089-2.327,13.44-3.083a24.917,24.917,0,0,1,6.063.171c-.641.471-1.508,1.1-1.96,1.4a1.444,1.444,0,0,1-1.536,0s-3.585,2.049-4.353,2.56a51.789,51.789,0,0,0-4.1,4.865l4.1,2.508A33.017,33.017,0,0,1,401.342,388.37ZM407.7,525.234a.227.227,0,0,1-.056-.008l-.072-.081a.214.214,0,0,1,.026-.128l-.023-.039a.117.117,0,0,1,.113-.093.156.156,0,0,1,.07.019l.1.173A.165.165,0,0,1,407.7,525.234Zm17.917,48a.147.147,0,0,1,.074.023l.007-.011.035,0c.033,0,.111.013.124.128v.1l-.1.1a.169.169,0,0,1-.146-.088l-.118-.095C425.5,573.238,425.6,573.234,425.613,573.234Zm-.562-28.248a.215.215,0,0,1-.029.131.094.094,0,0,0-.008-.049.074.074,0,0,0-.036-.037l.031.047-.03.017.008.12c-.014.005-.027.031-.043.071a.25.25,0,0,1-.237.188H424.7l-.061-.168a.191.191,0,0,1,.087-.138l-.008-.012a.348.348,0,0,1-.033.038l-.07.028a.118.118,0,0,1-.108-.062.189.189,0,0,1-.163-.043l-.025-.117a.275.275,0,0,1,.248-.138l.085.1.026.011a.178.178,0,0,1,.183-.046Zm3.7-43.04a.11.11,0,0,0-.035.137l-.069.117-.047.013a.853.853,0,0,1-.236.038.71.71,0,0,1-.09-.005l-.071-.1a.12.12,0,0,1-.14-.114.178.178,0,0,1,.032-.143l.068-.03a.324.324,0,0,1,.134-.151.364.364,0,0,0,.073-.063l.124-.044a.813.813,0,0,1,.08.041c.061.036.048.048.132,0l.141.082A.29.29,0,0,1,428.752,501.945Zm-.7-2.442a.167.167,0,0,1,.214-.147l.072.084a.215.215,0,0,1-.048.172.2.2,0,0,1-.154.06h-.029Zm1.781,3.274c0-.026,0-.026-.018-.032l-.066-.083a.53.53,0,0,1,.083-.393.293.293,0,0,1,.223-.09l.1.1a.258.258,0,0,1,.125.043l.04.1a.082.082,0,0,0,.022.1.257.257,0,0,1,.065.234l-.072.076-.03.005a.135.135,0,0,1-.111.057.253.253,0,0,1-.108-.031.2.2,0,0,0-.066-.022.032.032,0,0,0-.023.011Zm.5,6.452a.13.13,0,0,0-.012.026l-.108.073a.13.13,0,0,1-.078-.039h-.013l-.042,0L430,509.2a.227.227,0,0,1,.034-.131c.011-.019.011-.021.01-.033l.148-.09a.109.109,0,0,0,.066.026l.1.077A.246.246,0,0,1,430.333,509.23Zm.6-2.394a.359.359,0,0,1-.206,0l-.077.093h-.016a.248.248,0,0,1-.221-.095.286.286,0,0,1,.036-.277c-.022-.041-.011-.086.008-.16l.012-.051.125-.068a.593.593,0,0,1,.4.447Zm2.159-2.43a.247.247,0,0,1-.376,0,.15.15,0,0,1,0-.15l.107-.05.052.013a.1.1,0,0,0,.063,0l.053-.013.107.05A.15.15,0,0,1,433.093,504.406Zm.643-7.645a.934.934,0,0,1-.195.354l-.047.025a.605.605,0,0,1-.132.016.41.41,0,0,1-.372-.257.837.837,0,0,0-.057-.089l.055-.152A.512.512,0,0,0,433,496.6a.289.289,0,0,1,.069-.169.223.223,0,0,1,.151-.055.2.2,0,0,0,.041,0,.158.158,0,0,1,.2-.092l.063.063c-.008-.015,0-.01.012-.008a.219.219,0,0,1,.1.061.242.242,0,0,1,.048.125.2.2,0,0,0,.006.029.039.039,0,0,0-.025-.019l.112.131C433.761,496.693,433.748,496.727,433.736,496.76Zm1.042,7.732a.161.161,0,0,1-.089-.027l-.045-.081V504.3l.117-.094h0a.083.083,0,0,0-.04.01l.044-.052.029,0a.132.132,0,0,1,.113.065.184.184,0,0,1,.024.092A.16.16,0,0,1,434.778,504.492Zm2.637,4.094a.434.434,0,0,1,.242.279l-.057.121a.174.174,0,0,1-.1.014c-.006.019-.011.035-.017.049a.113.113,0,0,0,0,.107l-.1.13c0,.009-.016.074-.017.12a.257.257,0,0,0,.177.241l.073.119a.221.221,0,0,1-.067.1l-.018.011a.22.22,0,0,1,.041.038l.036-.006a.31.31,0,0,1,0-.047l.1-.118v.1l.09.021h0a.178.178,0,0,0,.026.086l-.008.07c0,.007.007.007.006.016s-.005,0-.008,0a.143.143,0,0,1-.011.092v.007h0a.234.234,0,0,1-.03.045l-.091.035a.152.152,0,0,1-.054-.019.229.229,0,0,1-.121.036.235.235,0,0,1-.1-.026l-.052-.073a.179.179,0,0,0-.047-.09.483.483,0,0,1-.052-.081h-.028v0l-.089.06-.065-.044-.009.007a.043.043,0,0,0,.03.013s-.017.022-.039.042a.788.788,0,0,1-.154.121l-.065.008a.159.159,0,0,1-.116-.17.878.878,0,0,1-.136-.02.856.856,0,0,0-.193-.019l-.092-.074,0-.018a.216.216,0,0,1-.061.008h-.016l-.09-.1c0-.028-.006-.039-.028-.072l-.013-.021a.139.139,0,0,1-.086.032v-.1c-.013,0-.025-.01-.03-.046s.013-.034.03-.039v-.007a.06.06,0,0,0-.034.009.147.147,0,0,0,.034-.056l.042,0,0-.011.043-.014v-.076l.025.01-.012-.081c.009-.013.007-.031,0-.067a.2.2,0,0,1,.03-.161.23.23,0,0,1,.17-.069l.1.113a.3.3,0,0,0,.016.159.691.691,0,0,1,.027.107l-.129.069a.329.329,0,0,1,.075.026l.04.067.047-.023.034-.041h0l-.035-.1a.1.1,0,0,0,.027-.07l.1-.1a.125.125,0,0,1,.077.027l.013-.01a.208.208,0,0,1,.063-.253l.054-.016a.123.123,0,0,1,.032-.09l.005,0a.217.217,0,0,1,0-.078l.124-.08.008,0,0-.018a.23.23,0,0,1,.063-.134l.059-.024.093,0c.007,0-.012.02-.014.041l.165-.053A.254.254,0,0,0,437.415,508.586Zm-.076-1.654a.757.757,0,0,0-.063.1l-.146.045a.143.143,0,0,0-.041-.021h0l-.06.041.071.021a.223.223,0,0,1-.07.282.364.364,0,0,0-.056.068.306.306,0,0,0-.013.052c-.008.044-.025.128-.093.153a.357.357,0,0,1-.091.188.261.261,0,0,0-.044.065.451.451,0,0,1,.064.015l.02.006.085-.072a.127.127,0,0,1,.111.073.166.166,0,0,1-.046.168.34.34,0,0,0-.024.036l-.115.08-.011,0a.77.77,0,0,0-.14-.025l-.112.025a.15.15,0,0,1-.1-.087.1.1,0,0,1-.005-.019.188.188,0,0,1-.115-.055l-.007.038a.419.419,0,0,0,.005.284l-.055.075.03.018a.344.344,0,0,0,.043.025l.071.126a.144.144,0,0,1-.139.1.37.37,0,0,1-.161-.053.414.414,0,0,0-.056-.026l-.038-.07c-.009.008-.018.016-.027.026a.658.658,0,0,1-.107.087l.006.014c.007.016,0,.01-.012.008l.066.136a.273.273,0,0,1-.248.137l-.1-.11a.2.2,0,0,1-.169.067h-.063l-.1-.076a.241.241,0,0,1,.031-.181.11.11,0,0,0,.012-.027l.1-.071-.01-.017a.217.217,0,0,1,.067-.1l.05-.016a.125.125,0,0,1-.015-.041.177.177,0,0,1-.059-.118s.022.018.049.018l-.1-.093a.135.135,0,0,1,.035-.1l.087-.036h.019a.136.136,0,0,1,.032-.085.133.133,0,0,1,.032-.026l0,0a.239.239,0,0,1-.032-.2l.152-.054a.46.46,0,0,0,.162.081.276.276,0,0,1-.059-.1.164.164,0,0,0-.014-.032l-.112-.114a.163.163,0,0,1,.16-.134.321.321,0,0,1,.056.006.076.076,0,0,0,.076-.008l.064,0a.2.2,0,0,1,.023-.045l-.088-.074a.181.181,0,0,1,.038-.147l.077-.07-.029,0a.134.134,0,0,1-.114-.065.18.18,0,0,1-.023-.092.186.186,0,0,1,.051-.133v-.017c0-.126.1-.128.107-.128a.151.151,0,0,1,.111.065h0l.034-.033.035,0a.176.176,0,0,1,.075.016.164.164,0,0,1,.181-.054l.013.013-.046-.067.006-.033c.01-.064.037-.213.2-.213l.029,0,.025.061a.29.29,0,0,1,.286.052l.023.092a.188.188,0,0,1-.046.082.528.528,0,0,0,.171.033.147.147,0,0,0,.03,0,.059.059,0,0,0-.033.037.065.065,0,0,0,0,.049l.057-.149c.121-.026.165.034.178.058C437.469,506.747,437.409,506.833,437.339,506.932Zm-1.716-2.208-.125-.132c.035-.066.03-.074,0-.132a.7.7,0,0,1-.042-.082l.012-.021a.108.108,0,0,1-.024-.12l.1-.061a.433.433,0,0,1,.127.033.711.711,0,0,0,.128.036l.1.1A.409.409,0,0,1,435.623,504.724Zm.349,1.793a.213.213,0,0,1-.068.1l-.122.094c-.118-.016-.121-.139-.122-.179a.292.292,0,0,0,0-.03l.1-.109h.127Zm2.528-.38a.629.629,0,0,0-.1.024.239.239,0,0,1-.066.011.143.143,0,0,1-.135-.084.181.181,0,0,1-.2.031l-.063-.09a.323.323,0,0,1,.033-.137.116.116,0,0,0,.012-.094l.087-.118c.021,0,.027,0,.051-.057a.216.216,0,0,1,.067-.095l.069-.023a.114.114,0,0,1,.037.007.279.279,0,0,1,.275-.082l.065.115c-.008.031-.008.031.017.056a.222.222,0,0,1,.077.163l.009,0,.069.089C438.807,506.079,438.614,506.115,438.5,506.137Zm4.088,5.438a.2.2,0,0,1-.085-.019l-.048-.048a.162.162,0,0,1,0-.156.154.154,0,0,1,.136-.06h.033a.065.065,0,0,0-.035.025.06.06,0,0,0-.013.042l.1-.111a.125.125,0,0,1,.121.132A.214.214,0,0,1,442.587,511.575Zm.835-2.408c-.009.015-.024.037-.034.055h0l.074.148a.224.224,0,0,1-.064.061l-.151.095-.04-.026h0l-.087.04a.337.337,0,0,1-.243-.174.266.266,0,0,0-.051-.062.1.1,0,0,0-.031.013l-.13-.131a.241.241,0,0,0,.009-.119.326.326,0,0,1,.1-.3l-.023-.042c.044-.077.151-.073.235-.04a.281.281,0,0,0,.064.019l.1-.068a.193.193,0,0,1,.169.157.181.181,0,0,0,.021.052s.009.007.026.021c.066.056.107.093.116.143A.219.219,0,0,1,443.421,509.167Zm.211-4.665a.292.292,0,0,1-.281-.205.261.261,0,0,1,.156-.292l.1.006a.606.606,0,0,1,.079.073c.046.049.071.073.124.077l.084.124A.279.279,0,0,1,443.632,504.5Zm1.312-8.531a.249.249,0,0,1-.376,0,.151.151,0,0,1,0-.15l.086-.053h.211l.086.053A.152.152,0,0,1,444.944,495.971Zm.375,9.143a.177.177,0,0,1-.275.005.144.144,0,0,1-.022-.13.147.147,0,0,1,.148-.1.169.169,0,0,1,.159.091A.142.142,0,0,1,445.319,505.114Zm.655,2.888a.55.55,0,0,1-.07.2l-.072.032-.085-.05a.232.232,0,0,0-.113-.064l-.053-.021-.043-.141a.1.1,0,0,0,.027-.071l.114-.068a.262.262,0,0,1,.1-.225l.107,0a.365.365,0,0,1,.171.338Zm3.576,4.409-.1.124a.346.346,0,0,1-.291-.167.366.366,0,0,1,0-.352l.129-.042a.236.236,0,0,1,.095.1.2.2,0,0,0,.017.027l.03-.007.118.12A.228.228,0,0,0,449.55,512.411Zm-25.931-38.263s7.17,16.131,5.121,22.021a53.418,53.418,0,0,1-2.34,5.547.241.241,0,0,1,0,.033l-.014,0c-1.533,3.188-2.873,5.523-2.591,6.2.431,1.024-1.215,4.865-1.215,4.865a52.622,52.622,0,0,1,.018,6.657,1.967,1.967,0,0,0,1.672,2.238l-.049.386c-.595,4.6-.836,6.5-.836,6.851,0,3.727.027,12.5.278,13.5a1.59,1.59,0,0,1,.032.229.168.168,0,0,1,.122,0l.034.025a.2.2,0,0,1,.048.093c.116-.02.181.05.186.2l-.117.12a.16.16,0,0,1-.05-.022.2.2,0,0,1-.156.066.267.267,0,0,1-.048-.009c.009,1.173-.162,3.38-.325,4.926a.758.758,0,0,0,.035.315,9.447,9.447,0,0,1,.473,2.343l.257,10.223v2.816a.733.733,0,0,0,.027.2c.031.116.776,2.846,1.036,3.625.05.154.1.28.149.4.158.39.262.648.072,2.355a10.82,10.82,0,0,1-.19,1.286,3,3,0,0,0-.07,1.1v2.817a.748.748,0,0,0,.15.45l1.33,1.771a1.383,1.383,0,0,0-.216.55,1.824,1.824,0,0,0,.7,1.616,4.307,4.307,0,0,1,1.107,2.087v1.207A4.559,4.559,0,0,1,427.1,585.5a.749.749,0,0,0-.193.5v2.472l-1.09.161a.747.747,0,0,0-.317.125l-3.136,2.172h-1.6a.75.75,0,0,0-.75.75v1a2,2,0,0,1-1.569-.065l-1.024-.768a.75.75,0,0,0-1.2.534l-.11,1.234-7.866-8.137a.78.78,0,0,0-.534-.229,1.793,1.793,0,0,1-1.3-.8c-.607-.833-1.378-3.069.268-8.694,3.023-10.329,4.649-14.49,4.665-14.531a.742.742,0,0,0,.048-.344c-1.26-13.552-3.08-34.153-2.952-35.621.146-.617-.127-1.89-.963-5.463l-.22-.943c-.036.017-.072.031-.1.041l-.09-.013a.567.567,0,0,1-.061-.053c-.041-.04-.059-.056-.1-.056l-.129-.088a.82.82,0,0,0-.031-.178.372.372,0,0,1,.044-.339l.152-.021c.012.008.032,0,.045-.013a.478.478,0,0,1,.1-.043,54.305,54.305,0,0,1-1.4-7.868c-.244-4.405,1.187-22.572,1.275-23.676a8.871,8.871,0,0,0,.224-3.421c-.1-.291-.2-.675-.278-1.029a3.262,3.262,0,0,1,.335-.827c0,.211.256-4.413.256-4.413v-9.113a96.912,96.912,0,0,0,2.049-15.876c.256-7.938.256-8.45.256-9.474a16.14,16.14,0,0,1,.768-3.328,35.837,35.837,0,0,0,.256-5.827,15,15,0,0,1,0-3.391,23.238,23.238,0,0,0-1.024-4.1,29.613,29.613,0,0,1-.256-5.377,36.839,36.839,0,0,1,1.536-4.353l2.817-.768,2.561,1.792.768-1.536.512-1.536,2.049-5.121c0,.007-1.279,6.147,0,8.962s4.609,3.073,4.609,3.073,1.451-.256,1.238-1.024.214-1.024,0-2.049a9.358,9.358,0,0,1,0-2.56l1.835-4.353s-.256-1.792.768-1.792h1.024l2.788-.512s6.173-7.169,7.454-8.706a20.466,20.466,0,0,0,2.049-2.945V386.834l-3.072-2.049-3.073-1.024s5.889-4.865,7.426-5.377,3.841-2.949,4.609-1.987,4.353,0,4.353,0h1.536a3.594,3.594,0,0,0,0,2.5c.512,1.28,2.049-1.024,0,3.328s-2.816,5.378-3.073,7.17-.256,9.218-.256,9.218-.257,6.657-.257,8.194-1.024,2.048.512,4.353,2.049,2.817,2.561,3.585,3.278,6.4,11.753,6.145,9.5,1.536,11.036,2.048,5.121,4.1,5.121,4.1l1.536,1.536s-1.024.512,0,2.048a9.575,9.575,0,0,0,3.328,2.623h3.585s1.793-.831,3.072-1.343l1.28-.512,1.536-.768c1.793,0,2.817-2.816,3.328-3.841l1.024-2.049s1.024,4.609,2.3,6.145l1.28,1.536,1.792-.256v-.973a.382.382,0,0,1-.072.01.176.176,0,0,0-.029,0l-.106-.115a.054.054,0,0,0,0,.025l-.046-.048a.366.366,0,0,1,.108-.214c.01-.012.023-.029.031-.04l-.01-.02a.14.14,0,0,1,.122-.108v-1.335l-1.536-7.681-1.28-4.609.766-2.832c1.9,2.812,3.884,5.844,4.5,7.045h.182l.094.078a.243.243,0,0,1-.038.208.2.2,0,0,1-.084.052c0,.012.012.029.016.04l.043.129a13.024,13.024,0,0,1,.66,2.7h.01a.24.24,0,0,0,.011-.025l.143-.042a.1.1,0,0,0,.065.025l.073.143a.064.064,0,0,0-.006-.019.244.244,0,0,1,.037.144l-.1.093h-.126l-.03-.057a.18.18,0,0,1-.052,0,10.8,10.8,0,0,1-.722,4.858c-.994,2.652-1.46,7.558-1.8,11.141a34.242,34.242,0,0,1-.475,3.895,6.034,6.034,0,0,0-.551,3.905c.074.222.173.523.28.873-8.269,20.791-22.359,17.578-22.359,17.578v5.377c0,.768-2.561,4.1-10.5,5.088s-2.3-8.16-2.3-8.16C459.466,479.526,423.619,474.149,423.619,474.149Zm-.32,39.417a.155.155,0,0,1-.157.145.23.23,0,0,1-.145-.059l-.02-.127a.107.107,0,0,0,.026-.071l.113-.1A.2.2,0,0,1,423.3,513.566Zm78.765-90.286-.011-.043.079-.12a.2.2,0,0,0,.069-.044.268.268,0,0,1,.167-.077.2.2,0,0,1,.141.063l-.028.157a.327.327,0,0,0-.081.1c-.05.081-.113.182-.228.182a.215.215,0,0,1-.122-.042l-.015-.145c.012-.013.022-.022.031-.03Zm1.21,1.144a.19.19,0,0,1,.082.015.151.151,0,0,1,.055-.046l.057-.013a.2.2,0,0,1,.08.02l.024.009.142.044.01.033a.874.874,0,0,1,.032.572l-.109.064a.452.452,0,0,1-.3-.229.221.221,0,0,1-.181.1l-.1-.094a.462.462,0,0,1,.044-.242.418.418,0,0,0,.041-.151l.091-.084Zm0-.927a.2.2,0,0,1,.262-.161l.055.113a.215.215,0,0,1-.068.1l-.124.093A.138.138,0,0,1,503.27,423.5Zm1.791,22.149a.164.164,0,0,1-.008-.162l.162-.02a.214.214,0,0,0,.067.035.4.4,0,0,1,.121.067.1.1,0,0,1,.072.11c0,.027-.023.089-.127.089C505.339,445.764,505.136,445.763,505.061,445.645Zm.216,3.3-.1.089h-.128l-.1-.1v-.085l.08-.095a.211.211,0,0,1,.2.048A.177.177,0,0,1,505.277,448.946Zm-1.392,10.45a.133.133,0,0,1-.036.1l-.086.035a.148.148,0,0,1-.045-.008h0a.2.2,0,0,1-.2.14h-.032l-.086-.082a.286.286,0,0,1,.085-.258c.032-.037.042-.051.04-.088l.07-.1a.179.179,0,0,1,.236.154.175.175,0,0,0,.009.032.043.043,0,0,0-.023-.017Zm-1.393,9.293a.176.176,0,0,1-.174.163.192.192,0,0,1-.153-.079.23.23,0,0,1-.027-.209l.042-.03v0c.02-.1.081-.119.115-.119a.139.139,0,0,1,.112.074l.018.023a.058.058,0,0,0-.036-.012l.105.107a.133.133,0,0,1-.022.058Zm-.057-3.327h-.065c-.013,0,0-.01,0-.018l-.16.074a.134.134,0,0,0-.086-.019l-.114-.073a1.142,1.142,0,0,1-.02-.117c-.008-.064-.018-.143-.045-.152l-.032-.163a.244.244,0,0,0,.036-.036v-.028a1.053,1.053,0,0,1,.014-.134l.106-.079a.2.2,0,0,0,.153-.048.433.433,0,0,1,.149-.075l.111.132a.307.307,0,0,0,.07.064.554.554,0,0,1,.164.18l.079-.02a.162.162,0,0,1,.055.155.576.576,0,0,1-.335.346A.24.24,0,0,1,502.434,465.362Zm.292,3.8.068-.068.043-.006a.121.121,0,0,1,.094.042.185.185,0,0,1,.025.156.193.193,0,0,0,0,.035.068.068,0,0,0-.044-.053c0,.009,0,.018,0,.028l.08.1a.148.148,0,0,1-.13.1l-.095-.049A.4.4,0,0,1,502.726,469.157Zm.156-5.026a.168.168,0,0,1-.138-.236l-.021-.017-.052.042a.152.152,0,0,1-.117-.085.145.145,0,0,1,.035-.14.111.111,0,0,0,.015-.022.039.039,0,0,0,0,.029l.144-.12.052.042c.068.057.119.105.185.074l.138.087v.169l-.1.1-.029,0Zm.217-3.62a.259.259,0,0,1-.176-.073l-.016-.122a.112.112,0,0,0,.022-.051.234.234,0,0,0-.039-.038.325.325,0,0,1-.123-.175l.112-.116a.3.3,0,0,1,.19.114.228.228,0,0,1,.2-.028l.046.028a.256.256,0,0,1,.042.284A.288.288,0,0,1,503.1,460.511Zm-4.761,3.136h0a.1.1,0,0,0-.007-.041.191.191,0,0,1,.089-.236.284.284,0,0,1,.141-.046.267.267,0,0,0,.052-.009l.121.056a.118.118,0,0,0,.072.072l.061.084a.469.469,0,0,1-.161.417l-.077.02a.128.128,0,0,1-.08-.042.148.148,0,0,1-.117-.009.169.169,0,0,1-.08-.12.13.13,0,0,1,.042-.1.352.352,0,0,1,.011-.039ZM454.831,506.23a.6.6,0,0,1-.376.142h0a.644.644,0,0,1-.223-.043l-.062-.082a.594.594,0,0,1,.027-.22.393.393,0,0,0,.016-.193l.163-.083c-.006,0,.012-.009.025-.013a.426.426,0,0,1,.225-.014l.073.1c0,.048.012.065.056.109a.314.314,0,0,1,.113.22Zm4.381,1.394a.5.5,0,0,0,0,.11l-.1.119a.12.12,0,0,1-.115-.08l-.031.013a.276.276,0,0,1-.065-.209c0-.029,0-.064-.008-.106l.108-.1a.084.084,0,0,0-.021.028l.122-.066C459.237,507.373,459.222,507.524,459.212,507.625Zm17.624-21a.753.753,0,0,1-.132.268,22.785,22.785,0,0,0-2.683,4.077,16.014,16.014,0,0,1-1.9,4.844,7.4,7.4,0,0,0-.737,1.552,4.909,4.909,0,0,1-1.973,2.761,9.993,9.993,0,0,0-2.236,1.905c-.173.187-.342.37-.526.553a1.059,1.059,0,0,0-.239.586,1.861,1.861,0,0,1-1.728,1.671l-.007,0a1.46,1.46,0,0,1-.585.164l-.969.1c-.88.089-1.646.118-2.276.118a14.52,14.52,0,0,1-1.936-.112l-2.746.11a.736.736,0,0,1-.129-.007.414.414,0,0,1,.114.272c0,.008,0,.017,0,.026.07.021.107.06.107.115,0,.091-.094.119-.164.14a.1.1,0,0,0,.01-.066l-.008,0h-.012l-.055.015.041.1a.6.6,0,0,1-.261.053l-.118,0-.038-.009a.243.243,0,0,1-.094-.092.19.19,0,0,0-.02-.026l-.109-.1c0-.072.009-.116.013-.15a.372.372,0,0,0-.01-.165l.086-.051c0-.01,0-.023,0-.042l.089-.1h.029a.442.442,0,0,1,.153.03.3.3,0,0,0,.08.018.752.752,0,0,1-.485-.7v-7.5a6.606,6.606,0,0,1-1.514-2.423,36.04,36.04,0,0,1-.023-5.817l-.112-2.265a.75.75,0,0,1,.749-.787H458.7l1.59-1.228a.751.751,0,0,1,1.116.232,1.759,1.759,0,0,0,.441-.247,4.992,4.992,0,0,1,2.717-1.061h8.245l1.082-2.418a.728.728,0,0,1,.053-.1l1.28-2,1.3-1.853a.746.746,0,0,1,.271-.236c2.1-1.079,2.576-.577,2.778-.364s.446.654,0,1.41a2.318,2.318,0,0,1-.577.734c-.034.115-.073.252-.117.407C478.376,480.727,476.851,486.57,476.836,486.629Zm23.643,84.491a17.569,17.569,0,0,1-2.647,1.688,2.3,2.3,0,0,1-2.153-.043,2.03,2.03,0,0,0-2.318.109,2.039,2.039,0,0,1-2.03.268.746.746,0,0,0-.475-.091l-1.478.207-3.078-2.4a.76.76,0,0,0-.655-.134,3.064,3.064,0,0,1-2.3-.474,6.028,6.028,0,0,1-2.188-3.362,1.829,1.829,0,0,0,.018-1.385l-2.642-6.564-.209.082a7.659,7.659,0,0,1-.212-3.754c.916-3.207,1.053-19.473,1.053-28.884,0-1.4-.321-4.756-.732-8.488l.493-2.01,2.049-3.073.512,1.536,2.049.768v-1.793l.512-1.536s1.024-2.048.768-2.816,0-3.841,0-4.865a33.866,33.866,0,0,0-.512-5.633c-.512-3.584,2.3-5.377,5.633-7.938s9.986-15.619,12.034-18.18,2.561-15.329,2.561-15.329l1.336-1.719c.269,3.291.492,8.072.01,9.36-.174.463-.522,1.5-1,2.934-1.537,4.583-4.737,14.12-6.056,15.817-1.553,2-2.179,7.148-2.515,9.916-.08.656-.142,1.173-.189,1.407-.259,1.293-.756,5.263-.777,5.432a.65.65,0,0,0-.005.113,59.694,59.694,0,0,1-.262,9.38,6.507,6.507,0,0,0-1.937,1.993l-.768,1.28a.754.754,0,0,0-.107.386v3.759l-.494,2.224a.825.825,0,0,0-.017.112l-1.533,22.764-.764,5.085a.758.758,0,0,0-.008.112v2.561a.759.759,0,0,0,.044.256l1.024,2.817a.818.818,0,0,0,.054.116l.89,1.557a2.382,2.382,0,0,0-3.139-.274q-1.09.578-2.192,1.127l4.088,8.161q.746-.372,1.488-.756l-1.8-3.458q.428-.222.855-.448,1.579,1.369,3.2,2.7.778-.426,1.55-.866-1.819-1.362-3.585-2.771a2.2,2.2,0,0,0,.092-2.662c-.053-.093-.111-.167-.166-.251,2.241,1.537,4.808,3.589,5.071,4.246.2.5.585,1.332.992,2.211a36.383,36.383,0,0,1,1.537,3.581c.252,1.008,1.268,5.324,1.278,5.368a.75.75,0,0,0,.089.217A3.2,3.2,0,0,1,500.479,571.119Zm-10.3-13.077q-.4.212-.8.42l-1.313-2.525q.358-.185.715-.374c1.009-.535,1.408-.189,1.851.623S491.158,557.52,490.174,558.043Z" transform="translate(-19.651 -68.36)" fill="#363636"/>
      <path id="パス_531" data-name="パス 531" d="M524.263,656.73l-.054-.15c.008-.005-.028-.024-.049-.036a.253.253,0,0,1-.136-.125.161.161,0,0,1,.063-.163s0,0,0,0a.218.218,0,0,1-.059-.086.31.31,0,0,1-.1.123.233.233,0,0,1,.076.181l-.033.075a.312.312,0,0,1-.209.065h-.027l-.041-.093-.01.008c-.118-.015-.122-.138-.123-.178a.273.273,0,0,0,0-.03l.084-.092a.167.167,0,0,1,.128-.2c.011,0,.005.01.005.018l.073-.135.036,0a.178.178,0,0,1,.113.041l.047.115a.168.168,0,0,1,.078-.061l.07.02v-.059l.1-.084a.041.041,0,0,0-.012.017l.114-.069a.134.134,0,0,1,.081.055.062.062,0,0,0-.029.038l.031-.037a.086.086,0,0,1,.009.015l.036-.029c-.006.006-.03,0-.042.01l.044-.052.028,0a.132.132,0,0,1,.114.066.175.175,0,0,1,.024.092.166.166,0,0,1-.117.171.107.107,0,0,1,.009.042.1.1,0,0,1-.056.09.376.376,0,0,0,.053.024.571.571,0,0,1,.128.066l-.076-.125a.187.187,0,0,1,.047-.049l-.011-.022c.011-.025.044-.1.123-.1a.133.133,0,0,1,.119.1h.01a.194.194,0,0,1,.124.047.336.336,0,0,0,.058-.1c.009-.019.018-.04.029-.06l-.034-.052h-.047l-.089-.061a.168.168,0,0,1,0-.138.149.149,0,0,1,.1-.071l-.017-.014a.157.157,0,0,1,.023-.138.2.2,0,0,1,.169-.063l.083.089a.177.177,0,0,1,.031-.047.391.391,0,0,1-.01-.116.368.368,0,0,0,0-.059.047.047,0,0,0,.034.027l-.078-.082c-.012-.088.032-.148.132-.176h0c.007,0-.005.016-.007.032l.047-.033,0,0a.316.316,0,0,1,.04-.115l.021-.044c-.01.006-.024,0-.035.005a.3.3,0,0,1-.077.012.145.145,0,0,1-.106-.043.189.189,0,0,1-.038-.061h0a.24.24,0,0,1-.118.044l-.107-.088a.23.23,0,0,1,.028-.138.377.377,0,0,1-.04-.064.285.285,0,0,0-.034-.055.04.04,0,0,0,.024.007l-.094-.143a.271.271,0,0,1,.037-.05.135.135,0,0,1-.032-.031.143.143,0,0,1-.023-.108.462.462,0,0,1-.185-.01h0a.139.139,0,0,1-.1.07.389.389,0,0,0,0,.082.285.285,0,0,1-.036.192l-.126.028,0,0a.248.248,0,0,1-.117.132l-.039.01h0a.614.614,0,0,1-.113-.01.176.176,0,0,1-.01.033l-.083.06c-.029-.006-.055,0-.078-.007l0,.017-.068.072a.178.178,0,0,1-.228-.121c0-.014.011-.005.019-.005l-.124-.087a.266.266,0,0,1,.052-.178l-.033-.028a.154.154,0,0,1-.168.037l-.011-.016v-.007c-.016.008-.034.025-.045.025v.1a.14.14,0,0,1-.145-.133l.008-.02a.1.1,0,0,1-.019-.014.164.164,0,0,1-.018.1l.09.061c.026.066-.023.111-.058.144l-.009,0v.026a.444.444,0,0,0,.085.021c.073.013.2.037.239.151l.047-.073a.142.142,0,0,1,.123.072.2.2,0,0,1-.016.185.254.254,0,0,0,.081,0l.071.173a.53.53,0,0,1-.261.093.181.181,0,0,1-.139-.057.208.208,0,0,1-.044-.167l.04-.032a.138.138,0,0,1,0-.031h-.014a.665.665,0,0,0-.166.022.127.127,0,0,1-.044.13l-.061.018a.108.108,0,0,1-.033-.005.335.335,0,0,1-.088.183l.055.06v.041a.406.406,0,0,1-.038.233.249.249,0,0,1,.161.086h0l.062-.029a.135.135,0,0,1,.1.094.141.141,0,0,1-.048.134.46.46,0,0,1-.26.207.242.242,0,0,1-.066.01.126.126,0,0,1-.049-.016c.188.079.374.159.553.243.219.1.444.195.675.281l-.01-.057A.214.214,0,0,1,524.263,656.73Zm.787-1.774a.26.26,0,0,1,.174.257l-.013.014a.236.236,0,0,1,.055.161l-.115.122a.168.168,0,0,1-.077-.041l-.084-.1v-.084l.014-.018a.271.271,0,0,1-.09-.181l-.007-.034Zm-.6.333a.146.146,0,0,1,.135.089l.008.054a.15.15,0,0,1-.143.119s.017-.023.017-.047l-.115.092a.122.122,0,0,1-.1-.134A.218.218,0,0,1,524.448,655.289Z" transform="translate(-104.303 -212.224)" fill="#363636"/>
      <path id="パス_532" data-name="パス 532" d="M523.812,654.687v.034a.259.259,0,0,1,.042.006l0-.009A.05.05,0,0,0,523.812,654.687Z" transform="translate(-104.719 -212.425)" fill="#363636"/>
      <path id="パス_533" data-name="パス 533" d="M600.589,385.5l.013-.059a.078.078,0,0,0-.084.057.338.338,0,0,1,.064,0C600.589,385.491,600.585,385.495,600.589,385.5Z" transform="translate(-143.061 -77.839)" fill="#363636"/>
      <path id="パス_534" data-name="パス 534" d="M562.667,485.7s-.128.483-.338,1.252c-.56,2.059-1.7,6.165-2.543,8.541-1.152,3.265-13.059,14.019-15.555,16.558a53.044,53.044,0,0,1-5.185,4.566,31.694,31.694,0,0,1-5.3-1.344c-1.841-.768-1.039-.768-2.217-1.344a7.357,7.357,0,0,1-2.564-1.878c-.861-.917-1.636-.042-2.788,0s-5.377-.811-6.721-.811c0,0-6.337,1.921-10.754,1.921-4.128,0-10.872-4.025-11.736-4.552.39.236.837.427,1.443.711a39.743,39.743,0,0,0,5.493,2.3c2.88.96,3.457,0,3.457,0s4.993-.576,6.721-.768,6.145-3.457,6.145-3.457l1.23-1.344v-2.5a5.728,5.728,0,0,0,2.034-1.344.675.675,0,0,1,1.152,0h2.688a9.6,9.6,0,0,0,2.5-2.5c.576-1.152.576,0,1.7-.96a4.218,4.218,0,0,0,1.369-2.113l.847-.96-4.78.96a10.035,10.035,0,0,1,2.564-1.344c.934-.192,6.363-9.026,6.363-9.026s4.033-3.457,4.993-4.225.192-.96,0-2.88,0,0-.576-.768-1.344,0-1.344,0a8.836,8.836,0,0,1-2.5.384c-1.344,0-1.921,1.53-1.921,1.53a14.639,14.639,0,0,1-.768,1.35,9.185,9.185,0,0,1-2.032,1.536,7.169,7.169,0,0,0,0,1.471c.079.9-3.151,1.6-3.151,1.6l-1.629,2.112-3.172,2.881h-1.728l-3.841-.96-1.92-.96h-2.638a5.428,5.428,0,0,1-.051-2.688c.384-1.152-1.536-1.728-1.728-1.986a7.41,7.41,0,0,1-.384-1.663,5.936,5.936,0,0,1,.384-1.536,10.89,10.89,0,0,0,1.728-4.8c0-1.921-3.265-4.225-3.841-4.609a15,15,0,0,0-2.3-.96s-2.3-.384-3.073-1.323-2.88,0-2.88,0l-2.3.171a8.636,8.636,0,0,0-3.649,0c-2.5.384-2.5,4.8-3.264,7.3s1.536,4.225,1.536,4.225l-.192,3.2-.384,1.6L495.069,488l.576.96,1.536.192h1.441l.863,3.265-1.344,1.536-.576.192c-.576.192-2.3,3.073-2.3,3.073l-.384,2.5a33.356,33.356,0,0,1-.272,4.136l-3.569-7.388v-2.126a18.238,18.238,0,0,0-1.49-3.633c-.529-.561-1.007-3.473-.944-4.432s0-14.922,0-14.922c-2.242,2.554-.006,20.3-.006,20.3l.583,8.066,1.28,6.529s1.152,4.993,1.344,6.721.768,7.682.768,7.682.96-2.881,1.389-4.033-.429-1.536,0-2.113,0-2.454,0-2.454h1.232l3.217,1.11A21.055,21.055,0,0,1,501.022,517c.384,1.152,13.059,4.8,17.639,5.761s16.545-2.688,16.545-2.688l9.6-6.721C565.164,498.371,562.667,485.7,562.667,485.7ZM513.1,508.455a.753.753,0,0,1-.087.351c-.13.245-1.048,1.726-4.273,1.726a19.8,19.8,0,0,1-6.535-1.371.75.75,0,0,1,.027-1.421,25.85,25.85,0,0,1,4.548-1.093h5.57a.75.75,0,0,1,.75.75Zm3.366-17.075h2.192a.75.75,0,0,1,.75.735,4.131,4.131,0,0,1-.959,2.754,7.76,7.76,0,0,1-1.411,1.111,2.372,2.372,0,0,1-1.6,1,3.955,3.955,0,0,1-2.1-.01,2.007,2.007,0,0,0-.42-.071,3.648,3.648,0,0,1-1.808.321,16.439,16.439,0,0,1-1.724-.1.667.667,0,0,1-.09-.016,4.457,4.457,0,0,0-2.762.037.767.767,0,0,1-.867-.147l-.669-.68-1.564-.7-1.695-.565a.75.75,0,0,1-.513-.712v-1.152a.749.749,0,0,1,.091-.358l1.345-2.481a.749.749,0,0,1,.318-.311l1.536-.783a.747.747,0,0,1,.341-.082H506.4a.759.759,0,0,1,.157.016l3.649.784Zm-17.207-7.555a5.045,5.045,0,0,1-.827-.813c-.3-.331-1.08-1.209-1.388-1.221a.844.844,0,0,1-.983-.2,1,1,0,0,1-.125-1.039c-1.443-1.163-1.867-2.6-1.157-4.023a.751.751,0,0,1,.255-.289,2.3,2.3,0,0,1,2.867.094,3.094,3.094,0,0,1,.453.592l2.136-1.073a.749.749,0,0,1,.857.13l1.009.972a9.524,9.524,0,0,0,2.719,0c.251-.025.478-.047.675-.058a.651.651,0,0,1,.1-.1c.424-.341.779-.126,1.317.2a17.64,17.64,0,0,0,2.548,1.107.749.749,0,0,1,.424.369c.405.8.582,1.923-.253,2.48a4.237,4.237,0,0,0-.342.26,2.284,2.284,0,0,1-1.61.634,1.594,1.594,0,0,1-.385-.042l-.29.036-.222.026a.635.635,0,0,0,.13.016h2.56a.75.75,0,0,1,.608,1.189l-.031.043a.753.753,0,0,1,.121.63c-.124.5-.437.565-1.368.772l-.333.074a37.014,37.014,0,0,1-4.5.838,6.407,6.407,0,0,1-1.269-.06,1.408,1.408,0,0,0-.664,0,2.635,2.635,0,0,1-1.048.182,5.834,5.834,0,0,1-1.145-.124.751.751,0,0,1-.592-.734A1.425,1.425,0,0,0,499.261,483.825ZM495.89,496.91a.754.754,0,0,1,.237-.352c.494-.408,1.739-1.3,2.63-.721.906.583.522,2,.377,2.538-.71,2.625.636,5.147,1.359,6.5.093.174.174.327.239.457a4.822,4.822,0,0,1,.037,3.371.75.75,0,0,1-.532.48.729.729,0,0,1-.176.021.75.75,0,0,1-.516-.205l-1.728-1.634a.775.775,0,0,1-.066-.07l-1.728-2.113C494.095,502.826,495.7,497.509,495.89,496.91Zm.984,11.639,0-.005c.022.015.043.03.066.044Z" transform="translate(-86.62 -119.789)" fill="#363636"/>
      <path id="パス_535" data-name="パス 535" d="M342.3,677.142l2.236-1.472c.059.089.12.175.179.265a.321.321,0,0,1,.047-.046l.126-.106a.217.217,0,0,1,.11.059l.069-.055a.476.476,0,0,1,.279.239.281.281,0,0,1-.018.231l-.088.052a.123.123,0,0,1-.118-.09l-.075.019a.325.325,0,0,1-.076-.141l-.09.082h0c.452.68.905,1.358,1.369,2.023l1.007-.705q-.86-1.234-1.693-2.5l2.236-1.472q.932,1.419,1.9,2.793l1-.709q-1.437-2.045-2.8-4.187l-5.066,3.215a.205.205,0,0,1,.059.026l.037.093a.125.125,0,0,1-.037.072.121.121,0,0,1,.065.071.161.161,0,0,1-.045.151.207.207,0,0,0-.03.044l-.115.118a.172.172,0,0,1-.107-.093c0-.008.01,0,.018,0l-.146-.112a.165.165,0,0,1,.114-.109.172.172,0,0,1-.069-.1l-2.378,1.509q1.482,2.334,3.048,4.562l1.067-.754Q343.293,678.651,342.3,677.142Zm5.488-4.327.09-.027a.18.18,0,0,1,.145.11c.033.095-.035.183-.081.242l-.1.048a.144.144,0,0,1-.124-.1A.332.332,0,0,1,347.789,672.815Zm-1.267-.281c.059.008.193.05.167.275l-.137.074a.28.28,0,0,1-.138-.247Zm-1.542,1.938.095-.083h.084l.094.075a.159.159,0,0,1-.024.137.2.2,0,0,1-.169.062l-.12-.115A.176.176,0,0,1,344.98,674.471Z" transform="translate(-12.942 -220.789)" fill="#363636"/>
      <path id="パス_536" data-name="パス 536" d="M363.116,700.028l-.022-.025q.677-1.627,1.393-3.227l-.091-.026a.759.759,0,0,0-.058-.15,1.437,1.437,0,0,1-.11-.3l.056-.059-.014-.017c.021-.139.128-.151.194-.114a.179.179,0,0,1,.046-.069l.046-.023a.358.358,0,0,1,.257.035c.24-.532.477-1.067.723-1.594q-.511-.6-1.015-1.2l-6.986,5.864q.572.686,1.152,1.361l4.142-3.592.021.025q-1.227,2.777-2.347,5.629.558.618,1.124,1.225l6.649-6.247q-.552-.592-1.1-1.195Z" transform="translate(-21.604 -231.705)" fill="#363636"/>
      <path id="パス_537" data-name="パス 537" d="M388.845,717.032q-1.815-1.491-3.573-3.078l-6.1,6.792q1.915,1.731,3.893,3.354l.827-1.012q-1.3-1.067-2.57-2.179l1.758-2.022q1.08.946,2.181,1.857l.782-.95q-1.087-.9-2.156-1.836l1.759-2.022c.14.123.285.239.425.361a.189.189,0,0,1,.052-.088l.089-.019a.323.323,0,0,1,.2.144.223.223,0,0,1,.17.062.154.154,0,0,0,.085.043l.019.022a.16.16,0,0,1,.031-.038l.117-.011a.108.108,0,0,0,.065.026l.1.1v.179a.412.412,0,0,1,.165-.021l.069.153,0,.005c.016.007.037.014.051.019a.21.21,0,0,1,.129.083.442.442,0,0,1,.048.218.292.292,0,0,0,.034.157l-.078.1c.218.183.432.372.651.552Z" transform="translate(-32.422 -242.05)" fill="#363636"/>
      <path id="パス_538" data-name="パス 538" d="M409.153,734.988c.928-1.51.641-2.743-.894-3.749q-1.042-.685-2.071-1.4l-5.2,7.5q.7.484,1.4.955l2.17-3.237q.405.272.813.54-.435,2.046-.82,4.112.754.48,1.513.947.317-2.25.7-4.478A2.2,2.2,0,0,0,409.153,734.988Zm-3.185-.375q-.383-.253-.765-.509l1.584-2.364.68.452c.964.633.852,1.148.355,1.928S406.908,735.229,405.968,734.613Z" transform="translate(-43.326 -249.991)" fill="#363636"/>
      <path id="パス_539" data-name="パス 539" d="M433.127,745.349a2.41,2.41,0,0,0-3.318.844l-2.2,4.286c-.686,1.32.26,2.64,1.488,3.228s2.846.5,3.452-.856l1.183-2.616c-.768-.345-1.531-.7-2.292-1.067l-.038.016a.253.253,0,0,1-.1.214l-.1.009a.155.155,0,0,0-.061-.022s-.013.025-.021.039a.27.27,0,0,1-.245.167l-.233.48.194.092.035-.05a.92.92,0,0,1,.612.2l.023.1a.344.344,0,0,0-.012.063l.3.144q-.365.777-.731,1.554a1.123,1.123,0,0,1-1.994-.957l2.14-4.319a1.067,1.067,0,0,1,1.9.915l-.2.418q.71.332,1.424.653l.191-.421A2.393,2.393,0,0,0,433.127,745.349Zm.6.948a.226.226,0,0,0-.071.156l-.089.095h-.027a.449.449,0,0,1-.155-.031.242.242,0,0,0-.144-.014l-.1-.037a.14.14,0,0,1-.043-.01l.012-.06-.061.025-.021-.01h0l0,.006a.114.114,0,0,1-.09-.09l.01-.022a1.057,1.057,0,0,1-.028-.256.371.371,0,0,1,.1-.162c.041-.046.066-.076.065-.1l.1-.1h.024a.431.431,0,0,0,.108-.015.339.339,0,0,1,.243.024l.052.1c-.009.08.02.1.08.15a.413.413,0,0,1,.12.132l0,.076A.51.51,0,0,1,433.728,746.3Z" transform="translate(-56.514 -257.585)" fill="#363636"/>
      <path id="パス_540" data-name="パス 540" d="M457.13,754.593q-.719-.242-1.434-.5l-3.074,8.591q.779.276,1.562.54Z" transform="translate(-69.134 -262.116)" fill="#363636"/>
      <path id="パス_541" data-name="パス 541" d="M478.7,760.553q-2.122-.441-4.228-.973l-.3,1.191q1.323.335,2.653.633-2.152,2.97-4.479,5.856-.143.559-.287,1.117,2.371.6,4.763,1.1.127-.6.254-1.2-1.53-.318-3.051-.68c.612-.782,1.207-1.572,1.8-2.364h-.007l-.147-.057a.16.16,0,0,1,.023-.138.14.14,0,0,1,.037-.033.2.2,0,0,1,.031-.139.213.213,0,0,0,.033-.1l.1-.089a.922.922,0,0,1,.3.067q1.172-1.578,2.3-3.177Zm-3.978,4.19c-.03.024-.047.039-.053.058l-.143.054a.154.154,0,0,1-.07-.178.338.338,0,0,1,.288-.209l.093.123A.306.306,0,0,1,474.725,764.743Z" transform="translate(-78.849 -264.856)" fill="#363636"/>
      <path id="パス_542" data-name="パス 542" d="M546.742,764.315q-.392,1.869-.829,3.735l-.03,0q-.81-1.739-1.578-3.489-.794.071-1.588.131,1.229,2.547,2.563,5.065l.369,3.837q.817-.077,1.633-.167-.214-1.916-.426-3.832.788-2.734,1.47-5.477Q547.533,764.224,546.742,764.315Z" transform="translate(-114.168 -267.127)" fill="#363636"/>
      <path id="パス_543" data-name="パス 543" d="M574.514,761.923a2.62,2.62,0,0,0-5.039,1.16q.489,2.358.978,4.716c.3,1.457,1.84,1.9,3.149,1.6s2.5-1.372,2.123-2.81Q575.119,764.255,574.514,761.923Zm-1.208,6.2a.955.955,0,0,1-1.275-.659l-1.047-4.7a1.052,1.052,0,0,1,2.033-.468l1.142,4.68C574.307,767.585,573.882,767.992,573.306,768.124Z" transform="translate(-127.52 -265.208)" fill="#363636"/>
      <path id="パス_544" data-name="パス 544" d="M662.935,719.248a2.77,2.77,0,0,0,1.17-2.324,2.7,2.7,0,0,0-.893-1.669,2.48,2.48,0,0,0-1.981-1.086,3,3,0,0,0-1.962.9q-.893.783-1.8,1.542l5.833,7.021q.66-.551,1.312-1.114l-2.32-2.705Q662.614,719.529,662.935,719.248Zm-.844-.9q-.3.262-.6.521l-2.02-2.355q.316-.272.628-.546c.942-.831,1.41-.312,1.984.33C662.69,716.977,663.1,717.462,662.09,718.352Z" transform="translate(-171.527 -242.156)" fill="#363636"/>
      <path id="パス_545" data-name="パス 545" d="M683.994,700.595l-2-1.781q.977-1.106,1.93-2.245l-.94-.793q-.942,1.126-1.908,2.219l-2-1.782q1.08-1.222,2.13-2.488l-.943-.789q-1.56,1.882-3.19,3.667l6.712,6.179q1.775-1.945,3.476-4l-1-.838Q685.144,699.295,683.994,700.595Z" transform="translate(-181.329 -231.544)" fill="#363636"/>
      <path id="パス_546" data-name="パス 546" d="M697.008,672.079l-1.038-.659q-1.511,2.381-3.12,4.643l1,.715q.569-.8,1.125-1.613l6.5,4.463q.518-.757,1.026-1.526l-6.578-4.355Q696.474,672.92,697.008,672.079Z" transform="translate(-189.214 -220.789)" fill="#363636"/>
      <path id="パス_547" data-name="パス 547" d="M721.837,637.187a2.949,2.949,0,1,0,2.949,2.949A2.949,2.949,0,0,0,721.837,637.187Z" transform="translate(-202.23 -203.677)" fill="#363636"/>
      <path id="パス_548" data-name="パス 548" d="M326.5,637.187a2.949,2.949,0,1,0,2.949,2.949A2.949,2.949,0,0,0,326.5,637.187Z" transform="translate(-4.618 -203.677)" fill="#363636"/>
      <path id="パス_549" data-name="パス 549" d="M328.423,339.649a4.449,4.449,0,0,1-3.247-.356l-2.926,4.562a9.325,9.325,0,0,0,7.749.957,8.857,8.857,0,0,0,5.776-11.665l-9.206-27.265-5.112,1.727,8.969,26.563C331.627,337.729,329.676,339.226,328.423,339.649Z" transform="translate(-3.571 -38.072)" fill="#363636"/>
      <rect id="長方形_31" data-name="長方形 31" width="5.395" height="37.663" transform="translate(331.723 265.535) rotate(-13.281)" fill="#363636"/>
      <path id="パス_550" data-name="パス 550" d="M387.011,328.766l-3.436-22.379.1-.016L395.272,327.5l5.02-.771L394.576,289.5l-5.334.819,3.445,22.431-.1.016-11.5-21.195-5.124.787,5.717,37.228Z" transform="translate(-30.815 -29.883)" fill="#363636"/>
      <path id="パス_551" data-name="パス 551" d="M432.209,324.693l7.33-.57c6.962-.542,9.786-4.475,9.277-11.015l-.164-2.11c-.3-3.9-1.641-6.08-4.266-7.1,2.259-1.661,3.462-3.24,3.15-7.249l-.107-1.371c-.381-4.9-3.323-9.292-10.284-8.75l-7.858.611Zm7.281-5.978-2.321.181-.935-12.024,2.374-.185c3.9-.3,4.74,1.594,5.03,5.339C443.925,315.717,443.814,318.378,439.489,318.714Zm-2.214-27.1c3.533-.275,4.881,1.371,5.14,4.693.267,3.428-.539,5.348-4.125,5.627l-2.426.189-.8-10.336Z" transform="translate(-57.47 -28.378)" fill="#363636"/>
      <path id="パス_552" data-name="パス 552" d="M481.794,321.7l1.382-8.13,7.35-.186,1.791,8.051,5.394-.137-9.359-37.438-4.495.114L476.4,321.834Zm9.055-16.8a.183.183,0,0,1,.112-.15.616.616,0,0,0-.013-.112.243.243,0,0,1,.088-.275l.1-.008a.589.589,0,0,0,.169.044c.173.031.433.076.431.42l-.082.094c-.108.016-.148.192-.167.276l-.019.06a.12.12,0,0,1-.1.074l-.069-.029-.021-.06-.05.012-.011,0,0,.035a.219.219,0,0,1-.1.029h0a.18.18,0,0,1-.16-.131c-.025-.056-.031-.058-.056-.058l-.088-.164A.087.087,0,0,0,490.849,304.893Zm-4.451,3.993-.09.027c-.117-.027-.116-.149-.115-.207a.318.318,0,0,0,0-.044l.107-.107a.178.178,0,0,1,.154.116A.212.212,0,0,1,486.4,308.885Zm3.67-14.468a.261.261,0,0,1,.214.1.173.173,0,0,1,.017.167l-.1.061a.071.071,0,0,0,.021-.028l-.112.069a.176.176,0,0,1-.126-.124c-.005-.015.008-.007.016-.007l-.127-.129A.205.205,0,0,1,490.067,294.418Zm-.48,18.67-.026.057a.176.176,0,0,1-.129.058.236.236,0,0,1-.206-.248l.085-.1a.254.254,0,0,1,.229.063A.207.207,0,0,1,489.587,313.088Zm-1.539-24.7.048-.068a.355.355,0,0,1,.127-.04.105.105,0,0,1,.005-.023.115.115,0,0,1,.123-.075.075.075,0,0,0-.052.052l.145-.081a.422.422,0,0,1,.126.127.246.246,0,0,0,.077.08l.054.1c-.024.127-.131.314-.284.314l-.027,0a.209.209,0,0,1-.151.042s.02-.012.03-.033l-.1.051a.117.117,0,0,1-.108-.123.11.11,0,0,1,.017-.05l-.009-.028A.483.483,0,0,1,488.048,288.39Zm-.17,7.806.095-.084h.085l.093.075a.157.157,0,0,1-.024.137.2.2,0,0,1-.169.062l-.12-.117A.177.177,0,0,1,487.878,296.2Zm-1.146-10.41a.2.2,0,0,0,.014-.022.038.038,0,0,0,0,.028l.144-.12c.017.014.035.027.052.043.068.057.119.105.185.074l.138.086v.169l-.1.1a.146.146,0,0,1-.029,0l-.116.086a.168.168,0,0,1-.138-.236l-.021-.017-.051.042a.152.152,0,0,1-.117-.085A.143.143,0,0,1,486.733,285.787Zm.32,5.6.079.1a.148.148,0,0,1-.13.1l-.095-.049a.4.4,0,0,1-.039-.29l.069-.067.043-.006a.121.121,0,0,1,.094.042.184.184,0,0,1,.025.156.223.223,0,0,0,0,.035.07.07,0,0,0-.044-.053A.228.228,0,0,0,487.052,291.382Zm-.96-4.433,0-.027a1.058,1.058,0,0,1,.014-.134l.106-.079a.205.205,0,0,0,.154-.049.438.438,0,0,1,.149-.075l.111.132a.308.308,0,0,0,.07.064.557.557,0,0,1,.164.179l.079-.02a.162.162,0,0,1,.054.155.573.573,0,0,1-.335.346.229.229,0,0,1-.082.012l-.065,0c-.013,0,0-.01,0-.017l-.16.073a.13.13,0,0,0-.085-.019l-.114-.073c-.009-.036-.014-.077-.019-.117-.008-.064-.017-.143-.045-.152l-.031-.163A.212.212,0,0,0,486.092,286.948Zm.542,3.833a.176.176,0,0,1-.174.162.192.192,0,0,1-.153-.079.23.23,0,0,1-.028-.209l.042-.031h0c.02-.1.081-.119.116-.119a.139.139,0,0,1,.112.074c.005.007.014.02.018.023a.059.059,0,0,0-.036-.011l.105.107a.132.132,0,0,1-.022.058Zm-1.448,8.175.117-.056a.164.164,0,0,1,.111.129.425.425,0,0,1-.073.329l-.149-.022A.482.482,0,0,1,485.186,298.956Zm-.406,4.8-.1.1H484.6l-.094-.115a.049.049,0,0,0,0,.022l-.046-.048a.121.121,0,0,1,.054-.1l-.008-.009a.118.118,0,0,1,.113-.092.153.153,0,0,1,.07.019l.113.149,1.5-8.922.106,0,2.988,13.576-5.394.136.8-4.76A.1.1,0,0,0,484.779,303.755Zm-2.1,8.246.012-.042.077-.072.036,0a.18.18,0,0,1,.112.04l.09.085a.31.31,0,0,1-.058.24.206.206,0,0,0-.028.054l-.107.07a.187.187,0,0,1-.136-.084A.356.356,0,0,1,482.682,312Z" transform="translate(-81.02 -27.063)" fill="#363636"/>
      <path id="パス_553" data-name="パス 553" d="M534.862,283.142a9.444,9.444,0,0,0-5.053,1.368l.055.07a.214.214,0,0,1-.059.148.223.223,0,0,0-.021.03.071.071,0,0,0,0-.057l0-.009a.384.384,0,0,0-.014.037l.035.1a.185.185,0,0,1-.125.066l-.1-.073a.269.269,0,0,1,.022-.17,8.8,8.8,0,0,0-3.924,7.546l-.328,19.885a8.833,8.833,0,0,0,8.892,9.352,9.409,9.409,0,0,0,5.43-1.607.09.09,0,0,1-.034-.062.1.1,0,0,1,.095-.1h.022l-.062-.038a.146.146,0,0,1,.088-.065v-.027a.328.328,0,0,1,.011-.112l-.03-.016c-.035-.049-.032-.122.007-.228l.158-.034a.214.214,0,0,1,.065.142.613.613,0,0,1,.122.021.157.157,0,0,0,.027.006l.126,0c.01.012.017.021.027.033a8.911,8.911,0,0,0,3.142-6.974l.328-19.886A8.833,8.833,0,0,0,534.862,283.142Zm-9.016,26.247v-.127C525.969,309.2,525.969,309.45,525.846,309.388Zm.645.925-.128.093a.21.21,0,0,1-.148-.22l.1-.093h.127l.08.149A.106.106,0,0,0,526.49,310.314Zm8.918-26.03.035,0a.224.224,0,0,1,.205.14.158.158,0,0,0,.026.04l.041.133a.353.353,0,0,0-.024.107c-.013.1-.037.275-.227.28l-.093-.063a.735.735,0,0,1-.036-.278,1.858,1.858,0,0,0-.011-.25Zm-5.722,19.531c-.02,0-.039.008-.057.014l-.125-.1c0-.066.041-.177.239-.177l.073,0,.078.144A.281.281,0,0,1,529.686,303.815Zm.382-5.568-.114.057a.183.183,0,0,1-.137-.1.17.17,0,0,1,.049-.161.247.247,0,0,0,.027-.038l.146-.032C530.144,298.054,530.095,298.18,530.068,298.247Zm2.182,20.322a.292.292,0,0,0-.076-.024.4.4,0,0,1-.141-.052l-.039-.1a.222.222,0,0,1,.069-.1l.168-.074c.013.01.026.019.04.028a.3.3,0,0,1,.165.312Zm.6-.607a.189.189,0,0,0-.018.042l-.116.13.008.071a.233.233,0,0,1-.082.024v0a.171.171,0,0,1-.148.076.169.169,0,0,1-.148-.076.155.155,0,0,1,0-.156l.106-.052a1.529,1.529,0,0,1,.009-.315l.064-.1a.178.178,0,0,1,.218.069.246.246,0,0,1,.034.085l.046-.017C532.888,317.793,532.9,317.867,532.847,317.962Zm5.185-5.672a3.653,3.653,0,1,1-7.3-.121l.328-19.885a4.906,4.906,0,0,1,.173-1.239.134.134,0,0,1-.043-.078.193.193,0,0,1,.094-.163.3.3,0,0,0,.038-.036h0a3.4,3.4,0,0,1,3.448-2.231,3.484,3.484,0,0,1,3.587,3.868Zm2.245-11.237-.047.01.037.067a.243.243,0,0,1-.159.122c-.025.008-.029.009-.049.043l-.164,0a.4.4,0,0,1-.039-.231.352.352,0,0,0-.041-.226l.018-.135a.2.2,0,0,0,.054-.086l.1-.06a.246.246,0,0,1,.2.156c.028.051.033.054.048.055l.058.167A.177.177,0,0,0,540.276,301.053Zm1.563,9.433a.227.227,0,0,1-.2.136h-.024l-.088-.091v-.009a.225.225,0,0,1-.035-.022l-.088-.119a.165.165,0,0,1,.04-.077l.1-.083h.084l.074.075a.679.679,0,0,1,.089-.024l.026-.006.06.182A.14.14,0,0,0,541.839,310.486Zm.839-11.469a.305.305,0,0,0-.086-.013.477.477,0,0,1-.27-.083l.007-.029a.293.293,0,0,1-.216-.054l.006-.162c.006-.01.031-.076.044-.111a.362.362,0,0,1,.062-.126l.035-.015a.135.135,0,0,1,.125-.086c.076,0,.142.059.228.141l.006.02a.3.3,0,0,1,.05,0l.1.073.012.042a.8.8,0,0,1,.033.331Z" transform="translate(-105.481 -26.705)" fill="#363636"/>
      <path id="パス_554" data-name="パス 554" d="M599.417,310.654a.118.118,0,0,0-.016.038l-.089.086a.212.212,0,0,1-.049,0,.133.133,0,0,1-.128.1.253.253,0,0,1-.118-.039.176.176,0,0,0-.03-.016h0a.071.071,0,0,0,.072-.042l-.191,0a.211.211,0,0,0-.015-.071s-.016-.014-.1-.014h-.037l-.064-.171a.052.052,0,0,0,0,.049.242.242,0,0,1-.077-.134.789.789,0,0,1,.2-.588h0l.063.072.05-.077s-.014.022-.015.035l.1-.138a1.593,1.593,0,0,1,.326.045l-.1-.7a.25.25,0,0,1-.228.133.4.4,0,0,1-.061,0l-.056-.063a.233.233,0,0,1-.153-.038l-.029-.055-.036.022a.289.289,0,0,1-.173-.307.383.383,0,0,0-.043-.2l.1-.144a.048.048,0,0,0-.024.02.322.322,0,0,0,.008-.035.244.244,0,0,1,.05-.125.267.267,0,0,1,.106-.062.241.241,0,0,0,.051-.023l.084-.115h.107a.249.249,0,0,1,.151.036l.011,0-2.962-21.357-.585-.048.04.07c-.014.052-.009.056.026.088a.359.359,0,0,1,.034.033l.016.108a.441.441,0,0,0-.027.071.33.33,0,0,1-.143.211.152.152,0,0,1-.076.135l-.036.014a.588.588,0,0,1-.226-.017.33.33,0,0,0-.064-.011c-.005,0-.011,0-.021.022l-.133.035a.48.48,0,0,1-.255-.353l-.012,0a.306.306,0,0,1-.019-.33.21.21,0,0,1,.124-.081.315.315,0,0,0,.06-.027.046.046,0,0,0-.01.044l.032-.075-3.206-.263L580.161,323.25l5.377.441,2.244-7.936,7.328.6.919,8.2,5.377.442Zm-8.727-8.747a.286.286,0,0,0,0-.053l.1-.124a.176.176,0,0,1,.162.118.257.257,0,0,1-.059.26l-.071.027a.133.133,0,0,1-.1-.044A.22.22,0,0,1,590.69,301.906Zm-2.435-.418a.278.278,0,0,1-.079.011l-.1-.1c0-.066.042-.176.241-.176l.071,0,.091.1v.169l-.156.075A.328.328,0,0,1,588.255,301.489Zm.434,7.006-.144.078a.294.294,0,0,1-.131-.3l.1-.09C588.705,308.2,588.693,308.405,588.689,308.495Zm2.85,4.979c-.061.013-.121.024-.176.042l-.1-.029a.234.234,0,0,1-.037-.057.128.128,0,0,1-.062.015.222.222,0,0,1-.075-.016l-.06-.073a5.059,5.059,0,0,1-.065-.512c0-.058-.01-.117-.017-.178a.106.106,0,0,1-.026-.113l.094-.064a.263.263,0,0,1,.077.017.593.593,0,0,0,.08.022.183.183,0,0,1,.23-.125,1.273,1.273,0,0,1,.121.054.312.312,0,0,0,.257.029l.113.077a.188.188,0,0,0,.051.088.462.462,0,0,1,.068.1l.007.062a.136.136,0,0,1-.068.089l.036.045a.5.5,0,0,1,.067.1l.008.058C592.013,313.377,591.75,313.431,591.539,313.474Zm-2.393-2.7,3.752-13.384.106.009,1.519,13.817Zm5.584-13.262-.067.025a.123.123,0,0,1-.12-.093l-.077.017a.288.288,0,0,1-.041-.059.188.188,0,0,1-.061.036.067.067,0,0,0,.017-.041l-.145.082-.039-.025a.58.58,0,0,0-.128-.072.06.06,0,0,0,.053-.036l-.139.049c-.07-.042-.1-.092-.093-.15.014-.091.113-.115.185-.133a.313.313,0,0,0,.039-.011c.01-.007.028-.022.047-.038a.328.328,0,0,1,.333-.091l.055.071a.2.2,0,0,1-.064.171.174.174,0,0,1,.065-.012.254.254,0,0,1,.228.135A.154.154,0,0,1,594.73,297.51Zm1.815-.146a.1.1,0,0,1-.053-.014.259.259,0,0,1,0,.061l-.133.074-.045-.018a.63.63,0,0,1-.126-.059l-.046.042h-.127l-.1-.1v-.085l.08-.094h0a.188.188,0,0,1,.04-.121.161.161,0,0,1-.024-.146.308.308,0,0,1,.275-.2l.029,0,.076.059a.747.747,0,0,1,.029.093c.026.1.036.1.063.1l.124.113a.061.061,0,0,0,.011.053.28.28,0,0,1,.031.076v.038C596.639,297.349,596.579,297.364,596.545,297.364Z" transform="translate(-132.885 -28.336)" fill="#363636"/>
      <path id="パス_555" data-name="パス 555" d="M631.284,313.651a.176.176,0,0,1-.058.041l-1.833,13.667,5.347.718,5.008-37.33-5.348-.718-3.152,23.5Zm4.948-13.146h0a.394.394,0,0,0,.13-.029.856.856,0,0,1,.3-.057h.03l.091.077c.028.136.034.164-.02.258l-.03.057s0,.017,0,.034a.316.316,0,0,1-.049.152l-.075.035-.072.08a.546.546,0,0,1-.4-.505Zm-3.389,10.759.059.057a.169.169,0,0,1,0,.139.153.153,0,0,1-.11.073.07.07,0,0,0,.022-.053l-.034.047a.24.24,0,0,1,.033.021l.043-.025a.146.146,0,0,1,.091.114.172.172,0,0,1-.089.149.257.257,0,0,0-.039.035l-.038.036a.12.12,0,0,1,.022.077.275.275,0,0,1-.236.235h-.02l-.083-.108a.216.216,0,0,1,.1-.149.179.179,0,0,0,.025-.02l.022-.018a.348.348,0,0,1-.065-.27l.047-.076.007,0a.151.151,0,0,1-.007-.062.22.22,0,0,1,.2-.205Zm-.59-2.777.08-.1a.236.236,0,0,1,.158.019l.049-.059c.122-.028.194.042.2.193l-.117.12a.173.173,0,0,1-.073-.039l-.012-.014-.06.057h-.128l-.1-.1Z" transform="translate(-157.494 -30.148)" fill="#363636"/>
      <path id="パス_556" data-name="パス 556" d="M662.273,298.888a.18.18,0,0,1,.183-.047l.188.065a.218.218,0,0,1-.029.132.088.088,0,0,0-.008-.049.072.072,0,0,0-.036-.037l.031.046-.03.017.008.12c-.015.005-.026.031-.043.071a.25.25,0,0,1-.237.188h-.007l-.061-.168a.19.19,0,0,1,.087-.139l-.007-.012a.461.461,0,0,1-.033.037l-.07.029a.163.163,0,0,1-.029-.007l-4.851,24.922c-.717,3.687-3.154,4.021-4.452,3.768a4.452,4.452,0,0,1-2.645-1.916l-4.8,2.515a9.324,9.324,0,0,0,6.259,4.667,8.857,8.857,0,0,0,10.794-7.277l5.5-28.248-5.3-1.031-.453,2.326.015.016Z" transform="translate(-165.511 -33.4)" fill="#363636"/>
      <path id="パス_557" data-name="パス 557" d="M694.442,335.362l.109-.082a.285.285,0,0,1,.176.109.261.261,0,0,0,.035.036l.039.084s0,.005,0,.008l2.891.911-.919,8.2,5.147,1.621,1.886-21.988-.009.02a.259.259,0,0,1-.171.185.192.192,0,0,1-.123.131l-.023.012-.159.054h.008l-.049.031a.356.356,0,0,1-.173.071h-.013a.173.173,0,0,1-.143-.06l-.017.008-.114-.021a.152.152,0,0,1-.044-.159c-.014-.012-.026-.025-.038-.038-.042-.043-.063-.065-.108-.068l-.084-.067a.156.156,0,0,1,.011-.125.256.256,0,0,1-.1-.127.268.268,0,0,1-.008-.106s0,0,0,0l-.116-.124a.209.209,0,0,1,.129-.135c.042-.255.271-.314.44-.338a.114.114,0,0,1-.012-.112.132.132,0,0,1,.114-.07.265.265,0,0,1,.041,0,.132.132,0,0,1,.12.062.122.122,0,0,1,.018.063.16.16,0,0,1,.076.013l.057.063c.006.02.018.027.079.047a.364.364,0,0,1,.15.081.128.128,0,0,1,.029.118c.018.018.044.04.07.063a.891.891,0,0,1,.167.172.153.153,0,0,1,.017.048l1.385-16.147-4.288-1.351-19.344,33.4,5.146,1.621,3.946-7.242,3.772,1.188A.162.162,0,0,1,694.442,335.362Zm2.492-.424a.189.189,0,0,1-.216.034c0,.015.005.032.009.053s.01.054.014.085l-.094.108a.745.745,0,0,0-.133.016.322.322,0,0,1-.262-.034.125.125,0,0,1-.115.069.209.209,0,0,1-.075-.016.26.26,0,0,1-.163-.244.245.245,0,0,0-.007-.044l-.1-.128c.01-.029.022-.057.034-.084a.368.368,0,0,0,.044-.178l.073-.1a.586.586,0,0,1,.15-.017l.043.1h0v-.094c.048,0,.054,0,.079-.056l.11-.053a.942.942,0,0,1,.609.466Zm3.176.576.034.013.09-.067a.915.915,0,0,1,.261.243,1.132,1.132,0,0,0,.135.148l-.012.154a.574.574,0,0,0-.048.032l.013.031c.01.02.021.045.031.075l-.082.1-.028.014.032.065c-.019.091-.171.112-.26.116h0a.218.218,0,0,1-.123-.042l0,0-.078-.027-.009.007,0,.006,0,.094a.125.125,0,0,1-.094-.039l0,0a.145.145,0,0,1-.055-.02c-.1.084-.21.059-.247-.033a.4.4,0,0,1,.029-.29.579.579,0,0,1-.036-.077.227.227,0,0,0-.034-.067l-.018-.126c.028-.042.057-.08.088-.118a1.231,1.231,0,0,0,.118-.169l.043-.041A.345.345,0,0,1,700.11,335.514Zm-1.62-21.356a.337.337,0,0,0,0-.054l.084-.123h.026a.2.2,0,0,1,.153.06.218.218,0,0,1,.05.172l-.082.061s0,.011,0,.025l-.1.088a.132.132,0,0,1-.1-.044A.222.222,0,0,1,698.49,314.158Zm.047,3.408.095.133a.3.3,0,0,0-.013.06.422.422,0,0,1-.034.116l0,.006.006.01.117-.063a.284.284,0,0,1,.138.248l-.081.075.031.1a.145.145,0,0,1-.133.1.213.213,0,0,1-.154-.1l-.022-.024-.067.031a.137.137,0,0,1-.1-.153.123.123,0,0,1,.017-.045.2.2,0,0,1-.086-.159A.344.344,0,0,1,698.537,317.567Zm-5.6,6.367c-.023.071-.063.107-.118.107-.073,0-.1-.065-.125-.108a.24.24,0,0,0-.02-.036.068.068,0,0,0,.049.019l-.1-.109c.017-.118.14-.121.18-.123a.174.174,0,0,0,.029,0l.108.083a.208.208,0,0,1-.027.128Zm6.794-6.5.1.032-1.58,13.812-5.146-1.622Z" transform="translate(-183.581 -38.353)" fill="#363636"/>
      <path id="パス_558" data-name="パス 558" d="M726,341.589h0l.017.09.007-.079a.046.046,0,0,0-.025-.011Z" transform="translate(-205.783 -55.92)" fill="#363636"/>
      <path id="パス_559" data-name="パス 559" d="M388.106,259.427l-1.381-7.718,1.444-.258a4.437,4.437,0,0,0,3.742-2.79,7.215,7.215,0,0,0,.094-4.114c-.422-2.36-.951-3.555-2.107-4.408a4.675,4.675,0,0,0-3.914-.733l-4.247.76,3.537,19.768Zm-1.588-17.365c2.221-.4,2.494,1.129,2.827,2.99.353,1.971.568,3.336-1.737,3.749l-1.36.244-1.2-6.719Z" transform="translate(-33.702 -4.781)" fill="#363636"/>
      <path id="パス_560" data-name="パス 560" d="M416.893,254.614l-.377-2.852-5.649.746-.772-5.844,4.921-.65-.355-2.684-4.921.65-.772-5.844,5.648-.746-.354-2.684-8.5,1.123,2.631,19.908Z" transform="translate(-45.711 -2.494)" fill="#363636"/>
      <path id="パス_561" data-name="パス 561" d="M428.21,235.95l1.682,17.291,2.864-.279-1.683-17.291,3.312-.322-.263-2.695-9.487.923.262,2.695Z" transform="translate(-55.145 -1.469)" fill="#363636"/>
      <path id="パス_562" data-name="パス 562" d="M451.273,251.669l-.577-8.555,4.953-.334-.182-2.7-4.953.334-.41-6.078,5.684-.383-.182-2.7-8.555.577,1.351,20.036Z" transform="translate(-66.35 -0.767)" fill="#363636"/>
      <path id="パス_563" data-name="パス 563" d="M474.2,250.725a4.71,4.71,0,0,0,4.631-5.089l-.405-10.6a4.824,4.824,0,1,0-9.639.369L469.2,246A4.71,4.71,0,0,0,474.2,250.725Zm-.672-17.531a1.858,1.858,0,0,1,2.023,1.955l.405,10.6a1.948,1.948,0,1,1-3.889.149l-.406-10.6A1.857,1.857,0,0,1,473.531,233.194Z" transform="translate(-77.213 -0.3)" fill="#363636"/>
      <path id="パス_564" data-name="パス 564" d="M498.367,250.134a5.065,5.065,0,0,0,2.468-.677l0,0c-.082-.07-.119-.093-.2-.049l-.143-.074a.243.243,0,0,1,.023-.138l-.021-.02a.242.242,0,0,1,.03-.185.118.118,0,0,0,.012-.027l.122-.012c.009-.012.021-.032.03-.046a.468.468,0,0,1,.091-.12l.107.074h.049a.219.219,0,0,0,.023.064l.089-.026a.322.322,0,0,1,.142.329,4.694,4.694,0,0,0,1.942-4.056l-.12-10.6a4.684,4.684,0,0,0-2.13-4.071l-.127.1a.275.275,0,0,1-.138-.248l.01-.01a5.061,5.061,0,0,0-2.495-.626,4.709,4.709,0,0,0-4.766,4.962l.121,10.6A4.709,4.709,0,0,0,498.367,250.134Zm2.553-8.394.154-.036.01.01.063-.038h.005l0-.007c.017-.068.051-.207.195-.207a.255.255,0,0,1,.068.01l.069.082a.236.236,0,0,0,.05.118.353.353,0,0,1,.027.392l-.161.028a.83.83,0,0,1-.092.029.59.59,0,0,1-.15.028.175.175,0,0,1-.137-.057l0-.083a.122.122,0,0,1-.1-.055A.225.225,0,0,1,500.92,241.74ZM498.1,231.4c.016,0,.021,0,.033.006l0-.1a.17.17,0,0,1,.18.169.2.2,0,0,1-.057.137.2.2,0,0,1-.145.059v-.1s-.005,0-.008,0Zm.067,1.193a1.858,1.858,0,0,1,1.97,2.009l.058,5.061a.116.116,0,0,1,.1.117.1.1,0,0,1,0,.021c.02,0,.04,0,.06,0a.21.21,0,0,1,.2.124l.01.042a.211.211,0,0,1-.1.179.134.134,0,0,0-.024.02l-.131.1a.333.333,0,0,0-.1-.016l.057,4.96a1.948,1.948,0,1,1-3.893.044l-.121-10.6A1.858,1.858,0,0,1,498.167,232.592Zm-2.78-1.157.062.058a.169.169,0,0,1,0,.139.157.157,0,0,1-.11.073.071.071,0,0,0,.022-.053l-.1.138a.175.175,0,0,1-.161-.187A.211.211,0,0,1,495.387,231.435Zm-.662,6.162a.147.147,0,0,1,.132-.094.2.2,0,0,1,.149.094.293.293,0,0,0,.036.038l-.007.029.059.123a.166.166,0,0,0-.019.1l-.1.1a.14.14,0,0,1-.146-.144c0-.008,0-.015,0-.021l0,0a.485.485,0,0,1-.1-.145Z" transform="translate(-89.501 0)" fill="#363636"/>
      <path id="パス_565" data-name="パス 565" d="M518.192,234.89l-.012.029a.766.766,0,0,0-.066.2l-.072.063-.03,2.516a.2.2,0,0,1,.189-.12v.105c.012,0,.017-.009.03-.006.008.021-.01.038-.03.054v.039l-.024,0s-.01,0-.013-.008c-.018.016-.026.031.025.04a.07.07,0,0,1-.063.027v.1a.13.13,0,0,1-.092-.038c-.015-.014-.016-.039-.023-.059l-.147,12.2,4,.048c3.384.041,5.323-1.713,5.368-5.435l.113-9.391c.039-3.243-1.743-5.211-4.985-5.25l-2.044-.025a.117.117,0,0,1-.085.058l-.076-.033a.109.109,0,0,1-.018-.025.222.222,0,0,0,0,.09l-.12.1a.2.2,0,0,1-.069-.035.258.258,0,0,1-.047.111l.023.022a.15.15,0,0,1-.1.1.082.082,0,0,0,.015-.029l-.014,0-.1.08a.117.117,0,0,1-.106-.117.169.169,0,0,1-.056-.16l.067-.058a.577.577,0,0,1-.008-.124l-1.523-.019-.057,4.763a.243.243,0,0,1,.123.063Zm8.866,5.856c.059.008.193.051.167.275l-.137.075a.282.282,0,0,1-.138-.248Zm-1.541,1.938.095-.083h.084l.094.075a.158.158,0,0,1-.024.137.2.2,0,0,1-.169.063l-.121-.116A.176.176,0,0,1,525.516,242.684ZM525.3,244.1l.125-.106a.213.213,0,0,1,.11.059L525.6,244a.475.475,0,0,1,.279.24.28.28,0,0,1-.017.231l-.088.052a.123.123,0,0,1-.118-.09l-.075.019a.327.327,0,0,1-.076-.142l-.09.083a.214.214,0,0,1-.1-.068l-.079-.161A.21.21,0,0,1,525.3,244.1Zm-.561,5.018a.151.151,0,0,1,.058-.047.2.2,0,0,1,.039-.155.157.157,0,0,1,.173-.029l.059.123c-.006.019-.012.04-.018.062-.023.091-.062.242-.233.255l-.1-.074A.159.159,0,0,1,524.738,249.12Zm-2.979-17.449a.232.232,0,0,1,.132-.036l.1.088a.221.221,0,0,1-.032.134c-.011.02-.011.021-.01.032l-.085.106-.035,0a.191.191,0,0,1-.148-.061.265.265,0,0,1-.049-.216Zm-1.56,15.5a.309.309,0,0,1,.052-.188.183.183,0,0,0,.037-.137l.054-.108.026-.012a.445.445,0,0,1,.392-.03l.02.021.1-8.4a.188.188,0,0,1-.023-.15c0-.012.019-.018.025-.028l.066-5.449.4.005v0h-.093a.157.157,0,0,1,.081-.122l-.039-.047a.123.123,0,0,1,.118-.137c.06,0,.112.044.172.11l-.019.019.047.044a.146.146,0,0,1-.057.119c0,.006.009.014.013.02l.7.009c1.693.02,2.217.929,2.2,2.509l-.117,9.673c-.02,1.721-.65,2.5-2.258,2.483l-1.156-.014a.6.6,0,0,1-.043.059.118.118,0,0,0-.042.11l-.075.105a.216.216,0,0,1-.046,0,.136.136,0,0,1-.117-.055.314.314,0,0,1-.263-.116c-.057-.053-.094-.085-.139-.085l-.1-.11A.126.126,0,0,1,520.2,247.175Zm-.727-8.77a.085.085,0,0,1,.01-.034l.089-.055a.2.2,0,0,1,.1.036l.045.109a.215.215,0,0,1-.067.1l-.116.094c-.092-.007-.125-.05-.137-.086C519.371,238.5,519.426,238.444,519.472,238.406Z" transform="translate(-101.745 -0.121)" fill="#363636"/>
      <path id="パス_566" data-name="パス 566" d="M518.236,245.6s0,0,0-.007l-.076.005v0Z" transform="translate(-101.893 -7.937)" fill="#363636"/>
      <path id="パス_567" data-name="パス 567" d="M565.242,255.618l-.1,0h.1Z" transform="translate(-125.379 -12.948)" fill="#363636"/>
      <path id="パス_568" data-name="パス 568" d="M565.383,255.491v.01l.005-.006S565.386,255.491,565.383,255.491Z" transform="translate(-125.499 -12.884)" fill="#363636"/>
      <path id="パス_569" data-name="パス 569" d="M566.015,231.415l0-.056-.015-.007.009.063Z" transform="translate(-125.81 -0.818)" fill="#363636"/>
      <path id="パス_570" data-name="パス 570" d="M562.3,235.51l-.042,0v.005h.04S562.3,235.514,562.3,235.51Z" transform="translate(-123.939 -2.896)" fill="#363636"/>
      <path id="パス_571" data-name="パス 571" d="M554.843,241.261l2.021.933c1.385.624,1.623.973,1.532,3.114-.077,1.831-.267,2.98-2.212,2.9a1.9,1.9,0,0,1-1.941-2.143l.039-.9-2.08-.089.006.005a.1.1,0,0,0,.123.039l.114.12a.165.165,0,0,0-.008.052s.016,0,.038,0a.538.538,0,0,0,.076-.007l.107.079a.559.559,0,0,1-.021.275.409.409,0,0,0-.021.156l-.141.093-.041-.023-.034-.02c0,.008,0,.018,0,.03l-.121.08a.333.333,0,0,1,.075.192.445.445,0,0,1-.065.295l.07.061a.15.15,0,0,1-.087.159.135.135,0,0,1-.014.128c-.044.062-.149.062-.247.044l-.037-.006.021-.006-.058-.014-.01.008v.1h0a.3.3,0,0,1-.162-.06c-.046-.029-.067-.043-.1-.029l-.127-.087a.156.156,0,0,0-.016-.058.3.3,0,0,1-.017-.054.232.232,0,0,1-.06-.034l-.029.027c-.022,0-.037-.017-.055-.027a4.743,4.743,0,0,0,4.7,4.493c3.719.158,5.065-2.3,5.21-5.678.124-2.93-.287-4.557-2.782-5.623l-2.161-.967c-1.468-.655-1.585-1.2-1.52-2.746a3.615,3.615,0,0,1,.437-1.744l-.012-.013a.259.259,0,0,1-.117-.164.172.172,0,0,1-.062-.059l-.012-.027a.169.169,0,0,1,.122-.227c.016-.008,0,.011.005.019l.1-.123a.8.8,0,0,0,.163,0,.637.637,0,0,1,.187,0,.167.167,0,0,1,.11.092,1.879,1.879,0,0,1,1.13-.266,2.207,2.207,0,0,1,.75.164l.057-.036h0a.057.057,0,0,0,.037-.008.139.139,0,0,1,.073-.022.183.183,0,0,1,.117.053l.02.124a.159.159,0,0,1-.025.03,2.353,2.353,0,0,1,.9,2.206l-.028.648,2.874.122.06-1.409a4.645,4.645,0,0,0-2.88-4.356.209.209,0,0,1-.028.126l.023.042a.143.143,0,0,1-.139.1.367.367,0,0,1-.162-.054.374.374,0,0,0-.055-.025l-.065-.139-.028.01a.186.186,0,0,1-.132-.084.212.212,0,0,1,0-.176v0a5.056,5.056,0,0,0-1.135-.181c-3.3-.14-5.034,2.242-5.164,5.285C551.827,238.479,552.406,240.141,554.843,241.261Zm4.093,5.453c.047-.037.064-.054.07-.086l.147-.065a.111.111,0,0,0,.069.027l.1.1v.211l-.162.07a.488.488,0,0,0-.1.027.618.618,0,0,1-.167.041l-.1-.11A.315.315,0,0,1,558.936,246.714Zm-.68-3.557a.22.22,0,0,1,.065-.145.172.172,0,0,1,.122-.054v.1c.009,0,.016-.006.024,0a.051.051,0,0,1-.024.067v.01s-.005,0-.007,0c-.023.011-.052.02-.053.053,0,0,0,0-.008,0v.1a.12.12,0,0,1-.12-.124Zm-1.7-2.359-.075.037H556.4l-.094-.079a.179.179,0,0,1,.037-.148l.123-.087a.16.16,0,0,1,.093.278Zm-.331-.732.09-.055a.127.127,0,0,1,.077.027.169.169,0,0,1,.156-.024l.07.107a.3.3,0,0,1-.085.161c-.029.034-.04.047-.04.078l-.168.063-.034-.037A.249.249,0,0,1,556.229,240.065Zm.307-7.024a.154.154,0,0,1,.257-.059.145.145,0,0,1,.122-.066v.109c.011,0,.019-.012.034,0-.071.084,0,.054,0,.169-.015.008-.023,0-.034,0v.109a.15.15,0,0,1-.14-.1l-.123.038C556.522,233.165,556.528,233.076,556.537,233.041Zm-3.275,3.47a.177.177,0,0,0,.018-.034l.107-.135a.181.181,0,0,1,.143.111c.034.094-.035.183-.08.241l-.111.045a.147.147,0,0,1-.106-.086A.154.154,0,0,1,553.262,236.512Z" transform="translate(-118.492 -0.483)" fill="#363636"/>
      <path id="パス_572" data-name="パス 572" d="M574.249,231.869l-.151,2.372,3.322.211-.873,13.722.1-.054a.146.146,0,0,1,.1.093.209.209,0,0,1-.055.184.262.262,0,0,0-.025.039l-.1.082-.042,0-.208,3.278.217.014h0l-.009-.03a.192.192,0,0,1,.145-.166l.15-.114a.537.537,0,0,1,.1.05.4.4,0,0,0,.068.035l.052.137a.456.456,0,0,0-.033.1l-.007.02,1.045.066v-.007a.436.436,0,0,0-.015-.105.04.04,0,0,0,.031.017l-.071-.166a.586.586,0,0,1,.8.04l.029.1a.775.775,0,0,0-.036.166l.4.026,1.1-17.34,3.322.211.172-2.7-9.514-.6-.017.279.013.019C574.261,231.847,574.255,231.858,574.249,231.869Zm4.734,11.377h-.127l-.1-.1v-.085l.08-.094a.2.2,0,0,1,.2.047.177.177,0,0,1,.044.138Zm-.56-3.859a.193.193,0,0,1,.09-.157.1.1,0,0,0,0-.06.238.238,0,0,1,.061-.22.189.189,0,0,1,.039-.082l.074-.034a.089.089,0,0,1,.032.006l.033-.045a1.007,1.007,0,0,1,.346-.016,2,2,0,0,0,.222.014l.062.107a.163.163,0,0,1,.108.073.173.173,0,0,1,.011.11.113.113,0,0,1,.077.067.151.151,0,0,1,.008.084.089.089,0,0,1,.039.066.323.323,0,0,1-.007.1.223.223,0,0,0,.032.195l-.078.152c-.045,0-.06.012-.1.126a.456.456,0,0,1-.086.18l-.079.032-.089-.01a1.559,1.559,0,0,0-.206-.018.285.285,0,0,0-.119.018l-.069.007a.173.173,0,0,1-.11-.078.136.136,0,0,1-.013-.086h0c-.081.014-.141.007-.176-.034l-.016-.109a.148.148,0,0,0,.008-.035l-.017-.01C578.436,239.655,578.4,239.6,578.424,239.386Z" transform="translate(-129.855 -0.911)" fill="#363636"/>
      <path id="パス_573" data-name="パス 573" d="M598.24,233.252,595.374,233l-.027.31.1-.067a.17.17,0,0,1,.074.041l.083.094v.084l-.1.1h-.169l-.009-.012-1.319,14.96a4.653,4.653,0,0,0,6.378,4.75V253.2l.115-.094.046.01a.648.648,0,0,0,.113.018h0c.013,0,.021-.014.02-.06l.082-.1a.186.186,0,0,1,.148.03,4.661,4.661,0,0,0,2.368-3.685l1.367-15.507-2.865-.253-1.342,15.226c-.122,1.382-.917,1.989-1.906,1.923.011.049-.014.085-.059.134a1.037,1.037,0,0,0-.1.112l-.07.058-.03,0h-.013a.858.858,0,0,1-.16.123,1.137,1.137,0,0,0-.094.066l-.084.019a.164.164,0,0,1-.091-.073l-.042.029a.479.479,0,0,1-.166-.078l-.071.04c-.193-.029-.184-.2-.179-.276,0-.1,0-.1-.038-.1l-.075-.1a.261.261,0,0,1,.078-.142.125.125,0,0,0,.018-.022l.006-.025a.27.27,0,0,1,.05-.119.174.174,0,0,1,.067-.036,2.06,2.06,0,0,1-.586-1.837Zm4.879,5.571-.035-.06c.017-.117.135-.121.18-.122l.029,0,.091.04a.376.376,0,0,1,.059.279l-.1.083h-.211l-.1-.1A.133.133,0,0,1,603.12,238.823Zm-.84,3.509.1-.06a.449.449,0,0,1,.076.011.468.468,0,0,0,.089.012l.18.053a.2.2,0,0,1-.04.169.257.257,0,0,1-.2.071l-.073,0-.087-.076a.143.143,0,0,1,0-.031l-.02-.014A.12.12,0,0,1,602.279,242.331Zm-6.385-7.14-.085.1-.03,0c-.157,0-.183-.148-.194-.211l-.007-.034.094-.117h.126l.1.1Z" transform="translate(-139.797 -1.641)" fill="#363636"/>
      <path id="パス_574" data-name="パス 574" d="M619.26,235.291l-2.4,19.935,3.976.48c2.549.307,4.381-.5,5.312-2.527a.189.189,0,0,1-.052-.037.127.127,0,0,1-.031-.143l.1-.064a.193.193,0,0,1,.072.018,7.921,7.921,0,0,0,.516-2.074l1.124-9.324a5,5,0,0,0-1.318-4.459.14.14,0,0,1-.106.049.238.238,0,0,1-.185-.1.17.17,0,0,1-.026-.154l.053-.026a5.547,5.547,0,0,0-2.81-1.071Zm.673,19.124-.032.047a.671.671,0,0,1-.415.177.52.52,0,0,1-.185-.035l-.007-.024c-.1.024-.2-.064-.22-.189a.36.36,0,0,1-.13-.357l.069-.035a.148.148,0,0,1,.062-.116l.057-.016a.158.158,0,0,1,.061-.107.2.2,0,0,1,.158-.018h.006l.04-.083.035,0a.119.119,0,0,1,.105.062A.511.511,0,0,1,619.933,254.415Zm1.395.745-.021.048a.178.178,0,0,1-.091.055l-.006.014a.152.152,0,0,1-.054.078.27.27,0,0,1-.148.03.289.289,0,0,0-.051,0,.045.045,0,0,0,.025-.033l-.128.134a.561.561,0,0,0-.152-.025.646.646,0,0,1-.377-.116l-.02-.126a.1.1,0,0,0,.011-.027h0c-.1-.031-.113-.094-.114-.128a.166.166,0,0,1,.1-.139.129.129,0,0,1,.009-.1l.092-.054a.1.1,0,0,1,.024,0h0a.261.261,0,0,1,.131-.227l.114.048a.258.258,0,0,1,.12-.055.39.39,0,0,1,.224.042.377.377,0,0,0,.159.042l.108.088a.982.982,0,0,0,.021.129A.839.839,0,0,1,621.328,255.16Zm3.7-13.948-1.158,9.6c-.206,1.708-.916,2.418-2.512,2.225l-1.316-.159.569-4.723-.013,0a.318.318,0,0,1-.05,0l-.037-.014a.146.146,0,0,1-.081-.12.128.128,0,0,1,.051-.1.149.149,0,0,1,.018-.226l.047-.023a.2.2,0,0,1,.122.012l1.128-9.361,1.316.159C624.788,238.684,625.212,239.644,625.023,241.212Z" transform="translate(-151.228 -2.787)" fill="#363636"/>
      <path id="パス_575" data-name="パス 575" d="M642.964,262.274v.008l0,0Z" transform="translate(-164.277 -16.275)" fill="#363636"/>
      <path id="パス_576" data-name="パス 576" d="M643.449,258.745l2.95-19.86-2.845-.423-1.763,11.874.083-.11H642l.09.129c-.019.052-.018.056-.013.079a.482.482,0,0,1,.015.088h.077l.094.076a.162.162,0,0,1-.025.138.2.2,0,0,1-.169.062l-.12-.118,0-.007a.215.215,0,0,1-.1-.042l-.1-.073-1.153,7.765Zm-.231-14.451.041,0v.084l.066-.081.016.015h0a.144.144,0,0,1,.03.159.182.182,0,0,1-.168.1.222.222,0,0,1-.186-.108l-.008-.123C643.043,244.292,643.123,244.284,643.218,244.294Zm-.465,5.578a.116.116,0,0,1,.112-.092.156.156,0,0,1,.07.019l.1.173a.165.165,0,0,1-.158.155.229.229,0,0,1-.056-.008l-.071-.08a.213.213,0,0,1,.026-.128Zm-1.1,2.982.1-.1h.168l.095.107a.057.057,0,0,0,0,.025.256.256,0,0,0,.077.027c.078.02.263.067.216.293l-.151.058a.227.227,0,0,0-.082,0c-.026,0-.057,0-.078.006a.156.156,0,0,0-.005.025.258.258,0,0,0,.008.031l.012.053-.128.111,0,0a.157.157,0,0,1-.144.1.232.232,0,0,1-.051-.006l-.073-.1a2.527,2.527,0,0,1,.024-.285A1.969,1.969,0,0,0,641.652,252.854Z" transform="translate(-163.098 -4.372)" fill="#363636"/>
      <path id="パス_577" data-name="パス 577" d="M656.658,261.6a4.709,4.709,0,0,0,5.62-3.969l1.889-10.435a4.823,4.823,0,1,0-9.49-1.719l-1.891,10.435A4.71,4.71,0,0,0,656.658,261.6Zm3.638-5.775a.142.142,0,0,1-.136-.153.169.169,0,0,1,.219-.165l0,.09a.088.088,0,0,0-.027-.005l0,.009,0,.021v.058l0,.006.077.058A.176.176,0,0,1,660.3,255.823Zm-2.788-9.835a1.948,1.948,0,1,1,3.83.694l-1.89,10.434a1.948,1.948,0,1,1-3.83-.694Zm-2.385,8.489c.041-.04.055-.054.039-.122l.082-.117a.566.566,0,0,1,.55.161l.011.1c-.02.041-.02.042,0,.079a.42.42,0,0,1,.052.164l-.059.1-.06.012a.154.154,0,0,1-.044-.007.108.108,0,0,1-.062.078l-.06.012a.233.233,0,0,1-.089-.021l-.028.054-.048.009c-.113,0-.136-.119-.144-.159l.05-.028-.054,0-.066.078v0h0a.3.3,0,0,1-.082-.111.131.131,0,0,0-.043-.056l-.029-.111A.334.334,0,0,1,655.122,254.477Z" transform="translate(-169.14 -5.853)" fill="#363636"/>
    </g>
  </g>
</svg>
