<svg xmlns="http://www.w3.org/2000/svg" width="400" height="350" viewBox="0 0 400 350">
  <g id="logo_4" transform="translate(-733 -1184)">
    <rect id="長方形_21" data-name="長方形 21" width="400" height="350" transform="translate(733 1184)" fill="none"/>
    <g id="グループ_111" data-name="グループ 111" transform="translate(548.95 1092.388)">
      <g id="グループ_92" data-name="グループ 92" transform="translate(405.368 250.186)">
        <path id="パス_469" data-name="パス 469" d="M369.472,235.536c2.654,1.522,2.965,2.267,2.247,5.234-.659,2.721-1.369,5.429-2.139,8.471,1.52-.085,2.853-.211,4.185-.207a4.77,4.77,0,0,1,1.431.49c-.214.545-.283,1.4-.667,1.578-1.344.63-2.836.945-4.194,1.553a2.909,2.909,0,0,0-1.5,1.482,22.822,22.822,0,0,0-.609,3.659c2.931.533,6.095-1.528,8.958.338l.278.768c-1.085.771-2.182,1.528-3.254,2.316-2.154,1.582-4.592,2.918-6.319,4.878-.931,1.058-.739,3.189-.878,4.851-.34,4.058-.453,8.14-.9,12.186a67.963,67.963,0,0,1-1.55,7.541c-1.209,5.276-2.2,10.62-3.769,15.787a84.312,84.312,0,0,1-5.6,14.509c-2.032,3.894-4.8,4.337-8.642,1.769a19.589,19.589,0,0,1-1.878-1.727,15,15,0,0,1,3.3-.244c2,.331,3.46-.189,4.276-2.094a67.029,67.029,0,0,0,3.073-7.459c1.915-6.551,3.9-13.109,5.279-19.786,1.336-6.478,1.951-13.1,2.856-19.671a23.162,23.162,0,0,0,.013-2.675c-1.51,1.085-2.659,1.985-3.878,2.776-5.729,3.709-11.514,7.329-17.2,11.093s-11.248,7.7-16.94,11.449a12.412,12.412,0,0,1-4.476,1.808,3.387,3.387,0,0,1-2.7-1.157c-.381-.48.025-1.751.356-2.553a1.762,1.762,0,0,1,1.495-.435c.958,1.137,1.92.46,2.684-.005q5.448-3.318,10.784-6.819c4.807-3.157,9.6-6.339,14.337-9.6q7.738-5.335,15.333-10.871c.547-.4.731-1.3,1.082-1.961l-.354-.368c-2.135.625-4.319,1.119-6.394,1.9-3.495,1.321-6.871,2.968-10.407,4.152-.824.276-2.134-.667-3.117-1.231a1.511,1.511,0,0,1-.261-1.406,6.81,6.81,0,0,1,2.187-1.268c1.448-.527,2.95-.908,4.424-1.368,3.471-1.079,6.926-2.212,10.411-3.242,3.664-1.084,4.027-1.527,4.038-5.851-.8.13-1.583.206-2.336.388-2.012.488-4,1.092-6.02,1.517-2.311.485-3.774-.574-4.08-3.007,1.8-.373,3.635-.737,5.458-1.134,2.266-.493,4.552-.928,6.774-1.573a2.469,2.469,0,0,0,1.461-1.562c.637-3.125,1.094-6.287,1.65-9.658-2.053-.552-3.95.477-5.914.853-1.624.311-3.282,1.055-4.831-.137-.4-.3-.9-.978-.8-1.311.166-.542.764-.973,1.237-1.386.154-.135.487-.059.734-.1,2.925-.458,3.167-.679,2.493-3.48-.635-2.64-1.473-5.235-2.307-7.822-.4-1.226-.452-2.287.908-2.806a1.928,1.928,0,0,1,2.756,1.206c.726,2.3,1.3,4.659,1.856,7.011.264,1.127.336,2.3.533,3.731a16.81,16.81,0,0,0,7.239-6.386,2.379,2.379,0,0,0,.008-1.607c-.209-.818-1.321-1.716.246-2.267a2.35,2.35,0,0,1,3.189,1.172,4.933,4.933,0,0,1-1.2,5.8c-.747.664-1.565,1.249-2.316,1.911C370.913,234.1,370.261,234.773,369.472,235.536Z" transform="translate(-317.276 -221.885)" fill="#302d2c"/>
        <path id="パス_470" data-name="パス 470" d="M351.118,325.519a8.7,8.7,0,0,1-4.7-1.751A8.309,8.309,0,0,1,345.2,322.7c-.217-.217-.467-.463-.768-.742l-1.379-1.286,1.88-.16c.431-.037.828-.092,1.2-.144a7.613,7.613,0,0,1,2.311-.09c1.781.293,2.756-.169,3.371-1.6.3-.7.614-1.386.926-2.078a40.805,40.805,0,0,0,2.114-5.287l.572-1.953c1.7-5.794,3.458-11.785,4.69-17.766.948-4.6,1.542-9.367,2.117-13.979.236-1.881.47-3.761.727-5.637a5.9,5.9,0,0,0,.038-.94c-.033.025-.067.05-.1.072-.895.66-1.691,1.246-2.52,1.784q-3.276,2.119-6.568,4.215c-3.555,2.272-7.11,4.545-10.63,6.872-2.731,1.808-5.438,3.659-8.143,5.51-2.921,2-5.842,3.995-8.8,5.939a13.24,13.24,0,0,1-4.787,1.935,4.177,4.177,0,0,1-3.5-1.46c-.191-.239-.768-.965.237-3.394.288-.7,1.354-.923,1.674-.973a1.272,1.272,0,0,1,1.232.319c.385.46.6.44,1.5-.112q5.633-3.434,10.872-6.872c3.956-2.6,9.16-6.038,14.318-9.593,4.625-3.187,9.635-6.739,15.32-10.859a1.413,1.413,0,0,0,.338-.533l-.91.247c-1.436.391-2.919.793-4.311,1.319-1.438.543-2.858,1.142-4.276,1.744-2,.841-4.062,1.714-6.16,2.418-1.06.363-2.251-.37-3.307-1.007l-.49-.293a2,2,0,0,1-.751-1.495,1.38,1.38,0,0,1,.344-1.256,7.6,7.6,0,0,1,2.46-1.433c.965-.349,1.955-.639,2.943-.926.508-.149,1.017-.3,1.522-.455q1.771-.549,3.537-1.114c2.292-.724,4.582-1.451,6.884-2.13,2.951-.875,3.371-1,3.43-4.082-.438.065-.87.132-1.293.234-.793.191-1.577.4-2.364.609-1.224.328-2.445.652-3.682.911a4.2,4.2,0,0,1-3.42-.525,4.382,4.382,0,0,1-1.659-3.194l-.1-.766,2.446-.505c1.249-.256,2.5-.513,3.757-.786l1.441-.306c1.747-.371,3.553-.752,5.279-1.252a1.719,1.719,0,0,0,.875-.925c.463-2.276.828-4.555,1.216-6.969l.294-1.838a9.212,9.212,0,0,0-3.008.528c-.594.172-1.187.346-1.789.46-.284.053-.57.122-.854.191-1.363.326-3.058.732-4.642-.485-.4-.306-1.369-1.3-1.085-2.222A3.591,3.591,0,0,1,357.035,237l.219-.186a1.466,1.466,0,0,1,1.01-.293,5.825,5.825,0,0,0,2.2-.538,5.189,5.189,0,0,0-.244-1.921c-.625-2.6-1.468-5.214-2.282-7.739-.242-.749-.962-2.966,1.4-3.866a3.077,3.077,0,0,1,2.441.018,2.742,2.742,0,0,1,1.41,1.717c.766,2.433,1.369,4.926,1.873,7.071a21.792,21.792,0,0,1,.39,2.515l.01.1a15.314,15.314,0,0,0,5.844-5.5,2.024,2.024,0,0,0-.087-.97,2.683,2.683,0,0,0-.207-.457,2.052,2.052,0,0,1-.3-1.746,1.942,1.942,0,0,1,1.284-1.06,3.156,3.156,0,0,1,4.212,1.585,5.77,5.77,0,0,1-1.386,6.8c-.388.346-.8.671-1.2,1-.378.3-.754.6-1.115.918-.451.4-.881.818-1.341,1.271,2.14,1.425,2.425,2.622,1.707,5.583-.448,1.854-.921,3.7-1.418,5.65l-.438,1.719.142-.008c1.027-.067,1.951-.129,2.95-.129a3.223,3.223,0,0,1,1.324.373c.129.059.258.119.388.166l.809.291-.313.8a4.317,4.317,0,0,0-.144.482,2.12,2.12,0,0,1-.95,1.55,19.956,19.956,0,0,1-2.266.849,19.5,19.5,0,0,0-1.938.709,2.13,2.13,0,0,0-1.05.975,12.532,12.532,0,0,0-.436,2.415c-.01.08-.018.162-.027.241a13.33,13.33,0,0,0,2.495-.263c1.868-.306,3.983-.655,5.978.647l.232.152.592,1.629-1.535,1.087c-.746.525-1.492,1.052-2.229,1.59-.62.455-1.266.893-1.91,1.329a21.891,21.891,0,0,0-4.276,3.428c-.52.589-.567,1.933-.607,3.12-.015.428-.03.851-.064,1.247-.137,1.632-.237,3.266-.338,4.9-.147,2.4-.3,4.874-.569,7.311a48.7,48.7,0,0,1-1.172,5.959c-.134.559-.268,1.117-.395,1.676-.329,1.441-.644,2.888-.956,4.334-.824,3.8-1.677,7.724-2.828,11.509a85.346,85.346,0,0,1-5.662,14.651c-1.084,2.075-2.378,3.277-3.961,3.684A4.773,4.773,0,0,1,351.118,325.519Zm-4.284-3.558a4.072,4.072,0,0,0,.508.416c1.849,1.236,3.338,1.68,4.543,1.376,1.1-.281,2.043-1.209,2.893-2.836a83.794,83.794,0,0,0,5.545-14.365c1.13-3.721,1.975-7.613,2.792-11.379.316-1.451.63-2.9.961-4.351.13-.564.266-1.127.4-1.691a48.071,48.071,0,0,0,1.132-5.759c.267-2.393.418-4.849.563-7.225.1-1.647.2-3.294.34-4.938.032-.371.045-.766.06-1.166.052-1.538.109-3.129,1.023-4.167a23.428,23.428,0,0,1,4.592-3.707c.627-.425,1.254-.849,1.858-1.294.747-.545,1.5-1.077,2.257-1.61l.42-.294c-1.364-.711-2.868-.46-4.455-.2a11.29,11.29,0,0,1-3.858.182l-.8-.145.12-.8c.052-.351.094-.7.134-1.057a14,14,0,0,1,.507-2.734,3.7,3.7,0,0,1,1.955-1.987,22.051,22.051,0,0,1,2.1-.774,18.968,18.968,0,0,0,1.966-.722,3.478,3.478,0,0,0,.124-.4,1.254,1.254,0,0,0-.495-.129c-.9,0-1.8.062-2.762.125l-2.436.145,1-3.938c.5-1.943.966-3.786,1.415-5.632.632-2.612.478-2.973-1.851-4.311l-.965-.555,1.52-1.473c.5-.492.963-.948,1.45-1.374.38-.338.778-.655,1.175-.972s.769-.614,1.137-.94a4.081,4.081,0,0,0,1-4.8c-.3-.6-.821-1.236-2.165-.761a1.186,1.186,0,0,0-.306.145c.055-.02.169.166.244.306a3.74,3.74,0,0,1,.348.821,2.95,2.95,0,0,1-.1,2.241,17.531,17.531,0,0,1-7.58,6.7l-1.047.528-.159-1.162c-.064-.467-.115-.906-.162-1.328a21.27,21.27,0,0,0-.354-2.323c-.5-2.117-1.094-4.573-1.841-6.953a1.109,1.109,0,0,0-.543-.712,1.441,1.441,0,0,0-1.117.037c-.543.207-.843.43-.41,1.767.831,2.578,1.684,5.22,2.324,7.884.338,1.4.535,2.456.008,3.242-.538.808-1.56,1-3.184,1.259a1.589,1.589,0,0,1-.421.022h-.035l-.1.084a3.886,3.886,0,0,0-.687.677,1.983,1.983,0,0,0,.446.523c.9.694,1.816.523,3.234.186.313-.074.622-.149.931-.207.548-.105,1.092-.266,1.635-.423a8.283,8.283,0,0,1,4.65-.415l.732.2-.552,3.4c-.39,2.431-.756,4.729-1.227,7.038a3.293,3.293,0,0,1-2.048,2.2c-1.784.517-3.62.9-5.4,1.279l-1.431.306c-1.259.274-2.523.533-3.779.789l-.873.181a2.291,2.291,0,0,0,.818,1.284,2.636,2.636,0,0,0,2.107.253c1.207-.254,2.4-.572,3.593-.89.8-.212,1.6-.426,2.4-.622.545-.132,1.105-.211,1.679-.293l1.692-.264,0,.985c-.015,4.64-.577,5.448-4.638,6.65-2.292.677-4.573,1.4-6.851,2.12q-1.773.562-3.547,1.117c-.515.161-1.032.311-1.55.463-.953.278-1.906.555-2.839.893a6.21,6.21,0,0,0-1.714.936,1.516,1.516,0,0,0,.065.311l.378.226c.517.313,1.589.958,1.913.853,2.038-.684,4.072-1.543,6.04-2.374,1.44-.609,2.878-1.216,4.336-1.767s2.988-.966,4.463-1.366c.664-.182,1.331-.363,1.992-.555l.487-.144,1.124,1.169-.281.533c-.1.187-.179.395-.263.6a3.523,3.523,0,0,1-1.067,1.647c-5.7,4.129-10.717,7.688-15.35,10.882-5.174,3.565-10.387,7.01-14.352,9.613-3.511,2.3-7.148,4.605-10.809,6.834-.793.488-2.2,1.354-3.512.1a2.087,2.087,0,0,0-.4.12,3.6,3.6,0,0,0-.37,1.609,2.676,2.676,0,0,0,1.854.789,11.468,11.468,0,0,0,4.167-1.686c2.946-1.938,5.861-3.93,8.774-5.924,2.712-1.854,5.424-3.709,8.165-5.521,3.526-2.333,7.088-4.608,10.65-6.887q3.283-2.1,6.561-4.21c.8-.52,1.572-1.087,2.438-1.724.438-.324.9-.666,1.4-1.028l1.324-.95v1.63c0,.415.01.776.02,1.1a9.748,9.748,0,0,1-.04,1.692c-.257,1.868-.49,3.741-.726,5.615-.579,4.643-1.177,9.446-2.139,14.109-1.244,6.048-3.013,12.073-4.722,17.9l-.574,1.951a41.779,41.779,0,0,1-2.2,5.51c-.308.679-.619,1.359-.913,2.043-.915,2.137-2.659,3.01-5.18,2.588A4.723,4.723,0,0,0,346.834,321.961Zm-27.1-28.814,0,.007Zm25.258-26.124Zm-.172-.156.017.01Zm29.69-16.186h0Zm-16.155-12.6-.01.008Z" transform="translate(-317.613 -222.22)" fill="#302d2c"/>
      </g>
      <g id="グループ_93" data-name="グループ 93" transform="translate(253.208 263.286)">
        <path id="パス_471" data-name="パス 471" d="M255.9,238.722a8.02,8.02,0,0,0-.794,2.7,6.394,6.394,0,0,1-2.488,5.862,12.439,12.439,0,0,0-1.829,2.58c1.324-.237,2.155-.436,3-.528,4.062-.443,6.979,1.941,10.08,3.995a7.512,7.512,0,0,1,3.824,6.944c-.05,2.605-2.072,3.433-3.817,5.137,1.456.774,2.706,1.443,3.96,2.105,3.876,2.047,7.714,4.17,11.641,6.113,4.757,2.353,9.556,4.628,14.405,6.787,2.935,1.308,5.975,2.393,9.006,3.465,6.142,2.174,12.319,4.249,18.467,6.406q4.753,1.67,9.446,3.5c.692.268,1.587.717,1.816,1.308a11.553,11.553,0,0,1,.345,3.124,9.272,9.272,0,0,1-2.774-.132c-6.1-2.252-12.106-4.754-18.241-6.9-11.24-3.93-22.509-7.735-33.04-13.431-5.026-2.719-10.25-5.077-15.36-7.645-2.17-1.092-3.936-1.219-6.063.538a34.408,34.408,0,0,1-14.529,6.735c-3.732.86-7.319,2.334-11.016,3.379-2.366.669-3.8-.338-4.633-2.874,11.054-.242,20.194-5.281,29.54-11.441-2.66-1.958-4.8-3.61-7.018-5.135-1.366-.938-2.925-2.413-4.291-2.306-1.309.1-2.475,1.948-3.715,3.013-1.017.873-2.328,1.261-3.14.14a3.7,3.7,0,0,1,0-2.953c.321-.848,1.346-1.4,1.893-2.2a16.576,16.576,0,0,0,1.045-2.314c.284-.6.574-1.657.945-1.7,2.466-.257,2.781-2.557,3.953-3.981,1.729-2.1,3.276-4.353,4.866-6.566a2.406,2.406,0,0,0,.589-1.4c-.207-1.992-.548-3.97-.834-5.954a1.907,1.907,0,0,1-.045-.834c.41-1.182.871-2.346,1.314-3.517l3.582,1.8c1.993-1.018,3.331.508,4.7,2.44a18.556,18.556,0,0,0,3.047,2.644c.963.859,2.2,1.614,2.742,2.7.956,1.9.045,3.1-2.06,2.791a11.753,11.753,0,0,1-3.684-1.425C259.175,240.87,257.725,239.859,255.9,238.722Zm-6.185,16.96c2.406,1.846,4.712,3.542,6.938,5.336,3.383,2.729,3.266,2.674,6.17-.555,1.164-1.294.875-2.1-.2-2.926-1.319-1.013-2.759-1.871-4.137-2.809C255.133,252.448,252.894,252.637,249.717,255.682Z" transform="translate(-226.153 -229.587)" fill="#302d2c"/>
        <path id="パス_472" data-name="パス 472" d="M331.824,299.563a4.186,4.186,0,0,1-1.466-.221c-2.518-.93-5.021-1.9-7.523-2.874-3.5-1.358-7.112-2.762-10.7-4.018l-1.963-.686c-10.432-3.639-21.221-7.4-31.2-12.8-3.152-1.7-6.446-3.3-9.63-4.837-1.908-.921-3.816-1.844-5.709-2.8-2.122-1.067-3.468-.955-5.155.438a35.1,35.1,0,0,1-14.874,6.9c-2.154.5-4.312,1.221-6.4,1.92-1.488.5-3.03,1.013-4.575,1.451-2.747.776-4.652-.373-5.655-3.418l-.354-1.074,1.13-.023c10.941-.241,20.213-5.508,28.1-10.648q-.7-.522-1.364-1.015c-1.684-1.257-3.14-2.341-4.665-3.388-.3-.207-.612-.44-.928-.677-.967-.722-2.065-1.537-2.824-1.485-.575.045-1.343.871-2.02,1.6a15.686,15.686,0,0,1-1.216,1.214,3.588,3.588,0,0,1-2.692,1.015,2.388,2.388,0,0,1-1.672-1.022c-.789-1.087-.415-2.921-.105-3.737a4.422,4.422,0,0,1,1.246-1.6,5.145,5.145,0,0,0,.736-.781,6.34,6.34,0,0,0,.6-1.287c.119-.309.237-.615.376-.911.07-.147.139-.323.209-.5.311-.783.63-1.59,1.411-1.669,1.247-.13,1.734-.908,2.425-2.164a9.638,9.638,0,0,1,.963-1.517c1.373-1.667,2.657-3.47,3.9-5.215l.935-1.309c.428-.6.436-.808.436-.831-.144-1.39-.356-2.776-.568-4.162l-.263-1.756a2.4,2.4,0,0,1-.007-1.227c.3-.871.63-1.731.961-2.594l.687-1.811,4.055,2.033c2.593-1.01,4.317,1.406,5.363,2.884a7.753,7.753,0,0,0,1.729,1.56c.41.3.818.609,1.192.943.244.216.507.426.769.637a7.438,7.438,0,0,1,2.162,2.309,2.826,2.826,0,0,1,.062,3.072c-.329.458-1.154,1.192-2.988.923a12.422,12.422,0,0,1-3.956-1.513c-1.1-.587-2.155-1.266-3.274-1.988l-.749-.48a3.632,3.632,0,0,0-.366,1.415,7.189,7.189,0,0,1-2.811,6.563,2.982,2.982,0,0,0-.61.741c.418-.077.794-.139,1.176-.181,3.9-.42,6.8,1.533,9.593,3.43l1.037.7c2.971,1.968,4.264,4.331,4.2,7.66-.045,2.353-1.458,3.511-2.823,4.634l-.38.311c1.022.547,1.96,1.045,2.9,1.54q1.763.928,3.513,1.873c2.645,1.416,5.381,2.881,8.11,4.232,5.105,2.523,9.807,4.741,14.372,6.772,3.007,1.338,6.163,2.455,8.948,3.44,3.318,1.174,6.647,2.321,9.974,3.465q4.246,1.462,8.491,2.943c3.073,1.08,6.26,2.261,9.473,3.511a3.655,3.655,0,0,1,2.291,1.784,7.247,7.247,0,0,1,.358,2.455c.008.3.017.6.04.9l.08.94-.941-.032c-.269-.013-.557,0-.838.017C332.312,299.555,332.07,299.563,331.824,299.563ZM261.2,268.946a7.1,7.1,0,0,1,3.184.891c1.884.946,3.786,1.866,5.687,2.784,3.2,1.548,6.51,3.149,9.7,4.873,9.859,5.332,20.582,9.073,30.953,12.692l1.965.686c3.62,1.264,7.25,2.675,10.76,4.038,2.493.968,4.986,1.936,7.494,2.864a4.389,4.389,0,0,0,1.543.1l.065,0c0-.035,0-.069,0-.1a5.983,5.983,0,0,0-.244-1.9c-.048-.125-.391-.46-1.339-.831-3.194-1.244-6.364-2.418-9.421-3.491q-4.234-1.485-8.479-2.938c-3.334-1.147-6.667-2.293-9.989-3.47-2.814-.995-6-2.124-9.068-3.486-4.587-2.043-9.307-4.267-14.435-6.8-2.751-1.361-5.5-2.833-8.157-4.257-1.167-.624-2.333-1.249-3.5-1.866-1.035-.545-2.065-1.094-3.209-1.7l-1.762-.941.818-.8c.446-.433.908-.814,1.353-1.181,1.267-1.04,2.182-1.791,2.212-3.373a6.689,6.689,0,0,0-3.45-6.234l-1.053-.709c-2.664-1.806-5.182-3.518-8.474-3.15-.525.059-1.05.161-1.7.288-.368.072-.772.149-1.237.232l-1.973.353,1.137-1.649c.263-.383.477-.736.669-1.055a5.856,5.856,0,0,1,1.334-1.712,5.579,5.579,0,0,0,2.167-5.16,5.425,5.425,0,0,1,.577-2.344c.1-.229.192-.448.256-.65l.324-1.028.915.572c.572.356,1.105.7,1.617,1.028,1.135.732,2.119,1.366,3.155,1.918a11.09,11.09,0,0,0,3.41,1.334c.809.12,1.252-.05,1.393-.246.172-.239.1-.754-.2-1.343a6.174,6.174,0,0,0-1.716-1.754c-.286-.231-.57-.46-.834-.7-.338-.3-.709-.574-1.077-.848a9,9,0,0,1-2.1-1.936c-1.607-2.274-2.458-2.784-3.637-2.18l-.378.192-3.132-1.57-.032.084c-.324.843-.647,1.687-.943,2.542a1.967,1.967,0,0,1,.047.236l.294,1.948c.217,1.413.431,2.828.579,4.247a3.07,3.07,0,0,1-.739,1.973l-.931,1.306c-1.261,1.766-2.562,3.593-3.971,5.306a8.35,8.35,0,0,0-.789,1.259c-.655,1.2-1.466,2.67-3.463,2.99-.09.169-.207.463-.283.655-.085.214-.171.423-.251.6-.122.256-.224.527-.329.8a7.758,7.758,0,0,1-.783,1.632,6.308,6.308,0,0,1-.977,1.06,3.219,3.219,0,0,0-.823.967,3.092,3.092,0,0,0-.1,2.165.71.71,0,0,0,.513.341,2.1,2.1,0,0,0,1.408-.624,14.1,14.1,0,0,0,1.08-1.085c.928-1,1.89-2.03,3.113-2.125,1.408-.132,2.7.868,3.956,1.813.3.221.59.441.875.635,1.55,1.065,3.088,2.212,4.717,3.426.736.548,1.5,1.122,2.323,1.726l.965.709-1,.66c-8.008,5.279-17.457,10.919-28.774,11.534a2.388,2.388,0,0,0,3.182,1.279c1.5-.425,3.027-.935,4.5-1.428,2.125-.711,4.324-1.448,6.556-1.961a33.5,33.5,0,0,0,14.183-6.565A5.863,5.863,0,0,1,261.2,268.946ZM243.112,254.3h0Zm17.174,9.974c-.913,0-1.918-.707-3.623-2.083-1.579-1.272-3.124-2.443-4.712-3.645-.752-.569-1.512-1.144-2.282-1.736l-.773-.592.7-.676c3.433-3.287,6.095-3.573,9.817-1.04.463.314.931.619,1.4.925.923.6,1.878,1.222,2.777,1.911a2.861,2.861,0,0,1,1.267,1.92,2.97,2.97,0,0,1-.953,2.229l-.237.263C262.146,263.45,261.272,264.276,260.287,264.276Zm-8.8-8.183q.745.569,1.476,1.12c1.6,1.214,3.162,2.394,4.682,3.62,1.3,1.053,2.2,1.779,2.62,1.779l.022,0c.39-.023,1.127-.843,2.144-1.976l.237-.263c.49-.545.543-.834.532-.958-.017-.191-.231-.448-.62-.747-.848-.649-1.774-1.254-2.672-1.836-.478-.313-.955-.622-1.426-.945C255.688,253.992,253.939,253.992,251.483,256.092Z" transform="translate(-226.615 -230.054)" fill="#302d2c"/>
      </g>
      <g id="グループ_94" data-name="グループ 94" transform="translate(338.651 257.431)">
        <path id="パス_473" data-name="パス 473" d="M306.637,236.823c-2.1-3.164-5.23-4.291-8.553-5.085a6.871,6.871,0,0,1-1.625-.338c-.975-.522-2.413-.768-1.846-2.493a2.392,2.392,0,0,1,3.338-1.655,32.149,32.149,0,0,1,7.24,3.267,22.422,22.422,0,0,1,5.784,5.6c2.6,3.756,2.562,12.748-2.792,14.666-2.421.866-5.2.774-7.827,1-1.184.1-2.073.279-2.032,1.95,4.792.318,6.775,4.4,9.7,7.369a13.819,13.819,0,0,1,9.352-4.926c2.108-.253,4.107.139,5.189,2.328a5,5,0,0,1-.975,6.21,45.7,45.7,0,0,1-7.61,5.08c-.789.453-2.02.137-3.048.181a3.87,3.87,0,0,0-1.324.1c-1.908.831-4.132-.154-3.9-2.145.451-3.873-2.364-5.61-4.471-7.777a27.724,27.724,0,0,0-4.282-3.06c-4.025,6.846-8.03,13.77-12.16,20.619a3.812,3.812,0,0,1-6.11.391,3.233,3.233,0,0,1-.321-2.649c.41-1.1,1.172-.535,2-.064.366.207,1.665-.51,2.013-1.112q4.68-8.081,9.137-16.29c.97-1.779,1.619-3.731,2.562-5.526.686-1.306.263-1.91-.96-2.376-1.374-.523-2.712-1.144-4.072-1.712s-2.463-1.632-1.965-3c.273-.744,1.883-.948,2.813-1.523.645-.4,1.68-1.058,1.644-1.53-.179-2.242.973-2.624,2.818-2.577,2.12.054,4.068-.037,5.179-2.543.849-1.921,2.065-1.873,3.65-.4C304.3,237.833,304.632,237.843,306.637,236.823Zm-6.175,11.183c6.426.555,7.454-.764,8.182-5.931.137-.972-.127-1.574-1.369-1.512A7.224,7.224,0,0,0,300.462,248.006ZM318.84,259.92a14.935,14.935,0,0,0-2.333.319,25.512,25.512,0,0,1-4.125,1.4c-1.475.177-1.682.951-1.346,1.956.383,1.149.411,2.889,2.378,2.585C315.635,265.834,318.362,262.823,318.84,259.92Zm-22.726-12.638.665-2.869h-2.846C292.91,246.476,294.5,246.657,296.114,247.282Z" transform="translate(-277.377 -226.216)" fill="#302d2c"/>
        <path id="パス_474" data-name="パス 474" d="M281.88,280.627a4.354,4.354,0,0,1-3.53-1.687,4.044,4.044,0,0,1-.433-3.441,1.7,1.7,0,0,1,.992-1.1,2.423,2.423,0,0,1,2.012.482l.035.022a2.512,2.512,0,0,0,1.038-.711c2.988-5.16,5.973-10.481,9.126-16.27.488-.9.89-1.829,1.313-2.816.383-.891.778-1.814,1.244-2.7.279-.533.232-.722.221-.752-.018-.048-.124-.219-.741-.455-.9-.343-1.786-.726-2.67-1.112-.475-.206-.948-.411-1.425-.61-2.058-.859-3.013-2.453-2.426-4.058.3-.828,1.206-1.16,2.078-1.48a6.45,6.45,0,0,0,1.077-.467,5.79,5.79,0,0,0,1.241-.9,3.16,3.16,0,0,1,.7-2.471,3.857,3.857,0,0,1,2.981-.856c2.078.067,3.513-.06,4.393-2.045a2.955,2.955,0,0,1,1.98-1.931c.916-.186,1.891.226,3,1.256.637.589.771.716,1.622.328-1.813-2.221-4.326-3.21-7.484-3.965a4.678,4.678,0,0,0-.517-.079,3.488,3.488,0,0,1-1.311-.336c-.146-.079-.308-.15-.47-.224-.866-.39-2.481-1.117-1.772-3.266a3.461,3.461,0,0,1,1.714-2.124,3.411,3.411,0,0,1,2.7-.059l.261.094A31.652,31.652,0,0,1,306,230.163a23.165,23.165,0,0,1,6,5.819c1.844,2.665,2.374,7.367,1.227,10.937a7.335,7.335,0,0,1-4.424,4.99,21.459,21.459,0,0,1-6.085.92c-.657.035-1.309.072-1.955.125-.717.06-1.043.114-1.181.381,3.461.557,5.476,2.971,7.431,5.312.431.517.874,1.047,1.328,1.552a14.759,14.759,0,0,1,9.272-4.515c2.914-.365,4.951.589,6.038,2.789a5.819,5.819,0,0,1-1.172,7.207,46.133,46.133,0,0,1-7.744,5.175,4.39,4.39,0,0,1-2.5.323,7.632,7.632,0,0,0-.93-.03c-.149,0-.3,0-.456,0a1.7,1.7,0,0,0-.569.032,4,4,0,0,1-3.924-.321,2.85,2.85,0,0,1-1.14-2.689c.326-2.781-1.249-4.257-3.072-5.968-.4-.371-.793-.744-1.169-1.129a14.923,14.923,0,0,0-2.812-2.08c-.2-.127-.4-.253-.6-.378l-2.888,4.924c-2.869,4.908-5.839,9.981-8.832,14.942a4.559,4.559,0,0,1-3.724,2.14Q282,280.627,281.88,280.627Zm-2.374-4.6a.365.365,0,0,0-.022.057,2.445,2.445,0,0,0,.209,1.858,2.755,2.755,0,0,0,2.348,1.01,2.9,2.9,0,0,0,2.374-1.333c2.986-4.953,5.951-10.021,8.819-14.924l3.794-6.468.741.517c.4.283.839.555,1.283.833a16.267,16.267,0,0,1,3.12,2.329c.358.368.734.722,1.114,1.077,1.881,1.764,4.01,3.762,3.59,7.381a1.166,1.166,0,0,0,.477,1.152,2.349,2.349,0,0,0,2.257.13,2.826,2.826,0,0,1,1.284-.171c.114,0,.231.005.341,0,.361-.012.731.01,1.107.033a3.323,3.323,0,0,0,1.56-.1,44.911,44.911,0,0,0,7.469-4.98,4.158,4.158,0,0,0,.779-5.214c-.767-1.558-2.1-2.132-4.339-1.869a12.9,12.9,0,0,0-8.807,4.63l-.592.711-.647-.659c-.724-.734-1.391-1.533-2.037-2.306-1.973-2.364-3.836-4.6-7.123-4.814l-.761-.05-.02-.763c-.065-2.563,1.8-2.721,2.8-2.8.661-.057,1.331-.094,2-.13a20.281,20.281,0,0,0,5.612-.823,5.84,5.84,0,0,0,3.4-3.93c.987-3.068.542-7.23-1.01-9.474a21.421,21.421,0,0,0-5.568-5.384,30.307,30.307,0,0,0-6.791-3.08l-.261-.094a1.57,1.57,0,0,0-2.261,1.132c-.214.652-.132.766.875,1.219.2.089.391.177.57.273a2.29,2.29,0,0,0,.714.15,5.825,5.825,0,0,1,.714.114c3.363.8,6.786,2.018,9.055,5.436l.518.781-.836.425c-2.179,1.112-2.926,1.211-4.4-.154-.923-.858-1.385-.878-1.527-.843-.258.052-.538.4-.791.97-1.395,3.154-4.142,3.072-5.963,3.04-.955-.03-1.487.082-1.727.334a1.941,1.941,0,0,0-.237,1.339c.074.925-.921,1.62-2.038,2.309a7.728,7.728,0,0,1-1.378.612,3.878,3.878,0,0,0-1.1.517c-.373,1.028,1.065,1.722,1.515,1.911.483.2.965.41,1.445.619.863.375,1.724.749,2.6,1.085a2.718,2.718,0,0,1,1.707,1.423,2.545,2.545,0,0,1-.3,2.122c-.435.828-.818,1.719-1.187,2.582-.42.978-.854,1.99-1.383,2.955-3.159,5.8-6.15,11.136-9.145,16.308-.46.8-2.212,1.956-3.15,1.42l-.209-.119A5.8,5.8,0,0,0,279.505,276.027Zm33.8-8.64c-1.891,0-2.324-1.681-2.567-2.62-.052-.2-.1-.395-.162-.574a2.321,2.321,0,0,1,.105-2.038,2.491,2.491,0,0,1,1.936-1.012,9.287,9.287,0,0,0,2.359-.756c.533-.221,1.074-.441,1.62-.61a7.9,7.9,0,0,1,1.659-.266c.256-.023.527-.045.813-.084l1.114-.142L320,260.394c-.525,3.165-3.5,6.541-6.125,6.948A3.89,3.89,0,0,1,313.307,267.387Zm4.755-6.179a5.141,5.141,0,0,0-.971.166c-.5.154-.985.358-1.472.559a10.619,10.619,0,0,1-2.8.87c-.483.059-.682.182-.724.247-.007.015-.082.154.07.614.07.214.134.446.194.686.333,1.286.51,1.458,1.264,1.339C315.142,265.454,317.235,263.467,318.063,261.208Zm-14.95-11.916c-.711,0-1.5-.04-2.386-.117l-.746-.064-.018-.746a8.107,8.107,0,0,1,7.6-8.3,2.115,2.115,0,0,1,1.821.592,2.277,2.277,0,0,1,.42,1.873C309.119,247.416,308,249.293,303.112,249.293Zm-1.456-1.722c5.19.361,5.857-.741,6.5-5.274a1.051,1.051,0,0,0,0-.518h0a1.381,1.381,0,0,0-.5-.043A6.426,6.426,0,0,0,301.656,247.57Zm-4.61,1.177-.9-.349c-.211-.082-.42-.154-.622-.226-.936-.329-1.9-.672-2.277-1.585a2.647,2.647,0,0,1,.271-2.209l.231-.465h4.416Zm-2.217-3.162a.6.6,0,0,0-.032.371c.077.186.589.39,1.052.555l.216-.926Z" transform="translate(-277.713 -226.553)" fill="#302d2c"/>
      </g>
      <g id="グループ_95" data-name="グループ 95" transform="translate(254.102 242.964)">
        <path id="パス_475" data-name="パス 475" d="M237.292,234.826c2.9-1.548,5.334-3.331,8.063-4.2a118.082,118.082,0,0,1,14.23-3.476,58.14,58.14,0,0,1,10.648-.945,11.8,11.8,0,0,1,5.082,1.689c2.194,1.149,3.54,3.328,2.51,5.582-.654,1.433-2.7,2.369-4.3,3.179-.987.5-2.308.341-3.756.512.391,1.262.786,2.423,1.1,3.605a17.822,17.822,0,0,1,.689,3.259c.043.594-.227,1.592-.624,1.752-.607.246-1.8.212-2.125-.2-1.963-2.493-3.637-5.21-3.928-8.464-.156-1.739.831-2.394,2.55-1.856,2.323.729,4.152-.508,5.729-1.839,1.456-1.231.358-3.338-2.053-3.465a46.325,46.325,0,0,0-10.023.323c-4.249.717-8.381,2.115-12.579,3.15-2.3.567-4.7.824-6.954,1.525-2.863.89-3.839,2.368-3.761,5.319.035,1.329-.149,2.272-1.691,2.269-1.476,0-2.2-.615-2.349-2.266a37.333,37.333,0,0,0-4.993-16.465,10.806,10.806,0,0,1-.988-2.522,2.035,2.035,0,0,1,1.562-2.741,1.946,1.946,0,0,1,2.672,1.273,66.1,66.1,0,0,1,4.587,13.257A10.2,10.2,0,0,0,237.292,234.826Z" transform="translate(-226.815 -217.566)" fill="#302d2c"/>
        <path id="パス_476" data-name="パス 476" d="M270.31,247.1a2.3,2.3,0,0,1-1.819-.669c-1.736-2.2-3.774-5.21-4.1-8.906a2.644,2.644,0,0,1,.823-2.465,2.874,2.874,0,0,1,2.811-.261c1.781.553,3.262-.269,4.938-1.682a.807.807,0,0,0,.314-.92,1.978,1.978,0,0,0-1.873-1.072,45.728,45.728,0,0,0-9.837.313,81.344,81.344,0,0,0-8.128,1.963c-1.461.4-2.923.813-4.391,1.174-.96.237-1.935.42-2.91.6a35.58,35.58,0,0,0-4,.91c-2.473.767-3.244,1.859-3.174,4.5a3.269,3.269,0,0,1-.662,2.468,2.468,2.468,0,0,1-1.861.661h0c-1.961,0-3-.993-3.18-3.028a36.482,36.482,0,0,0-4.873-16.106,11.13,11.13,0,0,1-1.065-2.675,2.86,2.86,0,0,1,2.092-3.816,2.77,2.77,0,0,1,3.694,1.724,66.308,66.308,0,0,1,4.64,13.426,3.977,3.977,0,0,0,.269.756c.629-.353,1.237-.712,1.834-1.065a27.879,27.879,0,0,1,5.588-2.769,118.33,118.33,0,0,1,14.33-3.5,58.532,58.532,0,0,1,10.742-.958,12.934,12.934,0,0,1,5.53,1.781c2.818,1.477,4,4.22,2.883,6.672-.729,1.6-2.642,2.555-4.329,3.4l-.353.177a6.581,6.581,0,0,1-2.736.5l-.284.013.049.152c.269.846.528,1.66.749,2.483l.082.306a16.559,16.559,0,0,1,.634,3.108c.052.721-.229,2.217-1.144,2.59A3.665,3.665,0,0,1,270.31,247.1Zm-3.6-10.852a.719.719,0,0,0-.45.117c-.176.14-.249.508-.206,1.01.289,3.241,2.06,5.874,3.752,8.023a2.59,2.59,0,0,0,1.154-.06,7.605,7.605,0,0,0,.1-.916,14.877,14.877,0,0,0-.579-2.794l-.082-.309c-.216-.8-.468-1.59-.729-2.41l-.664-2.127,1-.119c.49-.057.966-.077,1.421-.1a5.428,5.428,0,0,0,2.055-.326l.36-.181c1.369-.686,3.073-1.54,3.557-2.6.92-2.01-.575-3.677-2.135-4.493a11.533,11.533,0,0,0-4.756-1.592,56.942,56.942,0,0,0-10.434.928,116.84,116.84,0,0,0-14.128,3.453,26.591,26.591,0,0,0-5.247,2.615c-.863.508-1.747,1.032-2.679,1.528l-.816.436-.351-.858c-.055-.134-.122-.278-.194-.428a6.794,6.794,0,0,1-.547-1.456,64.883,64.883,0,0,0-4.533-13.089c-.451-1-.9-1.058-1.654-.823-1.227.4-1.2,1.085-1.018,1.706a10.212,10.212,0,0,0,.9,2.324,38.119,38.119,0,0,1,5.112,16.83c.114,1.293.54,1.5,1.518,1.5h0a1,1,0,0,0,.664-.157c.214-.219.194-1,.187-1.254-.09-3.374,1.17-5.154,4.349-6.138a37.694,37.694,0,0,1,4.184-.956c.945-.177,1.888-.354,2.819-.582,1.451-.36,2.9-.761,4.343-1.164a82.564,82.564,0,0,1,8.3-2,47.123,47.123,0,0,1,10.2-.333,3.6,3.6,0,0,1,3.369,2.207,2.463,2.463,0,0,1-.821,2.731c-1.729,1.458-3.854,2.833-6.516,2A2.845,2.845,0,0,0,266.708,236.25Z" transform="translate(-227.15 -217.901)" fill="#302d2c"/>
      </g>
      <g id="グループ_96" data-name="グループ 96" transform="translate(313.061 207.789)">
        <path id="パス_477" data-name="パス 477" d="M317.343,197.538c1.087.818,2.271,1.271,2.359,1.881a4.141,4.141,0,0,1-.916,2.784q-4.312,5.538-8.841,10.906c-4.886,5.759-9.884,11.421-14.783,17.168-4.542,5.327-8.964,10.755-13.531,16.059-4.886,5.674-9.946,11.2-14.782,16.91-1.326,1.568-2.089.655-3.108-.065-1.308-.926-.9-1.669.033-2.7,6.541-7.2,13.1-14.392,19.49-21.728q12.9-14.8,25.545-29.824c2.075-2.448,3.894-5.113,5.8-7.7.323-.438.408-1.055.737-1.487C315.9,199.025,316.56,198.389,317.343,197.538Z" transform="translate(-262.074 -196.413)" fill="#302d2c"/>
        <path id="パス_478" data-name="パス 478" d="M265.815,265.4a3.271,3.271,0,0,1-1.89-.838l-.331-.242a2.437,2.437,0,0,1-1.174-1.677,3.054,3.054,0,0,1,1.072-2.262l1.764-1.943c5.852-6.443,11.9-13.1,17.715-19.771,8.155-9.361,16.108-18.689,25.539-29.816,1.518-1.794,2.931-3.751,4.3-5.642.487-.676.973-1.348,1.466-2.017a2.7,2.7,0,0,0,.254-.54,3.682,3.682,0,0,1,.495-.961,19.12,19.12,0,0,1,1.359-1.533l1.194-1.288.607.456c.346.259.7.48,1.025.681.828.515,1.545.961,1.659,1.749a4.968,4.968,0,0,1-1.083,3.419c-3.1,3.985-6,7.561-8.864,10.931-2.607,3.073-5.246,6.118-7.884,9.165q-3.461,3.993-6.9,8.006c-2.043,2.395-4.062,4.811-6.078,7.227-2.47,2.958-4.941,5.914-7.456,8.834-2.152,2.5-4.339,4.973-6.526,7.444-2.729,3.083-5.548,6.27-8.25,9.463A2.672,2.672,0,0,1,265.815,265.4ZM317.8,199.089c-.069.074-.137.144-.2.214a18.672,18.672,0,0,0-1.247,1.4,2.629,2.629,0,0,0-.263.552,3.946,3.946,0,0,1-.465.923q-.732,1-1.456,2c-1.386,1.916-2.818,3.9-4.378,5.742-9.436,11.133-17.393,20.467-25.554,29.833-5.821,6.682-11.879,13.35-17.736,19.8l-1.766,1.943c-.584.644-.655.875-.647.955,0,.008.025.174.478.495l.369.271c.848.639.956.722,1.617-.062,2.714-3.2,5.54-6.4,8.274-9.489,2.182-2.465,4.364-4.931,6.513-7.426,2.51-2.913,4.973-5.866,7.439-8.817q3.032-3.629,6.087-7.239,3.436-4.026,6.911-8.018c2.635-3.04,5.271-6.08,7.874-9.148,2.844-3.354,5.73-6.913,8.819-10.879a3.317,3.317,0,0,0,.747-2.152c-.062-.055-.537-.351-.885-.567C318.156,199.316,317.978,199.208,317.8,199.089Z" transform="translate(-262.41 -196.865)" fill="#302d2c"/>
      </g>
      <g id="グループ_97" data-name="グループ 97" transform="translate(470.962 213.58)">
        <path id="パス_479" data-name="パス 479" d="M362.359,201.1c1.165-.047,2.806-.579,3.381-.018a4.335,4.335,0,0,1,.943,3.563c-.739,2.968-1.921,5.826-2.941,8.724-.788,2.234-1.635,4.45-2.383,6.7-.411,1.234.406,1.8,1.438,1.679a13.973,13.973,0,0,0,3.833-1c4.043-1.742,8.033-3.612,12.054-5.409a4.923,4.923,0,0,1,2.169-.692,2.369,2.369,0,0,1,1.625,1.186,1.75,1.75,0,0,1-.592,1.63c-1.995,1-4.1,1.767-6.128,2.709-2.834,1.318-5.556,2.908-8.466,4.015a21.115,21.115,0,0,1-6.657,1.376c-2.1.072-3.846-3.063-3.132-5.254,1.385-4.244,2.971-8.424,4.3-12.685a46.411,46.411,0,0,0,1.06-5.739Z" transform="translate(-356.504 -199.992)" fill="#302d2c"/>
        <path id="パス_480" data-name="パス 480" d="M360.9,226.735a3.74,3.74,0,0,1-2.914-1.649,5.355,5.355,0,0,1-.945-4.7c.614-1.883,1.267-3.752,1.92-5.622.806-2.306,1.64-4.69,2.376-7.053a24.442,24.442,0,0,0,.749-3.792c.072-.508.145-1.015.231-1.52l-1.122-1.741,1.463-.059a10.269,10.269,0,0,0,1.079-.127c1.1-.161,2.227-.329,2.92.344a5.11,5.11,0,0,1,1.171,4.364,62.666,62.666,0,0,1-2.13,6.5c-.281.766-.563,1.53-.833,2.3-.3.849-.609,1.7-.916,2.545-.5,1.375-1,2.751-1.461,4.139-.087.258-.079.428-.033.485a.719.719,0,0,0,.577.1,13.28,13.28,0,0,0,3.6-.935c2.593-1.115,5.162-2.286,7.732-3.455,1.436-.652,2.873-1.306,4.312-1.95l.343-.159a4.4,4.4,0,0,1,2.241-.6,3.184,3.184,0,0,1,2.306,1.655,2.472,2.472,0,0,1-.968,2.741c-1.172.587-2.388,1.1-3.563,1.592-.868.366-1.737.732-2.59,1.127-1.017.473-2.018.982-3.02,1.49a57.6,57.6,0,0,1-5.5,2.548A21.847,21.847,0,0,1,361,226.733Zm3.162-24.619-.043.249c-.107.594-.191,1.192-.278,1.792a26.234,26.234,0,0,1-.808,4.048c-.746,2.393-1.583,4.791-2.393,7.11-.65,1.859-1.3,3.717-1.91,5.588a3.744,3.744,0,0,0,.692,3.177,2.04,2.04,0,0,0,1.615.98,20.151,20.151,0,0,0,6.388-1.323,56.358,56.358,0,0,0,5.339-2.476c1.018-.517,2.037-1.033,3.072-1.513.871-.4,1.757-.779,2.645-1.152,1.15-.485,2.341-.987,3.463-1.547a1.944,1.944,0,0,0,.176-.627,1.7,1.7,0,0,0-.91-.609,3.58,3.58,0,0,0-1.386.453l-.368.169q-2.157.966-4.3,1.946c-2.58,1.176-5.16,2.348-7.762,3.468a14.868,14.868,0,0,1-4.063,1.058,2.23,2.23,0,0,1-2.072-.7,2.08,2.08,0,0,1-.258-2.072c.467-1.4.972-2.791,1.477-4.18.306-.843.614-1.684.91-2.528.273-.774.557-1.545.841-2.316a62.262,62.262,0,0,0,2.077-6.332,3.565,3.565,0,0,0-.712-2.762A4.836,4.836,0,0,0,364.067,202.116Z" transform="translate(-356.84 -200.328)" fill="#302d2c"/>
      </g>
      <g id="グループ_98" data-name="グループ 98" transform="translate(436.004 241.502)">
        <path id="パス_481" data-name="パス 481" d="M336.73,222.709a31.222,31.222,0,0,1,5-1.364c8.566-.821,17.148-1.495,25.721-2.246,5.707-.5,11.411-1.042,17.116-1.558.336-.03.676,0,1.045,0,.579,1.441-.212,2.057-1.339,2.291-3.326.7-6.65,1.44-10.009,1.923-5.6.8-11.217,1.451-16.833,2.1-3.756.433-7.526.732-11.285,1.142-1.17.127-2.326.4-3.481.645C339.76,226.251,338.808,225.848,336.73,222.709Z" transform="translate(-335.399 -216.691)" fill="#302d2c"/>
        <path id="パス_482" data-name="パス 482" d="M341.343,227.048c-1.923,0-3.07-.963-4.776-3.54l-.634-.958,1.1-.309c.6-.169,1.16-.353,1.7-.532a16.035,16.035,0,0,1,3.445-.861c5.67-.542,11.345-1.022,17.022-1.5q4.352-.369,8.705-.744,5.3-.464,10.6-.96l6.516-.6a6.923,6.923,0,0,1,.794-.012l.891.005.211.525a2.5,2.5,0,0,1,.017,2.17,2.7,2.7,0,0,1-1.96,1.251l-1.6.336c-2.761.584-5.617,1.186-8.466,1.6-5.543.8-11.2,1.45-16.663,2.082l-.192.023c-2.058.237-4.124.435-6.187.63-1.7.164-3.4.324-5.1.512a27.687,27.687,0,0,0-2.756.495l-.644.139A10.043,10.043,0,0,1,341.343,227.048Zm-2.741-3.535c1.485,2.037,2.247,2.1,4.426,1.645l.635-.135a29.182,29.182,0,0,1,2.926-.525c1.707-.186,3.418-.349,5.127-.512,2.053-.2,4.105-.393,6.153-.629l.192-.022c5.456-.632,11.1-1.283,16.618-2.077,2.794-.4,5.623-1,8.359-1.575l1.6-.338a1.256,1.256,0,0,0,.828-.4.457.457,0,0,0,.038-.244c-.119,0-.219,0-.324.013l-6.516.6q-5.3.489-10.6.961-4.357.381-8.712.746c-5.67.478-11.34.958-17,1.5a14.468,14.468,0,0,0-3.082.784Q338.939,223.406,338.6,223.514Z" transform="translate(-335.934 -217.027)" fill="#302d2c"/>
      </g>
      <g id="グループ_99" data-name="グループ 99" transform="translate(409.077 267.619)">
        <path id="パス_483" data-name="パス 483" d="M321.126,259.023c4.187,2.048,5.06,1.747,6.157-2.9a25.186,25.186,0,0,0-1.257-16.559,21.131,21.131,0,0,1-1.436-4.732,2.014,2.014,0,0,1,1.1-1.622c1.358-.42,3.864,1.2,4.068,2.607.762,5.3,1.721,10.6,2.042,15.927.273,4.523-1.532,8.6-4.488,12.091a2.245,2.245,0,0,1-3.47.338,11.837,11.837,0,0,1-2.416-2.261,10.215,10.215,0,0,1-.961-2.639Z" transform="translate(-319.408 -232.308)" fill="#302d2c"/>
        <path id="パス_484" data-name="パス 484" d="M325.909,266.017a3.524,3.524,0,0,1-2.164-.846l-.154-.12a11.649,11.649,0,0,1-2.428-2.313,6.22,6.22,0,0,1-.838-2.06c-.072-.269-.144-.537-.232-.793l-.263-.764,1.759-.672.326.159c1.466.717,2.913,1.339,3.533,1.048.639-.3,1.089-1.881,1.445-3.384a24.194,24.194,0,0,0-1.207-16.024,21.775,21.775,0,0,1-1.495-4.921,2.748,2.748,0,0,1,1.672-2.575,4.771,4.771,0,0,1,5.142,3.287c.177,1.239.366,2.478.555,3.717.612,4.01,1.246,8.158,1.493,12.278.267,4.428-1.309,8.7-4.684,12.683A3.245,3.245,0,0,1,325.909,266.017Zm-3.9-5.511a4.151,4.151,0,0,0,.512,1.262,10.531,10.531,0,0,0,2.1,1.966l.154.12a1.432,1.432,0,0,0,2.316-.219c3.09-3.649,4.533-7.516,4.292-11.5-.244-4.045-.869-8.153-1.478-12.128-.189-1.242-.378-2.486-.558-3.729a2.6,2.6,0,0,0-1.256-1.423,2.482,2.482,0,0,0-1.737-.507,1.573,1.573,0,0,0-.515.749,20.324,20.324,0,0,0,1.371,4.465,25.8,25.8,0,0,1,1.308,17.094c-.57,2.421-1.14,3.938-2.354,4.511C325.11,261.663,323.852,261.347,322.013,260.506Z" transform="translate(-319.831 -232.645)" fill="#302d2c"/>
      </g>
      <g id="グループ_100" data-name="グループ 100" transform="translate(376.496 228.968)">
        <path id="パス_485" data-name="パス 485" d="M331.352,228.983c-.028,2.132-1.042,2.51-2.667,1.512-3.513-2.155-7.108-4.2-10.488-6.551-5.389-3.749-10.648-7.688-15.907-11.62-.565-.423-.771-1.326-1.144-2.007.761-.082,1.652-.458,2.262-.191a37.571,37.571,0,0,1,5.879,3.063c4.752,3.184,9.377,6.556,14.1,9.79,2.077,1.423,4.311,2.619,6.369,4.067A7.988,7.988,0,0,1,331.352,228.983Z" transform="translate(-299.808 -209.194)" fill="#302d2c"/>
        <path id="パス_486" data-name="パス 486" d="M330.682,232.192a3.721,3.721,0,0,1-1.895-.649q-1.41-.863-2.831-1.712c-2.557-1.538-5.2-3.129-7.7-4.866-5.26-3.657-10.474-7.555-15.516-11.325l-.416-.311a3.778,3.778,0,0,1-1.089-1.652c-.092-.212-.181-.426-.288-.619l-.605-1.1,1.249-.135a6.514,6.514,0,0,0,.657-.12,3.264,3.264,0,0,1,2.03-.007,38.806,38.806,0,0,1,6.01,3.137c2.742,1.836,5.483,3.766,8.135,5.63,1.983,1.4,3.966,2.792,5.968,4.165.971.664,1.976,1.278,2.983,1.893,1.127.689,2.289,1.4,3.4,2.177a6.126,6.126,0,0,1,1.5,1.716c.1.15.189.286.269.385l.184.234,0,.3c-.018,1.343-.4,2.231-1.145,2.64A1.845,1.845,0,0,1,330.682,232.192Zm-27.794-20.915a1.927,1.927,0,0,0,.443.712l.415.311c5.031,3.761,10.232,7.65,15.467,11.294,2.451,1.7,5.072,3.281,7.607,4.8.948.572,1.9,1.14,2.843,1.721.7.43,1.043.428,1.114.386s.226-.273.269-.93c-.052-.075-.1-.156-.162-.241a4.71,4.71,0,0,0-1.072-1.267c-1.062-.747-2.2-1.446-3.306-2.12-1.03-.629-2.06-1.259-3.055-1.941-2.007-1.373-4-2.774-5.986-4.174-2.642-1.861-5.376-3.784-8.1-5.612a37.291,37.291,0,0,0-5.749-2.993A1.611,1.611,0,0,0,302.888,211.277Z" transform="translate(-300.346 -209.531)" fill="#302d2c"/>
      </g>
      <g id="グループ_101" data-name="グループ 101" transform="translate(423.349 220.759)">
        <path id="パス_487" data-name="パス 487" d="M333.54,212.871c.256,4.4.44,8.814.8,13.21.13,1.577.749,3.11,1.022,4.685a2,2,0,0,1-.4,1.565,3.693,3.693,0,0,1-2.152,1.206c-.548-.008-1.433-.925-1.555-1.555-.4-2.052-.533-4.155-.736-6.242-.574-5.918-1.169-11.834-1.647-17.76a7.58,7.58,0,0,1,.747-2.538c.706.522,1.7.9,2.062,1.6.925,1.8,1.565,3.742,2.319,5.628Z" transform="translate(-328.03 -204.069)" fill="#302d2c"/>
        <path id="パス_488" data-name="パス 488" d="M333.163,234.925h-.032a3.062,3.062,0,0,1-2.363-2.231,50.472,50.472,0,0,1-.632-5.087l-.376-3.916c-.482-4.943-.982-10.055-1.386-15.093a4.626,4.626,0,0,1,.5-2.114c.1-.247.206-.493.283-.741l.349-1.124.945.7c.2.149.426.281.652.416a4.036,4.036,0,0,1,1.659,1.471,39.782,39.782,0,0,1,1.731,4.092c.2.538.408,1.075.62,1.61l.3.746-.667.3.171,3.137c.167,3.108.338,6.324.6,9.473a14.987,14.987,0,0,0,.535,2.585c.179.674.358,1.346.475,2.027a2.8,2.8,0,0,1-.652,2.316A4.22,4.22,0,0,1,333.163,234.925Zm-2.794-27.679a3.035,3.035,0,0,0-.329,1.217c.4,5.025.9,10.13,1.385,15.066l.378,3.928c.147,1.629.3,3.314.609,4.918a1.805,1.805,0,0,0,.8.881c.072,0,.547-.067,1.513-.98a1.328,1.328,0,0,0,.154-.818c-.109-.63-.276-1.254-.443-1.876a16.257,16.257,0,0,1-.585-2.881c-.264-3.174-.436-6.4-.6-9.521l-.236-4.284.259-.117q-.171-.441-.339-.886a39.338,39.338,0,0,0-1.654-3.921A2.6,2.6,0,0,0,330.369,207.246Z" transform="translate(-328.366 -204.621)" fill="#302d2c"/>
      </g>
      <g id="グループ_102" data-name="グループ 102" transform="translate(452.581 210.646)">
        <path id="パス_489" data-name="パス 489" d="M350.9,219.673l1.649.221c-1.077,2.341-2.05,4.638-3.207,6.837-.261.493-1.171.644-1.781.951-.428-.881-1.291-1.8-1.212-2.637.391-4.108,1.065-8.188,1.568-12.287.308-2.5.37-5.043.766-7.531a36.419,36.419,0,0,1,1.48-5.423c.114-.348.821-.809,1.109-.724.445.132,1.075.681,1.085,1.067a62.968,62.968,0,0,1-.1,7.04C351.909,211.286,351.382,215.371,350.9,219.673Z" transform="translate(-345.512 -198.239)" fill="#302d2c"/>
        <path id="パス_490" data-name="パス 490" d="M347.519,229.148l-.373-.766a7.35,7.35,0,0,0-.446-.761,3.857,3.857,0,0,1-.843-2.321c.244-2.578.605-5.18.955-7.7.214-1.537.426-3.073.615-4.612.129-1.053.216-2.114.3-3.172.115-1.44.236-2.928.468-4.389a34.508,34.508,0,0,1,1.4-5.215l.109-.334a2.087,2.087,0,0,1,2.14-1.269,2.4,2.4,0,0,1,1.684,1.849,63.4,63.4,0,0,1-.1,7.132c-.247,2.884-.575,5.709-.923,8.7-.114.988-.231,1.986-.343,2.993l1.861.249-.376,1.042-.839,1.849c-.784,1.744-1.525,3.391-2.388,5.028a2.647,2.647,0,0,1-1.6,1.085,5.205,5.205,0,0,0-.548.222Zm3.988-28.869a.887.887,0,0,0-.241.192l-.077.264a33.133,33.133,0,0,0-1.341,4.96c-.222,1.4-.341,2.853-.453,4.261-.089,1.084-.177,2.165-.309,3.242-.189,1.548-.4,3.092-.619,4.637-.346,2.5-.7,5.082-.945,7.625a3.039,3.039,0,0,0,.592,1.269c.049.079.1.159.149.237a2.87,2.87,0,0,0,.7-.316c.819-1.565,1.552-3.189,2.326-4.908l.376-.834-1.341-.179.089-.813q.216-1.934.436-3.814c.346-2.978.672-5.791.918-8.652a61.943,61.943,0,0,0,.1-6.944A3.552,3.552,0,0,0,351.507,200.278Z" transform="translate(-345.848 -198.573)" fill="#302d2c"/>
      </g>
      <g id="グループ_103" data-name="グループ 103" transform="translate(261.032 220.115)">
        <path id="パス_491" data-name="パス 491" d="M231.857,206.565c.535-.567,1.488-1.94,1.769-1.814a5.02,5.02,0,0,1,2.645,2.222c1.517,4.038,2.7,8.2,4.092,12.285.607,1.771,1.5,3.445,2.147,5.2a12.021,12.021,0,0,1,.376,2.415c-.908-.124-2.251.084-2.644-.431a26.2,26.2,0,0,1-3.4-5.68c-1.487-3.568-2.67-7.264-3.961-10.912C232.556,208.932,232.3,207.989,231.857,206.565Z" transform="translate(-230.916 -203.897)" fill="#302d2c"/>
        <path id="パス_492" data-name="パス 492" d="M244.25,228.194l-1.1-.15a7.5,7.5,0,0,0-.846-.042c-.9-.018-1.836-.035-2.349-.711a26.664,26.664,0,0,1-3.508-5.864c-1.1-2.649-2.052-5.4-2.968-8.055-.334-.97-.667-1.936-1.01-2.9-.217-.619-.406-1.244-.637-2.015l-.54-1.767.333-.356c.15-.159.333-.386.527-.622.819-1,1.406-1.739,2.192-1.383.933.416,2.572,1.321,3.087,2.692.93,2.471,1.742,5.023,2.528,7.488.512,1.61,1.027,3.221,1.572,4.817.316.923.707,1.808,1.122,2.744.356.808.714,1.617,1.017,2.443a7.11,7.11,0,0,1,.343,1.866c.023.241.045.482.079.719Zm-11.08-21.089.264.871c.224.739.4,1.344.614,1.938.344.966.679,1.94,1.015,2.911.908,2.635,1.846,5.359,2.931,7.958a24.98,24.98,0,0,0,3.292,5.495,8.937,8.937,0,0,0,1.045.052,5.106,5.106,0,0,0-.227-1.241c-.293-.793-.637-1.568-.98-2.344-.41-.928-.834-1.888-1.172-2.878-.552-1.609-1.069-3.229-1.585-4.851-.779-2.446-1.587-4.978-2.5-7.409a3.73,3.73,0,0,0-1.808-1.562c-.191.206-.438.512-.61.721C233.354,206.883,233.26,207,233.17,207.105Z" transform="translate(-231.294 -204.236)" fill="#302d2c"/>
      </g>
      <g id="グループ_104" data-name="グループ 104" transform="translate(349.754 245.013)">
        <path id="パス_493" data-name="パス 493" d="M292.1,220.195c4.242-.2,8.486-.425,12.732-.569a4.559,4.559,0,0,1,1.589.615c-.268.517-.413,1.2-.834,1.512a5.118,5.118,0,0,1-2.272,1q-7.59.915-15.2,1.652c-1.672.164-3.374-1.04-3.251-2.289.174-1.736,1.418-2.232,3.012-2.187,1.4.04,2.806.008,4.209.008Z" transform="translate(-284.018 -218.79)" fill="#302d2c"/>
        <path id="パス_494" data-name="パス 494" d="M288.135,225.59a4.248,4.248,0,0,1-2.961-1.2,2.516,2.516,0,0,1-.809-2.027c.115-1.137.687-3.042,3.868-2.941.961.027,1.923.017,2.888.015l2.085-.007.012.221,2.008-.1c3.3-.161,6.607-.319,9.911-.433a3.316,3.316,0,0,1,1.5.467c.144.075.288.152.433.212l.848.344-.423.814c-.07.137-.13.288-.191.438a2.9,2.9,0,0,1-.891,1.363,5.961,5.961,0,0,1-2.665,1.154c-4.8.577-9.78,1.119-15.216,1.654C288.4,225.584,288.265,225.59,288.135,225.59Zm-.129-4.495c-1.689,0-1.908.739-1.978,1.438a.916.916,0,0,0,.329.681,2.573,2.573,0,0,0,2.008.692c5.423-.533,10.389-1.072,15.18-1.649a4.256,4.256,0,0,0,1.879-.844,1.39,1.39,0,0,0,.246-.438.973.973,0,0,0-.478-.177c-3.3.112-6.593.271-9.889.431l-3.66.176-.017-.294-.495,0c-.987,0-1.966.012-2.946-.015C288.122,221.1,288.063,221.1,288.006,221.1Zm4.409-.567v0l.017,0Z" transform="translate(-284.353 -219.126)" fill="#302d2c"/>
      </g>
      <g id="グループ_105" data-name="グループ 105" transform="translate(285.527 227.052)">
        <path id="パス_495" data-name="パス 495" d="M246.519,224.8c.075-.644.059-.752.1-.774,3.127-1.923,3.5-3.1,2.092-6.588a48.781,48.781,0,0,1-2.139-5.441c-.239-.89,0-2.642.508-2.856a2.488,2.488,0,0,1,3.518,1.339,66.177,66.177,0,0,1,2.313,10.578,4.936,4.936,0,0,1-2.04,3.911C249.837,225.589,248.017,224.907,246.519,224.8Z" transform="translate(-245.586 -208.048)" fill="#302d2c"/>
        <path id="パス_496" data-name="パス 496" d="M250.09,226.4a11.419,11.419,0,0,1-1.925-.232,12.636,12.636,0,0,0-1.349-.2l-.873-.064.157-1.413a.983.983,0,0,1,.421-.838c2.8-1.719,3.03-2.448,1.767-5.568-.217-.538-.451-1.072-.682-1.605a27.932,27.932,0,0,1-1.488-3.935c-.242-.891-.192-3.343.988-3.841a3.8,3.8,0,0,1,3.08.008,2.9,2.9,0,0,1,1.568,1.868,67.716,67.716,0,0,1,2.339,10.715,5.694,5.694,0,0,1-2.44,4.72A2.951,2.951,0,0,1,250.09,226.4Zm-1.793-1.908c.055.01.109.02.162.028a4.324,4.324,0,0,0,2.331.069,4.178,4.178,0,0,0,1.642-3.1,66.35,66.35,0,0,0-2.284-10.444,1.241,1.241,0,0,0-.681-.819,2.128,2.128,0,0,0-1.589-.027,3.771,3.771,0,0,0-.147,1.916,26.54,26.54,0,0,0,1.406,3.7c.239.548.478,1.1.7,1.647C251.25,220.951,250.953,222.622,248.3,224.491Zm-.381-14.355" transform="translate(-245.943 -208.385)" fill="#302d2c"/>
      </g>
      <g id="グループ_106" data-name="グループ 106" transform="translate(392.432 272.894)">
        <path id="パス_497" data-name="パス 497" d="M316.8,240.778c-.4,2.366-.754,4.714-1.237,7.035-.087.413-.833,1.084-1.067,1.007-1.112-.365-2.5-.689-3.12-1.523-.637-.859-1.992-2.364.216-3.455.4-.2.375-1.374.455-2.109a12.6,12.6,0,0,1,.231-2.876,10.259,10.259,0,0,1,1.7-2.333,17.165,17.165,0,0,1,2.52,2.229C316.865,239.219,316.716,240.092,316.8,240.778Z" transform="translate(-309.54 -235.313)" fill="#302d2c"/>
        <path id="パス_498" data-name="パス 498" d="M314.872,250.149a1.01,1.01,0,0,1-.3-.047l-.49-.156a5.745,5.745,0,0,1-3.042-1.667l-.125-.167a3.445,3.445,0,0,1-.985-2.774,2.66,2.66,0,0,1,1.465-1.675,7.058,7.058,0,0,0,.11-.971c.013-.2.027-.391.045-.562a9.161,9.161,0,0,0,.03-.987,5.865,5.865,0,0,1,.249-2.088,6.241,6.241,0,0,1,1.277-1.9c.186-.214.371-.426.538-.647l.535-.7.674.574c.242.207.5.406.751.605a10.717,10.717,0,0,1,1.886,1.744,2.944,2.944,0,0,1,.446,1.854c0,.2.005.4.027.585l.015.12-.319,1.916c-.286,1.731-.58,3.522-.945,5.269a2.687,2.687,0,0,1-1.2,1.488A1.3,1.3,0,0,1,314.872,250.149Zm.209-1.64.012.005Zm-.652-10.327c-.02.022-.04.043-.059.067a5,5,0,0,0-.972,1.383,4.588,4.588,0,0,0-.145,1.5,10.512,10.512,0,0,1-.04,1.174c-.017.151-.027.319-.038.495-.064.935-.129,1.9-.878,2.274-.428.211-.689.44-.737.644-.085.363.4,1,.687,1.378l.137.182a4.781,4.781,0,0,0,2.2,1.067l.222.07a1.23,1.23,0,0,0,.289-.334c.344-1.67.637-3.445.92-5.159l.283-1.689c-.018-.2-.023-.42-.027-.635a2.645,2.645,0,0,0-.09-.848,9.343,9.343,0,0,0-1.6-1.46C314.526,238.256,314.478,238.218,314.429,238.181Z" transform="translate(-309.876 -235.8)" fill="#302d2c"/>
      </g>
      <g id="グループ_107" data-name="グループ 107" transform="translate(266.557 267.828)">
        <path id="パス_499" data-name="パス 499" d="M240.3,240.182c-.558.689-1.063,1.873-1.69,1.941a2.878,2.878,0,0,1-2.346-1.276,12.237,12.237,0,0,1-1.149-4.356,2.835,2.835,0,0,1,2.15-3.2c1.047-.259,2.46,1.612,2.507,3.083.037,1.187.105,2.373.161,3.56Z" transform="translate(-234.262 -232.434)" fill="#302d2c"/>
        <path id="パス_500" data-name="パス 500" d="M238.815,243.3a3.73,3.73,0,0,1-2.965-1.747,12.946,12.946,0,0,1-1.234-4.659,3.662,3.662,0,0,1,2.781-4.078,2.033,2.033,0,0,1,1.757.46,4.834,4.834,0,0,1,1.788,3.409c.025.829.067,1.657.109,2.486l.047.647.762.507-.575.714a7.294,7.294,0,0,0-.45.654c-.477.737-.968,1.5-1.8,1.6A1.912,1.912,0,0,1,238.815,243.3Zm-1.01-8.861H237.8a2.023,2.023,0,0,0-1.517,2.314,11.263,11.263,0,0,0,1.062,4.052,2.212,2.212,0,0,0,1.507.821,8.436,8.436,0,0,0,.577-.839l.032-.05-.008-.005-.072-1.477c-.042-.839-.084-1.679-.11-2.518a3.23,3.23,0,0,0-1.037-2.057A.849.849,0,0,0,237.8,234.444Z" transform="translate(-234.599 -232.77)" fill="#302d2c"/>
      </g>
      <g id="グループ_108" data-name="グループ 108" transform="translate(295.188 233.112)">
        <path id="パス_501" data-name="パス 501" d="M252.286,219.07a21.126,21.126,0,0,1,1.918-.956,3.341,3.341,0,0,0,2.354-3.732c-.171-1.7.9-1.829,2.075-1.869a1.872,1.872,0,0,1,2.164,2.175c-.12,3.261-2.356,5.254-5.975,5.317a20.278,20.278,0,0,1-2.391-.227Z" transform="translate(-251.341 -211.673)" fill="#302d2c"/>
        <path id="パス_502" data-name="パス 502" d="M255.11,221.179a12.446,12.446,0,0,1-1.645-.142c-.247-.033-.493-.065-.739-.092l-.615-.06-.39-1.938.57-.286c.194-.1.386-.2.579-.308a12,12,0,0,1,1.418-.682,2.534,2.534,0,0,0,1.821-2.869,2.482,2.482,0,0,1,.493-1.983,3.15,3.15,0,0,1,2.381-.806,2.694,2.694,0,0,1,3.03,3.04c-.137,3.705-2.742,6.053-6.8,6.127Zm-.751-1.717c.284.03.56.044.829.045,3.169-.059,5.048-1.7,5.152-4.515a1.446,1.446,0,0,0-.274-1.033,1.4,1.4,0,0,0-1.023-.274c-.329.012-1.01.035-1.182.234a1.076,1.076,0,0,0-.09.716,4.172,4.172,0,0,1-2.888,4.6C254.706,219.3,254.53,219.378,254.36,219.462Z" transform="translate(-251.721 -212.009)" fill="#302d2c"/>
      </g>
      <g id="グループ_109" data-name="グループ 109" transform="translate(187.05 180.612)">
        <path id="パス_503" data-name="パス 503" d="M305.444,219.34c-23.129,0-37.917-8.966-52.291-17.683-17.27-10.473-33.576-20.373-63.7-16.27a1.672,1.672,0,0,1-.451-3.314c31.311-4.251,48.883,6.413,65.89,16.725,17.27,10.473,33.588,20.368,63.708,16.268a1.673,1.673,0,0,1,.45,3.316A101.115,101.115,0,0,1,305.444,219.34Z" transform="translate(-186.714 -180.273)" fill="#302d2c"/>
        <path id="パス_504" data-name="パス 504" d="M305.773,220.514c-23.361,0-38.283-9.051-52.717-17.8-17.161-10.407-33.351-20.221-63.16-16.158a2.508,2.508,0,1,1-.676-4.97c31.592-4.3,49.3,6.444,66.419,16.827,17.166,10.411,33.356,20.223,63.18,16.166a2.509,2.509,0,0,1,.677,4.971,102.311,102.311,0,0,1-13.717.967h-.007Zm-102.6-36.578c22.152,0,36.093,8.456,50.722,17.325,14.267,8.652,28.988,17.581,51.88,17.581h.007a100.859,100.859,0,0,0,13.489-.95.841.841,0,0,0,.717-.943.822.822,0,0,0-.953-.716c-30.389,4.137-46.836-5.827-64.238-16.379-16.894-10.243-34.347-20.82-65.35-16.616a.837.837,0,1,0,.234,1.657A100,100,0,0,1,203.171,183.937Z" transform="translate(-187.05 -180.612)" fill="#302d2c"/>
      </g>
      <g id="グループ_110" data-name="グループ 110" transform="translate(447.171 294.06)">
        <path id="パス_505" data-name="パス 505" d="M461.006,287.188c-23.131,0-37.916-8.968-52.289-17.684-17.27-10.471-33.58-20.372-63.707-16.268a1.672,1.672,0,1,1-.45-3.314c31.3-4.256,48.883,6.411,65.89,16.723,17.268,10.473,33.58,20.372,63.7,16.27a1.672,1.672,0,0,1,.451,3.314A100.836,100.836,0,0,1,461.006,287.188Z" transform="translate(-342.277 -248.121)" fill="#302d2c"/>
        <path id="パス_506" data-name="パス 506" d="M461.335,288.362c-23.356,0-38.277-9.048-52.707-17.8-17.169-10.409-33.357-20.226-63.17-16.161a2.509,2.509,0,0,1-.677-4.971c31.592-4.3,49.3,6.446,66.432,16.835,17.158,10.4,33.336,20.216,63.166,16.159a2.508,2.508,0,0,1,2.336,4,2.5,2.5,0,0,1-1.66.968,102.5,102.5,0,0,1-13.713.966h-.007Zm-102.6-36.576c22.156,0,36.1,8.454,50.729,17.327,14.268,8.652,28.988,17.577,51.875,17.577h.007a100.858,100.858,0,0,0,13.489-.951.837.837,0,1,0-.232-1.657c-30.4,4.134-46.833-5.824-64.228-16.374-16.907-10.252-34.362-20.836-65.362-16.621a.837.837,0,1,0,.226,1.659A99.782,99.782,0,0,1,358.731,251.785Z" transform="translate(-342.612 -248.458)" fill="#302d2c"/>
      </g>
    </g>
  </g>
</svg>
