<svg xmlns="http://www.w3.org/2000/svg" width="400" height="350" viewBox="0 0 400 350">
  <g id="logo_12" transform="translate(-710 -1184)">
    <rect id="長方形_21" data-name="長方形 21" width="400" height="350" transform="translate(710 1184)" fill="none"/>
    <g id="グループ_179" data-name="グループ 179" transform="translate(563.551 1043.33)">
      <path id="パス_777" data-name="パス 777" d="M374.036,250.154c-2.59.134-5.542,3.687-5.542,6.157,0,1.386,1.206,1.673,2.29,1.972a26.41,26.41,0,0,1-2.711,4.26c1.325-.083,2.592.313,6.205-4.329,1.024-1.257,2.831-5.2,2.831-6.825C377.108,250,375,250.1,374.036,250.154Z" transform="translate(98.843 47.421)" fill="#363636"/>
      <path id="パス_778" data-name="パス 778" d="M298.09,332.441a9.452,9.452,0,0,0,3.111-1.313c3.57-.544,5.357-.822,8.928-1.388a3.563,3.563,0,0,0,2.812,1.63,14.725,14.725,0,0,0,3.337-2.612c1.183-.19,1.774-.286,2.956-.479-1.793,3.317-2.689,4.974-4.482,8.286a10.529,10.529,0,0,0-1.4,3.328c0,.88.466,3.339,1.552,3.165.827-.133,2.275-2.384,2.793-3.036,4.18-5.274,6.271-7.917,10.451-13.207,28.682-4.8,57.331-9.716,86.128-13.788a9.442,9.442,0,0,0-1.293,3.17c0,.94.5,3.58,1.657,3.424.885-.12,2.432-2.483,2.986-3.163,1.41-1.739,2.116-2.606,3.526-4.338,22.542-2.732,44.975-4.663,67.677-5.4v-5.008c-21.162.671-42.1,2.386-63.123,4.829,3.425-4.188,5.137-6.275,8.562-10.427l-.442-2c-4.91,4.913-7.364,7.39-12.273,12.375l-.112-.1c3.273-5.285,4.91-7.92,8.182-13.174.776-1.254,2.269-3.695,2.269-5.132,0-.773-.559-2.857-1.493-2.59-1.041.3-4.608,4.516-10.285,10.507-2.323,2.449-4.976,5.188-7.907,5.922a6.747,6.747,0,0,1,1.051-3.352c1.825-1.686,8.073-8.257,8.073-10.358,0-.774-1.547-2.344-2.378-2.236-1.41.236-9.359,7.152-10.6,13.381-2.36,1.951-5.428,5.1-7.7,5.434-.885.131-1.713-.133-1.713-1.073,0-2.6,4.81-7.178,4.81-8.947a1.857,1.857,0,0,0-1.6-2.033c.5-.238,1.935-1,1.935-1.664a2.886,2.886,0,0,0-3.594-2.129c-8.048,1.771-19.837,9.261-20.568,17.344-.224,2.483,3.318,5.993,4.865,5.747,1.273-.2,4.811-3.631,5.862-4.623,2.034-1.953,3.051-2.927,5.086-4.872l.112.093c-.72,1.6-2.047,4.735-2.047,6.5a3.01,3.01,0,0,0,.495,1.766q-14.958,2.278-29.879,4.8a7.62,7.62,0,0,1-1.576.744,3.961,3.961,0,0,1-2.21-.112c-7.085,1.188-10.627,1.79-17.712,2.984,2.213-1.5,5.051-4.642,9.25-9.87,3.1-3.863,4.643-5.793,7.74-9.653l.112.093c-1.107,3.337-3.208,8.667-3.208,12.1,0,2.223,1.967,3.794,3.818,4.35a3.96,3.96,0,0,0,2.21.112,7.62,7.62,0,0,0,1.576-.744c10.526-7.829,20.449-22.536,21.59-35.49.069-.768-.332-2.879-1.437-2.7-.83.131-4.147,4.477-4.147,6.357a5.9,5.9,0,0,0,.276,2c-4.006,9.162-10.052,18.341-18.245,24.287-.388.23-.83-.193-.776-.7-.054-3.307,9.894-19.855,12.275-23.542.439-.679,1.881-2.96,1.881-3.735,0-.885-.885-3.449-2.434-3.2-2.82.461-5.091,4.653-6.3,6.181-7.21,9.089-14.371,19.047-23.222,26.682-.5-.083-1.164-.442.056-2.055,5.36-7.087,14.277-16.421,15.315-24.365a9.762,9.762,0,0,0-1.713-5.3c-1.068-1.25-2.775-1.036-4.425-.749-5.009.872-9.563,3.606-14.1,5.972l-.11-.093c.62-.811.928-1.218,1.547-2.03.552-.977.112-1.124-.11-1.087a2.45,2.45,0,0,0-1.217.813c-1.525,1.451-2.288,2.176-3.815,3.626-1.547,1.477-2.539,2.205-3.318,4.094-2.836,6.879-.883,7.336-.275,7.233a9.731,9.731,0,0,0,3.7-1.947c2.919-2.261,13.159-8.465,16.311-9,.94-.158,1.935,0,1.935,1.056,0,1-1.107,2.178-1.713,3-5.712,7.34-12.736,14.716-16.147,23.455-.255,1.5,1.45,4.428,3.261,5.495-2.542.428-3.813.642-6.355,1.067l.565-.717-.414-1.846c-1.143,1.206-1.715,1.809-2.858,3.013-2.258,2.379-3.385,3.567-5.643,5.942-1.193,1.255-1.788,1.883-2.981,3.136l-.105-.086,1.712-2.823c1.348-2.224,2.022-3.337,3.369-5.563l2.576-4.255c.725-1.207,2.121-3.561,2.121-4.905,0-.725-.521-2.646-1.4-2.355-.974.324-4.311,4.444-9.622,10.224-.85.925-1.747,1.889-2.687,2.767a11.921,11.921,0,0,1-4.711,2.98,6.574,6.574,0,0,1,.538-2.309,6.434,6.434,0,0,1,.445-.849c1.707-1.618,7.553-7.946,7.553-9.913,0-.723-1.448-2.143-2.224-2.017-.96.192-5.156,3.768-7.826,7.947a45.944,45.944,0,0,1-7,6.255,5.479,5.479,0,0,1-1.883.915,1.267,1.267,0,0,1-1.186-.444,2.848,2.848,0,0,1-.624-1.816c0-3.931,3.569-9.389,5.948-12.658,3.208-4.41,4.811-6.62,8.019-11.045.62-.877,2.224-2.944,2.224-3.979,0-1.086-2.173-4.1-3.569-3.875-.933.149-1.967,1.4-2.64,2.074-6.775,6.453-12.725,13-19.088,19.4l-.1-.089c2.121-3.566,7.708-12.054,7.708-15.883,0-2.689-2.648-3.211-3.776-3.005a3.279,3.279,0,0,0-.725.247c.469-.615.885-1.207,1.126-1.507q9.1-11.348,18.133-22.745l-.482-2.151c-5.349,5.6-8.024,8.394-13.373,13.951l-.121-.1c3.566-5.843,5.349-8.77,8.917-14.631.843-1.4,2.47-4.126,2.47-5.691,0-.843-.608-3.087-1.627-2.756-1.132.369-5.02,5.134-11.2,11.789-2.531,2.723-5.423,5.748-8.616,6.568a7.379,7.379,0,0,1,1.145-3.66c1.988-1.852,8.8-9.132,8.8-11.42,0-.845-1.686-2.518-2.59-2.382-1.23.227-7.018,5.142-9.986,10.558l-.013-.129c-8.134,9.039-12.833,12.334-14.52,12.546-1.447.184-2.109-1.483-2.109-2.687,0-4.58,4.158-10.822,6.928-14.561,2.544-3.436,3.816-5.159,6.36-8.612,1.191-1.616,1.787-2.426,2.978-4.045.265-.369.685-.923,1.108-1.535a7.217,7.217,0,0,0,1.483-3.05c0-1.266-2.531-4.822-4.158-4.6-1.084.152-2.29,1.582-3.072,2.35-2.526,2.349-4.947,4.707-7.321,7.064q-2.889,2.865-5.705,5.723c-3.055,3.087-6.087,6.159-9.2,9.19l-.12-.107c1.191-1.964,3.321-5.229,5.209-8.591a50.826,50.826,0,0,0,2.651-5.322,12.314,12.314,0,0,0,1.116-4.3c0-3.133-3.083-3.832-4.4-3.634-2.441.369-7.591,5.429-9.819,7.767l-1.689,1.808c-2.068,2.212-3.1,3.313-5.17,5.511-1.087,1.155-1.632,1.731-2.721,2.882l-.12-.109c.179-.615.532-1.543.952-2.6.642-1.618,1.437-3.546,2.015-5.193a11.447,11.447,0,0,0,.768-3.032,4.118,4.118,0,0,0-.722-2.221c-.58-.958-.869-1.437-1.447-2.4-.6-.969-.853-1.779-2.29-1.723-2.152.086-10.662,4.762-11.385,5.113-2.724,1.44-4.085,2.154-6.809,3.562l-.12-.113c2.349-2.183,3.194-3.325,3.194-3.685s-.422-.576-.723-.557a4.046,4.046,0,0,0-1.506.933c-5.362,4.11-5,3.946-5.544,4.695a4.058,4.058,0,0,0-.479,1.356c-7.221.342-11.147.468-17.809.527-.141,1.664-.262,3.333-.345,5.012,6.5-.056,10.24-.169,17.207-.487-.046.257-.089.519-.139.774-.283,1.447.481,2.207,1.445,2.16,2.132-.1,1.4-.1,6.949-3.374,2.2-1.295,5.37-3.1,10.1-5.712.54-.3,1.113-.6,1.683-.926a6.824,6.824,0,0,1,1.867-.877c.457-.038.925.164.741,1.451a21.265,21.265,0,0,1-1.824,5.161c-.749,1.653-1.769,3.708-3.134,6.258-5.036,6.751-7.554,10.1-12.591,16.741.663,1.83,1.868,6.526,4.4,6.366,1.929-.121,3.435-2.515,4.458-3.973,3.615-5.124,5.423-7.7,9.036-12.878,4.688-5.48,7.032-8.244,11.72-13.806,1.1-1.3,1.643-1.951,2.738-3.254.422-.529,1.145-1.389,1.868-1.469.663-.072.885.57-.121,2.6-.287.583-.573,1.162-.87,1.737a109.929,109.929,0,0,1-8.889,13.964c-1.638,2.3-2.457,3.449-4.1,5.74-.964,1.351-2.411,3.285-2.411,4.971,0,1.747.843,6.015,3.194,5.8,1.506-.137,4.414-3.85,5.3-5.081a183.966,183.966,0,0,1,23.015-26l.12.105C270,266.6,262.35,276.54,262.35,283.769c0,3.5,1.325,7.147,5.3,6.668,4.184-.5,13.434-8.391,17.6-13.732-.014.241-.019.481-.011.717.164,4.417,3.082,6.547,4.76,6.435.719-.048,5.121-3.931,10.061-8.837l.12.1c-3.229,5.935-4.843,8.9-8.072,14.815-.482.853-1.629,2.887-1.629,3.85,0,.856.38,2.994,1.242,3.572a57.751,57.751,0,0,0-5.012,4.873c-3.291,3.65-4.936,5.469-8.227,9.092l-.1-.089c.568-1.99,3.206-7.725,3.206-9.432a3.418,3.418,0,0,0-.62-1.881c-.5-.8-.746-1.2-1.242-2.006-.517-.81-.733-1.5-1.966-1.394-1.849.155-9.156,4.524-9.777,4.857-2.338,1.359-3.507,2.034-5.846,3.377l-.1-.093c2.017-1.988,2.742-3.005,2.742-3.315s-.362-.476-.621-.445a3.74,3.74,0,0,0-1.293.873c-4.6,3.786-4.294,3.636-4.758,4.307-.415.511-.8,3.436-1.346,6.248-.241,1.258.414,1.87,1.242,1.78,2.638-.286.473.109,16.088-9.456a6.089,6.089,0,0,1,1.6-.827c.88-.115,1.811.813-3.622,11.221-4.324,6.007-6.486,9-10.81,14.946.136.37.3.881.5,1.44-15.079,1.581-30.1,2.759-45.207,3.454.79,1.643,1.618,3.262,2.465,4.87,25.64-1.324,51.035-4.139,76.51-7.78A3.566,3.566,0,0,0,298.09,332.441Zm110.166-30.392c.484,3.462,2.863,5.114,4.284,5.03.659-.04,4.7-3.575,9.234-7.97l.11.1c-1.852,3.361-2.778,5.044-4.632,8.415-7.13.945-10.694,1.455-17.823,2.517A58.112,58.112,0,0,0,408.256,302.049Zm-23.2,5.914c-.829.3-1.049-.663-1.1-.931,0-2.708,1.6-6.4,14.762-12.4l.11.094C387.88,307.42,386.167,307.567,385.061,307.963Zm-106.42,16.892c-.829,1.2-2.069,2.913-2.069,4.361,0,.121.006.26.016.407-2.782.364-4.171.541-6.952.883,2.794-4.109,4.193-6.168,6.988-10.3,4.966-6.03,7.449-9.062,12.415-15.15.362-.466.984-1.228,1.6-1.317.569-.081.76.463-.105,2.24a94.012,94.012,0,0,1-8.38,13.8C280.75,321.812,280.047,322.828,278.641,324.856Zm5.926,3.693a130.891,130.891,0,0,1,19.059-21.988l.1.088c-3.62,5.265-10.189,14-10.191,20.207,0,.137.006.273.011.409C289.956,327.792,288.159,328.049,284.566,328.549Z" transform="translate(0 44.158)" fill="#363636"/>
      <path id="パス_779" data-name="パス 779" d="M311.893,240.651c0-2.953-4.037-2.512-6.207-2.146-3.554.6-8.091,1.626-23.856,7.775-3.484,1.359-6.738,2.595-9.1,5.865a36.183,36.183,0,0,0-2.2,3.8,31.789,31.789,0,0,0-2.307,5.372,3.288,3.288,0,0,0-.131.774c0,1.084.543,1.728,4.64-.19,1.67-.784,2.507-1.177,4.179-1.966l2.809-1.327c.481-.2,1.806-.6,1.806-1.319,0-.6-.722-.423-1.143-.354-1.253.227-1.879.342-3.133.567l-.121-.1c2.2-1.309,4.469-2.505,6.775-3.612a112.616,112.616,0,0,1,13.467-5.394c4.559-1.5,4.88-1.3,5-1.322,1.024-.172,1.927-.385,1.927.819a9.042,9.042,0,0,1-.588,2.59,48.479,48.479,0,0,1-2.331,5.4,73.087,73.087,0,0,1-3.949,7.08c-3.687,1.319-5.531,1.977-9.218,3.286a33.951,33.951,0,0,0-8.133,4.228,4.332,4.332,0,0,0-1.566,4.41c.121.824,2.651.412,3.072.284,3.591-.877,5.386-1.317,8.977-2.205-2.82,3.457-4.23,5.185-7.048,8.635a14.441,14.441,0,0,0-6.266,4.816c-1.145,1.389-3.674,4.928-3.674,6.614a1.2,1.2,0,0,0,1.445,1.276c2.77-.444,10.12-8.332,12.169-10.841,4.121-5.019,6.181-7.532,10.3-12.562a31.859,31.859,0,0,0,4.939-1.975,5.472,5.472,0,0,0,1.627-2.2c.964-1.705,1.445-2.558,2.41-4.262l-4.037.018c.993-1.624,2.528-4.393,4.075-7.467q22.867-3.854,45.762-7.518c-2.595.992-3.805,3.606-5.38,6.006-6.445,1.258-6.927,2.309-10.18,8.14l-.664,1.193c3.194-1,2.049-.578,5.724-1.167a44.369,44.369,0,0,1-9.158,11.128l.019.064c-2.006,1.756-4.211,3.46-5.5,3.674-.963.16-1.506-.11-1.506-1.075,0-2.711,4.276-8.212,6.205-10.247.949-1,2.585-2.659,2.47-4.08-.251-3.083-.9-3.166-1.386-3.087-1.506.247-7.411,6.951-8.675,8.307-2.386,2.544-3.578,3.815-5.964,6.362-2.831,3.007-6.146,5.313-7.229,5.495-.423.072-.482-.521-.482-.822,0-2.529,1.453-4.1,3.313-5.739a26.643,26.643,0,0,0,4.578-5.11c.663-.653,2.285-2.617,2.41-3.6.233-1.843-2.831-.79-3.674-.648a5.145,5.145,0,0,0-2.651,1.108c-3.853,3.152-8.374,9.969-8.374,15.811,0,2.59,1.626,5.691,4.578,5.193,3.313-.559,7.35-6.662,9.7-9.1l.12.1a15.978,15.978,0,0,0-1.265,5.273c0,2.109,1.325,3.754,3.555,3.38,4.283-.717,10.336-8.1,13.531-11.741a17.5,17.5,0,0,0-1.482,6.071c0,2.41,1.445,3.8,3.794,3.419,4.549-.738,10.184-6.71,13.879-10.7-.006.163-.022.327-.022.489,0,2.59,1.627,5.712,4.578,5.265,3.313-.5,7.35-6.515,9.7-8.9l.121.1a15.673,15.673,0,0,0-1.265,5.242c0,2.108,1.325,3.783,3.555,3.468,4.458-.631,10.844-8.409,13.916-11.752l-.086-.6a24.028,24.028,0,0,0,3.459-4.461c2.507-.864,3.759-1.292,6.266-2.137l.12.109c-2.41,3.17-5.542,6.743-5.542,10.841,0,2.288,1.566,4.444,4.1,4.147,2.924-.343,8.374-5.787,11.344-9.13,0,.158-.024.318-.019.474.121,3.965,2.17,7.658,6.568,7.251,5.964-.552,12.591-6.718,16.265-11.237-.217-.9-.324-1.352-.541-2.255-3.194,2.745-8.254,7.526-12.532,7.9-1.927.171-3.915-.426-3.735-2.732.049-.535.073-.8.121-1.337,11.567-4.875,14.518-9.443,14.518-12.4,0-2.41-2.416-2.713-4.337-2.572-6.526.479-13.72,6.8-15.749,13.479-2.055,1.859-5.592,5.75-8.048,6.026a1.612,1.612,0,0,1-1.867-1.475c0-2.41,2.952-5.729,4.7-7.393,1.36-1.3,2.529-2.319,2.529-4.185a5.271,5.271,0,0,0-1.445-3.04c-.584-.658-3.917.41-9.579,1.871a4.458,4.458,0,0,0,.422-1.739.929.929,0,0,0-1.084-.894c-1.445.174-7.591,5.287-7.591,9.624,0,1.265.362,1.7,1.627,1.659a25.937,25.937,0,0,1-3.976,4.913l.008.089c-2.018,1.705-4.249,3.369-5.55,3.546-.963.133-1.506-.153-1.506-1.118,0-2.71,4.276-8.086,6.205-10.058.948-.971,2.585-2.574,2.47-4-.251-3.09-.9-3.2-1.386-3.131-1.506.2-7.409,6.724-8.674,8.045-2.387,2.48-3.58,3.722-5.966,6.213-2.831,2.943-6.144,5.186-7.229,5.349-.423.064-.482-.53-.482-.83,0-2.531,1.455-4.075,3.313-5.678a25.98,25.98,0,0,0,4.58-5.012c.661-.637,2.285-2.563,2.408-3.539.233-1.836-2.831-.857-3.674-.734a5.036,5.036,0,0,0-2.651,1.054,25.465,25.465,0,0,0-7.685,11.462c-6,5.2-8.134,7.3-10.026,7.6-1.386.22-1.808-.495-1.808-1.82,0-3.615,3.435-9.1,5.482-12.078,6.627-.624,7.109-2.917,9.942-9.07-1.495.105-2.242.16-3.737.27.6-.936,2.35-3.19,2.35-4.276,0-.568-.4-.8-.891-.872,31.128-4.613,62.157-8.115,93.57-9.159q-.73-2.5-1.544-4.953c-46.3,1.693-91.814,8.848-137.5,16.54C310.682,245.945,311.893,242.537,311.893,240.651Zm105.545,9.871c.418-.147.722.185.722.607.061,1.019-3.554,5.45-8.856,7.749A15.065,15.065,0,0,1,417.438,250.523Z" transform="translate(39.178 37.223)" fill="#363636"/>
      <g id="グループ_179-2" data-name="グループ 179" transform="translate(307.327 236.399)">
        <path id="パス_780" data-name="パス 780" d="M273.582,211.833l-5.453,24.418h3.5l1.03-5.249h4.766l1.028,5.249h3.5L276.5,211.833Zm-.308,15.879,1.713-8.848h.069l1.715,8.848Z" transform="translate(-268.129 -211.833)" fill="#363636"/>
        <path id="パス_781" data-name="パス 781" d="M285.781,224.762h-.068l-4.492-12.928h-3.361V236.25h3.5V221.4h.068l3.43,10.494H286.6l3.463-10.494h.068V236.25h3.5V211.833H290.24Z" transform="translate(-262.322 -211.833)" fill="#363636"/>
        <path id="パス_782" data-name="パス 782" d="M302.97,227.711H302.9l-2.846-15.877H297.38l-2.744,15.5h-.068l-1.749-15.5h-3.7l3.636,24.417h3.292l2.64-15.844h.069l2.674,15.844h3.292l3.636-24.417h-3.7Z" transform="translate(-255.604 -211.833)" fill="#363636"/>
        <path id="パス_783" data-name="パス 783" d="M307.005,211.833l-5.453,24.418h3.5L306.079,231h4.768l1.028,5.249h3.5l-5.453-24.418Zm-.308,15.879,1.715-8.848h.069l1.715,8.848Z" transform="translate(-248.182 -211.833)" fill="#363636"/>
        <path id="パス_784" data-name="パス 784" d="M316.9,221.538h-.068l-2.812-9.7h-3.7l4.8,14.094V236.25h3.5V225.928l4.8-14.094h-3.7Z" transform="translate(-242.952 -211.833)" fill="#363636"/>
      </g>
      <path id="パス_785" data-name="パス 785" d="M327.537,225.109a3.339,3.339,0,1,0-3.339-3.339A3.339,3.339,0,0,0,327.537,225.109Z" transform="translate(72.66 28.503)" fill="#363636"/>
      <path id="パス_786" data-name="パス 786" d="M260.423,218.431a3.339,3.339,0,1,0,3.339,3.339A3.338,3.338,0,0,0,260.423,218.431Z" transform="translate(32.606 28.503)" fill="#363636"/>
      <path id="パス_787" data-name="パス 787" d="M204.933,240.788l17.249,5.653c.075-.327.153-.653.23-.979l-17.167-5.625Z" transform="translate(1.483 41.278)" fill="#363636"/>
      <path id="パス_788" data-name="パス 788" d="M207.476,232.115l16.768,6.847c.107-.316.224-.631.334-.945l-16.722-6.829Z" transform="translate(3.001 36.116)" fill="#363636"/>
      <path id="パス_789" data-name="パス 789" d="M227.836,230.283l-16.254-8.239c-.145.3-.287.6-.431.9l16.26,8.244C227.555,230.89,227.691,230.584,227.836,230.283Z" transform="translate(5.194 30.66)" fill="#363636"/>
      <path id="パス_790" data-name="パス 790" d="M231.888,223.022l-15.414-9.715c-.179.283-.354.567-.532.849l15.415,9.715Q231.621,223.445,231.888,223.022Z" transform="translate(8.053 25.445)" fill="#363636"/>
      <path id="パス_791" data-name="パス 791" d="M236.985,215.946,222.68,204.663c-.209.26-.42.519-.628.779l14.3,11.283C236.565,216.465,236.776,216.206,236.985,215.946Z" transform="translate(11.7 20.287)" fill="#363636"/>
      <path id="パス_792" data-name="パス 792" d="M242.886,209.518,230,196.635c-.24.233-.479.465-.717.7l12.883,12.883C242.407,209.983,242.646,209.751,242.886,209.518Z" transform="translate(16.017 15.496)" fill="#363636"/>
      <path id="パス_793" data-name="パス 793" d="M249.01,204.207l-11.131-14.422c-.263.2-.53.406-.792.612l11.133,14.427C248.482,204.616,248.747,204.413,249.01,204.207Z" transform="translate(20.672 11.408)" fill="#363636"/>
      <path id="パス_794" data-name="パス 794" d="M256.051,199.378l-9.083-15.8c-.286.172-.575.339-.861.513L255.2,199.9C255.48,199.724,255.764,199.55,256.051,199.378Z" transform="translate(26.056 7.704)" fill="#363636"/>
      <path id="パス_795" data-name="パス 795" d="M264.036,195.207l-6.82-16.907c-.307.134-.613.265-.918.4l6.82,16.908C263.423,195.472,263.729,195.343,264.036,195.207Z" transform="translate(32.137 4.554)" fill="#363636"/>
      <path id="パス_796" data-name="パス 796" d="M272.967,191.9,268.5,174.222c-.321.093-.64.192-.961.286l4.468,17.683C272.327,192.093,272.648,192,272.967,191.9Z" transform="translate(38.846 2.12)" fill="#363636"/>
      <path id="パス_797" data-name="パス 797" d="M282.823,189.706l-2.156-18.1c-.331.048-.663.089-.992.139l2.157,18.106C282.162,189.8,282.493,189.756,282.823,189.706Z" transform="translate(46.089 0.561)" fill="#363636"/>
      <path id="パス_798" data-name="パス 798" d="M293.533,188.889V170.67c-.335,0-.667.01-1,.013V188.9C292.865,188.9,293.2,188.889,293.533,188.889Z" transform="translate(53.76 0)" fill="#363636"/>
      <path id="パス_799" data-name="パス 799" d="M305.052,189.688l2.156-18.095c-.331-.046-.659-.1-.992-.139l-2.156,18.095C304.392,189.594,304.721,189.641,305.052,189.688Z" transform="translate(60.641 0.468)" fill="#363636"/>
      <path id="パス_800" data-name="パス 800" d="M315.79,191.865l4.466-17.678c-.321-.091-.645-.172-.966-.262l-4.465,17.67C315.149,191.685,315.47,191.772,315.79,191.865Z" transform="translate(67.066 1.943)" fill="#363636"/>
      <path id="パス_801" data-name="パス 801" d="M325.634,195.185l6.82-16.907c-.307-.133-.612-.271-.918-.4l-6.82,16.905C325.023,194.915,325.328,195.051,325.634,195.185Z" transform="translate(72.969 4.301)" fill="#363636"/>
      <path id="パス_802" data-name="パス 802" d="M334.505,199.383l9.081-15.8c-.287-.171-.573-.342-.862-.509l-9.081,15.8Q334.074,199.128,334.505,199.383Z" transform="translate(78.296 7.404)" fill="#363636"/>
      <path id="パス_803" data-name="パス 803" d="M342.353,204.268l11.13-14.422q-.4-.307-.794-.61L341.558,203.66C341.825,203.861,342.088,204.065,342.353,204.268Z" transform="translate(83.02 11.08)" fill="#363636"/>
      <path id="パス_804" data-name="パス 804" d="M349.165,209.655l12.883-12.883c-.24-.233-.476-.469-.717-.7l-12.883,12.883C348.689,209.186,348.925,209.422,349.165,209.655Z" transform="translate(87.132 15.16)" fill="#363636"/>
      <path id="パス_805" data-name="パス 805" d="M354.967,215.376l14.312-11.288c-.212-.259-.433-.509-.647-.765L354.32,214.611C354.536,214.866,354.753,215.119,354.967,215.376Z" transform="translate(90.636 19.487)" fill="#363636"/>
      <path id="パス_806" data-name="パス 806" d="M360.22,221.96l15.417-9.716c-.184-.279-.366-.559-.551-.837l-15.417,9.716C359.854,221.4,360.036,221.681,360.22,221.96Z" transform="translate(93.828 24.312)" fill="#363636"/>
      <path id="パス_807" data-name="パス 807" d="M364.471,228.75l16.255-8.241c-.153-.3-.313-.589-.468-.886L364,227.864C364.16,228.159,364.319,228.453,364.471,228.75Z" transform="translate(96.415 29.215)" fill="#363636"/>
      <path id="パス_808" data-name="パス 808" d="M366.472,293.909l16.279,8.254c.136-.307.268-.613.4-.92l-16.279-8.254C366.743,293.3,366.606,293.6,366.472,293.909Z" transform="translate(97.888 72.999)" fill="#363636"/>
      <path id="パス_809" data-name="パス 809" d="M361.449,303.544l15.414,9.715q.263-.426.524-.854l-15.422-9.718C361.794,302.973,361.623,303.26,361.449,303.544Z" transform="translate(94.891 78.787)" fill="#363636"/>
      <path id="パス_810" data-name="パス 810" d="M356.458,310.757l14.306,11.283q.307-.4.61-.794l-14.307-11.285Q356.765,310.362,356.458,310.757Z" transform="translate(91.912 83.129)" fill="#363636"/>
      <path id="パス_811" data-name="パス 811" d="M349.024,319.054l12.883,12.883c.24-.233.481-.465.717-.7l-12.883-12.883C349.5,318.59,349.264,318.821,349.024,319.054Z" transform="translate(87.476 88.137)" fill="#363636"/>
      <path id="パス_812" data-name="パス 812" d="M342.273,324.909,353.4,339.333c.263-.206.53-.407.792-.613l-11.133-14.427C342.8,324.5,342.538,324.7,342.273,324.909Z" transform="translate(83.447 91.681)" fill="#363636"/>
      <path id="パス_813" data-name="パス 813" d="M334.493,330.219l9.081,15.8c.286-.171.575-.339.861-.513L335.347,329.7C335.063,329.871,334.779,330.047,334.493,330.219Z" transform="translate(78.804 94.906)" fill="#363636"/>
      <path id="パス_814" data-name="パス 814" d="M325.684,334.76l6.818,16.905c.307-.134.615-.265.92-.4L326.6,334.356C326.3,334.493,325.989,334.624,325.684,334.76Z" transform="translate(73.546 97.687)" fill="#363636"/>
      <path id="パス_815" data-name="パス 815" d="M315.888,338.307l4.468,17.683c.321-.093.639-.19.96-.286l-4.468-17.683C316.528,338.118,316.209,338.213,315.888,338.307Z" transform="translate(67.7 99.874)" fill="#363636"/>
      <path id="パス_816" data-name="パス 816" d="M305.18,340.609l2.156,18.1c.331-.048.663-.089.992-.139L306.17,340.46Q305.677,340.537,305.18,340.609Z" transform="translate(61.31 101.33)" fill="#363636"/>
      <path id="パス_817" data-name="パス 817" d="M293.669,341.422v18.219c.335,0,.667-.01,1-.013V341.409C294.336,341.412,294,341.42,293.669,341.422Z" transform="translate(54.44 101.896)" fill="#363636"/>
      <path id="パス_818" data-name="パス 818" d="M282.952,340.623l-2.156,18.1c.331.045.661.094.992.139l2.156-18.1C283.613,340.717,283.282,340.669,282.952,340.623Z" transform="translate(46.758 101.427)" fill="#363636"/>
      <path id="パス_819" data-name="パス 819" d="M273.066,338.336,268.6,356.014c.321.091.645.174.966.262l4.465-17.67C273.71,338.516,273.387,338.429,273.066,338.336Z" transform="translate(39.479 100.062)" fill="#363636"/>
      <path id="パス_820" data-name="パス 820" d="M264.084,334.78l-6.818,16.907c.307.133.61.271.918.4L265,335.182C264.7,335.051,264.391,334.914,264.084,334.78Z" transform="translate(32.715 97.94)" fill="#363636"/>
      <path id="パス_821" data-name="パス 821" d="M256.04,330.207,246.957,346q.431.256.862.511l9.083-15.8Q256.468,330.463,256.04,330.207Z" transform="translate(26.563 95.211)" fill="#363636"/>
      <path id="パス_822" data-name="パス 822" d="M248.932,324.846,237.8,339.27l.794.608,11.131-14.424Q249.328,325.153,248.932,324.846Z" transform="translate(21.098 92.011)" fill="#363636"/>
      <path id="パス_823" data-name="パス 823" d="M242.745,318.918,229.862,331.8c.24.232.476.468.717.7l12.883-12.883C243.221,319.386,242.984,319.15,242.745,318.918Z" transform="translate(16.36 88.473)" fill="#363636"/>
      <path id="パス_824" data-name="パス 824" d="M237.451,312.625l-14.312,11.288c.212.259.433.509.647.766L238.1,313.39C237.884,313.134,237.665,312.882,237.451,312.625Z" transform="translate(12.348 84.718)" fill="#363636"/>
      <path id="パス_825" data-name="パス 825" d="M233.013,306.145,217.6,315.862c.185.278.366.557.554.834l15.428-9.723C233.39,306.7,233.2,306.421,233.013,306.145Z" transform="translate(9.04 80.851)" fill="#363636"/>
    </g>
  </g>
</svg>
