<svg xmlns="http://www.w3.org/2000/svg" width="400" height="350" viewBox="0 0 400 350">
  <g id="logo_5" transform="translate(-693 -1184)">
    <g id="グループ_220" data-name="グループ 220">
      <rect id="長方形_21" data-name="長方形 21" width="400" height="350" transform="translate(693 1184)" fill="none"/>
      <g id="グループ_122" data-name="グループ 122" transform="translate(723.487 1095.897)">
        <g id="グループ_120" data-name="グループ 120" transform="translate(111.513 277.687)">
          <g id="グループ_118" data-name="グループ 118" transform="translate(1.128)">
            <path id="パス_578" data-name="パス 578" d="M156.267,284.925a.933.933,0,0,1-.4-.084,1.573,1.573,0,0,0-.677-.156,1.477,1.477,0,0,0-.293.029l-.164.015a.88.88,0,0,1-.506-.162,1.621,1.621,0,0,0-.552-.254l-.123-.039a1.481,1.481,0,0,0-.534-.1l-.531-.013a1.507,1.507,0,0,0-.616.141.908.908,0,0,1-.21.064,1.558,1.558,0,0,0-.4.131.844.844,0,0,1-.732.007,1.539,1.539,0,0,0-.649-.144,1.4,1.4,0,0,0-.333.038l-.17.021a1.5,1.5,0,0,0-.428.072.778.778,0,0,1-.21.039c-.079,0-.141,0-.193,0a2.057,2.057,0,0,1-.265-.015,2.641,2.641,0,0,0-.382-.023c-.179,0-.269,0-.357-.011s-.179-.013-.342-.015a.79.79,0,0,1-.2-.026,1.548,1.548,0,0,0-.375-.048,1.584,1.584,0,0,0-.68.159.874.874,0,0,1-.377.087l-.143-.012a1.478,1.478,0,0,0-.259-.023,1.526,1.526,0,0,0-.668.156.858.858,0,0,1-.374.085.873.873,0,0,1-.3-.054,1.5,1.5,0,0,0-.542-.1,1.641,1.641,0,0,0-.254.021l-.141.013a.882.882,0,0,1-.534-.184,1.732,1.732,0,0,0-.514-.267,1.883,1.883,0,0,0-.686-.139,1.467,1.467,0,0,0-.46.07.867.867,0,0,1-.233.041,1.517,1.517,0,0,0-.444.08.878.878,0,0,1-.193.041,1.719,1.719,0,0,0-.565.152.845.845,0,0,1-.365.084l-.069,0a1.545,1.545,0,0,1-.18-.028c-.069-.013-.254-.036-.254-.036l-.079-.007a.807.807,0,0,1-.246-.052,1.549,1.549,0,0,0-.536-.1,1.516,1.516,0,0,0-.6.125.874.874,0,0,1-.333.067l-.3-.011a1.553,1.553,0,0,0-.621.134.855.855,0,0,1-.78-.047,1.541,1.541,0,0,0-1.476-.051.848.848,0,0,1-.385.092.87.87,0,0,1-.431-.115,1.536,1.536,0,0,0-1.506-.028.854.854,0,0,1-.4.1.873.873,0,0,1-.418-.108,1.494,1.494,0,0,0-.21-.1,1.548,1.548,0,0,0-.611-.126,1.513,1.513,0,0,0-.244.02l-.136.01a.991.991,0,0,1-.867-.588l-.082-.147a1.989,1.989,0,0,1-.146-.272l-.034-.09a2.309,2.309,0,0,0-.134-.306,1.479,1.479,0,0,1-.051-1.222l.043-.107a1.257,1.257,0,0,1,.193-.347l.125-.147.147-.2a1.121,1.121,0,0,1,.29-.3l.1-.059,0,0a1.87,1.87,0,0,0,.254-.192.922.922,0,0,1,.583-.241l.3-.011a1.47,1.47,0,0,0,.469-.085.875.875,0,0,1,.28-.048.884.884,0,0,1,.513.169,1.6,1.6,0,0,0,.922.3l.213,0a.828.828,0,0,1,.306.057,1.336,1.336,0,0,0,.451.074l.116,0c.1-.007.162-.018.229-.028a1.585,1.585,0,0,1,.321-.026.83.83,0,0,1,.313.061,1.258,1.258,0,0,0,.4.056,1.546,1.546,0,0,0,.5-.084.846.846,0,0,1,.277-.048l.279.012a1.589,1.589,0,0,0,.9-.287.887.887,0,0,1,.364-.147,1.535,1.535,0,0,0,.316-.088.871.871,0,0,1,.308-.059c.169,0,.257,0,.346-.007l.264,0a.845.845,0,0,1,.362.08,1.55,1.55,0,0,0,.359.116.917.917,0,0,1,.324.134,1.575,1.575,0,0,0,.867.265l.331,0c.174,0,.265,0,.347-.011.134-.01.221-.013.393-.013a2.321,2.321,0,0,1,.346.021,2.963,2.963,0,0,0,.38.023,1.5,1.5,0,0,0,.5-.087,1.751,1.751,0,0,0,.552-.269.889.889,0,0,1,.518-.17.854.854,0,0,1,.316.061,1.514,1.514,0,0,0,.572.113,1.6,1.6,0,0,0,.9-.288,2.363,2.363,0,0,0,.934-1.891l.007-.2c.008-.144.013-.261.013-.493a3.581,3.581,0,0,1,.021-.41,3.685,3.685,0,0,0,.028-.492c0-.126-.01-.785-.01-.785a1.61,1.61,0,0,1,.021-.266,2.734,2.734,0,0,0-.106-1.34,1.509,1.509,0,0,1-.059-.745,2.67,2.67,0,0,0,.007-.906,1.464,1.464,0,0,1,.12-.875,2.6,2.6,0,0,0,.167-.456l.077-.22a2.649,2.649,0,0,0,.21-1.444l-.011-.147a2.472,2.472,0,0,0-.087-.549,1.5,1.5,0,0,1-.01-.747,2.512,2.512,0,0,0,.069-.632l-.008-.727a1.537,1.537,0,0,1,.033-.313,2.747,2.747,0,0,0-.061-1.335,2.966,2.966,0,0,0-.218-.583,1.476,1.476,0,0,1-.084-1.109,2.719,2.719,0,0,0-.025-1.7,1.49,1.49,0,0,1-.052-.791,2.751,2.751,0,0,0-.008-1.109,1.509,1.509,0,0,1,.007-.652,2.75,2.75,0,0,0,0-1.2,1.5,1.5,0,0,1,.011-.7,2.633,2.633,0,0,0,.08-.523,1.637,1.637,0,0,1,.048-.3,2.712,2.712,0,0,0,.082-.47,1.426,1.426,0,0,1,.1-.418,2.622,2.622,0,0,0,.18-.793,3,3,0,0,0-.174-1.363l-.054-.161a2.416,2.416,0,0,0-.2-.513,1.483,1.483,0,0,1-.143-.916,2.778,2.778,0,0,0-.007-.924,1.5,1.5,0,0,1,.08-.811,2.665,2.665,0,0,0,.023-1.887,1.5,1.5,0,0,1-.036-.906,2.15,2.15,0,0,0,.064-.292,1.578,1.578,0,0,1,.09-.329,2.629,2.629,0,0,0,.164-1.394,1.529,1.529,0,0,1,.015-.532,2.717,2.717,0,0,0-.036-1.257l-.036-.18a2.624,2.624,0,0,0-.18-.654,1.486,1.486,0,0,1-.1-.36,2.369,2.369,0,0,0-.713-1.412,1.642,1.642,0,0,0-1.094-.442l-.195.008a.87.87,0,0,1-.449-.126,1.546,1.546,0,0,0-.8-.228,1.578,1.578,0,0,0-.326.036l-.1.016a1.546,1.546,0,0,0-.452.116.867.867,0,0,1-.333.067.855.855,0,0,1-.221-.03,2.049,2.049,0,0,0-.441-.077.874.874,0,0,1-.336-.088,1.567,1.567,0,0,0-.552-.154.8.8,0,0,1-.213-.046,1.255,1.255,0,0,0-.377-.052,1.553,1.553,0,0,0-.6.121,2.244,2.244,0,0,0-.718.388.92.92,0,0,1-.428.2l-.12.026a.866.866,0,0,1-.215.026.9.9,0,0,1-.58-.221,1.644,1.644,0,0,0-1.052-.4,1.541,1.541,0,0,0-.626.134.837.837,0,0,1-.349.075l-.115-.008a1.442,1.442,0,0,0-.206-.015,1.558,1.558,0,0,0-.826.239.865.865,0,0,1-.459.133l-.182-.02a1.6,1.6,0,0,0-.313-.038,1.023,1.023,0,0,1-.9-.68,2.17,2.17,0,0,0-.485-.727l-.113-.118a1.365,1.365,0,0,1-.372-.98,1.344,1.344,0,0,1,.395-.965,2.072,2.072,0,0,0,.311-.37,1.431,1.431,0,0,1,.482-.446.887.887,0,0,1,.324-.11,1.706,1.706,0,0,1,.279-.02,1.5,1.5,0,0,0,.392-.054.829.829,0,0,1,.306-.059.858.858,0,0,1,.359.08,1.533,1.533,0,0,0,.554.139l.224.034a1.506,1.506,0,0,0,.342.046l.09,0a1.889,1.889,0,0,0,.246.018,1.6,1.6,0,0,0,.944-.318.886.886,0,0,1,.524-.177.85.85,0,0,1,.211.026,1.433,1.433,0,0,0,.354.044,1.628,1.628,0,0,0,.333-.038l.182-.02a.881.881,0,0,1,.473.141,1.552,1.552,0,0,0,.844.251,1.349,1.349,0,0,0,.256-.023l.147-.013h.021a1.82,1.82,0,0,1,.277.031l.152.026.1.011.167.01a1.577,1.577,0,0,0,.423-.061l.08-.02a1.874,1.874,0,0,0,.614-.218.848.848,0,0,1,.8-.044,1.546,1.546,0,0,0,.58.141l.1,0c.111.008.19.013.3.015a.853.853,0,0,1,.31.066,1.534,1.534,0,0,0,.588.12,1.5,1.5,0,0,0,.547-.1l.184-.048a1.933,1.933,0,0,0,1.481-1.38,2.927,2.927,0,0,0,.111-1.363,1.531,1.531,0,0,1-.021-.3,2.16,2.16,0,0,0-.025-.336,2.839,2.839,0,0,1-.046-.5,1.5,1.5,0,0,1,.052-.393,2.181,2.181,0,0,0,.067-.454,1.462,1.462,0,0,1,.048-.293,2.75,2.75,0,0,0,.016-1.3,1.5,1.5,0,0,1-.031-.5,2.7,2.7,0,0,0-.141-1.181,1.492,1.492,0,0,1-.066-.745,2.729,2.729,0,0,0-.038-1.081,1.5,1.5,0,0,1,.01-.734,2.78,2.78,0,0,0,.072-1.021,1.471,1.471,0,0,1,.136-.824,2.6,2.6,0,0,0,.26-1.288l0-.093a2.727,2.727,0,0,0-.033-.383,1.544,1.544,0,0,1-.007-.434,1.184,1.184,0,0,1,1.031-1.111l.146.015a1.448,1.448,0,0,0,.28.026,1.466,1.466,0,0,0,.346-.041l.192-.021a.865.865,0,0,1,.473.143,1.771,1.771,0,0,0,.4.187,1.14,1.14,0,0,1,.724.839,2.32,2.32,0,0,0,.1.323,1.306,1.306,0,0,1,.072.239,3.151,3.151,0,0,0,.149.495,1.48,1.48,0,0,1-.01,1.111,2.671,2.671,0,0,0-.07,1.837,1.5,1.5,0,0,1,.033.8,2.669,2.669,0,0,0-.07.51l-.011.125a2.639,2.639,0,0,0,.159,1.267,1.493,1.493,0,0,1,.075.783,2.732,2.732,0,0,0-.034.329,1.4,1.4,0,0,1-.051.321,2.694,2.694,0,0,0,0,1.447,1.566,1.566,0,0,1,.049.259,2.76,2.76,0,0,0,.054.329,1.492,1.492,0,0,1-.077.911,2.488,2.488,0,0,0-.169.582,2.837,2.837,0,0,0,.113,1.534l.028.082a1.984,1.984,0,0,0,1.758,1.494,1.438,1.438,0,0,0,.375-.049l.159-.028a1.576,1.576,0,0,0,.438-.1.865.865,0,0,1,.218-.054,1.541,1.541,0,0,0,.47-.126.865.865,0,0,1,.347-.074l.18.02a1.532,1.532,0,0,0,.88-.07.868.868,0,0,1,.306-.057.878.878,0,0,1,.508.166,1.7,1.7,0,0,0,.4.21l.138.064a1.584,1.584,0,0,0,.765.2c.193-.007.37-.01.493-.01l.154.015a1.955,1.955,0,0,0,.341.034,1.581,1.581,0,0,0,.764-.2.924.924,0,0,1,.28-.1,1.626,1.626,0,0,0,.424-.134.874.874,0,0,1,.2-.069,1.6,1.6,0,0,0,.4-.146.877.877,0,0,1,.4-.1.854.854,0,0,1,.334.069,1.55,1.55,0,0,0,.6.126,1.483,1.483,0,0,0,.406-.056.859.859,0,0,1,.223-.031l.239-.007c.159-.007.247-.01.424-.01l.241.028a1.223,1.223,0,0,1,.844,1.339,2.668,2.668,0,0,0,.062.816l.026.141a2.258,2.258,0,0,0,.129.488,1.488,1.488,0,0,1,.09.647,1.316,1.316,0,0,1-.528.981l-.172.1-.115.074a.876.876,0,0,1-.493.154.865.865,0,0,1-.475-.143,1.6,1.6,0,0,0-.859-.259,1.557,1.557,0,0,0-.619.131.845.845,0,0,1-.344.074.879.879,0,0,1-.385-.092,1.5,1.5,0,0,0-.975-.139,1.387,1.387,0,0,0-.6.228.946.946,0,0,1-.319.129,1.518,1.518,0,0,0-.4.133.88.88,0,0,1-.367.087c-.139,0-.218,0-.3.011l-.165.007a.862.862,0,0,1-.395-.1,1.551,1.551,0,0,0-.714-.177,1.478,1.478,0,0,0-.439.066l-.157.031a1.56,1.56,0,0,0-.424.11.834.834,0,0,1-.326.066l-.054,0a1.105,1.105,0,0,1-.208-.031,1.7,1.7,0,0,0-.264-.044.877.877,0,0,1-.4-.133,1.56,1.56,0,0,0-.832-.244,1.591,1.591,0,0,0-.934.313.921.921,0,0,1-.246.126,2.182,2.182,0,0,0-1.332,1.845c-.015.12-.034.275-.041.338a1.545,1.545,0,0,1-.18.595,2.654,2.654,0,0,0-.22,2.081,1.518,1.518,0,0,1,.065.411,2.735,2.735,0,0,0,.031.4,2.54,2.54,0,0,1,.025.287,2.651,2.651,0,0,0,.093.626,1.5,1.5,0,0,1,.033.632,2.774,2.774,0,0,0,.046,1.1,1.5,1.5,0,0,1-.051.883,2.69,2.69,0,0,0-.016,1.837,1.5,1.5,0,0,1,.025.919,2.664,2.664,0,0,0-.1.986l.01.192a1.526,1.526,0,0,1-.033.357,2.694,2.694,0,0,0,.008,1.183,1.507,1.507,0,0,1-.031.786,2.707,2.707,0,0,0-.085,1.255,1.5,1.5,0,0,1,.021.242c0,.172.007.272.011.369.007.123.011.223.013.4a1.525,1.525,0,0,1-.029.3,2.724,2.724,0,0,0,.033,1.206,1.506,1.506,0,0,1,.008.7,2.748,2.748,0,0,0-.03,1.067,1.49,1.49,0,0,1-.061.741,2.661,2.661,0,0,0,.131,2.055,1.418,1.418,0,0,1,.151.531c.008.092.02.179.036.267a1.517,1.517,0,0,1-.021.654,2.679,2.679,0,0,0,0,1.347,1.464,1.464,0,0,1,.048.423l-.011.211c0,.074-.01.146-.013.244a1.452,1.452,0,0,1-.085.46,2.716,2.716,0,0,0-.121,1.365,1.48,1.48,0,0,1-.02.6,2.669,2.669,0,0,0-.066.552l0,.1a2.747,2.747,0,0,0,.22,1.36,1.456,1.456,0,0,1,.123.5,2.586,2.586,0,0,0,.048.341,1.528,1.528,0,0,1-.026.7,2.7,2.7,0,0,0-.074,1.1l.016.141a1.557,1.557,0,0,1-.016.4,2.712,2.712,0,0,0,.1,1.33,1.466,1.466,0,0,1,.067.659,2.7,2.7,0,0,0,.238,1.47,1.941,1.941,0,0,0,1.09,1.016,1.739,1.739,0,0,0,.683.147,1.6,1.6,0,0,0,.452-.065.835.835,0,0,1,.246-.036.857.857,0,0,1,.357.079,1.514,1.514,0,0,0,1.034.093l.161-.026a1.605,1.605,0,0,0,.421-.087.855.855,0,0,1,.285-.049c.19,0,.287-.007.382-.013s.164-.01.283-.01h.008a.836.836,0,0,1,.288.051,1.5,1.5,0,0,0,1.009.008.888.888,0,0,1,.254-.044,1.521,1.521,0,0,0,.393-.059.879.879,0,0,1,.234-.033.847.847,0,0,1,.38.09,1.559,1.559,0,0,0,.587.156l0,0,.164.023a2.013,2.013,0,0,0,.421.041,1.18,1.18,0,0,1,.311.036,1.555,1.555,0,0,0,.359.051l.179,0a1.623,1.623,0,0,0,1.006-.383.89.89,0,0,1,.569-.211.846.846,0,0,1,.2.023,1.476,1.476,0,0,0,.365.046,1.522,1.522,0,0,0,.532-.1.849.849,0,0,1,.3-.054l.362.023a.923.923,0,0,1,.6.288l.106.1a1.247,1.247,0,0,1,.333.537,2.574,2.574,0,0,0,.156.375l.079.184a2.364,2.364,0,0,0,.295.59,1.462,1.462,0,0,1,.179,1.245,2.538,2.538,0,0,0-.077.316,1.177,1.177,0,0,1-.7.929,1.649,1.649,0,0,0-.428.239.912.912,0,0,1-.423.18l-.293.039-.07.013-.136.011a.867.867,0,0,1-.306-.057,1.511,1.511,0,0,0-.995-.036.886.886,0,0,1-.251.038.853.853,0,0,1-.426-.115,1.559,1.559,0,0,0-.457-.17l-.17-.054a1.536,1.536,0,0,0-.606-.128l-.406,0a1.547,1.547,0,0,0-.709.177l-.188.072a1.569,1.569,0,0,0-.418.17.857.857,0,0,1-.711.077,1.481,1.481,0,0,0-.487-.082,1.523,1.523,0,0,0-.523.093.94.94,0,0,1-.259.051,1.851,1.851,0,0,0-.265.026Zm-37.589-8a.849.849,0,0,1-.39-.093,1.619,1.619,0,0,0-.378-.136.886.886,0,0,1-.292-.12,1.7,1.7,0,0,0-.444-.146c-.172-.028-.331-.067-.487-.106a1.515,1.515,0,0,0-.364-.046,1.732,1.732,0,0,0-.261.023l-.144.013a.86.86,0,0,1-.311-.059,4.7,4.7,0,0,1-.455-.2,1.6,1.6,0,0,0-.218-.1,1.141,1.141,0,0,1-.687-.8,2.314,2.314,0,0,0-.436-.859,1.29,1.29,0,0,1-.264-.554l-.029-.131a2.593,2.593,0,0,0-.17-.506c-.069-.162-.1-.251-.129-.321a1.472,1.472,0,0,1-.085-.523,2.746,2.746,0,0,0-.167-1.047,1.669,1.669,0,0,1-.1-.5l0-.177a2.582,2.582,0,0,0-.272-1.147,1.425,1.425,0,0,1-.141-.475,2.712,2.712,0,0,0-.075-.388,1.46,1.46,0,0,1-.051-.47c.007-.138,0-.231,0-.324l0-.334a1.513,1.513,0,0,1,.066-.454,2.586,2.586,0,0,0,.1-.457,1.452,1.452,0,0,1,.111-.4,2.632,2.632,0,0,0,.216-1.127c0-.093,0-.2,0-.38,0-.223,0-.341-.01-.452s-.011-.234-.011-.452.008-.313.016-.415c.011-.133.02-.251.02-.49a3.484,3.484,0,0,0-.265-1.26,1.483,1.483,0,0,1-.026-1.139,2.537,2.537,0,0,0,.113-.359,2.953,2.953,0,0,0,.057-1.422,1.491,1.491,0,0,1,.02-.721,2.656,2.656,0,0,0-.226-1.987,1.477,1.477,0,0,1-.177-.809c.007-.123.013-.241.013-.467a3.243,3.243,0,0,1,.021-.41,4.21,4.21,0,0,0,.026-.5c0-.126-.01-.786-.01-.786a1.531,1.531,0,0,1,.025-.274,2.7,2.7,0,0,0-.11-1.353,1.523,1.523,0,0,1-.059-.754,2.633,2.633,0,0,0,0-.921,1.468,1.468,0,0,1,.121-.88,2.55,2.55,0,0,0,.167-.459,1.377,1.377,0,0,1,.082-.231,2.666,2.666,0,0,0,.208-1.452l-.013-.159a2.379,2.379,0,0,0-.087-.55,1.5,1.5,0,0,1-.008-.747,2.664,2.664,0,0,0,.069-.639l-.008-.734a1.57,1.57,0,0,1,.033-.316,2.749,2.749,0,0,0-.059-1.34,3.116,3.116,0,0,0-.224-.6,1.482,1.482,0,0,1-.08-1.114,2.716,2.716,0,0,0-.025-1.722,1.505,1.505,0,0,1-.054-.8,2.727,2.727,0,0,0-.007-1.122,1.514,1.514,0,0,1,0-.659,2.729,2.729,0,0,0,.007-1.212,1.485,1.485,0,0,1,.011-.7,2.694,2.694,0,0,0,.08-.531,1.476,1.476,0,0,1,.048-.3,2.534,2.534,0,0,0,.082-.475,1.52,1.52,0,0,1,.1-.431,2.6,2.6,0,0,0,.18-.775l.013-.134a2.72,2.72,0,0,0-.118-1.237l-.059-.231a2.767,2.767,0,0,0-.1-.39,1.493,1.493,0,0,1,.034-1.019,2.937,2.937,0,0,0,.193-.757,1.29,1.29,0,0,1,.454-.868,2.137,2.137,0,0,0,.624-.837l.064-.129a2.5,2.5,0,0,0,.157-.336,1.09,1.09,0,0,1,.7-.688,1.382,1.382,0,0,1,.344-.049l.085.007a1.515,1.515,0,0,0,.244.018,1.691,1.691,0,0,0,.818-.21.866.866,0,0,1,.421-.111l.1.007.188.011a1.564,1.564,0,0,0,.757-.2.987.987,0,0,1,.193-.08,1.619,1.619,0,0,0,.452-.2.889.889,0,0,1,.429-.144,1.53,1.53,0,0,0,.264-.036,1.5,1.5,0,0,1,.229-.031l.049,0a.851.851,0,0,1,.351.077,1.57,1.57,0,0,0,.636.138,1.691,1.691,0,0,0,.2-.015c.108-.013.174-.02.249-.023h.036a.86.86,0,0,1,.324.064,1.564,1.564,0,0,0,.588.118,1.527,1.527,0,0,0,.336-.038l.188-.021a.879.879,0,0,1,.495.156,1.6,1.6,0,0,0,.895.285l.177-.008.1,0,.184.013.213-.01a1.032,1.032,0,0,1,.614.2l.242.179a1.13,1.13,0,0,1,.316.319,1.928,1.928,0,0,0,.27.334,1.208,1.208,0,0,1,.184.238,2.1,2.1,0,0,0,.629.688l.174.147a1.953,1.953,0,0,0,.383.308,1.369,1.369,0,0,1,.49,1.583,2.67,2.67,0,0,0,.075,1.883,1.455,1.455,0,0,1,.116.65,2.693,2.693,0,0,0,.2,1.163,1.485,1.485,0,0,1,.1.795,2.9,2.9,0,0,0-.029.378c0,.251-.011.365-.02.48s-.018.221-.02.416l-.015.193a2.533,2.533,0,0,0,.624,2.079,1.38,1.38,0,0,1,.36.983,1.344,1.344,0,0,1-.4.958,2.354,2.354,0,0,0-.731,1.612l0,.1c0,.115-.011.225-.013.434a2.753,2.753,0,0,0,.048.521,1.484,1.484,0,0,1-.021.793,2.746,2.746,0,0,0-.115.673,2.022,2.022,0,0,1-.029.28,2.412,2.412,0,0,0-.036.418l-.007.118a2.693,2.693,0,0,0,.252,1.416,1.477,1.477,0,0,1,.123.883,2.677,2.677,0,0,0,0,.841,1.5,1.5,0,0,1-.1.8,2.624,2.624,0,0,0-.188,1.339l.01.2a2.573,2.573,0,0,1-.029.351l-.02.184-.008.121a2.707,2.707,0,0,0,.048.736l.02.12a2.653,2.653,0,0,0,.17.68,1.506,1.506,0,0,1,.036.975,2.662,2.662,0,0,0-.115.7l-.007.152c0,.1-.008.187-.01.329a1.551,1.551,0,0,1-.052.38,2.669,2.669,0,0,0-.029,1.316,1.529,1.529,0,0,1,.023.539,2.7,2.7,0,0,0,.128,1.249,1.547,1.547,0,0,1,.08.4,2.47,2.47,0,0,0,.052.4,1.485,1.485,0,0,1-.028.734,2.666,2.666,0,0,0-.067,1.23,1.384,1.384,0,0,1,.023.3,2.225,2.225,0,0,0,.025.346,2.869,2.869,0,0,1,.046.514,1.512,1.512,0,0,1-.049.385,2.374,2.374,0,0,0-.07.467,1.506,1.506,0,0,1-.046.3,2.69,2.69,0,0,0-.018,1.311,1.525,1.525,0,0,1,.031.5,2.717,2.717,0,0,0,.141,1.193,1.487,1.487,0,0,1,.064.754,2.7,2.7,0,0,0,.039,1.1,1.5,1.5,0,0,1-.01.742,2.745,2.745,0,0,0-.077,1,1.456,1.456,0,0,1-.159.849,2.59,2.59,0,0,0-.3,1.227l0,.133a2.581,2.581,0,0,0,.026.529c.016.1.025.164.031.223l.007.156a2.5,2.5,0,0,0,.067.551,1.484,1.484,0,0,1-.118,1.009,1.336,1.336,0,0,1-.344.429,2.128,2.128,0,0,0-.657.854,1.152,1.152,0,0,1-.439.524,1.983,1.983,0,0,0-.572.551.966.966,0,0,1-.745.438,1.6,1.6,0,0,0-.709.2l-.067.034a1.963,1.963,0,0,0-.4.241.893.893,0,0,1-.549.195.866.866,0,0,1-.383-.09,1.556,1.556,0,0,0-.691-.167,1.593,1.593,0,0,0-.764.2.85.85,0,0,1-.8.025,1.525,1.525,0,0,0-1.453.046A.865.865,0,0,1,118.678,276.926Zm1.93-4.453a.869.869,0,0,1,.333.067,1.422,1.422,0,0,0,.208.072l.151.056a1.677,1.677,0,0,0,.724.164,1.569,1.569,0,0,0,.657-.143A2.272,2.272,0,0,0,124,270.751l.02-.146a3.152,3.152,0,0,0,.044-.428l0-.192a1.457,1.457,0,0,1,.074-.413,2.723,2.723,0,0,0,.129-1.094c0-.07-.011-.138-.015-.231a1.508,1.508,0,0,1,.046-.429,2.7,2.7,0,0,0,.038-1.152,1.505,1.505,0,0,1,.067-.781,2.641,2.641,0,0,0,.133-1.324l-.015-.156a2.194,2.194,0,0,0-.088-.475,1.534,1.534,0,0,1-.031-.69,3.5,3.5,0,0,0,.062-.508,1.457,1.457,0,0,1,.072-.4,2.612,2.612,0,0,0,.128-.667l.033-.233a2.524,2.524,0,0,0-.056-1.193,3.2,3.2,0,0,0-.316-.85,1.393,1.393,0,0,1-.169-.521l-.02-.136a1.459,1.459,0,0,1,.157-.955,2.679,2.679,0,0,0,.22-2.017,1.48,1.48,0,0,1-.051-.537,2.647,2.647,0,0,0-.184-1.229,1.491,1.491,0,0,1-.09-.786,2.754,2.754,0,0,0,.031-.387c0-.249.01-.364.02-.477.007-.087.015-.174.016-.306a1.51,1.51,0,0,1,.07-.421,2.669,2.669,0,0,0,.1-1.2,1.487,1.487,0,0,1,.085-.749,2.676,2.676,0,0,0,.175-1.031l-.007-.126a2.6,2.6,0,0,0-.175-.808,1.462,1.462,0,0,1-.1-.559l0-.211c0-.143.008-.257.008-.475s0-.32.011-.424.011-.226.013-.434a2.656,2.656,0,0,0-.057-.569,1.479,1.479,0,0,1,.033-.742,2.745,2.745,0,0,0,.113-.662l.011-.125.02-.147a2.923,2.923,0,0,0,.036-.429l0-.123a2.669,2.669,0,0,0-.251-1.386,1.475,1.475,0,0,1-.126-.881,2.687,2.687,0,0,0,.007-.834,1.489,1.489,0,0,1,.1-.795,2.641,2.641,0,0,0,.188-1.334l-.008-.2a2.372,2.372,0,0,1,.028-.351l.028-.3a2.708,2.708,0,0,0-.051-.75l-.02-.128a2.693,2.693,0,0,0-.169-.657,1.5,1.5,0,0,1-.049-.95,2.659,2.659,0,0,0,.1-.845,1.563,1.563,0,0,1,.029-.372,2.735,2.735,0,0,0-.177-1.656,1.446,1.446,0,0,1-.125-.5,2.467,2.467,0,0,0-.808-1.729,1.146,1.146,0,0,1-.195-.211,1.923,1.923,0,0,0-.531-.506l-.088-.059a1.6,1.6,0,0,0-.683-.257l-.164-.018-.151-.008a1.529,1.529,0,0,0-.672.156.86.86,0,0,1-.364.087c-.106,0-.375.016-.375.016a1.55,1.55,0,0,0-.455.09.86.86,0,0,1-.724-.07,1.552,1.552,0,0,0-.786-.215,1.512,1.512,0,0,0-.413.057l-.164.041a1.83,1.83,0,0,0-1.153.914l-.111.2a2.612,2.612,0,0,0-.374,1.557v.2l-.008.131a2.692,2.692,0,0,0,.213,1.37,1.447,1.447,0,0,1,.12.444,2.636,2.636,0,0,0,.074.4,1.453,1.453,0,0,1,.049.378c0,.213.008.759.008.759a1.477,1.477,0,0,1-.066.457,2.6,2.6,0,0,0-.1.451,1.42,1.42,0,0,1-.11.4,2.649,2.649,0,0,0-.216,1.122c0,.092,0,.2,0,.374,0,.221,0,.338.01.449.007.131.011.241.011.449a3.875,3.875,0,0,1-.018.415c-.01.126-.02.246-.02.483a2.649,2.649,0,0,0,.061.569,2.7,2.7,0,0,0,.206.678,1.5,1.5,0,0,1,.025,1.139,2.424,2.424,0,0,0-.11.346,2.954,2.954,0,0,0-.059,1.417,1.492,1.492,0,0,1-.02.716,2.649,2.649,0,0,0,.226,1.968,1.46,1.46,0,0,1,.17.859c0,.051-.007.17-.007.41a3.641,3.641,0,0,1-.021.41,3.622,3.622,0,0,0-.028.492c0,.126.01.785.01.785a1.427,1.427,0,0,1-.021.265,2.72,2.72,0,0,0,.108,1.342,1.5,1.5,0,0,1,.059.749,2.658,2.658,0,0,0,0,.911,1.486,1.486,0,0,1-.123.881,2.408,2.408,0,0,0-.165.449l-.082.228a2.674,2.674,0,0,0-.208,1.453l.013.165a2.328,2.328,0,0,0,.085.526,1.512,1.512,0,0,1,.008.755,2.5,2.5,0,0,0-.067.626c0,.077.007.485.007.719a1.5,1.5,0,0,1-.031.31,2.748,2.748,0,0,0,.061,1.345,3.1,3.1,0,0,0,.221.583,1.476,1.476,0,0,1,.084,1.109,2.722,2.722,0,0,0,.025,1.709,1.508,1.508,0,0,1,.054.791,2.728,2.728,0,0,0,.007,1.111,1.509,1.509,0,0,1,0,.652,2.732,2.732,0,0,0-.008,1.208,1.492,1.492,0,0,1-.011.7,2.679,2.679,0,0,0-.08.528,1.561,1.561,0,0,1-.049.3,2.784,2.784,0,0,0-.085.508l-.028.2a2.414,2.414,0,0,0,1.124,2.659.939.939,0,0,1,.226.147,1.636,1.636,0,0,0,.878.372.87.87,0,0,1,.4.149,1.54,1.54,0,0,0,1.542.12A.873.873,0,0,1,120.608,272.473Z" transform="translate(-112.201 -220.179)" fill="#363636"/>
            <path id="パス_579" data-name="パス 579" d="M195.107,287.107a.847.847,0,0,1-.38-.09,1.557,1.557,0,0,0-.685-.162,1.524,1.524,0,0,0-.434.064l-.175.033a1.488,1.488,0,0,0-.234.038.8.8,0,0,1-.206.026.877.877,0,0,1-.475-.144,1.6,1.6,0,0,0-.857-.261,1.517,1.517,0,0,0-.359.046,1.654,1.654,0,0,0-.4.134.864.864,0,0,1-.374.085.848.848,0,0,1-.39-.093,1.742,1.742,0,0,0-.359-.134.934.934,0,0,1-.344-.167,1.692,1.692,0,0,0-.393-.144,2.418,2.418,0,0,1-.267-.082,3.2,3.2,0,0,0-.341-.1.893.893,0,0,1-.256-.1l-.2-.118a1.671,1.671,0,0,0-.344-.141.8.8,0,0,1-.195-.08,1.492,1.492,0,0,0-.947-.151l-.141.011a.884.884,0,0,1-.475-.143,1.608,1.608,0,0,0-.524-.231l-.321-.08a1.519,1.519,0,0,0-.778.01.869.869,0,0,1-.224.029l-.149-.011c-.08-.015-.162-.026-.244-.036a3.645,3.645,0,0,1-.377-.059c-.131-.031-.252-.065-.375-.1-.182-.051-.277-.077-.372-.1a1.349,1.349,0,0,0-.2-.033.983.983,0,0,1-.731-.485,2.021,2.021,0,0,0-.333-.408,1.38,1.38,0,0,1-.388-1.131l.011-.213a4.118,4.118,0,0,1,.089-.786,1.31,1.31,0,0,1,.257-.539,1.083,1.083,0,0,1,.413-.4,1.84,1.84,0,0,0,.328-.22,2.412,2.412,0,0,0,.849-1.861,1.367,1.367,0,0,1,.02-.234l-.054-.228a2.238,2.238,0,0,0-.98-1.586l-.079-.051a1.629,1.629,0,0,0-.972-.328,1.562,1.562,0,0,0-.831.238.878.878,0,0,1-.462.134.842.842,0,0,1-.295-.052,1.626,1.626,0,0,0-.352-.087.879.879,0,0,1-.254-.07,1.486,1.486,0,0,0-.559-.134,1.381,1.381,0,0,1-.257-.043,1.547,1.547,0,0,0-.3-.038.867.867,0,0,1-.354-.082,1.5,1.5,0,0,0-.5-.138l-.161-.033a1.533,1.533,0,0,0-.433-.062,1.5,1.5,0,0,0-.532.1.83.83,0,0,1-.295.052.87.87,0,0,1-.338-.069,1.548,1.548,0,0,0-.573-.125l-.316-.011a1.58,1.58,0,0,0-.709.179.856.856,0,0,1-.37.1,2.6,2.6,0,0,0-.267.025,2.27,2.27,0,0,1-.367.026c-.154,0-.241,0-.318-.008-.1-.007-.265-.013-.3-.013a1.527,1.527,0,0,0-.557.111.858.858,0,0,1-.318.062l-.157-.015a1.5,1.5,0,0,0-.279-.026,1.544,1.544,0,0,0-.691.165.847.847,0,0,1-.706.028,1.553,1.553,0,0,0-.585-.118c-.136,0-.341.008-.5.008a.87.87,0,0,1-.224-.029,2.242,2.242,0,0,0-.426-.082.912.912,0,0,1-.367-.113,1.56,1.56,0,0,0-.547-.192l-.165-.041a1.3,1.3,0,0,0-.4-.057,1.541,1.541,0,0,0-.628.136l-.126.044a1.512,1.512,0,0,0-.51.27.908.908,0,0,1-.456.19,1.656,1.656,0,0,0-.2.038,1.017,1.017,0,0,1-.3.051l-.062,0a1.248,1.248,0,0,1-.311-.036,1.531,1.531,0,0,0-.349-.041,1.48,1.48,0,0,0-.395.054.856.856,0,0,1-.223.029.877.877,0,0,1-.487-.151,1.59,1.59,0,0,0-.878-.274,1.574,1.574,0,0,0-.829.241.865.865,0,0,1-.413.133c-.084,0-.146.013-.206.02a2.255,2.255,0,0,1-.333.018,2.2,2.2,0,0,1-.339-.021,2.916,2.916,0,0,0-.4-.026.858.858,0,0,1-.362-.082.806.806,0,0,0-.174-.052.938.938,0,0,1-.456-.242,1.709,1.709,0,0,0-.7-.411l-.116-.038a1.5,1.5,0,0,0-.89-.036.863.863,0,0,1-.213.028l-.118-.008a1.5,1.5,0,0,0-.208-.016l-.18.011-.108.007a.953.953,0,0,1-.249-.031,1.826,1.826,0,0,0-.2-.048,1.03,1.03,0,0,1-.75-.6,2.17,2.17,0,0,0-.493-.67,1.305,1.305,0,0,1-.4-.8,2.521,2.521,0,0,0-.272-.859,1.456,1.456,0,0,1-.156-.857,2.69,2.69,0,0,0-.133-1.216,1.462,1.462,0,0,1-.074-.328,2.884,2.884,0,0,0-.07-.377,1.5,1.5,0,0,1-.049-.364l-.007-.772a1.569,1.569,0,0,1,.031-.316,2.713,2.713,0,0,0-.039-1.273,1.5,1.5,0,0,1-.041-.614,2.743,2.743,0,0,0-.077-1.144,1.511,1.511,0,0,1-.025-.726,2.72,2.72,0,0,0,.059-.5l.02-.208c.028-.172.046-.313.054-.446a1.451,1.451,0,0,1,.066-.367,2.669,2.669,0,0,0,.066-1.363,1.4,1.4,0,0,1-.031-.287c0-.154-.011-.246-.02-.336-.01-.131-.02-.231-.02-.431,0-.229-.008-.346-.018-.462l-.008-.12a1.5,1.5,0,0,1,.1-.65,2.559,2.559,0,0,0,.175-.682,2.7,2.7,0,0,0-.179-1.347,1.452,1.452,0,0,1-.1-.446,2.778,2.778,0,0,0-.036-.285l-.023-.192a3.559,3.559,0,0,0-.1-.713,1.5,1.5,0,0,1-.011-.708,2.7,2.7,0,0,0,.044-.945,1.468,1.468,0,0,1,.169-.9,2.306,2.306,0,0,0,.162-.347l.044-.1a2.724,2.724,0,0,0,.236-1.475,1.32,1.32,0,0,1,.575-1.3,1.946,1.946,0,0,0,.647-.621,3.626,3.626,0,0,0,.182-.318,1.009,1.009,0,0,1,.8-.593,1.6,1.6,0,0,0,.813-.308l.1-.07.152-.138a.913.913,0,0,1,.641-.275.891.891,0,0,1,.29.049,1.5,1.5,0,0,0,.524.1l.177-.01a1.988,1.988,0,0,0,.546-.152.851.851,0,0,1,.346-.074.876.876,0,0,1,.428.115,1.544,1.544,0,0,0,1.522.011.856.856,0,0,1,.744-.046,1.629,1.629,0,0,0,.333.1l.162.044a1.513,1.513,0,0,0,.551.1,1.5,1.5,0,0,0,.48-.079.85.85,0,0,1,.27-.044.813.813,0,0,1,.249.038,1.56,1.56,0,0,0,.454.07,1.525,1.525,0,0,0,.528-.1.845.845,0,0,1,.3-.052l.134.01a1.5,1.5,0,0,0,.226.018,1.568,1.568,0,0,0,.737-.19.862.862,0,0,1,.408-.1.792.792,0,0,1,.213.028c.087.021.169.039.249.051a.9.9,0,0,1,.429.177,1.622,1.622,0,0,0,.667.306l.084.021a1.549,1.549,0,0,0,.457.075.8.8,0,0,1,.269.047,1.6,1.6,0,0,0,.513.087l.452,0a1.555,1.555,0,0,0,.706-.174.893.893,0,0,1,.277-.087,1.592,1.592,0,0,0,.493-.152l.128-.052a1.569,1.569,0,0,0,.508-.292.9.9,0,0,1,.572-.213l.169.016a1.554,1.554,0,0,0,.3.033,2.856,2.856,0,0,1,.372.023c.057.007.12.015.223.02a.859.859,0,0,1,.411.125,1.532,1.532,0,0,0,1.552.036.877.877,0,0,1,.415-.106.86.86,0,0,1,.351.075,1.53,1.53,0,0,0,.628.136,1.555,1.555,0,0,0,.3-.031l.165-.016a.867.867,0,0,1,.32.062,1.559,1.559,0,0,0,.46.11l.165.028a1.518,1.518,0,0,0,.411.057,1.537,1.537,0,0,0,.492-.08.825.825,0,0,1,.272-.046.878.878,0,0,1,.457.131,1.578,1.578,0,0,0,.68.231,2.8,2.8,0,0,0,.431.03,1.97,1.97,0,0,0,1.175-.378.889.889,0,0,1,.523-.174l.092,0c.069.007.131.011.193.011a1.55,1.55,0,0,0,.532-.1.844.844,0,0,1,.295-.054.88.88,0,0,1,.477.143,1.576,1.576,0,0,0,.855.26l.19-.008.1,0a1.54,1.54,0,0,0,.2.013l.041,0a1.04,1.04,0,0,1,.711.285,1.832,1.832,0,0,0,.352.282,1.678,1.678,0,0,1,.236.179l.152.131a1.147,1.147,0,0,1,.265.324,2.066,2.066,0,0,0,.608.678,1.127,1.127,0,0,1,.225.21l.106.123a1.361,1.361,0,0,1,.349.885,2.66,2.66,0,0,0,.156.814,2.115,2.115,0,0,1,.069.218,2.634,2.634,0,0,0,.179.485,1.441,1.441,0,0,1,.146.6,2.878,2.878,0,0,0,.22,1.039,1.5,1.5,0,0,1,.056.975,2.659,2.659,0,0,0,.052,1.617,1.486,1.486,0,0,1,.018.95,2.652,2.652,0,0,0-.1.447l-.049.229a2.653,2.653,0,0,0-.111.729c0,.111-.008.28-.01.316a2.723,2.723,0,0,0,.129.95,1.483,1.483,0,0,1,.074.451c0,.138.011.5.011.5a2.658,2.658,0,0,0,.069.569,1.482,1.482,0,0,1-.1.967,2.633,2.633,0,0,0-.249,1.234,1.544,1.544,0,0,1-.029.369,3.15,3.15,0,0,0-.072.822l.02.246a3.726,3.726,0,0,1,.025.372,1.645,1.645,0,0,1-.034.336,2.729,2.729,0,0,0,.007,1.18,1.462,1.462,0,0,1,.039.337l0,.2a2.669,2.669,0,0,0,.229,1.226,1.406,1.406,0,0,1,.123.467l.028.211.056.321a1.525,1.525,0,0,1,.011.3c-.015.254-.031.514-.057.75a1.458,1.458,0,0,1-.128.456l-.046.093a3.051,3.051,0,0,0-.126.3,1.324,1.324,0,0,1-.252.418,2.289,2.289,0,0,0-.449.719,5.154,5.154,0,0,1-.632,1.147,2.563,2.563,0,0,1-.421.4l-.192.159-.17.17a2.547,2.547,0,0,1-.182.18,2.136,2.136,0,0,0-.542.7,1.2,1.2,0,0,1-.228.323,2.451,2.451,0,0,0-.665,1.7l-.02.231.052.223a2.284,2.284,0,0,0,.875,1.5,1.128,1.128,0,0,1,.242.241,1.677,1.677,0,0,0,1.358.734,1.529,1.529,0,0,0,.578-.115.858.858,0,0,1,.323-.064l.118.008.157.021c.169.021.275.036.38.057s.2.051.3.08a3.625,3.625,0,0,0,.439.116.952.952,0,0,1,.364.157,2.032,2.032,0,0,0,.193.085,1,1,0,0,1,.383.275,1.7,1.7,0,0,0,1.257.608,1.551,1.551,0,0,0,.588-.118.907.907,0,0,1,.233-.062,1.493,1.493,0,0,0,.369-.09.893.893,0,0,1,.319-.136l.008,0a1.623,1.623,0,0,0,.465-.172.863.863,0,0,1,.424-.113.807.807,0,0,1,.2.026,1.69,1.69,0,0,0,.4.049,1.659,1.659,0,0,0,.529-.087.827.827,0,0,1,.274-.046h.033a1.888,1.888,0,0,0,1.144-.36l.141-.09a2.351,2.351,0,0,0,1.16-1.819l.025-.159c.052-.242.092-.47.121-.708l.043-.213a2.925,2.925,0,0,0,.041-1.388,1.49,1.49,0,0,1-.02-.539,2.945,2.945,0,0,0-.077-1.211,1.5,1.5,0,0,1-.026-.729,2.7,2.7,0,0,0,.061-.513l.016-.2.018-.136a2.4,2.4,0,0,0,.038-.326,1.516,1.516,0,0,1,.069-.377,2.644,2.644,0,0,0,.066-1.384,1.493,1.493,0,0,1-.033-.295c0-.157-.011-.252-.018-.346a3.817,3.817,0,0,1-.021-.429c0-.229-.008-.347-.016-.462l-.011-.156a1.507,1.507,0,0,1,.1-.629,2.5,2.5,0,0,0,.167-.626,2.83,2.83,0,0,0-.17-1.443,1.5,1.5,0,0,1-.1-.444c-.007-.092-.018-.184-.033-.274a1.78,1.78,0,0,1-.039-.338,2.652,2.652,0,0,0-.087-.6,1.528,1.528,0,0,1-.015-.7,2.692,2.692,0,0,0,.026-1.017,1.48,1.48,0,0,1,.111-.86,2.576,2.576,0,0,0,.175-.526,3.015,3.015,0,0,0-.077-1.56l-.054-.2c-.02-.1-.044-.2-.074-.3a1.5,1.5,0,0,1,.052-.99,2.658,2.658,0,0,0,.088-1.774,1.5,1.5,0,0,1,.013-.893,2.661,2.661,0,0,0-.036-1.747,1.5,1.5,0,0,1-.007-1.024,2.746,2.746,0,0,0,.056-1.66,1.491,1.491,0,0,1,.039-.937,2.67,2.67,0,0,0,.008-1.863,1.5,1.5,0,0,1-.036-.906,2.574,2.574,0,0,0,.077-.4l.038-.2a2.767,2.767,0,0,0,.02-1.253,1.5,1.5,0,0,1,0-.632,2.764,2.764,0,0,0-.02-1.2,1.508,1.508,0,0,1-.041-.462l.007-.066a2.735,2.735,0,0,0-.141-1.171,1.488,1.488,0,0,1-.062-.759c.018-.1.031-.2.039-.3a1.445,1.445,0,0,1,.147-.524,2.6,2.6,0,0,0,.251-.806l.016-.1a2.64,2.64,0,0,0,.062-.559,1.624,1.624,0,0,1,.038-.323,2.741,2.741,0,0,0,.072-.636v-.549a2.7,2.7,0,0,0-.141-.859,1.386,1.386,0,0,1-.072-.341,2.746,2.746,0,0,0-.126-.6l-.044-.165a2.245,2.245,0,0,0-.236-.611,1.472,1.472,0,0,1-.162-.9,2.581,2.581,0,0,0,.025-.357c0-.229.011-.341.02-.449.007-.085.013-.167.016-.28a1.454,1.454,0,0,1,.1-.506,2.706,2.706,0,0,0,.025-1.919,1.488,1.488,0,0,1-.036-.918,2.729,2.729,0,0,0,.057-1.222,1.454,1.454,0,0,1-.02-.4,2.432,2.432,0,0,0-.775-2.02,1.149,1.149,0,0,1-.236-.279,1.751,1.751,0,0,0-1.471-.9,1.675,1.675,0,0,0-.313.031,1.64,1.64,0,0,0-.655.3.89.89,0,0,1-.533.182l-.093,0c-.067-.007-.129-.013-.192-.013a1.549,1.549,0,0,0-.57.111.815.815,0,0,1-.315.062.887.887,0,0,1-.434-.118,1.538,1.538,0,0,0-.775-.21,1.642,1.642,0,0,0-.254.021l-.075.01a1.962,1.962,0,0,0-.451.085.815.815,0,0,1-.264.043.861.861,0,0,1-.383-.09,1.551,1.551,0,0,0-.564-.157l-.175-.026c-.077-.015-.26-.039-.26-.039l-.108-.007a.86.86,0,0,1-.292-.061,1.538,1.538,0,0,0-.564-.108,1.5,1.5,0,0,0-.477.077l-.18.038a1.574,1.574,0,0,0-.406.093.883.883,0,0,1-.3.052.855.855,0,0,1-.4-.1,1.572,1.572,0,0,0-.718-.179,1.418,1.418,0,0,0-.2.015l-.079.008a1.55,1.55,0,0,0-.585.141.873.873,0,0,1-.356.077l-.1-.007-.172-.01a1.593,1.593,0,0,0-.782.213.86.86,0,0,1-.433.118.871.871,0,0,1-.364-.082,1.526,1.526,0,0,0-1.419.054.854.854,0,0,1-.793.03,1.618,1.618,0,0,0-.393-.126.849.849,0,0,1-.2-.061,1.522,1.522,0,0,0-.593-.133l-.424-.016a1.514,1.514,0,0,0-.664.161.85.85,0,0,1-.377.09c-.115,0-.451.015-.451.015a1.562,1.562,0,0,0-.473.085.839.839,0,0,1-.283.049.88.88,0,0,1-.514-.17,1.594,1.594,0,0,0-.929-.308l-.249.008a.876.876,0,0,1-.3-.056,1.326,1.326,0,0,0-.459-.077,2.751,2.751,0,0,0-.316.026,1.95,1.95,0,0,1-.375.033.848.848,0,0,1-.311-.059,1.287,1.287,0,0,0-.418-.062,1.508,1.508,0,0,0-.508.088.877.877,0,0,1-.282.048l-.308-.011a1.578,1.578,0,0,0-.9.287.888.888,0,0,1-.374.151,1.6,1.6,0,0,0-.334.092.82.82,0,0,1-.3.059c-.182,0-.639.011-.639.011a.868.868,0,0,1-.365-.08,1.637,1.637,0,0,0-.375-.121.882.882,0,0,1-.334-.134,1.587,1.587,0,0,0-.868-.267l-.354.007c-.19,0-.285.007-.374.011-.12.008-.208.015-.383.015a2.334,2.334,0,0,1-.349-.021,3.074,3.074,0,0,0-.4-.025,1.556,1.556,0,0,0-.469.075,1.848,1.848,0,0,0-.569.256.886.886,0,0,1-.488.151.856.856,0,0,1-.442-.123,1.766,1.766,0,0,0-.287-.136,1.8,1.8,0,0,0-.691-.147,1.62,1.62,0,0,0-.485.075.84.84,0,0,1-.26.041.869.869,0,0,1-.326-.064,1.54,1.54,0,0,0-.588-.12,1.6,1.6,0,0,0-1.039.395.9.9,0,0,1-.578.218l-.115-.007c-.116-.008-.206-.013-.356-.013a1.965,1.965,0,0,1-.344-.026,2.245,2.245,0,0,0-.4-.033c-.175,0-.272,0-.36.007l-.295.007a.852.852,0,0,1-.213-.026,1.476,1.476,0,0,0-.388-.052,1.55,1.55,0,0,0-.723.182.863.863,0,0,1-.4.1.807.807,0,0,1-.216-.028,1.581,1.581,0,0,0-.388-.051,1.485,1.485,0,0,0-.369.046.786.786,0,0,1-.2.025.88.88,0,0,1-.518-.172,1.7,1.7,0,0,0-.378-.2.9.9,0,0,1-.192-.1,1.576,1.576,0,0,0-.895-.282,1.481,1.481,0,0,0-.3.031l-.164.015-.17,0a.975.975,0,0,1-.791-.439c-.059-.085-.1-.151-.134-.2a1.451,1.451,0,0,1-.185-.883,2.689,2.689,0,0,0-.039-.811,1.288,1.288,0,0,1,.721-1.494l.136-.054a1.435,1.435,0,0,1,.323-.1,1.651,1.651,0,0,0,.547-.216.877.877,0,0,1,.457-.131.821.821,0,0,1,.236.033,1.521,1.521,0,0,0,.893-.013.818.818,0,0,1,.257-.039.849.849,0,0,1,.279.046,1.552,1.552,0,0,0,.5.085,1.517,1.517,0,0,0,.483-.079.847.847,0,0,1,.269-.044.868.868,0,0,1,.306.057,1.576,1.576,0,0,0,.428.1.866.866,0,0,1,.244.057,1.6,1.6,0,0,0,.388.1.873.873,0,0,1,.347.121,1.592,1.592,0,0,0,.649.22,1.626,1.626,0,0,0,.249.02,1.7,1.7,0,0,0,.875-.236l.131-.066a1.807,1.807,0,0,0,.421-.246.888.888,0,0,1,.549-.2.833.833,0,0,1,.2.025,1.6,1.6,0,0,0,.364.043,1.514,1.514,0,0,0,.393-.052.845.845,0,0,1,.221-.028.86.86,0,0,1,.444.125,1.561,1.561,0,0,0,.8.223,1.535,1.535,0,0,0,.745-.195.856.856,0,0,1,.749-.041,1.423,1.423,0,0,0,.241.079.859.859,0,0,1,.264.11,1.531,1.531,0,0,0,1.147.2l.18-.02a.888.888,0,0,1,.252.038,1.512,1.512,0,0,0,1.034-.044l.144-.043a1.7,1.7,0,0,0,.508-.2.885.885,0,0,1,.408-.129,1.828,1.828,0,0,0,.32-.048l.188-.021a1.008,1.008,0,0,1,.385.075,1.509,1.509,0,0,0,.859.118c.08-.01.129-.015.2-.018h.039a.85.85,0,0,1,.3.056,1.559,1.559,0,0,0,.549.1,1.51,1.51,0,0,0,.4-.056.861.861,0,0,1,.647.082,1.544,1.544,0,0,0,.759.2,1.631,1.631,0,0,0,.295-.028,2.4,2.4,0,0,0,.577-.141.87.87,0,0,1,.552-.034,2,2,0,0,0,.429.077.867.867,0,0,1,.334.089,1.528,1.528,0,0,0,.539.154.813.813,0,0,1,.2.046,1.355,1.355,0,0,0,.383.051,1.528,1.528,0,0,0,.6-.123,2.205,2.205,0,0,0,.7-.387.919.919,0,0,1,.429-.206l.121-.026a.873.873,0,0,1,.782.2,1.6,1.6,0,0,0,1.044.4,1.558,1.558,0,0,0,.618-.129.834.834,0,0,1,.342-.072l.107.007a1.566,1.566,0,0,0,.2.013,1.549,1.549,0,0,0,.821-.238.866.866,0,0,1,.459-.133l.187.021a1.651,1.651,0,0,0,.313.038,3.351,3.351,0,0,1,.4.025c.075.008.154.018.259.021a.876.876,0,0,1,.342.084,1.556,1.556,0,0,0,.67.157,1.6,1.6,0,0,0,.318-.034l.177-.02a.87.87,0,0,1,.439.121,1.57,1.57,0,0,0,.788.218l.121,0a1.8,1.8,0,0,0,.721-.224.867.867,0,0,1,.433-.118l.152,0c.143.008.241.013.434.013.17,0,.259.007.344.011.128.01.218.016.372.018a1.5,1.5,0,0,0,.464-.072.847.847,0,0,1,.254-.039.857.857,0,0,1,.357.079,1.571,1.571,0,0,0,.555.141l.231.039a1.674,1.674,0,0,0,.342.041l.1.007a1.447,1.447,0,0,0,.208.015,1.583,1.583,0,0,0,.944-.319.887.887,0,0,1,.528-.179.849.849,0,0,1,.211.026,1.4,1.4,0,0,0,.357.044,1.453,1.453,0,0,0,.3-.031l.172-.018a.882.882,0,0,1,.493.156,1.6,1.6,0,0,0,.893.283,1.555,1.555,0,0,0,.195-.013l.107-.007.17.016.182.048a3.077,3.077,0,0,0,.344.087,1.485,1.485,0,0,0,.256.021l.326-.01.111,0a1.6,1.6,0,0,0,.423-.056.844.844,0,0,1,.221-.03.9.9,0,0,1,.606.244,1.788,1.788,0,0,0,.4.274c.1.051.206.11.308.169a1.065,1.065,0,0,1,.347.328,1.9,1.9,0,0,0,.75.654,1.085,1.085,0,0,1,.475.459,2.049,2.049,0,0,0,.61.685,1.142,1.142,0,0,1,.321.351l.11.172a1.443,1.443,0,0,1,.228.806,2.649,2.649,0,0,0,.179,1.016l.075.218.036.157c.028.162.049.256.075.354a3.305,3.305,0,0,1,.1.455,1.477,1.477,0,0,1-.038.552l0,.023c-.01.085-.018.174-.02.26a1.519,1.519,0,0,1-.046.324,2.735,2.735,0,0,0,0,1.317,1.459,1.459,0,0,1,.036.513,2.725,2.725,0,0,0,.143,1.19,1.5,1.5,0,0,1,.067.747,2.729,2.729,0,0,0,.036,1.081,1.491,1.491,0,0,1-.008.736,2.745,2.745,0,0,0-.072,1.016,1.462,1.462,0,0,1-.139.826,2.6,2.6,0,0,0-.261,1.291,2.972,2.972,0,0,0,.125.731l.043.169a2.568,2.568,0,0,0,.208.627,1.485,1.485,0,0,1,.12.881c-.015.088-.026.172-.033.256a1.432,1.432,0,0,1-.092.4,2.715,2.715,0,0,0-.146,1.357,1.482,1.482,0,0,1-.007.473,2.683,2.683,0,0,0,.066,1.186,1.517,1.517,0,0,1,0,.829,2.726,2.726,0,0,0,.059,1.684,1.5,1.5,0,0,1-.028,1.1,2.642,2.642,0,0,0-.075,1.873,1.5,1.5,0,0,1,.034.816,2.68,2.68,0,0,0-.07.5l-.012.131a2.632,2.632,0,0,0,.161,1.278,1.488,1.488,0,0,1,.077.786,2.676,2.676,0,0,0-.034.326,1.456,1.456,0,0,1-.054.328,2.662,2.662,0,0,0,0,1.46,1.555,1.555,0,0,1,.049.26,2.636,2.636,0,0,0,.056.338,1.488,1.488,0,0,1-.079.914,2.677,2.677,0,0,0-.166.557,2.787,2.787,0,0,0,.069,1.457,1.453,1.453,0,0,1,.072.575l-.028.328a1.429,1.429,0,0,1-.174.6,2.652,2.652,0,0,0-.174,2.12,1.5,1.5,0,0,1,.077.375,2.633,2.633,0,0,0,.082.492,1.553,1.553,0,0,1,.048.313,2.317,2.317,0,0,0,.1.524,1.524,1.524,0,0,1,.046.65,2.717,2.717,0,0,0,.057,1.085,1.489,1.489,0,0,1-.088,1,2.438,2.438,0,0,0-.175.5l-.052.169a2.728,2.728,0,0,0-.169.962l0,.138c0,.111,0,.224,0,.449l-.015.213a2.726,2.726,0,0,0,.141,1.335,1.435,1.435,0,0,1,.084.352,2.609,2.609,0,0,0,.111.516,1.531,1.531,0,0,1,.056.246,2.607,2.607,0,0,0,.12.493,1.494,1.494,0,0,1,.025.9,2.678,2.678,0,0,0-.056,1.244,1.681,1.681,0,0,1,.026.272c0,.161,0,.257.007.351,0,.169.007.279.007.47,0,.159,0,.32-.01.477l-.011.4c0,.193-.018.354-.031.511a1.642,1.642,0,0,1-.2.677,2.62,2.62,0,0,0-.243,2.164,1.5,1.5,0,0,1,.07.437,2.87,2.87,0,0,0,.029.375,1.507,1.507,0,0,1-.054.678l-.116.336a2.523,2.523,0,0,0-.11.464,1.255,1.255,0,0,1-.552.9,2.134,2.134,0,0,0-.909,1.217,1.133,1.133,0,0,1-.664.749,1.786,1.786,0,0,0-.682.454l-.116.107a1.877,1.877,0,0,0-.364.4,1.109,1.109,0,0,1-.3.3,1.582,1.582,0,0,0-.208.157l-.12.108a.961.961,0,0,1-.339.2l-.336.1a.8.8,0,0,1-.241.034.847.847,0,0,1-.277-.046,1.479,1.479,0,0,0-.5-.085,1.528,1.528,0,0,0-.683.162.832.832,0,0,1-.195.067,1.9,1.9,0,0,0-.234.074A.832.832,0,0,1,195.107,287.107Zm-17.99-15.364a.88.88,0,0,1,.234.033,1.727,1.727,0,0,0,.236.051.89.89,0,0,1,.431.179,1.662,1.662,0,0,0,.672.3l.09.023a1.634,1.634,0,0,0,.477.077.854.854,0,0,1,.292.051,1.439,1.439,0,0,0,.475.08l.474,0a1.544,1.544,0,0,0,.7-.174.874.874,0,0,1,.283-.087,1.645,1.645,0,0,0,.488-.147l.124-.051a1.661,1.661,0,0,0,.591-.351.935.935,0,0,1,.467-.233,1.823,1.823,0,0,0,1.237-.893,2.644,2.644,0,0,0,.333-1.67,1.5,1.5,0,0,1,.074-.687,2.681,2.681,0,0,0,.126-1.288,1.512,1.512,0,0,1,.036-.606,2.606,2.606,0,0,0,.088-.567l.026-.213a2.718,2.718,0,0,0-.021-1.132,1.493,1.493,0,0,1,.07-.9,2.712,2.712,0,0,0,.188-.822l.007-.092c.01-.12.02-.239.02-.482a3.408,3.408,0,0,0-.033-.51,3.019,3.019,0,0,0-.275-.958,1.473,1.473,0,0,1-.138-.754,2.852,2.852,0,0,0-.085-.965,1.507,1.507,0,0,1,.046-.916,2.693,2.693,0,0,0,.156-1.285l-.008-.09a3.538,3.538,0,0,0-.077-.551,1.516,1.516,0,0,1-.008-.642,2.708,2.708,0,0,0-.161-1.606,2.368,2.368,0,0,0-.437-.726,1.718,1.718,0,0,0-1.3-.654,1.478,1.478,0,0,0-.519.093.849.849,0,0,1-.621-.013,1.575,1.575,0,0,0-.408-.1.89.89,0,0,1-.256-.072,1.532,1.532,0,0,0-.551-.133,1.548,1.548,0,0,1-.231-.034,1.634,1.634,0,0,0-.346-.046.872.872,0,0,1-.354-.08,1.575,1.575,0,0,0-.511-.141l-.162-.031a1.506,1.506,0,0,0-.441-.067,1.551,1.551,0,0,0-.537.1.822.822,0,0,1-.3.056.858.858,0,0,1-.336-.07,1.605,1.605,0,0,0-.577-.125l-.323-.012a1.564,1.564,0,0,0-.713.18.883.883,0,0,1-.377.1,2.223,2.223,0,0,0-.267.023,2.352,2.352,0,0,1-.372.026c-.154,0-.241,0-.32-.007-.108-.008-.275-.013-.306-.015a1.534,1.534,0,0,0-.56.113.867.867,0,0,1-.32.062l-.161-.016a1.485,1.485,0,0,0-.283-.026,1.543,1.543,0,0,0-.695.167.87.87,0,0,1-.385.092.86.86,0,0,1-.324-.064,1.535,1.535,0,0,0-.585-.118l-.528.008a.788.788,0,0,1-.231-.033,1.98,1.98,0,0,0-.413-.079.879.879,0,0,1-.367-.113,1.618,1.618,0,0,0-.56-.193l-.162-.039a1.337,1.337,0,0,0-.408-.059,1.519,1.519,0,0,0-.613.129l-.1.036a1.717,1.717,0,0,0-.562.29.908.908,0,0,1-.449.185l-.192.036a1.136,1.136,0,0,1-.315.052h-.061a1.214,1.214,0,0,1-.315-.036,1.546,1.546,0,0,0-.352-.043,1.514,1.514,0,0,0-.4.054.834.834,0,0,1-.22.03.884.884,0,0,1-.493-.154,1.584,1.584,0,0,0-.886-.279,1.552,1.552,0,0,0-.836.247.865.865,0,0,1-.426.136c-.08,0-.139.013-.2.02a2.594,2.594,0,0,1-.336.016,2,2,0,0,1-.339-.021,3.267,3.267,0,0,0-.383-.026.85.85,0,0,1-.3-.057,1.684,1.684,0,0,0-.288-.082.92.92,0,0,1-.431-.208,1.612,1.612,0,0,0-1.047-.4,1.529,1.529,0,0,0-.721.182.832.832,0,0,1-.213.079,1.908,1.908,0,0,0-1.23,1.057l-.11.184a2.548,2.548,0,0,0-.452,1.35,1.507,1.507,0,0,1-.07.385,2.711,2.711,0,0,0-.1,1.28,1.488,1.488,0,0,1-.048.685,2.677,2.677,0,0,0-.064,1.327l.028.225a2.7,2.7,0,0,0,.072.5,1.427,1.427,0,0,1,.043.364l0,.775a1.385,1.385,0,0,1-.036.32,2.776,2.776,0,0,0,.038,1.337,1.494,1.494,0,0,1,.036.649,2.725,2.725,0,0,0,.082,1.222,1.5,1.5,0,0,1,.029.762,2.6,2.6,0,0,0-.057.508,2.012,2.012,0,0,1-.036.36,2.557,2.557,0,0,0-.034.323,1.475,1.475,0,0,1-.074.4,2.664,2.664,0,0,0-.067,1.439,1.526,1.526,0,0,1,.038.313c0,.174.011.274.02.377a4.112,4.112,0,0,1,.018.433c0,.241.01.364.018.485s.016.211.016.406a2.43,2.43,0,0,0,.777,1.822,1.618,1.618,0,0,0,1.058.41,1.532,1.532,0,0,0,.546-.1.848.848,0,0,1,.3-.056.861.861,0,0,1,.264.041,1.506,1.506,0,0,0,.477.079,1.535,1.535,0,0,0,.372-.047.851.851,0,0,1,.709.136,1.627,1.627,0,0,0,.455.221,1.547,1.547,0,0,0,.534.1,1.588,1.588,0,0,0,.741-.188l.172-.07a2.347,2.347,0,0,0,.259-.093.846.846,0,0,1,.342-.072.887.887,0,0,1,.467.136,1.573,1.573,0,0,0,.844.251,1.536,1.536,0,0,0,.634-.138.846.846,0,0,1,.354-.077.865.865,0,0,1,.383.09,1.542,1.542,0,0,0,1.453-.041.863.863,0,0,1,.428-.115.877.877,0,0,1,.423.111,1.53,1.53,0,0,0,1.376.066.835.835,0,0,1,.342-.072.876.876,0,0,1,.436.118,1.539,1.539,0,0,0,1.548.011.858.858,0,0,1,.75-.049,1.5,1.5,0,0,0,.336.1l.172.048a1.518,1.518,0,0,0,1.024.021.857.857,0,0,1,.27-.044.833.833,0,0,1,.26.041,1.492,1.492,0,0,0,.459.072,1.549,1.549,0,0,0,.536-.1.849.849,0,0,1,.3-.054l.1,0a1.858,1.858,0,0,0,.275.025,1.585,1.585,0,0,0,.742-.192A.864.864,0,0,1,177.117,271.744Zm-6.057-32.2-.167-.016a1.636,1.636,0,0,0-.3-.033,2.641,2.641,0,0,1-.375-.023c-.069-.008-.136-.016-.226-.02a.884.884,0,0,1-.416-.129,1.571,1.571,0,0,0-.814-.233,1.534,1.534,0,0,0-.752.2.855.855,0,0,1-.77.034,1.52,1.52,0,0,0-.631-.138,1.451,1.451,0,0,0-.3.031l-.172.018a.858.858,0,0,1-.318-.062,1.518,1.518,0,0,0-.46-.11l-.167-.029a1.495,1.495,0,0,0-.914.023.834.834,0,0,1-.274.046.866.866,0,0,1-.459-.133,1.587,1.587,0,0,0-.641-.228l-.077-.008a2.875,2.875,0,0,0-.4-.026,1.871,1.871,0,0,0-.413.041,1.8,1.8,0,0,0-.762.329.889.889,0,0,1-.536.185l-.093,0-.18-.01a1.54,1.54,0,0,0-.573.113.854.854,0,0,1-.316.061.867.867,0,0,1-.429-.116,1.587,1.587,0,0,0-.78-.213,1.5,1.5,0,0,0-.269.025l-.1.011a1.625,1.625,0,0,0-.4.077.805.805,0,0,1-.269.046.857.857,0,0,1-.383-.092,1.51,1.51,0,0,0-.567-.159l-.175-.026c-.082-.016-.259-.039-.259-.039l-.11-.007a.86.86,0,0,1-.292-.062,1.559,1.559,0,0,0-.564-.108,1.511,1.511,0,0,0-.475.077l-.188.039a1.544,1.544,0,0,0-.393.092.852.852,0,0,1-.706-.046,1.561,1.561,0,0,0-.721-.18,1.352,1.352,0,0,0-.213.016l-.09.008a1.524,1.524,0,0,0-.524.138.848.848,0,0,1-.36.08l-.151-.013c-.123-.02-.2-.029-.3-.036l-.126,0a1.367,1.367,0,0,0-.306.038l-.188.021a.9.9,0,0,1-.593-.233,1.312,1.312,0,0,1-.416-.836,2.507,2.507,0,0,0-.226-.795,1.489,1.489,0,0,1-.1-.319l-.036-.157a1.437,1.437,0,0,1,.261-1.248,1.261,1.261,0,0,1,.434-.356l.324-.143a.8.8,0,0,1,.251-.072l.357-.011h.015a.8.8,0,0,1,.347.082,1.615,1.615,0,0,0,.5.136l.164.031a1.426,1.426,0,0,0,.433.066,1.566,1.566,0,0,0,.537-.1.847.847,0,0,1,.636.016,1.519,1.519,0,0,0,.577.125l.321.011a1.554,1.554,0,0,0,.711-.182.883.883,0,0,1,.377-.1c.116,0,.19-.013.262-.021a2.243,2.243,0,0,1,.375-.028c.151,0,.236,0,.313.008l.3.011a1.512,1.512,0,0,0,.559-.113.849.849,0,0,1,.318-.061l.157.015a1.489,1.489,0,0,0,.277.025,1.531,1.531,0,0,0,.693-.167.862.862,0,0,1,.709-.026,1.568,1.568,0,0,0,.587.118c.138,0,.342-.008.5-.008a.847.847,0,0,1,.221.029,2.343,2.343,0,0,0,.436.084.873.873,0,0,1,.369.115,1.563,1.563,0,0,0,.537.19l.125.031a1.585,1.585,0,0,0,.46.07,1.557,1.557,0,0,0,.6-.121l.077-.03a2.047,2.047,0,0,0,.6-.313.9.9,0,0,1,.441-.182,1.668,1.668,0,0,0,.22-.039,1.137,1.137,0,0,1,.349-.049,1.25,1.25,0,0,1,.311.036,1.506,1.506,0,0,0,.749-.013.866.866,0,0,1,.706.123,1.541,1.541,0,0,0,1.714.033.884.884,0,0,1,.416-.134,1.964,1.964,0,0,0,.206-.02,2.4,2.4,0,0,1,.334-.018,2.252,2.252,0,0,1,.342.021,2.744,2.744,0,0,0,.377.028.853.853,0,0,1,.3.059,1.578,1.578,0,0,0,.282.082.915.915,0,0,1,.421.206,1.61,1.61,0,0,0,1.047.4,1.55,1.55,0,0,0,.714-.175.806.806,0,0,1,.215-.079,1.586,1.586,0,0,0,.5-.2.9.9,0,0,1,.223-.1,1.57,1.57,0,0,0,.365-.159.881.881,0,0,1,.449-.128.818.818,0,0,1,.285.051,1.55,1.55,0,0,0,.511.09,1.574,1.574,0,0,0,.367-.046.776.776,0,0,1,.2-.025.875.875,0,0,1,.326.064,1.5,1.5,0,0,0,.947.079l.192-.023a.873.873,0,0,1,.359.08,1.524,1.524,0,0,0,1.078.082l.174-.033a1.518,1.518,0,0,0,.415-.092.849.849,0,0,1,.3-.054l.616.01a.82.82,0,0,1,.251.041,1.494,1.494,0,0,0,.475.077,1.54,1.54,0,0,0,.6-.123.852.852,0,0,1,.333-.069l.192.021a1.443,1.443,0,0,0,.344.041,1.545,1.545,0,0,0,.636-.139.857.857,0,0,1,.352-.075.846.846,0,0,1,.277.046,1.4,1.4,0,0,0,.4.067h0a.993.993,0,0,1,.318.054,2.252,2.252,0,0,0,.234.036.847.847,0,0,1,.311.084,1.51,1.51,0,0,0,1.162.084.8.8,0,0,1,.249-.044,2.354,2.354,0,0,0,.267-.02,2.509,2.509,0,0,1,.38-.026,3.048,3.048,0,0,0,.408-.025l.175-.013a.862.862,0,0,1,.454.131,1.958,1.958,0,0,0,.908.254,1.523,1.523,0,0,0,.824-.249.879.879,0,0,1,.377-.134,1.73,1.73,0,0,0,.2-.038,1.106,1.106,0,0,1,.313-.054l.064,0c.075,0,.157,0,.242-.013l.141-.008a.967.967,0,0,1,.811.492l.116.18.126.174a1.534,1.534,0,0,1,.285,1.278l-.033.147a1.405,1.405,0,0,1-.128.372,2.521,2.521,0,0,0-.259.842,1.308,1.308,0,0,1-.428.834.9.9,0,0,1-.58.22.825.825,0,0,1-.21-.026,1.529,1.529,0,0,0-.375-.048,1.57,1.57,0,0,0-.772.206.855.855,0,0,1-.79.034,1.54,1.54,0,0,0-1.422.056.878.878,0,0,1-.426.113.868.868,0,0,1-.421-.11,1.533,1.533,0,0,0-1.371-.066.861.861,0,0,1-.342.07.884.884,0,0,1-.433-.116,1.54,1.54,0,0,0-1.532-.011.855.855,0,0,1-.423.111.845.845,0,0,1-.326-.066,1.683,1.683,0,0,0-.331-.1l-.167-.044a1.514,1.514,0,0,0-.551-.1,1.551,1.551,0,0,0-.485.08.83.83,0,0,1-.267.044.813.813,0,0,1-.257-.041,1.5,1.5,0,0,0-.457-.07,1.564,1.564,0,0,0-.537.1.847.847,0,0,1-.3.054l-.125-.01a1.861,1.861,0,0,0-.239-.018,1.569,1.569,0,0,0-.739.19.858.858,0,0,1-.411.1.9.9,0,0,1-.218-.028,1.787,1.787,0,0,0-.244-.049.9.9,0,0,1-.433-.182,1.657,1.657,0,0,0-.673-.31l-.089-.023a1.591,1.591,0,0,0-.451-.074.816.816,0,0,1-.257-.044,1.653,1.653,0,0,0-.528-.09l-.459,0a1.572,1.572,0,0,0-.706.174.9.9,0,0,1-.285.09,1.481,1.481,0,0,0-.49.152l-.141.056a1.561,1.561,0,0,0-.506.29A.9.9,0,0,1,171.06,239.547Z" transform="translate(-88.845 -219.437)" fill="#363636"/>
          </g>
          <g id="グループ_119" data-name="グループ 119" transform="translate(0 77.06)">
            <path id="パス_580" data-name="パス 580" d="M113.172,279.1c0,2.73-1.8,3.655-.069,5.505,1.868,2.01,2.574-.034,5.125-.034s2.677.953,5.125.12c.716-.244.691-1.638,0-1.946-1.879-.811-2.025-.034-4.027-.034s-2.687,1.873-3.932.051c-1.565-2.277-1.471-3.352-.01-5.721,1.054-1.707,1.745-.052,3.546-.052s1.937.8,3.6,0a1.032,1.032,0,0,0,.025-1.788c-1.668-.806-1.825-.046-3.624-.046s-2.581,1.833-3.688.177c-1.417-2.118-1.4-3.392.1-5.436,1.275-1.742,1.951-.08,3.918-.08s2.091.862,3.929.051a.884.884,0,0,0-.02-1.622c-2.408-.832-2.485-.016-5-.016s-3.257-2.164-5.091-.161c-1.722,1.874-.413,2.628.157,5.535C113.746,276.269,113.172,276.361,113.172,279.1Z" transform="translate(-111.067 -267.212)" fill="#363636"/>
            <path id="パス_581" data-name="パス 581" d="M132.132,272.693l-.074.3.054.023Z" transform="translate(-98.396 -263.712)" fill="#363636"/>
            <path id="パス_582" data-name="パス 582" d="M129.765,284.732c.039,0,.057,0,.093,0a.907.907,0,0,0,1.638.092c.1,0,.187.008.324.008l.274-.292c0-.552,0-.94-.008-1.314a6.023,6.023,0,0,0-.043-2.236c-.008-.474-.016-1.019-.018-1.84,0-2.69.025-2.69-.044-5.386a3.077,3.077,0,0,0-.247-.972c0-.229-.013-.452-.028-.739.046-.015.049-.064.134-.049a.707.707,0,0,1,.319.162c.129.22.241.411.357.6a3.121,3.121,0,0,0,.352,1.2l.088-.034c1.466,1.833,1.4,1.914,2.864,3.747s1.457,1.845,2.923,3.683,1.5,1.783,2.967,3.616l.167.09a3.081,3.081,0,0,0,.4-.025c.259.157.483.172.624-.041.054,0,.067-.008.136-.008l.295-.2c0-2.78-.128-2.78-.128-5.567s.049-2.782.049-5.562c0-1.188.01-1.845.021-2.451a4.645,4.645,0,0,0,.029-2.366c0-.249,0-.426,0-.734l-.27-.223h-.052a1.1,1.1,0,0,0-1.986.056h-.021l-.108.167c0,.041,0,.057,0,.1a4.76,4.76,0,0,0-.123,3.252c-.028.508-.051,1.083-.051,2.012,0,2.684.01,2.684.087,5.367a2.876,2.876,0,0,0,.262.941c.044.208.09.416.131.682-.034.047-.067.1-.2.069a.845.845,0,0,1-.41-.208c-.111-.21-.216-.406-.326-.6a2.627,2.627,0,0,0-.421-.981c-1.407-1.9-1.319-1.987-2.8-3.814s-1.579-1.714-3.056-3.541-1.368-1.937-2.835-3.759l-.211.115-.089,0c-.393-.3-.808-.377-.995.02l-.08,0-.18.092c0,.447,0,.736,0,1.062a9.6,9.6,0,0,0-.029,2.394c-.008.531-.015,1.132-.015,2.107,0,2.787-.015,2.787-.015,5.567,0,.844,0,1.4-.01,1.891a6.178,6.178,0,0,0-.031,2.707c0,.3,0,.552,0,.954Z" transform="translate(-100.131 -267.158)" fill="#363636"/>
            <path id="パス_583" data-name="パス 583" d="M152.476,280.949c0-2.135.015-2.135.015-4.271s-.21-2.141-.21-4.278c0-.415.008-.7.018-.985a4.873,4.873,0,0,0,.128-2.705c0-.192.01-.329.01-.57l-.249-.246c-.061,0-.088,0-.143,0-.536-.749-1.309-.672-1.838.141-.074,0-.12.008-.206.008l-.133.092c0,.251,0,.4,0,.6a3.381,3.381,0,0,0-.025,2.428c0,.3,0,.632,0,1.093,0,2.061.039,2.061.039,4.117s-.138,2.056-.138,4.106a4.427,4.427,0,0,1-.182,1.828c-.2.388-.716.474-1.378.474a4.472,4.472,0,0,1-1.575-.147l-.074.056-.028.031,0,0-.008.013-.015.015c-.011.044-.016.047-.028.087a2.276,2.276,0,0,0-.316.977,4.789,4.789,0,0,0-.175.547l.093.308.534.218.637.108.644.115.549-.218a4.006,4.006,0,0,0,3.011-.855A4.416,4.416,0,0,0,152.476,280.949Zm-2.618-9.7c.067.292.136.587.192,1v.015C149.98,271.906,149.913,271.561,149.857,271.249Z" transform="translate(-89.522 -267.104)" fill="#363636"/>
            <path id="パス_584" data-name="パス 584" d="M172.6,269.91a6.551,6.551,0,0,0-2.466-1.7,8.646,8.646,0,0,0-3.424-.765,7.207,7.207,0,0,0-5.64,2.408c-1.334,1.5-1.981,3.6-1.981,6.385a13.11,13.11,0,0,0,.357,3.559,7.69,7.69,0,0,0,1.4,2.8,6.548,6.548,0,0,0,2.477,1.684,8.533,8.533,0,0,0,3.383.685,7.3,7.3,0,0,0,5.71-2.307,9.326,9.326,0,0,0,2.05-6.419,12.9,12.9,0,0,0-.457-3.552A7.515,7.515,0,0,0,172.6,269.91Zm-2.128,11.325a4.593,4.593,0,0,1-3.762,1.457,4.839,4.839,0,0,1-2.291-.354,4.739,4.739,0,0,1-1.588-1.445,6.6,6.6,0,0,1-.824-2.135,10.475,10.475,0,0,1-.251-2.52c0-2.227.359-3.934,1.24-4.991a4.591,4.591,0,0,1,3.713-1.53,4.69,4.69,0,0,1,2.3.469,4.75,4.75,0,0,1,1.555,1.461,6.144,6.144,0,0,1,.913,2.084,10.347,10.347,0,0,1,.283,2.507C171.758,278.466,171.361,280.178,170.468,281.235Z" transform="translate(-81.141 -267.063)" fill="#363636"/>
            <path id="パス_585" data-name="パス 585" d="M185.561,268.166c-1.52,1.234-1.09,1.707-2.128,3.495s-1.193,1.674-2.133,3.524a8.468,8.468,0,0,0-.462,1.507l-.084.069c-.239-.708.029-.857-.308-1.507-.981-1.873-1.09-1.8-2.168-3.593s-.647-2.33-2.222-3.529c-1.075-.816-2.708-1.507-2.561-.028.3,3.026,1.609,2.422,3.134,4.894s2.222,2.1,3,5c.824,3.118-1.237,3.511-.044,6.539a1.2,1.2,0,0,0,2.315.033c1.019-3.049-.977-3.483-.152-6.613.76-2.9,1.6-2.422,3.11-4.894s2.628-1.96,3.056-4.951C188.1,266.785,186.511,267.4,185.561,268.166Z" transform="translate(-71.947 -267.196)" fill="#363636"/>
            <path id="パス_586" data-name="パス 586" d="M121.106,290.816a14.24,14.24,0,0,0-2.192-1.119c-.736-.3-1.486-.5-2.168-.834a6.322,6.322,0,0,1-1.565-1.142,1.665,1.665,0,0,1-.632-1.291c0-.547.329-.919.859-1.342a3.816,3.816,0,0,1,2.443-.868,12.8,12.8,0,0,1,2.618.356,7.787,7.787,0,0,1,1.707.616l.239-.262c.334-.863.349-.857.682-1.725l-.029-.138-.057-.142a7.865,7.865,0,0,0-2.086-.691,19.153,19.153,0,0,0-2.972-.159,7.207,7.207,0,0,0-4.365,1.257,3.8,3.8,0,0,0-1.573,3.221,4.084,4.084,0,0,0,.608,2.461,6.254,6.254,0,0,0,1.715,1.576,12.4,12.4,0,0,0,2.227.949,22.846,22.846,0,0,1,2.158.821,6.273,6.273,0,0,1,1.584,1.126,1.788,1.788,0,0,1,.511,1.417l-.133,1.153-.868.782a4.06,4.06,0,0,1-1.3.32,7.558,7.558,0,0,1-1.594.206,10.912,10.912,0,0,1-2.625-.251,8.658,8.658,0,0,1-1.76-.56l-.226.115c-.126.293-.167.433-.226.6a2.034,2.034,0,0,0-.465,1.2l-.108.116.177.018a8.723,8.723,0,0,0,2,.736,16.28,16.28,0,0,0,3.316.337,10.075,10.075,0,0,0,2.707-.3,6.224,6.224,0,0,0,2.055-1.022,4.447,4.447,0,0,0,1.324-1.558,4.615,4.615,0,0,0,.295-2.056,3.711,3.711,0,0,0-.608-2.318A6.512,6.512,0,0,0,121.106,290.816Zm.472,7.191a2.83,2.83,0,0,1-.38.188c.11-.077.265-.121.37-.2.048-.036.066-.085.111-.121C121.635,297.912,121.624,297.971,121.578,298.007Z" transform="translate(-111.513 -257.724)" fill="#363636"/>
            <path id="パス_587" data-name="パス 587" d="M135.73,283.568c0-.265.008-.465.008-.8l-.21-.279c-.1,0-.152.007-.236.008a.993.993,0,0,0-1.84.136c-.046,0-.067,0-.116,0l-.265.131a9.468,9.468,0,0,0,.07,1.157,4.252,4.252,0,0,0,.029.76,23.66,23.66,0,0,0,.341,4.148c.013-.028.036-.062.047-.09l-.01.126-.028.092-.01-.128a6.246,6.246,0,0,1-.421.822,2.513,2.513,0,0,1-.165.215l-1,.226c-.495.021-.891.051-1.342.075l.1.043h-.126l-.077-.036.1-.007a4.241,4.241,0,0,0-1.676-.385,4.169,4.169,0,0,0-1.679.395l.075,0-.049.023-.08,0,.054-.023c-.595-.025-1.126-.054-1.928-.069l-.1,0-.319-.062a2.563,2.563,0,0,1-.246-.316,6.906,6.906,0,0,1-.331-.642l0,.062-.026-.121c.008.018.021.039.03.059.092-1.712.357-2.615.331-3.808a4.445,4.445,0,0,0-.069-2.551c-.011-.043-.048-.056-.062-.1l-.025-.054-.011,0a1.1,1.1,0,0,0-2.056.07c-.046,0-.07,0-.12,0l-.27.113c0,.447,0,.736.008,1.06a4.8,4.8,0,0,0,.043,2.169c.015.56.028,1.181.028,2.248,0,2.741-.034,2.741-.034,5.482,0,.88.008,1.445.02,1.942a5.04,5.04,0,0,0,.056,3.093c0,.159,0,.249,0,.431l.147.292c.069,0,.1,0,.164-.007.478.718,1.26.609,1.814-.139.075,0,.121-.008.21-.008l.249-.138c0-.254-.026-.465-.043-.691a2.483,2.483,0,0,0-.015-1.491c.144-1.607-.2-2.505-.28-4.7l-.044.09.041-.156,0,.066c.077-.157.126-.3.224-.467a2.625,2.625,0,0,1,.36-.48h-.029l.066-.049c-.011.011-.025.036-.036.049.883,0,1.447,0,1.992-.006-.038-.018-.074-.033-.11-.051l.133.015c.028.013.057.023.085.036h-.108a4.371,4.371,0,0,0,1.945.544,4.181,4.181,0,0,0,1.827-.487l-.072,0,.051-.02.069,0-.048.021c.6.044,1.178.092,2.153.1l-.011-.015.141.008.018.01c-.056,0-.1,0-.147,0a2.8,2.8,0,0,1,.267.359c.057.1.084.18.134.275l.074.442a9.305,9.305,0,0,0-.385,4.286,2.55,2.55,0,0,0,.265,2.118c0,.069-.01.121-.01.193l.108.269c.088,0,.136-.007.213-.008a.975.975,0,0,0,1.771-.144c.074,0,.12-.008.208-.008l.2-.108c0-.456,0-.752,0-1.081a5.131,5.131,0,0,0,.01-2.287c0-.531.007-1.129.007-2.114,0-2.449-.093-2.805-.115-4.788,0-.234.007-.4.007-.69C135.64,285.851,136.215,285.283,135.73,283.568Zm-11.748,9.793-.011-.036.038-.066C124,293.293,123.99,293.328,123.982,293.36Z" transform="translate(-104.909 -257.832)" fill="#363636"/>
            <path id="パス_588" data-name="パス 588" d="M147.276,296.394c-.17-.429-.36-.906-.7-1.712-.878-2.091-.952-2.045-1.835-4.135s-.9-2.066-1.779-4.152c-.585-1.393-.824-1.856-1.176-2.62-.057-.147-.133-.316-.216-.483-.126-.285-.257-.582-.437-1.008l-.074-.087h-1l-.261-.016c-.873,2.084-.873,2.091-1.745,4.175s-.824,2.118-1.7,4.209-.854,2.1-1.727,4.175c-.193.46-.331.793-.455,1.1a4.183,4.183,0,0,0-.986,2.407c-.09.216-.161.388-.279.672l-.025.234.185.12.223,0c.28.791,1.135.626,1.832-.031l.133,0,.231-.1a4.965,4.965,0,0,0,.149-.514,3.357,3.357,0,0,0,.5-1.712c.115-.406.216-.852.362-1.391a2.6,2.6,0,0,0-.3.678,2.436,2.436,0,0,1,.474-1.2c-.056.174-.131.367-.17.518a3.571,3.571,0,0,1,.714-.844,1.561,1.561,0,0,1,1.465-.514l0,0a8.123,8.123,0,0,0,1.62.362,1.931,1.931,0,0,0,.364,0,5.873,5.873,0,0,0,1.46-.3h0l.395-.046.354.034.31.111a1.97,1.97,0,0,1,.58.346,3.986,3.986,0,0,1,.308.349l-.021-.126.169.162.079.313a3.215,3.215,0,0,0-.226-.349,5.243,5.243,0,0,0,1,2.736,3.48,3.48,0,0,0,.41.844c.057.17.072.3.151.485l.128.17.269,0c.721.683,1.622.849,1.927.01h.129l.093-.182.113-.188c-.1-.231-.151-.364-.228-.549A2.85,2.85,0,0,0,147.276,296.394Zm-9.074-6.646c.057-.061.1-.113.159-.175a3.2,3.2,0,0,0-.177.328Zm5.1,2.664c-.066-.159-.115-.269-.174-.406a2.791,2.791,0,0,1-.243.523,4.029,4.029,0,0,1-.437.49h.048l-.118.067c.023-.026.048-.039.07-.067-1.635,0-2.256-.008-3.895-.01.046.057.1.084.143.136l-.338-.136h.195a4.289,4.289,0,0,1-.431-.48,2.877,2.877,0,0,1-.2-.519l-.015.034.01-.074c.007.015,0,.025,0,.039.67-1.548.988-2.033,1.612-3.695.12-.138.236-.264.356-.418.552-.719.377-1.132.369-1.789.061-.049.1-.116.229-.118.064,0,.072.038.12.047.11.46.169.75.333,1.252a1.846,1.846,0,0,0,.087.557,5.042,5.042,0,0,0,.973,1.584c-.041-.1-.08-.19-.125-.3.051.066.1.11.152.17l.264.452c-.1-.106-.19-.2-.292-.323.344.829.634,1.425,1.124,2.576.013-.033,0-.056.015-.087l.165.465C143.3,292.395,143.307,292.4,143.3,292.413Zm-.6-5.869a10.858,10.858,0,0,1-.378-1.052c.113.3.238.626.423,1.068.262.619.426,1.034.565,1.4C143.153,287.6,142.971,287.177,142.7,286.544Z" transform="translate(-97.873 -257.655)" fill="#363636"/>
            <path id="パス_589" data-name="パス 589" d="M155.2,295.672a27.068,27.068,0,0,0-2.276-3.272c-.519-.606-1.2-.011-1.235-.868a5.886,5.886,0,0,0,3.034-1.507,4.458,4.458,0,0,0,1.237-3.2,4.385,4.385,0,0,0-.539-2.164,4.023,4.023,0,0,0-1.457-1.244,5.688,5.688,0,0,0-1.894-.767,10.975,10.975,0,0,0-2.291-.251c-.721,0-1.52-.085-2.389-.028s-1.691.159-2.363.269c-.324,2.684-.029,2.7.1,5.43.121,2.708.044,2.72.044,5.426s-.986,2.918,0,5.363c.465,1.154,1.447,1.073,2.064.023.9-1.532-.02-1.833-.02-3.69s-1.05-2.371.02-3.759c.868-1.124,1.56-.5,2.653.326,1.663,1.262,1.28,1.794,2.551,3.57s.745,2.507,2.451,3.688c1.1.765,2.536,1.383,2.659-.108C157.721,296.814,156.343,297.294,155.2,295.672Zm-5.866-5.62c-1.031,0-1.6,1.206-1.986.087-.957-2.81-.251-2.993-.187-6.02l.593-.188.647-.023.721.092.711.044a4.075,4.075,0,0,1,2.717.767,2.576,2.576,0,0,1,.947,2.077,2.635,2.635,0,0,1-1.2,2.394A5.106,5.106,0,0,1,149.331,290.053Z" transform="translate(-90.306 -257.549)" fill="#363636"/>
            <path id="パス_590" data-name="パス 590" d="M147.262,290.2l.059-.177-.059.017Z" transform="translate(-88.689 -252.648)" fill="#363636"/>
            <path id="パス_591" data-name="パス 591" d="M158.8,285.9a4.664,4.664,0,0,0,0-2.361v-.788l-.313-.3-.1,0a1.053,1.053,0,0,0-1.883.116c-.075,0-.12.007-.206.007l-.133.177c0,.265,0,.411,0,.629-.542,1.611-.324,2.31-.059,4.012,0,.274,0,.483,0,.836,0,2.741-.029,2.741-.029,5.482,0,1.163,0,1.809-.01,2.4a4.344,4.344,0,0,0-.013,2.3c0,.254,0,.439,0,.759l.256.138.038,0a1.123,1.123,0,0,0,2.019.152c.049,0,.075,0,.131,0l.239-.3c0-.261,0-.4,0-.621a4.93,4.93,0,0,0-.041-2.816c-.01-.518-.02-1.1-.02-2.045,0-2.741.133-2.741.133-5.477C158.8,287.106,158.8,286.475,158.8,285.9Z" transform="translate(-83.217 -257.82)" fill="#363636"/>
            <path id="パス_592" data-name="パス 592" d="M175.364,283.356c0-.211,0-.349,0-.6l-.152-.12h-.087a1.087,1.087,0,0,0-2.058.051l-.057.069v.128a4.638,4.638,0,0,0-.048,3.233c-.011.506-.021,1.08-.021,2,0,2.685-.01,2.685.074,5.363a2.116,2.116,0,0,0,.123.6c.048.388.115.619.175,1.006-.044.021-.056.067-.151.047a.776.776,0,0,1-.321-.164c-.167-.308-.272-.544-.459-.859a2.106,2.106,0,0,0-.349-.76c-1.412-1.9-1.511-1.788-2.982-3.621s-1.339-1.976-2.815-3.8-1.447-1.85-2.918-3.672l-.221-.121a1.266,1.266,0,0,0-.436.074.371.371,0,0,0-.393.066,1.11,1.11,0,0,1-.333.056l-.251.172c0,2.78.015,2.78.015,5.563s-.039,2.787-.039,5.567c0,1.093.011,1.725.025,2.3a5.134,5.134,0,0,0,.039,2.453c0,.265,0,.465,0,.8l.206.188c.054,0,.079,0,.126,0a.89.89,0,0,0,1.619.075c.1,0,.182.007.315.007l.27-.274c0-.536-.008-.909-.015-1.275a11.231,11.231,0,0,0-.093-3.311c0-.265-.01-.465-.01-.8,0-2.69.123-2.7.054-5.386a2.661,2.661,0,0,0-.328-1.026c-.018-.157-.038-.324-.057-.5a.176.176,0,0,1,.174-.046.85.85,0,0,1,.447.2c.09.234.177.462.3.713a2.581,2.581,0,0,0,.313.867l.02.034c1.466,1.832,1.491,1.81,2.957,3.642s1.447,1.863,2.913,3.7c.8,1.006,1.191,1.45,1.614,1.938a7.5,7.5,0,0,0,.941,1.124c.143.174.252.3.433.529l.123.218c.22,0,.323-.008.439-.013a.535.535,0,0,0,.4-.013c.1,0,.159-.008.318-.008l.295-.315c0-.637-.01-1.1-.023-1.516a10.131,10.131,0,0,0-.1-2.076c-.023-.5-.041-1.081-.041-1.978,0-2.78-.049-2.78-.049-5.562,0-.88.008-1.452.016-1.95A5.384,5.384,0,0,0,175.364,283.356Z" transform="translate(-79.561 -257.821)" fill="#363636"/>
            <path id="パス_593" data-name="パス 593" d="M186.879,291.122v-.3l-.147-.257c-.128,0-.221,0-.339,0-1.863-1.906-2.862-.51-5.415.093l-.446,0-.18.161c0,.087,0,.108,0,.172a.412.412,0,0,0,.015.56c0,.1.01.185.01.369l.131.269a4.07,4.07,0,0,0,1.807-.231c-.1-.013-.2-.02-.315-.039l.357.031c-.015,0-.028,0-.043.008.439.054.886.079,1.432.115l.385.033a2.011,2.011,0,0,1,.565.415,1.808,1.808,0,0,1,.3.528l.059.973c-.011.365-.023.708-.034,1.032l-.067.369a8.423,8.423,0,0,0-.365,1.383,6.285,6.285,0,0,1-2.638.462,7,7,0,0,1-2.384-.462,4.723,4.723,0,0,1-1.865-1.114,5.43,5.43,0,0,1-1.122-2.027,8.186,8.186,0,0,1-.583-2.867,8.1,8.1,0,0,1,.514-3.129,5.763,5.763,0,0,1,1.432-1.976,5.034,5.034,0,0,1,1.892-1.132,7.134,7.134,0,0,1,2.163-.223,9.188,9.188,0,0,1,3.542.487l.18.069.128-.183c.28-.868.246-.885.524-1.753l.044-.234-.185-.1a11.591,11.591,0,0,0-1.791-.29,18.407,18.407,0,0,0-2.628-.144,9.916,9.916,0,0,0-3.031.269,7.025,7.025,0,0,0-4.635,4.381,9.453,9.453,0,0,0-.829,3.963,11.142,11.142,0,0,0,.6,3.895,8.865,8.865,0,0,0,4.389,4.38,10.319,10.319,0,0,0,3.321.388,13.609,13.609,0,0,0,1.422-.062,13.156,13.156,0,0,0,1.442-.115,9.884,9.884,0,0,0,1.25-.593l1.114-.372.044-.274c0-.749,0-1.319,0-1.822C187.423,294.1,188.336,293.008,186.879,291.122Zm-10.624-6.773c.008-.007.02-.01.028-.016l-.023.016c-.018.016-.031.039-.051.056C176.228,284.39,176.238,284.366,176.256,284.349Z" transform="translate(-72.048 -257.654)" fill="#363636"/>
          </g>
        </g>
        <path id="パス_594" data-name="パス 594" d="M163.574,240.366a1.133,1.133,0,0,1-.447-.092,2.037,2.037,0,0,0-1.393-.079,1.13,1.13,0,0,1-.329.049l-.351,0c-.193,0-.344,0-.493-.016-.175-.01-.347-.031-.518-.052l-.449-.049c-.2-.021-.364-.052-.529-.085l-.1-.018a1.286,1.286,0,0,1-.654-.359,2.193,2.193,0,0,0-1.561-.678,2.057,2.057,0,0,0-.893.2,1.183,1.183,0,0,1-.41.111,2.251,2.251,0,0,0-.465.087,1.088,1.088,0,0,1-.331.049,1.153,1.153,0,0,1-.41-.075l-.126-.051a2.415,2.415,0,0,0-.857-.161,1.437,1.437,0,0,1-1.037-.469,2.269,2.269,0,0,0-1.719-.85l-.265.018-.141.008a1.221,1.221,0,0,1-.832-.344,2.272,2.272,0,0,0-1.211-.6,2.374,2.374,0,0,0-.349-.026,2.3,2.3,0,0,0-.57.07,1.134,1.134,0,0,1-.3.039l-.162-.01a2.065,2.065,0,0,0-.292-.023l-.241.015-.136.008a1.186,1.186,0,0,1-.385-.064l-.4-.141a1.393,1.393,0,0,1-.646-.48,2.445,2.445,0,0,0-1.252-.9,1.337,1.337,0,0,1-.61-.4,2.166,2.166,0,0,1-.521-1.368,2.077,2.077,0,0,1,.329-1.142,3.531,3.531,0,0,0,.544-1.368,2,2,0,0,1,.152-.495,1.421,1.421,0,0,1,1.244-.906,1.14,1.14,0,0,1,.606.179,2.325,2.325,0,0,0,1.2.364l.265-.008a2.8,2.8,0,0,0,.7-.077,1.134,1.134,0,0,1,.277-.034,1.183,1.183,0,0,1,.626.185l.154.1a1.5,1.5,0,0,1,.524.542,2.414,2.414,0,0,0,2.033,1.293l.239-.015.129-.007a1.134,1.134,0,0,1,.3.039,3.46,3.46,0,0,0,.41.088c.154.025.272.048.388.077a2.085,2.085,0,0,0,.477.056L153,232.5l.123-.007a1.16,1.16,0,0,1,.541.136,2.334,2.334,0,0,0,1.073.272l.221-.013.11,0a1.213,1.213,0,0,1,.8.316,2.193,2.193,0,0,0,1.447.572,2.053,2.053,0,0,0,.665-.111,1.131,1.131,0,0,1,.372-.064,1.172,1.172,0,0,1,.613.177,2.092,2.092,0,0,0,1.1.315h.143a1.14,1.14,0,0,1,.434.087,2.034,2.034,0,0,0,.785.157,2,2,0,0,0,.634-.1,1.143,1.143,0,0,1,.834.051,2.068,2.068,0,0,0,.872.2,2.03,2.03,0,0,0,.732-.138l.249-.066c.188-.026.369-.064.546-.1l.339-.07.228-.023.256.011a2.192,2.192,0,0,0,1.383-.528,1.249,1.249,0,0,1,.614-.28,2.34,2.34,0,0,0,1.461-.847,1.4,1.4,0,0,1,.395-.331,3.323,3.323,0,0,0,1.478-3.126l0-.331a3.911,3.911,0,0,0,0-.65l-.02-.215a2.227,2.227,0,0,1,.013-.455,4.11,4.11,0,0,0-.287-2.163l-.082-.215-.044-.143c-.056-.193-.115-.4-.206-.639a1.916,1.916,0,0,1-.106-.38,3.681,3.681,0,0,0-.97-1.933,1.679,1.679,0,0,1-.3-.4,3.706,3.706,0,0,0-.51-.75,2.429,2.429,0,0,0-1.606-.854,1.149,1.149,0,0,1-.483-.146l-.22-.107-.126-.052a2.49,2.49,0,0,0-.4-.166l-.167-.067a2.029,2.029,0,0,0-1.353-.156,1.384,1.384,0,0,1-.292.031,1.09,1.09,0,0,1-.279-.033,2.045,2.045,0,0,0-1.375.125,1.121,1.121,0,0,1-.482.108,1.177,1.177,0,0,1-.552-.141,2.171,2.171,0,0,0-.557-.21,2.7,2.7,0,0,0-.786-.128,2.249,2.249,0,0,0-.768.134,1.107,1.107,0,0,1-.4.074,1.179,1.179,0,0,1-.395-.069,2.053,2.053,0,0,0-.714-.131l-.2.012-.47.057-.057,0a1.131,1.131,0,0,1-.4-.074,2.072,2.072,0,0,0-.729-.136,2.023,2.023,0,0,0-.624.1,1.121,1.121,0,0,1-.351.056,1.157,1.157,0,0,1-.5-.116,2.077,2.077,0,0,0-.9-.21,2.042,2.042,0,0,0-.532.072l-.215.036a2.122,2.122,0,0,0-.588.128,1.137,1.137,0,0,1-.4.074c-.244,0-.367.007-.48.016-.151.01-.261.018-.434.018h-.008a1.134,1.134,0,0,1-.4-.072,2.02,2.02,0,0,0-1.409-.015,1.15,1.15,0,0,1-.346.064,2.011,2.011,0,0,0-.531.088,1.153,1.153,0,0,1-.87-.084,2.073,2.073,0,0,0-.8-.229l-.187-.028a2.727,2.727,0,0,0-.621-.067,1.45,1.45,0,0,1-.434-.056,2.112,2.112,0,0,0-.5-.075l-.223,0a2.168,2.168,0,0,0-1.417.57,1.211,1.211,0,0,1-.8.313,1.127,1.127,0,0,1-.275-.033,2,2,0,0,0-1.224.075,1.178,1.178,0,0,1-.41.075l-.578-.038a1.19,1.19,0,0,1-.644-.228,2.206,2.206,0,0,0-.628-.313l-.231-.1a2.105,2.105,0,0,0-1.026-.274,2.156,2.156,0,0,0-1.347.487,1.2,1.2,0,0,1-.75.274l-.216-.021a2.035,2.035,0,0,0-.4-.039,2.074,2.074,0,0,0-.693.123,1.124,1.124,0,0,1-.387.067,1.153,1.153,0,0,1-.49-.11,2.022,2.022,0,0,0-1.378-.139l-.246.034-.319.026-.306.057-.185.015a1.1,1.1,0,0,1-.419-.082,2.065,2.065,0,0,0-.757-.147,2.123,2.123,0,0,0-.613.093,1.091,1.091,0,0,1-.337.052,1.165,1.165,0,0,1-.6-.167,2.185,2.185,0,0,0-.636-.252l-.229-.077a2.12,2.12,0,0,0-.783-.195,1.428,1.428,0,0,1-.619-.157,2.277,2.277,0,0,0-.408-.149,1.765,1.765,0,0,1-1.109-1.966,3.877,3.877,0,0,0,0-.914,1.778,1.778,0,0,1,1.065-1.966,2.365,2.365,0,0,0,.632-.293,1.152,1.152,0,0,1,1.248-.034,2.193,2.193,0,0,0,.547.233l.162.057a1.981,1.981,0,0,0,.752.152l.68.016a2.058,2.058,0,0,0,.88-.208,1.2,1.2,0,0,1,.28-.1,2.207,2.207,0,0,0,.546-.19,1.169,1.169,0,0,1,.523-.126,1.149,1.149,0,0,1,.495.113,2.088,2.088,0,0,0,.895.206,2.056,2.056,0,0,0,.446-.051l.215-.029a2.062,2.062,0,0,0,.6-.108,1.226,1.226,0,0,1,.3-.059c.09,0,.165,0,.228,0a2.7,2.7,0,0,1,.362.021,4.046,4.046,0,0,0,.541.034c.233,0,.357.008.474.016s.249.023.48.025a1.09,1.09,0,0,1,.282.036,2.006,2.006,0,0,0,.5.064,2.078,2.078,0,0,0,.947-.233,1.171,1.171,0,0,1,.524-.126l.18.015a2.142,2.142,0,0,0,.341.028,2.072,2.072,0,0,0,.929-.221,1.142,1.142,0,0,1,.518-.125,1.122,1.122,0,0,1,.416.079,2.005,2.005,0,0,0,1.08.116l.175-.013a1.208,1.208,0,0,1,.754.275,2.279,2.279,0,0,0,.691.385,2.551,2.551,0,0,0,.967.2,1.994,1.994,0,0,0,.619-.1,1.149,1.149,0,0,1,.3-.056,2.116,2.116,0,0,0,.626-.126,1.148,1.148,0,0,1,.285-.067,2.066,2.066,0,0,0,.726-.213,1.142,1.142,0,0,1,.518-.125l.146.01.177.031a1.93,1.93,0,0,0,.224.039l.242.026a1.2,1.2,0,0,1,.334.072,2.02,2.02,0,0,0,.736.141,2.05,2.05,0,0,0,.832-.179,1.143,1.143,0,0,1,.462-.1l.408.015a2.042,2.042,0,0,0,.868-.216,1.142,1.142,0,0,1,1.011,0,2.054,2.054,0,0,0,.9.211,2.18,2.18,0,0,0,1.468-.59,3.467,3.467,0,0,0,1.052-2.636,2.013,2.013,0,0,1,.41-1.281,1.961,1.961,0,0,1,.526-.467,2.32,2.32,0,0,0,.385-.247l.21-.136a2.537,2.537,0,0,0,.806-.668,1.277,1.277,0,0,1,.983-.5l.167.011a2.044,2.044,0,0,0,.316.026,2.093,2.093,0,0,0,.863-.192,1.134,1.134,0,0,1,.465-.1,2.257,2.257,0,0,0,1.358-.508l.241-.156a2.464,2.464,0,0,0,.659-.482l.229-.188a3.372,3.372,0,0,0,1.334-3.028,3.117,3.117,0,0,0-1.632-2.717l-.19-.107a2.3,2.3,0,0,0-1.293-.418,2.017,2.017,0,0,0-.475.059l-.165.028a2.875,2.875,0,0,0-.485.092,1.137,1.137,0,0,1-.313.044,1.189,1.189,0,0,1-.667-.211,2.166,2.166,0,0,0-.588-.283l-.221-.1a2.082,2.082,0,0,0-.986-.252,1.988,1.988,0,0,0-.537.074,1.18,1.18,0,0,1-.3.039l-.187-.01a2.206,2.206,0,0,0-1.2.436,1.194,1.194,0,0,1-.713.244,1.159,1.159,0,0,1-.519-.125,2.133,2.133,0,0,0-.569-.19l-.159-.041a2.084,2.084,0,0,0-.565-.113l-.259-.044a2.028,2.028,0,0,0-.58-.085,2.108,2.108,0,0,0-1,.257,1.156,1.156,0,0,1-.341.125,1.834,1.834,0,0,0-.38.111,1.153,1.153,0,0,1-.423.08,1.166,1.166,0,0,1-.531-.131,2.02,2.02,0,0,0-1.416-.179l-.259.031c-.221,0-.341.007-.46.013s-.231.01-.478.01a3.066,3.066,0,0,0-.5.036l-.22.026a2.166,2.166,0,0,0-.859.282,1.147,1.147,0,0,1-.918.111,2.049,2.049,0,0,0-.6-.092c-.213,0-.331.008-.449.018-.1.007-.19.013-.341.013h-.011a1.139,1.139,0,0,1-.347-.054,2.091,2.091,0,0,0-.639-.1,2.064,2.064,0,0,0-.688.121,1.152,1.152,0,0,1-.942-.084,2.073,2.073,0,0,0-1.013-.265,2.147,2.147,0,0,0-.27.018l-.146.008a1.149,1.149,0,0,1-.441-.087,2.031,2.031,0,0,0-.786-.159,2.054,2.054,0,0,0-.665.111,1.139,1.139,0,0,1-.369.062l-.239-.01a2.385,2.385,0,0,0-1.3.4,1.2,1.2,0,0,1-.655.2,1.091,1.091,0,0,1-.315-.046,2.107,2.107,0,0,0-.279-.061,1.222,1.222,0,0,1-.467-.17,2.107,2.107,0,0,0-1.114-.333,1.286,1.286,0,0,1-1-.539,3.076,3.076,0,0,0-.315-.351,2.021,2.021,0,0,1-.493-1.919,3.923,3.923,0,0,0,.1-.657l.036-.277a4.153,4.153,0,0,0,.074-.668,1.955,1.955,0,0,1,.487-1.263,1.249,1.249,0,0,1,.913-.424l.157.011a2.038,2.038,0,0,0,.283.02,2.132,2.132,0,0,0,.937-.226,1.154,1.154,0,0,1,.388-.116,2.3,2.3,0,0,0,.282-.052,1.093,1.093,0,0,1,.28-.034,1.2,1.2,0,0,1,.668.211,2.143,2.143,0,0,0,1.208.388,2.049,2.049,0,0,0,.908-.211,1.148,1.148,0,0,1,1.067.028,2.079,2.079,0,0,0,1,.262,2.261,2.261,0,0,0,.315-.025l.172-.015.1,0a3.248,3.248,0,0,0,.41-.023c.131-.01.249-.016.459-.016a3.254,3.254,0,0,1,.47.029l.172.021.2.01a2.044,2.044,0,0,0,.732-.136,1.146,1.146,0,0,1,.41-.075,1.124,1.124,0,0,1,.328.048,2,2,0,0,0,1.144.01,1.121,1.121,0,0,1,.311-.043,1.212,1.212,0,0,1,.777.293,2.261,2.261,0,0,0,.924.474,2.134,2.134,0,0,0,.5.062,2.03,2.03,0,0,0,.8-.165l.17-.057a2.1,2.1,0,0,0,.752-.406,1.267,1.267,0,0,1,.564-.265,1.869,1.869,0,0,0,.411-.12,1.112,1.112,0,0,1,.434-.088,3.271,3.271,0,0,0,.462-.03l.149-.01a1.2,1.2,0,0,1,.664.208,2.14,2.14,0,0,0,1.2.383,2.093,2.093,0,0,0,.377-.034l.12-.018a2.445,2.445,0,0,0,.632-.134,1.11,1.11,0,0,1,.346-.075,1.846,1.846,0,0,0,.583-.146,1.161,1.161,0,0,1,.441-.087,1.138,1.138,0,0,1,.472.1,2.139,2.139,0,0,0,.511.156,1.174,1.174,0,0,1,.3.1,2.077,2.077,0,0,0,.881.2,2.035,2.035,0,0,0,.623-.1,1.083,1.083,0,0,1,.321-.056,2.044,2.044,0,0,0,.372-.046c.09-.021.157-.036.226-.049l.192-.015a1.117,1.117,0,0,1,.392.07,2.025,2.025,0,0,0,1.416-.01,1.192,1.192,0,0,1,.4-.07,1.136,1.136,0,0,1,.406.075,2.032,2.032,0,0,0,1.3.052,1.135,1.135,0,0,1,.313-.043c.187,0,.3,0,.4.01.159.011.265.016.439.02a2.1,2.1,0,0,0,.793-.154,1.129,1.129,0,0,1,.431-.085l.211.011.188-.011c.088-.01.306-.021.323-.021a1.162,1.162,0,0,1,.552.141,2.122,2.122,0,0,0,1,.259,2.04,2.04,0,0,0,.357-.033l.2-.018a1.1,1.1,0,0,1,.437.088,2.071,2.071,0,0,0,.782.156,2.167,2.167,0,0,0,1.3-.454,1.2,1.2,0,0,1,.718-.247,1.165,1.165,0,0,1,.57.151,2.044,2.044,0,0,0,2,.026,1.167,1.167,0,0,1,.542-.136l.179.013a2,2,0,0,0,.331.028,2.087,2.087,0,0,0,.791-.159,1.14,1.14,0,0,1,.437-.088,1.172,1.172,0,0,1,.621.182,2.127,2.127,0,0,0,1.117.328,2.082,2.082,0,0,0,.9-.208,1.146,1.146,0,0,1,1.006,0,2.051,2.051,0,0,0,.9.213,2.025,2.025,0,0,0,.48-.059l.211-.028a2.286,2.286,0,0,0,.378-.051,2.036,2.036,0,0,1,.562-.079c.223,0,.352-.01.467-.018a4.846,4.846,0,0,1,.549-.028c.218,0,.344,0,.455-.01l.339-.012a1.151,1.151,0,0,1,.482.107,2.1,2.1,0,0,0,.87.195,2.061,2.061,0,0,0,.695-.121,1.084,1.084,0,0,1,.365-.069l.567-.013.152.01a2.913,2.913,0,0,0,.408.034l.452-.018a1.111,1.111,0,0,1,.334.051l.129.039a1.524,1.524,0,0,1,.939.976,2.8,2.8,0,0,0,1.566,1.719,1.552,1.552,0,0,1,.872.955l.072.193a6.384,6.384,0,0,1,.331,1.137,5.471,5.471,0,0,1,.069.608,2.124,2.124,0,0,1-.162.958,3.869,3.869,0,0,0-.293,1.689,2.062,2.062,0,0,1-.29,1.18c-.077.125-.172.267-.288.429s-.187.285-.257.408a1.565,1.565,0,0,1-1.022.788,2.335,2.335,0,0,0-.764.247,2.921,2.921,0,0,1-.759.349,2.2,2.2,0,0,0-.585.226l-.156.075-.1.039-.161.051-.224.062-.131.044-.21.087a1.789,1.789,0,0,1-.288.108,2.352,2.352,0,0,0-.642.292,1.178,1.178,0,0,1-.65.2l-.139-.008a2.173,2.173,0,0,0-.275-.018,2.441,2.441,0,0,0-1.1.262,1.172,1.172,0,0,1-.529.128l-.236-.023a2.023,2.023,0,0,0-.437-.048,2.12,2.12,0,0,0-1.05.287,1.172,1.172,0,0,1-.336.131l-.657.146a2.25,2.25,0,0,0-.811.369,1.243,1.243,0,0,1-.451.2c-.092.02-.695.134-.695.134l-.233.023a1.093,1.093,0,0,1-.272-.033,2,2,0,0,0-.475-.057,2.154,2.154,0,0,0-1.15.347,1.194,1.194,0,0,1-.277.133,3.07,3.07,0,0,0-1.881,2.812,3.311,3.311,0,0,0,1.6,3.185,2.332,2.332,0,0,0,1.081.3c.157,0,.537-.013.752-.013l.241.023v0l.211.041a2,2,0,0,0,.575.087,2.283,2.283,0,0,1,.459.039,2.844,2.844,0,0,0,.572.056,2.519,2.519,0,0,0,.6-.062l.141-.021a2.216,2.216,0,0,0,1.039-.464,1.3,1.3,0,0,1,.259-.159,2.278,2.278,0,0,0,.38-.226,1.2,1.2,0,0,1,.7-.234,1.159,1.159,0,0,1,.6.17,2.06,2.06,0,0,0,2,.087,1.145,1.145,0,0,1,.51-.12,1.122,1.122,0,0,1,.336.051,2.043,2.043,0,0,0,1.326-.039,1.153,1.153,0,0,1,.4-.07,1.078,1.078,0,0,1,.313.044,2.1,2.1,0,0,0,.567.08,2.029,2.029,0,0,0,.842-.182,1.163,1.163,0,0,1,.473-.1c.018,0,.249.016.342.026a1.457,1.457,0,0,1,.836.379,2.243,2.243,0,0,0,1.565.683,2.078,2.078,0,0,0,.8-.159,2.742,2.742,0,0,0,.919-.547,1.224,1.224,0,0,1,.819-.329,1.189,1.189,0,0,1,.359.057l.192.056a1.219,1.219,0,0,1,.413.175,2.121,2.121,0,0,0,1.173.37,1.312,1.312,0,0,1,1.076.637l.084.118a2.446,2.446,0,0,1,.328.593,3.212,3.212,0,0,0,.447.8,2.063,2.063,0,0,1,.372,1.486,3.047,3.047,0,0,1-.067.374,5.265,5.265,0,0,1-.308.8,1.491,1.491,0,0,1-.8.775l-.406.159a1.808,1.808,0,0,1-.369.124,2.825,2.825,0,0,1-.3.03l-.057,0a1.21,1.21,0,0,1-.772-.29,2.255,2.255,0,0,0-.883-.46l-.134-.041a2,2,0,0,0-.647-.107,2.066,2.066,0,0,0-.536.072l-.146.029a2.473,2.473,0,0,0-.949.31,1.176,1.176,0,0,1-.449.156,2.184,2.184,0,0,0-.369.084,1.14,1.14,0,0,1-.995-.143,2.079,2.079,0,0,0-2.314,0,1.2,1.2,0,0,1-.511.188,2.085,2.085,0,0,0-.383.085,1.073,1.073,0,0,1-.3.054s-.891.038-1.029.041a2.049,2.049,0,0,0-.626.1,1.128,1.128,0,0,1-.359.059,1.166,1.166,0,0,1-.619-.182,2.275,2.275,0,0,0-.519-.238l-.216-.092a2.1,2.1,0,0,0-1-.257,2.15,2.15,0,0,0-1.245.411,1.194,1.194,0,0,1-.69.228,1.16,1.16,0,0,1-.6-.17,2.321,2.321,0,0,0-.388-.182,2.291,2.291,0,0,0-.939-.218,2.065,2.065,0,0,0-.834.175,1.126,1.126,0,0,1-.306.087,2.333,2.333,0,0,0-.542.152,1.121,1.121,0,0,1-.447.092l-.364-.011a2.391,2.391,0,0,0-1.966,1.25,3.81,3.81,0,0,0-.364,2.972,3.3,3.3,0,0,1,.093.451l.052.321a2.112,2.112,0,0,1,.033.529,4.235,4.235,0,0,0,.369,2.017,2.021,2.021,0,0,1,.149.444l.048.2a2.161,2.161,0,0,1-.115,1.44,3.611,3.611,0,0,0-.216.6l-.069.213a3.9,3.9,0,0,0-.223,1.84,1.865,1.865,0,0,1-.831,1.871,2.638,2.638,0,0,0-.872.78,3.572,3.572,0,0,0-.618,1.25,1.867,1.867,0,0,1-.275.595l-.143.224c-.115.2-.177.3-.239.393l-.184.218a2.375,2.375,0,0,0-.29.39,1.427,1.427,0,0,1-.727.611,2.382,2.382,0,0,0-.973.66,1.256,1.256,0,0,1-.924.436l-.26-.029a1.86,1.86,0,0,0-.449-.052l-.277-.023a2.125,2.125,0,0,0-.455-.052,2.094,2.094,0,0,0-.593.087c-.208.066-.41.125-.623.175l-.265.033h0a2.391,2.391,0,0,0-1.488.514,1.242,1.242,0,0,1-.4.221,2.248,2.248,0,0,0-.452.21l-.113.062a1.3,1.3,0,0,1-.269.11,1.847,1.847,0,0,0-.464.206A1.188,1.188,0,0,1,163.574,240.366Zm-23.746-54.58a1.178,1.178,0,0,1-.672-.216,2.11,2.11,0,0,0-1.206-.383,2.029,2.029,0,0,0-.328.028l-.187.015-.274-.008-.447.023a1.18,1.18,0,0,1-.618-.18l-.2-.134a1.87,1.87,0,0,1-.621-.708,2.842,2.842,0,0,0-.968-1.168l-.2-.165-.169-.154a1.928,1.928,0,0,1-.626-1.6l.008-.261.007-.2a4.228,4.228,0,0,0-.349-2.068l-.1-.247a3.761,3.761,0,0,0-.247-.591,2.1,2.1,0,0,1-.216-1.257l.023-.221a2.043,2.043,0,0,1,.27-.882,3.681,3.681,0,0,0,.5-1.955,3.959,3.959,0,0,0-.188-1.15,2.157,2.157,0,0,1-.1-.616c0-.157-.015-.311-.026-.465a5.241,5.241,0,0,1-.03-.577,3.887,3.887,0,0,0-.041-.649,2.132,2.132,0,0,1,.134-1.126,3.731,3.731,0,0,0,.256-1,1.774,1.774,0,0,1,.775-1.325,2.788,2.788,0,0,0,.942-.988,2.743,2.743,0,0,0,.2-.352,1.389,1.389,0,0,1,1.134-.857,2.068,2.068,0,0,0,.678-.164,2.146,2.146,0,0,1,.646-.139l.069,0a2.665,2.665,0,0,0,.3.018,2.523,2.523,0,0,0,1-.2,1.153,1.153,0,0,1,.462-.1,1.137,1.137,0,0,1,.459.1,2.056,2.056,0,0,0,.829.177,2.109,2.109,0,0,0,.542-.074,1.026,1.026,0,0,1,.29-.041,4.22,4.22,0,0,0,.441-.026c.11-.008.216-.015.4-.016h.008a1.078,1.078,0,0,1,.323.048,2.153,2.153,0,0,0,.6.09,2.022,2.022,0,0,0,.754-.146,1.122,1.122,0,0,1,.423-.082,1.174,1.174,0,0,1,.38.066,2.04,2.04,0,0,0,.675.118,2.077,2.077,0,0,0,.516-.067,1.089,1.089,0,0,1,.279-.034,1.164,1.164,0,0,1,.537.133,2.089,2.089,0,0,0,.972.244,2.168,2.168,0,0,0,1.342-.485,1.23,1.23,0,0,1,.572-.254,2.222,2.222,0,0,0,.285-.062,1.086,1.086,0,0,1,.329-.049,1.138,1.138,0,0,1,.421.08,1.982,1.982,0,0,0,.75.149,2.07,2.07,0,0,0,.745-.143,1.143,1.143,0,0,1,.416-.079l.244.016c.129.015.208.023.316.026a1.165,1.165,0,0,1,.523.152,2.091,2.091,0,0,0,1.029.28,2.062,2.062,0,0,0,.5-.066,1.143,1.143,0,0,1,.277-.034,1.171,1.171,0,0,1,.426.082,1.779,1.779,0,0,0,.585.11c.208.018.3.026.387.026a2.11,2.11,0,0,0,1.245-.413,1.2,1.2,0,0,1,.555-.221,2.186,2.186,0,0,0,.336-.072l.018,0a1.13,1.13,0,0,1,.806.044,2.034,2.034,0,0,0,1.267.125l.149-.026.126-.007a1.113,1.113,0,0,1,.283.036,2.036,2.036,0,0,0,.511.067,2.082,2.082,0,0,0,.863-.192,1.144,1.144,0,0,1,.477-.1,1.166,1.166,0,0,1,.551.141,2.176,2.176,0,0,0,.595.215l.166.046a1.929,1.929,0,0,0,.583.088,2.017,2.017,0,0,0,.75-.144,1.19,1.19,0,0,1,.416-.077,1.162,1.162,0,0,1,.393.069,2.047,2.047,0,0,0,.709.128l.215-.011.444-.056.064,0a1.146,1.146,0,0,1,.4.074,2.031,2.031,0,0,0,.723.134,2.065,2.065,0,0,0,.626-.1,1.15,1.15,0,0,1,.841.061,2.079,2.079,0,0,0,.9.208,2.009,2.009,0,0,0,.518-.069l.22-.036a2.024,2.024,0,0,0,.6-.133,1.153,1.153,0,0,1,.41-.075l.169,0c.1,0,.179-.007.251-.01.188-.013.3-.02.47-.021h.008a1.193,1.193,0,0,1,.4.07,2.017,2.017,0,0,0,1.4.015,1.171,1.171,0,0,1,.342-.064,2.035,2.035,0,0,0,.536-.089,1.122,1.122,0,0,1,.326-.048,1.169,1.169,0,0,1,.537.133,2.067,2.067,0,0,0,.8.229l.2.03a2.706,2.706,0,0,0,.606.064,1.476,1.476,0,0,1,.434.056,2.121,2.121,0,0,0,.541.077l.108,0a2.319,2.319,0,0,0,1.484-.577,1.214,1.214,0,0,1,.786-.3,1.127,1.127,0,0,1,.275.033,2.023,2.023,0,0,0,1.234-.072,1.148,1.148,0,0,1,.4-.074l.069,0c.111.007.434.038.483.043a1.256,1.256,0,0,1,.649.285,2.435,2.435,0,0,0,.506.331,1.367,1.367,0,0,1,.337.233,2.22,2.22,0,0,0,1.507.628,2,2,0,0,0,.536-.074,1.178,1.178,0,0,1,.3-.039,1.246,1.246,0,0,1,.911.423,2.585,2.585,0,0,0,.588.472,1.7,1.7,0,0,1,.77,1.14,3.521,3.521,0,0,0,.487,1.188,1.929,1.929,0,0,1,.233.518l.1.331a2.18,2.18,0,0,1,.067,1.013,3.925,3.925,0,0,0,.064,1.622,2.163,2.163,0,0,1-.054,1.245,3.859,3.859,0,0,0-.193.857,2.07,2.07,0,0,1-.092.428,3.236,3.236,0,0,0-.115.9l0,.821a3.882,3.882,0,0,0,.2,1.255,2.052,2.052,0,0,1,.089.375,3.827,3.827,0,0,0,.143.619,2.166,2.166,0,0,1-.015,1.352,3.937,3.937,0,0,0-.2,1.565,2.157,2.157,0,0,1-.044.634,1.742,1.742,0,0,1-.672,1.072,2.741,2.741,0,0,0-.759.813,1.334,1.334,0,0,1-1.065.673,2.093,2.093,0,0,0-.4.054l-.252.033a2.123,2.123,0,0,0-.649.116,6.233,6.233,0,0,1-.668.184,2.209,2.209,0,0,0-.744.329,1.263,1.263,0,0,1-.269.138,2.947,2.947,0,0,0-.544.269,1.159,1.159,0,0,1-.636.192l-.231-.025a2.415,2.415,0,0,0-.485-.052,2.21,2.21,0,0,0-.808.151,1.165,1.165,0,0,1-.413.077,1.126,1.126,0,0,1-.418-.08,2.081,2.081,0,0,0-.595-.138l-.115-.013a1.848,1.848,0,0,0-.349-.033,2.1,2.1,0,0,0-1.083.306,1.152,1.152,0,0,1-.6.17l-.256-.028a2.379,2.379,0,0,0-.4-.066,1.2,1.2,0,0,1-.365-.09,2.026,2.026,0,0,0-.795-.161,2.068,2.068,0,0,0-.8.164l-.229.07a2.8,2.8,0,0,0-.419.115,1.148,1.148,0,0,1-.382.066,1.189,1.189,0,0,1-.66-.206,2.225,2.225,0,0,0-2.227-.154,1.156,1.156,0,0,1-.518.123l-.147-.01-.144-.021-.17-.026a1.243,1.243,0,0,1-.677-.295,2.181,2.181,0,0,0-1.417-.547,2.062,2.062,0,0,0-.955.238,1.219,1.219,0,0,1-.4.125,2.1,2.1,0,0,0-.544.141,1.1,1.1,0,0,1-.295.077,2.119,2.119,0,0,0-.644.187,1.155,1.155,0,0,1-.49.111l-.231-.025a2.131,2.131,0,0,0-.419-.044,2.057,2.057,0,0,0-.755.146,1.174,1.174,0,0,1-.419.079,1.187,1.187,0,0,1-.716-.246,2.345,2.345,0,0,0-.547-.3l-.185-.09a2.116,2.116,0,0,0-1.078-.3c-.192,0-.483.011-.649.011l-.211-.018a2.371,2.371,0,0,0-.444-.046,2.127,2.127,0,0,0-1.065.295,1.163,1.163,0,0,1-.383.144,2.178,2.178,0,0,0-.578.2l-.257.1a2.259,2.259,0,0,0-.551.213,1.162,1.162,0,0,1-.565.149,1.138,1.138,0,0,1-.46-.1,2.038,2.038,0,0,0-.821-.175,2.012,2.012,0,0,0-.541.075,1.159,1.159,0,0,1-.3.041c-.2,0-.308.007-.419.013s-.233.011-.48.011-.367-.007-.49-.013c-.2-.01-.323-.015-.523-.015a3.6,3.6,0,0,1-.467-.026l-.221-.021a1.2,1.2,0,0,1-.631-.241,2.18,2.18,0,0,0-1.289-.446,2.139,2.139,0,0,0-1.158.354,1.2,1.2,0,0,1-.369.161,2.227,2.227,0,0,0-.51.2,1.181,1.181,0,0,1-.554.143l-.175-.013a2.465,2.465,0,0,0-.477-.056,2.035,2.035,0,0,0-.618.1,1.091,1.091,0,0,1-.346.056,1.2,1.2,0,0,1-.706-.239,2.147,2.147,0,0,0-1.268-.429,2.052,2.052,0,0,0-.836.18,1.15,1.15,0,0,1-1-.036,2.035,2.035,0,0,0-1.33-.211,2.324,2.324,0,0,0-.849.346,1.181,1.181,0,0,1-.436.184,2.083,2.083,0,0,0-.547.193,1.137,1.137,0,0,1-.511.129Zm20.151-6.028a1.14,1.14,0,0,1,.539.136,2.1,2.1,0,0,0,.973.246,2.157,2.157,0,0,0,1.342-.487,1.25,1.25,0,0,1,.582-.256,1.822,1.822,0,0,0,.28-.062,1.125,1.125,0,0,1,.319-.046,1.164,1.164,0,0,1,.426.082,2.038,2.038,0,0,0,1.506,0,1.12,1.12,0,0,1,.418-.08l.274.02c.1.011.179.02.287.025a1.191,1.191,0,0,1,.524.151,2.071,2.071,0,0,0,1.029.279,2.032,2.032,0,0,0,.5-.062,1.1,1.1,0,0,1,.28-.036,1.156,1.156,0,0,1,.424.082,1.849,1.849,0,0,0,.587.11c.21.02.3.026.388.026a2.113,2.113,0,0,0,1.245-.413,1.2,1.2,0,0,1,.555-.221,1.861,1.861,0,0,0,.341-.075l.177-.039.17-.013a1.162,1.162,0,0,1,.47.1,2.039,2.039,0,0,0,1.265.123l.147-.025.128-.008a1.172,1.172,0,0,1,.28.034,2.008,2.008,0,0,0,.513.069,2.048,2.048,0,0,0,.862-.192,1.145,1.145,0,0,1,1.029.036,2.118,2.118,0,0,0,.6.215l.167.047a1.9,1.9,0,0,0,.582.087,2.046,2.046,0,0,0,.749-.143,1.15,1.15,0,0,1,.416-.079,1.128,1.128,0,0,1,.395.07,2.062,2.062,0,0,0,.708.128l.2-.011.462-.057h.059a1.113,1.113,0,0,1,.4.074,2.07,2.07,0,0,0,.727.134,2.049,2.049,0,0,0,.7-.126,1.125,1.125,0,0,1,.393-.07,1.108,1.108,0,0,1,.282.036,2.052,2.052,0,0,0,.5.064,2.151,2.151,0,0,0,1.311-.464,3.248,3.248,0,0,0,1.167-2.122l.049-.238a3.974,3.974,0,0,0,.023-1.932,2.291,2.291,0,0,1-.061-.436,3.87,3.87,0,0,0-.1-.768,2.151,2.151,0,0,1-.056-.6,3.605,3.605,0,0,0-.845-2.543,2.25,2.25,0,0,0-1.67-.795,2.055,2.055,0,0,0-.447.051l-.241.025-.126-.007-.131-.02-.118-.029a2,2,0,0,0-.441-.084,1.227,1.227,0,0,1-.354-.085,2.014,2.014,0,0,0-1.6.011,1.122,1.122,0,0,1-.275.08,2.153,2.153,0,0,0-.367.1,1.16,1.16,0,0,1-.377.064,1.193,1.193,0,0,1-.66-.206,2.181,2.181,0,0,0-.723-.319,2.017,2.017,0,0,0-.554-.08,2.04,2.04,0,0,0-.939.236,1.166,1.166,0,0,1-.534.133l-.162-.013-.116-.016-.174-.026a1.219,1.219,0,0,1-.68-.295,2.171,2.171,0,0,0-1.411-.541,2.089,2.089,0,0,0-.949.231,1.159,1.159,0,0,1-.39.121,2.137,2.137,0,0,0-.564.149,1.132,1.132,0,0,1-.354.087,1.76,1.76,0,0,0-.562.17,1.177,1.177,0,0,1-.495.111l-.233-.025a2.143,2.143,0,0,0-.419-.044,2.054,2.054,0,0,0-.754.146,1.141,1.141,0,0,1-.419.08,1.2,1.2,0,0,1-.718-.247,2.336,2.336,0,0,0-.546-.3l-.182-.087a2.114,2.114,0,0,0-1.08-.306c-.182,0-.472.011-.642.011l-.229-.023a2.172,2.172,0,0,0-.426-.043,2.128,2.128,0,0,0-1.07.3,1.19,1.19,0,0,1-.382.144,2.083,2.083,0,0,0-.562.195,1.138,1.138,0,0,1-.267.1,2.289,2.289,0,0,0-.547.213,1.158,1.158,0,0,1-.565.149,1.137,1.137,0,0,1-.459-.1,2.062,2.062,0,0,0-.819-.174,1.987,1.987,0,0,0-.537.074,1.146,1.146,0,0,1-.3.041c-.195,0-.306.007-.419.013s-.233.01-.478.01-.365,0-.488-.013c-.2-.008-.323-.015-.521-.015a3.652,3.652,0,0,1-.467-.025l-.223-.021a1.23,1.23,0,0,1-.632-.242,2.185,2.185,0,0,0-1.289-.444,2.118,2.118,0,0,0-1.157.356,1.27,1.27,0,0,1-.37.161,2.244,2.244,0,0,0-.5.2,1.165,1.165,0,0,1-.555.144l-.167-.013a2.645,2.645,0,0,0-.478-.052,2.06,2.06,0,0,0-.618.1,1.152,1.152,0,0,1-.339.052,1.183,1.183,0,0,1-.7-.238,2.165,2.165,0,0,0-1.27-.428,2.066,2.066,0,0,0-.829.177,1.138,1.138,0,0,1-1.006-.036,2.044,2.044,0,0,0-1.473-.179l-.193.059a2.31,2.31,0,0,0-.5.256,1.231,1.231,0,0,1-.428.183,2.164,2.164,0,0,0-.541.19,1.138,1.138,0,0,1-.516.131c-.179,0-.285.008-.39.016l-.229.01a1.153,1.153,0,0,1-.547-.141,2.1,2.1,0,0,0-.99-.254,2,2,0,0,0-.6.093l-.2.043a2.122,2.122,0,0,0-.613.175,1.2,1.2,0,0,1-.267.084,2.878,2.878,0,0,0-2.122,2.694,2.079,2.079,0,0,1-.247.786,3.588,3.588,0,0,0-.385,1.009,4.292,4.292,0,0,0,.043,2.49,3.386,3.386,0,0,0,.711,1.278l.079.092a3.067,3.067,0,0,0,.634.606,1.47,1.47,0,0,1,.27.246,2.3,2.3,0,0,0,1.715.845,2.055,2.055,0,0,0,.87-.2,1.191,1.191,0,0,1,.426-.106l.159-.013.321-.046a2.041,2.041,0,0,1,.308-.041,2.051,2.051,0,0,0,.7-.167,1.16,1.16,0,0,1,.454-.093l.265.031a2.109,2.109,0,0,0,.477.057,2.067,2.067,0,0,0,.744-.143,1.133,1.133,0,0,1,.415-.077,1.176,1.176,0,0,1,.582.157,2.136,2.136,0,0,0,1.055.292,2.067,2.067,0,0,0,.993-.257,1.166,1.166,0,0,1,.554-.143,1.147,1.147,0,0,1,.483.108,2.066,2.066,0,0,0,.865.193l.246-.016.231-.013a1.133,1.133,0,0,1,.354.056,2.048,2.048,0,0,0,.636.1,2.016,2.016,0,0,0,.682-.118,1.141,1.141,0,0,1,.89.054,2.072,2.072,0,0,0,.916.218,2.027,2.027,0,0,0,.495-.062,1.056,1.056,0,0,1,.267-.034,4.391,4.391,0,0,0,.454-.026c.111-.008.22-.015.4-.016h.008a1.162,1.162,0,0,1,.326.048,2.033,2.033,0,0,0,1.345-.056,1.149,1.149,0,0,1,.421-.08,1.1,1.1,0,0,1,.375.064,2.031,2.031,0,0,0,.678.116,1.929,1.929,0,0,0,.5-.066A1.228,1.228,0,0,1,159.979,179.758Zm11.988-22.81a1.2,1.2,0,0,1-.644-.224,2.234,2.234,0,0,0-.632-.313l-.239-.1a2.123,2.123,0,0,0-1.024-.272,2.148,2.148,0,0,0-1.347.488,1.211,1.211,0,0,1-.752.274l-.223-.021a1.856,1.856,0,0,0-.392-.041,2.11,2.11,0,0,0-.7.123,1.114,1.114,0,0,1-.383.069,1.145,1.145,0,0,1-.488-.11,2.068,2.068,0,0,0-.883-.2,1.975,1.975,0,0,0-.5.064l-.246.033-.313.026-.2.036a1.322,1.322,0,0,1-.283.029,1.183,1.183,0,0,1-.426-.074,2.018,2.018,0,0,0-.755-.147,2.045,2.045,0,0,0-.609.093,1.13,1.13,0,0,1-.336.051,1.161,1.161,0,0,1-.6-.167,2.24,2.24,0,0,0-.628-.249l-.236-.079a2.055,2.055,0,0,0-.85-.19l-.531,0a2.112,2.112,0,0,0-1,.264,1.354,1.354,0,0,1-.264.108,2.052,2.052,0,0,0-.555.243,1.17,1.17,0,0,1-.621.18,1.108,1.108,0,0,1-.375-.064,2,2,0,0,0-1.37.016,1.186,1.186,0,0,1-.359.072,2.769,2.769,0,0,0-.375.041l-.108.018-.139.008a1.165,1.165,0,0,1-.519-.125,2.122,2.122,0,0,0-.94-.229,1.978,1.978,0,0,0-.393.041l-.218.02a1.188,1.188,0,0,1-.711-.242,2.287,2.287,0,0,0-.754-.369l-.146-.051a2.1,2.1,0,0,0-.782-.162l-.691-.016a2.039,2.039,0,0,0-.877.208,1.146,1.146,0,0,1-.288.1,2.071,2.071,0,0,0-.547.19,1.169,1.169,0,0,1-.523.126,1.14,1.14,0,0,1-.5-.115,2.087,2.087,0,0,0-.9-.208,2.045,2.045,0,0,0-.456.054l-.22.028a2.111,2.111,0,0,0-.593.1,1.222,1.222,0,0,1-.283.056c-.121.008-.215.011-.288.011a2.808,2.808,0,0,1-.315-.018,4.109,4.109,0,0,0-.564-.038c-.231,0-.354-.008-.469-.016-.143-.011-.262-.021-.482-.023a1.047,1.047,0,0,1-.283-.038,2.062,2.062,0,0,0-.511-.066,2.1,2.1,0,0,0-.945.231,1.146,1.146,0,0,1-.524.128l-.188-.016a2.015,2.015,0,0,0-.342-.029,2.067,2.067,0,0,0-.932.224,1.137,1.137,0,0,1-.937.044,2.061,2.061,0,0,0-.749-.144,1.914,1.914,0,0,0-.336.028l-.187.015a1.208,1.208,0,0,1-.75-.272,2.347,2.347,0,0,0-.713-.392,2.465,2.465,0,0,0-.945-.2,2.06,2.06,0,0,0-.632.1,1.065,1.065,0,0,1-.31.057,2.137,2.137,0,0,0-.636.126l-.246.061a2.093,2.093,0,0,0-.591.172,1.142,1.142,0,0,1-.868.036,2.385,2.385,0,0,0-.811-.144l-.27.01a1.467,1.467,0,0,1-1.329-1.2,3.438,3.438,0,0,0-.277-.723,2.074,2.074,0,0,1,.277-2.3,3.054,3.054,0,0,0,.531-.773,1.369,1.369,0,0,1,1.2-.845,1.172,1.172,0,0,1,.572.154,2.222,2.222,0,0,0,.48.2,2.263,2.263,0,0,0,.629.088,2.227,2.227,0,0,0,.988-.226,1.152,1.152,0,0,1,.521-.126l.141.008.346.049a1.224,1.224,0,0,1,.667.3,2.181,2.181,0,0,0,1.421.551,2.077,2.077,0,0,0,.96-.239,1.178,1.178,0,0,1,.4-.126,2.082,2.082,0,0,0,.56-.147,1.183,1.183,0,0,1,.349-.085,1.855,1.855,0,0,0,.591-.174,1.155,1.155,0,0,1,.49-.111l.242.026a1.974,1.974,0,0,0,.426.048,2.062,2.062,0,0,0,.763-.149,1.13,1.13,0,0,1,.424-.082,1.2,1.2,0,0,1,.716.246,2.366,2.366,0,0,0,.554.308l.184.088a2.125,2.125,0,0,0,1.078.3c.211-.007.5-.013.66-.013l.221.023a2.39,2.39,0,0,0,.446.046,2.123,2.123,0,0,0,1.068-.3,1.191,1.191,0,0,1,.388-.146,2.2,2.2,0,0,0,.582-.2,1.139,1.139,0,0,1,.267-.1,2.078,2.078,0,0,0,.549-.211,1.153,1.153,0,0,1,.565-.149,1.131,1.131,0,0,1,.459.1,2.074,2.074,0,0,0,.827.175,2.007,2.007,0,0,0,.544-.075,1.158,1.158,0,0,1,.3-.041c.2,0,.311-.008.424-.013s.238-.011.485-.011.37.007.493.013c.177.008.3.015.526.015a3.748,3.748,0,0,1,.472.025l.226.023a1.228,1.228,0,0,1,.637.244,2.079,2.079,0,0,0,2.469.092,1.242,1.242,0,0,1,.377-.166,2.264,2.264,0,0,0,.513-.2,1.165,1.165,0,0,1,.555-.144l.141.008.162.026a1.991,1.991,0,0,0,.365.034,2.054,2.054,0,0,0,.865-.193,1.174,1.174,0,0,1,.395-.1,2.416,2.416,0,0,0,1.829-1.216,3.734,3.734,0,0,0,.5-2.41,2.148,2.148,0,0,1,.107-.985c.051-.144.084-.231.116-.313a1.642,1.642,0,0,1,.585-.757l.1-.067a1.177,1.177,0,0,1,.637-.192,1.161,1.161,0,0,1,.48.107,2.081,2.081,0,0,0,.863.192,2.06,2.06,0,0,0,.6-.092,1.14,1.14,0,0,1,.331-.049l.249.028.195.038a1.476,1.476,0,0,1,.978.745,2.173,2.173,0,0,1,.249,1.375,3.661,3.661,0,0,0,.654,2.875,2.318,2.318,0,0,0,1.807.957,2.074,2.074,0,0,0,.631-.1,1.1,1.1,0,0,1,.354-.057l.139.008.18.033a2.011,2.011,0,0,0,.241.044,1.257,1.257,0,0,1,.683.324,2.184,2.184,0,0,0,1.476.6,2.035,2.035,0,0,0,.891-.206,1.161,1.161,0,0,1,.47-.115,2.269,2.269,0,0,0,.424-.049,1.906,1.906,0,0,1,.367-.052,1.981,1.981,0,0,0,.706-.165,1.16,1.16,0,0,1,.454-.093,1.126,1.126,0,0,1,.274.033,2.088,2.088,0,0,0,.5.064,2.038,2.038,0,0,0,.747-.144,1.145,1.145,0,0,1,1.014.085,2.123,2.123,0,0,0,1.075.3,2.065,2.065,0,0,0,1.021-.27,1.165,1.165,0,0,1,.569-.149,1.143,1.143,0,0,1,.482.107,2.077,2.077,0,0,0,.872.195l.265-.02.242-.015a1.111,1.111,0,0,1,.365.061,2.041,2.041,0,0,0,1.344-.015,1.139,1.139,0,0,1,.387-.069,1.16,1.16,0,0,1,.511.121,2.067,2.067,0,0,0,.921.22,2.014,2.014,0,0,0,.506-.066,1.123,1.123,0,0,1,.275-.036c.192,0,.306-.011.413-.02.151-.013.265-.021.469-.023h.008a1.11,1.11,0,0,1,.334.051,2.056,2.056,0,0,0,.6.092,2.034,2.034,0,0,0,.765-.151,1.18,1.18,0,0,1,.428-.082,1.143,1.143,0,0,1,.383.066,2,2,0,0,0,.691.123,2.045,2.045,0,0,0,.523-.069,1.134,1.134,0,0,1,.841.1,2.1,2.1,0,0,0,1,.259,2.171,2.171,0,0,0,1.355-.5,1.209,1.209,0,0,1,.6-.262,2.475,2.475,0,0,0,.31-.066,1.113,1.113,0,0,1,.318-.046,1.151,1.151,0,0,1,.429.084,2.023,2.023,0,0,0,1.339.074,1.077,1.077,0,0,1,.319-.046,1.4,1.4,0,0,1,1.237.931,3.074,3.074,0,0,0,.4.69,2.035,2.035,0,0,1,.388,1.342,2.944,2.944,0,0,1-.079.577,3.84,3.84,0,0,0-.138.95,1.973,1.973,0,0,1-.47,1.263,1.258,1.258,0,0,1-.931.441l-.126-.007-.218-.011a2.088,2.088,0,0,0-.567.08,1.148,1.148,0,0,1-.315.044,1.111,1.111,0,0,1-.283-.036,2.026,2.026,0,0,0-1.375.128,1.122,1.122,0,0,1-.483.108,1.171,1.171,0,0,1-.551-.141,2.1,2.1,0,0,0-.582-.211l-.128-.034a2.011,2.011,0,0,0-1.4.038,1.139,1.139,0,0,1-.814.01,2.05,2.05,0,0,0-.714-.129l-.182.01-.464.056-.092,0a1.138,1.138,0,0,1-.4-.074,2.009,2.009,0,0,0-1.362-.036,1.145,1.145,0,0,1-.847-.061,2.081,2.081,0,0,0-.9-.211,1.951,1.951,0,0,0-.532.074l-.231.038a2.061,2.061,0,0,0-.593.129,1.146,1.146,0,0,1-.4.074l-.139,0c-.144,0-.241.007-.331.013-.159.011-.269.02-.446.02h-.008a1.1,1.1,0,0,1-.4-.074,2.039,2.039,0,0,0-1.407-.015,1.1,1.1,0,0,1-.354.066,1.954,1.954,0,0,0-.542.087,1.183,1.183,0,0,1-.328.048,1.147,1.147,0,0,1-.532-.131,2.08,2.08,0,0,0-.814-.229l-.244-.036a2.5,2.5,0,0,0-.557-.056,1.454,1.454,0,0,1-.436-.056,2.11,2.11,0,0,0-.546-.075l-.187,0a2.171,2.171,0,0,0-1.414.567,1.211,1.211,0,0,1-.8.313,1.142,1.142,0,0,1-.277-.033,2,2,0,0,0-.488-.064,2.039,2.039,0,0,0-.729.136,1.166,1.166,0,0,1-.406.075Z" transform="translate(8.156 8.911)" fill="#363636"/>
        <g id="グループ_121" data-name="グループ 121" transform="translate(111.77 130.103)">
          <path id="パス_595" data-name="パス 595" d="M141.471,266.172a4.9,4.9,0,0,1-1.9-.775,11.758,11.758,0,0,0-1.113-.57,2.567,2.567,0,0,0-.932-.18,16.064,16.064,0,0,0-2.356.283,12.947,12.947,0,0,1-2.155.259c-1.176-.023-2.15-.108-3.052-.187-.749-.065-1.34-.115-1.9-.138l-.437-.007a20.166,20.166,0,0,0-2.427.172,15.6,15.6,0,0,1-1.638.128c-.133,0-.262,0-.388-.013a9.323,9.323,0,0,1-4.053-1.155c-.236-.128-.346-.182-.446-.226a4.818,4.818,0,0,1-3.046-2.31,6.9,6.9,0,0,1-.626-2.179c-.11-.606-.2-1.108-.344-1.627-.075-.29-.164-.585-.257-.895a24.355,24.355,0,0,1-.865-3.56,19.124,19.124,0,0,1-.139-2.413c-.011-.78-.025-1.494-.092-2.227a8.784,8.784,0,0,0-.546-2.061,9.257,9.257,0,0,1-.634-2.513l-.061-.983c-.075-1.28-.146-2.463-.188-3.673a10.543,10.543,0,0,1,.285-2.336,11.085,11.085,0,0,0,.295-2.336,12.444,12.444,0,0,0-.287-2.182,13.287,13.287,0,0,1-.316-2.469c0-.677-.043-1.357-.084-2.037-.061-.973-.111-1.8-.1-2.628a11.105,11.105,0,0,1,.387-2.361,11.763,11.763,0,0,0,.378-2.277l.041-1.8c.018-.965.038-1.91.079-2.849a20.461,20.461,0,0,1,.29-2.381,21.838,21.838,0,0,0,.29-2.236,9.613,9.613,0,0,0-.27-2.379,8.637,8.637,0,0,1-.254-2.312c.08-1.073.19-2.115.295-3.126l.154-1.5a11.5,11.5,0,0,1,.632-2.528,11.2,11.2,0,0,0,.541-2.025,12.881,12.881,0,0,0,.033-2.431,9.181,9.181,0,0,1,.049-2.253,7.684,7.684,0,0,1,2-3.908c.239-.267.4-.475.554-.67.213-.272.375-.478.565-.685a2.516,2.516,0,0,0,.444-2.754l-.092-.2a14.309,14.309,0,0,1-.809-1.989,6.7,6.7,0,0,1-.075-2.431,7.44,7.44,0,0,0-.043-2.408,8.55,8.55,0,0,0-.844-1.937,7.331,7.331,0,0,1-.975-2.51,13.408,13.408,0,0,1,.074-2.9c.064-.677.116-1.265.129-1.861a37,37,0,0,1,.306-4.552c.077-.513.128-1.035.17-1.56a15.262,15.262,0,0,1,.454-3.008,8.552,8.552,0,0,1,1.247-2.331,12.58,12.58,0,0,0,1.017-1.7c.208-.462.39-.931.572-1.4a15.81,15.81,0,0,1,1.281-2.769c.292-.457.547-.95.8-1.45a13.078,13.078,0,0,1,1.535-2.549,7.648,7.648,0,0,1,2.03-1.517,10.28,10.28,0,0,0,1.753-1.206,40.255,40.255,0,0,1,3.467-2.925,16.685,16.685,0,0,0,1.429-1.245,12,12,0,0,1,2.1-1.715,31.351,31.351,0,0,1,2.877-1.435l1.239-.573a17.773,17.773,0,0,1,2.5-.893c.718-.221,1.289-.4,1.85-.611.424-.164.842-.333,1.262-.506,1.037-.428,1.935-.795,2.875-1.085a11.311,11.311,0,0,0,1.9-.845,9.8,9.8,0,0,1,2.232-.947,25.93,25.93,0,0,1,2.6-.437c.641-.085,1.235-.167,1.822-.274.555-.1,1.122-.233,1.691-.367a25.577,25.577,0,0,1,2.679-.537,6.339,6.339,0,0,1,.808-.048c.521,0,1.047.049,1.576.1.618.056,1.1.1,1.584.1.172,0,.347-.007.516-.02.958-.07,1.914-.079,2.869-.08.526,0,1.05-.008,1.578-.02l.377,0c.7,0,1.432.061,2.163.118.772.062,1.334.1,1.9.113,1.058.023,2.107.1,3.159.182.026.02,1.421.1,1.432.1a8.677,8.677,0,0,0,2-.3,8.507,8.507,0,0,1,1.937-.313,3.642,3.642,0,0,1,.4.021,16.132,16.132,0,0,1,2.4.532,19.94,19.94,0,0,0,1.951.465,10.1,10.1,0,0,1,2.24.744,11.776,11.776,0,0,0,1.994.711c.9.193,1.748.467,2.572.731.662.215,1.163.374,1.673.511a10.281,10.281,0,0,0,2.089.275,8.7,8.7,0,0,1,2.333.347c.57.193,1.153.342,1.733.488a18.2,18.2,0,0,1,2.553.772l.649.27c1.209.5,2.384.995,3.441,1.54,1.368.7,2.72,1.542,3.862,2.269a6.238,6.238,0,0,1,1.661,1.861,7.05,7.05,0,0,0,1.314,1.584,31.574,31.574,0,0,1,3.249,2.9c.419.442.859.842,1.291,1.232a13.844,13.844,0,0,1,1.807,1.828c.364.474.752.909,1.135,1.337A13.442,13.442,0,0,1,222.8,152.6a7.029,7.029,0,0,1,.726,2.469,8.658,8.658,0,0,0,.429,1.806,26.045,26.045,0,0,1,1.307,4.065,25.5,25.5,0,0,1,.609,4.234,7.712,7.712,0,0,0,.465,1.958,6.171,6.171,0,0,1,.475,2.415,13.227,13.227,0,0,1-.6,2.618c-.2.649-.352,1.163-.459,1.673-.308,1.47-.616,2.931-1.006,4.252a12.056,12.056,0,0,1-.955,2.158,12.4,12.4,0,0,0-.854,1.855,25.772,25.772,0,0,0-.76,3.1,2.518,2.518,0,0,0,1.168,2.646,2.715,2.715,0,0,0,.711.3c.259.27.919,1.252,1.63,4.576a7.109,7.109,0,0,1-.013,2.164,10.434,10.434,0,0,0-.049,2.548c.082.578.206,1.171.341,1.783a25.4,25.4,0,0,1,.5,2.767,15.283,15.283,0,0,0,.426,2.089,15.162,15.162,0,0,1,.478,2.479,7.944,7.944,0,0,1-.275,2.3,8.764,8.764,0,0,0-.3,2.382,15.66,15.66,0,0,0,.351,2.194,15.324,15.324,0,0,1,.369,2.405,14.07,14.07,0,0,1-.159,2.32,14.34,14.34,0,0,0-.175,2.333c.02.672.082,1.355.147,2.04.1,1.016.174,1.791.187,2.577.011.7.046,1.4.079,2.1.046.849.085,1.686.085,2.523,0,.641.02,1.273.036,1.9.028,1.027.051,1.879.039,2.728-.013.727.028,1.457.072,2.176.049.837.1,1.655.07,2.448a15.357,15.357,0,0,0,.144,2.3,14.394,14.394,0,0,1,.136,2.353,25.177,25.177,0,0,1-.339,2.587c-.133.811-.231,1.417-.29,2.005a19.223,19.223,0,0,1-.508,2.73c-.164.7-.3,1.275-.383,1.837a17.293,17.293,0,0,0-.133,2.313,10.218,10.218,0,0,1-.211,2.368,5.318,5.318,0,0,1-1.622,2.364,6.492,6.492,0,0,0-.936,1.065,13.533,13.533,0,0,0-.626,1.275c-.642,1.457-1.029,2.169-1.815,2.413a18.92,18.92,0,0,1-4.527.837l-.172.007a6.308,6.308,0,0,1-1.668-.339,8.783,8.783,0,0,0-2.505-.469l-.318.013c-1.344.059-2.766.121-4.386.169l-.518.007c-.495,0-1.039-.02-1.606-.039-.7-.025-1.291-.046-1.9-.046l-.442,0a11.692,11.692,0,0,0-2.064.293,13.469,13.469,0,0,1-2.453.336,10.126,10.126,0,0,1-2.12-.311,11.1,11.1,0,0,0-2.358-.341,5.883,5.883,0,0,0-2.158.647,6,6,0,0,1-2.366.7,5.765,5.765,0,0,1-2.145-.588,6.29,6.29,0,0,0-2.351-.644h0c-.688,0-1.357.044-2.038.09-.867.061-1.635.111-2.42.111a16.3,16.3,0,0,0-2.4.257,18.378,18.378,0,0,1-2.728.306,2.871,2.871,0,0,1,.26-2.9,9.958,9.958,0,0,0,.706-1.535,9.15,9.15,0,0,0,2-.27,8.962,8.962,0,0,1,1.974-.28l4.394-.018a17.59,17.59,0,0,1,2.253.188,16.989,16.989,0,0,0,2.091.179c.775,0,1.517-.041,2.243-.079.8-.046,1.47-.082,2.125-.082a10.327,10.327,0,0,1,2.3.331,9.473,9.473,0,0,0,2.037.311h.426c.634,0,1.26.011,1.868.028l.21,0c.516.015,1,.026,1.463.026l.426,0a13.107,13.107,0,0,0,2.369-.31,12.47,12.47,0,0,1,2-.285,10.2,10.2,0,0,0,2.469-.46,8.358,8.358,0,0,1,1.868-.377l.177,0a7.365,7.365,0,0,1,2.454.565,6.792,6.792,0,0,0,1.422.406c.043,0,.282.015.331.015a17.931,17.931,0,0,0,3.836-.613,2.509,2.509,0,0,0,1.794-2.037,11.958,11.958,0,0,1,.341-1.484,15.716,15.716,0,0,0,.446-2.733c.066-.626.134-1.266.238-1.922a11.9,11.9,0,0,0,.059-2.371,16.984,16.984,0,0,1,.015-2.333,8.823,8.823,0,0,1,.57-2.11,9.168,9.168,0,0,0,.642-2.513,16.829,16.829,0,0,1,.32-2.174,15.322,15.322,0,0,0,.344-2.53c.026-.952.025-1.93.021-2.916,0-.6-.007-1.2,0-1.8a8.135,8.135,0,0,0-.455-2.336,8.952,8.952,0,0,1-.48-2.374,8.725,8.725,0,0,1,.413-2.32,8.394,8.394,0,0,0,.411-2.4,13.117,13.117,0,0,0-.344-2.366,15.359,15.359,0,0,1-.354-2.322,21.959,21.959,0,0,0-.267-2.4c-.113-.762-.228-1.519-.269-2.273-.044-.8-.013-1.606.016-2.315a22.388,22.388,0,0,0,.008-2.392,23.453,23.453,0,0,0-.357-2.536c-.128-.719-.252-1.429-.313-2.125a14.119,14.119,0,0,1,.069-2.435,11.889,11.889,0,0,0,.062-2.305l-.167-1.615c-.113-1.119-.22-2.155-.352-3.069a8.079,8.079,0,0,0-1.126-3.061,2.537,2.537,0,0,0-1.208-1.031,3.3,3.3,0,0,1-1.05-.919c-.187-.221-.3-.346-.41-.454-.762-.737-.959-1.129-.847-1.683a23.54,23.54,0,0,1,.837-3.585l.116-.4c.131-.452.254-.909.378-1.375.229-.854.457-1.691.731-2.528a12.856,12.856,0,0,0,.444-2.176,14.764,14.764,0,0,1,.4-2.086,7.848,7.848,0,0,1,.908-1.827,7.035,7.035,0,0,0,1-2.163,5.394,5.394,0,0,0-.246-2.394,6.863,6.863,0,0,1-.292-2.027c.021-.441.072-.873.12-1.3a12.028,12.028,0,0,0,.1-2.944l-.1-.877a16,16,0,0,0-.621-3.357,12.528,12.528,0,0,1-.37-1.573,9.049,9.049,0,0,0-.8-2.684,9.834,9.834,0,0,0-1.568-1.96,16.9,16.9,0,0,1-1.249-1.432,37.517,37.517,0,0,0-2.743-3.357,29.837,29.837,0,0,0-3.413-3.2c-.3-.233-.6-.475-.9-.723a24.5,24.5,0,0,0-2.856-2.114c-.418-.246-.829-.513-1.245-.783a23.613,23.613,0,0,0-2.812-1.653,16.062,16.062,0,0,0-2.567-.86c-.65-.179-1.306-.359-1.935-.591-1.463-.542-3.008-1-4.463-1.427a10.629,10.629,0,0,0-2.458-.308,12.78,12.78,0,0,1-2.223-.229,10.326,10.326,0,0,1-2.043-.782,9.225,9.225,0,0,0-2.4-.87,10.413,10.413,0,0,0-1.725-.116l-1.665.021a12.208,12.208,0,0,1-1.3-.062c-.667-.07-1.317-.185-1.969-.3a22.2,22.2,0,0,0-2.679-.364c-.152-.007-.3-.011-.454-.011a18.711,18.711,0,0,0-2.012.149,19.5,19.5,0,0,1-2.2.167,19.846,19.846,0,0,1-2.1-.144l-.179-.016a19.036,19.036,0,0,0-1.948-.129l-.424.011a8.857,8.857,0,0,0-2.438.567,10.348,10.348,0,0,1-2.2.567c-1.481.159-2.885.385-4.371.626a7.3,7.3,0,0,1-1.289.111c-.387,0-.777-.02-1.163-.043-.444-.026-.8-.046-1.153-.046a6.013,6.013,0,0,0-1.327.129c-1.194.274-2.31.613-3.49.97l-1.017.311c-.387.115-1.348.385-1.4.4-.962.265-2.048.567-3.07.958a12.7,12.7,0,0,0-2.171,1.173,19.736,19.736,0,0,1-1.788,1.031,16.671,16.671,0,0,1-1.751.673,12.274,12.274,0,0,0-2.441,1.019c-.5.3-1.04.573-1.584.841a14.162,14.162,0,0,0-2.412,1.386,5.341,5.341,0,0,0-1.407,2.045,6.992,6.992,0,0,1-1.171,1.853,11.3,11.3,0,0,1-1.479,1.175,8.449,8.449,0,0,0-1.976,1.737l-.551.726a21.035,21.035,0,0,0-2.033,3.007,6.431,6.431,0,0,0-.546,2.445,9.269,9.269,0,0,1-.346,2.033,8.653,8.653,0,0,1-.857,1.7,7.045,7.045,0,0,0-1.07,2.435l-.129.747a25.594,25.594,0,0,0-.452,3.775,10.46,10.46,0,0,0,.39,2.666,15.637,15.637,0,0,1,.324,1.586,11.6,11.6,0,0,0,.678,2.43,16.812,16.812,0,0,1,.534,1.647l.185.744c.29,1.16.564,2.259.891,3.37.151.519.334,1.039.521,1.563.323.9.6,1.665.8,2.445a5.11,5.11,0,0,1-.151,2.21,5.869,5.869,0,0,0-.2,2.148c.021.146.064.334.113.533.421,1.671.09,1.887-.129,2.03a.841.841,0,0,1-.469.138,1.519,1.519,0,0,1-.618-.152,2.493,2.493,0,0,0-1.011-.213,2.511,2.511,0,0,0-2.482,2.117l-.3,1.943c-.064.4-.151.834-.241,1.286-.233,1.144-.437,2.148-.554,3.254-.151,1.422-.306,2.967-.433,4.606a10.076,10.076,0,0,0,.156,2.189,12.1,12.1,0,0,1,.2,2.466,7.16,7.16,0,0,1-.616,2.192,7.416,7.416,0,0,0-.652,2.379,6.408,6.408,0,0,0,.514,2.322,6.806,6.806,0,0,1,.528,2.351,6.207,6.207,0,0,1-.687,2.258,6,6,0,0,0-.695,2.346,9.372,9.372,0,0,0,.375,2.33,9.5,9.5,0,0,1,.383,2.3,13.871,13.871,0,0,0,.27,2.359,15.486,15.486,0,0,1,.269,2.259,7.587,7.587,0,0,1-.462,2.3,7.084,7.084,0,0,0-.467,2.345c.018.668.013,1.344.008,2.012-.01.963-.015,1.8.023,2.6.048.921.149,1.815.251,2.684.077.672.151,1.309.2,1.93l.1,1.43c.082,1.175.156,2.215.27,3.183.208,1.75.518,3.283.793,4.583a6.634,6.634,0,0,0,1.648,3.364,2.491,2.491,0,0,0,1.06.636,18.063,18.063,0,0,0,3.908.583c.6.038,1.27.044,2.028.051.847,0,1.652.01,2.543.044a9.79,9.79,0,0,1,1.92.351,11.756,11.756,0,0,0,2.641.446h0a6.894,6.894,0,0,0,2.1-.439,8.321,8.321,0,0,1,2.463-.51c1.845.233,3.636.308,5.289.354.727.025,1.452.09,2.176.156.945.085,1.786.159,2.618.159l1.7-.049c1.378-.043,2.721-.085,4.009-.177a20.359,20.359,0,0,1,2.3.185,19.367,19.367,0,0,0,2.323.188c.8-.007,1.6-.074,2.4-.147.963-.088,1.822-.161,2.561-.164.752,2.089.7,2.472-.013,4.517a23.749,23.749,0,0,1-2.423-.17,22.8,22.8,0,0,0-2.335-.17c-.777.007-1.491.056-2.2.108-.931.069-1.66.126-2.386.126-.909.059-1.691.069-2.492.079-.706.007-1.3.013-1.892.039-.1.007-.3.007-.308.007a15.318,15.318,0,0,1-1.96-.165,16.157,16.157,0,0,0-2.022-.17,5.609,5.609,0,0,0-1.878.531,5.012,5.012,0,0,1-1.861.531Z" transform="translate(-111.67 -130.103)" fill="#363636"/>
        </g>
      </g>
    </g>
  </g>
</svg>
