<svg xmlns="http://www.w3.org/2000/svg" xmlns:xlink="http://www.w3.org/1999/xlink" width="400" height="350" viewBox="0 0 400 350">
  <defs>
    <clipPath id="clip-path">
      <path id="パス_196" data-name="パス 196" d="M265.458,314.492H518.688c.739-18.027,12.879-32.856,28.866-36.261V88.224c-15.989-3.406-28.131-18.239-28.866-36.268H265.458c-.732,17.954-12.775,32.743-28.663,36.23V278.271C252.682,281.758,264.721,296.54,265.458,314.492Z" transform="translate(-236.795 -51.956)" fill="#363636"/>
    </clipPath>
  </defs>
  <g id="logo_1" transform="translate(-781 -1164)">
    <path id="パス_826" data-name="パス 826" d="M0,0H400V350H0Z" transform="translate(781 1164)" fill="none"/>
    <g id="グループ_65" data-name="グループ 65" transform="translate(590.826 1143.171)">
      <path id="パス_97" data-name="パス 97" d="M242.551,176.958a4.829,4.829,0,0,1,.781-.113c.249-.015.494-.022.739-.022.229,0,.461.007.7.022a4.356,4.356,0,0,1,.739.113l-1.317,8.28c-.095.607-.168,1.147-.223,1.621a11.688,11.688,0,0,0-.082,1.286,2.977,2.977,0,0,0,.386,1.7,1.545,1.545,0,0,0,1.357.545,2.2,2.2,0,0,0,2.117-1.231,6.345,6.345,0,0,0,.587-1.6c.157-.642.307-1.416.457-2.318l1.317-8.28a5.8,5.8,0,0,1,.8-.113c.238-.015.47-.022.7-.022s.487.007.73.022a4.412,4.412,0,0,1,.75.113l-1.438,8.968a22.182,22.182,0,0,1-.71,3.13,6.925,6.925,0,0,1-1.154,2.265,4.7,4.7,0,0,1-1.833,1.387,6.829,6.829,0,0,1-2.7.476,4.369,4.369,0,0,1-3.282-1.109,5.093,5.093,0,0,1-1.074-3.62,16.612,16.612,0,0,1,.223-2.53Z" transform="translate(4.937 150.548)" fill="#363636"/>
      <path id="パス_98" data-name="パス 98" d="M250.191,177.05a12.422,12.422,0,0,1,1.57-.232q.718-.056,1.469-.055a10.5,10.5,0,0,1,2,.187,5.142,5.142,0,0,1,1.742.666,3.55,3.55,0,0,1,1.235,1.31,4.254,4.254,0,0,1,.465,2.1,5.794,5.794,0,0,1-.274,1.844,6.588,6.588,0,0,1-.688,1.476,5.65,5.65,0,0,1-.9,1.109,6.957,6.957,0,0,1-.933.746l-.243.154,2.168,6.637a10.682,10.682,0,0,1-1.641.135,7.838,7.838,0,0,1-1.48-.135l-2.248-7.413.344-.223c.2-.132.465-.291.79-.479a4.629,4.629,0,0,0,.953-.732,4.326,4.326,0,0,0,.8-1.1,3.366,3.366,0,0,0,.333-1.555,2.247,2.247,0,0,0-.183-.966,1.7,1.7,0,0,0-.5-.631,1.86,1.86,0,0,0-.719-.344,3.47,3.47,0,0,0-.829-.1,2.932,2.932,0,0,0-.69.066l-2.166,13.474c-.269.031-.523.055-.761.079s-.468.033-.7.033-.452-.009-.71-.024a6.01,6.01,0,0,1-.768-.088Z" transform="translate(13.077 150.476)" fill="#363636"/>
      <path id="パス_99" data-name="パス 99" d="M256.575,177.03c.419-.075.884-.137,1.4-.19s1.059-.077,1.641-.077a11.506,11.506,0,0,1,1.994.165,4.7,4.7,0,0,1,1.641.589,3.083,3.083,0,0,1,1.1,1.132,3.53,3.53,0,0,1,.406,1.776,4.052,4.052,0,0,1-.254,1.42,4.8,4.8,0,0,1-.657,1.233,4.245,4.245,0,0,1-.911.911,2.746,2.746,0,0,1-1.015.476,2.834,2.834,0,0,1,1.844,1.187,3.665,3.665,0,0,1,.648,2.122,5.514,5.514,0,0,1-.538,2.554,4.478,4.478,0,0,1-1.478,1.685,6.5,6.5,0,0,1-2.237.944,12.37,12.37,0,0,1-2.8.3q-.708,0-1.478-.055t-1.864-.212Zm.768,13.519c.165.031.32.053.468.068l.446.022a5.282,5.282,0,0,0,1.043-.112,2.749,2.749,0,0,0,1.032-.432,2.529,2.529,0,0,0,.792-.889,3.052,3.052,0,0,0,.313-1.476,1.565,1.565,0,0,0-.6-1.4,2.912,2.912,0,0,0-1.63-.4h-1.114Zm2.067-7.06a2.556,2.556,0,0,0,.893-.165,2.157,2.157,0,0,0,.779-.5,2.528,2.528,0,0,0,.547-.854,3.269,3.269,0,0,0,.214-1.233,1.566,1.566,0,0,0-.183-.8,1.328,1.328,0,0,0-.465-.479,1.779,1.779,0,0,0-.629-.221,4.136,4.136,0,0,0-.668-.055,3.639,3.639,0,0,0-.728.066l-.69,4.239Z" transform="translate(20.771 150.476)" fill="#363636"/>
      <path id="パス_100" data-name="パス 100" d="M266.67,176.958c.269-.046.558-.079.86-.1s.591-.033.86-.033a10.331,10.331,0,0,1,1.663.135l1.782,15.96a8.765,8.765,0,0,1-1.48.135,9.481,9.481,0,0,1-1.52-.135l-.262-3.218h-4.436l-1.3,3.218a8.487,8.487,0,0,1-1.52.135,7.7,7.7,0,0,1-1.458-.135Zm1.681,10.078-.527-6.394-2.592,6.394Z" transform="translate(27.812 150.548)" fill="#363636"/>
      <path id="パス_101" data-name="パス 101" d="M269.7,176.958a3.529,3.529,0,0,1,.659-.113c.207-.015.406-.022.6-.022a5.576,5.576,0,0,1,1.215.135l3.584,10.144,1.6-10.144a7.823,7.823,0,0,1,1.436-.135c.218,0,.426.007.629.022a2.814,2.814,0,0,1,.609.113l-2.572,15.96a6.915,6.915,0,0,1-1.237.135,5.823,5.823,0,0,1-1.2-.135l-3.6-10.122-1.6,10.122a6.7,6.7,0,0,1-.7.1c-.238.022-.472.033-.7.033a6.152,6.152,0,0,1-1.277-.135Z" transform="translate(36.593 150.548)" fill="#363636"/>
      <path id="パス_102" data-name="パス 102" d="M279.7,176.984c.3-.029.573-.057.829-.088s.512-.055.759-.077.5-.037.75-.044.525-.011.82-.011a9.881,9.881,0,0,1,1.824.176,4.915,4.915,0,0,1,1.74.677,3.905,3.905,0,0,1,1.308,1.409,4.744,4.744,0,0,1,.518,2.353,7.54,7.54,0,0,1-.439,2.6,5.877,5.877,0,0,1-1.264,2.076,5.76,5.76,0,0,1-2.025,1.365,7.118,7.118,0,0,1-2.715.49c-.216,0-.393-.007-.527-.013l-.384-.033-.812,5.128a6.7,6.7,0,0,1-.77.088c-.243.015-.479.024-.708.024-.2,0-.43-.009-.679-.024a7.283,7.283,0,0,1-.8-.088Zm1.641,8.17a4.2,4.2,0,0,0,.909.068,3.031,3.031,0,0,0,.995-.179,2.477,2.477,0,0,0,.931-.6,3.209,3.209,0,0,0,.7-1.109,4.711,4.711,0,0,0,.274-1.731,2.578,2.578,0,0,0-.192-1.065,1.625,1.625,0,0,0-.507-.655,1.826,1.826,0,0,0-.7-.322,3.288,3.288,0,0,0-.748-.088h-.3a3.271,3.271,0,0,0-.448.044Z" transform="translate(48.629 150.476)" fill="#363636"/>
      <path id="パス_103" data-name="パス 103" d="M285.99,176.971a7.571,7.571,0,0,1,1.5-.159,6.623,6.623,0,0,1,1.418.159L286.8,190.134h4.78a6.268,6.268,0,0,1-.04.721c-.029.229-.055.448-.082.655-.04.238-.088.47-.141.7s-.115.47-.183.721h-7.7Z" transform="translate(56.236 150.535)" fill="#363636"/>
      <path id="パス_104" data-name="パス 104" d="M295.213,176.958c.269-.046.558-.079.86-.1s.591-.033.86-.033a10.284,10.284,0,0,1,1.661.135l1.784,15.96a8.767,8.767,0,0,1-1.48.135,9.48,9.48,0,0,1-1.52-.135l-.262-3.218h-4.438l-1.295,3.218a8.487,8.487,0,0,1-1.52.135,7.7,7.7,0,0,1-1.458-.135Zm1.681,10.078-.527-6.394-2.594,6.394Z" transform="translate(62.226 150.548)" fill="#363636"/>
      <path id="パス_105" data-name="パス 105" d="M298.893,179.634H295.45a8.53,8.53,0,0,1,.11-1.363,9.954,9.954,0,0,1,.335-1.387h9.866a8.4,8.4,0,0,1-.112,1.354,11.355,11.355,0,0,1-.335,1.4h-3.443l-2.106,13.21a9.725,9.725,0,0,1-1.52.135,8.151,8.151,0,0,1-1.458-.135Z" transform="translate(70.719 150.622)" fill="#363636"/>
      <path id="パス_106" data-name="パス 106" d="M303.522,176.884h7.98l.009.176.011.179a6.026,6.026,0,0,1-.119,1.176,8.938,8.938,0,0,1-.346,1.22h-5.022l-.547,3.465h3.99a9.364,9.364,0,0,1-.446,2.775h-3.99l-.69,4.217h5.166l.011.168.009.165a5.269,5.269,0,0,1-.132,1.189c-.088.39-.19.8-.313,1.231H300.97Z" transform="translate(77.374 150.622)" fill="#363636"/>
      <path id="パス_107" data-name="パス 107" d="M319.346,182.645l.04-.223a7.741,7.741,0,0,0,.121-1.054c.013-.333.02-.611.02-.832a3.342,3.342,0,0,1,1.3-.534,7.281,7.281,0,0,1,1.438-.157,3.028,3.028,0,0,1,.1.845,6.407,6.407,0,0,1-.049.765c-.033.276-.079.573-.132.9l-.06.289h1.619a11.212,11.212,0,0,1-.132,1.209c-.06.364-.146.759-.251,1.189h-1.6l-.426,2.709a7.8,7.8,0,0,1-.88,2.664,5.369,5.369,0,0,1-1.5,1.7,5.478,5.478,0,0,1-1.974.889,10.164,10.164,0,0,1-2.309.254,7.066,7.066,0,0,1-1.895-.245,4.348,4.348,0,0,1-1.54-.754,3.58,3.58,0,0,1-1.043-1.332,4.573,4.573,0,0,1-.384-1.952,5.422,5.422,0,0,1,.282-1.789,5.861,5.861,0,0,1,.73-1.443,5.026,5.026,0,0,1,1.012-1.076,5.375,5.375,0,0,1,1.116-.688,3.1,3.1,0,0,1-.964-1.068,3.207,3.207,0,0,1-.395-1.619,4.271,4.271,0,0,1,.426-1.954,4.349,4.349,0,0,1,1.125-1.42,4.74,4.74,0,0,1,1.59-.867,5.879,5.879,0,0,1,1.822-.287,9.078,9.078,0,0,1,1.379.108,4.763,4.763,0,0,1,1.275.379,8.3,8.3,0,0,1-.161,1.176,4.356,4.356,0,0,1-.468,1.178,6,6,0,0,0-1.061-.322,5.165,5.165,0,0,0-.882-.077,3.055,3.055,0,0,0-.82.11,1.953,1.953,0,0,0-.69.344,1.744,1.744,0,0,0-.474.6,1.951,1.951,0,0,0-.183.876,1.638,1.638,0,0,0,.355,1.079,1.454,1.454,0,0,0,1.184.432Zm-.386,2.4h-2.532a4.673,4.673,0,0,0-1.185.123,3.243,3.243,0,0,0-.739.276,3.031,3.031,0,0,0-1.178,1.176,3.664,3.664,0,0,0-.443,1.844,2.014,2.014,0,0,0,.587,1.533,2.288,2.288,0,0,0,1.641.554,3.594,3.594,0,0,0,1.458-.267,2.9,2.9,0,0,0,1.032-.743,3.8,3.8,0,0,0,.69-1.143,6.875,6.875,0,0,0,.384-1.465Z" transform="translate(88.025 150.476)" fill="#363636"/>
      <path id="パス_108" data-name="パス 108" d="M329.439,189.973a7.321,7.321,0,0,1,.353,1.288,11.062,11.062,0,0,1,.172,1.4,5.183,5.183,0,0,1-.951.322,8.426,8.426,0,0,1-.982.179c-.32.037-.615.062-.893.077s-.494.022-.657.022a6.9,6.9,0,0,1-2.583-.443,4.928,4.928,0,0,1-1.842-1.255,5.182,5.182,0,0,1-1.105-1.932,8.047,8.047,0,0,1-.366-2.5,13.49,13.49,0,0,1,.589-4.041,10.73,10.73,0,0,1,1.65-3.3,7.9,7.9,0,0,1,2.563-2.219,6.868,6.868,0,0,1,3.322-.809,10.465,10.465,0,0,1,1.692.121,5.334,5.334,0,0,1,1.531.521,10.284,10.284,0,0,1-.315,1.288,10.556,10.556,0,0,1-.536,1.31,5.284,5.284,0,0,0-2.188-.465,4.112,4.112,0,0,0-2.329.644,5.078,5.078,0,0,0-1.59,1.676,7.834,7.834,0,0,0-.913,2.34,12.163,12.163,0,0,0-.293,2.645,3.767,3.767,0,0,0,.86,2.709,3.281,3.281,0,0,0,2.464.887c.2,0,.39-.007.567-.022s.349-.037.527-.066a4.313,4.313,0,0,0,.567-.146Q329.051,190.105,329.439,189.973Z" transform="translate(101.023 150.476)" fill="#363636"/>
      <path id="パス_109" data-name="パス 109" d="M329.153,177.05a12.336,12.336,0,0,1,1.568-.232c.479-.037.971-.055,1.471-.055a10.474,10.474,0,0,1,2,.187,5.137,5.137,0,0,1,1.745.666,3.55,3.55,0,0,1,1.235,1.31,4.253,4.253,0,0,1,.465,2.1,5.858,5.858,0,0,1-.273,1.844,6.789,6.789,0,0,1-.688,1.476,5.658,5.658,0,0,1-.9,1.109,6.94,6.94,0,0,1-.931.746l-.245.154,2.168,6.637a10.682,10.682,0,0,1-1.641.135,7.838,7.838,0,0,1-1.48-.135l-2.248-7.413.346-.223c.2-.132.465-.291.787-.479a4.57,4.57,0,0,0,.953-.732,4.221,4.221,0,0,0,.8-1.1,3.338,3.338,0,0,0,.333-1.555,2.283,2.283,0,0,0-.181-.966,1.7,1.7,0,0,0-.5-.631,1.891,1.891,0,0,0-.719-.344,3.488,3.488,0,0,0-.832-.1,2.91,2.91,0,0,0-.688.066l-2.166,13.474c-.271.031-.525.055-.761.079s-.47.033-.7.033-.452-.009-.708-.024a6.043,6.043,0,0,1-.77-.088Z" transform="translate(108.276 150.476)" fill="#363636"/>
      <path id="パス_110" data-name="パス 110" d="M339.292,176.958c.269-.046.558-.079.86-.1s.591-.033.862-.033a10.284,10.284,0,0,1,1.661.135l1.782,15.96a8.767,8.767,0,0,1-1.48.135,9.482,9.482,0,0,1-1.52-.135L341.2,189.7H336.76l-1.3,3.218a8.487,8.487,0,0,1-1.52.135,7.662,7.662,0,0,1-1.456-.135Zm1.681,10.078-.527-6.394-2.592,6.394Z" transform="translate(115.374 150.548)" fill="#363636"/>
      <path id="パス_111" data-name="パス 111" d="M342.321,176.884h7.98l.011.176.009.179a6.023,6.023,0,0,1-.119,1.176,8.909,8.909,0,0,1-.344,1.22h-5.025l-.587,3.752h3.99a8.477,8.477,0,0,1-.11,1.376,11.43,11.43,0,0,1-.335,1.4H343.8l-1.074,6.681a9.647,9.647,0,0,1-1.5.135,8.125,8.125,0,0,1-1.456-.135Z" transform="translate(124.155 150.622)" fill="#363636"/>
      <path id="パス_112" data-name="パス 112" d="M349.34,179.634h-3.445a8.268,8.268,0,0,1,.113-1.363,9.953,9.953,0,0,1,.335-1.387h9.864a8.386,8.386,0,0,1-.11,1.354,11.37,11.37,0,0,1-.335,1.4h-3.443l-2.109,13.21a9.725,9.725,0,0,1-1.52.135,8.125,8.125,0,0,1-1.456-.135Z" transform="translate(131.538 150.622)" fill="#363636"/>
      <path id="パス_113" data-name="パス 113" d="M356.86,177.03c.417-.075.882-.137,1.4-.19s1.059-.077,1.641-.077a11.533,11.533,0,0,1,2,.165,4.7,4.7,0,0,1,1.641.589,3.084,3.084,0,0,1,1.1,1.132,3.53,3.53,0,0,1,.406,1.776,4.1,4.1,0,0,1-.254,1.42,4.737,4.737,0,0,1-.66,1.233,4.2,4.2,0,0,1-.911.911,2.738,2.738,0,0,1-1.012.476,2.839,2.839,0,0,1,1.844,1.187,3.662,3.662,0,0,1,.646,2.122,5.542,5.542,0,0,1-.536,2.554,4.5,4.5,0,0,1-1.478,1.685,6.5,6.5,0,0,1-2.239.944,12.337,12.337,0,0,1-2.795.3c-.474,0-.966-.018-1.48-.055s-1.134-.108-1.862-.212Zm.768,13.519c.163.031.32.053.468.068l.446.022a5.278,5.278,0,0,0,1.041-.112,2.759,2.759,0,0,0,1.034-.432,2.551,2.551,0,0,0,.792-.889,3.052,3.052,0,0,0,.313-1.476,1.565,1.565,0,0,0-.6-1.4,2.917,2.917,0,0,0-1.63-.4h-1.116Zm2.067-7.06a2.565,2.565,0,0,0,.893-.165,2.157,2.157,0,0,0,.779-.5,2.562,2.562,0,0,0,.547-.854,3.271,3.271,0,0,0,.212-1.233,1.567,1.567,0,0,0-.183-.8,1.294,1.294,0,0,0-.465-.479,1.753,1.753,0,0,0-.626-.221,4.156,4.156,0,0,0-.668-.055,3.66,3.66,0,0,0-.73.066l-.688,4.239Z" transform="translate(141.682 150.476)" fill="#363636"/>
      <path id="パス_114" data-name="パス 114" d="M363.2,176.884h7.98l.009.176.011.179a5.862,5.862,0,0,1-.121,1.176,8.9,8.9,0,0,1-.344,1.22h-5.024l-.547,3.465h3.992a9.362,9.362,0,0,1-.446,2.775h-3.99l-.69,4.217h5.166l.009.168.011.165a5.4,5.4,0,0,1-.132,1.189c-.088.39-.192.8-.313,1.231h-8.121Z" transform="translate(149.322 150.622)" fill="#363636"/>
      <path id="パス_115" data-name="パス 115" d="M369.038,176.884h7.98l.009.176.011.179a5.862,5.862,0,0,1-.121,1.176,8.914,8.914,0,0,1-.344,1.22h-5.024L371,183.1h3.992a9.365,9.365,0,0,1-.446,2.775h-3.99l-.69,4.217h5.166l.011.168.009.165a5.4,5.4,0,0,1-.132,1.189c-.088.39-.192.8-.313,1.231h-8.121Z" transform="translate(156.365 150.622)" fill="#363636"/>
      <path id="パス_116" data-name="パス 116" d="M374.878,177.05a12.365,12.365,0,0,1,1.57-.232q.718-.056,1.469-.055a10.513,10.513,0,0,1,2,.187,5.143,5.143,0,0,1,1.742.666,3.55,3.55,0,0,1,1.235,1.31,4.255,4.255,0,0,1,.465,2.1,5.857,5.857,0,0,1-.273,1.844,6.686,6.686,0,0,1-.688,1.476,5.657,5.657,0,0,1-.9,1.109,6.946,6.946,0,0,1-.931.746l-.245.154,2.168,6.637a10.682,10.682,0,0,1-1.641.135,7.8,7.8,0,0,1-1.478-.135l-2.25-7.413.346-.223c.2-.132.465-.291.787-.479a4.513,4.513,0,0,0,.953-.732,4.225,4.225,0,0,0,.8-1.1,3.34,3.34,0,0,0,.333-1.555,2.283,2.283,0,0,0-.181-.966,1.7,1.7,0,0,0-.5-.631,1.891,1.891,0,0,0-.719-.344,3.489,3.489,0,0,0-.832-.1,2.91,2.91,0,0,0-.688.066l-2.166,13.474c-.271.031-.525.055-.761.079s-.47.033-.7.033c-.214,0-.452-.009-.708-.024a6.047,6.047,0,0,1-.77-.088Z" transform="translate(163.406 150.476)" fill="#363636"/>
      <path id="パス_117" data-name="パス 117" d="M304.859,81.981q7.629-6.617,19.432-6.624a32.351,32.351,0,0,1,19.432,6.021,24.557,24.557,0,0,1,16.653-6.021h6.246V86.8q-8.327-3.007-18.735-.6a18.392,18.392,0,0,1,4.855,12.645q0,10.839-7.632,17.462-6.945,6.025-20.127,6.021a39.547,39.547,0,0,1-14.573-3.011c-2.318,1.608-3.467,3.218-3.467,4.817a3.8,3.8,0,0,0,1.387,3.011q3.464,3.021,15.96,3.613,11.093.605,23.6,1.2,6.925,1.214,10.409,4.215,5.545,4.827,5.552,11.441a15.312,15.312,0,0,1-5.552,12.043q-7.646,6.617-33.312,6.624-21.515,0-29.146-6.624a13.08,13.08,0,0,1-4.857-10.237,9.235,9.235,0,0,1,3.469-7.226,32.952,32.952,0,0,1,8.329-4.817,32.273,32.273,0,0,1-4.859-3.613,9.841,9.841,0,0,1-3.47-7.828q0-6.012,10.409-11.441-7.643-6.62-7.632-15.656A21.333,21.333,0,0,1,304.859,81.981Zm8.329,58.408c-3.242.809-5.552,1.806-6.941,3.011a6.68,6.68,0,0,0,0,10.839q4.165,3.613,18.045,3.613,18.736,0,23.6-4.215c1.842-1.61,2.775-3.218,2.775-4.817a5.434,5.434,0,0,0-2.082-4.215q-2.782-2.4-9.716-2.409Q322.209,141.6,313.188,140.389ZM315.965,88.6a13.079,13.079,0,0,0-4.859,10.237,12.112,12.112,0,0,0,4.164,9.634,14.351,14.351,0,0,0,9.714,3.613c4.167,0,7.4-1,9.718-3.011q4.162-3.613,4.162-10.237A13.111,13.111,0,0,0,334.007,88.6c-2.32-2-5.552-3.011-9.716-3.011A12.284,12.284,0,0,0,315.965,88.6Z" transform="translate(65.33 28.214)" fill="#363636"/>
      <path id="パス_118" data-name="パス 118" d="M297.141,135.49c1.046-.216,1.974-.384,2.795-.512s1.568-.216,2.267-.271c.657-.051,1.454-.079,2.38-.088s1.844.013,2.739.066c-.029,6.355-.042,9.531-.071,15.883a53.127,53.127,0,0,1-6.785,2.373c-2.232.6-4.14,1.081-5.721,1.4a28.2,28.2,0,0,1-8.924.6,13.115,13.115,0,0,1-6.381-2.4,11.617,11.617,0,0,1-3.838-5.285,21.5,21.5,0,0,1-1.266-7.632,23.689,23.689,0,0,1,1.33-8.02,17.959,17.959,0,0,1,3.864-6.4,16.605,16.605,0,0,1,6.264-4.065,23.705,23.705,0,0,1,8.441-1.381,43.258,43.258,0,0,1,5.325.32,32.294,32.294,0,0,1,5.554,1.268,10.765,10.765,0,0,1-.9,3.553,19.521,19.521,0,0,1-1.581,2.989c-.779-.176-1.487-.329-2.12-.452s-1.248-.221-1.833-.289-1.162-.112-1.747-.135-1.2-.02-1.859.007A9.935,9.935,0,0,0,287.8,130c-1.709,1.879-2.559,4.643-2.567,8.2-.009,3.525.81,6.039,2.466,7.468s4.131,1.817,7.424,1.3a14.438,14.438,0,0,0,1.972-.441C297.113,142.111,297.121,139.9,297.141,135.49Z" transform="translate(45.263 81.748)" fill="#363636"/>
      <path id="パス_119" data-name="パス 119" d="M290.977,120.361q2.855-.222,5.269-.412t5.091-.19a48.721,48.721,0,0,1,6.4.428,22.632,22.632,0,0,1,5.7,1.458,10.757,10.757,0,0,1,4.067,2.821,6.607,6.607,0,0,1,1.573,4.528,6.835,6.835,0,0,1-.5,2.651,8.118,8.118,0,0,1-1.288,2.113,10.237,10.237,0,0,1-1.747,1.63,17.063,17.063,0,0,1-1.9,1.209c3.631,4.837,5.448,7.221,9.094,12.063-.94.117-1.959.216-3.07.3s-2.115.141-3.013.176c-.779.029-1.683.04-2.722.035s-1.934-.035-2.709-.1c-3.309-5.073-4.956-7.618-8.249-12.83.21-.093.313-.139.523-.229a7.346,7.346,0,0,0,1.548-.889,9.586,9.586,0,0,0,1.577-1.427,8.478,8.478,0,0,0,1.235-1.806,4.535,4.535,0,0,0,.5-2.04,3.094,3.094,0,0,0-1.628-2.929,7.878,7.878,0,0,0-4.014-.867c-.39.009-.717.031-.986.062a2.762,2.762,0,0,0-.527.095c-.035,9.456-.053,14.182-.09,23.638-2.062.446-3.752.761-5.08.915a48.981,48.981,0,0,1-5.188.271C290.9,138.765,290.922,132.631,290.977,120.361Z" transform="translate(65.16 81.748)" fill="#363636"/>
      <path id="パス_120" data-name="パス 120" d="M314.482,148.577c-.891.09-1.716.161-2.453.207s-1.462.073-2.164.075-1.511-.031-2.424-.086-1.945-.141-3.072-.249c5.252-11.465,7.865-17.014,13.064-28.378,1.008-.079,1.941-.146,2.821-.2s1.753-.079,2.64-.079c.741,0,1.544.029,2.413.082s1.877.124,3,.205c5.177,11.6,7.782,17.511,12.987,30.187-2.215-.011-4.162-.09-5.836-.254-.772-.075-1.557-.174-2.331-.3s-1.615-.276-2.512-.454c-.9-2.336-1.343-3.494-2.237-5.8-1.092.154-2.128.262-3.123.322a29.219,29.219,0,0,1-2.945.035c-.9-.035-1.811-.112-2.75-.234s-1.908-.285-2.92-.49C315.777,145.335,315.347,146.415,314.482,148.577Zm8.145-20.9c-1.555,4.1-2.331,6.136-3.891,10.2q.989.218,1.868.362a14.162,14.162,0,0,0,1.809.17,19.226,19.226,0,0,0,1.956-.038c.644-.044,1.31-.119,2.012-.227C324.877,133.927,324.127,131.836,322.627,127.68Z" transform="translate(81.472 81.879)" fill="#363636"/>
      <path id="パス_121" data-name="パス 121" d="M322.857,120.211c.812-.082,1.69-.159,2.642-.229s1.835-.106,2.649-.1q1.158,0,2.53.112t2.536.251c3.331,6.65,5,10.1,8.322,17.394,3.392-6.588,5.091-10.025,8.494-17.33.772-.095,1.562-.185,2.349-.265a22.534,22.534,0,0,1,2.358-.119,24.273,24.273,0,0,1,2.5.132c.854.088,1.692.187,2.5.3.8,15,1.193,22.608,1.974,38.035-.609-.064-1.295-.146-2.042-.245a25.948,25.948,0,0,1-2.964-.633,42.019,42.019,0,0,1-4.8-1.654c-.34-8.322-.512-12.458-.858-20.691-2.537,5.148-3.8,7.612-6.339,12.374-.7-.024-1.392-.062-2.089-.113s-1.339-.126-1.914-.218-1.184-.21-1.8-.351-1.259-.318-1.917-.534c-2.3-5.227-3.452-7.751-5.757-12.661-.225,7.226-.335,10.828-.56,18.007a31.847,31.847,0,0,1-4.652-.3,41.936,41.936,0,0,1-4.725-1C321.921,138.39,322.232,132.36,322.857,120.211Z" transform="translate(101.879 81.891)" fill="#363636"/>
      <g id="グループ_66" data-name="グループ 66" transform="translate(236.795 51.956)">
        <g id="グループ_65-2" data-name="グループ 65" clip-path="url(#clip-path)">
          <path id="パス_122" data-name="パス 122" d="M459.954,165.391H459.1a97.1,97.1,0,1,1-28.442-68.662A96.8,96.8,0,0,1,459.1,165.391h1.707A98.812,98.812,0,1,0,362,264.2a98.811,98.811,0,0,0,98.812-98.812Z" transform="translate(-204.979 -34.323)" fill="#363636"/>
          <path id="パス_123" data-name="パス 123" d="M466.809,167.814h-.856a101.535,101.535,0,1,1-29.739-71.8,101.212,101.212,0,0,1,29.739,71.8h1.709A103.244,103.244,0,1,0,364.418,271.059,103.246,103.246,0,0,0,467.663,167.814Z" transform="translate(-207.401 -36.746)" fill="#363636"/>
          <path id="パス_124" data-name="パス 124" d="M309.3,108.7V21.071H307.6V108.7" transform="translate(-151.433 -89.193)" fill="#363636"/>
          <path id="パス_125" data-name="パス 125" d="M309.065,108.674l-7.637-87.293-1.7.149,7.637,87.293" transform="translate(-160.92 -88.819)" fill="#363636"/>
          <path id="パス_126" data-name="パス 126" d="M308.817,108.671,293.6,22.376l-1.682.3,15.215,86.295" transform="translate(-170.332 -87.619)" fill="#363636"/>
          <path id="パス_127" data-name="パス 127" d="M308.565,108.689l-22.68-84.64-1.65.442,22.68,84.64" transform="translate(-179.597 -85.603)" fill="#363636"/>
          <path id="パス_128" data-name="パス 128" d="M308.307,108.727l-29.97-82.341-1.6.584,29.97,82.341" transform="translate(-188.644 -82.786)" fill="#363636"/>
          <path id="パス_129" data-name="パス 129" d="M308.047,108.785,271.015,29.369l-1.548.722L306.5,109.507" transform="translate(-197.404 -79.188)" fill="#363636"/>
          <path id="パス_130" data-name="パス 130" d="M307.785,108.863,263.973,32.977l-1.479.854,43.812,75.886" transform="translate(-205.81 -74.838)" fill="#363636"/>
          <path id="パス_131" data-name="パス 131" d="M307.528,108.96,257.267,37.182l-1.4.98,50.261,71.779" transform="translate(-213.8 -69.769)" fill="#363636"/>
          <path id="パス_132" data-name="パス 132" d="M307.271,109.076,250.946,41.951l-1.308,1.1,56.325,67.126" transform="translate(-221.31 -64.019)" fill="#363636"/>
          <path id="パス_133" data-name="パス 133" d="M307.02,109.209,245.06,47.248l-1.208,1.208,61.96,61.961" transform="translate(-228.286 -57.632)" fill="#363636"/>
          <path id="パス_134" data-name="パス 134" d="M306.778,109.358,239.653,53.034l-1.1,1.308,67.126,56.324" transform="translate(-234.673 -50.656)" fill="#363636"/>
          <path id="パス_135" data-name="パス 135" d="M306.544,109.524l-71.779-50.26-.98,1.4,71.779,50.26" transform="translate(-240.423 -43.145)" fill="#363636"/>
          <path id="パス_136" data-name="パス 136" d="M306.322,109.7,230.435,65.89l-.854,1.479,75.886,43.814" transform="translate(-245.492 -35.156)" fill="#363636"/>
          <path id="パス_137" data-name="パス 137" d="M306.112,109.895,226.695,72.863l-.722,1.548,79.417,37.032" transform="translate(-249.843 -26.749)" fill="#363636"/>
          <path id="パス_138" data-name="パス 138" d="M305.916,110.1l-82.342-29.97-.584,1.6,82.342,29.97" transform="translate(-253.44 -17.989)" fill="#363636"/>
          <path id="パス_139" data-name="パス 139" d="M305.735,110.312l-84.64-22.68-.442,1.65,84.64,22.68" transform="translate(-256.257 -8.943)" fill="#363636"/>
          <path id="パス_140" data-name="パス 140" d="M305.572,110.532,219.277,95.316l-.3,1.682,86.295,15.216" transform="translate(-258.273 0.322)" fill="#363636"/>
          <path id="パス_141" data-name="パス 141" d="M305.427,110.76l-87.292-7.637-.149,1.7,87.292,7.637" transform="translate(-259.473 9.734)" fill="#363636"/>
          <path id="パス_142" data-name="パス 142" d="M305.3,110.992H217.675V112.7H305.3" transform="translate(-259.847 19.222)" fill="#363636"/>
          <path id="パス_143" data-name="パス 143" d="M305.278,115.4l-87.292,7.637.149,1.7,87.292-7.637" transform="translate(-259.473 24.539)" fill="#363636"/>
          <path id="パス_144" data-name="パス 144" d="M305.275,119.781,218.981,135l.3,1.682,86.295-15.217" transform="translate(-258.273 29.818)" fill="#363636"/>
          <path id="パス_145" data-name="パス 145" d="M305.293,124.1l-84.64,22.68.442,1.65,84.64-22.68" transform="translate(-256.257 35.021)" fill="#363636"/>
          <path id="パス_146" data-name="パス 146" d="M305.332,128.315l-82.342,29.97.584,1.6,82.342-29.97" transform="translate(-253.44 40.108)" fill="#363636"/>
          <path id="パス_147" data-name="パス 147" d="M305.39,132.4l-79.417,37.032.722,1.548,79.417-37.032" transform="translate(-249.843 45.038)" fill="#363636"/>
          <path id="パス_148" data-name="パス 148" d="M305.468,136.334l-75.886,43.814.854,1.479,75.886-43.814" transform="translate(-245.492 49.776)" fill="#363636"/>
          <path id="パス_149" data-name="パス 149" d="M305.564,140.074l-71.779,50.26.98,1.4,71.779-50.26" transform="translate(-240.423 54.285)" fill="#363636"/>
          <path id="パス_150" data-name="パス 150" d="M305.681,143.6l-67.126,56.324,1.1,1.308L306.778,144.9" transform="translate(-234.673 58.53)" fill="#363636"/>
          <path id="パス_151" data-name="パス 151" d="M305.813,146.871l-61.96,61.961,1.208,1.208,61.961-61.961" transform="translate(-228.286 62.48)" fill="#363636"/>
          <path id="パス_152" data-name="パス 152" d="M305.963,149.877,249.638,217l1.308,1.1,56.325-67.126" transform="translate(-221.31 66.104)" fill="#363636"/>
          <path id="パス_153" data-name="パス 153" d="M306.129,152.59l-50.261,71.779,1.4.98,50.261-71.779" transform="translate(-213.8 69.375)" fill="#363636"/>
          <path id="パス_154" data-name="パス 154" d="M306.306,154.989l-43.812,75.886,1.479.854,43.812-75.886" transform="translate(-205.81 72.268)" fill="#363636"/>
          <path id="パス_155" data-name="パス 155" d="M306.5,157.057l-37.033,79.416,1.548.722,37.033-79.416" transform="translate(-197.404 74.76)" fill="#363636"/>
          <path id="パス_156" data-name="パス 156" d="M306.7,158.777l-29.97,82.341,1.6.584,29.97-82.341" transform="translate(-188.644 76.834)" fill="#363636"/>
          <path id="パス_157" data-name="パス 157" d="M306.916,160.136l-22.68,84.64,1.65.442,22.68-84.64" transform="translate(-179.597 78.473)" fill="#363636"/>
          <path id="パス_158" data-name="パス 158" d="M307.135,161.124,291.92,247.419l1.682.3,15.215-86.295" transform="translate(-170.332 79.664)" fill="#363636"/>
          <path id="パス_159" data-name="パス 159" d="M307.363,161.733l-7.637,87.293,1.7.149,7.637-87.293" transform="translate(-160.92 80.399)" fill="#363636"/>
          <path id="パス_160" data-name="パス 160" d="M307.6,161.959v87.626H309.3V161.959" transform="translate(-151.433 80.671)" fill="#363636"/>
          <path id="パス_161" data-name="パス 161" d="M312.006,161.882l7.638,87.293,1.7-.149-7.638-87.293" transform="translate(-146.116 80.399)" fill="#363636"/>
          <path id="パス_162" data-name="パス 162" d="M316.385,161.42,331.6,247.715l1.682-.3-15.217-86.295" transform="translate(-140.836 79.664)" fill="#363636"/>
          <path id="パス_163" data-name="パス 163" d="M320.7,160.578l22.678,84.64,1.65-.442-22.678-84.64" transform="translate(-135.633 78.473)" fill="#363636"/>
          <path id="パス_164" data-name="パス 164" d="M324.919,159.361,354.89,241.7l1.6-.584-29.971-82.341" transform="translate(-130.547 76.834)" fill="#363636"/>
          <path id="パス_165" data-name="パス 165" d="M329.008,157.778l37.033,79.416,1.548-.722-37.033-79.416" transform="translate(-125.616 74.76)" fill="#363636"/>
          <path id="パス_166" data-name="パス 166" d="M332.938,155.843l43.814,75.886,1.479-.854-43.814-75.886" transform="translate(-120.879 72.268)" fill="#363636"/>
          <path id="パス_167" data-name="パス 167" d="M336.678,153.569l50.259,71.779,1.4-.98-50.26-71.779" transform="translate(-116.37 69.375)" fill="#363636"/>
          <path id="パス_168" data-name="パス 168" d="M340.2,150.975,396.524,218.1l1.308-1.1-56.325-67.126" transform="translate(-112.124 66.104)" fill="#363636"/>
          <path id="パス_169" data-name="パス 169" d="M343.475,148.079l61.962,61.961,1.208-1.208-61.962-61.961" transform="translate(-108.175 62.48)" fill="#363636"/>
          <path id="パス_170" data-name="パス 170" d="M346.481,144.9l67.126,56.324,1.1-1.308L347.579,143.6" transform="translate(-104.55 58.53)" fill="#363636"/>
          <path id="パス_171" data-name="パス 171" d="M349.194,141.473l71.779,50.26.98-1.4-71.779-50.26" transform="translate(-101.279 54.285)" fill="#363636"/>
          <path id="パス_172" data-name="パス 172" d="M351.593,137.813l75.886,43.814.854-1.479-75.886-43.814" transform="translate(-98.386 49.776)" fill="#363636"/>
          <path id="パス_173" data-name="パス 173" d="M353.661,133.952l79.415,37.032.722-1.548L354.383,132.4" transform="translate(-95.893 45.038)" fill="#363636"/>
          <path id="パス_174" data-name="パス 174" d="M355.381,129.92l82.342,29.97.584-1.6-82.342-29.97" transform="translate(-93.82 40.108)" fill="#363636"/>
          <path id="パス_175" data-name="パス 175" d="M356.74,125.746l84.64,22.68.442-1.65-84.64-22.68" transform="translate(-92.181 35.021)" fill="#363636"/>
          <path id="パス_176" data-name="パス 176" d="M357.728,121.463l86.295,15.217.3-1.682-86.295-15.217" transform="translate(-90.99 29.818)" fill="#363636"/>
          <path id="パス_177" data-name="パス 177" d="M358.337,117.1l87.292,7.637.149-1.7L358.486,115.4" transform="translate(-90.255 24.539)" fill="#363636"/>
          <path id="パス_178" data-name="パス 178" d="M358.563,112.7h87.626v-1.708H358.563" transform="translate(-89.983 19.222)" fill="#363636"/>
          <path id="パス_179" data-name="パス 179" d="M358.486,112.461l87.292-7.637-.149-1.7-87.292,7.637" transform="translate(-90.255 9.734)" fill="#363636"/>
          <path id="パス_180" data-name="パス 180" d="M358.024,112.214,444.319,97l-.3-1.682-86.295,15.216" transform="translate(-90.99 0.322)" fill="#363636"/>
          <path id="パス_181" data-name="パス 181" d="M357.182,111.961l84.64-22.68-.442-1.65-84.64,22.68" transform="translate(-92.181 -8.943)" fill="#363636"/>
          <path id="パス_182" data-name="パス 182" d="M355.964,111.7l82.342-29.97-.584-1.6L355.381,110.1" transform="translate(-93.82 -17.989)" fill="#363636"/>
          <path id="パス_183" data-name="パス 183" d="M354.383,111.442,433.8,74.411l-.722-1.548-79.415,37.032" transform="translate(-95.893 -26.749)" fill="#363636"/>
          <path id="パス_184" data-name="パス 184" d="M352.447,111.183l75.886-43.814-.854-1.479L351.593,109.7" transform="translate(-98.386 -35.156)" fill="#363636"/>
          <path id="パス_185" data-name="パス 185" d="M350.174,110.923l71.779-50.26-.98-1.4-71.779,50.26" transform="translate(-101.279 -43.145)" fill="#363636"/>
          <path id="パス_186" data-name="パス 186" d="M347.579,110.667,414.7,54.342l-1.1-1.308-67.126,56.324" transform="translate(-104.55 -50.656)" fill="#363636"/>
          <path id="パス_187" data-name="パス 187" d="M344.682,110.417l61.962-61.961-1.208-1.208-61.962,61.961" transform="translate(-108.175 -57.632)" fill="#363636"/>
          <path id="パス_188" data-name="パス 188" d="M341.507,110.174l56.325-67.126-1.308-1.1L340.2,109.076" transform="translate(-112.124 -64.019)" fill="#363636"/>
          <path id="パス_189" data-name="パス 189" d="M338.077,109.94l50.26-71.779-1.4-.98L336.678,108.96" transform="translate(-116.37 -69.769)" fill="#363636"/>
          <path id="パス_190" data-name="パス 190" d="M334.417,109.717,378.23,33.831l-1.479-.854-43.814,75.886" transform="translate(-120.879 -74.838)" fill="#363636"/>
          <path id="パス_191" data-name="パス 191" d="M330.556,109.507l37.033-79.416-1.548-.722-37.033,79.416" transform="translate(-125.616 -79.188)" fill="#363636"/>
          <path id="パス_192" data-name="パス 192" d="M326.523,109.311l29.971-82.341-1.6-.584-29.971,82.341" transform="translate(-130.547 -82.786)" fill="#363636"/>
          <path id="パス_193" data-name="パス 193" d="M322.35,109.131l22.678-84.64-1.65-.442L320.7,108.689" transform="translate(-135.633 -85.603)" fill="#363636"/>
          <path id="パス_194" data-name="パス 194" d="M318.067,108.968l15.217-86.295-1.682-.3-15.217,86.295" transform="translate(-140.836 -87.619)" fill="#363636"/>
          <path id="パス_195" data-name="パス 195" d="M313.707,108.823l7.638-87.293-1.7-.149-7.638,87.293" transform="translate(-146.116 -88.819)" fill="#363636"/>
        </g>
      </g>
      <path id="パス_197" data-name="パス 197" d="M302.845,152.253a3.53,3.53,0,0,1-1.057,2.572,3.447,3.447,0,0,1-2.545,1.068h-3.6v-15.21h3.6a3.441,3.441,0,0,1,2.552,1.068,3.522,3.522,0,0,1,1.05,2.559Zm-4.914,1.37h1.383a1.219,1.219,0,0,0,.922-.393,1.3,1.3,0,0,0,.377-.929v-7.958a1.281,1.281,0,0,0-.384-.933,1.237,1.237,0,0,0-.915-.388h-1.383Z" transform="translate(70.946 106.974)" fill="#363636"/>
      <rect id="長方形_27" data-name="長方形 27" width="2.292" height="15.198" transform="translate(377.085 247.668)" fill="#363636"/>
      <path id="パス_198" data-name="パス 198" d="M305.522,140.682l3.042,10.222V140.682h2.293v15.21h-2.463l-3.154-9.74v9.74h-2.291v-15.21Z" transform="translate(79.76 106.974)" fill="#363636"/>
      <rect id="長方形_28" data-name="長方形 28" width="2.292" height="15.198" transform="translate(393.946 247.668)" fill="#363636"/>
      <path id="パス_199" data-name="パス 199" d="M313.166,140.682l3.042,10.222V140.682H318.5v15.21h-2.463l-3.154-9.74v9.74h-2.292v-15.21Z" transform="translate(88.976 106.974)" fill="#363636"/>
      <path id="パス_200" data-name="パス 200" d="M319.311,156.171a3.634,3.634,0,0,1-3.639-3.624v-8.3a3.636,3.636,0,0,1,6.209-2.572,3.527,3.527,0,0,1,1.057,2.572v1.734H320.56V144.2a1.329,1.329,0,0,0-1.321-1.323,1.249,1.249,0,0,0-.929.39,1.286,1.286,0,0,0-.384.933v8.32a1.316,1.316,0,0,0,2.245.929,1.246,1.246,0,0,0,.388-.924v-2.986h-1.273v-2.3h3.65v5.313a3.618,3.618,0,0,1-3.626,3.624Z" transform="translate(95.1 106.887)" fill="#363636"/>
    </g>
  </g>
</svg>
