<svg xmlns="http://www.w3.org/2000/svg" width="400" height="350" viewBox="0 0 400 350">
  <g id="logo_14" transform="translate(-1261 -4080)">
    <rect id="長方形_21" data-name="長方形 21" width="400" height="350" transform="translate(1261 4080)" fill="none"/>
    <g id="グループ_177" data-name="グループ 177" transform="translate(1229.456 3930.711)">
      <g id="グループ_175" data-name="グループ 175" transform="translate(71.544 193.289)">
        <path id="パス_693" data-name="パス 693" d="M127.34,305.676a1.072,1.072,0,0,1-1.067-1.167l.148-1.677c.013-.161.027-.317.038-.476-5.2-4.739-21.334-10.664-21.5-10.726a1.072,1.072,0,0,1,.452-2.075,45.34,45.34,0,0,1,9.484,1.737,1.071,1.071,0,0,1-.1-.79,1.03,1.03,0,0,1,1.075-.809,22.286,22.286,0,0,1,10.672,2.769,58.831,58.831,0,0,0-16.382-37.216c.207,7.272-.406,15.492-3.812,18.508a1.069,1.069,0,0,1-1.734-.487c-.194-.618-4.1-13.481-2.686-21.869-4.626,3.876-13.965,13.059-14.825,24.64a1.072,1.072,0,0,1-.968.989,1.059,1.059,0,0,1-1.137-.79c-.059-.223-5.264-20.428,6.581-29.353-5.586.419-15.054,1.987-17.9,7.756a1.074,1.074,0,0,1-2.011-.247,10.933,10.933,0,0,1,1.987-7.995c2.446-3.556,6.758-6.159,12.855-7.766-3.051-.409-6.788-.53-9.218.707-.492.247-1.987,1.008-2.909.142a1.685,1.685,0,0,1-.242-2.027c.954-2.234,6.505-7.428,14.586-6.965a26.643,26.643,0,0,1,9.78,2.067c-2.167-4.024-6.419-9.78-12.75-9.559a1.071,1.071,0,0,1-.642-1.957c.274-.188,6.85-4.589,13.336-2.167,4.118,1.538,7.177,5.43,9.108,11.584,4.492-3.89,19.817-15.213,36.31-5.28a1.074,1.074,0,0,1-.535,1.992c-.194,0-12.135.263-21.7,4.059,6.946-.387,8.511,2.573,9.89,5.186a10.76,10.76,0,0,0,1.406,2.218c1.669,1.858,8.925,2.89,13.108,3.1a1.072,1.072,0,0,1,.618,1.906c-.341.277-8.476,6.774-15.32,5.449a22.72,22.72,0,0,1-6.161-2.581c-3.952-2.121-7.409-3.976-11.1-.64,10.436,6.575,18.094,17.936,22.2,32.952a91.644,91.644,0,0,1,3.245,23.767l-.027,1.325a1.073,1.073,0,0,1-1,1.048l-9.094.586a1.067,1.067,0,0,1-.86.054l-1.118.073Zm.333-5.108c.234.2.449.406.651.6a1.082,1.082,0,0,1,.309.836l-.019.245c-.016.253-.035.508-.059.766l-.038.433.309-.019.065,0,.065-.005,8.409-.543.005-.344a89.148,89.148,0,0,0-3.172-23.154c-4.1-15.022-11.842-26.218-22.382-32.379a1.067,1.067,0,0,1-.261-1.634c5.172-5.836,10.2-3.132,14.635-.75a20.955,20.955,0,0,0,5.557,2.363c3.858.747,8.462-1.618,11.194-3.352-3.691-.393-9.61-1.349-11.6-3.567a12.427,12.427,0,0,1-1.707-2.651c-1.269-2.4-2.371-4.479-8.39-4.011-8.2.634-11.2,9.229-11.231,9.317a1.063,1.063,0,0,1-1.282.694,1.075,1.075,0,0,1-.79-1.226c2.331-13.116,22.568-16.215,31.358-16.944-16.721-7.038-31.363,7.758-31.519,7.919a1.073,1.073,0,0,1-1.807-.473c-1.691-6.414-4.468-10.387-8.255-11.807a11.918,11.918,0,0,0-8.315.4c8.686,2.4,12.667,13.809,12.852,14.358a1.072,1.072,0,0,1-1.97.831c-.005-.011-2.005-3.315-11.672-3.844a15.209,15.209,0,0,0-11.678,4.519c5.546-2.282,14.879.32,15.288.436a1.072,1.072,0,0,1-.132,2.091c-8.153,1.247-13.906,3.973-16.632,7.885a9.949,9.949,0,0,0-1.47,3.116c6.672-6.428,21.183-6.1,21.871-6.078a1.073,1.073,0,0,1,.39,2.059c-6.25,2.667-9.7,8.317-10.264,16.8a39.948,39.948,0,0,0,.126,6.449A39.467,39.467,0,0,1,94.6,255.493a52.361,52.361,0,0,1,8.675-7.86,1.071,1.071,0,0,1,1.573,1.341c-2.581,5.481-.011,16.893,1.223,21.581,1.613-3.2,2.288-9.618,1.825-17.925a1.072,1.072,0,0,1,1.8-.841,61.029,61.029,0,0,1,19.086,42.751,1.072,1.072,0,0,1-1.745.871,15.325,15.325,0,0,0-5.618-2.772,38.579,38.579,0,0,1,7.07,5.169,1.068,1.068,0,0,1,.306.78c-.008.374-.016.661-.027.954a1.073,1.073,0,0,1-.659.946A1.056,1.056,0,0,1,127.673,300.569Zm-11.226-6.5a74.876,74.876,0,0,1,8.14,4.28A33.423,33.423,0,0,0,116.447,294.066Z" transform="translate(-71.544 -151.322)" fill="#363636"/>
        <path id="パス_694" data-name="パス 694" d="M126.489,261.062a1.06,1.06,0,0,1-.608-.191c-30.379-20.938-51.971-7.7-52.186-7.567a1.072,1.072,0,0,1-1.269-1.72,33.432,33.432,0,0,1,27.449-6.25c15.643,3.382,26.863,13.436,27.334,13.863a1.072,1.072,0,0,1-.72,1.866ZM91.816,246.871a50.284,50.284,0,0,1,8.18.685c-.191-.043-.382-.086-.575-.126a30.4,30.4,0,0,0-9.949-.5C90.222,246.892,91,246.871,91.816,246.871Z" transform="translate(-70.693 -106.708)" fill="#363636"/>
        <path id="パス_695" data-name="パス 695" d="M116.727,215.835l-.274-.013a2.625,2.625,0,0,1-2.336-2.879,2.625,2.625,0,0,1,2.876-2.333h0a2.627,2.627,0,0,1,2.336,2.876,2.625,2.625,0,0,1-2.6,2.35Zm-.005-4.081a1.46,1.46,0,0,0-.151,2.911,1.423,1.423,0,0,0,1.073-.317,1.462,1.462,0,0,0-.769-2.586Z" transform="translate(0.303 -164.073)" fill="#363636"/>
        <path id="パス_696" data-name="パス 696" d="M132.808,260.98l-22.046-2.29.253-2.43-.016-.027v-.239l.067-.215.046-.438.274-.019c.341-.347,1.215-.839,3.745-1.038l.043-.417.013-.107-1.855-.269-2.159-34.229,1.538.159a12.072,12.072,0,0,1,6.678-7.363l-1.43-8.86a2.561,2.561,0,0,1,2.121-2.936l.425-.07a2.561,2.561,0,0,1,2.938,2.121l1.406,8.71a4.8,4.8,0,0,1,.707.019l2.524.261a12.161,12.161,0,0,1,10.85,10.842l1.535.159-9.28,33.775-1.457-.212c2.067.642,2.8,1.237,3.081,1.626l.266.027.032.589Zm-10.731-2.28,9.7,1.005.148-1.427-.035-.067c-.064-.177-.788-.8-3.352-1.484l-.594-.161.25-.737.051-.148.046-.452-.016-.1.021-.648,2.046.3,8.645-31.463-1.137-.118-.035-.489a11,11,0,0,0-9.852-10.253l-2.522-.263a4.763,4.763,0,0,0-.677-.008l-.406.008-.492,0-1.565-9.7a1.4,1.4,0,0,0-.565-.911,1.422,1.422,0,0,0-1.043-.247l-.425.07a1.4,1.4,0,0,0-1.161,1.6l1.578,9.774-.433.169a10.933,10.933,0,0,0-6.562,7.25l-.132.47-1.14-.118,2.016,31.922,2.368.341-.323.7a1.545,1.545,0,0,0-.151.46l-.048.454.019.153.091.777-.61.032c-2.653.148-3.487.6-3.586.766l-.005.038-.151,1.449Zm-4.3-19.7-.266-.013a2.624,2.624,0,0,1-2.323-2.229l-.059.032-.761-14.237,22.447,2.331-1.591,5.527-.669-.478a1.377,1.377,0,0,0-.677-.288,1.45,1.45,0,0,0-1.6,1.3,1.433,1.433,0,0,0,.855,1.454l1.645.755-4.075.78-.062-.632a1.427,1.427,0,0,0-1.263-1.317,1.446,1.446,0,0,0-1.411.729l-.349.6.3.683a1.4,1.4,0,0,0,1.011.828l.656.143-.234.629a2.61,2.61,0,0,1-2.691,1.7,2.11,2.11,0,0,1-.581-.164l-.427-.175-.016-.492.032-.121a1.429,1.429,0,0,0-.242-.844l-.462-.747.868-.132a1.442,1.442,0,0,0,1.051-.685l.347-.6-.3-.683a1.426,1.426,0,0,0-2.231-.567,1.462,1.462,0,0,0-.53.984,1.405,1.405,0,0,0,.237.9l.462.747-.868.132a1.391,1.391,0,0,0-.815.414l-.126.132-1.194.226.065-.761a1.445,1.445,0,0,0-2.39-1.223l-.476.409-.016.656a1.415,1.415,0,0,0,.952,1.374l.433.159-.054.457A2.636,2.636,0,0,1,117.781,239Zm-.148-1.167a1.454,1.454,0,0,0,1.495-.9,2.6,2.6,0,0,1-1.086-1.331,2.563,2.563,0,0,1-1.159.145,3.1,3.1,0,0,1-.358-.062l-.124.333-.07.207A1.466,1.466,0,0,0,117.633,237.832Zm9.194-1.677a1.356,1.356,0,0,0,1.134-.46,2.616,2.616,0,0,1-.634-.5,2.688,2.688,0,0,1-.6.376A2.464,2.464,0,0,1,126.827,236.154Zm-9.9-1.567.075.008a1.432,1.432,0,0,0,1.091-.344l.479-.409.016-.659a1.428,1.428,0,0,0-2.642-.817l-.586.9.675.812a1.457,1.457,0,0,0,.777.487l.153-.081Zm3.559-2.465.269.013a2.594,2.594,0,0,1,2.234,1.844l.126-.062a2.4,2.4,0,0,1-.1-.965,2.616,2.616,0,0,1,2.876-2.333,2.528,2.528,0,0,1,1.632.833,2.623,2.623,0,0,1,1.976-.624,2.546,2.546,0,0,1,1.7.9,2.552,2.552,0,0,1-.07-.906A2.629,2.629,0,0,1,134,228.487a2.177,2.177,0,0,1,.535.124l.785-2.718L115.6,223.845l.371,6.973a2.572,2.572,0,0,1,3.629,1.46A2.517,2.517,0,0,1,120.485,232.122Z" transform="translate(-5.336 -181.694)" fill="#363636"/>
        <path id="パス_697" data-name="パス 697" d="M141.483,231.739l-.137-.016-17.965-4.355a.583.583,0,0,1-.438-.487,37.534,37.534,0,0,1-.43-5.893.9.9,0,0,1,.435-.618,1.923,1.923,0,0,1,1.417-.04,2.971,2.971,0,0,1,.61-.97,13.177,13.177,0,0,1,6.159-3.145,1.372,1.372,0,0,1,.637-.573,1.916,1.916,0,0,1,1.774.3,2.7,2.7,0,0,1,.882.8,1.769,1.769,0,0,1,1.6.038,2.155,2.155,0,0,1,.737.6,1.468,1.468,0,0,1,.683-.285,1.135,1.135,0,0,1,.987.374,8.442,8.442,0,0,1,1.22,1.618c.075.091,2.505,3.39,1.9,5.919l1.078.263a58.779,58.779,0,0,1,7.839-2.126c4.124-.774,8.53.36,12.417,1.363l1.349.344c1.207.282,5.172,1.3,5.914,2.656a1.1,1.1,0,0,1,.086.911,1.559,1.559,0,0,1-.828.906,4.952,4.952,0,0,1-3.169-.151,64.325,64.325,0,0,0-11.438-2.151c-2.234-.121-5.863.952-10.234,3.008a7.368,7.368,0,0,1-2.93,1.686Zm-17.441-5.406,17.422,4.223a5.991,5.991,0,0,0,2.336-1.4l.177-.129c3.242-1.532,7.764-3.339,10.885-3.164a64.371,64.371,0,0,1,11.734,2.2,3.936,3.936,0,0,0,2.317.21.41.41,0,0,0,.231-.247c-.153-.452-2.618-1.454-5.175-2.051l-.011,0-1.36-.347c-3.954-1.021-8.043-2.078-11.909-1.344a57.409,57.409,0,0,0-7.844,2.137.574.574,0,0,1-.323.016l-1.871-.46a.581.581,0,0,1-.379-.828c.828-1.6-.866-4.47-1.589-5.438a7.81,7.81,0,0,0-1.083-1.438c-.167.005-.492.331-.677.648a.581.581,0,0,1-1.019-.559c.03-.073.064-.306-.414-.559-.411-.215-.825.089-1.1.382a.581.581,0,0,1-.914-.707c.005-.059-.048-.247-.538-.546-.374-.231-.613-.269-.71-.226l-.137.185a.582.582,0,0,1-.608.454,11.886,11.886,0,0,0-5.645,2.788,1.173,1.173,0,0,0-.411.849.587.587,0,0,1-.2.543.578.578,0,0,1-.567.1,3.8,3.8,0,0,0-1.03-.253A40.188,40.188,0,0,0,124.042,226.333Z" transform="translate(14.427 -155.736)" fill="#363636"/>
        <path id="パス_698" data-name="パス 698" d="M90.863,272.8l-.035,0c-.019-.008,0-.1.067-.3s.148-.441.272-.753a.587.587,0,0,1,.183-.215,1.425,1.425,0,0,1,.417-.212,3.242,3.242,0,0,1,.669-.137,4.838,4.838,0,0,1,.96.013,8.5,8.5,0,0,1,1.272.237,13.271,13.271,0,0,1,1.6.532,7.938,7.938,0,0,1,1.175.548,2.233,2.233,0,0,1,.57.454.571.571,0,0,1,.159.39,1.274,1.274,0,0,1-.078.347,1.692,1.692,0,0,1-.175.323.6.6,0,0,1-.32.218,1.445,1.445,0,0,1-.573.016,4.382,4.382,0,0,1-.925-.277,4.966,4.966,0,0,1-.5-.226q-.544.742-.973,1.363t-.788,1.148q-.363.524-.677.984c-.212.306-.422.618-.637.927s-.441.64-.675.984-.489.71-.774,1.1-.6.831-.946,1.317-.75,1.043-1.2,1.667c.027.011.1.046.207.1s.228.121.363.2.274.177.422.282a2.711,2.711,0,0,1,.39.331,1.339,1.339,0,0,1,.247.347.406.406,0,0,1,.024.333c-.086.218-.358.349-.812.409-.108-.043-.282-.113-.524-.207l-.852-.336c-.323-.126-.68-.266-1.056-.417s-.755-.3-1.132-.441-.745-.29-1.1-.433l-.938-.379c-.266-.107-.481-.2-.642-.269a.83.83,0,0,1-.239-.118l.1-.043.223-.073.263-.148a.8.8,0,0,0,.237-.28c.043-.081.167-.129.363-.145a3.847,3.847,0,0,1,.686.024,7.12,7.12,0,0,1,.8.134c.282.062.524.126.728.191.444-.613.884-1.22,1.325-1.831s.871-1.229,1.29-1.858.828-1.21,1.226-1.742.774-1.03,1.134-1.492.68-.9.97-1.293a12.366,12.366,0,0,1,.8-1.011c-.2-.054-.379-.1-.532-.134s-.288-.064-.414-.086-.245-.032-.358-.04-.234-.016-.358-.021-.258-.005-.4-.005S91.059,272.8,90.863,272.8Z" transform="translate(-51.71 -61.809)" fill="#363636"/>
        <path id="パス_699" data-name="パス 699" d="M91.055,279.813q1.161-1.375,2.151-2.35a19.443,19.443,0,0,1,1.82-1.613,10.038,10.038,0,0,1,1.511-.987,5.461,5.461,0,0,1,1.253-.473,3.089,3.089,0,0,1,1.882.121,1.469,1.469,0,0,1,.675.5,1.83,1.83,0,0,1,.309.728,2.447,2.447,0,0,1,.016.817,3.543,3.543,0,0,1-.207.793,9.935,9.935,0,0,1-.495,1.051q-.3.565-.672,1.183c-.242.417-.5.841-.772,1.28s-.527.866-.772,1.288-.481.839-.7,1.253a12.628,12.628,0,0,0-.554,1.2c-.048.124-.1.263-.151.419a3.915,3.915,0,0,0-.137.487,3.583,3.583,0,0,0-.075.505,1.57,1.57,0,0,0,.038.481,1.007,1.007,0,0,0,.194.409.939.939,0,0,0,.411.288,2.08,2.08,0,0,0,.863.126,5.318,5.318,0,0,0,1-.148,8.865,8.865,0,0,0,1-.314c.331-.126.626-.247.882-.366s.468-.218.626-.3.234-.132.237-.137l-.2,1.874a7.465,7.465,0,0,1-.828.444,8.4,8.4,0,0,1-.93.355,8.659,8.659,0,0,1-.995.245,7.649,7.649,0,0,1-1.008.11,6.113,6.113,0,0,1-.973-.046,3.98,3.98,0,0,1-.9-.231,2.445,2.445,0,0,1-.879-.565,2.369,2.369,0,0,1-.511-.785,3.1,3.1,0,0,1-.207-.941,5.5,5.5,0,0,1,.03-1.027,7.644,7.644,0,0,1,.212-1.032,9.536,9.536,0,0,1,.325-.97,7.87,7.87,0,0,1,.565-1.151c.218-.366.449-.715.691-1.057s.495-.664.75-.976.5-.629.731-.944.449-.626.645-.93a5.5,5.5,0,0,0,.473-.917c.035-.086.07-.2.116-.347a2.092,2.092,0,0,0,.094-.43,1,1,0,0,0-.024-.4.385.385,0,0,0-.242-.261,1.049,1.049,0,0,0-.758.046,4.531,4.531,0,0,0-1,.551,11.461,11.461,0,0,0-1.183.965c-.425.384-.86.809-1.309,1.269s-.9.952-1.374,1.473-.922,1.046-1.376,1.578-.892,1.056-1.325,1.578-.841,1.008-1.22,1.47a1.563,1.563,0,0,1-.734.4,1.3,1.3,0,0,1-.7-.073,1.01,1.01,0,0,1-.36-.245,1.059,1.059,0,0,1-.239-.384,1.325,1.325,0,0,1-.067-.505,1.737,1.737,0,0,1,.132-.591,5.615,5.615,0,0,1,.266-.578,5.484,5.484,0,0,1,.3-.5q.548-.819,1.011-1.522t.884-1.331q.427-.633.785-1.226t.718-1.183c.239-.393.476-.825.7-1.3s.473-.979.72-1.519l.075-.193.064-.228-.011-.218-.142-.145a.732.732,0,0,0-.441.013,2.845,2.845,0,0,0-.637.263,6.461,6.461,0,0,0-.742.473,6.774,6.774,0,0,0-.772.645l-.22.124-.247-.032-.18-.156-.137-.253-.07-.277.022-.234.062-.07a8.874,8.874,0,0,1,1.2-1.32,4.928,4.928,0,0,1,1.108-.753,2.7,2.7,0,0,1,.976-.274,1.883,1.883,0,0,1,.817.116,2.421,2.421,0,0,1,.86.538,1.656,1.656,0,0,1,.422.718,2.107,2.107,0,0,1,.048.868,4.6,4.6,0,0,1-.277.995,17.939,17.939,0,0,1-1.339,2.371c-.726,1.148-1.086,1.723-1.086,1.723l-.03.04c-.016.021-.212.2-.586.54Z" transform="translate(-45.998 -60.742)" fill="#363636"/>
        <path id="パス_700" data-name="パス 700" d="M95.362,276.356a2.463,2.463,0,0,1,.72-1.035,2.633,2.633,0,0,1,1.094-.53,4.843,4.843,0,0,1,1.4-.1,10.83,10.83,0,0,1,1.653.25q.875.206,1.839.532t1.968.726c.9.355,1.839.761,2.8,1.218s1.946.989,2.949,1.589a.933.933,0,0,1,.425.465.7.7,0,0,1-.013.481.88.88,0,0,1-.2.306,1.17,1.17,0,0,1-.306.228.894.894,0,0,1-.358.11.773.773,0,0,1-.36-.046,11.96,11.96,0,0,1-1.218-.567c-.414-.226-.841-.46-1.285-.71s-.9-.505-1.376-.766-.968-.511-1.484-.753a17.971,17.971,0,0,1-1.188,1.849l-1.333,1.828c-.454.624-.911,1.247-1.36,1.871s-.89,1.215-1.3,1.785-.8,1.1-1.151,1.578-.656.9-.909,1.247a1.928,1.928,0,0,1-.384.4,2.018,2.018,0,0,1-.449.261,1.5,1.5,0,0,1-.444.113.825.825,0,0,1-.366-.043,1.374,1.374,0,0,1-.677-.511.84.84,0,0,1-.032-.793,1.314,1.314,0,0,1,.177-.309q.444-.617.882-1.242t.927-1.3c.323-.449.688-.919,1.1-1.4l1.36-1.581c.5-.575,1.043-1.223,1.642-1.944s1.258-1.53,1.976-2.419c-.285-.089-.575-.172-.868-.255s-.581-.156-.866-.215a7.509,7.509,0,0,0-.831-.126,3.6,3.6,0,0,0-.763.011,1.57,1.57,0,0,0-.621.207.912.912,0,0,0-.387.47l-.089.172a.974.974,0,0,1-.266.3,1.17,1.17,0,0,1-.489.212,1.3,1.3,0,0,1-.742-.11,1.363,1.363,0,0,1-.621-.425,1.161,1.161,0,0,1-.22-.481A1.142,1.142,0,0,1,95.362,276.356Z" transform="translate(-33.762 -55.885)" fill="#363636"/>
        <path id="パス_701" data-name="パス 701" d="M110.783,290.926c-.153.07-.341.145-.57.223a7.659,7.659,0,0,1-.739.218c-.269.065-.554.118-.852.164a7.737,7.737,0,0,1-.892.078,5.754,5.754,0,0,1-.868-.04,3.379,3.379,0,0,1-.78-.194,1.7,1.7,0,0,1-.462-.282,1.206,1.206,0,0,1-.331-.495,1.946,1.946,0,0,1-.083-.763,3.867,3.867,0,0,1,.285-1.1,5.4,5.4,0,0,1,.272-.573c.108-.2.231-.414.368-.64a15.192,15.192,0,0,1-1.651,1.3,5.464,5.464,0,0,1-1.659.8,5.255,5.255,0,0,1-1.554.185,4.232,4.232,0,0,1-1.414-.288,4.1,4.1,0,0,1-1.277-.793,3.543,3.543,0,0,1-.847-1.207,3.89,3.89,0,0,1-.3-1.562,6.026,6.026,0,0,1,.5-2.121,8.14,8.14,0,0,1,.8-1.513,11.6,11.6,0,0,1,1.164-1.468,14.362,14.362,0,0,1,1.465-1.344,12.618,12.618,0,0,1,1.7-1.145,12.436,12.436,0,0,1,1.866-.855,10.12,10.12,0,0,1,1.97-.492,8.608,8.608,0,0,1,2-.051,7.149,7.149,0,0,1,1.979.473,1.814,1.814,0,0,1,.4.207l.2.2.048.175-.024.134-.03.07-.022.046-.016.038a1.136,1.136,0,0,0,.371.323c.137.075.277.148.414.218a1.928,1.928,0,0,1,.368.239.723.723,0,0,1,.234.376,1.452,1.452,0,0,1,.016.621,4.786,4.786,0,0,1-.29.984,8.181,8.181,0,0,1-.5,1.019,13.16,13.16,0,0,1-.707,1.137q-.4.581-.839,1.164t-.871,1.121c-.282.358-.554.7-.812,1.016s-.487.6-.685.831c-.113.218-.21.425-.3.616s-.175.392-.258.608c-.067.167-.116.3-.151.414a1.025,1.025,0,0,0-.056.269l.038.161.124.089a1.317,1.317,0,0,0,.427.075,5.5,5.5,0,0,0,.586-.011c.212-.019.438-.038.677-.067s.462-.062.683-.1.427-.064.616-.094.349-.048.479-.064Zm.312-11.508a4.055,4.055,0,0,0-.524-.336,5.077,5.077,0,0,0-.554-.258,3.645,3.645,0,0,0-1.339-.25,5.847,5.847,0,0,0-1.452.188,7.826,7.826,0,0,0-1.492.546,12.75,12.75,0,0,0-1.46.828,13.238,13.238,0,0,0-1.349,1.027,13.719,13.719,0,0,0-1.18,1.151,9.945,9.945,0,0,0-.938,1.194,6.187,6.187,0,0,0-.616,1.159,3.657,3.657,0,0,0-.336,2.137,1.692,1.692,0,0,0,1.126,1.142,2.779,2.779,0,0,0,1.191.188,4.375,4.375,0,0,0,1.21-.253,4.628,4.628,0,0,0,1.215-.7q.617-.48,1.091-.876a8.366,8.366,0,0,0,.841-.8,6.021,6.021,0,0,0,.575-.715Z" transform="translate(-27.842 -52.094)" fill="#363636"/>
        <path id="パス_702" data-name="パス 702" d="M108.659,279.813l-.035,0c-.019-.008,0-.108.065-.3s.151-.441.271-.753a.6.6,0,0,1,.185-.215,1.493,1.493,0,0,1,.417-.215,3.438,3.438,0,0,1,.669-.137,4.84,4.84,0,0,1,.96.013,9.248,9.248,0,0,1,1.272.237,13.893,13.893,0,0,1,1.6.532,8.131,8.131,0,0,1,1.172.551,2.257,2.257,0,0,1,.573.452.559.559,0,0,1,.156.39,1.146,1.146,0,0,1-.078.347,1.607,1.607,0,0,1-.172.323.571.571,0,0,1-.32.218,1.353,1.353,0,0,1-.573.016A4.211,4.211,0,0,1,113.9,281q-.254-.1-.5-.226c-.363.495-.688.946-.973,1.363s-.548.8-.788,1.148-.468.675-.677.984-.422.616-.637.927-.441.64-.677.981-.489.712-.772,1.1l-.946,1.317c-.352.487-.75,1.04-1.2,1.664.03.013.1.046.21.1s.228.121.363.2.274.177.422.28a2.69,2.69,0,0,1,.387.333,1.281,1.281,0,0,1,.25.344.411.411,0,0,1,.022.336c-.083.218-.355.349-.809.409-.108-.043-.282-.113-.524-.207s-.527-.21-.855-.336-.677-.269-1.054-.417-.755-.3-1.134-.441-.742-.293-1.1-.436-.667-.266-.938-.376-.481-.2-.642-.269a.929.929,0,0,1-.239-.118l.1-.043.223-.073.263-.148a.788.788,0,0,0,.234-.28c.046-.083.169-.129.363-.145a3.869,3.869,0,0,1,.688.024,7.752,7.752,0,0,1,.8.132c.28.064.524.129.729.194q.665-.919,1.325-1.831c.441-.61.871-1.231,1.288-1.857s.831-1.21,1.229-1.742.774-1.03,1.132-1.495.68-.9.97-1.293a11.721,11.721,0,0,1,.8-1.008c-.2-.054-.379-.1-.532-.137s-.29-.064-.417-.083-.242-.032-.355-.043-.234-.013-.358-.019-.258-.005-.4-.005S108.853,279.816,108.659,279.813Z" transform="translate(-21.667 -49.971)" fill="#363636"/>
        <path id="パス_703" data-name="パス 703" d="M112.858,280.744a3.824,3.824,0,0,1-.444.742c-.22.32-.489.68-.8,1.089s-.645.849-1.005,1.331-.72.965-1.067,1.47-.672,1.005-.968,1.508a10.526,10.526,0,0,0-.718,1.438,7.437,7.437,0,0,0-.336,1.078,3.542,3.542,0,0,0-.1.938,1.616,1.616,0,0,0,.164.718.874.874,0,0,0,.473.425,1.226,1.226,0,0,0,.694.054,2.774,2.774,0,0,0,.785-.293,5.379,5.379,0,0,0,.849-.581c.3-.239.589-.505.887-.8s.594-.613.89-.949.583-.683.868-1.035a47.352,47.352,0,0,0,3.056-4.366,4.347,4.347,0,0,1,.513-.64,1.517,1.517,0,0,1,.495-.344,1.055,1.055,0,0,1,.513-.081,2.09,2.09,0,0,1,.583.148,1.991,1.991,0,0,1,.465.245.876.876,0,0,1,.247.269.569.569,0,0,1,.07.288.978.978,0,0,1-.07.315c-.013.035-.1.18-.245.43s-.336.573-.565.965-.484.839-.766,1.339-.57,1.013-.852,1.548-.559,1.062-.812,1.591-.479,1.022-.659,1.476-.331.9-.446,1.285a5.42,5.42,0,0,0-.21,1.03,1.639,1.639,0,0,0,.078.731.658.658,0,0,0,.4.4,1.365,1.365,0,0,0,1.056-.032,4.21,4.21,0,0,0,1.153-.745,10.216,10.216,0,0,0,1.2-1.269,22.455,22.455,0,0,0,1.406-2.027q.8-1.274.8-1.274s.255-.476.772-1.43.868-1.6,1.059-1.96.339-.632.449-.831a1.217,1.217,0,0,1,.376-.489.949.949,0,0,1,.462-.193,1.39,1.39,0,0,1,.522.027,4.561,4.561,0,0,1,.543.175,1.966,1.966,0,0,1,.368.188.891.891,0,0,1,.247.255.633.633,0,0,1,.091.333,1.109,1.109,0,0,1-.091.435,10.528,10.528,0,0,1-.734,1.47c-.306.519-.634,1.032-.992,1.535a10.19,10.19,0,0,0-.9,1.546,5.976,5.976,0,0,1-.935,1.427,9.631,9.631,0,0,0-.863,1.081,4.2,4.2,0,0,0-.349.591,2.234,2.234,0,0,0-.164.672,1.418,1.418,0,0,0,.056.524.917.917,0,0,0,.245.382,1.255,1.255,0,0,0,.392.245,1.282,1.282,0,0,0,.505.078,2,2,0,0,0,.573-.113,2.516,2.516,0,0,0,.575-.29,2.869,2.869,0,0,0,.538-.46l-.5,1.653a5.729,5.729,0,0,1-1.567.5,2.487,2.487,0,0,1-1.285-.1,1.631,1.631,0,0,1-.452-.266,1.179,1.179,0,0,1-.309-.392,1.369,1.369,0,0,1-.129-.527,2.281,2.281,0,0,1,.073-.661,9.332,9.332,0,0,1-1.3.866,6.245,6.245,0,0,1-1.3.532,4.55,4.55,0,0,1-1.274.161,3.5,3.5,0,0,1-1.207-.239,2.183,2.183,0,0,1-1.1-.885,3.026,3.026,0,0,1-.419-1.39,6.2,6.2,0,0,1,.151-1.755,12.984,12.984,0,0,1,.61-1.984,6.476,6.476,0,0,1,.317-.683c.11-.207.207-.392.29-.559a17.99,17.99,0,0,1-1.874,2.694,7.307,7.307,0,0,1-1.753,1.524,3.513,3.513,0,0,1-1.712.516,4.475,4.475,0,0,1-1.755-.333,1.775,1.775,0,0,1-.844-.726,3.072,3.072,0,0,1-.422-1.331,6.757,6.757,0,0,1,.091-1.9,12.33,12.33,0,0,1,.715-2.438,16.754,16.754,0,0,1,.761-1.656q.435-.831.954-1.634t1.113-1.557c.4-.505.809-.981,1.239-1.438a3.422,3.422,0,0,1,.667-.551,1.6,1.6,0,0,1,.543-.218,1.071,1.071,0,0,1,.465.019,3.612,3.612,0,0,1,.427.14,2.429,2.429,0,0,1,.3.145l.2.194a.469.469,0,0,1,.064.271A1.24,1.24,0,0,1,112.858,280.744Z" transform="translate(-14.414 -47.644)" fill="#363636"/>
        <path id="パス_704" data-name="パス 704" d="M124.819,296.457c-.153.07-.341.145-.57.223a6.98,6.98,0,0,1-.739.218c-.269.067-.554.118-.852.164a7.183,7.183,0,0,1-.892.078,5.757,5.757,0,0,1-.868-.04,3.249,3.249,0,0,1-.78-.194,1.634,1.634,0,0,1-.462-.282,1.213,1.213,0,0,1-.331-.492,1.967,1.967,0,0,1-.083-.769,3.787,3.787,0,0,1,.285-1.1,5.4,5.4,0,0,1,.272-.572c.108-.2.228-.414.368-.64a15.534,15.534,0,0,1-1.651,1.3,5.52,5.52,0,0,1-1.661.8,5.314,5.314,0,0,1-1.551.183,4.167,4.167,0,0,1-1.414-.288,3.978,3.978,0,0,1-1.277-.793,3.47,3.47,0,0,1-.847-1.207,3.9,3.9,0,0,1-.3-1.562,6.027,6.027,0,0,1,.5-2.121,8.222,8.222,0,0,1,.8-1.513,10.942,10.942,0,0,1,1.164-1.465,14.075,14.075,0,0,1,1.465-1.347,12.61,12.61,0,0,1,1.7-1.145,12.433,12.433,0,0,1,1.866-.855,9.889,9.889,0,0,1,1.97-.492,8.608,8.608,0,0,1,2-.051,7.151,7.151,0,0,1,1.979.473,1.819,1.819,0,0,1,.4.207l.2.2.048.177-.024.132-.03.07-.024.046-.013.038a1.137,1.137,0,0,0,.371.323c.137.075.277.148.414.218a1.933,1.933,0,0,1,.368.239.724.724,0,0,1,.234.376,1.5,1.5,0,0,1,.016.621,4.654,4.654,0,0,1-.293.984,8.125,8.125,0,0,1-.5,1.019c-.2.374-.444.75-.707,1.137s-.546.774-.841,1.164-.581.763-.868,1.121-.556.7-.812,1.019-.487.594-.685.828c-.113.218-.21.425-.3.616s-.175.4-.258.608c-.067.167-.116.3-.151.414a1.024,1.024,0,0,0-.056.269l.038.161.124.091a1.384,1.384,0,0,0,.427.072,5.471,5.471,0,0,0,.586-.011c.212-.019.438-.038.677-.067s.462-.062.683-.1.427-.067.616-.094.349-.048.479-.065Zm.312-11.508a4.387,4.387,0,0,0-.524-.339c-.188-.1-.371-.183-.554-.255a3.647,3.647,0,0,0-1.339-.25,5.847,5.847,0,0,0-1.452.188,7.826,7.826,0,0,0-1.492.546,12.75,12.75,0,0,0-1.46.828,13.208,13.208,0,0,0-1.352,1.03,13.652,13.652,0,0,0-1.177,1.148,9.945,9.945,0,0,0-.938,1.194,6.183,6.183,0,0,0-.616,1.159,3.659,3.659,0,0,0-.336,2.137,1.687,1.687,0,0,0,1.126,1.142,2.74,2.74,0,0,0,1.191.188,4.282,4.282,0,0,0,1.21-.255,4.537,4.537,0,0,0,1.215-.7c.411-.32.771-.613,1.091-.879a8.64,8.64,0,0,0,.841-.8,6.3,6.3,0,0,0,.575-.715Z" transform="translate(-4.146 -42.757)" fill="#363636"/>
        <path id="パス_705" data-name="パス 705" d="M120.392,291.372q1.161-1.375,2.148-2.35a19.834,19.834,0,0,1,1.823-1.613,9.969,9.969,0,0,1,1.511-.987,5.443,5.443,0,0,1,1.25-.473,3.251,3.251,0,0,1,1.03-.081,3.158,3.158,0,0,1,.855.2,1.432,1.432,0,0,1,.675.5,1.818,1.818,0,0,1,.309.726,2.614,2.614,0,0,1,.016.82,3.379,3.379,0,0,1-.21.79,9.144,9.144,0,0,1-.492,1.051c-.2.376-.427.772-.672,1.185s-.5.839-.772,1.277-.527.865-.772,1.29-.481.836-.7,1.253a12.571,12.571,0,0,0-.554,1.2q-.073.185-.153.419a4.442,4.442,0,0,0-.137.487,4.087,4.087,0,0,0-.073.505,1.687,1.687,0,0,0,.035.484,1.055,1.055,0,0,0,.2.406.923.923,0,0,0,.411.288,2.079,2.079,0,0,0,.863.126,5.32,5.32,0,0,0,1-.148,9.037,9.037,0,0,0,1-.314c.331-.126.624-.247.882-.366s.465-.215.624-.3a1.977,1.977,0,0,0,.239-.137l-.2,1.874a7.456,7.456,0,0,1-.828.444,8.445,8.445,0,0,1-.933.355,7.952,7.952,0,0,1-.992.245,7.665,7.665,0,0,1-1.008.11,5.807,5.807,0,0,1-.973-.046,3.975,3.975,0,0,1-.9-.231,2.444,2.444,0,0,1-.879-.565,2.341,2.341,0,0,1-.511-.785,3.06,3.06,0,0,1-.207-.941,5.5,5.5,0,0,1,.03-1.027,8.169,8.169,0,0,1,.21-1.032,10.2,10.2,0,0,1,.328-.968,7.4,7.4,0,0,1,.564-1.153q.327-.544.691-1.054c.242-.339.492-.667.75-.979s.5-.626.731-.943.449-.624.642-.93a5.236,5.236,0,0,0,.476-.917c.032-.083.07-.2.116-.344a2.358,2.358,0,0,0,.094-.433,1,1,0,0,0-.027-.4.375.375,0,0,0-.239-.261,1.056,1.056,0,0,0-.761.046,4.631,4.631,0,0,0-1,.551,12.126,12.126,0,0,0-1.186.965c-.425.384-.858.809-1.306,1.269s-.9.952-1.374,1.473-.925,1.048-1.376,1.581-.9,1.056-1.325,1.575-.841,1.008-1.22,1.47a1.576,1.576,0,0,1-.734.4,1.267,1.267,0,0,1-.7-.073,1.013,1.013,0,0,1-.36-.242,1.068,1.068,0,0,1-.239-.384,1.34,1.34,0,0,1-.07-.505,1.781,1.781,0,0,1,.134-.591,5.686,5.686,0,0,1,.263-.578,5.824,5.824,0,0,1,.3-.5c.366-.546.7-1.054,1.011-1.519s.6-.911.884-1.333.546-.831.782-1.223.481-.79.72-1.183.476-.828.7-1.3.473-.978.72-1.519l.075-.194.064-.228-.011-.218-.145-.145a.754.754,0,0,0-.441.013,2.833,2.833,0,0,0-.634.263,7.135,7.135,0,0,0-.745.473,6.741,6.741,0,0,0-.769.645l-.22.126-.247-.035-.18-.156-.137-.253-.07-.277.022-.231.062-.073a9.165,9.165,0,0,1,1.2-1.32,4.988,4.988,0,0,1,1.11-.75,2.711,2.711,0,0,1,.976-.277,1.924,1.924,0,0,1,.817.118,2.442,2.442,0,0,1,.86.535,1.683,1.683,0,0,1,.422.718,2.064,2.064,0,0,1,.046.868,4.4,4.4,0,0,1-.274.995,18.033,18.033,0,0,1-1.341,2.374c-.723,1.145-1.083,1.72-1.083,1.72l-.03.04c-.016.024-.212.2-.586.54Z" transform="translate(3.526 -41.226)" fill="#363636"/>
        <path id="パス_706" data-name="パス 706" d="M108.762,266.038c-3.774-1.347-5.664-2.016-9.444-3.341l-13.643,34.32c-2.694-.409-4.046-.6-6.755-.954,5.637-14.226,8.457-21.339,14.094-35.568-3.785-1.312-5.678-1.962-9.468-3.255,1.188-3.011,1.78-4.516,2.968-7.53l24.85,9.8C110.324,262.116,109.8,263.425,108.762,266.038Z" transform="translate(-59.092 -98.038)" fill="#363636"/>
        <path id="パス_707" data-name="パス 707" d="M120.844,278.215c-3.562,1.425-5.355,2.164-8.968,3.715.282,6.8.449,10.135.817,16.742-2.809-.8-4.218-1.175-7.046-1.906-.39-6.686-.565-10.075-.849-17.008-2.2-.656-3.3-.979-5.505-1.613-2.495,6.253-3.745,9.379-6.242,15.635-2.645-.575-3.97-.844-6.635-1.366,6.161-15.441,9.242-23.162,15.4-38.605,7.457,2.938,11.186,4.406,18.637,7.344,1.535,3.363,2.315,5.016,3.884,8.293C122.943,272.954,122.244,274.707,120.844,278.215Zm-5.352-4.618c.64-1.608.962-2.409,1.6-4.014-.645-1.368-.97-2.051-1.61-3.433-3.976-1.465-5.965-2.2-9.946-3.643-1.5,3.755-2.247,5.632-3.747,9.382,4.086,1.3,6.124,1.96,10.191,3.312C113.387,274.548,114.091,274.229,115.492,273.6Z" transform="translate(-46.438 -91.119)" fill="#363636"/>
        <path id="パス_708" data-name="パス 708" d="M122.716,299.073c-2.575-1-3.868-1.484-6.465-2.427.255-2.479.382-3.718.637-6.2-3.575-1.3-5.374-1.927-8.984-3.137-1.546,2.065-2.32,3.1-3.874,5.18-2.637-.839-3.957-1.242-6.613-2.024,9.28-12.809,13.831-19,22.85-31.226,2.683,1.056,4.024,1.586,6.71,2.642C125.221,276.825,124.39,284.207,122.716,299.073Zm-5.121-14.817c.476-4.6.715-6.906,1.2-11.53-2.807,3.755-4.212,5.643-7.038,9.441C114.1,282.986,115.267,283.406,117.595,284.255Z" transform="translate(-27.866 -81.957)" fill="#363636"/>
        <path id="パス_709" data-name="パス 709" d="M140.367,271.755c-9.043,12.527-13.495,18.6-22.379,30.638-2.632-1.22-3.954-1.817-6.613-2.973,1.742-15.1,2.575-22.527,4.274-37.406,2.554,1.005,3.833,1.511,6.385,2.516-1.013,9.608-1.522,14.425-2.573,24.17,5.788-7.707,8.683-11.586,14.516-19.463C136.534,270.244,137.814,270.747,140.367,271.755Z" transform="translate(-4.302 -77.268)" fill="#363636"/>
        <path id="パス_710" data-name="パス 710" d="M141.719,314.629a269.977,269.977,0,0,0-23.479-13.35c5.481-14.073,8.221-21.108,13.7-35.178l24.852,9.793c-1.005,2.583-1.508,3.874-2.513,6.454-7.363-3.167-11.054-4.731-18.452-7.823-1.4,3.589-2.1,5.382-3.492,8.968,3.656,1.661,5.481,2.5,9.116,4.212-.965,2.476-1.446,3.715-2.409,6.191-3.6-1.8-5.4-2.688-9.032-4.422-1.4,3.586-2.094,5.379-3.489,8.971,7.169,3.7,10.713,5.643,17.707,9.729C143.224,310.755,142.724,312.045,141.719,314.629Z" transform="translate(7.288 -70.367)" fill="#363636"/>
        <path id="パス_711" data-name="パス 711" d="M150.409,325.168c-8.739-6.661-13.218-9.79-22.369-15.645,6.129-15.729,9.191-23.592,15.317-39.323,2.487.978,3.729,1.47,6.215,2.449-5.282,13.533-7.922,20.3-13.2,33.831,6.9,4.274,10.3,6.508,17,11.159C152.188,320.651,151.594,322.157,150.409,325.168Z" transform="translate(23.833 -63.449)" fill="#363636"/>
        <path id="パス_712" data-name="パス 712" d="M251.766,415.781c-9.583,0-17.17-.258-17.283-.263a.531.531,0,0,1-.317-.118c-.083-.067-2.075-1.734-2.694-6.3a102.831,102.831,0,0,0-4.957-20.145c-3.406-9.326-9.664-20.874-20.132-22.922-.1-.022-5.914-1.546-10.406,2.269-4.551,3.871-8.054,13.409-2.944,27.554a.529.529,0,0,1-.726.656l-73.439-35.049a.538.538,0,0,1-.3-.4c-.016-.121-1.7-11.877-4.785-18.468l-9.183.051c-.312,4.989.659,10.613,2.1,12a.53.53,0,0,1-.7.793c-.215-.175-5.264-4.306-6.134-7.172a12.223,12.223,0,0,1-.492-5.129.518.518,0,0,1,.132-.269l.368-.4a.523.523,0,0,1-.1-.382l.591-5.094c-.527-8.774-1.153-25.256.556-36.154l-.116-.788a.527.527,0,0,1,.347-.575c.081-.449.167-.884.258-1.3,0,0,.1-.538.282-1.411l-.944-6.441a.526.526,0,0,1,.4-.589l.852-.21-1.306-8.93a.53.53,0,0,1,.4-.591l.852-.207-1.306-8.93a.535.535,0,0,1,.4-.591l.852-.207-1.306-8.93a.532.532,0,0,1,.4-.591l.852-.21-1.306-8.93a.531.531,0,0,1,.4-.589l.852-.21-1.306-8.93a.535.535,0,0,1,.4-.591l.852-.207-1.306-8.93a.535.535,0,0,1,.4-.591l3.175-.777c.164-.261.371-.567.613-.884l-.048-.218-.019-3.433a.529.529,0,0,1,.527-.532l2.677-.016-1.823-7.221a.531.531,0,0,1,.508-.661l2.234-.013-.024-4.285a.533.533,0,0,1,.527-.535l1.481-.008-.11-18.93a.529.529,0,0,1,.527-.532l1.425-.008a.744.744,0,0,1,.376.153.52.52,0,0,1,.156.374l.11,18.93,1.479-.011h0a.528.528,0,0,1,.53.527l.024,4.288,2.237-.013h0a.527.527,0,0,1,.406.191.537.537,0,0,1,.116.438l-1.358,7.266,2.288-.013a.559.559,0,0,1,.376.153.529.529,0,0,1,.156.374l.016,2.747a5.718,5.718,0,0,1,.987,1.85l2.747.476a.53.53,0,0,1,.435.575l-.884,9.067.505.086a.53.53,0,0,1,.436.575l-.884,9.067.505.089a.529.529,0,0,1,.435.573l-.884,9.07.505.089a.526.526,0,0,1,.435.573l-.884,9.067.505.086a.53.53,0,0,1,.435.575l-.72,7.4c10.645-1.258,25.32-2.855,34.726-3.656,16.234-1.384,66.348-2.82,88.1,0,9.25,1.2,21.369,8.019,36.022,20.266a242.287,242.287,0,0,1,19.1,17.879h2.632l.234.057c1.245.61,30.522,15.124,34.127,25.939,3.583,10.747,2.79,14.441,2.755,14.594l-.32.815c.836.446,2.492,1.484,2.712,2.793.067.4.188,1.067.328,1.839.476,2.6.871,4.8.871,5.4a5.885,5.885,0,0,1-.064.825,2.222,2.222,0,0,0,.043,1.056,2.622,2.622,0,0,1,.027,1.538l.1,1.556v14.815c-.081.758-.387,2.906-1.255,3.71.177,1.245.546,4.626-.4,5.8-.925,1.159-1.634,2.218-1.64,2.228l-.212.183c-1.218.589-29.724,14.339-35.011,13.769-1.634.387-23.995,5.621-38.877,6.194C261.93,415.717,256.594,415.781,251.766,415.781Zm-17.046-1.314c1.965.062,17.9.546,32.307-.008,15.269-.586,38.53-6.129,38.764-6.186l.2-.008c3.855.567,25.995-9.567,34.377-13.6.218-.317.833-1.2,1.616-2.18.556-.7.409-3.524.129-5.309a.527.527,0,0,1,.336-.578c.333-.124.8-1.594.957-3.019l0-14.726-.1-1.637.048-.258a1.491,1.491,0,0,0-.03-.938,3.309,3.309,0,0,1-.075-1.484,4.921,4.921,0,0,0,.056-.691c0-.554-.513-3.355-.852-5.207-.142-.782-.266-1.457-.333-1.857-.14-.836-1.643-1.812-2.559-2.229a.533.533,0,0,1-.272-.68l.476-1.191c-.008,0,.683-3.637-2.753-13.941-3.358-10.081-31.482-24.275-33.479-25.272h-2.737a.524.524,0,0,1-.387-.167c-.328-.352-33.027-35.183-54.643-37.987-21.678-2.812-71.673-1.379-87.87,0-9.589.817-24.662,2.462-35.347,3.729a.5.5,0,0,1-.433-.148.534.534,0,0,1-.159-.43l.739-7.567-.5-.089a.529.529,0,0,1-.438-.573l.884-9.07-.5-.086a.532.532,0,0,1-.438-.575l.884-9.067-.5-.089a.528.528,0,0,1-.438-.573l.884-9.067-.5-.086a.532.532,0,0,1-.438-.575l.884-9.07-2.6-.449a.53.53,0,0,1-.427-.419,4.644,4.644,0,0,0-.976-1.892.521.521,0,0,1-.118-.333l-.016-2.4-2.4.016a.5.5,0,0,1-.411-.191.526.526,0,0,1-.113-.438l1.355-7.266-2.121.013h0a.532.532,0,0,1-.532-.527l-.024-4.288-1.479.008h0a.53.53,0,0,1-.53-.527l-.11-18.93-.366,0,.11,18.93a.531.531,0,0,1-.527.532l-1.478.008.024,4.288a.529.529,0,0,1-.527.532l-2.089.013,1.825,7.223a.523.523,0,0,1-.094.452.535.535,0,0,1-.417.207l-2.825.016.013,2.393a.518.518,0,0,1,.352.3.529.529,0,0,1-.091.57,10.131,10.131,0,0,0-1.094,1.489.523.523,0,0,1-.325.239l-2.917.715,1.306,8.93a.526.526,0,0,1-.4.589l-.852.21,1.306,8.93a.529.529,0,0,1-.4.591l-.852.21,1.306,8.928a.527.527,0,0,1-.4.591l-.852.21,1.306,8.93a.526.526,0,0,1-.4.589l-.852.21,1.306,8.93a.526.526,0,0,1-.4.589l-.852.21,1.306,8.93a.53.53,0,0,1-.4.591l-.852.207.887,6.057-.005.186c-.194.925-.3,1.495-.3,1.495-.116.53-.215,1.067-.315,1.618a.517.517,0,0,1-.215.339l.062.427v.161c-1.71,10.8-1.086,27.25-.562,36.1L100.9,341.6h0a.531.531,0,0,1,.392.89l-.882.96a11.713,11.713,0,0,0,.479,4.5c.438,1.441,2.2,3.355,3.669,4.764a31.021,31.021,0,0,1-.973-10.643.532.532,0,0,1,.524-.489l10.011-.056h0a.531.531,0,0,1,.479.3c3.011,6.194,4.7,16.882,4.984,18.8l72.039,34.38c-4.669-13.995-1.005-23.538,3.672-27.514,4.925-4.188,11.073-2.562,11.333-2.492,8.635,1.685,15.874,9.852,20.893,23.608a103.787,103.787,0,0,1,5.005,20.355C232.994,412.44,234.317,414.048,234.72,414.467Zm106.007-19.387h0Z" transform="translate(-24.696 -193.289)" fill="#363636"/>
        <path id="パス_713" data-name="パス 713" d="M110.95,281.865a3.9,3.9,0,0,1-1.565-.374,10.841,10.841,0,0,1-4.909-5.1,24.211,24.211,0,0,1-2.774-12.1c.169-5.82.363-12.414,3.495-14.984a5.6,5.6,0,0,1,4.683-1.008.531.531,0,0,1-.18,1.046,4.533,4.533,0,0,0-3.831.782c-2.758,2.263-2.944,8.6-3.108,14.194a23.166,23.166,0,0,0,2.651,11.573c1.3,2.43,2.656,3.858,4.4,4.629a2.114,2.114,0,0,0,1.72.164c.82-.363,1.317-1.556,1.729-2.8a31.87,31.87,0,0,0,1.258-9.586.528.528,0,0,1,.53-.524h0a.531.531,0,0,1,.527.532,32.767,32.767,0,0,1-1.312,9.914c-.489,1.468-1.11,2.9-2.3,3.427A2.462,2.462,0,0,1,110.95,281.865Z" transform="translate(-20.648 -100.618)" fill="#363636"/>
        <path id="パス_714" data-name="パス 714" d="M157.19,280.85c-2.089-10.476-8.317-18.065-13.914-16.952s-8.438,10.514-6.35,20.99,8.315,18.065,13.911,16.952S159.276,291.326,157.19,280.85Zm-.441.747c0,.661-5.484,1.25-6.618,0,0,0,4.352-3.75,4.828-4.108S156.749,280.939,156.749,281.6ZM136.959,278.2v-4.651s5.245,7.035,5.96,7.153C142.919,280.707,136.959,279.041,136.959,278.2Zm1.788,9.18-1.073-4.436,5.245,1.454C141.3,284.777,138.747,287.385,138.747,287.385Zm2.027,5.245,2.263-4.172.562,8.7Zm-2.027-23.008,2.027-2.384s2.2,9.132,2.825,10.229C143.6,277.465,138.7,271.906,138.747,269.621Zm5.005-3.578h2.538s-1.586,6.909-1.422,9.651c.263.962.4,1.382.153.841a2.513,2.513,0,0,1-.153-.841C144.314,273.686,143.19,269.269,143.752,266.043Zm.608,17.024c-.1-1.567.688-2.89,1.753-2.954s2.008,1.151,2.1,2.715-.688,2.892-1.753,2.957S144.456,284.635,144.36,283.068Zm1.422,15.524.508-7.868,2.71,8.465Zm1.788-20.387s.285-8.452,2.145-9.3l2.981,3.336A24.542,24.542,0,0,0,147.569,278.2Zm5.126,20.984s-2.624-5.6-2.565-7.989l4.591,5.6Zm-2.565-12.64,7.094,1.433a49.233,49.233,0,0,1-.476,5.484C156.51,293.823,150.787,288.218,150.131,286.549Z" transform="translate(37.677 -74.269)" fill="#363636"/>
        <path id="パス_715" data-name="パス 715" d="M172.632,303.544s-1.694.616-3.054-9.468-7.946-27.277-14.132-33.4c-2.954-2.928-12.024-.7-15.148,2.336a28.606,28.606,0,0,0-4.355,4.973,6.477,6.477,0,0,1,5.734-3.065c7.944.237,18.75,7.742,20.441,24.256s-.694,26.785-11.471,27.793a38.284,38.284,0,0,0,4.764,1.323c6.143,1.325,12.446,1.427,16.538-4.027a28.309,28.309,0,0,0,4.616-10.452Z" transform="translate(37.174 -81.844)" fill="#363636"/>
        <path id="パス_716" data-name="パス 716" d="M141.411,280.758h.012l-.016-.006Z" transform="translate(46.399 -45.635)" fill="#363636"/>
        <path id="パス_717" data-name="パス 717" d="M135.464,264.967a16.017,16.017,0,0,1,1.288-2.436A12.41,12.41,0,0,0,135.464,264.967Z" transform="translate(36.366 -76.394)" fill="#363636"/>
        <path id="パス_718" data-name="パス 718" d="M109.907,260.869c-.72-5.817-2.9-10.333-4.876-10.089s-2.987,5.159-2.263,10.973,2.9,10.334,4.876,10.086S110.631,266.683,109.907,260.869Zm-3.6-4.4c.137-1.4.29-4.1.29-4.1l1.03,1.433a21.509,21.509,0,0,0-1.32,2.672c-.059.6-.116.97-.156.769A1.728,1.728,0,0,1,106.3,256.466Zm-1.944-4.1c.059-.253.892-.581.892-.581v5.511S104.133,253.3,104.359,252.361Zm-.6,1.79,1.14,4.336-1.7-2.5Zm-.782,4.038,1.562,2.132h-1.384Zm2.28,10.4a2.938,2.938,0,0,1-.715-1.228,13.449,13.449,0,0,1,.715-2.616Zm-1.43-4.468-.358-1.344h1.788Zm2.231-1.567c-.462.04-.884-.5-.946-1.2s.261-1.312.72-1.352.884.5.946,1.2S106.512,262.514,106.053,262.554Zm2.328-6.065a11.329,11.329,0,0,1,.685,2.742s-.548-.234-2.234.656C106.641,259.987,107.426,256.667,108.381,256.49Zm.358,13.129L107,265.1c.715.046,2.075,2.952,2.075,2.952Zm.715-4.874s-1.664-1.755-2.234-2.234l2.234-.226Z" transform="translate(-19.227 -96.248)" fill="#363636"/>
        <path id="パス_719" data-name="パス 719" d="M179.6,274.187l-1.312,12.457s-.417,1.073.656.833,18.777-7.272,18.777-7.272.6-.3.774-1.669,1.194-10.847,1.194-10.847.177-.836-.9-.538S179.6,274.187,179.6,274.187Z" transform="translate(108.531 -68.701)" fill="#363636"/>
        <path id="パス_720" data-name="パス 720" d="M179,288.375a.957.957,0,0,1-.763-.317,1.276,1.276,0,0,1-.134-1.2l1.3-12.4a.528.528,0,0,1,.341-.441c.742-.277,18.156-6.747,19.237-7.049a1.276,1.276,0,0,1,1.28.18,1.055,1.055,0,0,1,.274.978c-.032.333-1.005,9.444-1.183,10.807-.207,1.57-.922,2-1.065,2.075-1.858.739-17.815,7.075-18.9,7.315A1.816,1.816,0,0,1,179,288.375Zm.073-.952h0Zm1.352-12.522-1.277,12.132-.032.134-.038.142.083-.016c.758-.167,11.592-4.422,18.691-7.245h0a2.252,2.252,0,0,0,.452-1.247c.175-1.349,1.18-10.742,1.191-10.836l0-.016a1.376,1.376,0,0,0-.229.046C198.453,268.222,186.765,272.545,180.426,274.9Zm-1.8,12.076h0Z" transform="translate(108.198 -69.034)" fill="#363636"/>
        <path id="パス_721" data-name="パス 721" d="M156.534,268.624a.533.533,0,0,1-.468-.282l-22.533-42.323a.532.532,0,0,1,.013-.519.523.523,0,0,1,.449-.258l63.068-.659.2.038c.2.083,20.543,8.527,45.138,35.484a.531.531,0,0,1,.1.551.526.526,0,0,1-.446.333l-85.48,7.632ZM134.88,226.29l21.957,41.245L240.9,260.03c-23.232-25.207-42.42-33.737-43.936-34.388Z" transform="translate(33.003 -140.458)" fill="#363636"/>
        <path id="パス_722" data-name="パス 722" d="M152.66,254.3a39.6,39.6,0,0,1-6.137-.785c-2.2.059-18.952.325-21.049-3.745-1.3-2.522-.441-6.237.8-8.874.39-.833,1.785-3.575,3.374-3.928,1.987-.441,9.747-1.148,12.374.035,2.5,1.124,5.081,6.035,5.081,7.038a6.747,6.747,0,0,0,.648,1.874l1.938.1H153.6a.534.534,0,0,1,.513.4c.242.925,1.409,5.624.419,7.21a1.269,1.269,0,0,1-.831.6A5.542,5.542,0,0,1,152.66,254.3Zm-6.092-1.847.108.011c1.43.293,5.444.992,6.823.715.024-.005.073-.013.137-.118.543-.868.046-3.973-.444-5.984h-3.524l-.027,0-2.266-.118a.52.52,0,0,1-.444-.293,8.313,8.313,0,0,1-.892-2.621c-.051-.608-2.269-5.089-4.457-6.073-2.167-.976-9.422-.476-11.707.035-.6.132-1.7,1.323-2.645,3.341-1.078,2.3-1.938,5.755-.815,7.938,1.538,2.987,15.059,3.3,20.14,3.169Z" transform="translate(18.409 -120.583)" fill="#363636"/>
        <path id="パス_723" data-name="パス 723" d="M143.756,261.49a66.541,66.541,0,0,1-8.452-1.2l-.116-.038c-.245-.113-1.473-.715-1.729-1.645a1.277,1.277,0,0,1,.2-1.094.53.53,0,1,1,.868.608.218.218,0,0,0-.048.207c.086.323.683.737,1.091.935a65.561,65.561,0,0,0,8.18,1.169,2.508,2.508,0,0,0,2.406-1.376l-9.186-22.266-.8,11.691a.541.541,0,0,1-.1.28l-1.548,2.089a.53.53,0,0,1-.852-.632l1.457-1.965.944-13.793a.53.53,0,0,1,1.019-.164l10.135,24.557a.535.535,0,0,1,.013.36A3.543,3.543,0,0,1,143.756,261.49Z" transform="translate(32.907 -124.622)" fill="#363636"/>
        <path id="パス_724" data-name="パス 724" d="M130.153,266.4l-.073-.005-7.637-1.073a.528.528,0,0,1-.457-.53,197.371,197.371,0,0,1,4.186-38.506.53.53,0,0,1,.462-.406c.433-.043,10.637-1.07,14.5.019,3.925,1.1,4.774,2.038,6.387,4.64,1.548,2.5,8.557,17.541,8.852,18.178a.53.53,0,0,1-.96.449c-.073-.156-7.277-15.619-8.793-18.068-1.487-2.4-2.081-3.142-5.772-4.18-3.274-.919-11.828-.2-13.731-.019a198.381,198.381,0,0,0-4.07,37.439l7.178,1.008a.53.53,0,0,1-.075,1.054Z" transform="translate(13.612 -139.073)" fill="#363636"/>
        <path id="パス_725" data-name="パス 725" d="M152.64,252.829a3.906,3.906,0,0,1-1.715-.5.523.523,0,0,1-.269-.411c-.374-3.987-8.393-15.487-8.473-15.6a14.624,14.624,0,0,0-3.527-3.194c-1.755-1.108-11.374-1.513-14.933-1.578a.53.53,0,0,1-.4-.2.518.518,0,0,1-.1-.435l.9-4.422a.528.528,0,0,1,.422-.414c.643-.118,15.764-2.86,19.592,2.715,3.562,5.186,10.264,20.057,10.1,22.417a1.627,1.627,0,0,1-.8,1.441A1.668,1.668,0,0,1,152.64,252.829Zm-.965-1.309a1.788,1.788,0,0,0,1.255.194q.21-.117.242-.581c.121-1.745-6.094-16.175-9.92-21.745-3.145-4.581-15.89-2.71-18.175-2.333l-.7,3.444c2.833.067,12.737.4,14.842,1.726a15.5,15.5,0,0,1,3.823,3.473C143.382,236.178,150.96,247.049,151.675,251.52Z" transform="translate(15.668 -139.255)" fill="#363636"/>
        <path id="パス_726" data-name="パス 726" d="M141.324,253.076l-.153-.021-5.462-1.669a.534.534,0,0,1-.374-.508v-2.5a.534.534,0,0,1,.2-.419.548.548,0,0,1,.454-.1L144.577,250a.546.546,0,0,1,.336.261.537.537,0,0,1,.038.422c-.7,2.091-3.457,2.376-3.575,2.387Zm-4.93-2.591,4.976,1.522a3.788,3.788,0,0,0,2.3-1.137l-7.274-1.817Z" transform="translate(36.148 -101.187)" fill="#363636"/>
        <path id="パス_727" data-name="パス 727" d="M146.662,242.057a34,34,0,0,1-9.358-1.113.535.535,0,0,1-.349-.667.529.529,0,0,1,.664-.347,37.261,37.261,0,0,0,12.592.933.53.53,0,0,1,.081,1.056C149,242.017,147.786,242.057,146.662,242.057Z" transform="translate(38.843 -114.59)" fill="#363636"/>
        <path id="パス_728" data-name="パス 728" d="M164.969,268.893a.534.534,0,0,1-.521-.428c-.712-3.573-15.925-15.151-19.75-17.788-1.8-1.245-5.014-8.774-5.374-9.629a.53.53,0,1,1,.976-.414c1.366,3.245,3.825,8.363,5,9.172.191.132,19.248,13.753,20.188,18.452a.53.53,0,0,1-.417.624Z" transform="translate(42.81 -113.904)" fill="#363636"/>
        <path id="パス_729" data-name="パス 729" d="M175.651,275.854c-9.911,0-19.038-1.094-21.511-3.79-5.3-5.785-6.981-20.309-7.048-20.925a.524.524,0,0,1,.2-.476.53.53,0,0,1,.511-.081c9.124,3.393,49.638,6.258,50.044,6.288h0c3.422.255,6.164,12.309,6.677,14.723a.531.531,0,0,1-.28.586C199.882,274.36,187.232,275.854,175.651,275.854Zm-27.4-24c.441,3.2,2.3,14.731,6.669,19.492,4.919,5.371,40.054,3.788,48.479.059-1.245-5.651-3.745-13.339-5.632-13.479C196.111,257.811,158.8,255.168,148.253,251.854Z" transform="translate(55.989 -96.62)" fill="#363636"/>
        <path id="パス_730" data-name="パス 730" d="M193.407,267.248l-.046,0a.53.53,0,0,1-.473-.379l-3.336-11.506a.529.529,0,0,1,.067-.444l.653-.979L185.784,246a.532.532,0,0,1,.462-.79h.6a1.171,1.171,0,0,1,.852-.153c1.621.29,3.468,3.559,5.643,9.992,2.059,6.091,2.492,9.976,1.285,11.54A1.564,1.564,0,0,1,193.407,267.248ZM190.639,255.3l3.1,10.691.081-.108c.417-.6,1.108-2.836-1.487-10.5-2.729-8.073-4.339-9.14-4.769-9.274l-.153-.008a.416.416,0,0,1-.266.156l4.21,7.444a.532.532,0,0,1-.022.557Z" transform="translate(121.201 -105.94)" fill="#363636"/>
        <path id="パス_731" data-name="パス 731" d="M184.305,267.176a4.74,4.74,0,0,1-3.57-1.93,10.417,10.417,0,0,1-2.153-5.266c-.567-4.325,1.285-8.148,4.132-8.522s5.626,2.842,6.194,7.167-1.288,8.145-4.134,8.522A3.9,3.9,0,0,1,184.305,267.176Zm-1.121-14.688a2.275,2.275,0,0,0-.331.021c-2.269.3-3.712,3.586-3.223,7.331a9.349,9.349,0,0,0,1.919,4.726,3.534,3.534,0,0,0,3.086,1.53c2.266-.3,3.712-3.589,3.22-7.333C187.389,255.2,185.335,252.487,183.184,252.487Z" transform="translate(108.986 -95.138)" fill="#363636"/>
        <path id="パス_732" data-name="パス 732" d="M166.986,261.931a.528.528,0,0,1-.47-.29l-.379-.745a.531.531,0,0,1,.406-.766c.454-.059,45.458-5.836,56.426-11.452a.531.531,0,0,1,.772.473v.925a.532.532,0,0,1-.28.468c-.406.218-10.5,5.446-56.4,11.382Z" transform="translate(88.052 -99.878)" fill="#363636"/>
        <path id="パス_733" data-name="パス 733" d="M168.28,260.079a.531.531,0,0,1-.5-.347l-.753-2.054a.53.53,0,0,1,.433-.707c10.559-1.269,26.7-3.317,27.906-3.761a.528.528,0,0,1,.645.237l.984,1.742a.53.53,0,0,1-.323.771,139.346,139.346,0,0,1-28.377,4.118Zm-.024-2.134.39,1.062a139.68,139.68,0,0,0,27.092-3.9l-.446-.79C191.818,255.079,172.68,257.41,168.256,257.945Z" transform="translate(89.6 -92.184)" fill="#363636"/>
        <path id="パス_734" data-name="パス 734" d="M168.827,262.23a.529.529,0,0,1-.513-.4l-.521-2.081a.538.538,0,0,1,.075-.425.53.53,0,0,1,.366-.228l23.065-3.274.118,0,5.008.411a.531.531,0,0,1,.132,1.03,109.532,109.532,0,0,1-27.7,4.97Zm.137-2.169.272,1.089a112.8,112.8,0,0,0,24.382-4.086l-2.229-.185Z" transform="translate(90.918 -87.725)" fill="#363636"/>
        <path id="パス_735" data-name="パス 735" d="M182.712,257.93a.517.517,0,0,1-.476-.328l-.6-1.489a.542.542,0,0,1,.005-.425.524.524,0,0,1,.309-.282c1.065-.358,14.455-4.831,14.455-4.831a.512.512,0,0,1,.352.013l2.25.941a.526.526,0,0,1,.32.438.536.536,0,0,1-.228.495,37.643,37.643,0,0,1-16.339,5.465Zm.086-1.694.245.6a37.914,37.914,0,0,0,14.616-4.726l-1.116-.465C195.1,252.126,185.327,255.389,182.8,256.236Z" transform="translate(114.241 -96.621)" fill="#363636"/>
        <path id="パス_736" data-name="パス 736" d="M182.541,260.388a.525.525,0,0,1-.36-.142.537.537,0,0,1-.169-.39v-1.505a.53.53,0,0,1,.36-.5c5.261-1.766,13.831-4.7,14.441-5.059a.4.4,0,0,1,.468-.075l1.876.6a.531.531,0,0,1,.371.505v.745a.527.527,0,0,1-.339.492c-.535.207-13.1,5.07-16.61,5.333Zm.53-1.659v.527c3.634-.6,13.417-4.3,15.387-5.057l-1.3-.417C196.347,254.149,193.522,255.219,183.07,258.73Z" transform="translate(114.947 -93.036)" fill="#363636"/>
        <path id="パス_737" data-name="パス 737" d="M187.812,271.811a303.314,303.314,0,0,1-32.1-1.8c-2.258-.282-3.766-1.038-4.479-2.245a3.363,3.363,0,0,1-.239-2.782.53.53,0,0,1,.987.39,2.277,2.277,0,0,0,.172,1.866c.535.89,1.809,1.484,3.691,1.721.4.048,40.111,4.758,63.705-1.3,20.662-5.307,33.713-9.476,36.751-11.739a.529.529,0,1,1,.632.849c-4.03,3.005-22.409,8.14-37.119,11.917C210.506,271.08,198.724,271.811,187.812,271.811Z" transform="translate(62.252 -87.728)" fill="#363636"/>
        <path id="パス_738" data-name="パス 738" d="M168.061,262.659A.53.53,0,0,1,168,261.6c8.264-.954,30.178-3.667,32.312-4.731a.529.529,0,0,1,.473.946c-2.734,1.368-31.444,4.7-32.664,4.836Z" transform="translate(90.504 -86.046)" fill="#363636"/>
        <path id="パス_739" data-name="パス 739" d="M175.86,271.749a112.725,112.725,0,0,1-16.713-1,.529.529,0,0,1,.177-1.043c.153.027,15.492,2.538,40.74-.554,25.011-3.065,36.759-10.522,37.88-11.766a4.832,4.832,0,0,0,.866-2.223c-3.567,1.879-14.425,5.511-18.1,6.718a.529.529,0,1,1-.331-1.005c8.508-2.8,17.938-6.223,18.656-7.067a.517.517,0,0,1,.6-.212.532.532,0,0,1,.363.535c-.005.113-.142,2.715-1.269,3.965-1.231,1.366-12.877,8.965-38.538,12.108A200.977,200.977,0,0,1,175.86,271.749Z" transform="translate(75.605 -91.528)" fill="#363636"/>
        <path id="パス_740" data-name="パス 740" d="M150.569,265.834c-2.763,0-13.506-1.027-21.984-2.048-8.309-1-22.8-2.968-26.516-4.946-.634-.339-.981-.68-1.091-1.075-1.03-3.75,1.358-25.565,5.616-27.963,4.051-2.282,51.417-5.022,53.431-5.137.594-.021,14.258-.468,17.605.438a11.223,11.223,0,0,1,6.293,4.419c.134.2,13.484,25.4,13.592,27.721.089,1.962,0,4.919,0,5.046a.53.53,0,0,1-1.059-.03c0-.032.086-3.046,0-4.968-.1-1.788-12.575-25.928-13.414-27.18a10.277,10.277,0,0,0-5.688-3.987c-3.194-.863-17.14-.406-17.28-.4-13.64.782-49.772,3.207-52.96,5a2.508,2.508,0,0,0-.729.683,1.812,1.812,0,0,1,1.371-.514c5.613-1.672,43.573-3.578,46.923-3.664,2.035-.048,2.868.094,3.317.57a1.848,1.848,0,0,1,.3,1.543c-.011.129-.024.266-.032.414-.089,1.476-4.691,30.439-5.2,33.065l-.126.68c-.3,1.616-.382,1.836-1.562,2.228l-.183.059A2.592,2.592,0,0,1,150.569,265.834Zm-1.616-1.062a12.888,12.888,0,0,0,1.941,0l.148-.051c.629-.21.629-.21.852-1.417l.129-.688c.5-2.618,5.091-31.46,5.177-32.925.011-.159.024-.306.035-.446.027-.3.056-.648-.016-.723-.124-.134-.661-.288-2.516-.237-3.229.081-41.656,2.03-46.721,3.643l-.2.022c-.062,0-.637-.027-.774.43-.363,1.21-3.121,10.825-3.379,13.226-.492,4.583-.766,9.911-.417,10.833,2.143.771,28.092,5.014,45.3,7.723a.53.53,0,0,1,.444.6Zm-42.9-32.885c-3.005,4.933-4.989,22.21-4.059,25.594.855,2.134,26.417,5.462,40.294,6.772-19.051-3.024-39.226-6.368-39.853-7.054-.909-.989-.21-8.514.132-11.7.29-2.71,3.387-13.315,3.417-13.417ZM103.119,256.4" transform="translate(-22.258 -140.539)" fill="#363636"/>
        <path id="パス_741" data-name="パス 741" d="M124.772,256.823a88.068,88.068,0,0,1-9.785-1.446.53.53,0,0,1-.425-.6l3.833-25.4a1.813,1.813,0,0,1,.3-1.344,1.947,1.947,0,0,1,1.554-.715c1.7-.089,9.194,0,9.514,0a1.9,1.9,0,0,1,1.3.562,1.956,1.956,0,0,1,.479,1.519c-.091,1.53-3.7,23.616-3.852,24.554a2.9,2.9,0,0,1-2.7,2.86Zm-9.086-2.39c1.742.331,7.546,1.422,9.245,1.325,1.546-.065,1.688-1.723,1.7-1.911,1.3-8,3.774-23.323,3.844-24.5a.96.96,0,0,0-.185-.726.848.848,0,0,0-.543-.234c-.078,0-7.782-.089-9.444,0a1.021,1.021,0,0,0-.758.285.806.806,0,0,0-.1.578l.011.207Z" transform="translate(1.07 -135.896)" fill="#363636"/>
        <path id="パス_742" data-name="パス 742" d="M121.369,255.133l-.059,0c-10.737-1.2-10.807-1.487-10.917-1.917-.2-.444-.3-.809-.005-2.29.137-.686.25-1.376.363-2.067l.116-.707c.632-3.79,1.242-7.583,1.855-11.379l1.021-6.344c.062-.376.124-.753.18-1.129a4.362,4.362,0,0,1,.21-.879c.409-1.081,1.376-1.1,2.309-1.118,2.57-.051,8.449,0,8.508,0a.524.524,0,0,1,.4.183.519.519,0,0,1,.126.419L121.9,254.676A.53.53,0,0,1,121.369,255.133ZM111.325,252.7c.949.261,5.427.849,9.589,1.323l3.427-25.664c-1.567-.013-5.812-.038-7.879,0-1.126.022-1.223.129-1.339.433a3.268,3.268,0,0,0-.153.664c-.056.382-.121.761-.183,1.142l-1.021,6.342c-.613,3.8-1.223,7.592-1.855,11.382l-.116.7c-.116.7-.228,1.409-.368,2.108-.25,1.25-.164,1.433-.113,1.54Zm3.3-24.092h0Z" transform="translate(-6.284 -135.911)" fill="#363636"/>
        <path id="パス_743" data-name="パス 743" d="M114.583,253.711a11.044,11.044,0,0,1-1.306-.094c-2.841-.357-7.844-1.247-7.9-1.258a.527.527,0,0,1-.427-.618l4.47-23.605a.527.527,0,0,1,.495-.43l8.675-.422a.843.843,0,0,1,.7.25,1.526,1.526,0,0,1,.3,1.406c-.169,1.1-3.108,21.753-3.376,23.643a.761.761,0,0,1-.089.6C115.9,253.539,115.422,253.711,114.583,253.711Zm.632-.793.013.019Zm-9.121-1.508c1.363.237,5.043.871,7.315,1.153a5.723,5.723,0,0,0,1.731.046l0-.04c.132-.925,3.223-22.64,3.4-23.791a1.478,1.478,0,0,0,.016-.435l-8.169.4Zm12.57-23.07.024,0Z" transform="translate(-15.158 -135.917)" fill="#363636"/>
        <path id="パス_744" data-name="パス 744" d="M109.362,251.684l-.1-.011-7.14-1.43a.53.53,0,0,1-.425-.548,79.068,79.068,0,0,1,.976-8.922c.347-1.578,2.772-11.454,3.608-12.409.648-.742,4.659-.9,7.909-.9a.53.53,0,0,1,.519.637l-4.825,23.159A.528.528,0,0,1,109.362,251.684Zm-6.583-2.387,6.169,1.234,4.583-22c-2.887.027-6.024.234-6.487.556-.492.667-2.613,8.6-3.341,11.914A73.236,73.236,0,0,0,102.778,249.3Z" transform="translate(-20.649 -135.591)" fill="#363636"/>
        <path id="パス_745" data-name="パス 745" d="M126.872,243.058l-5.632-.892a7.084,7.084,0,0,0-.358,1.8c.089.344,5.454,1.239,5.454,1.239S128.66,244.757,126.872,243.058Z" transform="translate(11.729 -110.774)" fill="#363636"/>
        <path id="パス_746" data-name="パス 746" d="M126.668,246.068l-.089-.008c-5.7-.952-5.785-1.263-5.879-1.629a5.554,5.554,0,0,1,.363-2.089.539.539,0,0,1,.589-.368l5.634.892a.561.561,0,0,1,.282.14c.7.661.962,1.29.79,1.871-.261.9-1.457,1.156-1.591,1.18Zm-4.919-2.078c.718.237,2.946.68,4.9,1.008.277-.073.642-.245.691-.419.032-.1-.056-.344-.39-.691l-5-.793A9,9,0,0,0,121.748,243.99Z" transform="translate(11.398 -111.107)" fill="#363636"/>
        <path id="パス_747" data-name="パス 747" d="M117.008,241.3l-.358,1.519,5.008,1.161s1.073.18,1.341-.355.083-1.522-.718-1.61S117.008,241.3,117.008,241.3Z" transform="translate(4.604 -112.235)" fill="#363636"/>
        <path id="パス_748" data-name="パス 748" d="M122.373,244.872a3.117,3.117,0,0,1-.47-.035l-5.038-1.169a.53.53,0,0,1-.331-.237.524.524,0,0,1-.067-.4l.358-1.519a.533.533,0,0,1,.591-.4c.043.005,4.47.624,5.258.712a1.385,1.385,0,0,1,1.091.739,1.85,1.85,0,0,1,.04,1.634A1.521,1.521,0,0,1,122.373,244.872Zm-4.753-2.116,4.489,1.04a1.2,1.2,0,0,0,.75-.081.791.791,0,0,0-.024-.651.335.335,0,0,0-.28-.191c-.651-.073-3.629-.487-4.809-.651Z" transform="translate(4.271 -112.567)" fill="#363636"/>
        <path id="パス_749" data-name="パス 749" d="M120.782,244.166l-.062,0a.529.529,0,0,1-.465-.589,2.5,2.5,0,0,0-.3-1.965,1.223,1.223,0,0,0-1.035-.229c-.3.032-.573.9-.616,1.632a.515.515,0,0,1-.559.5.529.529,0,0,1-.5-.556c.024-.414.21-2.478,1.556-2.626a2.215,2.215,0,0,1,1.9.538,3.322,3.322,0,0,1,.6,2.836A.529.529,0,0,1,120.782,244.166Z" transform="translate(5.62 -113.916)" fill="#363636"/>
        <path id="パス_750" data-name="パス 750" d="M119.146,246.07a1.856,1.856,0,0,1-1.492-.661,4.133,4.133,0,0,1-.473-3.011.53.53,0,1,1,1.04.2,3.186,3.186,0,0,0,.253,2.134.784.784,0,0,0,.672.274,1.037,1.037,0,0,0,.82-.32,2.674,2.674,0,0,0,.427-1.78.529.529,0,0,1,1.054-.1,3.7,3.7,0,0,1-.694,2.594A2.105,2.105,0,0,1,119.146,246.07Z" transform="translate(5.342 -111.109)" fill="#363636"/>
        <path id="パス_751" data-name="パス 751" d="M125.157,245.287h0a.529.529,0,0,1-.527-.532c0-.774-.237-2.5-.954-2.591a.511.511,0,0,0-.4.113,3.118,3.118,0,0,0-.71,1.742.53.53,0,1,1-1.054-.11,4.076,4.076,0,0,1,1.1-2.462,1.592,1.592,0,0,1,1.188-.333c1.841.231,1.882,3.3,1.882,3.645A.532.532,0,0,1,125.157,245.287Z" transform="translate(12.807 -112.572)" fill="#363636"/>
        <path id="パス_752" data-name="パス 752" d="M123.491,247.33a2.035,2.035,0,0,1-1.64-1.07,5.414,5.414,0,0,1-.46-2.933.531.531,0,0,1,1.056.1,4.412,4.412,0,0,0,.274,2.231c.511.734.825.621.944.578.366-.14,1.505-1.341,1.325-2.057a.53.53,0,1,1,1.03-.255c.355,1.417-1.349,3.078-2,3.309A1.565,1.565,0,0,1,123.491,247.33Z" transform="translate(12.559 -109.621)" fill="#363636"/>
        <path id="パス_753" data-name="パス 753" d="M123.5,326.575a.533.533,0,0,1-.524-.452l-1.6-10.842c-.016-.137-1.323-11.9-1.911-18.148-.594-6.3.777-18.433.836-18.947,0-.056.591-7.264.591-9.747,0-2.075.608-2.925.995-3.253,3.949-26.218,6.161-39.751,6.578-40.224a.529.529,0,0,1,.855.616c-.5,1.382-4.1,24.627-6.419,39.99a.537.537,0,0,1-.312.409v0c.005,0-.634.433-.634,2.465,0,2.527-.575,9.551-.6,9.85-.016.143-1.419,12.554-.836,18.745.589,6.242,1.9,17.995,1.909,18.11l1.594,10.823a.529.529,0,0,1-.446.6Z" transform="translate(9.102 -140.121)" fill="#363636"/>
        <path id="パス_754" data-name="パス 754" d="M110.118,299.67a.53.53,0,0,1-.524-.462c-.71-5.562-.949-24.307-.957-25.1l1.266-14.912c1.253-14.734,5.855-33.2,5.9-33.39a.529.529,0,1,1,1.027.258c-.046.183-4.629,18.573-5.874,33.221l-1.266,14.861c.005.142.247,19.43.952,24.93a.53.53,0,0,1-.457.594Z" transform="translate(-8.924 -139.071)" fill="#363636"/>
        <path id="パス_755" data-name="パス 755" d="M109.929,265.064a.53.53,0,0,1-.53-.511l-.43-11.559a.53.53,0,0,1,1.059-.038l.43,11.559a.531.531,0,0,1-.508.548Z" transform="translate(-8.364 -93.422)" fill="#363636"/>
        <path id="パス_756" data-name="パス 756" d="M136.161,256.129h-.022a.529.529,0,0,1-.508-.551l.441-11.385a.552.552,0,0,1,.548-.511.529.529,0,0,1,.508.551l-.441,11.385A.528.528,0,0,1,136.161,256.129Z" transform="translate(36.647 -108.213)" fill="#363636"/>
        <path id="パス_757" data-name="パス 757" d="M135.466,274.6h-.04a.534.534,0,0,1-.489-.57l1.868-24.672a.53.53,0,1,1,1.056.081l-1.868,24.672A.53.53,0,0,1,135.466,274.6Z" transform="translate(35.473 -99.463)" fill="#363636"/>
        <path id="パス_758" data-name="パス 758" d="M162.068,254.829l-.116-.013-23.011-5.126a.529.529,0,0,1-.4-.632.537.537,0,0,1,.632-.4l23.008,5.126a.53.53,0,0,1-.113,1.048Z" transform="translate(41.539 -99.84)" fill="#363636"/>
        <path id="パス_759" data-name="パス 759" d="M196.384,263l-.121-.013L99.9,240.545a.531.531,0,0,1,.242-1.035L196.5,261.952a.53.53,0,0,1-.121,1.046Z" transform="translate(-24.371 -115.28)" fill="#363636"/>
        <path id="パス_760" data-name="パス 760" d="M178.614,284.448l-.21-.046-72.383-31.737a.53.53,0,1,1,.425-.97l72.383,31.737a.531.531,0,0,1-.215,1.016Z" transform="translate(-13.876 -94.765)" fill="#363636"/>
        <path id="パス_761" data-name="パス 761" d="M102.83,250.828l-.263-.07-2.489-1.435a.531.531,0,1,1,.53-.919l2.489,1.436a.53.53,0,0,1-.266.989Z" transform="translate(-23.824 -100.364)" fill="#363636"/>
        <path id="パス_762" data-name="パス 762" d="M152.585,290.038l-.065-.005a.528.528,0,0,1-.462-.589c.4-3.379,1.936-14.441,4.745-14.823,1.083-.151,7.358-.048,15.3.078,11.772.185,26.42.419,29.664-.078,5.272-.807,44.917-11.645,46.7-12.132l6.143-3.32a.53.53,0,1,1,.505.933l-6.2,3.349-.113.043c-1.691.465-41.449,11.344-46.874,12.175-3.333.508-18.033.277-29.842.089-7.586-.121-14.14-.223-15.14-.089-1.368.188-3.059,7.36-3.839,13.9A.531.531,0,0,1,152.585,290.038Z" transform="translate(64.374 -82.178)" fill="#363636"/>
        <path id="パス_763" data-name="パス 763" d="M156.044,279.061a.531.531,0,0,1-.021-1.062c.374-.013,37.261-1.419,39.92-1.772,2.6-.341,45.646-12.46,47.579-13.006l5.237-3.022a.529.529,0,0,1,.53.917l-5.293,3.054-.121.054c-1.839.516-45.073,12.7-47.794,13.054s-38.492,1.723-40.017,1.782Z" transform="translate(70.214 -80.448)" fill="#363636"/>
        <path id="パス_764" data-name="パス 764" d="M156.176,280.752a1.512,1.512,0,0,1-.2-.008.529.529,0,0,1-.46-.589.52.52,0,0,1,.586-.462c1.081.073,29.043-1.347,39.82-1.906l47.595-13.675,5.234-3.067a.53.53,0,0,1,.538.914l-5.293,3.1-.121.051-47.718,13.71-.118.019C192.169,279.042,159.184,280.752,156.176,280.752Z" transform="translate(70.214 -79.026)" fill="#363636"/>
        <path id="パス_765" data-name="パス 765" d="M156.044,281.469a.53.53,0,0,1-.019-1.059l41.181-1.425,48.3-14.621,2.833-2.091a.53.53,0,0,1,.629.852l-2.909,2.148-.161.081-48.452,14.664-.137.024-41.248,1.427Z" transform="translate(70.214 -77.004)" fill="#363636"/>
        <path id="パス_766" data-name="パス 766" d="M156.044,282.281a.53.53,0,0,1-.011-1.059l40.939-.809,49.52-14.987,2.161-2.1a.529.529,0,0,1,.739.758l-2.253,2.2-.215.129-49.716,15.046-.143.022-41.011.809Z" transform="translate(70.214 -75.313)" fill="#363636"/>
        <path id="パス_767" data-name="パス 767" d="M173.5,283.924c-3.667,0-6.5-.059-7.71-.218-5.2-.675-16.248-2.64-16.358-2.661a.53.53,0,1,1,.186-1.043c.11.022,11.135,1.981,16.309,2.653,5.04.659,40.549-.444,42.294-.5l14.124-3.93,35.713-12.2,1.559-1.93a.53.53,0,0,1,.825.667l-1.656,2.051-.245.167-7.151,2.422-28.732,9.836L208.444,283.2l-.126.019C207.148,283.252,185.712,283.924,173.5,283.924Z" transform="translate(59.207 -74.085)" fill="#363636"/>
        <path id="パス_768" data-name="パス 768" d="M109.265,255.747S108.832,268.118,105.2,269c0,0,9.387.728,9.559-5.718s.543-4.919.543-4.919Z" transform="translate(-14.73 -87.847)" fill="#363636"/>
        <path id="パス_769" data-name="パス 769" d="M186.558,257.732c-.39-3.344-2.379-5.858-4.444-5.616s-3.425,3.145-3.035,6.487,2.382,5.855,4.446,5.616S186.948,261.073,186.558,257.732Zm-2.753,4.387a3.057,3.057,0,0,1-2.688-.446,2.883,2.883,0,0,1-.952-1.4.561.561,0,0,1,.476-.645c.422-.083.562.18.729.508.411.793.944,1.159,2.288.9.433-.083,1.742-.339,1.489-1.632-.167-.855-.629-.863-2.4-.933-1.522-.051-2.807-.2-3.116-1.79-.25-1.282.392-2.53,2.368-2.914,1.667-.323,2.427.237,2.871.8a2.433,2.433,0,0,1,.473.917.538.538,0,0,1-.481.621.506.506,0,0,1-.645-.358c-.288-.68-.656-1.191-2.013-.925-.433.083-1.677.325-1.449,1.5.161.841.742.922,2.393.976s2.831.2,3.134,1.758C186.6,260.675,185.682,261.753,183.806,262.119Z" transform="translate(109.886 -94.004)" fill="#363636"/>
      </g>
      <g id="グループ_176" data-name="グループ 176" transform="translate(280.684 350.974)">
        <path id="パス_770" data-name="パス 770" d="M153.891,266.071l3.852.82-3.218-10.659s-.167-1.285,1.29-1.2,32.775,3.581,37.323,2.522l-43.8-5.608Z" transform="translate(-149.343 -251.947)" fill="#363636"/>
        <path id="パス_771" data-name="パス 771" d="M178.22,263.276c-6.027,0-25.6-2.785-26.5-2.911a.206.206,0,1,1,.059-.408c.237.032,23.715,3.371,27.554,2.855l3.591-.634,10.312-.535-3.22-2.863a.206.206,0,0,1-.07-.153v-2.062a.207.207,0,1,1,.414,0v1.968l3.527,3.134a.206.206,0,0,1,.056.223.2.2,0,0,1-.183.137l-10.79.562-3.573.632A9.286,9.286,0,0,1,178.22,263.276Z" transform="translate(-145.62 -244.502)" fill="#363636"/>
        <path id="パス_772" data-name="パス 772" d="M165.635,257.66l1.507-2.109,1.666,4.363Z" transform="translate(-121.838 -245.863)" fill="#363636"/>
        <path id="パス_773" data-name="パス 773" d="M175.779,268.324a.2.2,0,0,1-.089-.019l-12.422-5.919-9.35,1.8a.22.22,0,0,1-.172-.046.206.206,0,0,1-.073-.159v-8.11a.2.2,0,0,1,.083-.167l3.172-2.331a.207.207,0,0,1,.245.333l-3.089,2.269v7.756l9.17-1.766a.212.212,0,0,1,.129.016l12.484,5.949a.207.207,0,0,1-.089.392Z" transform="translate(-142.031 -249.603)" fill="#363636"/>
        <path id="パス_774" data-name="パス 774" d="M161.949,260.914l-.043-.005-2.382-.505a.21.21,0,0,1-.164-.2v-5.793a.207.207,0,0,1,.207-.207h2.382a.2.2,0,0,1,.2.207v6.3a.2.2,0,0,1-.2.207Zm-.207-6.3h-1.968v5.417l1.968.419" transform="translate(-132.432 -248.14)" fill="#363636"/>
        <path id="パス_775" data-name="パス 775" d="M157.884,260.468a.21.21,0,0,1-.207-.194l-.422-6.489a.206.206,0,0,1,.194-.22.2.2,0,0,1,.218.194l.425,6.489a.207.207,0,0,1-.194.22Z" transform="translate(-135.986 -249.218)" fill="#363636"/>
      </g>
      <path id="パス_776" data-name="パス 776" d="M153.674,262.39v-8.111l6.973.207,3.284,4.774,13.118,3.081,9.521-.413,3.608,3.609-12.145.507-3.4.743-12-6.292Z" transform="translate(138.652 102.964)" fill="#363636"/>
    </g>
  </g>
</svg>
