<?xml version="1.0" encoding="utf-8"?>
<!-- Generator: Adobe Illustrator 26.2.1, SVG Export Plug-In . SVG Version: 6.00 Build 0)  -->
<svg version="1.1" id="圖層_1" xmlns="http://www.w3.org/2000/svg" xmlns:xlink="http://www.w3.org/1999/xlink" x="0px" y="0px"
	 viewBox="0 0 165 1000" style="enable-background:new 0 0 165 1000;" xml:space="preserve">
<style type="text/css">
	.st0{enable-background:new    ;}
	.st1{fill:#D8D8D8;}
</style>
<g id="グループ_22" transform="translate(-1759 -237)">
	<g class="st0">
		<path class="st1" d="M1809.6,479.1c0.2-7.1,0.3-13,0.3-17.5v-2.5c0-2,0-4.1-0.1-6.3s-0.2-4.7-0.2-7.4h2.1l1.4,6.9
			c0.4,1.8,1,2.9,1.7,3.3c0.8,0.5,2.3,0.7,4.5,0.7h52.9l-63.1-26l67.4-30.6h-57.8c-3.6,0-5.5,1.1-5.8,3.5l-1.2,10.6h-2.1
			c0.2-4.6,0.3-9.2,0.3-13.9c0-4.6-0.1-10-0.3-16h2.1l1.2,6.3c0.2,1.5,0.5,2.6,0.8,3.4s0.7,1.4,1.1,1.8s0.9,0.7,1.6,0.7
			c0.6,0.1,1.4,0.1,2.3,0.1h60.3l1.3-10.5h2.1c-0.2,1.2-0.3,4.7-0.3,10.4c0,5.8,0.1,9.6,0.3,11.6l-56.1,25.5l56.1,23.3
			c-0.2,3.8-0.3,7.6-0.3,11.6c0,3.9,0.1,7.5,0.3,10.8h-2.1l-1.5-7.1c-0.5-2.2-1.1-3.8-2.1-4.6c-0.9-0.8-2.5-1.3-4.7-1.3h-52
			c-2.4,0-4,0.2-4.8,0.6s-1.4,1.3-1.7,2.7l-2,9.8L1809.6,479.1L1809.6,479.1z"/>
	</g>
	<g class="st0">
		<path class="st1" d="M1855.9,533.5c-0.1-0.9-0.3-1.7-0.6-2.5c-0.3-0.8-0.8-1.5-1.4-2.1c-0.7-0.6-1.6-1.1-2.8-1.5
			c-1.2-0.4-3.2-1-5.9-1.8c-2.7-0.8-5.8-1.8-9.5-3c-3.6-1.1-7.6-2.4-12-3.8c-4.4-1.4-8.9-2.8-13.5-4.2s-9.2-2.8-13.7-4.3
			c-4.5-1.4-8.8-2.8-12.9-4.1c-2.9-0.9-5-2.2-6.3-3.9s-2-3.4-2-5.2c0-1.5,0.5-3,1.5-4.3s2.2-2,3.8-2c1.6,0,2.8,0.5,3.8,1.4
			s1.5,2.1,1.5,3.7c0,1.5-0.5,2.8-1.4,3.9c-0.9,1-1.9,2.1-2.9,3.2v0.2c2.1,0.8,4.1,1.6,6.1,2.2c2,0.7,3.9,1.2,5.5,1.7s3,0.9,4.2,1.2
			c1.1,0.3,1.9,0.5,2.3,0.6c0.3-0.2,1.4-0.6,3.3-1.3s4.3-1.6,7.2-2.6c2.9-1.1,6.3-2.3,9.9-3.7s7.5-2.8,11.3-4.2
			c3.9-1.4,7.7-2.8,11.4-4.2c3.8-1.4,7.2-2.6,10.3-3.8c0.8-0.7,1.4-1.5,1.8-2.5c0.5-1,0.8-2.7,0.9-5.3h1.3v25.1h-1.3
			c-0.2-1.6-0.5-3-0.9-4.2s-1.3-1.8-2.8-1.8c-0.4,0-1.3,0.2-2.8,0.7s-3.4,1.1-5.6,1.8c-2.2,0.8-4.7,1.6-7.3,2.6
			c-2.6,1-5.3,1.9-8,2.9s-5.3,1.9-7.8,2.8c-2.5,0.9-4.7,1.7-6.5,2.4c0.6,0.2,1.9,0.7,3.9,1.3s4.3,1.3,7.1,2.2
			c2.7,0.8,5.6,1.7,8.6,2.6s5.8,1.8,8.5,2.5c2.6,0.8,4.9,1.4,6.8,1.9s3,0.7,3.5,0.7c0.7,0,1.2-0.2,1.7-0.6c0.4-0.4,0.7-0.9,1-1.6
			c0.2-0.7,0.4-1.4,0.5-2.1c0.1-0.8,0.2-1.5,0.2-2.2h1.3V536h-1.3C1856.1,535.2,1856,534.3,1855.9,533.5z"/>
		<path class="st1" d="M1803,626.3v-70.4h1.2c0.3,1.9,0.8,3.7,1.5,5.3s1.6,3,2.9,4.1c0.5,0.4,1.1,0.7,2,0.9s1.9,0.4,3,0.6
			c1.2,0.2,2.4,0.3,3.6,0.4c1.3,0.1,2.5,0.1,3.7,0.1c1.1,0,2.5,0,4.4,0.1c1.8,0,3.9,0.1,6,0.1c2.2,0,4.4,0.1,6.7,0.1
			c2.4,0,4.6,0,6.7,0h22.4c1.4,0,2.8,0,4.3-0.1c1.5,0,2.8-0.1,4.1-0.2c1.3-0.1,2.5-0.3,3.5-0.6s1.8-0.6,2.2-1.1
			c1.2-1.2,2-2.4,2.4-3.7c0.3-1.3,0.7-3,1-5.1h1.1v63.5l-19,7.8l-0.6-1.2c7.7-6.2,13-12,15.6-17.5c0.6-1.3,1.2-3.7,1.6-7.2
			c0.5-3.5,0.7-7.8,0.7-12.9c0-1.6-0.1-3.3-0.2-5s-0.2-3-0.4-3.7c-1.2-0.2-3.8-0.3-7.6-0.4c-3.8-0.1-8.3-0.2-13.3-0.2
			c-2.9,0-5.4,0-7.4,0s-3.6,0-4.9,0.1c-1.3,0-2.2,0.1-2.9,0.1c-0.6,0-1,0-1.3,0c0,0.4,0,1.2,0,2.3c0,1.2,0,2.5,0.1,4s0.2,3,0.3,4.5
			c0.1,1.5,0.3,2.7,0.5,3.7c0.5,2.3,1.3,4.2,2.2,5.8c0.9,1.5,2,2.8,3.3,3.7c1.3,1,2.8,1.7,4.5,2.3s3.7,1.1,5.8,1.6v1.4h-36.2v-1.4
			c2.5-0.6,5-1.6,7.6-2.8c2.6-1.3,4.6-2.6,5.9-4c1.1-1.2,2-2.7,2.6-4.4c0.7-1.7,1.1-3.7,1.3-6c0.1-1.2,0.1-2.1,0.2-2.9
			c0-0.8,0.1-1.5,0.1-2.3c0-0.7,0-1.5,0-2.3s0-1.8,0-3c-1.1-0.2-2.6-0.2-4.7-0.2s-4.2,0-6.4,0c-1,0-2.1,0-3.5,0c-1.3,0-2.6,0-3.9,0
			c-1.2,0-2.4,0-3.5,0.1c-1.1,0-2.1,0.1-2.8,0.1c-2.5,0.1-4.8,0.2-7,0.4s-3.8,0.6-4.9,1.3s-1.8,2.3-2.3,4.9
			c-0.5,2.6-0.7,5.4-0.7,8.5c0,1.3,0,3,0.1,5s0.3,4.2,0.6,6.4c0.3,2.5,0.9,4.7,1.8,6.8s2.1,4.1,3.7,6s3.6,3.8,5.9,5.6
			s5.2,3.7,8.5,5.6l-0.3,1.3L1803,626.3z"/>
		<path class="st1" d="M1855.9,682.3c-0.1-0.9-0.4-1.9-0.9-2.9s-1.5-2.2-2.8-3.5s-3.3-3-5.9-5.1c-1.5-1.2-2.7-2.1-3.8-2.9
			c-1.1-0.8-2.1-1.6-3-2.2c-0.9-0.7-1.9-1.4-2.8-2.1c-1-0.7-2.1-1.5-3.4-2.4c-2,1-3.8,1.9-5.3,2.8c-1.6,0.8-3.1,1.7-4.5,2.6
			c-1.4,0.9-2.9,1.8-4.4,2.7s-3.2,1.9-5.1,3c-2.4,1.4-4.2,2.6-5.5,3.6s-2.3,2-2.9,2.9s-1,1.9-1.1,2.8c-0.1,1-0.2,2.1-0.3,3.5h-1.3
			v-26.8h1.3c0,0.4,0,0.8,0.1,1.4c0,0.5,0.2,1.1,0.3,1.6c0.2,0.5,0.5,1,1,1.5s1.2,0.8,2.2,0.9c1-0.1,2.1-0.4,3.4-1s2.7-1.3,4.3-2.1
			c1.6-0.8,3.2-1.7,4.9-2.6c1.7-1,3.4-1.9,5.1-2.8c-1.4-0.9-2.9-2-4.7-3.2c-1.7-1.2-3.4-2.4-5.1-3.5c-1.6-1.1-3.2-2-4.6-2.8
			c-1.4-0.7-2.5-1.1-3.2-1.1c-1.7,0.5-2.7,1.3-3.2,2.4c-0.4,1.1-0.7,2.6-0.7,4.6h-1.3v-22.4h1.3c0,0.9,0,1.9,0.1,2.8
			c0,1,0.3,2,0.8,3c0.5,1.1,1.3,2.3,2.5,3.7s3,3.1,5.3,5c2.7,2.2,5.3,4.2,7.8,6s4.6,3.3,6.4,4.5c2.1-1.2,3.9-2.3,5.6-3.3
			s3.4-1.9,5-2.9s3.3-1.9,5-2.9s3.6-2.1,5.6-3.3c0.8-0.5,1.7-1.1,2.6-1.8s1.7-1.2,2.3-1.8c1.1-1.5,1.7-2.9,2-4.4s0.5-3,0.7-4.4h1.3
			v27.5h-1.3c0-0.3,0-0.7-0.1-1.3c-0.1-0.5-0.2-1.1-0.4-1.7c-0.2-0.6-0.5-1.1-0.9-1.7c-0.4-0.5-1-1-1.7-1.3
			c-0.5,0.1-1.3,0.4-2.5,0.9s-2.6,1.2-4.3,2.1c-1.7,0.9-3.5,1.9-5.6,2.9c-2,1.1-4,2.2-6,3.5c1.6,1.1,3.3,2.2,5.1,3.4
			c1.8,1.2,3.5,2.3,5.1,3.2c1.6,1,3.1,1.8,4.4,2.5s2.3,1,2.9,1c1.6-0.2,2.7-0.9,3.2-2.1c0.5-1.2,0.8-2.8,1-4.9h1.3v22h-1.3
			C1856.1,684.3,1856,683.2,1855.9,682.3z"/>
		<path class="st1" d="M1821.5,736.5c-3.7-1.5-6.8-3.6-9.5-6.4c-2.6-2.8-4.7-6.1-6.2-10.1s-2.2-8.4-2.2-13.4c0-1.4,0-2.7,0.1-4.1
			c0.1-1.3,0.3-2.7,0.6-4.2c-1.1,0-2.6,0-4.7,0.1c-2.1,0-4.3,0.1-6.6,0.1c-2.3,0-4.6,0.1-6.8,0.1c-2.2,0-4,0-5.4,0
			c-0.7,0.2-1.2,0.6-1.6,1.3c-0.3,0.7-0.6,1.5-0.8,2.5c-0.2,1-0.3,2-0.4,3s-0.2,1.9-0.2,2.7h-1.3v-28.4h1.3c0.1,0.8,0.2,1.7,0.4,2.8
			c0.2,1.1,0.4,2.1,0.7,3c0.3,1,0.7,1.8,1.2,2.4c0.5,0.7,1,1,1.6,1h63.7c0.6,0,1.1-0.1,1.4-0.2c0.3-0.1,0.7-0.4,1-1
			c0.4-0.7,0.9-1.8,1.7-3.3c0.7-1.5,1.3-2.8,1.7-3.7h0.7l6.7,17v0.7h-12.9l-0.2,0.1c1.5,1.1,3,2.3,4.5,3.6s2.9,2.8,4.2,4.4
			c1.3,1.6,2.3,3.3,3.2,5.2c0.8,1.9,1.3,3.9,1.3,6.1c0,3.6-0.7,6.7-2.2,9.3s-3.4,4.8-5.8,6.5s-5.1,3-8.1,3.8s-6,1.3-9.1,1.3
			C1829.2,738.8,1825.2,738,1821.5,736.5z M1838.3,727.4c2.5-0.7,4.7-1.7,6.6-3.2c1.9-1.4,3.4-3.2,4.5-5.4s1.7-4.7,1.7-7.6
			c0-2-0.4-3.8-1.1-5.3c-0.7-1.6-1.6-2.9-2.5-4c-1-1.1-1.9-1.9-2.9-2.5s-1.7-0.9-2.2-0.9c-1.5,0-3.2,0-4.9-0.1
			c-1.7,0-3.2-0.1-4.5-0.1c-3.1,0-5.6,0-7.4,0s-3.5,0-5.3,0.1c-1.6,0.2-3.3,0.4-5,0.8c-1.7,0.4-3.3,1-4.7,1.9
			c-1.4,0.9-2.6,2.2-3.5,3.8s-1.3,3.7-1.3,6.2c0,2.2,0.6,4.4,1.8,6.4c1.2,2.1,2.9,3.9,5.1,5.5c2.1,1.6,4.7,2.9,7.7,3.8
			c3,1,6.2,1.4,9.8,1.4C1833.1,728.4,1835.8,728.1,1838.3,727.4z"/>
		<path class="st1" d="M1814.8,785.8c-2.1-1.1-4-2.5-5.8-4.4c-1.8-1.8-3.2-4-4.4-6.6c-1.2-2.6-1.7-5.4-1.7-8.6
			c0-3.9,0.7-7.5,2.2-10.7s3.5-6,6.2-8.2c2.6-2.3,5.8-4,9.3-5.2c3.6-1.2,7.3-1.8,11.3-1.8c3.2,0,6.4,0.6,9.6,1.7
			c3.2,1.2,6,2.8,8.6,4.9c2.5,2.1,4.6,4.7,6.2,7.7s2.4,6.4,2.4,10.1c0,3-0.4,5.8-1.2,8.5c-0.8,2.6-1.9,4.9-3.5,6.9s-3.5,3.5-5.9,4.8
			c-2.4,1.2-5.2,2-8.4,2.2v-36.9c-0.6,0-1.3,0-2.1-0.1c-0.8-0.1-1.6-0.1-2.5-0.1c-3.2,0-6.3,0.5-9.3,1.4s-5.6,2.3-7.8,4
			c-2.3,1.8-4,4-5.3,6.7s-2,5.8-2,9.3c0,3.8,1,7.2,2.9,10.1s4.4,4.8,7.2,5.7l-0.2,0.9C1818.8,787.6,1816.9,786.9,1814.8,785.8z
			 M1853.5,772.6c2-2,3-4.6,3-7.9c0-2.1-0.6-4.1-1.9-5.8s-2.7-3.2-4.4-4.5c-1.7-1.3-3.4-2.2-5.1-2.9s-3-1.1-4-1.3c0,1.8,0,3.3,0,4.7
			s0,2.7,0.1,4.1c0,1.3,0.1,2.7,0.1,4.2s0.1,3.1,0.1,4.8c0,1.1,0,2.2,0.1,3.2s0.3,1.9,0.6,2.6c0.6,0.5,1.2,0.9,1.7,1.2
			s1.3,0.4,2.4,0.4C1849.1,775.6,1851.5,774.6,1853.5,772.6z"/>
		<path class="st1" d="M1848.3,825.8c-1.1-1-1.7-2.1-1.7-3.5c0-1.2,0.2-2.2,0.6-2.9s0.9-1.4,1.4-1.9s1-1.1,1.4-1.7
			c0.4-0.6,0.6-1.5,0.6-2.5c0-0.9-0.3-1.8-1-2.7s-1.5-1.7-2.5-2.5s-2.1-1.5-3.4-2.1s-2.5-1.2-3.6-1.6H1807c-0.7,0.2-1.2,0.7-1.6,1.5
			s-0.7,1.6-0.8,2.6c-0.2,1-0.2,2-0.3,3c0,1-0.1,1.9-0.3,2.7h-1.2v-25.8h1.2c0.2,1.8,0.5,3.3,1,4.5c0.5,1.3,1.4,1.9,2.6,1.9h38.9
			c0.6,0,1.1-0.1,1.4-0.2c0.3-0.1,0.7-0.4,1-1c0.4-0.7,0.9-1.5,1.4-2.4s1.1-1.8,1.4-2.8h0.7l5.9,15.1v0.7l-16-0.2v0.2
			c0.9,0.4,2.3,1,4,1.8c1.8,0.8,3.5,1.9,5.3,3.2s3.4,2.9,4.7,4.7c1.3,1.8,2,3.9,2,6.3c0,1.9-0.6,3.5-1.7,4.9c-1.2,1.3-2.6,2-4.4,2
			C1850.8,827.3,1849.4,826.8,1848.3,825.8z"/>
		<path class="st1" d="M1803,825.3h1.2c0.1,0.9,0.2,1.8,0.3,2.8s0.3,1.7,0.6,2.5c0.3,0.7,0.6,1.3,1.1,1.8s1,0.7,1.7,0.7h39.4
			c0.6,0,1.1-0.1,1.6-0.2c0.5-0.1,0.9-0.4,1.3-1c0.5-0.7,0.9-1.5,1.4-2.5s0.9-2,1.3-3h0.7l5.1,15.5v0.7h-51.4
			c-0.8,0.2-1.3,0.5-1.7,1c-0.3,0.5-0.6,1.1-0.7,1.8c-0.2,0.7-0.2,1.4-0.3,2.2c0,0.8-0.1,1.6-0.3,2.4h-1.2L1803,825.3L1803,825.3z
			 M1872.3,841.8c-1.2-1.2-1.8-2.7-1.8-4.4s0.6-3.1,1.8-4.4c1.2-1.2,2.7-1.8,4.4-1.8c1.8,0,3.2,0.6,4.4,1.8c1.2,1.2,1.7,2.7,1.7,4.4
			c0,1.8-0.6,3.2-1.7,4.4c-1.2,1.2-2.6,1.8-4.4,1.8C1875,843.5,1873.5,842.9,1872.3,841.8z"/>
		<path class="st1" d="M1814.8,897.1c-2.1-1.1-4-2.5-5.8-4.4c-1.8-1.8-3.2-4-4.4-6.6c-1.2-2.6-1.7-5.4-1.7-8.6
			c0-3.9,0.7-7.5,2.2-10.7s3.5-6,6.2-8.2c2.6-2.3,5.8-4,9.3-5.2c3.6-1.2,7.3-1.8,11.3-1.8c3.2,0,6.4,0.6,9.6,1.7
			c3.2,1.1,6,2.8,8.6,4.9c2.5,2.1,4.6,4.7,6.2,7.7s2.4,6.4,2.4,10.1c0,3-0.4,5.8-1.2,8.5c-0.8,2.6-1.9,4.9-3.5,6.9s-3.5,3.5-5.9,4.8
			c-2.4,1.2-5.2,2-8.4,2.2v-36.9c-0.6,0-1.3,0-2.1-0.1c-0.8-0.1-1.6-0.1-2.5-0.1c-3.2,0-6.3,0.5-9.3,1.4s-5.6,2.3-7.8,4
			c-2.3,1.8-4,4-5.3,6.7s-2,5.8-2,9.3c0,3.8,1,7.2,2.9,10.1s4.4,4.8,7.2,5.7l-0.2,0.9C1818.8,898.9,1816.9,898.2,1814.8,897.1z
			 M1853.5,884c2-2,3-4.6,3-7.9c0-2.1-0.6-4.1-1.9-5.8s-2.7-3.2-4.4-4.5c-1.7-1.3-3.4-2.2-5.1-2.9s-3-1.1-4-1.3c0,1.8,0,3.3,0,4.7
			s0,2.7,0.1,4.1c0,1.3,0.1,2.7,0.1,4.2s0.1,3.1,0.1,4.8c0,1.2,0,2.2,0.1,3.2s0.3,1.9,0.6,2.6c0.6,0.5,1.2,0.9,1.7,1.2
			s1.3,0.4,2.4,0.4C1849.1,886.9,1851.5,885.9,1853.5,884z"/>
		<path class="st1" d="M1803,931.9h1.3c0.2,2.1,0.4,3.7,0.7,4.9c0.3,1.2,1.1,1.8,2.4,1.8h29c4.4,0,8-0.8,10.8-2.5
			c2.7-1.7,4.1-4.5,4.1-8.5c0-2.5-0.5-4.6-1.6-6.3s-2.6-3.6-4.7-5.6h-37.7c-0.8,0.2-1.3,0.4-1.7,0.8c-0.3,0.4-0.6,0.8-0.7,1.4
			c-0.2,0.5-0.2,1.1-0.3,1.8c0,0.7-0.1,1.4-0.3,2.2h-1.2v-22.2h1.2c0.2,1.8,0.5,3.3,1,4.5c0.5,1.3,1.4,1.9,2.6,1.9h39.6
			c0.6,0,1.1-0.1,1.4-0.2c0.3-0.1,0.7-0.4,1-1c0.4-0.7,0.8-1.5,1.3-2.4s0.9-1.8,1.3-2.8h0.7l5.4,15.1v0.7h-12.4l-0.1,0.2
			c1.3,0.8,2.7,1.9,4.2,3.2s2.9,2.7,4.1,4.3s2.2,3.4,3,5.3c0.8,1.9,1.2,3.9,1.2,6c0,4.4-1.6,7.8-4.9,10.2s-7.6,3.6-12.8,3.6H1807
			c-0.5,0-1,0.2-1.4,0.7s-0.7,1.1-0.9,1.8c-0.2,0.7-0.3,1.4-0.5,2.2c-0.1,0.8-0.2,1.6-0.3,2.2h-1v-23.3L1803,931.9L1803,931.9z"/>
		<path class="st1" d="M1812.9,1001c-2-1.4-3.8-3.1-5.4-5.1s-2.8-4.2-3.6-6.7c-0.8-2.5-1.3-5.2-1.3-8.1c0-3.7,0.7-7.1,2.1-10.2
			s3.4-5.8,6-8s5.6-4,9-5.2c3.5-1.3,7.1-1.9,11-1.9c3.7,0,7.2,0.7,10.5,2s6.3,3.1,8.8,5.4c2.5,2.3,4.6,5,6.1,8.2s2.3,6.7,2.3,10.4
			c0,2.5-0.3,5-0.9,7.5s-1.5,4.6-2.6,6.6c-1.2,1.9-2.6,3.5-4.3,4.7c-1.7,1.2-3.6,1.8-5.9,1.8c-1.6,0-3-0.6-4.2-1.8s-1.8-2.6-1.8-4.2
			c0-1.3,0.4-2.5,1.2-3.5c0.8-1,1.7-1.7,2.9-2c1.1,0.4,2.4,0.6,3.9,0.6c2.8,0,5.2-0.7,7.1-2.2s2.8-3.9,2.8-7.1
			c0-2.4-0.6-4.6-1.8-6.6c-1.2-2-2.9-3.7-4.9-5.2c-2.1-1.5-4.5-2.6-7.2-3.5c-2.8-0.8-5.7-1.3-8.9-1.3c-3.5,0-6.6,0.5-9.5,1.4
			s-5.3,2.2-7.4,3.9c-2,1.7-3.6,3.7-4.7,6.2c-1.1,2.4-1.7,5.1-1.7,8.1c0,4.8,0.8,8.5,2.4,11.3s3.9,5.1,7,6.9l-0.5,0.9
			C1817.1,1003.4,1815,1002.4,1812.9,1001z"/>
		<path class="st1" d="M1814.8,1047.8c-2.1-1.1-4-2.5-5.8-4.4c-1.8-1.8-3.2-4-4.4-6.6c-1.2-2.6-1.7-5.4-1.7-8.6
			c0-3.9,0.7-7.5,2.2-10.7s3.5-6,6.2-8.2c2.6-2.3,5.8-4,9.3-5.2c3.6-1.2,7.3-1.8,11.3-1.8c3.2,0,6.4,0.6,9.6,1.7
			c3.2,1.1,6,2.8,8.6,4.9c2.5,2.1,4.6,4.7,6.2,7.7s2.4,6.4,2.4,10.1c0,3-0.4,5.8-1.2,8.5c-0.8,2.6-1.9,4.9-3.5,6.9s-3.5,3.5-5.9,4.8
			c-2.4,1.2-5.2,2-8.4,2.2v-36.9c-0.6,0-1.3,0-2.1-0.1c-0.8-0.1-1.6-0.1-2.5-0.1c-3.2,0-6.3,0.5-9.3,1.4s-5.6,2.3-7.8,4
			c-2.3,1.8-4,4-5.3,6.7s-2,5.8-2,9.3c0,3.8,1,7.2,2.9,10.1s4.4,4.8,7.2,5.7l-0.2,0.9C1818.8,1049.5,1816.9,1048.9,1814.8,1047.8z
			 M1853.5,1034.6c2-2,3-4.6,3-7.9c0-2.1-0.6-4.1-1.9-5.8c-1.3-1.7-2.7-3.2-4.4-4.5c-1.7-1.3-3.4-2.2-5.1-2.9c-1.7-0.7-3-1.1-4-1.3
			c0,1.8,0,3.3,0,4.7c0,1.4,0,2.7,0.1,4.1c0,1.3,0.1,2.7,0.1,4.2s0.1,3.1,0.1,4.8c0,1.2,0,2.2,0.1,3.2s0.3,1.9,0.6,2.6
			c0.6,0.5,1.2,0.9,1.7,1.2c0.5,0.3,1.3,0.4,2.4,0.4C1849.1,1037.5,1851.5,1036.6,1853.5,1034.6z"/>
	</g>
</g>
</svg>
