<?xml version="1.0" encoding="utf-8"?>
<!-- Generator: Adobe Illustrator 26.2.1, SVG Export Plug-In . SVG Version: 6.00 Build 0)  -->
<svg version="1.1" id="圖層_1" xmlns="http://www.w3.org/2000/svg" xmlns:xlink="http://www.w3.org/1999/xlink" x="0px" y="0px"
	 viewBox="0 0 165 1000" style="enable-background:new 0 0 165 1000;" xml:space="preserve">
<style type="text/css">
	.st0{enable-background:new    ;}
	.st1{fill:#D8D8D8;}
</style>
<g class="st0">
	<path class="st1" d="M67.3,288c-0.5-1.5-1.3-2.6-2.4-3.3c-0.8-0.5-2.1-0.8-3.9-0.9c-1.8-0.1-3.5-0.1-5.3-0.1H39
		c-0.5-0.5-1.2-1.9-2.3-4s-2.2-4.7-3.3-7.7s-2.1-6.4-2.8-10.1s-1.2-7.4-1.2-11c0-7.3,0.9-13.8,2.8-19.5c1.9-5.8,4.6-10.6,8.3-14.5
		c3.6-3.9,8.1-7,13.3-9.1c5.3-2.1,11.1-3.2,17.7-3.2c1.9,0,4.1,0.2,6.6,0.6s5.1,1.1,7.9,2c2.8,1,5.6,2.3,8.4,4s5.5,3.9,8,6.5
		c3.6,3.7,6.5,8.2,8.7,13.6s3.3,11.9,3.3,19.6c0,4.6-0.4,8.7-1.2,12.2c-0.8,3.5-1.7,6.5-2.6,8.9c-1,2.4-1.8,4.3-2.6,5.6
		c-0.8,1.3-1.2,2-1.2,2.2s0.5,0.6,1.4,1.3s2,1.5,3.3,2.5v1H86.3v-1.4c3.5-0.8,6.7-2.1,9.8-3.8c3.1-1.7,5.6-3.5,7.6-5.4
		c2.6-2.5,4.7-5.6,6.3-9.4c1.6-3.8,2.4-8.1,2.4-12.9c0-5.1-1.1-9.6-3.4-13.7s-5.3-7.5-9.1-10.3c-3.8-2.8-8.2-5-13.1-6.6
		c-4.9-1.5-10.1-2.3-15.6-2.3c-6,0-11.4,0.7-16.4,2.2c-4.9,1.5-9.2,3.6-12.7,6.3c-3.5,2.8-6.3,6.1-8.2,10.1c-2,4-2.9,8.5-2.9,13.7
		c0,3.7,0.6,7.1,1.9,10.3c1.3,3.2,3.3,5.7,6.2,7.5c1,0.6,2.8,1.1,5.3,1.4s5.1,0.5,7.8,0.5s5.1-0.1,7.2-0.4c2.1-0.3,3.9-1.1,5.3-2.4
		c2-1.8,3.2-4.9,3.6-9.3h1.2v33.6h-1.2C68.1,291,67.8,289.5,67.3,288z"/>
	<path class="st1" d="M30,361.3c0.7-0.7,1.2-1.2,1.6-1.5c0.3-0.3,0.7-0.7,1.2-1c0.5-0.4,1.1-0.9,2-1.4c0.9-0.6,2.2-1.5,4-2.7
		c2.1-1.5,4.1-2.7,5.8-3.9c1.7-1.1,3.4-2.2,5.1-3.4c1.7-1.1,3.4-2.4,5.1-3.7c1.7-1.3,3.7-2.9,5.8-4.8c1.8-1.5,3.4-3.2,4.9-5
		c1.5-1.8,2.5-3.7,2.9-5.7c0.3-1.5,0.5-2.6,0.5-3.3c0-0.7,0-1.6,0.1-2.6c-5,0-9.3,0-13,0s-6.8,0-9.3,0.1s-4.6,0.2-6.3,0.2
		c-1.8,0.1-3.2,0.5-4.4,1.3c-1,0.6-2,1.8-3,3.6c-1,1.8-1.6,4.2-1.8,7.4H30v-36.8h1.2c0.3,1.9,0.8,3.8,1.4,5.5
		c0.6,1.8,1.5,3.1,2.8,4.1c0.5,0.4,1.2,0.7,2.1,0.9s2,0.4,3.1,0.5c1.2,0.1,2.4,0.2,3.7,0.3c1.3,0.1,2.6,0.1,3.8,0.1
		c1.1,0,2.5,0,4.4,0.1c1.8,0,3.9,0.1,6,0.1c2.2,0,4.4,0.1,6.7,0.1c2.4,0,4.6,0,6.7,0h22.4c1.4,0,2.8,0,4.2-0.1c1.4,0,2.8-0.1,4-0.2
		c1.3-0.1,2.4-0.3,3.5-0.6c1-0.3,1.8-0.6,2.2-1.1c1.2-1.2,2-2.4,2.5-3.9c0.4-1.4,0.8-3.2,1.1-5.2h1.1c0,0.6,0,2.2,0,4.7
		c0,2.6,0,5.6,0.1,8.9c0,3.3,0.1,6.6,0.1,9.9s0,6,0,8c0,5.1-0.2,9.7-0.5,13.7s-1.3,7.6-3.1,10.9c-1.8,3.4-4.2,6.1-7.2,8.2
		s-6.8,3.1-11.4,3.1c-2.8,0-5.4-0.5-7.6-1.6c-2.3-1-4.3-2.4-6-4.1s-3.2-3.7-4.4-6c-1.2-2.3-2.3-4.7-3.1-7.2h-0.3
		c-0.7,1.3-1.7,2.6-3,3.8c-1.3,1.2-2.8,2.4-4.4,3.6c-2.9,2-6.1,4.2-9.4,6.5c-3.4,2.3-6.4,4.4-9,6.3c-4,2.8-6.9,5.6-8.7,8.3
		c-1.8,2.7-3,5.8-3.6,9.4H30V361.3z M101.6,349.9c3-1.9,5.4-4.7,7.1-8.4c0.8-1.8,1.5-3.8,1.8-5.8c0.4-2,0.6-4.2,0.6-6.4
		c0-1.6,0-2.9-0.1-3.9s-0.2-1.8-0.2-2.3c-0.5-0.1-0.9-0.2-1.2-0.2c-0.3-0.1-0.8-0.1-1.3-0.2c-0.5,0-1.3-0.1-2.2-0.1
		c-1,0-2.3-0.1-4.1-0.2c-2.7-0.1-5.7-0.1-9.1-0.2c-3.4,0-6.6-0.1-9.8-0.1c-3.1,0-5.9,0-8.3,0c-2.3,0-3.8,0-4.4,0
		c0,3.1,0.1,6.1,0.4,8.8c0.3,2.7,0.8,5.3,1.7,7.9c0.8,2.5,1.8,4.6,3.1,6.3c1.3,1.8,2.8,3.2,4.4,4.3c1.6,1.1,3.4,1.9,5.3,2.5
		c1.9,0.5,3.9,0.8,6,0.8C95.2,352.8,98.7,351.8,101.6,349.9z"/>
	<path class="st1" d="M30,428.9h1.2c0,0.2,0.1,0.8,0.2,1.7c0.2,0.9,0.4,1.8,0.8,2.8c0.4,1,0.9,1.8,1.6,2.5c0.7,0.7,1.6,1.1,2.6,1.1
		c0.7,0,1.8-0.2,3.4-0.6c1.6-0.4,3.5-1,5.8-1.8s4.8-1.6,7.5-2.6c2.8-1,5.6-2.1,8.6-3.2v-30.6c-2.9-1.2-5.7-2.3-8.3-3.3
		c-2.6-1.1-5.3-2.1-8-3.2c-4.1-1.6-7.1-2.4-8.7-2.4c-1,0-1.8,0.3-2.5,0.9s-1.2,1.4-1.6,2.4c-0.4,1-0.7,2-0.9,3.1
		c-0.2,1.1-0.4,2.2-0.5,3.2H30v-24.5h1.3c0.2,2,0.8,3.7,1.6,5.1s1.4,2.2,1.7,2.5c0.5,0.5,1.8,1.4,3.8,2.6s4.9,2.7,8.9,4.5
		c3.6,1.6,7.7,3.4,12.3,5.4s9.3,4,14.2,6.2c4.9,2.1,9.8,4.2,14.7,6.3c4.9,2.1,9.6,4,13.9,5.9l2.5-1.1c0.6,1.4,1.3,2.6,2.2,3.7
		c0.8,1.1,1.7,2.1,2.6,2.9s1.8,1.6,2.6,2.1c0.8,0.6,1.5,1,2.1,1.3v0.9c-6.4,2.4-12.4,4.6-18.1,6.8c-5.7,2.1-11.2,4.2-16.5,6.2
		s-10.4,3.9-15.4,5.7s-9.8,3.7-14.7,5.5c-2.4,0.8-4.4,1.6-5.9,2.4c-1.6,0.7-3.4,1.6-5.3,2.5c-0.3,0.2-0.8,0.5-1.6,1
		s-1.6,1.2-2.4,2.1c-0.8,0.9-1.5,2-2.1,3.3c-0.6,1.3-1,2.8-1,4.6H30V428.9z M99.7,413.8c-1-0.5-2.6-1.1-4.7-2s-4.8-2-7.8-3.3
		c-3.1-1.3-6.5-2.7-10.4-4.3c-3.9-1.6-8.1-3.3-12.6-5.1v28.6c3.5-1.3,6.9-2.6,10.3-4c3.5-1.3,6.8-2.6,9.9-3.9
		c3.2-1.3,6.1-2.4,8.7-3.5C95.8,415.4,98,414.5,99.7,413.8z"/>
	<path class="st1" d="M81.2,527.6c-2.3-0.9-4.3-2.1-6.1-3.6c-1.8-1.5-3.3-3.2-4.5-5.2c-1.3-2-2.3-4-3-6.1c-0.8-2.1-1.3-4.4-1.7-6.9
		c-0.4-2.5-0.7-4.9-0.9-7.4c-0.2-2.5-0.3-4.9-0.3-7.3c0-2.3,0-4.4,0-6.2c-2.5,0-4.6,0-6.3,0s-3.2,0-4.5,0s-2.5,0-3.6,0.1
		c-1.1,0-2.3,0.1-3.6,0.1c-2.5,0.1-4.6,0.2-6.3,0.2c-1.8,0.1-3.2,0.5-4.4,1.3c-1,0.6-2,1.8-3,3.6s-1.6,4.2-1.7,7.4H30v-36.8h1.2
		c0.3,1.9,0.8,3.8,1.4,5.5c0.6,1.8,1.5,3.1,2.8,4.1c0.5,0.4,1.2,0.7,2.1,0.9s2,0.4,3.1,0.5c1.2,0.1,2.4,0.2,3.7,0.3s2.6,0.1,3.8,0.1
		c1.1,0,2.5,0,4.4,0.1c1.8,0,3.9,0.1,6,0.1c2.2,0,4.4,0.1,6.7,0.1c2.4,0,4.6,0,6.7,0h22.4c1.4,0,2.8,0,4.2-0.1c1.4,0,2.8-0.1,4-0.2
		c1.3-0.1,2.4-0.3,3.5-0.6c1-0.3,1.8-0.6,2.2-1.1c1.2-1.2,2-2.6,2.5-4.4c0.4-1.8,0.8-3.7,1.1-5.8h1.1c0,0.5,0,1.4,0,2.8
		c0,1.5,0,3.2,0.1,5.1c0,2,0.1,4.1,0.1,6.4s0,4.6,0.1,6.8c0,2.3,0.1,4.4,0.1,6.4c0,2.1,0,3.8,0,5.2c0,5.1-0.2,9.5-0.7,13.5
		c-0.5,3.9-1.7,7.6-3.6,11c-1.8,3.4-4.4,6.2-7.8,8.4s-7.4,3.3-12,3.3C86,528.8,83.5,528.5,81.2,527.6z M101.3,513.1
		c3.5-2.3,6.1-5.2,7.8-8.9c0.8-1.8,1.4-3.8,1.7-5.9c0.3-2.1,0.5-4.2,0.5-6.4c0-1.6-0.1-2.9-0.2-3.7c-0.1-0.9-0.2-1.6-0.3-2.1
		c-0.5-0.1-0.9-0.2-1.2-0.3c-0.3-0.1-0.8-0.2-1.3-0.3s-1.3-0.2-2.2-0.2c-1-0.1-2.3-0.2-4.1-0.2c-2.7-0.1-5.9-0.1-9.8-0.2
		c-3.8,0-7.6-0.1-11.3-0.1c-3.7,0-6.9,0-9.7,0s-4.4,0-5.1,0c0,3.1,0.1,6.1,0.3,8.9c0.2,2.8,0.7,5.3,1.6,7.7
		c1.7,4.9,4.5,8.7,8.3,11.3c3.9,2.6,8.2,3.9,13.1,3.9C93.9,516.5,97.8,515.3,101.3,513.1z"/>
	<path class="st1" d="M30,590.7h1.2c0.2,2.8,0.7,5.2,1.6,7.1c0.8,1.9,1.7,3.2,2.7,3.8c0.2,0.2,0.7,0.3,1.4,0.4
		c0.7,0.1,1.5,0.2,2.4,0.3s1.9,0.1,2.9,0.2c1,0,2,0.1,2.9,0.1c2.5,0.1,5.1,0.1,7.8,0.1c2.8,0,5.3,0,7.7,0c2.5,0,4.6,0,6.4,0
		c1.9,0,3.3,0,4,0v-45.4H46.2c-2.2,0-4.4,0-6.4,0.1c-2.1,0.1-3.5,0.4-4.4,1c-1.3,0.9-2.3,2.2-3,3.9s-1.1,3.3-1.3,4.9H30v-33.9h1.2
		c0.3,1.9,0.8,3.8,1.6,5.5c0.7,1.8,1.6,3.1,2.7,4c0.4,0.3,1,0.6,1.9,0.7c0.9,0.2,1.9,0.3,3,0.5c1.2,0.1,2.4,0.2,3.7,0.3
		s2.6,0.1,3.9,0.1c1.1,0,2.5,0,4.4,0.1c1.8,0,3.9,0.1,6,0.1c2.2,0,4.4,0.1,6.7,0.1c2.4,0,4.6,0,6.7,0h22.4c1.4,0,2.8,0,4.1,0
		c1.4,0,2.7-0.1,3.9-0.2c1.2-0.1,2.3-0.3,3.2-0.5c1-0.2,1.7-0.6,2.2-1c1.3-1.1,2.2-2.4,2.8-4c0.6-1.6,1-3.4,1.2-5.3h1.1V568h-1.1
		c-0.2-1.1-0.4-2.2-0.7-3.4c-0.3-1.2-0.8-2.3-1.4-3.3c-0.7-1-1.6-1.8-2.7-2.5c-1.2-0.7-2.6-1.1-4.4-1.2c-2.7-0.1-5.6-0.1-8.7-0.2
		c-3.1,0-6.1-0.1-8.9-0.1s-5.2,0-7.4,0c-2.1,0-3.5,0-4.3,0v45.4c2.5,0,4.7,0,6.7,0c2.1,0,4.1,0,6,0s3.9,0,5.9,0s4.3,0,6.8-0.1
		c1.5-0.1,3-0.2,4.5-0.3c1.6-0.1,2.9-0.5,3.9-1.1c2.1-1.4,3.4-3,3.9-4.7c0.5-1.8,0.8-3.5,0.9-5.3h1.1v34.6h-1.1
		c-0.2-1.8-0.7-3.6-1.6-5.4c-0.8-1.8-2-3.1-3.5-3.9c-0.5-0.3-1.3-0.5-2.2-0.7c-1-0.2-2-0.3-3.2-0.3c-1.2-0.1-2.4-0.1-3.6-0.1
		s-2.4,0-3.6,0H74.3c-2.8,0-5.4,0-7.7,0c-2.2,0-4.4,0-6.7,0c-2.1,0-4.4,0-6.7,0.1c-2.3,0-4.8,0.1-7.6,0.1c-2.2,0-4.3,0.1-6.2,0.2
		s-3.2,0.4-3.9,0.9c-1.5,1-2.6,2.3-3.2,4c-0.6,1.7-1,3.5-1.3,5.5h-1C30,626.2,30,590.7,30,590.7z"/>
	<path class="st1" d="M30,634h1.2c0.3,1.9,0.8,3.7,1.5,5.3s1.7,3,3,4.2c0.5,0.4,1.1,0.7,2,0.9c0.8,0.2,1.8,0.3,3,0.5
		s2.4,0.2,3.6,0.2c1.3,0,2.5,0.1,3.7,0.1c1.1,0,2.5,0,4.4,0.1c1.8,0,3.9,0.1,6,0.1c2.2,0,4.4,0.1,6.7,0.1c2.4,0,4.6,0,6.7,0h22.4
		c1.4,0,2.8,0,4.1,0c1.4,0,2.7-0.1,3.9-0.2c1.2-0.1,2.3-0.3,3.2-0.5c1-0.2,1.7-0.6,2.2-1c1.3-1.1,2.2-2.4,2.8-4
		c0.6-1.6,1-3.4,1.2-5.3h1.1v34.4h-1.1c-0.2-1.6-0.7-3.3-1.3-5.2c-0.6-1.8-1.8-3.3-3.7-4.3c-1.3-0.7-3-1.1-4.9-1.1
		c-2,0-3.9-0.1-5.6-0.2c-1.9,0-3.8,0-5.7-0.1c-1.9,0-3.8-0.1-5.7-0.1c-1.9,0-3.9,0-6,0c-2,0-4.2,0-6.6,0h-26c-2.2,0-4.4,0-6.4,0.1
		c-2.1,0.1-3.5,0.4-4.4,1c-1.3,0.9-2.3,2.4-3,4.4s-1.1,3.8-1.3,5.4h-1C30,668.8,30,634,30,634z"/>
	<path class="st1" d="M86.1,753.8c3.7-1,7.1-2.5,10.3-4.5c3.2-2,6-4.4,8.4-7.1s4.3-5.8,5.6-9.2c1.4-3.4,2.1-7,2.1-10.9
		c0-5.3-1.2-10-3.6-14.1s-5.5-7.6-9.4-10.4s-8.3-4.9-13.3-6.4c-4.9-1.5-10-2.2-15.2-2.2c-5.5,0-10.7,0.8-15.5,2.4s-9,3.8-12.6,6.7
		s-6.4,6.4-8.5,10.6c-2.1,4.1-3.1,8.7-3.1,13.8c0,4,0.7,7.7,2.2,11.2s3.4,6.6,5.8,9.3c2.4,2.7,5.1,5,8.2,6.9
		c3.1,1.9,6.3,3.2,9.6,3.9v1.4L31.8,755v-1.4c1.3-0.9,2.5-1.9,3.6-2.9s1.6-1.7,1.6-2.1c0-0.2-0.4-0.8-1.2-2.1
		c-0.8-1.2-1.7-3-2.6-5.3c-1-2.3-1.8-5.1-2.5-8.4c-0.7-3.3-1.1-7.1-1.1-11.4c0-7.1,1-13.6,3-19.3c2-5.8,4.9-10.6,8.6-14.7
		c3.7-4,8.2-7.1,13.3-9.3c5.2-2.1,10.9-3.2,17.1-3.2c1.4,0,3,0.1,4.7,0.3c1.8,0.2,3.6,0.5,5.6,1s4.1,1.2,6.3,2.1
		c2.2,0.9,4.4,2,6.6,3.4c2.6,1.6,5.1,3.6,7.5,6s4.5,5.2,6.3,8.4s3.2,6.9,4.3,10.9c1.1,4.1,1.6,8.6,1.6,13.7c0,4.6-0.4,8.6-1.3,12.1
		c-0.8,3.5-1.8,6.3-2.8,8.6s-1.9,4.1-2.8,5.3c-0.8,1.2-1.3,1.9-1.3,2.1s0.2,0.4,0.5,0.9c0.3,0.4,0.8,0.9,1.3,1.4s1.1,1,1.7,1.6
		c0.7,0.5,1.3,1,2,1.5v1.3H86.2L86.1,753.8z"/>
</g>
</svg>
