<?xml version="1.0" encoding="utf-8"?>
<!-- Generator: Adobe Illustrator 26.2.1, SVG Export Plug-In . SVG Version: 6.00 Build 0)  -->
<svg version="1.1" id="圖層_1" xmlns="http://www.w3.org/2000/svg" xmlns:xlink="http://www.w3.org/1999/xlink" x="0px" y="0px"
	 viewBox="0 0 165 1000" style="enable-background:new 0 0 165 1000;" xml:space="preserve">
<style type="text/css">
	.st0{enable-background:new    ;}
	.st1{fill:#D8D8D8;}
</style>
<g id="グループ_22" transform="translate(-1768 -233)">
	<g class="st0">
		<path class="st1" d="M1878,555.5c-0.8-1.3-1.4-2.1-1.7-2.4c-0.2-0.2-0.6-0.6-1.2-1c-0.5-0.5-1.3-1-2.2-1.6c-1-0.6-2.2-1.3-3.7-2
			s-3.4-1.4-5.6-2.2c-3.8-1.2-7.9-2.6-12.5-4.3c-4.6-1.6-9.3-3.2-14.1-4.9c-4.8-1.6-9.7-3.3-14.5-5c-4.9-1.7-9.5-3.3-13.9-4.7
			l-11-4.8v-1.1c5.5-2.1,10.8-4,15.9-5.8s9.9-3.5,14.6-5.2c4.7-1.6,9.2-3.2,13.6-4.8c4.4-1.5,8.8-3.1,13.1-4.7
			c-3.5-1.2-7.2-2.5-11.1-3.9s-7.8-2.8-11.8-4.1c-4-1.4-7.9-2.8-11.8-4.1c-3.9-1.4-7.6-2.7-11.2-4l-11.3-5.1v-1.4
			c6.2-2.4,12.1-4.6,17.7-6.7s11-4.1,16.2-6.1s10.2-3.9,15.1-5.7s9.7-3.7,14.5-5.5c1.5-0.5,2.7-1,3.8-1.4c1.1-0.4,2.1-0.8,3-1.1
			c0.9-0.3,1.8-0.7,2.6-1.1c0.8-0.4,1.7-0.8,2.6-1.3c0.5-0.2,1-0.6,1.7-1s1.4-1,2-1.8c0.7-0.8,1.2-1.7,1.7-2.8
			c0.5-1.1,0.8-2.5,0.9-4.1h1.3v32.4h-1.1c0-0.4-0.1-1-0.2-2c-0.2-0.9-0.4-1.9-0.8-2.9s-1-1.9-1.7-2.6c-0.8-0.7-1.8-1.1-3.1-1.1
			c-0.7,0-2.3,0.4-4.8,1.2s-5.5,1.9-9.1,3.2s-7.5,2.7-11.7,4.3s-8.4,3.1-12.5,4.7s-7.9,3-11.5,4.4s-6.5,2.5-8.8,3.3
			c0.6,0.2,2.2,0.8,4.8,1.7c2.6,0.9,5.8,2.1,9.7,3.5c3.9,1.4,8.2,2.9,13.1,4.6s9.9,3.4,15.2,5.1c3.1-1.1,5.8-2.2,8.1-3.1
			c2.3-0.9,4.6-1.9,6.8-3c0.6-0.3,1.3-0.7,2-1.2s1.4-1.2,2-2.1c0.7-0.9,1.2-2,1.6-3.3s0.7-2.9,0.7-4.7h1.3v36h-1.1
			c-0.1-0.5-0.2-1.3-0.3-2.5c-0.2-1.2-0.4-2.4-0.9-3.6c-0.4-1.2-1-2.3-1.8-3.2c-0.8-1-1.7-1.4-2.9-1.4c-0.5,0-2,0.4-4.7,1.3
			c-2.6,0.8-5.9,1.9-9.7,3.2c-3.8,1.3-7.9,2.8-12.4,4.4c-4.4,1.6-8.7,3.1-12.8,4.6c-4.1,1.5-7.8,2.8-11,4c-3.3,1.2-5.6,2-7.1,2.6
			c0.5,0.2,1.7,0.6,3.4,1.2c1.7,0.6,3.8,1.3,6.3,2.2s5.3,1.8,8.3,2.9c3.1,1,6.2,2.1,9.4,3.1c3.2,1,6.4,2.1,9.5,3.1
			c3.2,1,6.2,2,8.9,2.8c3.5,1.1,6.1,1.7,7.7,1.8c1.6,0.2,2.8,0.2,3.6,0.2c1.1,0,2.1-0.3,2.8-1c0.7-0.7,1.3-1.5,1.8-2.5
			s0.9-2.1,1.2-3.2c0.3-1.2,0.4-2.2,0.5-3.1h1.1v25.3h-1.1C1879.4,558.5,1878.9,557,1878,555.5z"/>
		<path class="st1" d="M1798,629.1v-70.4h1.2c0.3,1.9,0.8,3.7,1.5,5.3s1.6,3,2.9,4.1c0.5,0.4,1.1,0.7,2,0.9s1.9,0.4,3,0.6
			c1.2,0.2,2.4,0.3,3.6,0.4c1.3,0.1,2.5,0.1,3.7,0.1c1.1,0,2.5,0,4.4,0.1c1.8,0,3.9,0.1,6,0.1c2.2,0,4.4,0.1,6.7,0.1
			c2.4,0,4.6,0,6.7,0h22.4c1.4,0,2.8,0,4.3-0.1c1.5,0,2.8-0.1,4.1-0.2c1.3-0.1,2.5-0.3,3.5-0.6s1.8-0.6,2.2-1.1
			c1.2-1.2,2-2.4,2.4-3.7c0.3-1.3,0.7-3,1-5.1h1.1v63.5l-19,7.8l-0.6-1.1c7.7-6.2,13-12,15.6-17.5c0.6-1.3,1.2-3.7,1.6-7.2
			c0.5-3.5,0.7-7.8,0.7-12.9c0-1.6-0.1-3.3-0.2-5s-0.2-3-0.4-3.7c-1.2-0.2-3.8-0.3-7.6-0.4c-3.8-0.1-8.3-0.2-13.3-0.2
			c-2.9,0-5.4,0-7.4,0s-3.6,0-4.9,0.1c-1.3,0-2.2,0.1-2.9,0.1c-0.6,0-1,0-1.3,0c0,0.4,0,1.1,0,2.3s0,2.5,0.1,4s0.2,3,0.3,4.5
			c0.1,1.5,0.3,2.7,0.5,3.7c0.5,2.3,1.3,4.2,2.2,5.8c0.9,1.5,2,2.8,3.3,3.7c1.3,1,2.8,1.7,4.5,2.3s3.7,1.1,5.8,1.6v1.4h-36.2V611
			c2.5-0.6,5-1.6,7.6-2.8c2.6-1.3,4.6-2.6,5.9-4c1.1-1.2,2-2.7,2.6-4.4c0.7-1.7,1.1-3.7,1.3-6c0.1-1.1,0.1-2.1,0.2-2.9
			c0-0.8,0.1-1.5,0.1-2.3c0-0.7,0-1.5,0-2.3s0-1.8,0-3c-1.1-0.2-2.6-0.2-4.7-0.2s-4.2,0-6.4,0c-1,0-2.1,0-3.5,0c-1.3,0-2.6,0-3.9,0
			c-1.2,0-2.4,0-3.5,0.1c-1.1,0-2.1,0.1-2.8,0.1c-2.5,0.1-4.8,0.2-7,0.4s-3.8,0.6-4.9,1.3s-1.8,2.3-2.3,4.9
			c-0.5,2.6-0.7,5.4-0.7,8.5c0,1.3,0,3,0.1,5s0.3,4.2,0.6,6.4c0.3,2.5,0.9,4.7,1.8,6.8s2.1,4.1,3.7,6s3.6,3.8,5.9,5.6
			s5.2,3.7,8.5,5.6l-0.3,1.3L1798,629.1z"/>
		<path class="st1" d="M1813.2,710.1c-2.2-0.8-4.2-2-5.9-3.3c-1.7-1.4-3.1-2.9-4.3-4.6c-1.2-1.7-2.1-3.4-2.7-5.1
			c-1.1-2.9-1.7-6.2-2-9.8c-0.2-3.6-0.3-7.1-0.3-10.5v-39.7h1.2c0.3,1.9,0.8,3.7,1.5,5.5c0.7,1.7,1.6,3.1,2.9,4.2
			c0.5,0.4,1.1,0.7,2,0.9s1.9,0.4,3,0.6c1.2,0.2,2.4,0.3,3.6,0.4c1.3,0.1,2.5,0.1,3.7,0.1c1.1,0,2.5,0,4.4,0.1c1.8,0,3.9,0.1,6,0.1
			c2.2,0,4.4,0.1,6.7,0.1c2.4,0,4.6,0,6.7,0c2.3,0,4.3,0,6.1,0c1.8,0,3.5,0,5.1,0c1.7,0,3.4,0,5.2-0.1c1.8,0,3.8-0.1,6.1-0.1
			c1.4,0,2.8,0,4.2-0.1c1.4-0.1,2.8-0.2,4.1-0.4c1.3-0.2,2.5-0.4,3.5-0.7s1.8-0.6,2.2-1.1c1.2-1.1,2-2.3,2.5-3.4
			c0.4-1.1,0.7-2.8,1-4.8h1.1v38.8c0,2.9-0.2,5.7-0.5,8.3s-1,5.2-1.9,7.6c-1.5,3.9-3.7,7.1-6.7,9.7c-3,2.5-6.8,3.8-11.4,3.8
			c-5.1,0-9.1-1.6-12.2-4.9c-3.1-3.3-5.2-7.5-6.3-12.7h-0.5c-0.3,2.8-1,5.5-2,8.2s-2.4,5.1-4.2,7.2c-1.8,2.1-3.9,3.8-6.3,5.1
			s-5.2,1.9-8.2,1.9C1817.9,711.5,1815.4,711,1813.2,710.1z M1825.7,697c2-0.7,3.8-1.7,5.4-3s3.1-2.8,4.3-4.5
			c1.2-1.7,2.1-3.6,2.8-5.7c0.5-1.7,0.9-3.4,1.1-5s0.3-3.6,0.3-5.8v-11.2c-2.5,0-4.9,0-7.4,0s-4.8,0-7,0c-2.1,0-4.1,0-5.9,0.1
			c-1.8,0-3.4,0.1-4.7,0.1c-2.9,0.1-5.3,0.2-7.2,0.4c-1.9,0.2-3.4,0.7-4.7,1.7c-0.8,0.7-1.6,1.7-2.1,3.1c-0.6,1.4-0.9,3.4-0.9,6
			c0,2.2,0.2,4.6,0.5,7.2c0.3,2.6,1.1,5.1,2.4,7.6c1.7,3.2,3.9,5.7,6.7,7.5c2.8,1.8,6.2,2.6,10.1,2.6
			C1821.6,698,1823.7,697.6,1825.7,697z M1870.6,690.5c3-2,5.1-4.4,6.4-7.3c1.5-3.4,2.3-7.9,2.3-13.2c0-1.6-0.1-3.1-0.2-4.4
			c-0.2-1.3-0.3-2.3-0.6-3c-0.5-0.1-0.9-0.2-1.3-0.2c-0.4-0.1-0.9-0.1-1.4-0.2c-0.6,0-1.3-0.1-2.1-0.1c-0.8,0-2-0.1-3.3-0.2
			c-2.7-0.1-5.6-0.1-8.9-0.2c-3.2,0-6.3-0.1-9.2-0.1c-2.8,0-5.3,0-7.4,0s-3.3,0-3.7,0c0,2.5,0,4.7,0,6.4c0,1.8,0,3.2,0.1,4.3
			c0.4,6.9,2.3,12.1,5.9,15.7c3.5,3.6,7.9,5.3,13.1,5.3C1864.2,693.5,1867.6,692.5,1870.6,690.5z"/>
		<path class="st1" d="M1849.8,826.5c-2-3.2-4.5-6.3-7.5-9.1c-3-2.9-6.2-5.7-9.8-8.5c-3.6-2.8-7.1-5.7-10.6-8.7
			c-1.4,1.1-3,2.3-4.8,3.7s-3.8,3.1-5.9,5.2c-2.1,2-3.8,4-5.1,6c-1.3,2-2,4.5-2,7.5c0,1.5,0.3,3,0.9,4.3s1.4,2.6,2.3,3.7
			s1.9,2.2,3,3.1c1.1,0.9,2.1,1.6,3,2.2l-0.5,1c-1.5-0.5-3.3-1.5-5.2-2.9c-2-1.4-3.8-3.1-5.5-5.1s-3.1-4.2-4.1-6.7
			c-1.1-2.5-1.6-5.1-1.6-7.8c0-2.5,0.4-4.9,1.3-7s2.1-4.2,3.6-6c1.5-1.9,3.3-3.6,5.2-5.2s4-3.1,6-4.4c-1.5-1-3.1-2.4-4.9-4.1
			c-1.8-1.8-3.6-3.8-5.2-6.2c-1.6-2.3-2.9-4.9-4-7.8c-1-2.8-1.6-5.8-1.6-9c0-3.5,0.5-6.7,1.6-9.5c1-2.8,2.5-5.2,4.4-7.1
			c1.9-1.9,4.1-3.4,6.6-4.4s5.2-1.6,7.9-1.6c3.2,0,6.2,0.7,8.9,2c2.7,1.3,5.2,3.1,7.4,5.3c2.2,2.2,4.1,4.6,5.9,7.3
			c1.7,2.7,3.2,5.3,4.5,7.9c1.8-1.7,3.4-3.3,4.8-4.7c1.4-1.5,2.9-2.7,4.4-3.8s3.2-1.9,5.1-2.6c1.8-0.7,4-1,6.6-1s4.8,0.6,7,1.8
			c2.1,1.2,3.9,2.7,5.4,4.6c1.5,1.9,2.7,4,3.5,6.3s1.3,4.7,1.3,7.1c0,2.1-0.3,4.1-0.9,6.1s-1.5,3.8-2.7,5.3
			c-1.2,1.6-2.7,2.9-4.5,3.9s-4,1.5-6.4,1.5c-2.5,0-4.7-0.5-6.7-1.6s-3.7-2.3-5.2-3.7s-2.7-2.9-3.7-4.3c-1-1.5-1.7-2.6-2.2-3.3
			c-1.8,2.4-3.8,4.6-5.8,6.6s-4.1,3.9-6.3,5.9c-2.5,2.1-4.9,4.1-7.5,5.9c-2.5,1.8-4.9,3.4-7,4.7c2.2,1.8,4.4,3.4,6.7,5
			c2.2,1.6,4.3,3,6.3,4.1c2,1.2,3.8,2.1,5.5,2.8c1.6,0.7,3,1,4,1c1.7,0,3-0.4,3.9-1.3c0.9-0.9,1.6-2.1,2.1-3.5
			c0.5-1.5,0.7-3.1,0.9-4.8c0.1-1.8,0.2-3.5,0.3-5.3h1.4l0.9,40.1h-1.4C1853.1,833.2,1851.8,829.6,1849.8,826.5z M1818.6,788
			c1.3-0.9,2.6-1.9,3.9-2.8c1.3-1,2.6-2,3.9-3.1s2.9-2.4,4.5-3.7c0.9-0.8,2-1.7,3.1-2.8s2.3-2.3,3.4-3.5s2.2-2.3,3.2-3.5
			c1-1.1,1.8-2.1,2.5-2.8c-1.1-1.3-2.3-2.6-3.8-4s-3.1-2.6-4.8-3.8c-1.8-1.1-3.7-2.1-5.8-2.8c-2.1-0.7-4.3-1.1-6.6-1.1
			c-2.3,0-4.5,0.4-6.6,1.2s-3.9,1.9-5.5,3.3c-1.6,1.5-2.8,3.2-3.7,5.2c-0.9,2-1.3,4.2-1.3,6.6c0,2.4,0.2,4.5,0.6,6.3
			s0.9,3.5,1.7,5.1c0.7,1.6,1.6,3.1,2.8,4.5c1.1,1.5,2.4,3,3.9,4.6C1815.7,790,1817.3,789,1818.6,788z M1870.5,780
			c1.7-0.5,3.3-1.2,4.6-2.1c1.3-0.9,2.4-2,3.3-3.3c0.8-1.3,1.3-2.7,1.3-4.3c0-1.4-0.3-2.6-0.9-3.6s-1.4-1.8-2.3-2.4
			c-0.9-0.6-1.9-1.1-3-1.4c-1.1-0.3-2.1-0.5-3-0.5c-2.5,0-4.4,0.2-5.8,0.7s-2.9,1.3-4.5,2.4c-1.8,1.3-3.4,2.7-4.8,4.2
			c-1.3,1.5-2.9,3.3-4.8,5.3c2.1,2,4.2,3.4,6.4,4.3c2.2,0.9,4.9,1.3,8.2,1.3C1867,780.6,1868.8,780.5,1870.5,780z"/>
		<path class="st1" d="M1877.5,941c-1.1-1.7-2.7-2.9-4.9-3.9c-0.5-0.2-1.4-0.4-2.6-0.6c-1.2-0.2-2.6-0.4-4.3-0.5
			c-1.6-0.2-3.3-0.3-5.1-0.3c-1.8-0.1-3.6-0.1-5.3-0.1c-3.3-0.1-7-0.2-11-0.3c-4.1-0.1-8.7-0.2-13.8-0.4c-1.5-0.1-3.3-0.2-5.5-0.3
			s-4.6-0.5-7.1-1.1s-5-1.6-7.5-2.9c-2.5-1.3-4.8-3.2-6.8-5.7s-3.6-5.6-4.8-9.4c-1.2-3.8-1.8-8.5-1.8-14.1c0-5.5,0.6-10.2,1.7-14
			s2.7-6.9,4.7-9.4s4.1-4.4,6.4-5.7s4.6-2.3,6.9-3s4.3-1,6.2-1.1c1.9-0.1,3.3-0.2,4.2-0.2c2.1,0,4.9,0,8.4,0.1
			c3.5,0,7.3,0.1,11.5,0.1h15.3c1.4,0,2.8,0,4.1,0c1.4,0,2.7-0.1,3.9-0.2c1.2-0.1,2.3-0.3,3.2-0.5c1-0.2,1.7-0.6,2.2-1
			c1.3-1.1,2.2-2.4,2.8-4c0.6-1.6,1-3.4,1.2-5.3h1.1v34.3h-1.1c-0.2-1.1-0.4-2.2-0.7-3.4c-0.3-1.2-0.8-2.3-1.4-3.3
			c-0.7-1-1.6-1.8-2.7-2.5c-1.2-0.7-2.6-1.1-4.4-1.2c-2-0.1-3.8-0.1-5.3-0.2c-1.5,0-3-0.1-4.5-0.1s-3,0-4.6,0c-1.5,0-3.3,0-5.4,0
			c-2.6,0-4.9,0-7,0s-4,0-5.9,0c-1.8,0-3.5,0-5.1,0.1c-1.6,0-3.4,0.1-5.2,0.1c-4.1,0.1-7.8,0.7-11.1,1.8s-6.2,2.8-8.5,4.8
			c-2.3,2.1-4.1,4.6-5.4,7.6s-1.9,6.4-1.9,10.2c0,4.4,0.5,8.1,1.5,11.1s2.4,5.6,4.1,7.6c1.8,2,3.8,3.6,6.1,4.8
			c2.3,1.2,4.8,2.1,7.4,2.6c2.6,0.6,5.3,1,8,1.1c2.7,0.2,5.4,0.3,8,0.3c2.1,0,3.9,0,5.6,0s3.3,0,4.7,0c1.5,0,3,0,4.5,0s3.1,0,4.7,0
			c1.5,0,3.1,0,4.7-0.1c1.6,0,3.1-0.1,4.6-0.2c1.5-0.1,2.8-0.2,4.1-0.3c1.3-0.2,2.3-0.4,3-0.7c2.1-0.8,3.9-2.1,5.2-4
			c1.3-1.9,2.3-4.7,2.8-8.3h1.1v28.5h-1.1C1879.3,945,1878.5,942.8,1877.5,941z"/>
		<path class="st1" d="M1798,951.2h1.2c0.3,1.9,0.8,3.7,1.5,5.3s1.7,3,3,4.2c0.5,0.4,1.1,0.7,2,0.9c0.8,0.2,1.8,0.3,3,0.5
			c1.2,0.1,2.4,0.2,3.6,0.2c1.3,0,2.5,0.1,3.7,0.1c1.1,0,2.5,0,4.4,0.1c1.8,0,3.9,0.1,6,0.1c2.2,0,4.4,0.1,6.7,0.1
			c2.4,0,4.6,0,6.7,0h22.4c1.4,0,2.8,0,4.1,0c1.4,0,2.7-0.1,3.9-0.2c1.2-0.1,2.3-0.3,3.2-0.5c1-0.2,1.7-0.6,2.2-1
			c1.3-1.1,2.2-2.4,2.8-4c0.6-1.6,1-3.4,1.2-5.3h1.1v34.4h-1.1c-0.2-1.6-0.7-3.3-1.3-5.2c-0.6-1.8-1.8-3.3-3.7-4.3
			c-1.3-0.7-3-1.1-4.9-1.1c-2,0-3.9-0.1-5.6-0.2c-1.9,0-3.8,0-5.7-0.1c-1.9,0-3.8-0.1-5.7-0.1c-1.9,0-3.9,0-6,0c-2,0-4.2,0-6.6,0
			h-26c-2.2,0-4.4,0-6.4,0.1c-2.1,0.1-3.5,0.4-4.4,1c-1.3,0.9-2.3,2.4-3,4.4s-1.1,3.8-1.3,5.4h-1.2v-34.8L1798,951.2L1798,951.2z"/>
	</g>
</g>
</svg>
