<svg width="156" height="778" viewBox="0 0 156 778" fill="none" xmlns="http://www.w3.org/2000/svg">
<path d="M40.5098 132.814C40.5098 130.775 40.4154 128.831 40.2266 126.98C40.0755 125.13 40 123.091 40 120.863L40 118.598C40 118.258 40.2077 118.012 40.623 117.861C41.0762 117.71 41.416 117.635 41.6426 117.635C42.0202 117.635 42.3411 117.673 42.6055 117.748C42.9075 117.861 43.0775 118.05 43.1152 118.314C43.2285 118.73 43.3229 119.221 43.3984 119.787C43.474 120.354 43.5306 120.939 43.5684 121.543C43.6439 122.147 43.6816 122.714 43.6816 123.242C43.7194 123.809 43.7383 124.299 43.7383 124.715C43.7383 125.621 43.946 126.49 44.3613 127.32C44.7767 128.189 45.2865 128.887 45.8906 129.416C46.3815 129.794 46.8535 130.115 47.3066 130.379C47.7975 130.643 48.4583 130.87 49.2891 131.059C50.1198 131.285 51.196 131.455 52.5176 131.568C53.8392 131.719 55.5762 131.87 57.7285 132.021L106.326 134.684C107.497 134.684 108.667 134.551 109.838 134.287C111.046 134.023 112.16 133.589 113.18 132.984C114.237 132.418 115.143 131.663 115.898 130.719C116.654 129.775 117.182 128.623 117.484 127.264C117.522 127.15 117.56 126.848 117.598 126.357C117.673 125.867 117.749 125.338 117.824 124.771C117.9 124.205 117.956 123.676 117.994 123.186C118.07 122.695 118.107 122.374 118.107 122.223C118.258 121.467 118.41 120.863 118.561 120.41C118.712 119.995 119.184 119.787 119.977 119.787C120.316 119.787 120.637 119.806 120.939 119.844C121.279 119.882 121.449 120.033 121.449 120.297L121.449 122.619C121.449 123.601 121.411 124.507 121.336 125.338C121.26 126.206 121.166 127.075 121.053 127.943C120.939 128.812 120.845 129.718 120.77 130.662C120.694 131.644 120.656 132.72 120.656 133.891L120.656 139.271C120.656 139.913 120.694 140.499 120.77 141.027C120.883 141.594 120.939 142.33 120.939 143.236C120.939 143.916 120.845 144.633 120.656 145.389C120.505 146.144 120.165 146.691 119.637 147.031C118.882 147.673 118.032 148.221 117.088 148.674C116.182 149.127 115.219 149.523 114.199 149.863L64.1289 168.895C63.7513 169.046 63.4303 169.197 63.166 169.348C62.9394 169.499 62.8262 169.669 62.8262 169.857C62.8262 170.122 62.9772 170.329 63.2793 170.48C63.5814 170.632 63.8646 170.745 64.1289 170.82L120.26 192.23C120.675 192.457 120.939 192.778 121.053 193.193C121.166 193.646 121.223 194.137 121.223 194.666C121.223 196.554 121.26 198.367 121.336 200.104C121.411 201.878 121.506 203.634 121.619 205.371C121.732 207.146 121.827 208.921 121.902 210.695C121.978 212.508 122.016 214.415 122.016 216.416C122.016 216.529 122.016 216.68 122.016 216.869C122.016 217.096 121.978 217.303 121.902 217.492C121.865 217.719 121.789 217.908 121.676 218.059C121.562 218.21 121.411 218.285 121.223 218.285C120.694 218.285 120.146 218.059 119.58 217.605C119.051 217.152 118.787 216.586 118.787 215.906C118.787 214.018 118.561 212.451 118.107 211.205C117.654 209.959 116.729 208.694 115.332 207.41C114.766 206.844 114.124 206.391 113.406 206.051C112.689 205.711 111.915 205.428 111.084 205.201C110.291 205.012 109.46 204.88 108.592 204.805C107.761 204.767 106.949 204.748 106.156 204.748L45.6641 205.654C44.8711 205.919 44.3236 206.561 44.0215 207.58C43.7194 208.6 43.5117 209.732 43.3984 210.979C43.3229 212.225 43.2474 213.433 43.1719 214.604C43.1341 215.812 42.9642 216.737 42.6621 217.379C42.4733 217.832 42.2279 218.096 41.9258 218.172C41.6614 218.247 41.416 218.285 41.1894 218.285C40.5853 218.285 40.2077 217.964 40.0566 217.322C39.9434 216.718 39.8867 215.887 39.8867 214.83C39.8867 213.622 39.9056 212.489 39.9434 211.432C39.9811 210.374 40 209.317 40 208.26C40.0378 207.24 40.0755 206.164 40.1133 205.031C40.151 203.898 40.1699 202.633 40.1699 201.236L40.1699 192.57C40.1699 191.475 40.151 190.418 40.1133 189.398C40.1133 188.379 40.0755 187.359 40 186.34C39.8867 185.132 39.8301 183.923 39.8301 182.715C39.8301 182.413 39.849 182.092 39.8867 181.752C39.8867 181.45 39.9434 181.148 40.0566 180.846C40.1699 180.581 40.3398 180.355 40.5664 180.166C40.8307 180.015 41.1706 179.939 41.5859 179.939C42.3411 179.939 42.832 180.411 43.0586 181.355C43.3229 182.299 43.4551 183.432 43.4551 184.754L43.4551 187.133C43.4551 187.926 43.474 188.662 43.5117 189.342C43.5495 190.059 43.6628 190.682 43.8516 191.211C44.0404 191.74 44.3047 192.155 44.6445 192.457C45.0221 192.797 45.5319 192.967 46.1738 192.967L106.326 192.23C106.515 192.23 106.779 192.193 107.119 192.117C107.459 192.042 107.629 191.91 107.629 191.721C107.629 191.456 107.572 191.249 107.459 191.098C107.383 190.984 107.308 190.89 107.232 190.814L41.1894 165.439C40.5853 165.288 40.2832 165.062 40.2832 164.76C40.2832 164.458 40.5853 164.193 41.1894 163.967L107.799 138.705C108.252 138.592 108.479 138.365 108.479 138.025C108.479 137.874 108.441 137.742 108.365 137.629C108.29 137.553 108.101 137.516 107.799 137.516L53.707 136.043C53.2539 136.043 52.6497 136.062 51.8945 136.1C51.1771 136.175 50.4219 136.27 49.6289 136.383C48.8359 136.534 48.0618 136.704 47.3066 136.893C46.5514 137.119 45.9095 137.402 45.3809 137.742C44.5879 138.233 44.0026 138.969 43.625 139.951C43.2852 140.971 43.0397 142.047 42.8887 143.18C42.7754 144.35 42.6999 145.502 42.6621 146.635C42.6243 147.805 42.5488 148.787 42.4355 149.58C42.3978 150.033 42.2279 150.335 41.9258 150.486C41.6237 150.675 41.3027 150.77 40.9629 150.77C40.7363 150.77 40.5475 150.637 40.3965 150.373C40.2454 150.146 40.1133 149.844 40 149.467C39.9245 149.127 39.8867 148.73 39.8867 148.277C39.849 147.824 39.8301 147.409 39.8301 147.031C39.8301 145.634 39.8678 144.331 39.9434 143.123C40.0189 141.915 40.0944 140.744 40.1699 139.611C40.2454 138.479 40.321 137.365 40.3965 136.27C40.472 135.174 40.5098 134.023 40.5098 132.814ZM23.7441 226.328C25.179 226.328 26.3496 226.743 27.2558 227.574C28.1243 228.443 28.5586 229.594 28.5586 231.029C28.5586 231.671 28.4075 232.275 28.1055 232.842C27.8034 233.408 27.4824 233.918 27.1426 234.371C26.765 234.862 26.4251 235.258 26.123 235.561C25.821 235.9 25.6699 236.127 25.6699 236.24C25.6699 237.26 26.0853 238.223 26.916 239.129C27.7467 240.035 28.7474 240.809 29.918 241.451C31.0508 242.131 32.2402 242.66 33.4863 243.037C34.6947 243.452 35.7142 243.66 36.5449 243.66C38.8861 243.66 41.2838 243.396 43.7383 242.867C46.2305 242.339 48.6094 241.753 50.875 241.111C57.2187 239.412 63.5247 237.807 69.793 236.297C76.0989 234.786 82.4427 233.219 88.8242 231.596C88.9375 231.596 89.1452 231.539 89.4473 231.426C89.7871 231.35 90.1269 231.256 90.4668 231.143C90.8444 231.029 91.1842 230.878 91.4863 230.689C91.7884 230.538 91.9772 230.387 92.0527 230.236C92.2415 229.821 92.3548 229.311 92.3926 228.707C92.4681 228.141 92.5058 227.48 92.5058 226.725C92.5058 225.969 92.5247 225.252 92.5625 224.572C92.638 223.93 92.7135 223.307 92.7891 222.703C92.9023 222.061 93.3366 221.74 94.0918 221.74C94.5449 221.74 94.847 221.929 94.998 222.307C95.1868 222.684 95.2812 223.081 95.2812 223.496C95.2812 224.327 95.2624 225.309 95.2246 226.441C95.1868 227.612 95.1491 228.783 95.1113 229.953C95.1113 231.124 95.0924 232.238 95.0547 233.295C95.0169 234.352 94.998 235.221 94.998 235.9C94.998 237.902 95.0547 239.903 95.168 241.904C95.2812 243.906 95.3379 245.794 95.3379 247.568C95.3379 247.719 95.319 247.984 95.2812 248.361C95.2812 248.777 95.2435 249.079 95.168 249.268C95.0924 249.419 94.9603 249.551 94.7715 249.664C94.5827 249.777 94.3561 249.834 94.0918 249.834C93.903 249.834 93.6953 249.645 93.4687 249.268C93.2799 248.928 93.1855 248.569 93.1855 248.191C93.1855 247.776 93.2044 247.285 93.2422 246.719C93.2799 246.152 93.2988 245.718 93.2988 245.416C93.2988 245.001 93.2799 244.566 93.2422 244.113C93.2044 243.66 93.1667 243.226 93.1289 242.811C93.0534 242.206 92.8835 241.697 92.6191 241.281C92.3548 240.904 91.9394 240.715 91.373 240.715C90.6556 240.715 89.9004 240.809 89.1074 240.998C88.3522 241.187 87.5781 241.395 86.7851 241.621C86.0299 241.885 85.2936 242.15 84.5762 242.414C83.8587 242.678 83.179 242.905 82.5371 243.094C77.6282 244.378 72.7383 245.699 67.8672 247.059C63.0338 248.418 57.8229 249.834 52.2344 251.307C52.2344 251.798 52.4609 252.251 52.9141 252.666C53.5182 253.006 54.1413 253.308 54.7832 253.572C55.4251 253.874 56.0482 254.101 56.6523 254.252C61.1458 255.838 65.6393 257.556 70.1328 259.406C74.6263 261.257 79.1764 263.163 83.7832 265.127C85.5579 265.958 87.3327 266.373 89.1074 266.373C89.5228 266.373 89.9381 266.354 90.3535 266.316C90.8066 266.279 91.2031 266.165 91.543 265.977C91.9206 265.826 92.2226 265.58 92.4492 265.24C92.6758 264.9 92.7891 264.41 92.7891 263.768L92.7891 262.012C92.7891 261.596 92.7891 261.143 92.7891 260.652C92.8268 260.199 92.8457 259.746 92.8457 259.293C92.8835 258.84 92.9023 258.443 92.9023 258.104C92.9401 257.801 92.9779 257.594 93.0156 257.48C93.1289 257.292 93.3932 257.197 93.8086 257.197C94.1484 257.197 94.4316 257.292 94.6582 257.48C94.9225 257.669 95.0924 257.971 95.168 258.387C95.2435 258.576 95.2812 258.896 95.2812 259.35L95.2812 260.426C95.2812 261.559 95.2435 262.597 95.168 263.541C95.1302 264.485 95.0547 265.391 94.9414 266.26C94.8659 267.166 94.7904 268.035 94.7148 268.865C94.6771 269.734 94.6582 270.64 94.6582 271.584C94.6582 273.208 94.7337 274.964 94.8848 276.852C95.0736 278.777 95.168 280.458 95.168 281.893C95.168 282.044 95.1491 282.251 95.1113 282.516C95.1113 282.818 95.0736 283.101 94.998 283.365C94.9603 283.63 94.8848 283.856 94.7715 284.045C94.6582 284.234 94.4883 284.328 94.2617 284.328C93.9219 284.328 93.6387 284.139 93.4121 283.762C93.2233 283.422 93.0723 283.007 92.959 282.516C92.8835 282.062 92.8268 281.59 92.7891 281.1C92.7513 280.609 92.7324 280.25 92.7324 280.023C92.6569 279.419 92.5625 278.777 92.4492 278.098C92.3359 277.456 92.166 276.814 91.9394 276.172C91.7129 275.53 91.3919 274.926 90.9766 274.359C90.5989 273.793 90.1081 273.321 89.5039 272.943C88.8997 272.528 88.2012 272.075 87.4082 271.584C86.6152 271.093 85.7656 270.583 84.8594 270.055C83.9909 269.564 83.1035 269.073 82.1973 268.582C81.3288 268.129 80.5169 267.732 79.7617 267.393C75.6836 265.505 71.5299 263.617 67.3008 261.729C63.0716 259.84 58.8991 257.896 54.7832 255.895C52.7819 254.951 50.8561 254.044 49.0058 253.176C47.1933 252.345 45.3808 251.514 43.5683 250.684C41.7936 249.891 40 249.079 38.1875 248.248C36.3372 247.455 34.4303 246.605 32.4668 245.699C32.1269 245.586 31.5228 245.303 30.6543 244.85C29.7858 244.396 28.8795 243.887 27.9355 243.32C26.9538 242.792 26.0475 242.263 25.2168 241.734C24.3861 241.243 23.8574 240.904 23.6308 240.715C22.8001 240.148 22.0072 239.563 21.2519 238.959C20.459 238.355 19.7793 237.675 19.2129 236.92C18.6087 236.202 18.1367 235.391 17.7969 234.484C17.457 233.578 17.2871 232.559 17.2871 231.426C17.2871 230.671 17.4948 229.972 17.9101 229.33C18.3255 228.726 18.8542 228.197 19.4961 227.744C20.138 227.291 20.8366 226.932 21.5918 226.668C22.347 226.441 23.0644 226.328 23.7441 226.328ZM40.793 310.1C41.9635 310.1 42.5488 310.93 42.5488 312.592C42.5488 313.762 42.6432 314.971 42.832 316.217C43.0586 317.463 43.3229 318.633 43.625 319.729C43.776 320.333 44.0026 320.861 44.3047 321.314C44.6445 321.768 45.2298 321.994 46.0605 321.994L115.672 321.994C116.201 321.768 116.654 321.333 117.031 320.691C117.409 320.087 117.711 319.37 117.937 318.539C118.164 317.708 118.353 316.821 118.504 315.877C118.655 314.971 118.787 314.083 118.9 313.215C119.014 312.384 119.127 311.61 119.24 310.893C119.391 310.213 119.561 309.703 119.75 309.363C119.826 309.099 120.09 308.967 120.543 308.967C120.883 308.967 121.072 309.099 121.109 309.363C121.185 309.514 121.26 309.741 121.336 310.043C121.411 310.345 121.449 310.93 121.449 311.799C121.449 312.101 121.411 312.799 121.336 313.895C121.298 315.027 121.223 316.255 121.109 317.576C121.034 318.898 120.958 320.144 120.883 321.314C120.845 322.523 120.826 323.335 120.826 323.75L120.826 331.396C120.826 331.548 120.845 331.906 120.883 332.473C120.921 333.077 120.939 333.719 120.939 334.398C120.977 335.078 121.015 335.682 121.053 336.211C121.09 336.777 121.109 337.098 121.109 337.174C121.298 338.458 121.411 339.742 121.449 341.025C121.487 342.309 121.506 343.612 121.506 344.934C121.506 347.237 121.411 349.597 121.223 352.014C121.072 354.468 120.581 356.771 119.75 358.924C118.919 361.114 117.805 363.096 116.408 364.871C115.049 366.646 113.482 368.156 111.707 369.402C109.97 370.686 108.063 371.668 105.986 372.348C103.909 373.065 101.776 373.424 99.5859 373.424C95.7344 373.424 92.3926 372.725 89.5605 371.328C86.7663 369.969 84.2552 367.76 82.0273 364.701C80.668 362.813 79.5163 360.51 78.5723 357.791C77.666 355.11 77.2129 352.051 77.2129 348.615C77.2129 347.143 77.2318 345.689 77.2695 344.254C77.345 342.819 77.4583 341.346 77.6094 339.836C77.6094 339.647 77.6471 339.421 77.7226 339.156C77.7982 338.892 77.8359 338.552 77.8359 338.137L77.8359 337.061C77.8359 336.721 77.7604 336.532 77.6094 336.494C77.4206 335.89 77.0807 335.38 76.5898 334.965C76.1367 334.549 75.3437 334.342 74.2109 334.342L63.3359 334.342C60.7682 334.342 57.9739 334.229 54.9531 334.002C51.9323 333.813 49.0436 333.719 46.2871 333.719C45.4941 333.719 44.9277 333.889 44.5879 334.229C44.2858 334.568 44.0592 335.059 43.9082 335.701C43.4928 337.4 43.1907 339.005 43.0019 340.516C42.8509 342.026 42.6055 343.593 42.2656 345.217C42.0768 345.783 41.8691 346.123 41.6426 346.236C41.4538 346.387 41.2272 346.463 40.9629 346.463C40.7363 346.463 40.5475 346.35 40.3965 346.123C40.2832 345.934 40.1699 345.689 40.0566 345.387C39.9811 345.122 39.9245 344.839 39.8867 344.537C39.8489 344.273 39.8301 344.046 39.8301 343.857C39.8301 343.404 39.8489 342.838 39.8867 342.158C39.8867 341.516 39.9056 340.855 39.9433 340.176C39.9433 339.534 39.9622 338.911 40 338.307C40 337.74 40 337.287 40 336.947L40 319.842C40 318.407 39.9811 317.029 39.9433 315.707C39.8678 314.423 39.8301 313.479 39.8301 312.875L39.8301 310.779C39.8678 310.326 40.1888 310.1 40.793 310.1ZM79.7617 335.418C79.5729 336.098 79.403 336.758 79.2519 337.4C79.1387 338.08 79.082 338.911 79.082 339.893C79.082 341.592 79.2708 343.31 79.6484 345.047C80.0638 346.784 80.668 348.37 81.4609 349.805C82.1784 351.164 83.1224 352.486 84.293 353.77C85.4635 355.091 86.8229 356.262 88.3711 357.281C89.957 358.301 91.7129 359.113 93.6387 359.717C95.6022 360.359 97.7357 360.68 100.039 360.68C102.456 360.68 104.589 360.415 106.439 359.887C108.327 359.358 109.989 358.565 111.424 357.508C112.859 356.488 114.105 355.186 115.162 353.6C116.257 352.051 117.239 350.239 118.107 348.162C118.598 347.029 118.938 345.84 119.127 344.594C119.354 343.385 119.467 342.12 119.467 340.799C119.467 339.59 119.41 338.477 119.297 337.457C119.221 336.475 118.976 335.437 118.561 334.342L82.5371 334.342C81.9329 334.342 81.3665 334.38 80.8379 334.455C80.3092 334.568 79.9505 334.889 79.7617 335.418ZM44.5312 388.604L75.5703 388.604C76.7031 388.604 77.8926 388.585 79.1387 388.547C80.4225 388.547 81.612 388.471 82.707 388.32C83.8021 388.207 84.7272 387.999 85.4824 387.697C86.2754 387.433 86.7851 387.055 87.0117 386.564C87.4271 385.658 87.6347 384.544 87.6347 383.223C87.6347 382.354 87.597 381.542 87.5215 380.787C87.4459 380.07 87.4082 379.409 87.4082 378.805C87.4082 378.616 87.4837 378.446 87.6347 378.295C87.7858 378.144 87.9368 378.068 88.0879 378.068C88.5032 378.068 88.7487 378.201 88.8242 378.465C89.5039 379.635 89.9759 380.825 90.2402 382.033C90.5045 383.242 90.8444 384.488 91.2597 385.771C91.5996 386.904 91.9583 388.056 92.3359 389.227C92.7135 390.397 93.2044 391.473 93.8086 392.455C94.1484 393.135 94.5071 393.758 94.8847 394.324C95.2624 394.891 95.4512 395.608 95.4512 396.477C95.4512 396.703 95.3001 396.911 94.998 397.1C94.7337 397.326 94.526 397.439 94.375 397.439L91.2597 397.439C90.9577 397.439 90.5989 397.439 90.1836 397.439C89.7682 397.477 89.3528 397.496 88.9375 397.496C88.5221 397.534 88.1256 397.572 87.748 397.609C87.4082 397.647 87.1627 397.685 87.0117 397.723C86.8607 397.76 86.7474 397.817 86.6719 397.893L86.6152 397.949C86.6152 398.176 86.7285 398.383 86.9551 398.572C87.2194 398.761 87.5403 398.969 87.918 399.195C88.3333 399.46 88.7864 399.743 89.2773 400.045C89.7682 400.385 90.2591 400.819 90.75 401.348C91.4674 402.065 92.1282 402.858 92.7324 403.727C93.3743 404.633 93.9219 405.558 94.375 406.502C94.8281 407.484 95.1868 408.465 95.4512 409.447C95.7155 410.467 95.8476 411.467 95.8476 412.449C95.8476 413.884 95.7155 415.357 95.4512 416.867C95.2246 418.378 94.7903 419.737 94.1484 420.945C93.5443 422.191 92.6758 423.211 91.543 424.004C90.4101 424.797 88.9752 425.193 87.2383 425.193C86.2943 425.193 85.4258 424.986 84.6328 424.57C83.8398 424.193 83.1601 423.664 82.5937 422.984C82.0273 422.342 81.5742 421.587 81.2344 420.719C80.9323 419.888 80.7812 419.02 80.7812 418.113C80.7812 417.509 80.8756 416.867 81.0644 416.187C81.2532 415.508 81.4798 415.074 81.7441 414.885C82.8014 413.714 84.2363 412.902 86.0488 412.449C87.0683 412.26 87.918 412.128 88.5976 412.053C89.3151 412.015 89.8626 411.864 90.2402 411.6C90.6556 411.373 90.9388 410.977 91.0898 410.41C91.2786 409.844 91.373 408.956 91.373 407.748C91.373 406.766 91.1087 405.747 90.5801 404.689C90.0892 403.67 89.4472 402.707 88.6543 401.801C87.8613 400.932 86.9739 400.177 85.9922 399.535C85.0482 398.893 84.123 398.516 83.2168 398.402C82.3861 398.214 81.4798 398.1 80.498 398.062C79.554 398.062 78.5722 398.062 77.5527 398.062L43.5117 398.062C43.0208 398.289 42.6999 398.704 42.5488 399.309C42.4355 399.913 42.3789 400.592 42.3789 401.348C42.3789 401.574 42.3789 401.876 42.3789 402.254C42.4166 402.669 42.4355 403.085 42.4355 403.5C42.4733 403.953 42.4922 404.35 42.4922 404.689C42.5299 405.029 42.5488 405.256 42.5488 405.369C42.5488 406.238 42.4355 406.936 42.209 407.465C42.0202 408.031 41.5859 408.314 40.9062 408.314C40.4531 408.314 40.0377 408.088 39.6601 407.635C39.2825 407.219 39.0749 406.804 39.0371 406.389C39.3769 404.312 39.6224 402.178 39.7734 399.988C39.9245 397.836 40 395.684 40 393.531C40 391.266 39.9056 389.151 39.7168 387.187C39.528 385.224 39.4336 383.185 39.4336 381.07C39.4336 380.655 39.5846 380.164 39.8867 379.598C40.1888 379.069 40.5853 378.805 41.0762 378.805C41.3782 378.805 41.6426 378.899 41.8691 379.088C42.0957 379.277 42.2656 379.503 42.3789 379.768C42.5299 380.07 42.6432 380.353 42.7187 380.617C42.7943 380.919 42.832 381.165 42.832 381.354C42.832 381.769 42.8131 382.165 42.7754 382.543C42.7376 382.958 42.6999 383.393 42.6621 383.846C42.5866 384.186 42.5299 384.544 42.4922 384.922C42.4544 385.299 42.4355 385.658 42.4355 385.998C42.4355 386.225 42.4922 386.47 42.6055 386.734C42.7187 387.036 42.8698 387.32 43.0586 387.584C43.2851 387.886 43.5117 388.132 43.7383 388.32C44.0026 388.509 44.2669 388.604 44.5312 388.604ZM66.4512 428.479C70.4538 428.479 74.041 429.139 77.2129 430.461C80.4225 431.82 83.1413 433.689 85.3691 436.068C87.597 438.447 89.3151 441.279 90.5234 444.564C91.7318 447.85 92.3359 451.456 92.3359 455.383C92.3359 456.251 92.2415 457.158 92.0527 458.102C91.8639 459.046 91.5996 459.99 91.2597 460.934C90.9577 461.915 90.5989 462.859 90.1836 463.766C89.7682 464.71 89.334 465.578 88.8808 466.371C86.3887 470.865 83.1601 474.206 79.1953 476.396C75.2304 478.624 70.6992 479.738 65.6015 479.738C62.1653 479.738 58.8613 479.134 55.6894 477.926C52.5553 476.755 49.7044 474.962 47.1367 472.545C44.6445 470.128 42.832 467.372 41.6992 464.275C40.5664 461.179 40 457.932 40 454.533C40 452.041 40.2265 449.587 40.6797 447.17C41.1328 444.791 42.209 442.412 43.9082 440.033C46.778 436.068 50.0443 433.142 53.707 431.254C57.3698 429.404 61.6178 428.479 66.4512 428.479ZM66.168 438.164C64.6575 438.164 63.0338 438.296 61.2969 438.561C59.5599 438.825 57.804 439.221 56.0293 439.75C54.2923 440.316 52.5931 441.015 50.9316 441.846C49.3079 442.714 47.8541 443.734 46.5703 444.904C45.3242 446.075 44.3235 447.434 43.5683 448.982C42.8131 450.531 42.4355 452.249 42.4355 454.137C42.4355 455.345 42.5488 456.402 42.7754 457.309C43.0397 458.215 43.3984 459.027 43.8515 459.744C44.3047 460.499 44.8333 461.179 45.4375 461.783C46.0794 462.425 46.778 463.048 47.5332 463.652C48.8926 464.71 50.3841 465.616 52.0078 466.371C53.6315 467.126 55.2929 467.749 56.9922 468.24C58.6914 468.731 60.3717 469.071 62.0332 469.26C63.7324 469.486 65.3372 469.6 66.8476 469.6C68.2825 469.6 69.8685 469.449 71.6054 469.146C73.3802 468.844 75.1549 468.354 76.9297 467.674C78.7422 467.032 80.498 466.201 82.1972 465.182C83.8965 464.162 85.4069 462.935 86.7285 461.5C87.7858 460.405 88.5599 459.234 89.0508 457.988C89.5416 456.742 89.7871 455.723 89.7871 454.93C89.7871 453.155 89.5983 451.607 89.2207 450.285C88.8808 448.964 88.3522 447.793 87.6347 446.773C86.9173 445.754 86.011 444.81 84.916 443.941C83.8209 443.111 82.5371 442.261 81.0644 441.393C78.5722 439.92 76.0989 439.014 73.6445 438.674C71.1901 438.334 68.6979 438.164 66.168 438.164ZM42.4355 504.377C40.7363 503.395 39.1504 502.357 37.6777 501.262C36.1673 500.204 34.5814 499.053 32.9199 497.807C31.636 496.825 30.3711 495.617 29.125 494.182C27.8411 492.785 26.595 491.425 25.3867 490.104C24.6315 489.273 23.9329 488.442 23.291 487.611C22.6113 486.818 22.0449 485.988 21.5918 485.119C21.1009 484.251 20.7233 483.326 20.459 482.344C20.1569 481.362 20.0058 480.286 20.0058 479.115C20.0058 478.436 20.138 477.775 20.4023 477.133C20.6666 476.491 21.0254 475.924 21.4785 475.434C21.9316 474.905 22.4603 474.49 23.0644 474.187C23.6308 473.885 24.2539 473.734 24.9336 473.734C25.5755 473.734 26.2741 473.829 27.0293 474.018C27.7845 474.206 28.4831 474.508 29.125 474.924C29.7291 475.301 30.2389 475.811 30.6543 476.453C31.0696 477.057 31.2773 477.775 31.2773 478.605C31.2773 479.889 31.0885 480.928 30.7109 481.721C30.2956 482.514 29.8613 483.212 29.4082 483.816C28.9551 484.421 28.5397 485.025 28.1621 485.629C27.7467 486.233 27.539 487.026 27.539 488.008C27.539 489.141 27.8789 490.16 28.5586 491.066C29.2005 492.01 30.0123 492.728 30.9941 493.219C32.0137 493.71 33.2597 494.012 34.7324 494.125C36.1673 494.238 37.5267 494.295 38.8105 494.295L82.4238 494.295C82.9147 494.182 83.4433 493.993 84.0097 493.729C84.5762 493.464 85.1048 493.068 85.5957 492.539C86.0866 492.048 86.4831 491.425 86.7851 490.67C87.0872 489.915 87.2383 489.027 87.2383 488.008C87.2383 487.592 87.125 487.177 86.8984 486.762C86.7096 486.346 86.6152 485.988 86.6152 485.686C86.6152 485.346 86.6341 484.987 86.6719 484.609C86.7096 484.232 86.7663 483.873 86.8418 483.533C86.9173 483.193 87.0306 482.91 87.1816 482.684C87.3327 482.457 87.5215 482.344 87.748 482.344C88.1256 482.344 88.4277 482.533 88.6543 482.91C88.9186 483.25 89.1263 483.609 89.2773 483.986C89.6927 485.308 89.9759 486.611 90.1269 487.895C90.278 489.178 90.5234 490.462 90.8633 491.746C91.0143 492.275 91.2786 493.087 91.6562 494.182C92.0338 495.277 92.4114 496.428 92.789 497.637C93.2044 498.845 93.5631 499.997 93.8652 501.092C94.2051 502.187 94.375 503.018 94.375 503.584C94.375 503.999 94.2239 504.226 93.9219 504.264C93.6198 504.339 93.2422 504.377 92.789 504.377L42.4355 504.377ZM114.086 504.094C113.104 504.094 112.255 503.886 111.537 503.471C110.857 503.055 110.272 502.508 109.781 501.828C109.328 501.186 108.988 500.45 108.762 499.619C108.535 498.788 108.422 497.958 108.422 497.127C108.422 496.674 108.497 496.145 108.648 495.541C108.837 494.975 109.083 494.408 109.385 493.842C109.687 493.313 110.046 492.822 110.461 492.369C110.914 491.916 111.405 491.576 111.934 491.35C112.84 490.972 113.84 490.783 114.936 490.783C115.426 490.783 115.917 490.802 116.408 490.84C116.937 490.915 117.465 491.085 117.994 491.35C118.523 491.614 119.033 492.01 119.523 492.539C120.052 493.068 120.562 493.823 121.053 494.805C121.128 495.031 121.204 495.333 121.279 495.711C121.393 496.126 121.449 496.598 121.449 497.127L121.449 498.486C121.449 498.751 121.411 498.996 121.336 499.223C121.26 499.487 121.185 499.714 121.109 499.902C120.883 500.695 120.505 501.356 119.977 501.885C119.486 502.451 118.9 502.885 118.221 503.187C117.579 503.527 116.88 503.754 116.125 503.867C115.408 504.018 114.728 504.094 114.086 504.094ZM76.25 566.285L76.25 527.09C76.0989 526.674 75.929 526.429 75.7402 526.354C75.5892 526.278 75.2682 526.202 74.7773 526.127C74.4375 526.051 73.7011 525.976 72.5683 525.9C71.4355 525.863 70.1517 525.844 68.7168 525.844C67.2819 525.844 65.9036 526.014 64.582 526.354C63.2604 526.693 61.9577 527.071 60.6738 527.486C55.9915 529.072 52.4232 531.546 49.9687 534.906C47.5143 538.305 46.2871 542.76 46.2871 548.273C46.2871 549.104 46.4381 550.01 46.7402 550.992C47.0423 551.974 47.4199 552.956 47.873 553.937C48.3639 554.919 48.9303 555.863 49.5722 556.77C50.2142 557.676 50.875 558.469 51.5547 559.148C52.0078 559.639 52.5176 560.036 53.084 560.338C53.6881 560.678 54.4245 561.093 55.2929 561.584C55.444 561.735 55.5573 561.943 55.6328 562.207C55.7461 562.471 55.8027 562.698 55.8027 562.887C55.8027 563.566 55.5761 564.02 55.123 564.246C54.7077 564.51 54.179 564.643 53.5371 564.643C53.3483 564.643 53.084 564.567 52.7441 564.416C52.442 564.303 52.1211 564.152 51.7812 563.963C51.4414 563.812 51.1015 563.623 50.7617 563.396C50.4596 563.208 50.233 563.057 50.082 562.943C47.9297 561.508 46.0228 559.696 44.3613 557.506C42.7376 555.316 41.416 552.691 40.3965 549.633C40.2077 548.953 40.0566 547.783 39.9433 546.121C39.7923 544.497 39.7168 542.723 39.7168 540.797C39.7168 539.098 39.9433 537.342 40.3965 535.529C40.8496 533.755 41.4915 532.018 42.3222 530.318C43.153 528.619 44.1159 527.033 45.2109 525.561C46.306 524.126 47.5143 522.936 48.8359 521.992C51.6302 519.953 54.4622 518.443 57.332 517.461C60.2018 516.517 63.4114 516.045 66.9609 516.045C68.2448 516.045 69.4531 516.102 70.5859 516.215C71.7565 516.366 72.8893 516.592 73.9844 516.895C75.0794 517.234 76.1556 517.65 77.2129 518.141C78.3079 518.632 79.4219 519.236 80.5547 519.953C82.6315 521.199 84.5384 522.615 86.2754 524.201C88.0123 525.787 89.5039 527.543 90.75 529.469C91.9961 531.395 92.959 533.471 93.6386 535.699C94.3183 537.927 94.6582 540.325 94.6582 542.893C94.6582 545.045 94.4316 547.273 93.9785 549.576C93.5631 551.917 92.6191 554.164 91.1465 556.316C90.6556 556.996 89.9004 557.94 88.8808 559.148C87.8613 560.357 86.7096 561.546 85.4258 562.717C84.1797 563.887 82.858 564.907 81.4609 565.775C80.0638 566.644 78.7233 567.078 77.4394 567.078C77.0996 567.078 76.8164 567.003 76.5898 566.852C76.3633 566.738 76.25 566.549 76.25 566.285ZM79.3086 528.562L79.3086 553.768C79.3086 554.41 79.3841 554.787 79.5351 554.9C79.7239 555.051 79.9127 555.127 80.1015 555.127C80.97 555.127 81.8763 554.9 82.8203 554.447C83.7643 554.032 84.6517 553.503 85.4824 552.861C86.3509 552.257 87.125 551.634 87.8047 550.992C88.4844 550.35 89.013 549.803 89.3906 549.35C90.4101 548.141 91.0709 546.933 91.373 545.725C91.6751 544.516 91.8261 543.138 91.8261 541.59C91.8261 540.948 91.8073 540.344 91.7695 539.777C91.7695 539.249 91.7317 538.72 91.6562 538.191C91.5807 537.663 91.4674 537.134 91.3164 536.605C91.1653 536.077 90.9388 535.492 90.6367 534.85C90.2969 534.132 89.7493 533.339 88.9941 532.471C88.2767 531.64 87.4271 530.847 86.4453 530.092C85.5013 529.374 84.4629 528.751 83.3301 528.223C82.1972 527.732 81.0833 527.486 79.9883 527.486C79.5351 527.486 79.3086 527.845 79.3086 528.562ZM47.9297 594.039C47.6276 594.53 47.3633 595.021 47.1367 595.512C46.9101 596.003 46.7024 596.531 46.5136 597.098C46.3626 597.664 46.2493 598.287 46.1738 598.967C46.0983 599.646 46.0605 600.421 46.0605 601.289C46.0605 602.573 46.3815 603.913 47.0234 605.311C47.6653 606.708 48.4583 608.029 49.4023 609.275C50.3841 610.521 51.4414 611.635 52.5742 612.617C53.7448 613.599 54.8209 614.335 55.8027 614.826C56.2181 615.015 56.5013 615.26 56.6523 615.562C56.8411 615.902 56.9733 616.242 57.0488 616.582C56.86 616.846 56.6334 616.997 56.3691 617.035C56.1048 617.073 55.8405 617.092 55.5761 617.092C54.2923 617.092 53.0462 616.733 51.8379 616.016C50.6673 615.336 49.5722 614.6 48.5527 613.807C47.0801 612.636 45.7773 611.428 44.6445 610.182C43.5495 608.936 42.6243 607.595 41.8691 606.16C41.1139 604.763 40.5475 603.234 40.1699 601.572C39.7923 599.911 39.6035 598.079 39.6035 596.078C39.6035 592.491 40.4153 589.3 42.039 586.506C43.6627 583.712 45.7584 581.352 48.3261 579.426C50.9316 577.5 53.858 576.027 57.1054 575.008C60.3906 573.988 63.6758 573.479 66.9609 573.479C70.5104 573.479 73.9844 574.045 77.3828 575.178C80.7812 576.348 83.8021 578.01 86.4453 580.162C89.1263 582.314 91.2786 584.939 92.9023 588.035C94.526 591.132 95.3379 594.643 95.3379 598.57C95.3379 600.043 95.2246 601.535 94.998 603.045C94.8092 604.593 94.4505 606.085 93.9218 607.52C93.431 608.954 92.7513 610.295 91.8828 611.541C91.0143 612.825 89.9192 613.92 88.5976 614.826C88.1445 615.128 87.7291 615.43 87.3515 615.732C86.9739 616.035 86.5963 616.299 86.2187 616.525C85.8789 616.79 85.5013 616.997 85.0859 617.148C84.7083 617.299 84.2552 617.375 83.7265 617.375C83.0091 617.375 82.3672 617.224 81.8008 616.922C81.2343 616.658 80.7623 616.28 80.3847 615.789C80.0071 615.336 79.7051 614.788 79.4785 614.146C79.2897 613.542 79.1953 612.919 79.1953 612.277C79.1953 611.333 79.5162 610.559 80.1582 609.955C80.8379 609.389 81.6686 608.841 82.6504 608.312C83.6699 607.822 84.7461 607.293 85.8789 606.727C87.0495 606.16 88.1256 605.424 89.1074 604.518C90.1269 603.611 90.9577 602.479 91.5996 601.119C92.2793 599.76 92.6191 598.023 92.6191 595.908C92.6191 594.738 92.3926 593.586 91.9394 592.453C91.5241 591.32 90.9388 590.263 90.1836 589.281C89.4661 588.337 88.6354 587.488 87.6914 586.732C86.7851 585.977 85.8222 585.373 84.8027 584.92C82.6504 584.089 80.498 583.598 78.3457 583.447C76.2311 583.334 74.0976 583.277 71.9453 583.277C69.6041 583.277 67.2819 583.428 64.9785 583.73C62.6751 584.07 60.4661 584.637 58.3515 585.43C56.2747 586.26 54.3301 587.355 52.5176 588.715C50.7428 590.112 49.2135 591.887 47.9297 594.039ZM55.8027 630.742C61.1647 630.742 66.4323 630.874 71.6054 631.139C76.8164 631.403 82.1217 631.573 87.5215 631.648C87.5215 630.176 87.4082 628.76 87.1816 627.4C86.9551 626.079 86.8418 624.757 86.8418 623.436C86.8418 623.02 86.8795 622.605 86.9551 622.189C87.0306 621.774 87.2949 621.566 87.748 621.566C87.8991 621.566 88.0123 621.604 88.0879 621.68C88.1634 621.793 88.2955 621.944 88.4843 622.133C90.2213 624.059 91.9394 625.909 93.6386 627.684C95.3379 629.496 97.1126 631.252 98.9629 632.951C99.5293 633.442 100.152 633.952 100.832 634.48C101.512 635.047 102.191 635.613 102.871 636.18C103.589 636.784 104.306 637.388 105.023 637.992C105.741 638.634 106.402 639.257 107.006 639.861C107.157 640.012 107.232 640.22 107.232 640.484C107.232 640.824 107.006 641.051 106.553 641.164L94.0918 640.484C93.3743 640.484 93.0156 640.635 93.0156 640.937L94.0918 655.551C94.0918 655.891 93.9974 656.155 93.8086 656.344C93.6198 656.533 93.3743 656.665 93.0722 656.74C92.8079 656.816 92.5247 656.854 92.2226 656.854C91.9205 656.891 91.6562 656.91 91.4297 656.91C90.4101 656.91 89.6549 656.778 89.164 656.514C88.7109 656.249 88.4843 655.513 88.4843 654.305L88.4843 640.654C88.4843 640.352 88.2955 640.126 87.9179 639.975C87.7669 639.899 87.597 639.861 87.4082 639.861L56.1426 639.861C54.8209 639.861 53.4238 640.163 51.9511 640.768C50.4785 641.41 49.0814 642.391 47.7597 643.713C47.1556 644.317 46.6458 645.11 46.2304 646.092C45.8151 647.074 45.6074 648.018 45.6074 648.924C45.6074 650.963 45.8528 652.587 46.3437 653.795C46.8724 655.003 47.5332 655.985 48.3261 656.74C49.1191 657.533 49.9687 658.175 50.875 658.666C51.819 659.157 52.7064 659.723 53.5371 660.365C53.9147 660.516 54.1035 660.686 54.1035 660.875C54.1035 661.064 53.9713 661.177 53.707 661.215C53.4804 661.29 53.2916 661.328 53.1406 661.328C52.2721 661.328 51.2337 661.045 50.0254 660.479C48.8548 659.95 47.6653 659.232 46.457 658.326C45.2864 657.458 44.2103 656.476 43.2285 655.381C42.2845 654.286 41.6048 653.21 41.1894 652.152C40.3965 650.264 40 648.263 40 646.148C40 643.732 40.4909 641.561 41.4726 639.635C42.4544 637.747 43.7005 636.142 45.2109 634.82C46.7591 633.499 48.4583 632.479 50.3086 631.762C52.1966 631.082 54.028 630.742 55.8027 630.742Z" fill="#D8D8D8"/>
</svg>
