<?xml version="1.0" encoding="utf-8"?>
<!-- Generator: Adobe Illustrator 26.2.1, SVG Export Plug-In . SVG Version: 6.00 Build 0)  -->
<svg version="1.1" id="圖層_1" xmlns="http://www.w3.org/2000/svg" xmlns:xlink="http://www.w3.org/1999/xlink" x="0px" y="0px"
	 viewBox="0 0 165 1000" style="enable-background:new 0 0 165 1000;" xml:space="preserve">
<style type="text/css">
	.st0{enable-background:new    ;}
	.st1{fill:#D8D8D8;}
</style>
<g class="st0">
	<path class="st1" d="M30,380.9v-73.8h1.2c0.3,1.9,0.8,3.8,1.5,5.7c0.7,1.9,1.6,3.4,2.9,4.4c0.5,0.4,1.1,0.7,2,1s1.9,0.5,3,0.6
		c1.2,0.2,2.4,0.3,3.6,0.4c1.3,0.1,2.5,0.2,3.7,0.2c1.1,0,2.5,0,4.4,0.1c1.8,0,3.9,0.1,6,0.1c2.2,0,4.4,0.1,6.7,0.1
		c2.4,0,4.6,0,6.7,0H94c1.4,0,2.7,0,4,0c1.4,0,2.7-0.1,3.9-0.2c1.2-0.1,2.2-0.3,3.2-0.5s1.6-0.6,2.2-1c1.3-1.1,2.3-2.5,3-4.3
		s1.2-3.7,1.4-5.7h1.1v36.7h-1.1c-0.2-1-0.4-2.2-0.7-3.6c-0.3-1.4-0.8-2.7-1.5-3.9c-0.7-1.2-1.7-2.3-2.9-3.2c-1.3-0.9-2.9-1.4-5-1.4
		c-2.7-0.1-5.1-0.1-7.4-0.2c-2.2,0-4.4-0.1-6.6-0.1c-2.1,0-4.4-0.1-6.7-0.1c-2.3,0-4.9,0-7.7,0c-2.6,0-5,0-7.1,0s-4.1,0-6.1,0
		s-4,0-6.2,0.1c-2.1,0-4.5,0.1-7.1,0.1c-2.5,0.1-4.8,0.2-7,0.3c-2.2,0.1-3.9,0.5-4.9,1.2c-0.4,0.3-0.8,0.9-1.2,1.8s-0.7,2-1,3.3
		s-0.5,2.7-0.7,4.3c-0.2,1.5-0.3,3.1-0.3,4.6c0,0.6,0,1.6,0.1,2.9c0,1.3,0.1,2.8,0.2,4.4s0.3,3.3,0.5,4.9c0.2,1.7,0.5,3.2,0.9,4.5
		c0.8,3.1,2,5.6,3.3,7.6c1.4,2,3,3.8,4.8,5.2c1.8,1.5,3.8,2.7,5.9,3.7c2.1,1,4.3,2,6.6,2.9l-0.3,1.1L30,380.9z"/>
	<path class="st1" d="M55,467.7c-5.2-2.3-9.7-5.4-13.6-9.4c-3.8-3.9-6.8-8.5-8.9-13.8s-3.1-10.8-3.1-16.7c0-5.8,1-11.3,3-16.6
		c2-5.2,4.9-9.8,8.6-13.7c3.7-3.9,8.2-7,13.3-9.3c5.2-2.3,10.9-3.4,17.1-3.4c6.6,0,12.5,1.2,17.8,3.6c5.3,2.4,9.7,5.6,13.3,9.6
		c3.6,4,6.4,8.7,8.4,14.1s2.9,11.1,2.9,17.1c0,6.5-1.2,12.4-3.5,17.5c-2.3,5.2-5.4,9.6-9.3,13.2s-8.3,6.4-13.4,8.3
		s-10.3,2.9-15.9,2.9C65.8,471.1,60.2,470,55,467.7z M86,455.1c4.8-1.2,9.1-3,12.9-5.4c3.9-2.4,7-5.4,9.4-9s3.6-7.9,3.6-12.8
		c0-5-1.2-9.3-3.6-12.9s-5.5-6.6-9.4-9c-3.8-2.3-8.2-4.1-13.1-5.2s-9.8-1.7-14.8-1.7c-5.2,0-10.2,0.6-15.1,1.8
		c-4.8,1.2-9.1,3-12.8,5.5s-6.6,5.4-8.9,9.1c-2.2,3.6-3.3,7.9-3.3,12.7s1.2,9,3.7,12.6s5.6,6.5,9.5,8.9s8.2,4.2,13.1,5.3
		c4.8,1.2,9.7,1.8,14.5,1.8C76.5,456.9,81.2,456.3,86,455.1z"/>
	<path class="st1" d="M67.3,558.2c-0.5-1.5-1.3-2.6-2.4-3.3c-0.8-0.5-2.1-0.8-3.9-0.9c-1.8-0.1-3.5-0.1-5.3-0.1H39
		c-0.5-0.5-1.2-1.9-2.3-4s-2.2-4.7-3.3-7.7s-2.1-6.4-2.8-10.1c-0.8-3.7-1.2-7.4-1.2-11c0-7.3,0.9-13.8,2.8-19.5
		c1.9-5.8,4.6-10.6,8.3-14.5c3.6-3.9,8.1-7,13.3-9.1c5.3-2.1,11.1-3.2,17.7-3.2c1.9,0,4.1,0.2,6.6,0.6s5.1,1.1,7.9,2
		c2.8,1,5.6,2.3,8.4,4s5.5,3.9,8,6.5c3.6,3.7,6.5,8.2,8.7,13.6c2.2,5.4,3.3,11.9,3.3,19.6c0,4.6-0.4,8.7-1.2,12.2
		c-0.8,3.5-1.7,6.5-2.6,8.9c-1,2.4-1.8,4.3-2.6,5.6c-0.8,1.3-1.2,2-1.2,2.2s0.5,0.6,1.4,1.3s2,1.5,3.3,2.5v1H86.3v-1.4
		c3.5-0.8,6.7-2.1,9.8-3.8c3.1-1.7,5.6-3.5,7.6-5.4c2.6-2.5,4.7-5.6,6.3-9.4c1.6-3.8,2.4-8.1,2.4-12.9c0-5.1-1.1-9.6-3.4-13.7
		c-2.3-4.1-5.3-7.5-9.1-10.3c-3.8-2.8-8.2-5-13.1-6.6c-4.9-1.5-10.1-2.3-15.6-2.3c-6,0-11.4,0.7-16.4,2.2c-4.9,1.5-9.2,3.6-12.7,6.3
		c-3.5,2.8-6.3,6.1-8.2,10.1c-2,4-2.9,8.5-2.9,13.7c0,3.7,0.6,7.1,1.9,10.3s3.3,5.7,6.2,7.5c1,0.6,2.8,1.1,5.3,1.4
		c2.5,0.3,5.1,0.5,7.8,0.5s5.1-0.1,7.2-0.4c2.1-0.3,3.9-1.1,5.3-2.4c2-1.8,3.2-4.9,3.6-9.3h1.2v33.7h-1.2
		C68.1,561.1,67.8,559.7,67.3,558.2z"/>
	<path class="st1" d="M55,649.5c-5.2-2.3-9.7-5.4-13.6-9.4c-3.8-4-6.8-8.5-8.9-13.8s-3.1-10.8-3.1-16.7c0-5.8,1-11.3,3-16.6
		c2-5.2,4.9-9.8,8.6-13.7c3.7-3.9,8.2-7,13.3-9.3c5.2-2.3,10.9-3.4,17.1-3.4c6.6,0,12.5,1.2,17.8,3.6c5.3,2.4,9.7,5.6,13.3,9.6
		c3.6,4,6.4,8.7,8.4,14.1s2.9,11.1,2.9,17.1c0,6.5-1.2,12.4-3.5,17.5c-2.3,5.2-5.4,9.6-9.3,13.2c-3.9,3.6-8.3,6.4-13.4,8.3
		c-5.1,1.9-10.3,2.9-15.9,2.9C65.8,653,60.2,651.8,55,649.5z M86,636.9c4.8-1.2,9.1-3,12.9-5.4c3.9-2.4,7-5.4,9.4-9
		s3.6-7.9,3.6-12.8c0-5-1.2-9.3-3.6-12.9c-2.4-3.6-5.5-6.6-9.4-9c-3.8-2.3-8.2-4.1-13.1-5.2c-4.9-1.1-9.8-1.7-14.8-1.7
		c-5.2,0-10.2,0.6-15.1,1.8c-4.8,1.2-9.1,3-12.8,5.5s-6.6,5.4-8.9,9.1c-2.2,3.6-3.3,7.9-3.3,12.7s1.2,9,3.7,12.6s5.6,6.5,9.5,8.9
		s8.2,4.2,13.1,5.3c4.8,1.2,9.7,1.8,14.5,1.8C76.5,638.7,81.2,638.1,86,636.9z"/>
</g>
</svg>
