<?xml version="1.0" encoding="utf-8"?>
<!-- Generator: Adobe Illustrator 26.2.1, SVG Export Plug-In . SVG Version: 6.00 Build 0)  -->
<svg version="1.1" id="loading" xmlns="http://www.w3.org/2000/svg" xmlns:xlink="http://www.w3.org/1999/xlink" x="0px" y="0px"
	 viewBox="0 0 716.7 105.1" style="enable-background:new 0 0 716.7 105.1;" xml:space="preserve">
<style type="text/css">
	.st0{fill:none;}
</style>
<g id="line">
	<path id="line-h" d="M0,81.5c0-1.1,0.7-1.7,2.1-1.9L10,79c0.3-0.1,0.6-0.3,0.9-0.5c0.3-0.2,0.5-0.6,0.5-1v-69
		c0.1-0.8-0.1-1.6-0.3-2.3c-0.3-0.4-0.7-0.7-1.1-0.9C9.2,5.2,8.4,5,7.7,4.9C6.8,4.8,6,4.7,5.2,4.5S3.7,4.3,3.1,4.2
		c-0.5,0-0.9-0.2-1.3-0.4C1.5,3.8,1.4,3.6,1.4,3.4c0-0.2-0.1-0.4-0.1-0.6c0-0.3,0.1-0.5,0.4-0.7C1.9,2,2.2,1.9,2.5,1.8
		c0.4-0.1,0.7-0.1,1.1-0.1c0.4,0,0.7,0,1,0h2.9c0.9,0,1.7,0,2.4,0.1c0.7,0,1.4,0.1,2,0.1c0.6,0.1,1.2,0.1,1.8,0.1
		C14.2,2,14.8,2,15.4,2c1.5,0,3,0,4.4-0.1s2.8-0.1,4.2-0.2c1.4-0.1,2.9-0.1,4.4-0.2c1.5-0.1,3.2-0.1,5.1-0.1c0.2,0,0.4,0,0.6,0.1
		c0.3,0.1,0.6,0.1,0.8,0.3c0.2,0.1,0.5,0.2,0.7,0.4c0.2,0.1,0.3,0.4,0.3,0.6c0,0.4-0.2,0.7-0.5,0.9c-0.3,0.2-0.6,0.3-0.9,0.5
		c-0.3,0-0.8,0-1.5,0.1s-1.5,0.1-2.3,0.2s-1.6,0.2-2.3,0.3c-0.5,0-1,0.1-1.5,0.3c-0.4,0-0.7,0.1-1.1,0.1c-0.4,0.1-0.8,0.3-1.2,0.4
		c-0.4,0.2-0.8,0.5-1,0.8c-0.3,0.4-0.4,0.8-0.4,1.3V38c-0.1,0.7,0.4,1.3,1,1.3c0.1,0,0.2,0,0.3,0h32.7c0.3,0,0.7-0.1,0.9-0.3
		c0.3-0.2,0.4-0.6,0.4-0.9V8.7c0-0.8-0.2-1.6-0.6-2.2c-0.4-0.6-1-1-1.6-1.3c-0.7-0.3-1.4-0.5-2.1-0.6c-0.7-0.1-1.5-0.1-2.2-0.1h-5.1
		c-0.5,0-1-0.2-1.4-0.5c-0.4-0.3-0.6-0.7-0.6-1.2c0-0.4,0.2-0.9,0.6-1c0.5-0.2,1-0.3,1.5-0.3h3.3c1.8,0,3.3,0,4.5,0.1
		s2.5,0.1,3.5,0.1c1.1,0.1,2.1,0.1,3.2,0.1c1,0,2.2,0.1,3.5,0.1c1,0,2,0,2.8-0.1c0.8,0,1.7-0.1,2.7-0.1c0.9-0.1,2-0.1,3.1-0.1
		s2.6-0.1,4.3-0.1h4c0.4-0.1,0.9,0.1,1.2,0.4c0.2,0.2,0.3,0.4,0.3,0.7c0,0.3-0.2,0.6-0.7,0.9c-0.6,0.3-1.2,0.5-1.9,0.6
		c-1.1,0.2-2.3,0.4-3.5,0.4c-1.2,0.1-2.3,0.2-3.4,0.5c-1,0.2-1.9,0.6-2.6,1.2c-0.7,0.7-1.1,1.6-1,2.6V73c-0.1,1.1,0.2,2.3,0.7,3.3
		c0.5,0.7,1.2,1.3,2,1.6c0.9,0.4,1.9,0.6,2.9,0.6c1.1,0.1,2.3,0.2,3.6,0.4c0.7,0.1,1.4,0.4,2.1,0.7c0.6,0.3,0.9,0.9,0.8,1.6
		c0.1,0.5-0.2,1.1-0.6,1.3c-0.5,0.3-1.1,0.4-1.7,0.4h-3.1c-0.6,0-1.5,0-2.6-0.1c-1.1,0-2.2-0.1-3.3-0.1c-1.1-0.1-2.2-0.1-3.1-0.1
		c-1,0-1.6-0.1-2-0.1c-1.9,0-3.5,0-4.7,0.1c-1.3,0-2.5,0.1-3.7,0.1c-1.2,0.1-2.5,0.1-4,0.1c-1.4,0-3.3,0.1-5.6,0.1
		c-0.6,0-1.1-0.1-1.6-0.4c-0.5-0.3-0.7-0.8-0.6-1.4c0-0.3,0.1-0.7,0.3-1c0.2-0.4,0.6-0.6,1-0.7l7.7-1c0.7-0.1,1.3-0.3,1.8-0.7
		c0.4-0.4,0.8-0.9,1-1.4c0.2-0.6,0.4-1.3,0.4-2c0.1-0.7,0.1-1.6,0.1-2.4V45.3c0-0.5-0.2-1-0.5-1.5c-0.3-0.4-0.9-0.7-1.4-0.7H24.5
		c-0.3,0-0.7,0.1-1,0.2c-0.3,0.2-0.4,0.5-0.4,0.8v30.1c-0.1,1.2,0.4,2.3,1.3,3c0.9,0.7,1.9,1.2,3.1,1.5c1.2,0.3,2.5,0.5,3.8,0.5
		c1.1,0,2.3,0.1,3.4,0.3c0.4,0.1,0.7,0.4,0.8,0.7c0.1,0.3,0.1,0.7,0.1,1c0,0.8-0.3,1.2-0.8,1.4c-0.5,0.1-1,0.2-1.5,0.2
		c-1.5,0-2.8,0-3.9-0.1c-1.1,0-2.2-0.1-3.3-0.1c-1.1,0-2.4,0-3.9-0.1c-1.5,0-3.4-0.1-5.7-0.1c-0.9,0-1.8,0-2.6,0.1s-1.7,0.1-2.5,0.1
		c-0.8,0-1.7,0-2.6,0.1S7,82.9,6,82.9H1.9c-0.6-0.1-1.1-0.3-1.4-0.4C0.2,82.4,0,82.1,0,81.5"/>
	<path id="line-e" d="M135.8,46.6H96.9c-0.4,0.2-0.7,0.3-0.7,0.5c-0.1,0.3-0.2,0.6-0.2,1c-0.1,0.7-0.2,1.5-0.2,2.2
		c-0.1,1.1-0.1,2.4-0.1,3.8c0,1.4,0.2,2.8,0.5,4.1c0.3,1.3,0.7,2.6,1.1,3.9c1.3,4.2,3.9,7.9,7.4,10.6c3.4,2.4,7.8,3.7,13.2,3.7
		c0.9,0,1.8-0.2,2.7-0.4c1-0.3,2-0.7,2.9-1.2c1-0.5,1.9-1,2.8-1.7c0.8-0.6,1.6-1.2,2.4-2c0.5-0.4,0.9-1,1.2-1.5
		c0.3-0.6,0.7-1.3,1.2-2.2c0.2-0.2,0.4-0.3,0.6-0.4c0.2-0.1,0.4-0.1,0.7-0.1c0.5-0.1,1.1,0.2,1.4,0.6c0.3,0.5,0.4,1,0.4,1.6
		c0,0.3-0.1,0.5-0.2,0.8c-0.1,0.3-0.3,0.6-0.4,1c-0.2,0.3-0.4,0.7-0.6,1c-0.2,0.3-0.4,0.6-0.5,0.7c-1.5,2.2-3.3,4.1-5.4,5.6
		c-2.4,1.7-5,3.1-7.8,4c-1.1,0.3-2.3,0.4-3.5,0.5c-1.6,0.1-3.4,0.2-5.3,0.2c-1.8,0-3.5-0.2-5.2-0.7c-1.8-0.5-3.5-1.1-5.2-1.9
		c-1.7-0.8-3.2-1.8-4.7-2.9c-1.4-1-2.6-2.2-3.6-3.6c-1.9-2.6-3.4-5.4-4.5-8.4c-1-3.1-1.5-6.3-1.4-9.5c0-1.2,0.1-2.4,0.2-3.6
		c0.1-1.1,0.4-2.2,0.7-3.3c0.3-1.1,0.7-2.2,1.2-3.2c0.5-1.1,1.1-2.2,1.8-3.3c1.2-2,2.6-3.9,4.2-5.7c1.5-1.7,3.3-3.2,5.2-4.4
		c4-2.6,8.6-3.9,13.3-3.9c2.2,0,4.5,0.2,6.7,0.6c2.4,0.5,4.7,1.4,6.7,2.8c0.7,0.5,1.6,1.2,2.8,2.2c1.2,1.1,2.4,2.2,3.5,3.4
		c1.1,1.2,2.1,2.5,3,4c0.8,1.2,1.2,2.6,1.3,4c0,0.3-0.1,0.6-0.2,0.8C136.2,46.5,136,46.6,135.8,46.6 M98.4,43.6h25
		c0.6,0,1-0.1,1.2-0.3c0.1-0.1,0.2-0.3,0.2-0.5c0-0.9-0.2-1.9-0.6-2.7c-0.4-0.9-1-1.8-1.6-2.7c-0.6-0.8-1.2-1.6-1.9-2.3
		c-0.5-0.6-1.1-1.1-1.6-1.6c-1-0.9-2.3-1.6-3.6-2c-1.3-0.3-2.7-0.5-4.1-0.4c-0.6,0-1.2,0-1.8,0c-0.5,0-1.1,0.1-1.6,0.1
		c-1.2,0.2-2.3,0.5-3.3,1c-0.8,0.4-1.6,1-2.3,1.6c-0.9,0.8-1.7,1.6-2.4,2.5c-0.7,1-1.4,2-1.9,3.1c-0.5,1-0.7,2.2-0.7,3.3
		C97.3,43.3,97.7,43.6,98.4,43.6"/>
	<path id="line-y" d="M141.4,98.7c-0.1-1.3,0.4-2.5,1.3-3.5c0.9-0.9,2.1-1.4,3.4-1.3c0.6,0,1.2,0.2,1.8,0.4c0.5,0.3,1.1,0.6,1.5,1
		c0.4,0.3,0.8,0.6,1.2,1c0.3,0.3,0.5,0.4,0.6,0.4c1.1,0,2.1-0.5,2.9-1.2c0.9-0.9,1.7-1.9,2.3-2.9c0.6-1.1,1.2-2.3,1.6-3.5
		c0.4-1,0.5-2,0.6-3.1c0-2.4-0.3-4.8-0.8-7.2c-0.5-2.5-1.1-4.8-1.7-7c-1.7-6.3-3.3-12.6-4.8-18.8c-1.5-6.2-3.1-12.5-4.7-18.8
		c0-0.2-0.1-0.4-0.1-0.6c-0.1-0.3-0.2-0.7-0.3-1c-0.1-0.3-0.2-0.7-0.4-1c-0.1-0.2-0.3-0.4-0.5-0.6c-0.5-0.2-1-0.3-1.5-0.4
		c-0.6-0.1-1.2-0.1-2-0.1c-0.7,0-1.5,0-2.1-0.1c-0.7-0.1-1.3-0.1-1.9-0.2c-0.6-0.1-1-0.7-1-1.3c0,0,0,0,0,0c0-0.4,0.2-0.8,0.6-0.9
		c0.4-0.2,0.8-0.3,1.2-0.3c0.8,0,1.8,0,2.9,0.1c1.1,0,2.3,0.1,3.5,0.1c1.2,0,2.3,0,3.3,0.1c1,0,1.9,0.1,2.6,0.1c2,0,4-0.1,6-0.2
		c2-0.1,3.9-0.2,5.6-0.2c0.1,0,0.4,0,0.8,0c0.3,0,0.6,0,0.9,0.1c0.2,0.1,0.3,0.2,0.4,0.4c0.1,0.2,0.2,0.4,0.2,0.7
		c0,0.2-0.2,0.4-0.5,0.6c-0.3,0.2-0.7,0.3-1.1,0.3c-0.4,0-0.9,0-1.5-0.1c-0.6,0-1-0.1-1.3-0.1c-0.4,0-0.8,0-1.3,0.1
		c-0.4,0-0.9,0.1-1.3,0.1c-0.5,0-1,0.2-1.5,0.5c-0.4,0.3-0.6,0.7-0.6,1.2c0,0.7,0.1,1.5,0.3,2.2c0.2,0.8,0.4,1.5,0.6,2.3
		c0.2,0.8,0.5,1.5,0.8,2.2c0.3,0.7,0.5,1.4,0.7,2c1.3,4.9,2.6,9.7,3.9,14.5s2.8,10,4.2,15.5c0.5,0,1-0.3,1.3-0.7
		c0.3-0.6,0.6-1.2,0.9-1.9c0.3-0.6,0.5-1.2,0.6-1.9c1.6-4.5,3.3-8.9,5.1-13.4s3.7-9,5.7-13.5c0.8-1.6,1.2-3.4,1.2-5.3
		c0-0.4,0-0.8-0.1-1.3c0-0.4-0.1-0.8-0.3-1.2c-0.2-0.4-0.4-0.7-0.8-0.9c-0.4-0.3-1-0.4-1.5-0.3h-1.7c-0.4,0-0.9,0-1.3,0
		c-0.5,0-0.9,0-1.4-0.1c-0.4,0-0.8,0-1.2-0.1c-0.2,0-0.4,0-0.6-0.1c-0.2-0.1-0.3-0.4-0.3-0.8c0-0.3,0.1-0.6,0.3-0.9
		c0.2-0.3,0.6-0.4,0.9-0.5c0.3-0.1,0.6-0.1,1-0.1h1.1c1.1,0,2.2,0,3.1,0.1s1.8,0.1,2.7,0.2c0.9,0.1,1.7,0.2,2.6,0.2
		c0.8,0.1,1.7,0.1,2.7,0.1c1.6,0,3.4-0.1,5.2-0.3s3.5-0.3,5-0.3c0.1,0,0.4,0,0.6,0c0.3,0,0.5,0.1,0.8,0.1c0.2,0,0.5,0.1,0.7,0.3
		c0.2,0.1,0.3,0.3,0.3,0.5c0,0.4-0.2,0.7-0.5,0.8c-0.4,0.2-0.8,0.4-1.2,0.4c-0.5,0.1-1,0.2-1.4,0.2c-0.5,0-0.8,0.1-1.1,0.1
		c-0.6,0.1-1.2,0.2-1.9,0.3c-0.7,0.1-1.3,0.3-1.9,0.5c-0.6,0.2-1.2,0.5-1.8,0.9c-0.6,0.4-1,0.9-1.4,1.5c-0.4,0.6-0.9,1.3-1.3,2.1
		s-1,1.6-1.5,2.5c-0.5,0.9-1,1.8-1.5,2.6c-0.5,0.9-0.9,1.7-1.2,2.4c-1.9,4-3.7,8.2-5.6,12.4s-3.8,8.3-5.8,12.4
		c-0.9,2-1.8,3.9-2.7,5.7s-1.7,3.6-2.5,5.4c-0.8,1.8-1.6,3.6-2.4,5.4c-0.8,1.8-1.7,3.7-2.6,5.6c-0.2,0.6-0.5,1.2-0.8,1.8
		c-0.4,0.9-0.9,1.8-1.5,2.7c-0.5,1-1.1,1.8-1.6,2.7c-0.3,0.5-0.7,1.1-1,1.6c-0.6,0.8-1.1,1.6-1.7,2.4c-0.6,0.8-1.3,1.4-2,2
		c-0.7,0.6-1.6,1-2.4,1.4c-1,0.3-2,0.5-3,0.5c-0.7,0-1.4-0.2-2.1-0.6c-0.6-0.4-1.2-1-1.6-1.6c-0.4-0.6-0.8-1.3-1-2.1
		C141.5,100.1,141.4,99.4,141.4,98.7"/>
	<path id="line-1" d="M189.9,93.8c0.1-0.1,0.2-0.2,0.2-0.3c0.1-0.2,0.3-0.4,0.4-0.6c0.6-0.3,1.2-0.6,1.6-0.9
		c0.4-0.2,0.8-0.4,1.2-0.6c0.1-0.1,0.1-0.1,0.2-0.2c0.7-0.4,1.5-0.9,2.5-1.5c1-0.6,1.9-1.3,2.8-2c0.8-0.7,1.6-1.5,2.3-2.3
		c0.6-0.7,0.9-1.6,1-2.5c0-0.1,0-0.3-0.1-0.4c0-0.2-0.2-0.3-0.3-0.3l-1,0.1c-0.3,0-0.7,0.1-1,0.1c-0.5,0-0.9,0-1.3-0.1
		c-0.4,0-0.8-0.1-1.2-0.1c-0.3-0.1-0.5-0.2-0.8-0.3c-0.3-0.2-0.7-0.3-1-0.6c-0.3-0.2-0.6-0.5-0.9-0.7c-0.2-0.2-0.5-0.4-0.7-0.6
		c-0.9-0.9-1.3-2.2-1.3-3.5c-0.1-1.6,0.5-3.1,1.6-4.3c1.2-1.1,2.7-1.7,4.3-1.6c1.2,0,2.4,0.3,3.5,0.8c1,0.5,1.9,1.2,2.7,2.1
		c0.7,0.9,1.3,1.9,1.7,3.1c0.4,1.2,0.6,2.4,0.6,3.6c0,2.1-0.4,4.1-1.4,6c-0.9,1.8-2.3,3.3-4,4.4c-0.6,0.4-1.2,0.8-1.9,1.3
		c-0.7,0.5-1.5,0.8-2.3,1.2c-1,0.4-2,0.8-3,1c-0.9,0.2-1.8,0.4-2.7,0.4c-0.3,0-0.6,0-0.8-0.1C190.6,94.4,190.2,94.1,189.9,93.8"/>
	<path id="line-i" d="M246.1,74.4V11.1c0.1-1.2-0.2-2.5-0.8-3.6c-0.5-0.8-1.3-1.4-2.1-1.7c-0.9-0.4-1.8-0.6-2.7-0.6
		c-1,0-1.9-0.1-2.7-0.1c-0.7,0-1.4-0.2-2.1-0.4c-0.6-0.2-0.9-0.8-0.8-1.4c0-0.4,0.3-0.8,0.7-0.9c0.4-0.1,0.9-0.2,1.3-0.2h3.1
		c0.9,0,1.8,0,2.6,0.1c0.8,0.1,1.5,0.1,2.2,0.2c0.7,0.1,1.4,0.1,2.1,0.2s1.5,0.1,2.4,0.1c1.8,0,3.4,0,4.8-0.1c1.4-0.1,2.7-0.2,4-0.3
		c1.3-0.1,2.5-0.2,3.8-0.3c1.3-0.1,2.7-0.1,4.3-0.1h3.8c0.5,0,0.9,0.1,1.3,0.3c0.2,0.2,0.5,0.3,0.8,0.4c0.1,0.2,0.2,0.5,0.3,0.7
		c0.1,0.2,0.1,0.3,0.1,0.5c0,0.4-0.3,0.8-1,1c-0.7,0.3-1.5,0.5-2.2,0.6c-0.8,0.2-1.7,0.3-2.6,0.4c-0.6,0.1-1.2,0.2-1.9,0.3
		c-0.6,0.1-1.2,0.2-1.9,0.3c-0.6,0.1-1.3,0.2-1.9,0.4c-0.5,0.2-1,0.5-1.4,0.9c-0.4,0.5-0.6,1.1-0.6,1.7V76c0,0.7,0.3,1.4,0.9,1.8
		c0.6,0.5,1.4,0.8,2.2,1c0.9,0.2,1.9,0.4,2.8,0.4c1,0.1,2,0.2,2.8,0.3c0.7,0.1,1.5,0.3,2.2,0.5c0.5,0.2,0.9,0.6,0.9,1.2
		c0,0.4-0.1,0.7-0.3,0.8s-0.4,0.2-0.6,0.3c-0.6,0.2-1.3,0.3-1.9,0.4c-0.7,0.1-1.3,0.2-2,0.2c-1.3,0-2.6,0-3.7-0.1
		c-1.1-0.1-2.2-0.2-3.3-0.2c-1-0.1-2.1-0.1-3.1-0.2c-1-0.1-2.2-0.1-3.4-0.1c-0.6,0-1.4,0-2.5,0.1s-2.2,0.1-3.4,0.1
		c-1.2,0.1-2.4,0.1-3.6,0.1s-2.2,0.1-3.1,0.1h-4.4c-0.3,0-0.6-0.1-0.8-0.3c-0.3-0.2-0.5-0.5-0.5-0.9c-0.1-0.6,0.3-1.2,1-1.3
		c0.8-0.2,1.6-0.4,2.2-0.5s1.3-0.3,2.1-0.4c0.7-0.1,1.5-0.3,2.4-0.4c0.9-0.1,1.9-0.4,3.2-0.6c0.6-0.1,1-0.6,1.2-1.2
		C246.1,76,246.1,75.2,246.1,74.4"/>
	<path id="line-2" d="M276,23c0.1-0.1,0.2-0.2,0.2-0.3c0.1-0.2,0.3-0.4,0.4-0.6c0.6-0.3,1.2-0.6,1.6-0.9c0.4-0.2,0.8-0.4,1.2-0.6
		c0.6-0.4,1.5-0.9,2.4-1.5c1-0.6,2-1.3,2.9-2c0.9-0.7,1.7-1.5,2.4-2.4c0.6-0.7,1-1.6,1-2.6c0-0.1,0-0.3-0.1-0.4
		c0-0.2-0.2-0.3-0.3-0.3c-0.3,0.1-0.7,0.1-1,0.2c-0.3,0-0.7,0.1-1,0.1c-0.4,0-0.9,0-1.3-0.1c-0.4,0-0.8-0.1-1.2-0.2
		c-0.3,0-0.5-0.1-0.8-0.2c-0.3-0.2-0.7-0.3-1-0.6c-0.3-0.2-0.6-0.5-0.9-0.7c-0.2-0.2-0.5-0.4-0.7-0.6c-0.9-0.9-1.3-2.2-1.3-3.5
		c-0.1-1.6,0.5-3.1,1.6-4.3c1.2-1.1,2.7-1.7,4.3-1.6c1.2,0,2.4,0.3,3.5,0.8c1,0.5,1.9,1.2,2.7,2.1c0.7,0.9,1.3,1.9,1.7,3.1
		c0.4,1.2,0.6,2.4,0.6,3.6c0,2.1-0.4,4.1-1.4,6c-0.9,1.8-2.3,3.3-4,4.4c-0.6,0.4-1.2,0.8-1.9,1.3c-0.7,0.5-1.5,0.8-2.3,1.2
		c-1,0.4-2,0.7-3,1c-0.9,0.2-1.8,0.3-2.7,0.3c-0.3,0-0.6,0-0.8-0.1C276.8,23.5,276.4,23.3,276,23"/>
	<path id="line-m" d="M304.5,78.2l1-37.7c0-0.4-0.1-0.8-0.2-1.2c-0.1-0.5-0.3-1-0.5-1.4c-0.2-0.4-0.5-0.8-0.8-1.2
		c-0.2-0.3-0.5-0.5-0.9-0.5c-0.7,0-1.3,0.1-1.9,0.2c-0.5,0.1-1,0.3-1.5,0.5c-0.5,0.2-0.8,0.3-1.2,0.4c-0.2,0.1-0.5,0.2-0.8,0.2
		c-0.4,0.1-0.7-0.2-0.8-0.6c0-0.1,0-0.1,0-0.2c0-0.4,0.2-0.7,0.5-1c0.3-0.3,0.6-0.6,1-0.8c0.4-0.2,0.7-0.4,1.1-0.6
		c0.4-0.2,0.7-0.3,0.8-0.4c1.3-0.3,2.4-0.7,3.5-1c1-0.4,2.1-0.7,3-1.2c1-0.4,1.9-0.9,2.9-1.4c1-0.5,2-1.1,3.2-1.7
		c0.4-0.2,0.9-0.3,1.3-0.3c0.4,0,0.7,0.2,0.7,0.6c0,0.5,0,0.9-0.1,1.4c-0.1,0.6-0.1,1.2-0.2,1.9c-0.1,0.6-0.1,1.2-0.2,1.8
		c-0.1,0.4-0.1,0.9-0.1,1.3v1.1c0,0.6,0.1,1.2,0.2,1.8c0.1,0.6,0.3,0.9,0.6,0.9c0.4,0,0.7-0.3,0.9-0.8c0.3-0.7,0.7-1.3,1.2-1.9
		c1.1-1.3,2.3-2.5,3.7-3.6c1.4-1.1,2.9-2.1,4.5-3c1.6-0.9,3.3-1.6,5-2.1c1.6-0.5,3.4-0.8,5.1-0.8c0.7,0,1.4,0.1,2.1,0.1
		c0.9,0.1,1.8,0.4,2.6,0.8c1,0.5,1.9,1.1,2.8,1.9c1.1,1,2,2.2,2.7,3.5c0.1,0.3,0.3,0.6,0.4,0.9c0.1,0.3,0.2,0.6,0.3,0.9
		s0.2,0.7,0.3,1.1s0.3,1,0.4,1.6c0.3,0.8,0.5,1.2,0.8,1.2c0.4,0,0.7-0.4,0.8-1.2c0.2-1,0.7-1.9,1.3-2.7c0.6-0.8,1-1.3,1.2-1.5
		c1.9-2.1,4.2-3.9,6.7-5.3c2.6-1.4,5.4-2.1,8.3-2.1c1.5,0,3.1,0.3,4.5,1c1.3,0.6,2.5,1.5,3.5,2.6c1,1.1,1.9,2.4,2.6,3.8
		c0.7,1.4,1.3,2.9,1.7,4.4c0.4,1.5,0.8,3,1,4.6c0.2,1.4,0.3,2.8,0.3,4.3v20.1c0,1.6-0.1,3.3-0.3,4.9c-0.2,1.4-0.3,2.9-0.3,4.3
		c-0.1,1,0.6,1.9,1.6,2.1c0.1,0,0.2,0,0.3,0h6.3c0.3,0,0.6,0.2,0.7,0.4c0,0.3,0.1,0.5,0.1,0.7c0,0.2,0.1,0.3,0.1,0.5
		c0,0.3,0,0.5-0.1,0.8c0,0.3-0.1,0.5-0.1,0.7c-0.1,0.3-0.5,0.4-1.2,0.4s-1.5,0.1-2.4,0.1h-5.3c-1.9,0-3.5,0-4.9,0.1
		c-1.4,0.1-2.6,0.1-3.6,0.2c-1.1,0.1-2.1,0.1-3,0.2c-0.9,0.1-1.8,0.1-2.8,0.1h-2.2c-1.2,0-1.7-0.5-1.7-1.6c0-0.3,0.1-0.7,0.2-1
		c0.1-0.2,0.3-0.4,0.5-0.6c0.3-0.1,0.5-0.2,0.8-0.3c0.4-0.1,0.9-0.2,1.4-0.3s1-0.1,1.4-0.2c0.3,0,0.6-0.1,1-0.1
		c0.2-0.1,0.4-0.1,0.6-0.1h1.6c0.6,0,1-0.4,1-1.1V44.9c0-1.4-0.1-2.9-0.4-4.3c-0.2-1.2-0.7-2.4-1.3-3.5c-0.6-1-1.4-1.8-2.4-2.4
		c-1.1-0.6-2.4-0.9-3.7-0.9c-2,0-4,0.3-5.9,1c-1.6,0.6-3.1,1.5-4.4,2.6c-1.2,1.1-2.1,2.5-2.8,4c-0.7,1.6-1,3.3-1,5v30.9
		c0,0.4,0.1,0.8,0.4,1.1c0.3,0.3,0.6,0.5,1,0.6c0.4,0.2,0.8,0.3,1.2,0.4c0.4,0.1,0.8,0.1,1.1,0.2c0.5,0,1,0.1,1.3,0.1
		c0.3,0,0.6,0.1,1,0.1h0.7c0.2,0,0.4,0,0.6,0.1c0.3,0.1,0.5,0.3,0.6,0.6c0.1,0.3,0.1,0.5,0.1,0.8c0,0.4-0.1,0.7-0.4,0.9
		c-0.3,0.2-0.7,0.4-1.1,0.4c-0.4,0.1-0.9,0.2-1.3,0.2c-0.5,0-0.9,0-1.2,0c0,0-0.3,0-0.8,0s-1.2,0-2,0s-1.9,0-3,0s-2.3,0-3.6,0
		c-0.9,0-1.8,0-2.8,0c-1,0-2,0-2.9,0.1c-1,0-1.8,0-2.6,0.1c-0.8,0-1.4,0-1.7,0c-0.7,0-1.3-0.1-2-0.3c-0.6-0.2-1-0.8-1-1.5
		c0-0.9,0.6-1.4,1.8-1.5c0.3-0.1,0.6-0.1,0.8-0.1h1c0.5,0,1,0,1.5-0.1c0.5,0,1-0.1,1.5-0.3c0.4-0.1,0.8-0.3,1.1-0.6
		c0.3-0.2,0.4-0.6,0.4-0.9l0.7-33.9c0-0.9-0.1-1.7-0.4-2.5c-0.3-0.9-0.8-1.8-1.3-2.6c-0.6-0.9-1.2-1.6-2-2.3
		c-0.8-0.7-1.6-1.2-2.6-1.6c-0.9-0.4-2-0.6-3-0.6c-1.3,0-2.6,0.2-3.9,0.6c-1.3,0.4-2.4,1-3.5,1.7c-1.1,0.7-2.1,1.6-2.9,2.6
		c-0.9,1-1.6,2.1-2.1,3.3c-0.2,0.7-0.4,1.4-0.6,2c-0.2,0.7-0.3,1.5-0.3,2.2l-0.8,31c0,0.6,0.1,1.1,0.2,1.7c0.1,0.4,0.5,0.8,1,0.7
		h6.6c0.3,0,0.5,0.1,0.6,0.3c0.1,0.2,0.1,0.5,0.1,0.7c0,0.4-0.1,0.9-0.3,1.3c-0.2,0.4-0.7,0.7-1.2,0.6c-1.6,0-3.3,0-4.9,0l-4.5-0.1
		c-1.4,0-2.7,0-3.8-0.1s-1.9,0-2.5,0c-1,0-2,0-3.2,0.1s-2.5,0.1-3.9,0.1h-1.5c-0.3,0-0.5-0.1-0.6-0.3c-0.2-0.2-0.3-0.5-0.3-0.8
		c0-0.3,0.1-0.7,0.3-0.9c0.2-0.3,0.6-0.5,1-0.5c0.5-0.1,1.1-0.2,1.6-0.3c0.5,0,1.1,0,1.6,0h2.1c0.5,0,1-0.1,1.5-0.3
		C304.3,79.2,304.5,78.7,304.5,78.2"/>
	<path id="line-k" d="M423.9,77V14c0-1.2-0.1-2.4-0.2-3.6c-0.1-1.1-0.3-2.2-0.6-3.3c-0.2-0.7-0.7-1.2-1.3-1.5
		c-0.7-0.4-1.5-0.6-2.3-0.7c-0.9-0.2-1.8-0.2-2.8-0.3c-0.9,0-1.8-0.1-2.6-0.2c-0.7-0.1-1.4-0.3-2-0.5c-0.5-0.2-0.8-0.7-0.8-1.2
		c0-0.3,0.1-0.5,0.3-0.8c0.2-0.3,0.6-0.5,0.9-0.5h2c1.7,0,3.1,0,4.3,0.1s2.3,0.1,3.4,0.2c1,0.1,2.1,0.1,3.1,0.1c1,0,2.3,0.1,3.6,0.1
		c1,0,1.9,0,2.8-0.1c0.9,0,1.8-0.1,2.7-0.1c0.9,0,1.9,0,2.8-0.1s2-0.1,3.2-0.1h3.6c0.4,0,0.7,0,1.1,0.1c0.3,0.1,0.5,0.4,0.5,0.8
		c0,0.6-0.3,1.1-0.8,1.3c-0.6,0.3-1.3,0.5-1.9,0.5c-0.8,0.1-1.6,0.2-2.5,0.2c-0.9,0-1.7,0.2-2.5,0.3c-0.7,0.1-1.4,0.4-1.9,0.8
		c-0.5,0.4-0.8,1.1-0.8,1.8v34.1c0.4,0,0.7-0.1,1.1-0.3c0.4-0.2,0.9-0.5,1.2-0.8c0.4-0.3,0.8-0.7,1.2-1.1c0.4-0.4,0.7-0.8,1-1.2
		c0.5-0.7,1-1.4,1.4-2c0.4-0.6,0.8-1.2,1.2-1.7c0.4-0.5,0.8-1.1,1.1-1.6s0.7-1,1.1-1.5c2.3-3,4.6-5.9,6.8-8.7s4.6-5.6,7-8.5
		c0.7-0.9,1.3-1.9,1.8-2.9c0.5-1,0.7-2,0.7-3.1c0-0.7-0.3-1.3-0.8-1.8c-0.5-0.6-1.1-1-1.8-1.2c-0.5-0.2-1.1-0.3-1.6-0.4
		c-0.6-0.1-1.3-0.2-1.9-0.3c-0.7-0.1-1.3-0.2-2-0.3c-0.6-0.1-1.2-0.2-1.8-0.4c-0.3-0.1-0.5-0.2-0.7-0.4c-0.2-0.2-0.2-0.5-0.2-0.8
		c0-0.1,0-0.2,0.1-0.3c0.1-0.1,0.1-0.2,0.2-0.3c0.2-0.1,0.3-0.1,0.5-0.2c0.2,0,0.5-0.1,0.8-0.1s0.5,0,0.7,0h0.5c1.4,0,2.6,0,3.7,0.1
		c1.1,0.1,2.2,0.1,3.2,0.2s2,0.2,2.9,0.2s1.9,0.1,3,0.1c1.8,0,3.6-0.1,5.4-0.3c1.5-0.2,3-0.3,4.5-0.3h4c0.7-0.1,1.5,0.1,2.1,0.5
		c0.3,0.2,0.5,0.4,0.5,0.6c0,0.1-0.1,0.2-0.2,0.3c-1.5,0.6-3.1,1.1-4.6,1.6c-1.6,0.4-3.2,1-4.7,1.6c-0.5,0.2-1,0.5-1.4,0.7
		c-0.5,0.3-1,0.6-1.5,1c-0.5,0.4-1,0.7-1.5,1.1c-0.4,0.3-0.8,0.7-1.2,1c-1.3,1.2-2.3,2.2-3.1,3c-0.8,0.8-1.5,1.5-2.1,2.1
		c-0.6,0.6-1.1,1.1-1.6,1.6c-0.5,0.5-1,1-1.5,1.6c-0.9,1-1.8,2-2.6,2.9c-0.8,1-1.7,1.9-2.6,2.9c-0.9,1-1.8,2.1-2.7,3.2
		c-0.9,1.1-1.9,2.3-3,3.6c-0.5,0.5-1,1-1.4,1.5c-0.4,0.4-0.6,1-0.6,1.6c0.1,0.4,0.3,0.7,0.6,1c0.4,0.5,0.9,1.2,1.5,2
		c0.6,0.8,1.3,1.6,2,2.5c0.7,0.9,1.4,1.7,2.1,2.6s1.3,1.6,1.8,2.2c0.5,0.7,0.9,1.2,1.1,1.5c2.1,2.2,4,4.5,5.8,6.8s3.8,4.7,5.8,7.2
		c0.6,0.7,1.4,1.6,2.4,2.8s2.1,2.4,3.3,3.8c1.2,1.4,2.5,2.7,3.8,4.1s2.6,2.7,3.9,3.9c1.1,1.1,2.3,2.1,3.5,3.1
		c0.8,0.7,1.8,1.3,2.8,1.7c0.7,0.3,1.4,0.5,2.1,0.6c1,0.2,2.1,0.5,3.2,0.8s2.1,0.6,2.9,0.9c0.8,0.3,1.3,0.6,1.3,0.9
		c0,0.3-0.1,0.5-0.3,0.6c-0.3,0.2-0.5,0.3-0.8,0.4c-0.3,0.1-0.7,0.2-1.1,0.2c-0.4,0-0.8,0-1.1,0h-1.3c-0.7,0-1.4,0-2.1-0.1
		c-0.7-0.1-1.3-0.2-2-0.3s-1.4-0.2-2.2-0.3s-1.7-0.1-2.7-0.1h-10.8c-0.4,0-0.8-0.2-1.1-0.4c-1.5-1.9-3-3.8-4.5-5.5
		c-1.5-1.8-3.1-3.6-4.7-5.4c-1.6-1.8-3.2-3.7-4.9-5.6c-1.6-1.9-3.3-3.9-5.1-6c-2-2.5-3.6-4.5-4.9-6.2c-1.3-1.6-2.5-3.1-3.6-4.3
		c-1.1-1.2-2.1-2.4-3.1-3.4c-1-1-2.2-2.1-3.5-3.3c-0.1,0-0.1-0.1-0.2-0.1c-0.1,0-0.2-0.1-0.3-0.1c-0.1,0-0.2,0.1-0.2,0.4v32.5
		c0,1,0.4,1.9,1.2,2.5c0.9,0.7,1.8,1.2,2.9,1.5c1.1,0.4,2.2,0.6,3.3,0.7c0.8,0.1,1.7,0.2,2.6,0.2c0.4,0,0.9,0.1,1.2,0.3
		c0.3,0.2,0.4,0.5,0.4,0.8c0.1,0.5-0.3,1-0.8,1.2c-0.6,0.1-1.3,0.2-1.9,0.2c-1.7,0-3.2,0-4.4-0.1c-1.3-0.1-2.4-0.1-3.5-0.2
		c-1.1-0.1-2.1-0.1-3.1-0.2c-1-0.1-2.1-0.1-3.3-0.1c-1.3,0-2.8,0-4.2,0l-4.3,0.1l-4,0.1c-1.3,0-2.4,0-3.3,0c-1.1,0-1.6-0.4-1.6-1.2
		c0-0.3,0-0.6,0.1-0.9c0-0.3,0.3-0.5,0.6-0.6c0.6-0.1,1.3-0.1,2-0.2c0.7,0,1.4-0.1,2-0.1h1.2c0.8,0,1.7,0,2.5-0.1
		c0.7-0.1,1.4-0.2,2.1-0.5C423.6,78.6,424,77.8,423.9,77"/>
	<path id="line-a" d="M520.4,74.5l-0.3,0.2c-0.3,0.2-0.6,0.5-0.9,0.8c-0.6,0.5-1.2,1.1-1.9,1.8c-0.7,0.7-1.4,1.3-2,1.8
		c-0.3,0.4-0.7,0.7-1.2,0.9c-1.3,0.7-2.7,1.4-4.1,1.9c-1.6,0.6-3.4,0.9-5.1,0.9c-1.4,0-2.7-0.2-4-0.6c-1.3-0.4-2.6-1-3.6-1.9
		c-1.1-1-2-2.3-2.6-3.7c-0.7-1.9-1-3.8-1-5.8c0-1.1,0.3-2.2,0.6-3.3c0.4-1.4,1.2-2.6,2.2-3.6c1-1.2,2.2-2.2,3.5-3.1
		c1.3-0.9,2.7-1.6,4.2-2.2c1.6-0.7,3.3-1.3,5-1.8c1.8-0.5,3.9-1.1,6.1-1.6c0.5-0.1,1.1-0.2,1.7-0.4c0.6-0.1,1.2-0.3,1.7-0.5
		c0.5-0.1,1-0.3,1.4-0.4c0.3-0.1,0.5-0.2,0.8-0.4c0.2-0.1,0.4-0.3,0.5-0.4c0.2-0.2,0.3-0.5,0.3-0.8c0.1-0.9,0.3-1.8,0.4-2.8
		c0.1-1,0.2-1.9,0.3-2.9c0.1-1,0.2-1.9,0.2-2.8c0-0.9,0.1-1.7,0.1-2.4c0-1.4-0.3-2.8-0.8-4.1c-0.5-1.2-1.3-2.4-2.3-3.3
		c-1-0.9-2.1-1.7-3.3-2.2c-1.3-0.5-2.7-0.8-4-0.8c-1.2,0-2.4,0.3-3.5,0.8c-1.2,0.5-2.3,1.3-3.3,2.2c-1,0.9-1.8,1.9-2.4,3.1
		c-0.6,1.1-0.9,2.3-1,3.5c0,0.5,0.1,1,0.4,1.3c0.3,0.3,0.6,0.7,1,1c0.3,0.3,0.7,0.6,1,1c0.3,0.4,0.5,1,0.4,1.5
		c0.1,1.4-0.5,2.7-1.5,3.6c-1,0.9-2.3,1.3-3.6,1.3c-0.8,0-1.6-0.2-2.3-0.5c-1.3-0.7-2.3-1.9-2.8-3.4c-0.2-0.7-0.4-1.5-0.4-2.3
		c0-0.8,0.2-1.7,0.6-2.4c0.4-0.9,0.9-1.7,1.5-2.5c0.6-0.8,1.2-1.6,1.9-2.3c0.7-0.7,1.2-1.3,1.7-1.8c0.8-0.8,1.6-1.5,2.4-2.1
		c0.8-0.6,1.6-1.2,2.4-1.8c0.6-0.4,1.3-0.7,2-1c0.7-0.3,1.3-0.5,2-0.7c0.4-0.1,0.9-0.3,1.5-0.5s1.4-0.4,2.2-0.6
		c0.8-0.2,1.6-0.3,2.5-0.5c0.8-0.1,1.7-0.2,2.6-0.2c1.8,0,3.5,0.2,5.2,0.7c1.7,0.5,3.2,1.2,4.5,2.3c1.4,1.1,2.5,2.5,3.2,4
		c0.9,1.8,1.3,3.9,1.2,5.9c0,2.5-0.1,5.1-0.4,7.8c-0.3,2.7-0.6,5.2-0.9,7.6c-0.3,2.4-0.6,4.7-0.9,6.7c-0.2,1.6-0.4,3.3-0.4,4.9
		c0,0.8,0.1,1.6,0.2,2.4c0.1,0.9,0.3,1.9,0.6,2.8c0.3,0.8,0.7,1.6,1.3,2.3c0.5,0.6,1.4,1,2.2,1c1.1,0,2.1-0.3,3-0.7
		c1-0.5,1.9-1.1,2.7-1.9c0.8-0.7,1.6-1.6,2.2-2.5c0.6-0.8,1.1-1.7,1.6-2.6c0.1-0.1,0.2-0.3,0.3-0.5c0.1-0.2,0.2-0.3,0.4-0.3
		c0.1,0,0.2,0.1,0.2,0.4v0.6c0,1.7-0.3,3.4-0.9,5c-0.6,1.7-1.5,3.2-2.7,4.5c-1.2,1.4-2.7,2.5-4.4,3.3c-1.9,0.9-3.9,1.3-6,1.3
		c-0.5,0-1,0-1.4-0.1c-0.5-0.1-1-0.2-1.5-0.4c-0.9-0.4-1.7-1-2.4-1.6c-0.6-0.6-1.2-1.2-1.7-1.8c-0.5-0.7-0.9-1.3-1.3-2
		C521.3,76.1,520.8,75.3,520.4,74.5 M502.6,72.4c-0.1,1.6,0.7,3.2,2,4.1c0.6,0.4,1.3,0.8,2.1,1c0.8,0.2,1.6,0.3,2.4,0.3
		c1,0,1.9-0.1,2.8-0.3c0.9-0.2,1.8-0.5,2.6-0.8c0.8-0.3,1.5-0.7,2.3-1.1c0.7-0.4,1.3-0.8,1.9-1.2c0.8-0.6,1.3-1.5,1.4-2.5
		c0-2.6,0.2-5.2,0.5-7.8c0.4-2.4,0.5-4.8,0.5-7.2c0-0.3,0-0.6-0.1-0.8c0-0.3-0.3-0.5-0.5-0.4c0,0,0,0,0,0c-0.3,0-0.7,0-1,0.1
		c-0.3,0.1-0.6,0.2-0.9,0.3c-1.6,0.6-3.3,1.3-4.8,2s-3.1,1.4-4.7,2.2c-1.1,0.6-2,1.3-2.8,2.2c-0.8,0.9-1.5,2-2.1,3.1
		c-0.6,1.1-1,2.3-1.3,3.5C502.7,70.1,502.6,71.2,502.6,72.4"/>
	<path id="line-y2" d="M545.1,98.7c-0.1-1.3,0.4-2.5,1.3-3.5c0.9-0.9,2.1-1.4,3.4-1.3c0.6,0,1.2,0.2,1.8,0.4c0.5,0.3,1.1,0.6,1.5,1
		c0.4,0.3,0.8,0.6,1.2,1c0.3,0.3,0.5,0.4,0.6,0.4c1.1,0,2.1-0.5,2.9-1.2c0.9-0.9,1.7-1.9,2.3-2.9c0.6-1.1,1.2-2.3,1.6-3.5
		c0.4-1,0.5-2,0.6-3.1c0-2.4-0.3-4.8-0.8-7.2c-0.5-2.5-1.1-4.8-1.7-7c-1.7-6.3-3.3-12.6-4.8-18.8s-3.1-12.5-4.7-18.8
		c0-0.2-0.1-0.4-0.1-0.6c-0.1-0.3-0.2-0.7-0.3-1c-0.1-0.3-0.2-0.7-0.4-1c-0.1-0.2-0.3-0.4-0.5-0.6c-0.5-0.2-1-0.3-1.5-0.4
		c-0.6-0.1-1.2-0.1-2-0.1s-1.4,0-2.1-0.1c-0.7-0.1-1.3-0.1-1.9-0.2c-0.6-0.1-1-0.7-1-1.3c0,0,0,0,0,0c0-0.4,0.2-0.8,0.6-0.9
		c0.4-0.2,0.8-0.3,1.2-0.3c0.8,0,1.8,0,2.9,0.1c1.1,0,2.3,0.1,3.5,0.1c1.2,0,2.3,0,3.3,0.1c1,0,1.9,0.1,2.6,0.1c2,0,4-0.1,6-0.2
		s3.9-0.2,5.6-0.2c0.1,0,0.4,0,0.8,0c0.3,0,0.6,0,0.9,0.1c0.2,0.1,0.3,0.2,0.4,0.4c0.1,0.2,0.2,0.4,0.2,0.7c0,0.2-0.2,0.4-0.5,0.6
		c-0.3,0.2-0.7,0.3-1.1,0.3c-0.4,0-0.9,0-1.5-0.1c-0.6,0-1-0.1-1.3-0.1c-0.4,0-0.8,0-1.3,0.1c-0.4,0-0.9,0.1-1.3,0.1
		c-0.5,0-1,0.2-1.5,0.5c-0.4,0.3-0.6,0.7-0.6,1.2c0,0.7,0.1,1.5,0.3,2.2c0.2,0.8,0.4,1.5,0.6,2.3c0.2,0.8,0.5,1.5,0.8,2.2
		c0.3,0.7,0.5,1.4,0.7,2c1.3,4.9,2.6,9.7,3.9,14.5s2.8,10,4.2,15.5c0.5,0,1-0.3,1.3-0.7c0.3-0.6,0.6-1.2,0.9-1.9
		c0.3-0.6,0.5-1.2,0.6-1.9c1.6-4.5,3.3-8.9,5.1-13.4s3.7-9,5.7-13.5c0.8-1.6,1.2-3.4,1.2-5.3c0-0.4,0-0.8-0.1-1.3
		c0-0.4-0.1-0.8-0.3-1.2c-0.2-0.4-0.4-0.7-0.8-0.9c-0.4-0.3-1-0.4-1.5-0.3h-1.7c-0.4,0-0.9,0-1.3,0c-0.5,0-0.9,0-1.4-0.1
		c-0.5,0-0.8,0-1.2-0.1c-0.2,0-0.4,0-0.6-0.1c-0.2-0.1-0.3-0.4-0.3-0.8c0-0.3,0.1-0.6,0.3-0.9c0.2-0.3,0.6-0.4,0.9-0.5
		c0.3-0.1,0.6-0.1,1-0.1h1.1c1.1,0,2.2,0,3.1,0.1c0.9,0.1,1.8,0.1,2.7,0.2c0.9,0.1,1.7,0.2,2.6,0.2c0.8,0.1,1.7,0.1,2.7,0.1
		c1.6,0,3.4-0.1,5.2-0.3s3.5-0.3,5-0.3c0.1,0,0.4,0,0.6,0c0.3,0,0.5,0.1,0.8,0.1c0.2,0,0.5,0.1,0.7,0.3c0.2,0.1,0.3,0.3,0.3,0.5
		c0,0.4-0.2,0.7-0.5,0.8c-0.4,0.2-0.8,0.4-1.2,0.4c-0.5,0.1-1,0.2-1.4,0.2c-0.5,0-0.8,0.1-1.1,0.1c-0.6,0.1-1.2,0.2-1.9,0.3
		c-0.7,0.1-1.3,0.3-1.9,0.5c-0.6,0.2-1.2,0.5-1.8,0.9c-0.6,0.4-1,0.9-1.4,1.5c-0.4,0.6-0.9,1.3-1.3,2.1s-1,1.6-1.5,2.5
		c-0.5,0.9-1,1.8-1.5,2.6c-0.5,0.9-0.9,1.7-1.2,2.4c-1.9,4-3.7,8.2-5.6,12.4s-3.8,8.3-5.8,12.4c-0.9,2-1.8,3.9-2.7,5.7
		s-1.7,3.6-2.5,5.4c-0.8,1.8-1.6,3.6-2.4,5.4c-0.8,1.8-1.7,3.7-2.6,5.6c-0.2,0.6-0.5,1.2-0.8,1.8c-0.4,0.9-0.9,1.8-1.5,2.7
		c-0.5,1-1.1,1.8-1.6,2.7c-0.3,0.5-0.7,1.1-1,1.6c-0.6,0.8-1.1,1.6-1.7,2.4c-0.6,0.8-1.3,1.4-2,2c-0.7,0.6-1.6,1-2.4,1.4
		c-1,0.3-2,0.5-3,0.5c-0.7,0-1.4-0.2-2-0.6c-0.6-0.4-1.2-1-1.6-1.6c-0.4-0.6-0.8-1.3-1-2.1C545.3,100.1,545.2,99.4,545.1,98.7"/>
	<path id="line-3" d="M619.7,56.3c-0.3,0-0.6-0.2-0.8-0.5c-0.3-0.3-0.5-0.7-0.4-1.2c0-0.4,0.2-0.8,0.4-1c0.2-0.3,0.5-0.4,0.8-0.5
		c10.8,0,21.5,0,32,0c10.5,0,21.2,0.1,31.9,0.1c1.3,0,2.5,0,3.8,0c1.2,0,2.5,0,3.8,0c4.2,0,8.2,0,12-0.1c3.9,0,7.9-0.1,12-0.2
		c0.3,0.1,0.6,0.3,0.8,0.5c0.6,0.4,0.7,1.2,0.3,1.8c-0.1,0.1-0.2,0.2-0.3,0.3c-0.4,0.4-0.7,0.5-0.8,0.5c-6.6,0-13.1,0-19.3,0.1
		c-6.2,0-12.7,0.1-19.3,0.1c-8.2,0-16.7-0.1-25.4-0.2c-1.7,0-3.4-0.1-5-0.1h-5c-3.4,0-6.8,0-10,0c-3.2,0-6.5,0-9.9,0.1H619.7z"/>
</g>
<g id="clip">
	<clipPath id="clip-path">
		<path id="h1" class="st0" d="M17,2.6c0.3,27.2,0,54.4-0.6,81.6"/>
		<path id="h2" class="st0" d="M11.4,41.4c8-0.7,16-0.7,24.1-0.7c10.8,0,21.6,0,32.4,0"/>
		<path id="h3" class="st0" d="M64.2,1.4c-0.1,12.6-0.2,25.2,0.2,37.9c0.2,6.3,0.5,12.7,0.8,19c0.4,8.2,0.8,16.3,1.1,24.5"/>
		<path id="e1" class="st0" d="M96.8,44.9c11-0.3,22-0.4,33.1-0.3c0.7-3.7-0.6-7.7-3.4-10.2c-2.9-2.6-6.9-3.4-10.8-3.8
			c-3.2-0.4-6.5-0.5-9.7,0.2c-5.4,1.3-10.1,5.6-11.9,10.9c-0.5,1.5-0.8,3-1.1,4.5c-0.9,5.2-1.3,10.5-1.3,15.8c0,2.7,0.1,5.5,0.8,8.1
			c0.3,1.2,0.7,2.4,1.4,3.4c0.7,1,1.6,1.8,2.6,2.5c5.4,3.9,12.4,5.6,19,4.7c6.6-0.9,12.9-4.4,17.1-9.6"/>
		<path id="y1" class="st0" d="M149.3,26.6c3.3,16,8.4,31.6,15.3,46.4"/>
		<path id="y2" class="st0" d="M189.1,25.2c-4,10.3-9.2,20-14.4,29.7c-1.3,2.4-2.6,4.8-3.9,7.2c-6.4,11.7-13.2,23.2-20.6,34.4
			c-0.7,1.1-1.5,2.3-2.6,3c-1.2,0.9-2.7,1.2-4.1,1.6c-0.7,0.2-1.5,0.3-2.2,0.2s-1.4-0.8-1.4-1.6"/>
		<path id="dot1" class="st0" d="M197.8,74.1c0.9-0.5,2.1-0.2,2.9,0.4c0.8,0.6,1.4,1.5,1.8,2.5c1,2.1,1.5,4.5,1.4,6.8
			c-0.1,2.6-0.8,5.3-2.4,7.5c-1.5,2.2-3.9,3.8-6.4,4.3"/>
		<path id="i1" class="st0" d="M251.8,2c-0.7,5.1-1.1,10.2-1.3,15.4c-0.9,21.4,0.5,42.8,0.9,64.1"/>
		<path id="dot2" class="st0" d="M283.7,3.2c2.4,0.6,4.6,1.6,6.7,2.9c0.4,0.3,0.9,0.6,1.2,1c0.5,0.7,0.7,1.7,0.7,2.5
			c0,3-1.5,5.9-3.6,8s-4.8,3.7-7.5,4.8"/>
		<path id="m1" class="st0" d="M307.3,30.8c2.2,8.2,3.1,16.9,2.4,25.4c-0.2,2.3-0.5,4.7-0.7,7c-0.7,5.9-1.4,11.8-2.1,17.7
			c2.1-9.4,4.2-18.7,6.2-28.1c0.9-4.2,1.9-8.6,4-12.4s5.4-7.2,9.6-8.3c1.8-0.5,3.6-0.5,5.5-0.5c1.7,0,3.6,0.1,5,1
			c1.5,0.9,2.4,2.5,3.1,4.1c2,4.6,2.6,9.6,3,14.6c0.4,5.4,0.7,10.7,0.7,16.1c0,5.2-0.3,10.8-3.3,15c-0.2-12.9,1.4-25.8,4.9-38.2
			c0.7-2.7,1.6-5.5,3.5-7.5c1.5-1.6,3.4-2.7,5.3-3.6c2.4-1.1,4.9-2.2,7.5-2.5c2.6-0.3,5.4,0.2,7.5,1.8c2.2,1.7,3.3,4.4,4.1,7
			c0.7,2.8,1.1,5.7,1.4,8.5c1.1,11.1,1.4,22.3,1.1,33.5"/>
		<path id="k1" class="st0" d="M429.7,1.7c-1.1,26.8-2.1,53.6-1,80.3"/>
		<path id="k2" class="st0" d="M466.6,6.4c-3.1,3-6.2,5.8-9,9c-5.7,6.3-10.1,13.6-14.4,20.8c-1.2,2-2.4,4.2-2,6.4
			c0.3,1.8,1.6,3.2,2.8,4.5c4.2,4.4,8.3,8.8,12.5,13.3c2.3,2.5,4.7,5,7.4,7.1c2.6,2,5.4,3.6,8.3,5.1c4.8,2.6,9.5,5.3,14.3,7.9"/>
		<path id="a1" class="st0" d="M523.6,54.1c-6.5,1.3-12.8,3.7-18.6,6.9c-2.3,1.3-4.6,2.7-5.9,5c-1.3,2.1-1.7,4.7-1.8,7.3
			c0,0.6,0,1.2,0.2,1.8c0.6,1.4,2.3,1.9,3.8,2.1c3.5,0.6,7.1,1.2,10.7,0.8c3.6-0.3,7.2-1.7,9.4-4.5"/>
		<path id="a2" class="st0" d="M501,47.7c-0.2-2.3-0.4-4.6-0.4-6.9c0-1.2,0.1-2.4,0.4-3.6c0.5-1.7,1.6-3.2,2.7-4.6
			c1.4-1.8,2.8-3.7,4.8-4.8c2.5-1.4,5.5-1.5,8.4-1.5c0.8,0,1.7,0,2.5,0.4c0.6,0.3,1.1,0.7,1.6,1.2c3.8,3.8,5.6,9.1,6.4,14.4
			c0.7,5.3,0.4,10.7,0.4,16s0.4,10.8,2.4,15.8c0.8,2.1,2.2,4.2,4.4,4.6c1.7,0.3,3.4-0.5,4.9-1.2c3.1-1.5,6.3-3.2,7.9-6.2"/>
		<path id="y21" class="st0" d="M553.5,24c0.5,16.8,8.2,32.5,15.7,47.6"/>
		<path id="y22" class="st0" d="M589.6,29.4c-1.5,7.2-3,14.4-6.2,21c-1.5,3.1-3.3,6-4.9,9.1c-3.1,5.9-5.4,12.3-8.6,18.2
			c-1.2,2.2-2.5,4.4-3.8,6.6c-2.7,4.5-5.4,9-8.1,13.5c-1.4,2.3-3.3,4.9-6,4.6c-2.4-0.3-3.8-2.7-4.8-4.9"/>
		<path id="dot3" class="st0" d="M619.1,54.7c30.4,0.9,60.7,1.2,91.1,0.9"/>
	</clipPath>
</g>
</svg>
